<svg data-name="Layer 1" xmlns="http://www.w3.org/2000/svg" viewBox="0 0 800 800">
  <path d="M70.65 594.59h-.48a4 4 0 0 0-.89 2.41c0 18 147.36 32.63 329.14 32.63 180.79 0 327.52-14.44 329.15-32.33H619.06a133.41 133.41 0 0 1-31.83 4.05 95.67 95.67 0 0 1-28.4-4.05h-26.58v1.13a4.45 4.45 0 0 1-.62 2.2 6.84 6.84 0 0 1-1.53 1.75 16.59 16.59 0 0 1-4.86 2.63 48.61 48.61 0 0 1-15.1 2.52h-1.49a52.62 52.62 0 0 1-10-.9 24.66 24.66 0 0 1-7.4-2.48 7.8 7.8 0 0 1-3-2.67 4.17 4.17 0 0 1-.63-2.11h1.49-1.49v-.09l.08-2H71.53a1.5 1.5 0 0 1-.88-2.71" fill="#d4d8e5"/>
  <path d="M71.53 597.3h656.55a1.5 1.5 0 1 0 0-3H71.53a1.5 1.5 0 1 0 0 3" fill="#0b1236"/>
  <path d="M245.58 563.33h-4.22a6.19 6.19 0 0 0-3.24.92H246c-.14-.34-.27-.66-.37-.92m356-216.79a106.29 106.29 0 0 1-9.24 7.71v69.12a21.89 21.89 0 0 1 2.74-1.51 12.2 12.2 0 0 1 4.34-1h.56a9.46 9.46 0 0 1 2.77.41V352.3a18.45 18.45 0 0 0-1.16-5.76M288.47 334.6h-12.19a22.49 22.49 0 0 0-6.39.92h18.58v-.92" fill="#d4d8e5"/>
  <path d="M260.08 584.07c-1 0-1.8-.78-2.7-2l-.08-.12-.15-.22c-.61-.84-1.34-2-2.12-3.29-.17-.27-.35-.58-.54-.89-2.37-4.12-5.1-9.52-6.64-12.8l-.24-.51c-.35-.79-.63-1.46-.75-1.82v-.15a1.76 1.76 0 0 1-.06-.46V356.05a20 20 0 0 1 20-19h308.02a15.17 15.17 0 0 1 5.53 1 15.94 15.94 0 0 1 10.51 14.42v209.39a2.64 2.64 0 0 1-.1.68v.14c-.07.31-.2.78-.36 1.35l-.07.19c-.47 1.63-1.26 4.09-2.15 6.63l-.49 1.44a52.45 52.45 0 0 1-2.1 5.21 4.18 4.18 0 0 1-.76 1.16 1.71 1.71 0 0 1-1.23.56h-12l-23.44.08h-1l-275.1.94h-5.07c-2.09 0-3.8 1.31-5.73 3.27a1.74 1.74 0 0 1-1.24.51" fill="#8c58c4"/>
  <path d="M574.82 338.52a13.64 13.64 0 0 1 5 .91 14.52 14.52 0 0 1 9.55 13.07v209.36a1.67 1.67 0 0 1-.06.35v.12c-.06.32-.19.76-.34 1.29-.47 1.65-1.3 4.22-2.17 6.74-.17.47-.33 1-.5 1.44a51.84 51.84 0 0 1-2 5 3.61 3.61 0 0 1-.48.77l-.17.12H547.2l-270.28.93h-9.9c-2.73 0-4.85 1.75-6.79 3.71l-.17.07c-.32 0-.85-.51-1.51-1.36-.07-.11-.13-.21-.2-.3-.6-.84-1.31-1.95-2.05-3.19-.18-.29-.36-.59-.53-.89-2.42-4.19-5.16-9.63-6.58-12.66-.09-.21-.18-.39-.26-.55-.35-.79-.58-1.38-.67-1.63V356.11a18.59 18.59 0 0 1 18.49-17.59h308.07m0-3H266.77A21.5 21.5 0 0 0 245.29 356v205.86a3.68 3.68 0 0 0 .06.66 4.28 4.28 0 0 0 .15.51c.14.42.42 1.09.75 1.82l.05.11.19.4v.08c1.56 3.31 4.31 8.75 6.7 12.89v.07l.53.88c.79 1.33 1.55 2.5 2.19 3.38l.09.14.16.23c1 1.32 2.18 2.54 3.89 2.54a3.2 3.2 0 0 0 2.29-.94c1.68-1.71 3.12-2.84 4.69-2.84H277l270.28-.93h36.46a3.2 3.2 0 0 0 2.3-1 6 6 0 0 0 1-1.5 56.6 56.6 0 0 0 2.19-5.39v-.05l.25-.74.24-.71c.88-2.52 1.67-5 2.15-6.62l.09-.28c.14-.51.28-1 .37-1.39a1.71 1.71 0 0 0 .06-.26 4.35 4.35 0 0 0 .11-.92V352.35a17.45 17.45 0 0 0-11.49-15.73 16.74 16.74 0 0 0-6-1.1" fill="#0b1236"/>
  <path d="M589.38 356.39a104.19 104.19 0 0 1-12.11 7.17v59a18.74 18.74 0 0 1 2.13 1c3.09 1.74 5.26 2.29 6.88 2.29a7 7 0 0 0 3.09-.72v-68.74" fill="#724aa8"/>
  <path d="M266.33 354.87a13.55 13.55 0 0 1-13.6-9.85 18.5 18.5 0 0 0-4.45 11.09v205.82a1.23 1.23 0 0 0 0 .28v.12c.07.32.19.76.34 1.29.47 1.65 1.3 4.22 2.18 6.74.16.47.32 1 .49 1.44.75 2.08 1.49 4 2 5a4.07 4.07 0 0 0 .48.77l.18.12h14.51v-223a16 16 0 0 1-2.22.16" fill="#ab86db"/>
  <path d="M258.71 595.21a31.82 31.82 0 0 1-21.54-8.14 27 27 0 0 1-8.9-17.62 3.27 3.27 0 0 1 .88-2.53 3.69 3.69 0 0 1 2.71-1.17H380a2.56 2.56 0 0 1 2.58 2.3 8.84 8.84 0 0 0 2.92 5.64 10.75 10.75 0 0 0 7.29 2.75h52.11a10.75 10.75 0 0 0 7.29-2.75 8.84 8.84 0 0 0 2.92-5.64 2.56 2.56 0 0 1 2.58-2.3h148.08a3.69 3.69 0 0 1 2.71 1.17 3.27 3.27 0 0 1 .88 2.53 27 27 0 0 1-8.9 17.62 31.82 31.82 0 0 1-21.54 8.14H258.71" fill="#5b4087"/>
  <path d="M605.77 567.25a2 2 0 0 1 2.09 2.07 25.44 25.44 0 0 1-8.41 16.68 30.42 30.42 0 0 1-20.53 7.75H258.71a30.42 30.42 0 0 1-20.53-7.75 25.5 25.5 0 0 1-8.42-16.64 2 2 0 0 1 2.1-2.07H380a1.07 1.07 0 0 1 1.09 1 10.32 10.32 0 0 0 3.4 6.6 12.32 12.32 0 0 0 8.3 3.14h52.11a12.33 12.33 0 0 0 8.3-3.14 10.32 10.32 0 0 0 3.4-6.6 1.07 1.07 0 0 1 1.09-1h148.08m0-3H457.66a4.05 4.05 0 0 0-4.07 3.65 7.37 7.37 0 0 1-2.44 4.68 9.23 9.23 0 0 1-6.28 2.36h-52.11a9.23 9.23 0 0 1-6.28-2.36 7.37 7.37 0 0 1-2.48-4.72 4.05 4.05 0 0 0-4.07-3.65H231.86a5.17 5.17 0 0 0-3.82 1.66 4.79 4.79 0 0 0-1.26 3.67 28.42 28.42 0 0 0 9.38 18.6 33.3 33.3 0 0 0 22.55 8.53h320.21a33.3 33.3 0 0 0 22.55-8.53 28.42 28.42 0 0 0 9.38-18.6 4.79 4.79 0 0 0-1.26-3.67 5.17 5.17 0 0 0-3.82-1.66" fill="#0b1236"/>
  <path d="M280.48 587.37a35.36 35.36 0 0 1-8.33-20.12h-40.29a2 2 0 0 0-2.1 2.07 25.43 25.43 0 0 0 8.42 16.68 30.42 30.42 0 0 0 20.53 7.75h29.5a29.43 29.43 0 0 1-7.73-6.38Z" fill="#4e3977"/>
  <path d="M271.19 547.39a9.29 9.29 0 0 1-4.83-1.37 9 9 0 0 1-3.19-3.25 9.41 9.41 0 0 1-1.33-4.86V362.1a3.57 3.57 0 0 1 0-.54 9.56 9.56 0 0 1 1.73-5 2.6 2.6 0 0 1 .43-.56 9.12 9.12 0 0 1 7.18-3.42h295.26a9.29 9.29 0 0 1 7.12 3.33 9.46 9.46 0 0 1 2.21 6.13v175.87a9.41 9.41 0 0 1-9.33 9.48H271.19" fill="#2f96f4"/>
  <path d="M566.44 354.07a7.74 7.74 0 0 1 6 2.8 8 8 0 0 1 1.86 5.16v175.88a7.89 7.89 0 0 1-7.83 8H271.19a7.74 7.74 0 0 1-4-1.15 7.51 7.51 0 0 1-2.68-2.72 8 8 0 0 1-1.13-4.11V362.1a2.12 2.12 0 0 1 0-.37 8.08 8.08 0 0 1 1.51-4.4 1.37 1.37 0 0 1 .27-.35 7.59 7.59 0 0 1 6.05-2.91h295.23m0-3H271.19a10.63 10.63 0 0 0-8.31 3.93 4.86 4.86 0 0 0-.54.71 11.06 11.06 0 0 0-2 5.7 4.75 4.75 0 0 0 0 .69v175.81a10.89 10.89 0 0 0 1.55 5.63 10.47 10.47 0 0 0 3.71 3.77 10.71 10.71 0 0 0 5.59 1.58h295.25a10.92 10.92 0 0 0 10.83-11V362a11.1 11.1 0 0 0-2.55-7.08 10.8 10.8 0 0 0-8.28-3.88" fill="#0b1236"/>
  <path d="M549.16 439.33v67.38c1.63-2 3.26-4 4.86-6.09q1.35-1.74 2.64-3.57V452c-1.5-1.79-2.69-2.82-3.79-4a11.6 11.6 0 0 1-2.08-2.78 18.19 18.19 0 0 1-1.63-5.9m7.5-68q-3.7 1-7.5 1.65v62.77a12.81 12.81 0 0 1 1.75-4.66 18.29 18.29 0 0 1 4.79-5.16c.31-.24.63-.46 1-.68v-53.91m-268.23-17.26h-17.28a7.59 7.59 0 0 0-6.05 2.91 1.37 1.37 0 0 0-.27.35 8.08 8.08 0 0 0-1.51 4.4 2 2 0 0 0 0 .36v6.73a77.45 77.45 0 0 1 8.31 91.46l1.06 24.2a3 3 0 0 1-.89 2.27 3 3 0 0 1-2.11.86h-.17l-6.2-.35v50.64a8 8 0 0 0 1.13 4.11 7.51 7.51 0 0 0 2.68 2.72 7.74 7.74 0 0 0 4 1.15h17.28V354.07" fill="#16396f"/>
  <path d="M566.44 354.07a7.74 7.74 0 0 1 6 2.8 8 8 0 0 1 1.86 5.16v175.88a7.89 7.89 0 0 1-7.83 8H271.19a7.74 7.74 0 0 1-4-1.15 7.51 7.51 0 0 1-2.68-2.72 8 8 0 0 1-1.13-4.11V362.1a2.12 2.12 0 0 1 0-.37 8.08 8.08 0 0 1 1.51-4.4 1.37 1.37 0 0 1 .27-.35 7.59 7.59 0 0 1 6.05-2.91h295.23m0-3H271.19a10.63 10.63 0 0 0-8.31 3.93 4.86 4.86 0 0 0-.54.71 11.06 11.06 0 0 0-2 5.7 4.75 4.75 0 0 0 0 .69v175.81a10.89 10.89 0 0 0 1.55 5.63 10.47 10.47 0 0 0 3.71 3.77 10.71 10.71 0 0 0 5.59 1.58h295.25a10.92 10.92 0 0 0 10.83-11V362a11.1 11.1 0 0 0-2.55-7.08 10.8 10.8 0 0 0-8.28-3.88" fill="#0b1236"/>
  <path d="M549.14 593.56a29.49 29.49 0 0 1-3 .15h3.32l-.33-.15" fill="#4b3777"/>
  <path d="M463.56 587.7h42.77a1.5 1.5 0 0 0 0-3h-42.77a1.5 1.5 0 1 0 0 3" fill="#0b1236"/>
  <path d="M556.66 452v45.08a64.91 64.91 0 0 0 4.55-7.46 7.55 7.55 0 0 1-1.5-1.74 6.25 6.25 0 0 1-.92-3.27 8.79 8.79 0 0 1 1-3.84 16.19 16.19 0 0 1 2-3.07l.48-.56a1.43 1.43 0 0 1-.66-.19 1.48 1.48 0 0 1-.78-1.28v-.07a12.32 12.32 0 0 1 1-4.44 13.58 13.58 0 0 1 2.91-4.39 26.52 26.52 0 0 0-1.91-4.95 52.74 52.74 0 0 0-5.93-9.53l-.24-.29m17.61-87a103 103 0 0 1-17.61 6.32v53.92a24.32 24.32 0 0 1 13.27-4.07 20.5 20.5 0 0 1 4.34.45V365" fill="#122958"/>
  <path d="M399.86 563.35h37.91a1.5 1.5 0 0 0 0-3h-37.91a1.5 1.5 0 0 0 0 3m116.75 22.85a2 2 0 1 1-2-2 2 2 0 0 1 2 2m-202.73 0a2 2 0 1 1-2-2 2 2 0 0 1 2 2Zm256.97-29.07a2 2 0 1 1-2-2 2 2 0 0 1 2 2Z" fill="#0b1236"/>
  <path d="M291.47 547.38a1.5 1.5 0 0 1-1.5-1.5V298.12a1.5 1.5 0 0 1 1.5-1.5h254.69a1.5 1.5 0 0 1 1.5 1.5v247.76a1.5 1.5 0 0 1-1.5 1.5H291.47" fill="#f2f2f2"/>
  <path d="M546.16 298.12v247.76H291.47V298.12h254.69m0-3H291.47a3 3 0 0 0-3 3v247.76a3 3 0 0 0 3 3h254.69a3 3 0 0 0 3-3V298.12a3 3 0 0 0-3-3" fill="#0b1236"/>
  <path d="M291.47 327.38a1.5 1.5 0 0 1-1.5-1.5v-27.76a1.5 1.5 0 0 1 1.5-1.5h254.68a1.5 1.5 0 0 1 1.5 1.5v27.76a1.5 1.5 0 0 1-1.5 1.5H291.47" fill="#273d7d"/>
  <path d="M546.15 298.12v27.76H291.47v-27.76h254.68m0-3H291.47a3 3 0 0 0-3 3v27.76a3 3 0 0 0 3 3h254.68a3 3 0 0 0 3-3v-27.76a3 3 0 0 0-3-3" fill="#0b1236"/>
  <path fill="#32509a" d="M306.96 298.12h-15.49v27.76h15.49v-27.76"/>
  <circle cx="308.1" cy="312" r="5.33" fill="#d6332f"/>
  <path d="M308.1 308.17a3.83 3.83 0 1 1-3.83 3.83 3.83 3.83 0 0 1 3.83-3.83m0-3a6.83 6.83 0 1 0 6.82 6.83 6.83 6.83 0 0 0-6.82-6.83Z" fill="#0b1236"/>
  <path d="M329.8 317.32a5.33 5.33 0 1 1 5.33-5.32 5.33 5.33 0 0 1-5.33 5.32Z" fill="#ffd000"/>
  <path d="M329.8 308.17A3.83 3.83 0 1 1 326 312a3.83 3.83 0 0 1 3.82-3.83m0-3a6.83 6.83 0 1 0 6.83 6.83 6.83 6.83 0 0 0-6.85-6.83Z" fill="#0b1236"/>
  <path d="M351.51 317.32a5.33 5.33 0 1 1 5.33-5.32 5.32 5.32 0 0 1-5.33 5.32Z" fill="#83ce3a"/>
  <path d="M351.51 308.17a3.83 3.83 0 1 1-3.82 3.83 3.84 3.84 0 0 1 3.82-3.83m0-3a6.83 6.83 0 1 0 6.83 6.83 6.83 6.83 0 0 0-6.83-6.83Z" fill="#0b1236"/>
  <path d="M422.65 308.17h-45.19v7.66H426c-1.21-2.51-2.31-5.07-3.31-7.66" fill="#1e2f6b"/>
  <path d="M530.66 308.17v7.66h-153.2v-7.66h153.2m0-3h-153.2a3 3 0 0 0-3 3v7.66a3 3 0 0 0 3 3h153.2a3 3 0 0 0 3-3v-7.66a3 3 0 0 0-3-3" fill="#0b1236"/>
  <path d="M546.15 373.48a103.31 103.31 0 0 1-13.37 1.16l-2.12.23v158.76a94.13 94.13 0 0 1 9.1-14.9c2.06-2.82 4.21-5.56 6.39-8.28v-137" fill="#dbdbdb"/>
  <path fill="#fff" d="M291.47 328.92h15.49v216.97h-15.49z"/>
  <path d="M536.9 435v32.77a1.5 1.5 0 0 0 3 0V435a1.5 1.5 0 0 0-3 0M326 540.36h96.93a1.5 1.5 0 0 0 0-3H326a1.5 1.5 0 0 0 0 3m274.44-78.44v67.46a1.5 1.5 0 1 0 3 0v-67.46a1.5 1.5 0 0 0-3 0m-302.72-33.47v80.81a1.5 1.5 0 0 0 3 0v-80.81a1.5 1.5 0 0 0-3 0m306.18 26.96a2 2 0 1 1-2-2 2 2 0 0 1 2 2Zm32.48-185a2 2 0 1 1-2-2 2 2 0 0 1 2 2" fill="#0b1236"/>
  <path d="M230.4 350a77.05 77.05 0 0 1 14.86 9.17v-1.9A74.18 74.18 0 0 0 230.4 350" fill="#b5b7c2"/>
  <path d="M245.26 357.26v1.9c1 .8 2 1.63 3 2.48v-2.37q-1.48-1-3-2" fill="#0b1236"/>
  <path d="M248.26 359.27v2.37q2.52 2.21 4.88 4.64a80 80 0 0 1 7.2 8.58v-4.93a75.17 75.17 0 0 0-12.08-10.66" fill="#7b63a9"/>
  <path d="M263.34 373.42v5.91a77.61 77.61 0 0 1 .43 81l1.06 23.9v.16l4.88.27-1.1-25.12a74.53 74.53 0 0 0-5.27-86.08" fill="#132d5e"/>
  <path d="M260.34 369.93v4.93q1.57 2.19 3 4.47v-5.91c-1-1.19-2-2.36-3-3.49" fill="#0b1236"/>
  <path d="M205.31 342.66c-1.35 0-2.69 0-4 .1A77.21 77.21 0 0 1 230.4 350a74.18 74.18 0 0 1 14.86 7.27v-1.3a19.76 19.76 0 0 1 .2-2 77 77 0 0 0-40.18-11.25" fill="#b5b7c2"/>
  <path d="M245.49 353.91a19.76 19.76 0 0 0-.2 2v1.3q1.52 1 3 2v-3.56q-1.4-.93-2.82-1.8" fill="#0b1236"/>
  <path d="M248.31 355.71v3.56a75.17 75.17 0 0 1 12.08 10.66v-4.3a78.44 78.44 0 0 0-12-9.92" fill="#7b63a9"/>
  <path d="M263.34 368.83v4.59a74.53 74.53 0 0 1 5.27 86.08l1.1 25.12-4.88-.27v.15a3 3 0 0 1-.89 2.26 3.42 3.42 0 0 1-.61.47l6.2.35h.17a3 3 0 0 0 2.11-.86 3 3 0 0 0 .89-2.27l-1.06-24.2a77.45 77.45 0 0 0-8.31-91.46" fill="#132d5e"/>
  <path d="M263.34 487.23h-.06.06m-3-121.6v4.3c1 1.13 2 2.3 3 3.49v-4.59c-1-1.1-2-2.16-3-3.2M145 484.51a86.12 86.12 0 0 1-26.4-37.71 1.52 1.52 0 0 0-1.92-.92 1.5 1.5 0 0 0-.91 1.92 89.18 89.18 0 0 0 27.32 39 1.5 1.5 0 0 0 1.91-2.31Z" fill="#0b1236"/>
  <path d="M197.42 496.2a76 76 0 0 1 0-152c.92 0 1.81 0 2.71.06a76 76 0 0 1 62.12 115.64l1.09 24.66a1.47 1.47 0 0 1-.44 1.13 1.53 1.53 0 0 1-1.06.44l-24.3-1.38a75.81 75.81 0 0 1-40.12 11.45" fill="#bbe5ff"/>
  <path d="M197.42 345.66h2.65a74.51 74.51 0 0 1 60.66 113.84l1.1 24.83v.3l-24.69-1.4a74.52 74.52 0 1 1-39.73-137.57m0-3a77.52 77.52 0 1 0 40.51 143.62l23.74 1.34h.17a3 3 0 0 0 3-3.13v-.31l-1.06-23.9a77.51 77.51 0 0 0-63.6-117.57c-.81 0-1.69-.06-2.75-.06" fill="#0b1236"/>
  <path d="m260.73 459.5 1.1 24.83-7.94-.45-1-22.72a74.5 74.5 0 0 0-63.3-113.84c-1 0-1.93 0-2.88.07a75.1 75.1 0 0 1 13.36-1.68 74.51 74.51 0 0 1 60.66 113.79Z" fill="#9fc4d6"/>
  <path d="M133.51 420.18a74.51 74.51 0 0 1 69.22-74.31c-1.75-.13-3.52-.21-5.3-.21a74.53 74.53 0 0 0 0 149c1.83 0 3.65-.07 5.45-.2a74.51 74.51 0 0 1-69.37-74.28Z" fill="#dcf5ff"/>
  <path d="M222.72 419.63h-.78l-80.77-8.71a7.13 7.13 0 0 1-6.32-7.85l4.59-42.58a7.1 7.1 0 0 1 7.08-6.36 6.34 6.34 0 0 1 .76 0l80.78 8.7a7.15 7.15 0 0 1 6.32 7.85l-2 18.85-2.56 23.74a7.11 7.11 0 0 1-7.07 6.36" fill="#8d58c6"/>
  <path d="M146.52 355.59h.61l80.77 8.71a5.62 5.62 0 0 1 5 6.19l-.74 6.83-.07.66-1.17 10.83v.52l-2.56 23.75a5.63 5.63 0 0 1-5.58 5 4.3 4.3 0 0 1-.62 0l-80.77-8.7a5.63 5.63 0 0 1-5-6.2l2.61-24.94.06-.52 1.16-10.84.07-.65.61-5.62a5.63 5.63 0 0 1 5.59-5m0-3a8.6 8.6 0 0 0-8.49 7.69l-.61 5.61-.07.65-1.22 10.84v.5l-2.69 25a8.62 8.62 0 0 0 7.66 9.5l80.76 8.71c.31 0 .63.05.94.05a8.6 8.6 0 0 0 8.56-7.7l2.56-23.75.06-.5 1.16-10.85.07-.66.74-6.83a8.63 8.63 0 0 0-7.65-9.5l-80.77-8.7a7.25 7.25 0 0 0-.93-.05" fill="#0b1236"/>
  <path d="M145.32 404.82 148.1 379l.06-.54 1.21-11.22.08-.68.63-5.82a5.81 5.81 0 0 1 2.93-4.45l-5.88-.63a5.63 5.63 0 0 0-6.2 5l-.61 5.62-.07.65-1.16 10.84-.06.52-2.69 24.95a5.63 5.63 0 0 0 5 6.2l6.24.67a5.83 5.83 0 0 1-2.26-5.29Z" fill="#c58fff"/>
  <path d="m227.9 364.33-7.32-.79a5.83 5.83 0 0 1 1.23 4.22l-.77 7-.07.68-1.2 11.17-.06.53-2.64 24.48a5.81 5.81 0 0 1-6.39 5.15l-70.1-7.56a6.58 6.58 0 0 0 .75.14l80.77 8.7a5.62 5.62 0 0 0 6.2-5l2.56-23.75v-.52l1.22-10.78.07-.66.74-6.83a5.62 5.62 0 0 0-5-6.19" fill="#5b4087"/>
  <path d="M166.06 381.22 149 379.35a1.51 1.51 0 0 1-1.33-1.66l1.24-11.37a1.51 1.51 0 0 1 1.49-1.32h.17l13 1.41 4.06.45a1.5 1.5 0 0 1 1.37 1.64l-1.25 11.39a1.51 1.51 0 0 1-.55 1 1.54 1.54 0 0 1-.94.33Z" fill="#ffcb39"/>
  <path d="m150.41 366.48 13 1.42 4.05.44-1.24 11.39-4.05-.45-13-1.42 1.25-11.38m0-3a3 3 0 0 0-3 2.68l-1.24 11.37a3 3 0 0 0 2.66 3.31l13 1.42 4.06.45h.32a3 3 0 0 0 3-2.68l1.24-11.38a3 3 0 0 0-2.66-3.31l-4-.45-13-1.41Z" fill="#0b1236"/>
  <path d="M199.16 386.73a8.74 8.74 0 0 1 .21-17.48h.22a8.74 8.74 0 0 1-.21 17.48Z" fill="#bbe5ff"/>
  <path d="M199.37 370.75h.18a7.24 7.24 0 0 1-.17 14.48h-.18a7.24 7.24 0 0 1 .17-14.48m0-3a10.31 10.31 0 0 0-10.24 10 10.26 10.26 0 0 0 10 10.49h.26a10.3 10.3 0 0 0 10.23-10 10.25 10.25 0 0 0-10-10.49Z" fill="#0b1236"/>
  <path d="M215.06 388.57a8.74 8.74 0 0 1 .21-17.48h.22a8.74 8.74 0 0 1-.22 17.48Z" fill="#e6e6e6"/>
  <path d="M215.27 372.59h.18a7.24 7.24 0 0 1-.18 14.48h-.18a7.24 7.24 0 0 1 .18-14.48m0-3a10.24 10.24 0 0 0-.25 20.48h.25a10.31 10.31 0 0 0 10.24-10 10.25 10.25 0 0 0-10-10.49Z" fill="#0b1236"/>
  <path d="M215.45 372.59a7.26 7.26 0 0 0-3.79 1 7.23 7.23 0 0 1 0 12.54 7.16 7.16 0 0 0 3.44 1 7.24 7.24 0 1 0 .36-14.48Z" fill="#ccc"/>
  <path d="m195.9 396.69-49.45-5.33a1.5 1.5 0 1 0-.32 3l49.45 5.33a1.5 1.5 0 0 0 .32-3m-6.11 7.31-44-4.74a1.5 1.5 0 1 0-.32 3l44 4.74a1.5 1.5 0 1 0 .32-3" fill="#0a1236"/>
  <path fill="#b08e00" d="m162.15829057 379.25646148 1.24056597-11.38259619 4.05598188.4420532-1.24056598 11.3825962z"/>
  <path d="M220.58 397a2 2 0 1 1-2-2 2 2 0 0 1 2 2Zm-55.73-23.54a2 2 0 1 1-2-2 2 2 0 0 1 2 2Z" fill="#0a1236"/>
  <path d="M230.13 471.72a7 7 0 0 1-2.48-.45L151.48 443a7.12 7.12 0 0 1-4.2-9.15L160.21 399l2-5.3a7.13 7.13 0 0 1 9.15-4.21l76.17 28.26a7.15 7.15 0 0 1 4.21 9.16l-6.6 17.78-8.3 22.38a7.16 7.16 0 0 1-6.68 4.65" fill="#2f96f4"/>
  <path d="M168.86 390.55a5.64 5.64 0 0 1 2 .35L247 419.16a5.62 5.62 0 0 1 3.32 7.23l-2.39 6.44-.23.62-3.79 10.22-.18.49-8.31 22.39a5.6 5.6 0 0 1-7.23 3.31L152 441.6a5.62 5.62 0 0 1-3.33-7.22l8.73-23.54.19-.49 3.79-10.21.23-.62 2-5.3a5.6 5.6 0 0 1 5.27-3.67m0-3a8.66 8.66 0 0 0-8.09 5.63l-2 5.3-.22.61-3.8 10.22-.17.47-8.74 23.55a8.63 8.63 0 0 0 5.1 11.09l76.16 28.26a8.51 8.51 0 0 0 3 .54 8.64 8.64 0 0 0 8.08-5.63l8.31-22.39.18-.47 3.79-10.24.23-.62 2.39-6.44a8.64 8.64 0 0 0-5.1-11.08l-76.17-28.26a8.6 8.6 0 0 0-3-.54" fill="#0b1236"/>
  <path d="m247 419.16-6.9-2.56a5.79 5.79 0 0 1 .15 4.39l-2.47 6.64-.23.64-3.91 10.54-.19.5-8.56 23.09a5.79 5.79 0 0 1-7.45 3.41l-66.11-24.52a4.94 4.94 0 0 0 .7.31l76.16 28.26a5.61 5.61 0 0 0 7.23-3.31l8.31-22.39.18-.49 3.79-10.22.23-.62 2.39-6.44a5.62 5.62 0 0 0-3.32-7.23" fill="#277fc1"/>
  <path d="m157 438.15 9-24.38.2-.51 3.92-10.58.24-.64 2-5.49a5.82 5.82 0 0 1 3.93-3.59l-5.54-2.06a5.62 5.62 0 0 0-7.23 3.32l-2 5.3-.23.62-3.79 10.21-.19.49-8.73 23.54a5.62 5.62 0 0 0 3.42 7.22l5.88 2.19a5.83 5.83 0 0 1-.9-5.64" fill="#71c2ff"/>
  <path d="M161.29 398.63a1.52 1.52 0 0 0-.63.14 1.47 1.47 0 0 0-.78.86l-4 11.37a1.49 1.49 0 0 0 .81 1.88l.75-2 .19-.49 3.79-10.21.23-.62.28-.76h-.09a1.54 1.54 0 0 0-.52-.09" fill="#133658"/>
  <path fill="#2578b7" d="m170.44 401.91-.05.13-.24.64-3.93 10.58-.19.51-.84 2.27L232.8 441l.63-1.69.19-.5 3.91-10.54.23-.64.29-.76-67.61-24.96"/>
  <path d="m248.67 430.79-.76 2-.23.62-3.79 10.22-.18.49-.29.77h.09a1.54 1.54 0 0 0 .52.09 1.38 1.38 0 0 0 .63-.14 1.45 1.45 0 0 0 .78-.85l4-11.4a1.5 1.5 0 0 0-.81-1.87" fill="#133658"/>
  <path d="m238.05 426.87-.29.76-.23.64-3.91 10.54-.19.5-.63 1.7 10.62 3.92.29-.77.18-.49 3.79-10.22.23-.62.76-2h-.09l-10.53-3.89" fill="#216c9d"/>
  <path d="m161.9 398.76-.28.76-.23.62-3.79 10.21-.19.49-.75 2h.08l8.45 3.12.84-2.27.2-.51 3.92-10.58.24-.64.05-.13-8.54-3.15" fill="#468ebc"/>
  <path d="m161.29 400.13 86.78 32-.22.62-3.64 10.27-.18.49-86.77-32 .17-.49 3.64-10.27.22-.62m0-3a3 3 0 0 0-1.27.28 3 3 0 0 0-1.56 1.72l-.21.61-3.64 10.26-.18.47a3 3 0 0 0 1.79 3.83L243 446.37a3.12 3.12 0 0 0 1 .18 2.93 2.93 0 0 0 1.26-.28 3 3 0 0 0 1.56-1.7l.18-.49 3.64-10.29.22-.63a3 3 0 0 0-1.79-3.81l-86.77-32a3.08 3.08 0 0 0-1.01-.22Z" fill="#0b1236"/>
  <path d="m174.08 413.36 47.66 17.47a1.5 1.5 0 0 0 1.93-.89 1.52 1.52 0 0 0-.89-1.93l-47.67-17.46a1.5 1.5 0 1 0-1 2.81m56.61 37.75-15.88-5.89a1.5 1.5 0 1 0-1 2.81l15.88 5.89a1.5 1.5 0 1 0 1-2.81m-2.85 7.7-41.47-15.38a1.5 1.5 0 1 0-1 2.81l41.46 15.39a1.5 1.5 0 0 0 1.05-2.82M210 444.28a2 2 0 1 1-2-2 2 2 0 0 1 2 2Z" fill="#0a1236"/>
  <path d="M117.58 442.09a2 2 0 1 1-2-2 2 2 0 0 1 2 2Zm13.06-95.89 4.09 3.94a1.5 1.5 0 0 0 2.09-2.16l-4.09-3.98a1.5 1.5 0 1 0-2.09 2.16m9.13-6.16.63 5.33a1.5 1.5 0 1 0 3-.35l-.63-5.33a1.5 1.5 0 0 0-3 .35m-12.31 17 5.37.14a1.5 1.5 0 0 0 .07-3l-5.36-.14a1.5 1.5 0 0 0-.08 3m173.72 65a2 2 0 1 1-2-2 2 2 0 0 1 2 2Z" fill="#0b1236"/>
  <circle cx="306.96" cy="336.73" r="1.96" fill="#0b1236"/>
  <path d="M431.68 538.86a2 2 0 1 1-2-2 2 2 0 0 1 2 2Z" fill="#0b1236"/>
  <path d="M543.17 537.9a2.56 2.56 0 1 1-2.56-2.56 2.56 2.56 0 0 1 2.56 2.56Z" fill="#090e40"/>
  <path d="M616 486.11s10.81 14.63 25.55 38.38c14.1 22.71 12.23 60.94-15.64 69.38s-62.09 9.69-86.61-7.79c-15.13-10.79-15.61-30.27-9.55-46.45 5.55-14.81 15.94-25.88 25.47-38.09 9-11.5 16.2-26.16 9-40.43-8.62-16.88-12.22-11.35-13.62-22.31s16.22-20.58 28.06-13.93 12.78-2.13 20.88-2.54 10.05 9.75 8.52 12.91c0 0 14.31-5.4 15.52 8.44s-17.1 16.27-13.64 29a48.94 48.94 0 0 0 6 13.39" fill="#83ce3a"/>
  <path d="m616 486.11-1.2.89.48.67c2.26 3.1 12.13 16.87 25 37.61a59 59 0 0 1 8.38 30.42c0 8.26-1.79 16.27-5.58 22.77a29.89 29.89 0 0 1-17.6 14 133.55 133.55 0 0 1-38.23 5.92c-16.93 0-33.55-3.85-47.07-13.49a28.49 28.49 0 0 1-9.64-11.68 35.21 35.21 0 0 1-2.92-14.55 53.42 53.42 0 0 1 3.53-18.47 83.18 83.18 0 0 1 11-19.67c4.44-6.08 9.41-11.89 14.2-18a70.33 70.33 0 0 0 8.55-13.66 37.14 37.14 0 0 0 3.69-15.43 28.27 28.27 0 0 0-3.12-12.94 57.92 57.92 0 0 0-5.68-9.3c-2.44-3.17-4.31-4.55-5.41-5.88a7.61 7.61 0 0 1-1.36-2.3 19.58 19.58 0 0 1-1-4.35 7.69 7.69 0 0 1-.07-1.07 9.5 9.5 0 0 1 1.45-4.89 17.08 17.08 0 0 1 6.76-6 21.32 21.32 0 0 1 9.7-2.44 16.21 16.21 0 0 1 8 2c3.36 1.89 6 2.67 8.36 2.67a9.9 9.9 0 0 0 4.06-.86 45.72 45.72 0 0 0 4.55-2.64 10 10 0 0 1 4.72-1.53h.4a6.09 6.09 0 0 1 3.14.82 7.59 7.59 0 0 1 2.92 3.51 11.48 11.48 0 0 1 1 4.44 5.18 5.18 0 0 1-.33 2 1.5 1.5 0 0 0 1.88 2.06v-.1.1-.1.1a17.45 17.45 0 0 1 5.41-.94 8.29 8.29 0 0 1 5.15 1.51 6.53 6.53 0 0 1 1.87 2.36 11.79 11.79 0 0 1 1.06 4.24c0 .4.06.79.06 1.16a11.84 11.84 0 0 1-2 6.55c-1.81 2.87-4.7 5.3-7.28 8a21.58 21.58 0 0 0-3.39 4.44 11.59 11.59 0 0 0-1.49 5.65 13.33 13.33 0 0 0 .49 3.49 51 51 0 0 0 6.3 13.8l1.2-.89 1.24-.85a47.87 47.87 0 0 1-5.83-12.92 10.62 10.62 0 0 1-.38-2.71 9.35 9.35 0 0 1 1.93-5.5 30.38 30.38 0 0 1 3.38-3.8 50.44 50.44 0 0 0 5.82-6.36 15.15 15.15 0 0 0 3-9 13.77 13.77 0 0 0-.07-1.42 15.06 15.06 0 0 0-1.35-5.29 9.3 9.3 0 0 0-4.43-4.46 12.18 12.18 0 0 0-5.29-1.1 20.31 20.31 0 0 0-6.47 1.13l.53 1.41 1.35.65a7.73 7.73 0 0 0 .63-3.31 14 14 0 0 0-2.23-7.5 9.87 9.87 0 0 0-3.13-3 9 9 0 0 0-4.66-1.24h-.56a12.2 12.2 0 0 0-4.34 1 44.22 44.22 0 0 0-4.64 2.69 8 8 0 0 1-4.19 1.3c-1.63 0-3.8-.55-6.89-2.29a19.25 19.25 0 0 0-9.47-2.38 24.29 24.29 0 0 0-14.23 4.75 18.29 18.29 0 0 0-4.79 5.16 12.36 12.36 0 0 0-1.89 6.44 11.92 11.92 0 0 0 .09 1.46 18.47 18.47 0 0 0 1.68 6.24 11.6 11.6 0 0 0 2.08 2.78 55.59 55.59 0 0 1 4 4.25 52.74 52.74 0 0 1 5.93 9.53 25.24 25.24 0 0 1 2.79 11.58 34.19 34.19 0 0 1-3.42 14.18 67.15 67.15 0 0 1-8.13 13.09c-4.74 6.07-9.73 11.9-14.26 18.11a85.26 85.26 0 0 0-11.44 20.38 56.26 56.26 0 0 0-3.72 19.52 38.31 38.31 0 0 0 3.18 15.79 31.72 31.72 0 0 0 10.63 12.88c14.18 10.11 31.45 14.05 48.82 14.05a137 137 0 0 0 39.1-6A33 33 0 0 0 645.66 580c4.11-7.07 6-15.58 6-24.27a61.83 61.83 0 0 0-8.84-32c-14.76-23.79-25.59-38.46-25.61-38.48l-1.21.89 1.24-.85-1.24.85" fill="#090e40"/>
  <path d="M569.49 424.64h-.38a23.13 23.13 0 0 0-10.42 3.43c-4.05 2.72-6.6 6.89-6.14 10.34.61 4.79 1.05 5.4 3.13 7.44s5.85 5.78 10.19 14.33c6.37 12.58 3.71 26.17-8.77 42.17-1.77 2.27-3.57 4.48-5.36 6.7-7.9 9.79-15.82 19.35-20.2 31-5.34 14.27-5.83 34.3 8.71 44.67 2.4 1.72 5.32 1.78 7.89 3-14.48-10.86-14.86-30-8.89-45.94 5.54-14.83 15.94-25.89 25.46-38.1 9-11.51 15.16-25.68 9-40.43-9.73-23.21-7.39-36 1.05-37.88v-.11a16.93 16.93 0 0 0-5.25-.7" fill="#bdef84"/>
  <path d="M535.7 559.76a54.86 54.86 0 0 1 2.79-14.88" fill="#d392ff"/>
  <path d="M537.2 559.82a53.42 53.42 0 0 1 2.71-14.48 1.5 1.5 0 1 0-2.85-.93 56 56 0 0 0-2.85 15.29 1.5 1.5 0 1 0 3 .12Z" fill="#090e40"/>
  <path d="M639.67 524.49c-14.73-23.75-25.55-38.38-25.55-38.38a48.91 48.91 0 0 1-6-13.4c-3.46-12.76 14.84-15.19 13.64-29s-15.52-8.44-15.52-8.44a5.8 5.8 0 0 0 .46-2.13 15.63 15.63 0 0 1-2 3.21c1.73 1.41-3.79 7.71-4.79 11.37-4.45 16.33-8.94 12.44-5.49 25.2a49.28 49.28 0 0 0 6 13.39s10.82 14.64 25.55 38.38c14.11 22.71 14.87 55.72-12.65 65.23-24.86 8.59-47.49 3-61.88 1.41 3.91 6.79 44.31 13 74.78 2.49 27.48-9.5 27.54-46.62 13.45-69.33Z" fill="#75b234"/>
  <path d="M606.77 434.46c0 .06-7.77 12.88-11.61 26.51a1.5 1.5 0 0 0 2.89.82 107.86 107.86 0 0 1 7-17.84c1.18-2.4 2.25-4.39 3-5.78.38-.7.69-1.24.91-1.61l.24-.41.08-.14a1.5 1.5 0 1 0-2.57-1.55Zm-26.42 6.27.14-.1-.14.09.14-.1-.14.09a28.53 28.53 0 0 1 2.57 4.93 31.33 31.33 0 0 1 2.49 11.92 26 26 0 0 1-.57 5.45 1.5 1.5 0 1 0 2.93.62 28.82 28.82 0 0 0 .64-6.07 34.72 34.72 0 0 0-2.78-13.23 31.13 31.13 0 0 0-2.82-5.34 1.5 1.5 0 0 0-2.46 1.73Zm-2.65 35.08a1 1 0 0 1 0 .15 78.81 78.81 0 0 1-1.84 9 52 52 0 0 1-5.75 14.17 1.5 1.5 0 1 0 2.53 1.61c3.15-4.95 5.13-11.06 6.36-15.95a81.64 81.64 0 0 0 1.7-8.61 1.5 1.5 0 0 0-3-.37Zm21.03.19a66.9 66.9 0 0 0 11.36 21.44 1.5 1.5 0 0 0 2.36-1.84 69.61 69.61 0 0 1-8.45-14.2c-.85-1.9-1.43-3.47-1.81-4.55-.18-.54-.32-1-.4-1.25s-.08-.25-.1-.31v-.08a1.5 1.5 0 1 0-2.9.78Zm35.54 67.81v.05a70.55 70.55 0 0 1 1.1 12.39c0 5.3-.66 11.46-2.86 16.65a21.24 21.24 0 0 1-4.53 6.87 17.85 17.85 0 0 1-7.48 4.38 1.5 1.5 0 0 0 .87 2.87 20.71 20.71 0 0 0 8.72-5.12 26.65 26.65 0 0 0 6.69-12.27 52.39 52.39 0 0 0 1.59-13.38 70.54 70.54 0 0 0-1.18-13 1.5 1.5 0 0 0-2.94.6Z" fill="#090e40"/>
  <path d="M489.08 599.4c.1 4 9.49 6.94 21 6.67s20.73-3.71 20.64-7.66l.34-8.4-41.62 1-.35 8.4" fill="#b08e00"/>
  <path d="M489.08 599.4h-1.49a4.17 4.17 0 0 0 .63 2.11 7.8 7.8 0 0 0 3 2.67 24.66 24.66 0 0 0 7.4 2.48 52.62 52.62 0 0 0 10 .9h1.49a48.61 48.61 0 0 0 15.1-2.52 16.59 16.59 0 0 0 4.86-2.63 6.84 6.84 0 0 0 1.53-1.75 4.45 4.45 0 0 0 .62-2.2v-.1h-1.5l1.5.06.34-8.4a1.5 1.5 0 0 0-1.54-1.56l-41.62 1a1.5 1.5 0 0 0-1.46 1.44l-.34 8.4v.09h1.49l1.5.06.29-7 38.62-.92-.28 6.79v.13a1.27 1.27 0 0 1-.22.68 5.45 5.45 0 0 1-2 1.79 24.64 24.64 0 0 1-6.93 2.48 52.59 52.59 0 0 1-10 1.15h-1.42a43 43 0 0 1-13.3-1.85 12.08 12.08 0 0 1-3.71-1.86 3.65 3.65 0 0 1-.81-.88 1.36 1.36 0 0 1-.21-.64h-1.5l1.5.06-1.5-.06" fill="#090e40"/>
  <path d="M531.05 590c.08 3.43-9.17 6.44-20.66 6.71s-20.88-2.29-21-5.72 9.17-6.44 20.66-6.71 20.88 2.29 21 5.72" fill="#ffd000"/>
  <path d="M531.05 590h-1.5a.75.75 0 0 1-.16.42 5.46 5.46 0 0 1-2 1.53 27.58 27.58 0 0 1-7 2.19 61.47 61.47 0 0 1-10 1h-1.64a49 49 0 0 1-13.21-1.58 12.89 12.89 0 0 1-3.67-1.61 2.88 2.88 0 0 1-.75-.71.66.66 0 0 1-.15-.37.75.75 0 0 1 .16-.42 5.37 5.37 0 0 1 2-1.53 27.45 27.45 0 0 1 7-2.19 61.35 61.35 0 0 1 10.05-1h1.64a48.9 48.9 0 0 1 13.2 1.58 12.63 12.63 0 0 1 3.67 1.61 3.14 3.14 0 0 1 .76.71.66.66 0 0 1 .15.38h3a3.73 3.73 0 0 0-.67-2 7.51 7.51 0 0 0-3-2.33 26.83 26.83 0 0 0-7.27-2.12 60.33 60.33 0 0 0-9.86-.76h-1.71A55 55 0 0 0 495 585a17.39 17.39 0 0 0-4.85 2.28 6.6 6.6 0 0 0-1.56 1.56 3.74 3.74 0 0 0-.67 2.1v.06a3.62 3.62 0 0 0 .67 2 7.62 7.62 0 0 0 3 2.34 27.11 27.11 0 0 0 7.27 2.11 60.24 60.24 0 0 0 9.86.76h1.71a55 55 0 0 0 15.04-2.21 17.12 17.12 0 0 0 4.85-2.28 6.6 6.6 0 0 0 1.56-1.56 3.8 3.8 0 0 0 .67-2.1V590h-1.5" fill="#090e40"/>
  <path d="M511.8 585.77h-1.64a61.35 61.35 0 0 0-10.05 1 27.45 27.45 0 0 0-7 2.19 5.37 5.37 0 0 0-2 1.53.75.75 0 0 0-.16.42.64.64 0 0 0 .15.36 2.88 2.88 0 0 0 .75.71 12.89 12.89 0 0 0 3.67 1.61 48.8 48.8 0 0 0 13.18 1.58h1.64a61.47 61.47 0 0 0 10-1 27.58 27.58 0 0 0 7-2.19 5.46 5.46 0 0 0 2-1.53.75.75 0 0 0 .16-.42.66.66 0 0 0-.15-.38 3.14 3.14 0 0 0-.76-.71 12.63 12.63 0 0 0-3.67-1.61 48.66 48.66 0 0 0-13.17-1.58" fill="#ffd933"/>
  <path d="M490.93 591a.75.75 0 0 1 .16-.42 5.37 5.37 0 0 1 2-1.53 27.45 27.45 0 0 1 7-2.19 61.35 61.35 0 0 1 10.05-1h1.64a48.66 48.66 0 0 1 13.22 1.49 12.63 12.63 0 0 1 3.67 1.61 3.14 3.14 0 0 1 .76.71.66.66 0 0 1 .15.38.75.75 0 0 1-.16.42 5.46 5.46 0 0 1-2 1.53 27.58 27.58 0 0 1-7 2.19 61.47 61.47 0 0 1-10 1h-1.64a48.8 48.8 0 0 1-13.18-1.58 12.89 12.89 0 0 1-3.67-1.61 2.88 2.88 0 0 1-.75-.71.64.64 0 0 1-.15-.36m20.84-6.71h-1.68c-11.49.27-20.74 3.28-20.66 6.71.07 3.27 8.56 5.74 19.28 5.74h1.68c11.49-.27 20.74-3.28 20.66-6.71h-1.5 1.5c-.08-3.27-8.57-5.74-19.28-5.74" fill="#3a3e66"/>
  <path d="M531.05 590h-1.5a.75.75 0 0 1-.16.42 5.46 5.46 0 0 1-2 1.53 27.58 27.58 0 0 1-7 2.19 60.39 60.39 0 0 1-10 1h-1.64a49 49 0 0 1-13.21-1.58 12.89 12.89 0 0 1-3.67-1.61 2.88 2.88 0 0 1-.75-.71.66.66 0 0 1-.15-.37.75.75 0 0 1 .16-.42 5.37 5.37 0 0 1 2-1.53 27.45 27.45 0 0 1 7-2.19 61.35 61.35 0 0 1 10.05-1h1.64a48.9 48.9 0 0 1 13.2 1.58 12.63 12.63 0 0 1 3.67 1.61 3.14 3.14 0 0 1 .76.71.66.66 0 0 1 .15.38h3a3.7 3.7 0 0 0-.67-2 7.51 7.51 0 0 0-3-2.33 26.94 26.94 0 0 0-7.27-2.12 60.33 60.33 0 0 0-9.86-.76h-1.72A55 55 0 0 0 495 585a17.39 17.39 0 0 0-4.85 2.28 6.6 6.6 0 0 0-1.56 1.56 3.74 3.74 0 0 0-.67 2.1v.06a3.62 3.62 0 0 0 .67 2 7.62 7.62 0 0 0 3 2.34 27.11 27.11 0 0 0 7.27 2.11 60.24 60.24 0 0 0 9.86.76h1.71a55 55 0 0 0 15.04-2.21 17.12 17.12 0 0 0 4.85-2.28 6.6 6.6 0 0 0 1.56-1.56 3.8 3.8 0 0 0 .67-2.1V590Z" fill="#090e40"/>
  <path d="m518.17 595.54 13.25-23.16-4.36-4.58c.62 0-2.7-.83 4.4-.81 9.43 0 19.77 6.19 19.26 19.2-.57 14.54-9.87 17.54-19.3 17.39-6.18-.1-11.28-7-11.89-7.08" fill="#b08e00"/>
  <path d="m519.47 596.28 13.25-23.15a1.51 1.51 0 0 0-.21-1.78l-4.36-4.59-1.09 1 .11 1.49a1.62 1.62 0 0 0 .52-.11 1.49 1.49 0 0 0 .56-.39 1.82 1.82 0 0 0 .29-.46 1.59 1.59 0 0 0 .11-.56 1.63 1.63 0 0 0-.19-.74 1.7 1.7 0 0 0-.35-.43 1.63 1.63 0 0 0-.22-.17l-.53.7.66-.57a.54.54 0 0 0-.13-.13l-.53.7.66-.57-1 .84 1.15-.56a1.31 1.31 0 0 0-.19-.28l-1 .84 1.15-.56-1.25.6h1.38a1.53 1.53 0 0 0-.13-.6l-1.25.6 1.27.6a1.54 1.54 0 0 0 .13-.6h-1.4l1.27.6-1.19-.56.7 1.12a1.27 1.27 0 0 0 .49-.56l-1.19-.56.7 1.12-.44-.71.27.8.17-.09-.44-.71.27.8a5.92 5.92 0 0 1 1-.12c.6 0 1.46-.06 2.65-.06h.31a19.38 19.38 0 0 1 12.14 4.17 15 15 0 0 1 4.07 5.18 17.11 17.11 0 0 1 1.57 7.43v.86a21.64 21.64 0 0 1-1.72 8.14 12 12 0 0 1-6.25 6.19 22.73 22.73 0 0 1-9.18 1.63h-.64a8.94 8.94 0 0 1-3.74-1 20.12 20.12 0 0 1-4.75-3.43c-.63-.59-1.15-1.13-1.57-1.55-.21-.21-.39-.38-.57-.54l-.31-.25-.25-.15a1.9 1.9 0 0 0-.47-.16 1.51 1.51 0 0 0-1.73 1.24 1.49 1.49 0 0 0 1.23 1.72l.21-1.26-.64 1.11a1.14 1.14 0 0 0 .43.15l.21-1.26-.64 1.11.32-.56-.4.52h.08l.32-.56-.4.52a3.14 3.14 0 0 1 .44.41c.42.41 1 1 1.79 1.75a24.89 24.89 0 0 0 4.37 3.31 12.59 12.59 0 0 0 6 1.82h.68a29.87 29.87 0 0 0 7.07-.77 16.13 16.13 0 0 0 9-5.44c2.38-3 3.84-7.08 4.05-12.63v-1a20.11 20.11 0 0 0-1.86-8.71 18.48 18.48 0 0 0-8.06-8.35 23.06 23.06 0 0 0-10.85-2.72h-.32a30.53 30.53 0 0 0-3.71.15 3.71 3.71 0 0 0-1 .24 1.8 1.8 0 0 0-.62.39 1.91 1.91 0 0 0-.34.48 1.68 1.68 0 0 0-.15.67 1.46 1.46 0 0 0 .19.74 1.5 1.5 0 0 0 .42.53c.15.14.26.2.27.22l.25-.35-.26.34.25-.35-.26.34.75-1-.91.83.16.15.75-1-.91.83 1.06-1-1.26.68a1.73 1.73 0 0 0 .2.28l1.06-1-1.26.68 1.3-.7h-1.47a1.51 1.51 0 0 0 .17.7l1.3-.7-1.38-.56a1.38 1.38 0 0 0-.1.56h1.48l-1.38-.56 1.37.55-.86-1.2a1.55 1.55 0 0 0-.51.65l1.37.55-.86-1.2.83 1.16-.32-1.39a1.58 1.58 0 0 0-.51.23l.83 1.16-.32-1.39.27 1.17-.09-1.2h-.18l.27 1.17-.09-1.2a1.5 1.5 0 0 0-1 2.53l3.58 3.77-12.69 22.19a1.5 1.5 0 1 0 2.6 1.49Z" fill="#090e40"/>
  <path d="M543.13 586.13c-.47 10.18-8.62 18.08-18.22 17.64s-17-9-16.53-19.24 8.63-18.08 18.22-17.64 17 9.11 16.53 19.24Z" fill="#ffd000"/>
  <path d="m543.13 586.13-1.5-.07a17.52 17.52 0 0 1-5 11.56 15.47 15.47 0 0 1-11 4.67h-.7a15.34 15.34 0 0 1-10.72-5.16 17.44 17.44 0 0 1-4.4-11.66v-.85a17.52 17.52 0 0 1 5-11.56 15.44 15.44 0 0 1 11-4.66h.7a15.32 15.32 0 0 1 10.71 5.16 17.4 17.4 0 0 1 4.4 11.67v.84l1.5.07 1.5.07v-1a20.42 20.42 0 0 0-5.17-13.68 18.33 18.33 0 0 0-12.81-6.15h-.83a18.39 18.39 0 0 0-13.1 5.55 20.53 20.53 0 0 0-5.85 13.53v1a20.41 20.41 0 0 0 5.14 13.66 18.37 18.37 0 0 0 12.81 6.15h.84a18.42 18.42 0 0 0 13.09-5.56 20.52 20.52 0 0 0 5.86-13.53Z" fill="#090e40"/>
  <path d="M524.88 568.43h-.08c-7.94.1-14.56 7-14.95 16.09a17.24 17.24 0 0 0 3.81 12A14.17 14.17 0 0 0 524 602h.58a13.78 13.78 0 0 0 1.71-.1c-5.62-1.92-12.13-8.87-11.14-17.4.75-6.42 4.33-14.31 15.88-14.6a13.47 13.47 0 0 0-5.43-1.46h-.74" fill="#ffdd92"/>
  <path d="M637.42 601.1c.09 3.86 9.27 6.78 20.5 6.51s20.25-3.62 20.16-7.48l.33-8.2-40.65 1Z" fill="#b08e00"/>
  <path d="M637.42 601.1h-1.5a4.16 4.16 0 0 0 .63 2.08 7.81 7.81 0 0 0 2.93 2.62 24.63 24.63 0 0 0 7.24 2.43 52 52 0 0 0 9.77.87h1.46a47.4 47.4 0 0 0 14.75-2.46 16.26 16.26 0 0 0 4.76-2.57 6.45 6.45 0 0 0 1.5-1.73 4.27 4.27 0 0 0 .62-2.16v-.1h-1.5l1.5.06.33-8.2a1.5 1.5 0 0 0-1.53-1.56l-40.66 1a1.48 1.48 0 0 0-1.46 1.43l-.34 8.2v.1h1.5l1.5.06.28-6.8 37.65-.9-.27 6.61v.12a1.25 1.25 0 0 1-.21.65 5.38 5.38 0 0 1-2 1.73 23.77 23.77 0 0 1-6.76 2.42 51.18 51.18 0 0 1-9.76 1.12h-1.39a42.08 42.08 0 0 1-13-1.8 11.88 11.88 0 0 1-3.61-1.81 3.38 3.38 0 0 1-.78-.85 1.24 1.24 0 0 1-.2-.61h-1.5l1.5.06Z" fill="#090e40"/>
  <path d="M678.41 591.93c.08 3.35-9 6.29-20.18 6.55s-20.39-2.23-20.47-5.58 9-6.29 20.18-6.56 20.39 2.23 20.47 5.59Z" fill="#ffd000"/>
  <path d="M678.41 591.93h-1.5a.67.67 0 0 1-.15.39 5.42 5.42 0 0 1-2 1.48A26.53 26.53 0 0 1 668 596a58.65 58.65 0 0 1-9.81 1h-1.6a47.62 47.62 0 0 1-12.89-1.54 12.58 12.58 0 0 1-3.57-1.57 2.89 2.89 0 0 1-.73-.69.54.54 0 0 1-.14-.34.67.67 0 0 1 .15-.39 5.22 5.22 0 0 1 2-1.47 26.49 26.49 0 0 1 6.81-2.14 58.64 58.64 0 0 1 9.8-1h1.61a47.69 47.69 0 0 1 12.89 1.55 12.33 12.33 0 0 1 3.57 1.56 2.89 2.89 0 0 1 .73.69.61.61 0 0 1 .14.34h3a3.66 3.66 0 0 0-.66-2 7.46 7.46 0 0 0-2.92-2.29 27.16 27.16 0 0 0-7.12-2.07 58.73 58.73 0 0 0-9.63-.74h-1.68a54 54 0 0 0-14.76 2.1 16.88 16.88 0 0 0-4.74 2.23 6.39 6.39 0 0 0-1.53 1.54 3.61 3.61 0 0 0-.66 2.06v.07a3.55 3.55 0 0 0 .66 2 7.46 7.46 0 0 0 2.92 2.29 26.34 26.34 0 0 0 7.11 2.07 58.85 58.85 0 0 0 9.64.74h1.67a54.34 54.34 0 0 0 14.74-2.19 17.23 17.23 0 0 0 4.75-2.24 6.21 6.21 0 0 0 1.53-1.54 3.66 3.66 0 0 0 .66-2.06v-.07Z" fill="#090e40"/>
  <path d="M627.59 586.13c.1 3.87 9.27 6.78 20.5 6.52s20.25-3.62 20.16-7.49l.33-8.2-40.65 1Z" fill="#b08e00"/>
  <path d="M627.59 586.13h-1.49a4.15 4.15 0 0 0 .62 2.08 7.73 7.73 0 0 0 2.93 2.62 24.34 24.34 0 0 0 7.24 2.43 52.15 52.15 0 0 0 9.78.87h1.46a47.48 47.48 0 0 0 14.75-2.47 16 16 0 0 0 4.76-2.57 7 7 0 0 0 1.5-1.72 4.33 4.33 0 0 0 .61-2.17v-.1h-1.5l1.5.06.33-8.2a1.48 1.48 0 0 0-.43-1.11 1.46 1.46 0 0 0-1.1-.45l-40.66 1a1.5 1.5 0 0 0-1.46 1.44l-.33 8.2v.09h1.49l1.5.06.28-6.8 37.63-.89-.27 6.6v.12a1.31 1.31 0 0 1-.2.65 5.46 5.46 0 0 1-2 1.73 23.89 23.89 0 0 1-6.76 2.42 52 52 0 0 1-9.77 1.13h-1.38a41.85 41.85 0 0 1-13-1.8 12 12 0 0 1-3.61-1.81 3.59 3.59 0 0 1-.78-.85 1.35 1.35 0 0 1-.2-.61h-1.5l1.5.06Z" fill="#090e40"/>
  <path d="M668.58 577c.08 3.35-9 6.29-20.18 6.56s-20.39-2.24-20.47-5.59 9-6.29 20.18-6.56 20.39 2.2 20.47 5.59Z" fill="#ffd000"/>
  <path d="M668.58 577h-1.5a.65.65 0 0 1-.15.39 5.21 5.21 0 0 1-1.95 1.48 26.89 26.89 0 0 1-6.81 2.14 59.71 59.71 0 0 1-9.8 1h-1.61a47.55 47.55 0 0 1-12.88-1.55 12.56 12.56 0 0 1-3.58-1.56 3.08 3.08 0 0 1-.73-.69.66.66 0 0 1-.14-.35.69.69 0 0 1 .15-.39 5.42 5.42 0 0 1 1.95-1.47 26.49 26.49 0 0 1 6.81-2.14 59.72 59.72 0 0 1 9.81-1h1.6a47.58 47.58 0 0 1 12.89 1.55 12.61 12.61 0 0 1 3.57 1.56 3.17 3.17 0 0 1 .74.69.59.59 0 0 1 .13.35h3a3.52 3.52 0 0 0-.66-2 7.3 7.3 0 0 0-2.92-2.29 26.34 26.34 0 0 0-7.11-2.07 58.79 58.79 0 0 0-9.64-.75h-1.67a53.92 53.92 0 0 0-14.71 2.18 17 17 0 0 0-4.75 2.24 6.35 6.35 0 0 0-1.53 1.53 3.76 3.76 0 0 0-.66 2.06v.09a3.71 3.71 0 0 0 .66 2 7.46 7.46 0 0 0 2.92 2.29 26.42 26.42 0 0 0 7.12 2.07 58.66 58.66 0 0 0 9.63.75h1.68a54 54 0 0 0 14.71-2.18 17.16 17.16 0 0 0 4.74-2.24 6.35 6.35 0 0 0 1.53-1.53 3.64 3.64 0 0 0 .66-2.07v-.07Z" fill="#090e40"/>
  <path d="M616.18 604.43c2.59 2.87 11.45-.91 19.78-8.44s13-16 10.39-18.83l-5.1-6.43L611.08 598Z" fill="#b08e00"/>
  <path d="m616.18 604.43-1.12 1a4.17 4.17 0 0 0 1.73 1.13 6.06 6.06 0 0 0 2 .33 12.68 12.68 0 0 0 3.91-.73c4.16-1.39 9.27-4.58 14.23-9.06a51.19 51.19 0 0 0 8.33-9.47 25.9 25.9 0 0 0 2.38-4.38 10.73 10.73 0 0 0 .89-3.93 5.3 5.3 0 0 0-.25-1.68 4 4 0 0 0-.86-1.48l-1.11 1 1.18-.93-5.1-6.43a1.51 1.51 0 0 0-1-.56 1.46 1.46 0 0 0-1.13.38l-30.18 27.26a1.51 1.51 0 0 0-.17 2l5.1 6.43.06.07 1.12-1 1.17-.94-4.22-5.33 27.94-25.24 4.11 5.17.06.08a1.13 1.13 0 0 1 .23.41 2.4 2.4 0 0 1 .1.74 8 8 0 0 1-.67 2.8 27.36 27.36 0 0 1-3.64 6 51.76 51.76 0 0 1-6.31 6.75 48.59 48.59 0 0 1-9.21 6.67 24.43 24.43 0 0 1-4 1.76 9.64 9.64 0 0 1-3 .58 3 3 0 0 1-1-.15 1.18 1.18 0 0 1-.51-.32l-1.11 1 1.17-.94Z" fill="#090e40"/>
  <path d="M641.25 570.73c2.25 2.49-2.68 10.61-11 18.14s-16.91 11.61-19.16 9.12 2.68-10.61 11-18.13 16.91-11.62 19.16-9.13Z" fill="#ffd000"/>
  <path d="m641.25 570.73-1.11 1a.67.67 0 0 1 .1.18 1.54 1.54 0 0 1 .06.46 7 7 0 0 1-.7 2.55 29 29 0 0 1-3.81 5.94 59.91 59.91 0 0 1-6.56 6.89 56.22 56.22 0 0 1-9.45 7 25.34 25.34 0 0 1-3.91 1.86 8.33 8.33 0 0 1-2.75.6 2.15 2.15 0 0 1-.69-.09.67.67 0 0 1-.24-.14.49.49 0 0 1-.09-.18 1.3 1.3 0 0 1-.06-.46 6.73 6.73 0 0 1 .69-2.56 28.8 28.8 0 0 1 3.82-5.93 59 59 0 0 1 6.55-6.85 56.07 56.07 0 0 1 9.45-7 26.52 26.52 0 0 1 3.92-1.87 8.83 8.83 0 0 1 2.75-.6 1.83 1.83 0 0 1 .68.1.45.45 0 0 1 .24.14l1.11-1 1.12-1a3.51 3.51 0 0 0-1.47-1 5.05 5.05 0 0 0-1.68-.27 11.49 11.49 0 0 0-3.77.78c-4.06 1.48-9.23 4.84-14.36 9.46a58 58 0 0 0-8.62 9.56 26.05 26.05 0 0 0-2.48 4.28 9.44 9.44 0 0 0-1 3.77 4.72 4.72 0 0 0 .2 1.39 3.48 3.48 0 0 0 2.19 2.22 5.1 5.1 0 0 0 1.69.26 11.29 11.29 0 0 0 3.77-.78c4.05-1.47 9.23-4.84 14.35-9.46a58.42 58.42 0 0 0 8.62-9.55 26.9 26.9 0 0 0 2.48-4.28 9.64 9.64 0 0 0 1-3.77 4.38 4.38 0 0 0-.21-1.39 3.45 3.45 0 0 0-.72-1.26Zm-98.68 15.09-1.5-.07a17.5 17.5 0 0 1-5 11.56 15.43 15.43 0 0 1-11 4.67h-.69a15.3 15.3 0 0 1-10.72-5.16 17.37 17.37 0 0 1-4.4-11.66v-.84a17.48 17.48 0 0 1 5-11.56 15.41 15.41 0 0 1 11-4.67h.69a15.29 15.29 0 0 1 10.72 5.15 17.4 17.4 0 0 1 4.4 11.67v.84l1.5.07 1.5.07v-1a20.41 20.41 0 0 0-5.17-13.67 18.31 18.31 0 0 0-12.81-6.15h-.83a18.46 18.46 0 0 0-13.1 5.55 20.55 20.55 0 0 0-5.86 13.54v1a20.41 20.41 0 0 0 5.17 13.67 18.33 18.33 0 0 0 12.81 6.17h.83a18.43 18.43 0 0 0 13.1-5.56 20.5 20.5 0 0 0 5.86-13.53Zm44.92-36.72h-4.16l.19 15.93-11.22.13-.55-46.2 18.84-.22c9-.11 14.83 6.33 14.93 14.85.09 7.83-3.88 11.83-7.32 13.39l8 17.78-12.47.15Zm1.51-20.66-5.89.07.13 11 5.89-.07c3 0 5.1-2.21 5.06-5.53s-2.19-5.51-5.19-5.47Z" fill="#090e40"/>
  <path d="M599.79 471.35s-7.07-10-22.38-8.4-15 12.66-15 12.66 14.35-8.72 37.43-4.26" fill="#273d7d"/>
  <path d="m599.79 471.35 1.23-.86a21.43 21.43 0 0 0-5-4.67 26.65 26.65 0 0 0-15.24-4.55 32.65 32.65 0 0 0-3.5.19 23.41 23.41 0 0 0-9.18 2.74 14.16 14.16 0 0 0-6.24 6.93 12.32 12.32 0 0 0-1 4.44v.07a1.5 1.5 0 0 0 2.28 1.25l-.1-.16.1.16-.1-.16.1.16c.12-.07 8.92-5.31 23.68-5.31a66.64 66.64 0 0 1 12.68 1.24 1.5 1.5 0 0 0 1.52-2.33l-1.23.86.28-1.47a69.48 69.48 0 0 0-13.25-1.3c-15.72 0-25.08 5.65-25.24 5.75l.78 1.28h1.5a10.14 10.14 0 0 1 1.72-5.14 11.67 11.67 0 0 1 4-3.63 20.27 20.27 0 0 1 8-2.36c1.1-.11 2.16-.17 3.18-.17a23.58 23.58 0 0 1 13.55 4 21 21 0 0 1 3.26 2.75c.35.37.61.67.78.88l.18.23.44-.32-.44.31.44-.32-.44.31 1.23-.86.28-1.47-.28 1.47" fill="#090e40"/>
  <path d="M562.36 490.73c-7-.08-14.45-8.76-14.45-8.76l-16.28 9.7a13.59 13.59 0 0 0 10.09 8.42c7.85 1.55 20.59-4.7 20.59-4.7Z" fill="#273d7d"/>
  <path d="M562.36 490.73v-1.5a10.84 10.84 0 0 1-4.56-1.25 27.89 27.89 0 0 1-6.17-4.37c-.81-.74-1.47-1.4-1.92-1.87l-.52-.56-.13-.15a1.5 1.5 0 0 0-1.9-.31l-16.28 9.71a1.49 1.49 0 0 0-.65 1.75 14.08 14.08 0 0 0 2.36 4.11 14.84 14.84 0 0 0 8.86 5.31 15.22 15.22 0 0 0 3 .28 39.45 39.45 0 0 0 12.33-2.56c3.57-1.27 6.13-2.53 6.17-2.54a1.53 1.53 0 0 0 .84-1.33l.05-4.66a1.52 1.52 0 0 0-.42-1.07 1.57 1.57 0 0 0-1.06-.45v1.5h-1.5l-.05 4.66h1.5l-.66-1.35h-.11a61.6 61.6 0 0 1-6.4 2.59 35.25 35.25 0 0 1-10.67 2.16 12.65 12.65 0 0 1-2.46-.22 11.89 11.89 0 0 1-7.11-4.26 12.1 12.1 0 0 1-1.45-2.26 6.47 6.47 0 0 1-.31-.69l-.07-.17-.78.26.78-.25-.78.26.78-.25-1.43.46.77 1.29 16.28-9.7-.77-1.29-1.14 1a38.87 38.87 0 0 0 4.81 4.54 27.19 27.19 0 0 0 4.92 3.18 13.81 13.81 0 0 0 5.84 1.56v-1.5h-1.5Z" fill="#090e40"/>
  <path d="M562 490.52c-2.24 7.68-17.06 2.94-17.06 2.94l-10.58 11.47c42.58 15.17 49.9-22.35 49.9-22.35-7.73-.18-15.17 2.28-22.26 7.94Z" fill="#273d7d"/>
  <path d="m562 490.52-1.44-.42a3.7 3.7 0 0 1-.85 1.54 5 5 0 0 1-2.36 1.34 12.42 12.42 0 0 1-3.46.43 29.49 29.49 0 0 1-5.82-.69c-.81-.18-1.49-.35-2-.48l-.54-.16h-.14a1.5 1.5 0 0 0-1.56.41l-10.57 11.47a1.49 1.49 0 0 0 .6 2.43A57.18 57.18 0 0 0 553 510a32.47 32.47 0 0 0 16.7-4.26 33.79 33.79 0 0 0 12.93-14.31 37.1 37.1 0 0 0 3.11-8.6 1.52 1.52 0 0 0-.3-1.23 1.54 1.54 0 0 0-1.14-.56h-.82c-7.79 0-15.34 2.62-22.4 8.28a1.51 1.51 0 0 0-.51.75l1.44.42.94 1.17c6.62-5.28 13.42-7.61 20.53-7.62h.76v-1.5l-1.47-.28A36.5 36.5 0 0 1 577 495a28.78 28.78 0 0 1-9 8.31 29.53 29.53 0 0 1-15 3.69 54.18 54.18 0 0 1-18.13-3.53l-.5 1.42 1.1 1 10.58-11.47-1.1-1-.46 1.43s1.21.38 3 .76a31.9 31.9 0 0 0 6.45.76 13.74 13.74 0 0 0 5.65-1 7.48 7.48 0 0 0 2.38-1.7 6.81 6.81 0 0 0 1.52-2.73l-1.44-.42.94 1.17Z" fill="#090e40"/>
  <path d="M616.62 476.52s.63-8.49-7.57-11.6-18.29-.21-18.29-.21l9.69 9.26Z" fill="#273d7d"/>
  <path d="m616.62 476.52 1.5.11v-.53a14.6 14.6 0 0 0-1.25-5.84 12.58 12.58 0 0 0-2.59-3.76 13.23 13.23 0 0 0-4.71-3 26.48 26.48 0 0 0-9.31-1.53 40.15 40.15 0 0 0-9.93 1.27 1.53 1.53 0 0 0-1 1.09 1.49 1.49 0 0 0 .42 1.44l9.69 9.26a1.45 1.45 0 0 0 .8.4l16.15 2.57a1.51 1.51 0 0 0 1.73-1.37l-1.5-.11.23-1.49-15.71-2.47-9.35-8.94-1 1.09.41 1.44a37.34 37.34 0 0 1 9.07-1.15 23.55 23.55 0 0 1 8.25 1.34 10.23 10.23 0 0 1 3.66 2.3 9.92 9.92 0 0 1 2.49 4.3 12 12 0 0 1 .46 3.17v.3l1.49.12.23-1.49Z" fill="#090e40"/>
  <path d="M565.66 475.91s-10.4 8.45-2.25 13.43c0 0 10.57-9.41 31.37-6.92 8.6 1 13.78 1.84 25.07 8.64 0 0 6.8-16.1-17.44-19.54s-36.75 4.39-36.75 4.39" fill="#273d7d"/>
  <path d="m565.66 475.91-.94-1.17a22.94 22.94 0 0 0-2.9 2.93 16.19 16.19 0 0 0-2 3.07 8.79 8.79 0 0 0-1 3.84 6.25 6.25 0 0 0 .92 3.27 8.5 8.5 0 0 0 2.92 2.77 1.49 1.49 0 0 0 1.78-.16l-.31-.35.31.35-.31-.35.31.35a24.9 24.9 0 0 1 6-3.5 43.15 43.15 0 0 1 17.54-3.46 57.23 57.23 0 0 1 6.7.41 49.87 49.87 0 0 1 24.47 8.43 1.5 1.5 0 0 0 1.24.15 1.54 1.54 0 0 0 .92-.85 15.38 15.38 0 0 0 1-5.49 13.94 13.94 0 0 0-.77-4.6 14.1 14.1 0 0 0-5.59-7c-3-2.05-7.26-3.66-13.25-4.51a86.4 86.4 0 0 0-12.16-.89c-16.72 0-25.41 5.37-25.59 5.49l-.15.1.94 1.17.8 1.27-.24-.38.23.38-.24-.38.23.38c.08 0 8.2-5 24-5a83.54 83.54 0 0 1 11.74.86 34.21 34.21 0 0 1 9 2.39 13.76 13.76 0 0 1 6.52 5.27 10.39 10.39 0 0 1 1.49 5.48 12.88 12.88 0 0 1-.4 3.15c-.1.39-.19.7-.26.9l-.09.23.6.25-.6-.25.6.25-.6-.25 1.39.58.77-1.29a63.15 63.15 0 0 0-13.87-6.62 62 62 0 0 0-11.81-2.19 59.14 59.14 0 0 0-7.06-.44 46.11 46.11 0 0 0-18.94 3.8 27.64 27.64 0 0 0-6.54 3.92l1 1.12.78-1.28a5.5 5.5 0 0 1-1.92-1.78 3.23 3.23 0 0 1-.48-1.7 5.8 5.8 0 0 1 .69-2.51 15 15 0 0 1 2.57-3.52c.44-.46.84-.84 1.12-1.1l.33-.29.09-.07-1-1.16.8 1.27-.8-1.27" fill="#090e40"/>
  <path fill="#1e2f6b" d="m575.98 474.26-.09.09-.18.17.25-.07.01-.13.01-.06"/>
  <path d="M540.44 538a1.86 1.86 0 1 1-1.7 2 1.85 1.85 0 0 1 1.7-2Z" fill="#090e40"/>
  <path d="M626.23 578.29c-3 3.26-1.89 4.25-.27 6.19 1.43 1.7 4.06 1.27 7.8-1.16-.51.45-3.23 3.95-3.77 4.4-13.48 11.48-18.14 10-18 9.4.07-1.29 0-7.45 14.28-18.83" fill="#ffdd92"/>
  <path d="M177 601c0 3.76-8.94 6.71-19.86 6.58s-19.75-3.29-19.7-7l-.42-8 39.56.47Z" fill="#b08e00"/>
  <path d="M177 601h-1.5a1.08 1.08 0 0 1-.19.59 4.9 4.9 0 0 1-1.84 1.56 22.21 22.21 0 0 1-6.38 2.12 49.69 49.69 0 0 1-9.26.83h-.67a43.55 43.55 0 0 1-13.45-2.1 12.66 12.66 0 0 1-3.76-2 3.64 3.64 0 0 1-.81-.89 1.17 1.17 0 0 1-.19-.62h-1 1-1 1v-.13l-.33-6.38 36.56.43.35 6.58 1.47.01h-1.5 1.5l1.5-.08-.42-8a1.5 1.5 0 0 0-1.48-1.42L137 591a1.53 1.53 0 0 0-1.1.46 1.54 1.54 0 0 0-.41 1.12l.42 8 1.5-.07-1.5-.06v.08a4.15 4.15 0 0 0 .6 2.14 8.25 8.25 0 0 0 3 2.72A26.12 26.12 0 0 0 147 608a52.36 52.36 0 0 0 10.1 1h.71a45.07 45.07 0 0 0 14-2 15 15 0 0 0 4.56-2.35 6.25 6.25 0 0 0 1.46-1.63 4.12 4.12 0 0 0 .61-2.1v-.09Z" fill="#090e40"/>
  <path d="M137 592.52c0 3.26 8.78 6 19.71 6.15s19.81-2.41 19.85-5.68-8.78-6-19.71-6.14-19.79 2.41-19.85 5.67Z" fill="#ffd000"/>
  <path d="M159.31 597.76h1.54c11.54.22 11.94-2.57 12.34-3.76-.37-1.35-.75-5.37-12.24-5.54h-2.69c3.26 1.32 5.23 3.06 5.22 4.93-.02 1.7-1.58 3.2-4.17 4.37Z" fill="#b08e00"/>
  <path d="M137.58 592.89s.82-2.84 12.44-4.14c0 0-6.1 2-5.91 4.1s6.53 4.5 6.53 4.5-10.64-1-13.06-4.46Z" fill="#ffdd92"/>
  <path d="M137.05 593h-1.5a3.56 3.56 0 0 0 .66 2 7.88 7.88 0 0 0 3 2.4 28.76 28.76 0 0 0 7.45 2.27 60 60 0 0 0 10.07.92h.82a51 51 0 0 0 13.9-1.71 15.63 15.63 0 0 0 4.51-2 5.72 5.72 0 0 0 1.49-1.45 3.58 3.58 0 0 0 .66-2 3.67 3.67 0 0 0-.66-2 7.8 7.8 0 0 0-3-2.39 28.61 28.61 0 0 0-7.45-2.28 62 62 0 0 0-10.07-.92h-.82a50.67 50.67 0 0 0-13.9 1.71 15.63 15.63 0 0 0-4.51 2 6 6 0 0 0-1.48 1.45 3.59 3.59 0 0 0-.66 2h3a.55.55 0 0 1 .13-.32 4.76 4.76 0 0 1 1.8-1.31 23.84 23.84 0 0 1 6.38-1.84 55.75 55.75 0 0 1 9.24-.72h.79a49.21 49.21 0 0 1 13.51 1.83 13.4 13.4 0 0 1 3.79 1.7 3.2 3.2 0 0 1 .79.75.66.66 0 0 1 .14.35h1.5-1.5a.64.64 0 0 1-.14.33 4.72 4.72 0 0 1-1.79 1.31 24.82 24.82 0 0 1-6.4 1.92 56.85 56.85 0 0 1-9.24.72h-.78a49.66 49.66 0 0 1-13.52-1.82 13.8 13.8 0 0 1-3.79-1.71 3.31 3.31 0 0 1-.78-.74.62.62 0 0 1-.14-.35h-1.5Z" fill="#090e40"/>
  <path d="M200.13 602.64c-1.58 3.41-10.9 2.46-20.82-2.13s-16.67-11.07-15.09-14.51l2.88-7.45 35.9 16.64Z" fill="#b08e00"/>
  <path d="m200.13 602.64-1.36-.63a1.11 1.11 0 0 1-.31.37 3.1 3.1 0 0 1-1.26.57 10 10 0 0 1-2.32.24 27.1 27.1 0 0 1-6.68-1 50.55 50.55 0 0 1-8.26-3 44.89 44.89 0 0 1-10.65-6.68 17 17 0 0 1-2.92-3.18 4.32 4.32 0 0 1-.88-2.19 1 1 0 0 1 .09-.45v-.09l2.3-6L201.1 596l-2.37 6.14 1.4.54-1.36-.63 1.36.63 1.4.54 2.88-7.45a1.5 1.5 0 0 0-.77-1.9l-35.91-16.62a1.56 1.56 0 0 0-1.2 0 1.48 1.48 0 0 0-.83.85l-2.88 7.45 1.4.54-1.36-.63a4 4 0 0 0-.37 1.71 7.11 7.11 0 0 0 1.39 3.86 24.38 24.38 0 0 0 5.76 5.64 52.15 52.15 0 0 0 9 5.27 53.11 53.11 0 0 0 8.76 3.2 30.14 30.14 0 0 0 7.44 1.12 11.38 11.38 0 0 0 3.93-.61 5.76 5.76 0 0 0 1.57-.88 4.21 4.21 0 0 0 1.11-1.43v-.09Z" fill="#090e40"/>
  <path d="M167.1 578.57c-1.37 3 5.55 9.08 15.47 13.67s19.07 5.91 20.44 3-5.56-9.09-15.48-13.68-19.06-5.95-20.43-2.99Z" fill="#ffd000"/>
  <path d="M169 579.45c0 .5.64 1.52 2 2.87a51.21 51.21 0 0 1 13 4.22 48.17 48.17 0 0 1 12.57 8c2.62.36 4.21.16 4.55-.18.13-1.17-4-6.15-14.44-11-7.26-3.37-12.61-4.35-15.47-4.35a4.15 4.15 0 0 0-2.21.44Z" fill="#ffd000"/>
  <path d="M169.16 579s2-2.52 13.05.77c0 0-6.39-.39-7.14 1.78s3.91 7.1 3.91 7.1-9.21-5.25-9.82-9.65Z" fill="#ffdd92"/>
  <path d="M186.46 588c1-2.15-2.34-6-8.05-9.78a58.39 58.39 0 0 1 9.1 3.49c9.87 4.71 16.72 10.91 15.32 13.86s-10.54 1.51-20.41-3.19a60.22 60.22 0 0 1-7.25-4.08c5.83 1.64 10.34 1.7 11.29-.3Z" fill="#b08e00"/>
  <path d="m168.22 578.27-1.36-.63a3.38 3.38 0 0 0-.31 1.45A4.69 4.69 0 0 0 167 581a11.34 11.34 0 0 0 2.14 3.09 33.11 33.11 0 0 0 5.77 4.71 64.43 64.43 0 0 0 17.45 8 29.72 29.72 0 0 0 7.6 1.22 9.45 9.45 0 0 0 3.25-.48 4.63 4.63 0 0 0 1.34-.74 3.42 3.42 0 0 0 1.29-2.68 4.87 4.87 0 0 0-.43-1.88 11.13 11.13 0 0 0-2.14-3.09 32.66 32.66 0 0 0-5.77-4.71 63.63 63.63 0 0 0-17.45-8 29.65 29.65 0 0 0-7.6-1.22 9.45 9.45 0 0 0-3.25.48 4.76 4.76 0 0 0-1.34.74 3.36 3.36 0 0 0-1 1.23l1.36.63 1.36.63a.44.44 0 0 1 .14-.16 2.26 2.26 0 0 1 .89-.37 8 8 0 0 1 1.81-.18 27.16 27.16 0 0 1 6.8 1.11 57.38 57.38 0 0 1 8.81 3.28 52.2 52.2 0 0 1 10.9 6.6 18.29 18.29 0 0 1 3 3 6.05 6.05 0 0 1 .7 1.17 1.85 1.85 0 0 1 .18.7.54.54 0 0 1 0 .19.44.44 0 0 1-.14.16 2.27 2.27 0 0 1-.88.37 8.2 8.2 0 0 1-1.82.18 27.16 27.16 0 0 1-6.8-1.11 58.45 58.45 0 0 1-8.81-3.28 51.77 51.77 0 0 1-10.9-6.61 17.91 17.91 0 0 1-3-3 5.48 5.48 0 0 1-.69-1.17 1.85 1.85 0 0 1-.18-.7.41.41 0 0 1 0-.19Z" fill="#090e40"/>
  <path d="M211.55 599.43c0 4 9.53 7.15 21.17 7s21.05-3.5 21-7.51l.45-8.5-42.17.5Z" fill="#b08e00"/>
  <path d="M211.55 599.43h-1.5a4.36 4.36 0 0 0 .64 2.18 8.22 8.22 0 0 0 3.1 2.76 26.26 26.26 0 0 0 7.73 2.61 55.69 55.69 0 0 0 10.46.94h.76a48.92 48.92 0 0 0 15.34-2.38A16.66 16.66 0 0 0 253 603a6.66 6.66 0 0 0 1.55-1.77 4.31 4.31 0 0 0 .64-2.22v-.07h-1.5l1.5.08.44-8.5a1.49 1.49 0 0 0-1.51-1.58l-42.17.5a1.5 1.5 0 0 0-1.48 1.42l-.45 8.5v.1h1.5l1.5.08.37-7.1 39.16-.46-.36 6.9v.12a1.33 1.33 0 0 1-.22.7 5.66 5.66 0 0 1-2.07 1.79 24.62 24.62 0 0 1-7.06 2.44 53.27 53.27 0 0 1-10.17 1.05H232a44.81 44.81 0 0 1-14-1.98 13.27 13.27 0 0 1-3.91-2 3.81 3.81 0 0 1-.85-.93 1.41 1.41 0 0 1-.22-.68h-1.5l1.5.08Z" fill="#0b1236"/>
  <path d="M254.17 590.43c0 3.48-9.37 6.41-21 6.55S212 594.41 212 590.93s9.36-6.41 21-6.55 21.12 2.62 21.17 6.05Z" fill="#ffd000"/>
  <path d="M254.17 590.43h-1.5a.82.82 0 0 1-.17.43 5.42 5.42 0 0 1-2.05 1.52 27.66 27.66 0 0 1-7.1 2.15 63 63 0 0 1-10.21.93h-.84a51.52 51.52 0 0 1-13.93-1.69 13.87 13.87 0 0 1-3.9-1.71 3.37 3.37 0 0 1-.81-.76.71.71 0 0 1-.16-.41H212h1.5a.73.73 0 0 1 .17-.43 5.36 5.36 0 0 1 2-1.52 27.27 27.27 0 0 1 7.1-2.15 62 62 0 0 1 10.22-.93h.83a50.68 50.68 0 0 1 13.93 1.69 13.46 13.46 0 0 1 3.9 1.71 3.27 3.27 0 0 1 .82.76.79.79 0 0 1 .16.41h3a3.69 3.69 0 0 0-.69-2.06 8 8 0 0 0-3.1-2.43 28.64 28.64 0 0 0-7.65-2.23 62.91 62.91 0 0 0-10.37-.81H233a56.17 56.17 0 0 0-15.3 2.1 17.55 17.55 0 0 0-4.93 2.27 6.55 6.55 0 0 0-1.59 1.56 3.82 3.82 0 0 0-.68 2.12 3.75 3.75 0 0 0 .68 2.06 8 8 0 0 0 3.11 2.43 28.53 28.53 0 0 0 7.65 2.23 62.79 62.79 0 0 0 10.36.81h.88a56 56 0 0 0 15.28-2.09 17.28 17.28 0 0 0 4.93-2.26 6.09 6.09 0 0 0 1.59-1.57 3.77 3.77 0 0 0 .69-2.11Z" fill="#0b1236"/>
  <path d="M209.87 583.58c0 3.91 9.3 7 20.68 6.84s20.55-3.42 20.5-7.33l.44-8.31-41.18.49Z" fill="#b08e00"/>
  <path d="M209.87 583.58h-1.5a4.35 4.35 0 0 0 .63 2.15 8.13 8.13 0 0 0 3 2.72 25.79 25.79 0 0 0 7.6 2.55 53.27 53.27 0 0 0 10.22.93h.74a48.17 48.17 0 0 0 15-2.32 16.41 16.41 0 0 0 4.84-2.61 6.57 6.57 0 0 0 1.53-1.73 4.33 4.33 0 0 0 .63-2.2v-.06h-1.5l1.5.07.44-8.3a1.47 1.47 0 0 0-.42-1.11 1.5 1.5 0 0 0-1.1-.47l-41.18.49a1.5 1.5 0 0 0-1.48 1.43l-.44 8.3v.09h1.5l1.5.07.36-6.89 38.18-.46-.35 6.71v.11a1.35 1.35 0 0 1-.21.67 5.59 5.59 0 0 1-2 1.74 24.38 24.38 0 0 1-6.89 2.38 51.56 51.56 0 0 1-9.92 1h-.71a44 44 0 0 1-13.63-1.84 12.49 12.49 0 0 1-3.81-1.92 3.83 3.83 0 0 1-.83-.9 1.23 1.23 0 0 1-.2-.64h-1.5l1.5.07Z" fill="#0b1236"/>
  <path d="M251.49 574.78c0 3.4-9.14 6.27-20.52 6.4s-20.62-2.51-20.66-5.91 9.14-6.26 20.52-6.39 20.62 2.51 20.66 5.9Z" fill="#ffd000"/>
  <path d="M251.49 574.78H250a.65.65 0 0 1-.16.4 5.33 5.33 0 0 1-2 1.47 26.75 26.75 0 0 1-6.93 2.09 59 59 0 0 1-10 .91h-.82a50.48 50.48 0 0 1-13.6-1.65 13.41 13.41 0 0 1-3.8-1.67 3.12 3.12 0 0 1-.78-.74.61.61 0 0 1-.15-.37.69.69 0 0 1 .15-.4 5.37 5.37 0 0 1 2-1.47 26.75 26.75 0 0 1 6.93-2.09 59 59 0 0 1 10-.91h.82a50.53 50.53 0 0 1 13.6 1.65 13.55 13.55 0 0 1 3.8 1.67 3.12 3.12 0 0 1 .78.74.59.59 0 0 1 .15.37H253a3.63 3.63 0 0 0-.67-2 7.8 7.8 0 0 0-3-2.38 28 28 0 0 0-7.48-2.18 61.22 61.22 0 0 0-10.13-.8h-.85a54.55 54.55 0 0 0-14.94 2 17.11 17.11 0 0 0-4.83 2.22 6.35 6.35 0 0 0-1.56 1.54 3.66 3.66 0 0 0-.67 2.08 3.63 3.63 0 0 0 .67 2 7.8 7.8 0 0 0 3.05 2.38 28 28 0 0 0 7.48 2.18 61.13 61.13 0 0 0 10.13.8h.8a54.55 54.55 0 0 0 14.94-2 17.39 17.39 0 0 0 4.83-2.22 6.35 6.35 0 0 0 1.56-1.54 3.76 3.76 0 0 0 .67-2.08h-1.5Z" fill="#0b1236"/>
  <path d="M214 567.2c0 3.91 9.31 7 20.68 6.84s20.56-3.42 20.51-7.33l.44-8.3-41.19.49Z" fill="#b08e00"/>
  <path d="M214 567.2h-1.5a4.35 4.35 0 0 0 .63 2.15 8.17 8.17 0 0 0 3 2.72 25.79 25.79 0 0 0 7.57 2.54 53.19 53.19 0 0 0 10.22.93h.74a48.1 48.1 0 0 0 15-2.32 16.34 16.34 0 0 0 4.85-2.56 6.76 6.76 0 0 0 1.53-1.73 4.38 4.38 0 0 0 .62-2.19v-.07h-1.5l1.5.08.44-8.31a1.5 1.5 0 0 0-1.52-1.57l-41.19.49a1.51 1.51 0 0 0-1.48 1.42l-.43 8.3v.09H214l1.5.08.37-6.9 38.18-.46-.36 6.71v.11a1.25 1.25 0 0 1-.21.66 5.42 5.42 0 0 1-2 1.74 24.18 24.18 0 0 1-6.88 2.38 51.76 51.76 0 0 1-9.93 1H234a44.08 44.08 0 0 1-13.62-1.91 12.42 12.42 0 0 1-3.8-1.92 3.44 3.44 0 0 1-.83-.9 1.36 1.36 0 0 1-.21-.64h-1.5l1.5.08Z" fill="#0b1236"/>
  <ellipse cx="235.03" cy="558.65" rx="20.59" ry="6.15" transform="rotate(-.68 235.97132914 560.88986814)" fill="#ffd000"/>
  <path d="M255.62 558.41h-1.5a.73.73 0 0 1-.16.4 5.31 5.31 0 0 1-2 1.47 26.75 26.75 0 0 1-6.93 2.09 59.16 59.16 0 0 1-10 .91h-.82a50.4 50.4 0 0 1-13.59-1.65 13.28 13.28 0 0 1-3.8-1.67 3 3 0 0 1-.79-.74.75.75 0 0 1-.15-.37h-1.5 1.5a.73.73 0 0 1 .16-.4 5.42 5.42 0 0 1 2-1.47 26.75 26.75 0 0 1 6.93-2.09 59.16 59.16 0 0 1 10-.91h.82a50.4 50.4 0 0 1 13.59 1.65 13.28 13.28 0 0 1 3.8 1.67 3 3 0 0 1 .79.74.78.78 0 0 1 .15.37h3a3.72 3.72 0 0 0-.68-2 7.76 7.76 0 0 0-3-2.38 28.07 28.07 0 0 0-7.48-2.18 61.22 61.22 0 0 0-10.13-.8h-.86A54.67 54.67 0 0 0 220 553a17.32 17.32 0 0 0-4.82 2.22 6.18 6.18 0 0 0-1.56 1.54 3.69 3.69 0 0 0-.68 2.08 3.72 3.72 0 0 0 .68 2 7.76 7.76 0 0 0 3 2.38 28.07 28.07 0 0 0 7.48 2.18 61.22 61.22 0 0 0 10.13.8h.86a54.67 54.67 0 0 0 14.94-2 17 17 0 0 0 4.82-2.22 6.18 6.18 0 0 0 1.56-1.54 3.66 3.66 0 0 0 .68-2.08Z" fill="#0b1236"/>
  <path d="M219 553.3c.05 3.92 9.31 7 20.68 6.85s20.55-3.42 20.51-7.34l.44-8.3-41.19.49Z" fill="#b08e00"/>
  <path d="M219 553.3h-1.5a4.35 4.35 0 0 0 .63 2.15 8.14 8.14 0 0 0 3 2.71 25.78 25.78 0 0 0 7.57 2.55 53.94 53.94 0 0 0 10.21.92h.75a47.79 47.79 0 0 0 15-2.33 16.23 16.23 0 0 0 4.85-2.55A6.75 6.75 0 0 0 261 555a4.26 4.26 0 0 0 .63-2.19v-.07h-1.5l1.5.08.43-8.3a1.5 1.5 0 0 0-.41-1.12 1.53 1.53 0 0 0-1.1-.46l-41.19.49a1.5 1.5 0 0 0-1.48 1.42l-.44 8.3v.1h1.5l1.5.08.36-6.9L259 546l-.35 6.7v.12h.7-.7.7-.7a1.3 1.3 0 0 1-.21.67 5.5 5.5 0 0 1-2 1.73 23.8 23.8 0 0 1-6.88 2.38 51.72 51.72 0 0 1-9.93 1h-.71a43.75 43.75 0 0 1-13.61-1.9 13 13 0 0 1-3.81-1.92 3.55 3.55 0 0 1-.82-.9 1.32 1.32 0 0 1-.21-.65h-1.5l1.5.08Z" fill="#0b1236"/>
  <path d="M260.61 544.51c0 3.4-9.15 6.26-20.52 6.4s-20.63-2.51-20.67-5.91 9.15-6.26 20.52-6.4 20.63 2.51 20.67 5.91Z" fill="#ffd000"/>
  <path d="M260.61 544.51h-1.5a.8.8 0 0 1-.16.4 5.37 5.37 0 0 1-2 1.48 26.66 26.66 0 0 1-6.95 2.11 61.42 61.42 0 0 1-10 .91h-.82a50 50 0 0 1-13.59-1.65 13.59 13.59 0 0 1-3.8-1.66 3.2 3.2 0 0 1-.79-.74.68.68 0 0 1-.15-.38h-1.5 1.5a.71.71 0 0 1 .16-.4 5.22 5.22 0 0 1 2-1.48A26.75 26.75 0 0 1 230 541a61.21 61.21 0 0 1 10-.91h.81a50 50 0 0 1 13.6 1.65 13.59 13.59 0 0 1 3.8 1.66 3.4 3.4 0 0 1 .79.74.77.77 0 0 1 .15.38h3a3.66 3.66 0 0 0-.68-2 7.75 7.75 0 0 0-3-2.38 28.13 28.13 0 0 0-7.49-2.19 61.19 61.19 0 0 0-10.13-.79H240a54.91 54.91 0 0 0-14.94 2 17.11 17.11 0 0 0-4.83 2.21 6.38 6.38 0 0 0-1.56 1.55A3.73 3.73 0 0 0 218 545a3.73 3.73 0 0 0 .67 2 7.71 7.71 0 0 0 3 2.38 28 28 0 0 0 7.48 2.19 61.28 61.28 0 0 0 10.13.79h.85a55 55 0 0 0 15-2 17 17 0 0 0 4.82-2.21 6.38 6.38 0 0 0 1.56-1.55 3.66 3.66 0 0 0 .68-2.08Z" fill="#0b1236"/>
  <path d="m243.05 598.75 13.7-23.29-4.35-4.7c.62 0-2.73-.87 4.46-.76 9.55.14 19.95 6.51 19.28 19.67-.75 14.72-10.22 17.65-19.76 17.39-6.26-.18-11.35-7.21-12-7.32" fill="#b08e00"/>
  <path d="m244.35 599.51 13.7-23.29a1.53 1.53 0 0 0-.2-1.79l-4.35-4.69-1.1 1 .09 1.5a1.8 1.8 0 0 0 .52-.12 1.52 1.52 0 0 0 1-1.41 1.64 1.64 0 0 0-.18-.73 1.6 1.6 0 0 0-.34-.42 1.41 1.41 0 0 0-.22-.17l-.52.68.66-.55c-.1-.11-.13-.13-.14-.13l-.52.68.66-.55-1 .82 1.14-.55a1.28 1.28 0 0 0-.17-.27l-1 .82 1.14-.55-1.25.6h1.39a1.36 1.36 0 0 0-.14-.6l-1.25.6 1.3.55a1.5 1.5 0 0 0 .11-.55h-1.41l1.3.55-1.23-.52.76 1.1a1.41 1.41 0 0 0 .47-.58l-1.23-.52.76 1.1-.55-.8.34.91a1.06 1.06 0 0 0 .21-.11l-.55-.8.34.91-.13-.35.11.36-.13-.35.11.36a8.55 8.55 0 0 1 .86-.09h3.1a19.68 19.68 0 0 1 12.19 4.25 15.2 15.2 0 0 1 4.1 5.19 17.14 17.14 0 0 1 1.57 7.43v1.13a21.71 21.71 0 0 1-1.79 8.12 12.21 12.21 0 0 1-6.24 6.21 22.31 22.31 0 0 1-9.1 1.64h-1.09a9 9 0 0 1-3.79-1 20.11 20.11 0 0 1-4.77-3.53c-.63-.61-1.16-1.16-1.58-1.59l-.57-.56a3 3 0 0 0-.31-.25 2.08 2.08 0 0 0-.24-.15 1.64 1.64 0 0 0-.48-.16 1.5 1.5 0 0 0-.53 3l.23-1.26-.66 1.1a1.39 1.39 0 0 0 .43.16l.23-1.26-.66 1.1.33-.55-.4.51h.07l.33-.55-.4.51a3.66 3.66 0 0 1 .44.42c.42.42 1 1.07 1.79 1.8a25.14 25.14 0 0 0 4.38 3.4 12.8 12.8 0 0 0 6.08 1.92h1.17c4.74 0 9.55-.83 13.38-3.7a15.33 15.33 0 0 0 4.68-5.88 25 25 0 0 0 2.07-9.24v-1.28a20.19 20.19 0 0 0-1.86-8.72 18.83 18.83 0 0 0-8.05-8.42 23.35 23.35 0 0 0-10.87-2.83h-1.24a23.81 23.81 0 0 0-3.05.13 3.68 3.68 0 0 0-.93.25 1.76 1.76 0 0 0-.59.42 1.47 1.47 0 0 0-.3.46 1.58 1.58 0 0 0 .05 1.36 1.77 1.77 0 0 0 .41.53c.16.14.26.2.27.22l.66-.88-.78.76.12.12.66-.88-.78.76 1-1-1.2.73a1 1 0 0 0 .2.25l1-1-1.2.73 1.26-.76H251a1.5 1.5 0 0 0 .21.76l1.26-.76-1.37-.55a1.35 1.35 0 0 0-.11.55h1.48l-1.37-.55 1.37.55-.86-1.21a1.51 1.51 0 0 0-.51.66l1.37.55-.86-1.21.83 1.16-.31-1.39a1.39 1.39 0 0 0-.52.23l.83 1.16-.31-1.39.26 1.17-.08-1.2h-.18l.26 1.17-.08-1.2a1.54 1.54 0 0 0-1.3.94 1.5 1.5 0 0 0 .3 1.58l3.6 3.88L241.76 598a1.5 1.5 0 0 0 2.59 1.52Z" fill="#0b1236"/>
  <path d="M268.57 589.53c-.6 10.3-8.95 18.2-18.66 17.64s-17.11-9.37-16.51-19.68 8.95-18.21 18.66-17.64 17.11 9.37 16.51 19.68Z" fill="#ffd000"/>
  <path d="m268.57 589.53-1.5-.09a17.73 17.73 0 0 1-5.13 11.6 15.7 15.7 0 0 1-11.06 4.66h-.89a15.51 15.51 0 0 1-10.74-5.28 17.64 17.64 0 0 1-4.38-11.74v-1.07A17.74 17.74 0 0 1 240 576a15.66 15.66 0 0 1 11.05-4.66h.89a15.56 15.56 0 0 1 10.74 5.29 17.63 17.63 0 0 1 4.38 11.73v1.08l1.5.09 1.5.08v-1.25a20.6 20.6 0 0 0-5.06-13.72 18.54 18.54 0 0 0-12.81-6.29h-1.06a18.61 18.61 0 0 0-13.17 5.54 20.73 20.73 0 0 0-6 13.54v1.25a20.63 20.63 0 0 0 5.04 13.7 18.54 18.54 0 0 0 12.81 6.29h1.06a18.65 18.65 0 0 0 13.17-5.54 20.76 20.76 0 0 0 6-13.55Z" fill="#0b1236"/>
  <path d="M246.16 589.87a21.26 21.26 0 0 0 5.48 15.65 15.31 15.31 0 0 1-2.35.06 14.68 14.68 0 0 1-10.56-5.58 18.23 18.23 0 0 1-3.91-12.48c.51-9.17 7.41-16.3 15.55-16.3h.84a14 14 0 0 1 5.51 1.51 20.52 20.52 0 0 0-10.56 17.14Z" fill="#ffdd92"/>
  <path d="M377.13 398.77h-54.5a5.62 5.62 0 0 0-5.62 5.62v.21a5.62 5.62 0 0 0 5.62 5.62h54.5a5.63 5.63 0 0 0 5.63-5.62v-.21a5.62 5.62 0 0 0-5.63-5.62m130.13 0H395a5.61 5.61 0 0 0-5.62 5.62v.21a5.62 5.62 0 0 0 5.62 5.62h112.26a5.62 5.62 0 0 0 5.62-5.62v-.21a5.62 5.62 0 0 0-5.62-5.62" fill="#90c3f2"/>
  <path d="M434.89 425.67H322.63a5.62 5.62 0 0 0-5.62 5.62v.21a5.62 5.62 0 0 0 5.62 5.62h112.26a5.63 5.63 0 0 0 5.63-5.62v-.21a5.62 5.62 0 0 0-5.63-5.62" fill="#a3e5e9"/>
  <path d="M507.26 425.67h-54.65a5.62 5.62 0 0 0-5.63 5.62v.21a5.63 5.63 0 0 0 5.63 5.62h54.65a5.62 5.62 0 0 0 5.62-5.62v-.21a5.62 5.62 0 0 0-5.62-5.62" fill="#beeaec"/>
  <path d="M377.13 509.56h-54.5a5.62 5.62 0 0 0-5.62 5.62v.21a5.62 5.62 0 0 0 5.62 5.62h54.5a5.62 5.62 0 0 0 5.63-5.62v-.21a5.63 5.63 0 0 0-5.63-5.62m130.13 0H395a5.62 5.62 0 0 0-5.62 5.62v.21A5.61 5.61 0 0 0 395 521h112.26a5.62 5.62 0 0 0 5.62-5.62v-.21a5.62 5.62 0 0 0-5.62-5.62M430 345.72H322.63a5.62 5.62 0 0 0-5.62 5.62v.21a5.62 5.62 0 0 0 5.62 5.62h112.31a5.6 5.6 0 0 0 4.59-2.37l-7.1.59h-.25a3 3 0 0 1-3-3.35l.75-6.33" fill="#90c3f2"/>
  <path d="M435 372.62h-33.3a5.62 5.62 0 0 0-5.62 5.62v.21a5.62 5.62 0 0 0 5.62 5.62H435a5.62 5.62 0 0 0 5.62-5.62v-.21a5.62 5.62 0 0 0-5.62-5.62m-53.35 0h-59a5.62 5.62 0 0 0-5.62 5.62v.21a5.62 5.62 0 0 0 5.62 5.62h59a5.62 5.62 0 0 0 5.62-5.62v-.21a5.62 5.62 0 0 0-5.62-5.62m124.85 79.45H322.63a5.62 5.62 0 0 0-5.62 5.62v.21a5.62 5.62 0 0 0 5.62 5.62H506.5a5.62 5.62 0 0 0 5.63-5.62v-.21a5.63 5.63 0 0 0-5.63-5.62" fill="#a3e5e9"/>
  <path d="M495.16 372.62H452.7a5.62 5.62 0 0 0-5.62 5.62v.21a5.62 5.62 0 0 0 5.62 5.62h54.66a5.62 5.62 0 0 0 5.62-5.62v-.21a5.61 5.61 0 0 0-1-3.13 99.83 99.83 0 0 1-16.87-2.49" fill="#beeaec"/>
  <path d="M435 480.06h-33.3a5.62 5.62 0 0 0-5.62 5.62v.21a5.62 5.62 0 0 0 5.62 5.62H435a5.62 5.62 0 0 0 5.62-5.62v-.21a5.61 5.61 0 0 0-5.62-5.62m-53.35 0h-59a5.62 5.62 0 0 0-5.62 5.62v.21a5.62 5.62 0 0 0 5.62 5.62h59a5.62 5.62 0 0 0 5.62-5.62v-.21a5.61 5.61 0 0 0-5.62-5.62" fill="#a3e5e9"/>
  <path d="M507.36 480.06H452.7a5.62 5.62 0 0 0-5.62 5.62v.21a5.62 5.62 0 0 0 5.62 5.62h54.66a5.62 5.62 0 0 0 5.62-5.62v-.21a5.62 5.62 0 0 0-5.62-5.62" fill="#beeaec"/>
  <path d="M619.2 217.33a111.23 111.23 0 0 1 13.27 47.83 1.5 1.5 0 1 0 3-.14 114.14 114.14 0 0 0-13.63-49.11 1.5 1.5 0 0 0-2.64 1.42" fill="#0b1236"/>
  <path d="M532 166.21a104.79 104.79 0 0 1 66.14 174.59 18.32 18.32 0 0 1 3.48 5.74 103.93 103.93 0 0 0 33-74.18h-.19a2 2 0 1 1 0-3.92h.19c0-.66 0-1.33-.05-2a1.52 1.52 0 0 1-.52.12H634a1.5 1.5 0 0 1-1.5-1.43 111.23 111.23 0 0 0-13.27-47.83 1.51 1.51 0 0 1 0-1.46A104.17 104.17 0 0 0 532 166.21" fill="#d4d8e5"/>
  <path d="M598.14 340.8q-3.18 3.51-6.66 6.72a17.56 17.56 0 0 1 .88 4.83v1.9a106.29 106.29 0 0 0 9.24-7.71 18.32 18.32 0 0 0-3.48-5.74" fill="#b1b9d0"/>
  <path d="M591.48 347.52q-1.23 1.13-2.49 2.22a14.1 14.1 0 0 1 .37 2.76v3.89c1-.7 2-1.41 3-2.14v-1.9a17.56 17.56 0 0 0-.88-4.83" fill="#111b44"/>
  <path d="M589 349.74a104.38 104.38 0 0 1-12.19 9.1 11 11 0 0 1 .47 3.19v1.53a104.19 104.19 0 0 0 12.11-7.17v-3.89a14.1 14.1 0 0 0-.37-2.76" fill="#63479f"/>
  <path d="M556.66 368.86c-2.35.87-4.86 1.71-7.5 2.47V373q3.8-.69 7.5-1.65v-2.47" fill="#193a72"/>
  <path d="M576.8 358.84c-.83.53-1.68 1.05-2.53 1.56v4.6c1-.47 2-.95 3-1.45V362a11 11 0 0 0-.47-3.19" fill="#111b44"/>
  <path d="M574.13 360.49a103.66 103.66 0 0 1-13.94 7c-1.14.47-2.32.94-3.53 1.39v2.47a103 103 0 0 0 17.61-6.35v-3a8.65 8.65 0 0 0-.14-1.54" fill="#162d5f"/>
  <path d="m574.27 360.4-.14.09a8.65 8.65 0 0 1 .14 1.54v3-4.63" fill="#111b44"/>
  <path d="M546.16 372.15v1.33-1.33" fill="#c9cedb"/>
  <path d="M549.16 371.33c-1 .28-2 .56-3 .82v1.33c1-.15 2-.32 3-.5v-1.65" fill="#111b44"/>
  <path d="M546.15 372.15a102.55 102.55 0 0 1-13.37 2.49 103.31 103.31 0 0 0 13.37-1.16v-1.33" fill="#b7bbc8"/>
  <path d="M634.42 268.45a2 2 0 1 0 0 3.92h.19v-3.93h-.19m-15.2-52.57a1.51 1.51 0 0 0 0 1.46 111.23 111.23 0 0 1 13.27 47.83 1.5 1.5 0 0 0 1.5 1.43h.01a1.52 1.52 0 0 0 .52-.12 103.67 103.67 0 0 0-15.34-50.6" fill="#111b44"/>
  <path d="M520.49 373.78a102.27 102.27 0 0 1-63.64-21.92l-24.54 2h-.13a1.49 1.49 0 0 1-1.49-1.67l3.05-25.63a103.34 103.34 0 1 1 86.75 47.18" fill="#bbe5ff"/>
  <path d="M520.49 168.59a101.85 101.85 0 1 1-63.18 181.72l-25.13 2.09 3.11-26.16a101.86 101.86 0 0 1 85.2-157.65m0-3A104.86 104.86 0 0 0 432.18 327l-3 25.09a3 3 0 0 0 3 3.35h.25l24-2a103.71 103.71 0 0 0 64.1 21.88 104.85 104.85 0 0 0 0-209.69" fill="#0b1236"/>
  <path d="M430 245a93.8 93.8 0 0 1 16.56-32.56" fill="#d3fffa"/>
  <path d="M431.42 245.44a92.16 92.16 0 0 1 16.29-32 1.51 1.51 0 0 0-.26-2.11 1.49 1.49 0 0 0-2.1.26 95.08 95.08 0 0 0-16.82 33.07 1.5 1.5 0 1 0 2.89.81Z" fill="#0b1236"/>
  <path d="M520.49 168.59c-1.43 0-2.85 0-4.26.11 16.66.69 31.84 8.51 45.5 16.27 30.83 17.5 52.08 47.48 52.08 85.46A101.84 101.84 0 0 1 516 372.18c1.51.06 3 .1 4.54.1a101.85 101.85 0 0 0 0-203.69Z" fill="#9fc4d6"/>
  <path d="M496.09 225.22a1.71 1.71 0 0 1-.54-.1c-12.34-4.7-27.23-11.75-30.76-16.13-4-5-5.5-32.94 1.66-44 2.53-3.91 5.13-5.89 7.71-5.89 4.29 0 7.55 5.16 9.19 14.54 2 11.27 24.32 44 24.54 44.28a1.54 1.54 0 0 1 .22 1.25 1.51 1.51 0 0 1-.82 1l-10.57 4.93a1.56 1.56 0 0 1-.63.14" fill="#efefef"/>
  <path d="M474.16 160.62c3.65 0 6.37 5.62 7.71 13.3 2 11.72 24.79 44.87 24.79 44.87l-10.57 4.93c-14.29-5.44-27.21-12.05-30.14-15.67-3.41-4.25-5.09-31.67 1.76-42.23 2.36-3.64 4.53-5.2 6.45-5.2m0-3c-3.17 0-6.1 2.15-9 6.57-4.51 7-5.2 18.72-5.21 25.11 0 7.42.94 17.28 3.64 20.63 3.73 4.63 18.46 11.67 31.4 16.59a3 3 0 0 0 1.07.2 3.08 3.08 0 0 0 1.26-.28l10.57-4.93a3 3 0 0 0 1.21-4.41c-6.22-9.08-22.72-34.61-24.31-43.69-1.77-10.18-5.56-15.79-10.66-15.79" fill="#0b1236"/>
  <path d="M481.87 173.92c-1.35-7.7-4.08-13.34-7.75-13.3 3.08 1.23 4.76 6.82 5 14 .47 11.89 18.62 47.76 18.62 47.76l-2.88.9 1.19.46 10.57-4.93s-22.75-33.15-24.79-44.87" fill="#c2c3cc"/>
  <path d="M501 221.23c-14.28-5.43-27.21-12-30.13-15.67-3.42-4.24-5.09-31.66 1.75-42.22a21.09 21.09 0 0 1 2-2.69c-2-.27-4.37 1.23-6.92 5.17-6.85 10.56-5.17 38-1.76 42.23 2.93 3.62 15.85 10.23 30.14 15.67l10.57-4.93a1.39 1.39 0 0 1-.11-.16l-5.58 2.6" fill="#fff"/>
  <path d="M469.8 176a79.68 79.68 0 0 0-.73 15.9" fill="#efefef"/>
  <path d="M468.32 175.79a75.3 75.3 0 0 0-.86 11.7c0 1.53 0 3 .12 4.51a1.5 1.5 0 1 0 3-.15c-.07-1.42-.11-2.88-.11-4.36a71 71 0 0 1 .83-11.22 1.5 1.5 0 0 0-3-.48Z" fill="#0b1236"/>
  <path d="m584.05 262.87 16.11 4.07-6.4 23.81-13.11 1.57 10.75 6.78c-4 11.25-9.27 19.92-16.62 27.55a102.15 102.15 0 0 1-17.47 14.15l-21.83-108 33.09-29.46 7-6.25c16.2 18.68 23.64 38.08 24.57 61.05l-16.11 4.75" fill="#273d7d"/>
  <path d="m584.05 262.87-.37 1.46 14.64 3.67-5.75 21.36-12.1 1.45a1.5 1.5 0 0 0-.62 2.76l10.75 6.78.8-1.27-1.42-.51c-4 11.1-9.08 19.54-16.28 27a100.39 100.39 0 0 1-17.22 13.93l.83 1.26 1.47-.3-21.66-107.14 32.44-28.88 7-6.25-1-1.12-1.13 1a99.39 99.39 0 0 1 17.75 28.49 94.86 94.86 0 0 1 6.45 31.64l1.5-.06-.43-1.44-16.1 4.76a1.5 1.5 0 0 0 0 2.89l.37-1.46.43 1.44 16.1-4.75a1.5 1.5 0 0 0 1.08-1.5 97.79 97.79 0 0 0-6.58-32.65 102.43 102.43 0 0 0-18.28-29.34 1.49 1.49 0 0 0-2.13-.14l-7 6.25-33.09 29.45a1.5 1.5 0 0 0-.47 1.42l21.83 108a1.52 1.52 0 0 0 .89 1.09 1.53 1.53 0 0 0 1.41-.13 103.32 103.32 0 0 0 17.72-14.36c7.5-7.79 12.87-16.68 16.95-28.09a1.51 1.51 0 0 0-.61-1.77l-7.22-4.5 8.92-1.07a1.51 1.51 0 0 0 1.27-1.1l6.4-23.81a1.5 1.5 0 0 0-.16-1.15 1.48 1.48 0 0 0-.92-.7l-16.11-4.06-.37 1.45.43 1.44-.43-1.44" fill="#0b1236"/>
  <path d="M567.17 325.85a90.09 90.09 0 0 1-10.95 9.55l1.09 5.4a102.15 102.15 0 0 0 17.47-14.15c7.35-7.63 12.59-16.3 16.62-27.55l-6.67-4.2c-.32 1.1-10.21 23.31-17.56 30.95Zm25.54-66.14c.31.93.48 0-2.46 1.34l9.91-2.93c-.93-23-8.37-42.37-24.57-61.05l-4 3.57c13.7 17.35 20.11 35.49 21 56.67Zm-2.58 4.7a9.49 9.49 0 0 1-.22 1.06l2.64.66-5.46 25.71-.92.11c.05.57-.89-.75-.91-.18l8.5-1 6.4-23.81Z" fill="#242f5b"/>
  <path d="m584.05 262.87-.37 1.46 14.64 3.67-5.75 21.36-12.1 1.45a1.5 1.5 0 0 0-.62 2.76l10.75 6.78.8-1.27-1.42-.51c-4 11.1-9.08 19.54-16.28 27a100.39 100.39 0 0 1-17.22 13.93l.83 1.26 1.47-.3-21.66-107.14 32.44-28.88 7-6.25-1-1.12-1.13 1a99.39 99.39 0 0 1 17.75 28.49 94.86 94.86 0 0 1 6.45 31.64l1.5-.06-.43-1.44-16.1 4.76a1.5 1.5 0 0 0 0 2.89l.37-1.46.43 1.44 16.1-4.75a1.5 1.5 0 0 0 1.08-1.5 97.79 97.79 0 0 0-6.58-32.65 102.43 102.43 0 0 0-18.28-29.34 1.49 1.49 0 0 0-2.13-.14l-7 6.25-33.09 29.45a1.5 1.5 0 0 0-.47 1.42l21.83 108a1.52 1.52 0 0 0 .89 1.09 1.53 1.53 0 0 0 1.41-.13 103.32 103.32 0 0 0 17.72-14.36c7.5-7.79 12.87-16.68 16.95-28.09a1.51 1.51 0 0 0-.61-1.77l-7.22-4.5 8.92-1.07a1.51 1.51 0 0 0 1.27-1.1l6.4-23.81a1.5 1.5 0 0 0-.16-1.15 1.48 1.48 0 0 0-.92-.7l-16.11-4.06-.37 1.45.43 1.44-.43-1.44" fill="#0b1236"/>
  <path d="M476.2 363.34c4.37-12.51 11.12-25.72 21.55-37a84.27 84.27 0 0 1 16.76-14l-72.43-45.73a59.62 59.62 0 0 0 10.09-4.08A58.62 58.62 0 0 0 464.6 254a40.23 40.23 0 0 0 10.21-13.39c.14-.32.27-.63.39-1 10.13-26.44 13.67-43.52 53.51-42.6h2.45l1.75.14h.67l1.46.14h.08l1 .12c1.46.17 3.09.39 4.82.69 14.76 2.48 37.09 9.84 32.74 31.57-.36 1.75-.77 3.6-1.26 5.53-.63 2.58-1.35 5.31-2.12 8.14-4.37 16-10.27 35.4-9.92 50.42.42 40.08 11.34 48.36 19.37 60.71 0 0-21.36 17.6-54.54 19s-49-10.4-49-10.4" fill="#efefef"/>
  <path d="m476.2 363.34 1.42.49c4.32-12.37 11-25.38 21.23-36.44a82.86 82.86 0 0 1 16.47-13.73 1.51 1.51 0 0 0 0-2.54l-72.44-45.73-.8 1.27.43 1.43a60.93 60.93 0 0 0 23.1-12.93 41.85 41.85 0 0 0 10.59-13.91c.16-.35.29-.68.42-1 2.48-6.46 4.55-12.34 6.82-17.46a55.22 55.22 0 0 1 5.68-10.24 29.37 29.37 0 0 1 13-10.26c5.76-2.39 13.34-3.72 23.63-3.72H529l.06-1.5-.1 1.5h1.41v-1.5l-.15 1.49h.47v-1.51l-.12 1.5h.42c.52 0 1.1.07 1.73.13h.47l.09-1.5-.14 1.5h.2l1.47.15.14-1.5-.17 1.5h.22l.16-1.49-.18 1.49 1 .12c1.44.16 3 .39 4.75.68h.25v-1.5l-.24 1.48c6.63 1.11 14.8 3.25 21.16 7.16a24.71 24.71 0 0 1 7.82 7.22 18.3 18.3 0 0 1 3 10.4 25.41 25.41 0 0 1-.52 5c-.35 1.73-.76 3.56-1.24 5.47-.63 2.57-1.35 5.29-2.12 8.1-2.12 7.78-4.61 16.37-6.57 24.9s-3.41 17-3.42 24.62v1.33h1.5-1.5c.21 20.16 3.07 32.48 7 41.34a65.88 65.88 0 0 0 6.32 11.14c2.19 3.18 4.37 6 6.34 9l1.25-.82-1-1.16a80.23 80.23 0 0 1-15 9 100.15 100.15 0 0 1-38.68 9.67c-1.85.08-3.65.12-5.39.12-14.55 0-25.26-2.6-32.32-5.17a56.25 56.25 0 0 1-7.86-3.52c-.86-.48-1.49-.87-1.91-1.14-.21-.13-.36-.24-.46-.31l-.1-.07-.9 1.21 1.42.49-1.42-.49-.9 1.2c.2.15 14.64 10.82 44.47 10.82 1.79 0 3.62 0 5.51-.12a103.26 103.26 0 0 0 40.3-10.18 82.33 82.33 0 0 0 15.14-9.17 1.5 1.5 0 0 0 .3-2c-2-3.15-4.25-6-6.38-9.09a60.32 60.32 0 0 1-8.58-17.41c-2.35-7.8-4-18.21-4.13-33.14v-1.26c0-7.23 1.4-15.52 3.34-23.94s4.42-17 6.54-24.8c.78-2.84 1.5-5.58 2.14-8.18.49-1.95.91-3.82 1.27-5.59a28 28 0 0 0 .58-5.6 21.3 21.3 0 0 0-3.55-12.06c-3.34-5-8.57-8.48-14.18-10.93a73.33 73.33 0 0 0-16.81-4.75h-.25v1.5l.25-1.48c-1.76-.3-3.41-.53-4.9-.7l-1-.12h-.12l-1.45-.14h-.67l-.09 1.5.13-1.5c-.67-.06-1.27-.1-1.77-.13h-2.55v1.5-1.5h-3c-9.37 0-16.71 1.07-22.62 3.13A33.57 33.57 0 0 0 492 205c-4.55 3.91-7.71 8.9-10.43 14.66s-5 12.34-7.77 19.56c-.12.31-.23.6-.36.89a38.87 38.87 0 0 1-9.83 12.88 57.48 57.48 0 0 1-12.11 8.32 58.64 58.64 0 0 1-9.84 4 1.49 1.49 0 0 0-.37 2.7l72.43 45.74.8-1.27-.8-1.27a86.15 86.15 0 0 0-17.07 14.23c-10.6 11.45-17.43 24.84-21.85 37.49a1.5 1.5 0 0 0 .51 1.7l.9-1.2" fill="#0b1236"/>
  <path d="M467.72 260.39c1-.81 17.83 1.14 33 3.09 13.36 1.72 25.46 3.43 24.4 3.27-40.32-6.29-47-12.87-45.37-17.38.12-.33 2.74-8.44 2.84-8.76 6.07-19.64 9-34.12 25.36-41.25-19.61 5.31-23.52 20.11-31.33 40.49-.12.31-.25.63-.39 1A40.33 40.33 0 0 1 466 254.19a57.58 57.58 0 0 1-8.31 6.2h10" fill="#fff"/>
  <path d="M554.67 294c-.46-19.65 4.1-41 7.63-58.42 6.4-32-39.31-38.5-39.31-38.5h-.55 5s51.37.84 45 32.83c-3.54 17.38-13.77 44.44-13.31 64.09 0 0 .27 15.77.83 16.9l-5.39-.77Z" fill="#c2c3cc"/>
  <path d="m556.34 309 6.57 5c9.21 7.84 17 18.88 23.09 31.3.43.87 1.69 2.38 2.1 3.26 0 0-5.09 4.52-17.28 12" fill="#efefef"/>
  <path d="m555.43 310.15 6.57 5 .91-1.19-1 1.15c9 7.65 16.66 18.53 22.71 30.81a8.73 8.73 0 0 0 .55.93c.3.45.64.92.93 1.34a6.78 6.78 0 0 1 .61 1l1.36-.64-1-1.12c-.25.21-5.32 4.63-17.06 11.84a1.5 1.5 0 1 0 1.57 2.55c12.26-7.53 17.42-12.09 17.49-12.15a1.5 1.5 0 0 0 .36-1.76 6.9 6.9 0 0 0-.55-.95c-.3-.46-.64-.93-.94-1.35a10.24 10.24 0 0 1-.63-1c-6.18-12.56-14-23.76-23.46-31.78v-.05l-6.57-5a1.51 1.51 0 0 0-1.83 2.39Z" fill="#0b1236"/>
  <path d="M498 370.35a76 76 0 0 1-20-7.49c-.1-.05 11.06-32.08 32.69-47.87h18.18C506.52 330 499.16 351 498 370.35" fill="#fff"/>
  <path d="M586.19 348.23c-7.27-15.78-16.61-28.23-30.36-37.8l-.17 1.18a116.85 116.85 0 0 1 25 40.78" fill="#c2c3cc"/>
  <path d="M565.19 264.43c-.07.87-1.08 1.74-1.15 2.62-.14 1.8-.26 3.63-.37 5.49l-14.57-3.73Z" fill="#273d7d"/>
  <path d="m565.19 264.43-1.5-.11h.19-.18.19-.18v.05a8.55 8.55 0 0 1-.5.85 6.81 6.81 0 0 0-.37.72 3.44 3.44 0 0 0-.27 1c-.14 1.8-.27 3.65-.37 5.51l1.49.09.38-1.46-9.07-2.32 10.6-2.88-.39-1.45-1.5-.11 1.5.11-.41-1.43-16.1 4.38a1.5 1.5 0 0 0 0 2.9l14.6 3.72a1.52 1.52 0 0 0 1.26-.24 1.5 1.5 0 0 0 .61-1.13c.1-1.84.23-3.66.37-5.45h-.17.16-.17.16v-.05c.05-.13.25-.45.49-.85a5.31 5.31 0 0 0 .38-.72 3.1 3.1 0 0 0 .26-1 1.49 1.49 0 0 0-.54-1.27 1.54 1.54 0 0 0-1.34-.29Z" fill="#0b1236"/>
  <path d="M572.43 235.46c-.63 2.58-1.35 5.31-2.12 8.14L556 239.93Z" fill="#273d7d"/>
  <path d="m572.43 235.46-1.43-.36c-.63 2.57-1.35 5.29-2.12 8.1l1.45.4.37-1.45-8.81-2.26 11-3-.4-1.45-1.49-.34 1.45.36L572 234l-16.44 4.47a1.52 1.52 0 0 0-1.11 1.46 1.5 1.5 0 0 0 1.13 1.44l14.31 3.67a1.49 1.49 0 0 0 1.82-1.05c.78-2.84 1.5-5.58 2.14-8.18a1.49 1.49 0 0 0-.41-1.43A1.5 1.5 0 0 0 572 234Z" fill="#0b1236"/>
  <path d="M577.94 334.63c-14.87 6.59-30.89 10.45-51.29 11.84 15.22-5.68 37.36-16.22 41.79-25.13a79.82 79.82 0 0 1 9.5 13.29Z" fill="#273d7d"/>
  <path d="m577.94 334.63-.6-1.37c-14.71 6.51-30.52 10.33-50.79 11.72l.1 1.49.53 1.41a192.43 192.43 0 0 0 25.14-11.45 82 82 0 0 0 10.79-7c3-2.41 5.39-4.83 6.67-7.4l-1.34-.66-1.13 1a79.1 79.1 0 0 1 9.33 13.05l1.3-.75-.6-1.37.6 1.37 1.3-.75a82.08 82.08 0 0 0-9.68-13.54 1.5 1.5 0 0 0-1.32-.49 1.52 1.52 0 0 0-1.15.82 21.11 21.11 0 0 1-5.84 6.38 97.21 97.21 0 0 1-16.52 10c-6.3 3.13-12.94 5.92-18.6 8a1.5 1.5 0 0 0 .62 2.9c20.53-1.4 36.76-5.3 51.8-12a1.49 1.49 0 0 0 .82-.9 1.53 1.53 0 0 0-.13-1.22Z" fill="#0b1236"/>
  <path d="M523.37 263.09c-9.48.31-41-.93-56.35-3.38-3.39 3.18-6.51 1.38-11 3.81a55.87 55.87 0 0 1-9.7 4.08l51.05 33.54a18.23 18.23 0 0 1 11.63 7.67l6.89 4.52c-1.27.84-2.49 1.7-3.68 2.59a22 22 0 0 1 .64 4.4 17.2 17.2 0 0 1-.79 5.92c1-.39 1.93-.81 2.77-1.2 11.84 5.31 20.38.76 31.13-23.31 4.44-9.95 11.04-39.73-22.59-38.64Z" fill="#c2c3cc"/>
  <path d="M499 326.66h-.17l-40.29-4.74h-.17c-8.13-1.91-15.41-8.47-20.5-18.49-4.58-9-6.71-19.66-5.68-28.49 1.36-11.77 7.93-18.52 18-18.52a26.6 26.6 0 0 1 4.67.43c11.42 2.05 49.57 7.25 60.93 7.25h1.5c11.49 0 19.37 3.29 23.42 9.78 5.67 9.08 2.08 21.95-.93 28.13-8.42 17.24-15 24-23.57 24a21.1 21.1 0 0 1-7.69-1.63c-2.73 1.08-6.47 2.37-9.49 2.37Z" fill="#505254"/>
  <path d="M450.16 257.88a25.13 25.13 0 0 1 4.41.41c10.72 1.92 49.44 7.27 61.18 7.27h1.51c32.5 0 25.43 27 21.14 35.75-8 16.45-14.35 23.12-22.23 23.12a20.21 20.21 0 0 1-7.67-1.75c-2.76 1.11-6.58 2.49-9.5 2.49l-40.29-4.74c-26.15-6.13-36.79-62.55-8.51-62.54m0-3c-10.78 0-18.07 7.41-19.5 19.84-2.2 19 9.26 44.38 27.33 48.62l.34.06 40.29 4.74a1.88 1.88 0 0 0 .34 0c3.11 0 6.75-1.19 9.55-2.27a21.94 21.94 0 0 0 7.67 1.53c10.64 0 17.66-9.91 24.92-24.8 3.15-6.46 6.88-19.95.86-29.59-4.34-6.95-12.65-10.48-24.69-10.48h-1.51c-11.27 0-49.27-5.19-60.66-7.22a27.59 27.59 0 0 0-4.93-.46Z" fill="#0b1236"/>
  <path d="M499 326.66h-.17l-40.3-4.75h-.17c-8.13-1.9-15.41-8.47-20.5-18.48-4.58-9-6.7-19.66-5.68-28.48 1.36-11.77 7.93-18.52 18-18.52h.44a24.88 24.88 0 0 1 4.24.42c11.42 2 49.56 7.25 60.9 7.25h1.52c11.5 0 19.38 3.29 23.43 9.78 5.67 9.07 2.08 21.95-.94 28.13-8.41 17.24-15 24-23.56 24a21 21 0 0 1-7.69-1.64c-2.72 1.09-6.44 2.38-9.49 2.38Z" fill="#273d7d"/>
  <path d="M450.15 257.89h.41a23.26 23.26 0 0 1 4 .4c10.71 1.91 49.39 7.27 61.16 7.27h1.52c32.52 0 25.43 27 21.15 35.75-8 16.45-14.35 23.12-22.22 23.12a20.31 20.31 0 0 1-7.69-1.75c-2.75 1.11-6.57 2.49-9.49 2.49l-40.3-4.75c-26.14-6.12-36.77-62.52-8.51-62.52m0-3c-10.77 0-18.06 7.42-19.5 19.84-1 9.11 1.13 20.08 5.83 29.34 5.3 10.41 12.93 17.26 21.5 19.27l.33.05 40.3 4.75h.34c2.5 0 5.55-.72 9.55-2.27a22 22 0 0 0 7.68 1.53c10.63 0 17.64-9.91 24.91-24.8 3.15-6.46 6.88-20 .86-29.59-4.34-7-12.65-10.48-24.69-10.48h-1.53c-11.26 0-49.25-5.19-60.64-7.23a26.72 26.72 0 0 0-4.52-.44Z" fill="#090e40"/>
  <path d="m455 258.36-.42-.07a23.26 23.26 0 0 0-4-.4c-28.77-.54-18.17 56.37 8.1 62.52l8.89 1c-17.39.51-44.32-48.52-12.57-63.05Z" fill="#44609e"/>
  <path d="M516.47 265.56c20.95 5.06 15 26.95 11.22 34.69-6.79 13.91-12.35 20.82-18.67 22.63 11.58 4.53 19.07-.46 29.38-21.58 4.32-8.85 11.47-36.18-21.93-35.74Z" fill="#242f5b"/>
  <path d="M528.81 296a122.25 122.25 0 0 1-9.25 15c-3.51 4.75-7.47 8.93-11.82 11.67a1.5 1.5 0 1 0 1.6 2.54A48.67 48.67 0 0 0 522 312.86a123.13 123.13 0 0 0 9.48-15.41 1.5 1.5 0 1 0-2.64-1.41Z" fill="#0b1236"/>
  <path d="M527.14 296.18a10.15 10.15 0 0 1 3.2.36 3.32 3.32 0 0 1 1.06.6 3.11 3.11 0 0 1 .79 1.13 1.5 1.5 0 0 0 2.75-1.22 6.17 6.17 0 0 0-1.56-2.16 6.56 6.56 0 0 0-3.14-1.47 16.9 16.9 0 0 0-3.1-.24 1.5 1.5 0 0 0 0 3Z" fill="#0b1236"/>
  <path d="M459.84 290.36a3.52 3.52 0 0 1-.56 0 4.86 4.86 0 0 1-3.24-2 10.67 10.67 0 0 1-1.59-7.78c.65-4.67 3.55-8.2 6.74-8.2a5.09 5.09 0 0 1 .56 0 4.83 4.83 0 0 1 3.24 2 10.64 10.64 0 0 1 1.59 7.77c-.65 4.68-3.58 8.21-6.74 8.21Z" fill="#090e40"/>
  <path d="M461.19 273.87a2.22 2.22 0 0 1 .37 0c2.53.32 4.12 3.93 3.54 8.05-.55 3.93-2.86 6.91-5.26 6.91h-.37c-2.53-.33-4.11-3.93-3.54-8.06.55-3.93 2.86-6.91 5.26-6.91m0-3c-4 0-7.46 4-8.23 9.5a12.18 12.18 0 0 0 1.89 8.89 6.15 6.15 0 0 0 5 2.6c4 0 7.46-4 8.23-9.49a12.17 12.17 0 0 0-1.89-8.89 6.14 6.14 0 0 0-5-2.61Z" fill="#090e40"/>
  <path d="M451.28 271.79a12.28 12.28 0 0 1 3.2-3.63 9.07 9.07 0 0 1 5.47-1.93 9.6 9.6 0 0 1 3.58.73 1.5 1.5 0 0 0 1.11-2.79 12.72 12.72 0 0 0-4.69-.94 12 12 0 0 0-7.27 2.54 15.1 15.1 0 0 0-4 4.56 1.5 1.5 0 1 0 2.62 1.46Zm68.25 3.58a15.22 15.22 0 0 0-4-4.56 12.09 12.09 0 0 0-7.27-2.53 12.72 12.72 0 0 0-4.69.94 1.49 1.49 0 0 0-.84 1.94 1.51 1.51 0 0 0 2 .85 9.6 9.6 0 0 1 3.58-.73 9 9 0 0 1 5.46 1.93 12.19 12.19 0 0 1 3.21 3.63 1.5 1.5 0 1 0 2.62-1.47Z" fill="#0b1236"/>
  <path d="M506.89 295.15h-.38c-3.41-.29-5.79-4.48-5.41-9.53.36-4.85 3.12-8.52 6.41-8.52h.38c3.41.29 5.78 4.48 5.41 9.53-.37 4.85-3.12 8.52-6.41 8.52Z" fill="#090e40"/>
  <path d="M507.51 278.58h.25c2.54.22 4.35 3.77 4 7.92s-2.47 7.14-4.92 7.14h-.24c-2.55-.22-4.36-3.77-4.05-7.92s2.48-7.14 4.92-7.14m0-3c-4.09 0-7.49 4.26-7.91 9.91-.44 5.88 2.54 10.77 6.78 11.14h.5c4.09 0 7.49-4.26 7.91-9.91.44-5.88-2.54-10.77-6.77-11.13a4.36 4.36 0 0 0-.47-.01Z" fill="#090e40"/>
  <path d="M483.67 367a121.52 121.52 0 0 1 8.17-19.79" fill="#efefef"/>
  <path d="M485.1 367.48a119.53 119.53 0 0 1 8.07-19.54 1.5 1.5 0 0 0-2.66-1.4 123.52 123.52 0 0 0-8.27 20 1.5 1.5 0 1 0 2.86.9Z" fill="#0b1236"/>
  <path d="M489.56 222.73a10.21 10.21 0 0 0-3 .45c-1.85 5.18-3.48 11-5.43 17.28-.06.2-1.1 3.42-1.91 5.9a11 11 0 0 0 6.69 5 8.33 8.33 0 0 0 .84.17 9.84 9.84 0 0 0 1.43.11c5.6 0 10.81-4.87 12.23-11.7 1.61-7.83-2.25-15.45-8.62-17a8.28 8.28 0 0 0-.84-.16 8.73 8.73 0 0 0-1.44-.11" fill="#c1c3ca"/>
  <path d="M478.75 230.31a17.34 17.34 0 0 0-1.16 3.05l1.16-3.05" fill="#0b1236"/>
  <path d="M486.6 223.18a13.53 13.53 0 0 0-7.85 7.13l-1.16 3.05c-.09.35-.18.71-.25 1.07a16.41 16.41 0 0 0 1.92 11.93c.81-2.48 1.85-5.7 1.91-5.9 1.95-6.32 3.58-12.1 5.43-17.28" fill="#ced0d7"/>
  <path d="M489.56 219.73a13.57 13.57 0 0 0-1.69.11c-.44 1.09-.86 2.2-1.27 3.34a10.21 10.21 0 0 1 3-.45 8.73 8.73 0 0 1 1.44.11 8.28 8.28 0 0 1 .84.16c6.37 1.53 10.23 9.15 8.62 17-1.42 6.83-6.63 11.7-12.23 11.7a9.84 9.84 0 0 1-1.43-.11 8.33 8.33 0 0 1-.84-.17 11 11 0 0 1-6.69-5l-.93 2.86a2.91 2.91 0 0 0-.17.66 13.49 13.49 0 0 0 7.09 4.44c.37.09.74.16 1.1.22a13.11 13.11 0 0 0 1.88.14c7.1 0 13.47-5.93 15.16-14.1 1.95-9.39-2.92-18.59-10.84-20.49-.36-.09-.74-.16-1.11-.22a13.11 13.11 0 0 0-1.88-.14" fill="#c1c3ca"/>
  <path d="M479.62 224a19.12 19.12 0 0 0-5.22 9.79 20.71 20.71 0 0 0-.42 4.86c2-5.25 3.77-10.15 5.64-14.65" fill="#98bbd7"/>
  <path d="M482.12 222a17 17 0 0 0-2.5 2c-1.87 4.5-3.63 9.4-5.64 14.65a20.07 20.07 0 0 0 .34 3c.18-.36.34-.71.49-1.06s.27-.64.39-1c.83-2.18 1.62-4.29 2.39-6.34a17.34 17.34 0 0 1 1.16-3.05c1.12-2.93 2.22-5.7 3.37-8.3" fill="#0b1236"/>
  <path d="M477.59 233.36c-.77 2-1.56 4.16-2.39 6.34-.12.31-.25.63-.39 1s-.31.7-.49 1.06a17.7 17.7 0 0 0 3.84 8.17 2.91 2.91 0 0 1 .17-.66l.93-2.86a16.41 16.41 0 0 1-1.92-11.93c.07-.36.16-.72.25-1.07m10.28-13.52a14 14 0 0 0-5.75 2.17c-1.15 2.6-2.25 5.37-3.37 8.3a13.53 13.53 0 0 1 7.85-7.13c.41-1.14.83-2.25 1.27-3.34" fill="#ced0d7"/>
  <path d="M484.64 252.58a11.48 11.48 0 0 1-1.66-.12c-.32-.05-.65-.12-1-.19-7.15-1.73-11.52-10.13-9.73-18.74 1.54-7.47 7.3-12.9 13.69-12.9a10.32 10.32 0 0 1 1.66.13c.32.05.65.11 1 .19 7.15 1.72 11.51 10.12 9.73 18.73-1.54 7.48-7.33 12.9-13.69 12.9Z" fill="#fff"/>
  <path d="M486 222.13a10 10 0 0 1 1.43.11 8 8 0 0 1 .85.17c6.37 1.53 10.23 9.14 8.61 17-1.41 6.84-6.62 11.7-12.22 11.7a8.73 8.73 0 0 1-1.44-.11 8.28 8.28 0 0 1-.84-.16c-6.37-1.54-10.23-9.15-8.62-17 1.42-6.84 6.63-11.7 12.23-11.7m0-3c-7.1 0-13.48 5.93-15.16 14.1-1.95 9.39 2.92 18.59 10.84 20.49.38.09.75.17 1.11.22a13.11 13.11 0 0 0 1.88.14c7.1 0 13.47-5.93 15.16-14.09 1.94-9.4-2.92-18.59-10.85-20.5-.36-.09-.73-.16-1.1-.22a13.11 13.11 0 0 0-1.88-.15Z" fill="#0b1236"/>
  <path d="M482.24 253.26c5.14 1.24 10.46-3.34 11.89-10.24s-1.59-13.48-6.73-14.71-10.46 3.34-11.89 10.23 1.59 13.46 6.73 14.72Z" fill="#090e40"/>
  <path d="M477.93 247.16c2.63.64 5.35-1.71 6.08-5.23s-.81-6.89-3.44-7.53-5.35 1.71-6.08 5.24.82 6.89 3.44 7.52Z" fill="#fff"/>
  <path d="M535.25 227.92c-5.6 0-10.81 4.86-12.22 11.7-1.62 7.83 2.24 15.44 8.61 17 .28.06.56.12.84.16a10 10 0 0 0 1.44.11c5.6 0 10.81-4.86 12.22-11.7 1.62-7.83-2.24-15.44-8.61-17-.28-.06-.56-.12-.84-.16a10 10 0 0 0-1.44-.11" fill="#c1c3ca"/>
  <path d="M532.48 256.76c-.28 0-.56-.1-.84-.16-6.37-1.54-10.23-9.15-8.61-17 1.41-6.84 6.62-11.7 12.22-11.7a10 10 0 0 1 1.44.11c.28 0 .56.1.84.16 6.37 1.54 10.23 9.15 8.61 17-1.41 6.84-6.62 11.7-12.22 11.7a10 10 0 0 1-1.44-.11m2.77-31.84c-7.1 0-13.47 5.93-15.16 14.1-1.94 9.39 2.92 18.58 10.85 20.49.37.09.74.16 1.1.22a13.11 13.11 0 0 0 1.88.14c7.1 0 13.47-5.93 15.16-14.09 1.95-9.4-2.92-18.6-10.85-20.5-.35-.09-.72-.16-1.1-.22a13.11 13.11 0 0 0-1.88-.14" fill="#c1c3ca"/>
  <path d="M530.05 258.62a11.59 11.59 0 0 1-1.66-.12c-.32-.05-.65-.11-1-.19-7.15-1.72-11.51-10.13-9.73-18.74 1.54-7.47 7.3-12.89 13.69-12.89a11.59 11.59 0 0 1 1.66.12c.33 0 .65.11 1 .19 7.14 1.72 11.5 10.13 9.72 18.74-1.53 7.47-7.29 12.89-13.68 12.89Z" fill="#fff"/>
  <path d="M531.38 228.18a10.06 10.06 0 0 1 1.44.1c.28.05.56.1.84.17 6.37 1.53 10.23 9.15 8.61 17-1.41 6.84-6.62 11.7-12.22 11.7a10 10 0 0 1-1.44-.1c-.28 0-.56-.1-.84-.17-6.37-1.53-10.23-9.15-8.61-17 1.41-6.84 6.62-11.7 12.22-11.7m0-3c-7.1 0-13.47 5.92-15.16 14.09-2 9.39 2.92 18.59 10.85 20.5a11.18 11.18 0 0 0 1.1.21 11.81 11.81 0 0 0 1.88.14c7.1 0 13.47-5.92 15.16-14.09 1.95-9.4-2.92-18.59-10.85-20.5-.35-.08-.73-.16-1.1-.21a11.81 11.81 0 0 0-1.88-.14Z" fill="#0b1236"/>
  <path d="M527.65 259.3c5.14 1.24 10.47-3.34 11.89-10.23s-1.59-13.48-6.73-14.72-10.46 3.35-11.89 10.24 1.59 13.48 6.73 14.71Z" fill="#090e40"/>
  <path d="M516.35 212.52h-.21l-1-.14a1.52 1.52 0 0 1-1.3-1.49V145a1.52 1.52 0 0 1 .58-1.18 1.44 1.44 0 0 1 1.28-.27c9.8 2.41 19.61 8 29.16 16.73a1.49 1.49 0 0 1 .41 1.58l-4 12 9.64-7.22a1.49 1.49 0 0 1 .9-.29 1.51 1.51 0 0 1 1 .39c5.05 4.62 12.14 15.77 12.44 16.25a1.51 1.51 0 0 1-.06 1.68l-19 26.23a1.46 1.46 0 0 1-1.16.62Z" fill="#8d58c6"/>
  <path d="M515.31 145c9.81 2.42 19.3 8 28.51 16.39l-5.56 16.52 13.5-10.09c5 4.53 12.18 15.94 12.18 15.94L544.89 210l-28.54 1-1-.15V145m0-3a3 3 0 0 0-3 3v65.89a3 3 0 0 0 2.59 3l1 .15h.53L545 213a3 3 0 0 0 2.31-1.23l19.06-26.24a3 3 0 0 0 .1-3.37c-.3-.48-7.49-11.8-12.69-16.55a3 3 0 0 0-3.82-.19l-5.78 4.33 2.49-7.4a3 3 0 0 0-.83-3.17c-9.74-8.86-19.77-14.6-29.81-17.08a2.9 2.9 0 0 0-.72-.1Z" fill="#0b1236"/>
  <path d="m551.76 167.81-13.5 10.09 5.56-16.52c-9.21-8.38-18.7-14-28.51-16.39v65.89l1 .15 28.58-1.03 19.05-26.23s-7.22-11.43-12.18-15.96Z" fill="#273d7d"/>
  <path d="m551.76 167.81-.9-1.21-9.64 7.22 4-12a1.48 1.48 0 0 0-.41-1.59c-9.34-8.5-19.05-14.24-29.16-16.73a1.5 1.5 0 0 0-1.86 1.45v65.89a1.52 1.52 0 0 0 1.3 1.49l1 .14h.26l28.54-1a1.46 1.46 0 0 0 1.16-.62l19-26.23a1.49 1.49 0 0 0 .06-1.68s-1.83-2.89-4.28-6.34c-1.22-1.73-2.61-3.6-4-5.34a42.6 42.6 0 0 0-4.15-4.57 1.5 1.5 0 0 0-1.91-.1l.9 1.21-1 1.1a40.49 40.49 0 0 1 3.85 4.24c2 2.51 4 5.37 5.56 7.6.76 1.11 1.39 2.06 1.83 2.74.22.33.4.6.51.78l.18.28 1.27-.8-1.21-.88-18.56 25.65-27.68 1-.9-.12-.21 1.48h1.5V145h-1.5l-.35 1.46c9.49 2.34 18.77 7.78 27.85 16l1-1.11-1.42-.48-5.56 16.53a1.5 1.5 0 0 0 2.32 1.67l13.5-10.07-.89-1.2-1 1.1Z" fill="#090e40"/>
  <path d="M563.94 183.75s-7.22-11.41-12.18-15.94l-7.47 5.58a39 39 0 0 1 9.89 13c-5.29 8.94-10.92 17.71-16.7 24.1l7.17-.39L563 186l-.31-.47Zm-20.12-22.37c-9.21-8.38-18.7-14-28.51-16.39v4.75c9.3 2.56 18.32 8 27.08 15.9Z" fill="#242f5b"/>
  <path d="m551.76 167.81-.9-1.21-9.64 7.22 4-12a1.48 1.48 0 0 0-.41-1.59c-9.34-8.5-19.05-14.24-29.16-16.73a1.5 1.5 0 0 0-1.86 1.45v65.89a1.52 1.52 0 0 0 1.3 1.49l1 .14h.26l28.54-1a1.46 1.46 0 0 0 1.16-.62l19-26.23a1.49 1.49 0 0 0 .06-1.68s-1.83-2.89-4.28-6.34c-1.22-1.73-2.61-3.6-4-5.34a42.6 42.6 0 0 0-4.15-4.57 1.5 1.5 0 0 0-1.91-.1l.9 1.21-1 1.1a40.49 40.49 0 0 1 3.85 4.24c2 2.51 4 5.37 5.56 7.6.76 1.11 1.39 2.06 1.83 2.74.22.33.4.6.51.78l.18.28 1.27-.8-1.21-.88-18.56 25.65-27.68 1-.9-.12-.21 1.48h1.5V145h-1.5l-.35 1.46c9.49 2.34 18.77 7.78 27.85 16l1-1.11-1.42-.48-5.56 16.53a1.5 1.5 0 0 0 2.32 1.67l13.5-10.07-.89-1.2-1 1.1Z" fill="#090e40"/>
  <path d="M516.27 212.52h-.22l-17-2.58a1.48 1.48 0 0 1-1.05-.69 1.51 1.51 0 0 1-.15-1.26c6.34-19.19 2.67-39-10.93-58.89a1.54 1.54 0 0 1-.22-1.18 1.5 1.5 0 0 1 .71-1c5.17-3 11.16-4.46 18.3-4.46a63.5 63.5 0 0 1 9.85.84 1.51 1.51 0 0 1 1.19 1c6.68 19.8 12 43.29.94 67.33a1.52 1.52 0 0 1-1.37.88" fill="#273d7d"/>
  <path d="M505.66 144a61.85 61.85 0 0 1 9.62.82c7.42 22 11.23 44 1 66.22l-17-2.57c6.43-19.46 3-39.51-11.12-60.21 4.64-2.69 10.35-4.26 17.55-4.26m0-3c-7.42 0-13.65 1.53-19.05 4.67a2.92 2.92 0 0 0-1.42 1.93 3 3 0 0 0 .44 2.35c13.51 19.77 17 38.6 10.75 57.58a3 3 0 0 0 .29 2.51 3 3 0 0 0 2.11 1.4l17 2.56a3.42 3.42 0 0 0 .44 0 3 3 0 0 0 2.73-1.75c11.29-24.52 5.89-48.36-.88-68.44a3 3 0 0 0-2.37-2 64.14 64.14 0 0 0-10.09-.86" fill="#0b1236"/>
  <path d="M504.34 209.21c3.6-20.93 4.18-40.3-10.23-61.39 1.6-.93 1.6-1.74 3.48-2.39a33.84 33.84 0 0 1 5.25-1.37 35.77 35.77 0 0 0-9.72 1.88 28.66 28.66 0 0 0-5 2.29c14.14 20.7 17.55 40.75 11.12 60.21l5.11.77" fill="#44609e"/>
  <path d="m494.67 148.57-3.39-6.09c5.41-2.7 17.28-4.15 23.18-4.53a93 93 0 0 1 3.5 9.14l-23.29 1.48" fill="#273d7d"/>
  <path d="m496 147.84-3.39-6.09-1.31.73.67 1.35a25.14 25.14 0 0 1 4.79-1.69 106.87 106.87 0 0 1 17.82-2.7l-.1-1.49-1.37.59a90.3 90.3 0 0 1 3.44 9 1.5 1.5 0 1 0 2.85-.94 92.94 92.94 0 0 0-3.54-9.27 1.5 1.5 0 0 0-1.48-.9c-3 .2-7.48.66-11.93 1.42-2.22.38-4.44.83-6.46 1.37a29.46 29.46 0 0 0-5.36 1.9 1.52 1.52 0 0 0-.77.9 1.46 1.46 0 0 0 .13 1.17l3.38 6.09a1.5 1.5 0 0 0 2.63-1.46" fill="#090e40"/>
  <path fill="#0a103c" d="m491.24 142.63 3.33 5.97-3.33-5.97"/>
  <path d="M515.43 159.26a1.9 1.9 0 1 1-1.89-1.9 1.89 1.89 0 0 1 1.89 1.9Zm-28.72 35.34a1.89 1.89 0 1 1-1.89-1.89 1.89 1.89 0 0 1 1.89 1.89Zm26.72-28.38A81.52 81.52 0 0 1 514.8 181a77.53 77.53 0 0 1-2.71 20.32 1.5 1.5 0 1 0 2.89.78 80 80 0 0 0 2.82-21.1 84.7 84.7 0 0 0-1.42-15.31 1.5 1.5 0 0 0-3 .54Z" fill="#0b1236"/>
  <path d="M557.19 222.13c15.46-6.83 29.22-14.63 32-18.44 3.28-4.45 1.38-30.86-7.86-40.18s-14.26-2.07-15 9.37-23.78 43.26-23.78 43.26" fill="#efefef"/>
  <path d="M557.8 223.5a232.26 232.26 0 0 0 20.9-10.42c2.89-1.66 5.39-3.23 7.38-4.64 1-.71 1.86-1.38 2.58-2a12 12 0 0 0 1.77-1.85 6.29 6.29 0 0 0 .87-1.76 17.94 17.94 0 0 0 .7-3.48 40.3 40.3 0 0 0 .23-4.46 71.61 71.61 0 0 0-2.3-17.32 48.4 48.4 0 0 0-3-8.42 24.19 24.19 0 0 0-4.48-6.68A20.18 20.18 0 0 0 578 159a8.71 8.71 0 0 0-4.17-1.2 6.31 6.31 0 0 0-3.89 1.35 11.61 11.61 0 0 0-3.55 5.56 31.21 31.21 0 0 0-1.45 8.13 18.47 18.47 0 0 1-1.14 4.74 81.85 81.85 0 0 1-5.48 11.53c-3.49 6.27-7.71 12.83-11.06 17.81-1.68 2.5-3.13 4.6-4.17 6.07l-1.22 1.72-.43.6a1.5 1.5 0 1 0 2.43 1.76s5.8-8 11.69-17.42c2.94-4.72 5.91-9.8 8.21-14.47a63.78 63.78 0 0 0 2.86-6.6 21.1 21.1 0 0 0 1.3-5.56 24.09 24.09 0 0 1 2.05-9.14 6.73 6.73 0 0 1 1.8-2.36 3.25 3.25 0 0 1 2.05-.72 5.8 5.8 0 0 1 2.73.83 17.29 17.29 0 0 1 3.76 3 21.2 21.2 0 0 1 3.9 5.86c3.41 7.1 5 17.26 5 24.45a32.13 32.13 0 0 1-.37 5.24 11.41 11.41 0 0 1-.41 1.75 3.41 3.41 0 0 1-.43.93 10 10 0 0 1-1.33 1.37 42.64 42.64 0 0 1-4.68 3.4 198.42 198.42 0 0 1-25.42 13.19 1.5 1.5 0 1 0 1.21 2.74Z" fill="#0b1236"/>
  <path d="M581.37 163.51c-5.31-5.35-9.22-5.23-11.72-2A20.85 20.85 0 0 1 573 164c9.82 8.69 13.44 34.93 10.44 39.58-2.32 3.62-13.44 11.11-26.69 18.31l.47.26c15.46-6.83 29.22-14.63 32-18.44 3.29-4.47 1.39-30.88-7.85-40.2Z" fill="#c2c3cc"/>
  <path d="M560.54 211.91a4.11 4.11 0 0 1-1.43-.26 3.67 3.67 0 0 1-2.25-2.24 3.38 3.38 0 0 1 .34-2.9l1.22-2c6.69-10.71 15-24.05 15.65-33.31a1.49 1.49 0 0 1 .93-1.2 1.37 1.37 0 0 1 .59-.13 1.47 1.47 0 0 1 .95.35c6.92 5.7 8.39 24.29 7 28.81a1.68 1.68 0 0 1-.36.62c-2 2-10 6.86-20.94 11.91a4 4 0 0 1-1.7.35Z" fill="#273d7d"/>
  <path d="M575.57 171.34c6.21 5.13 7.82 23 6.54 27.23-1.49 1.53-8.52 6.09-20.48 11.6a2.58 2.58 0 0 1-1.09.24 2.81 2.81 0 0 1-.91-.16 2 2 0 0 1-1.16-2.95c7.15-11.47 16.41-25.76 17.1-36m0-3a3 3 0 0 0-3 2.8c-.61 8.88-8.83 22-15.43 32.61l-1.22 2a4.84 4.84 0 0 0-.49 4.17 5.21 5.21 0 0 0 3.15 3.17 5.62 5.62 0 0 0 4.29-.16c11.26-5.19 19.28-10.08 21.38-12.24a3 3 0 0 0 .72-1.23c1.6-5.31-.22-24.4-7.5-30.4a3 3 0 0 0-1.9-.68Z" fill="#090e40"/>
  <path d="M575.57 171.34a27.78 27.78 0 0 1-1.21 6.09 53.89 53.89 0 0 1 1.95 11.25 13.59 13.59 0 0 1-4.37 10.91c-3.83 3.52-9.34 8.44-12.31 10.66-.55.41 1.38.21 2-.08 12-5.51 19-10.07 20.48-11.6 1.28-4.25-.33-22.1-6.54-27.23Z" fill="#242f5b"/>
  <path d="M573.9 259.09a151 151 0 0 0-4.65 22.32 1.5 1.5 0 1 0 3 .37 149.78 149.78 0 0 1 4.55-21.87 1.5 1.5 0 0 0-2.88-.82Zm2.32-62.03a1.9 1.9 0 1 1-1.89-1.89 1.9 1.9 0 0 1 1.89 1.89Zm-79.3 145.63a1.9 1.9 0 1 1-1.92-1.89 1.89 1.89 0 0 1 1.92 1.89Z" fill="#0b1236"/>
  <path d="M523.49 253.71c2.63.63 5.35-1.71 6.08-5.24s-.81-6.89-3.44-7.52-5.35 1.71-6.08 5.23.81 6.89 3.44 7.53Z" fill="#fff"/>
  <path d="M579 253.44a2 2 0 1 1-2-2 2 2 0 0 1 2 2Zm-21.2-29.94a232.26 232.26 0 0 0 20.9-10.42c2.89-1.66 5.39-3.23 7.38-4.64 1-.71 1.86-1.38 2.58-2a12 12 0 0 0 1.77-1.85 6.29 6.29 0 0 0 .87-1.76 17.94 17.94 0 0 0 .7-3.48 40.3 40.3 0 0 0 .23-4.46 71.61 71.61 0 0 0-2.3-17.32 48.4 48.4 0 0 0-3-8.42 24.19 24.19 0 0 0-4.48-6.68A20.18 20.18 0 0 0 578 159a8.71 8.71 0 0 0-4.17-1.2 6.31 6.31 0 0 0-3.89 1.35 11.61 11.61 0 0 0-3.55 5.56 31.21 31.21 0 0 0-1.45 8.13 18.47 18.47 0 0 1-1.14 4.74 81.85 81.85 0 0 1-5.48 11.53c-3.49 6.27-7.71 12.83-11.06 17.81-1.68 2.5-3.13 4.6-4.17 6.07l-1.22 1.72-.43.6a1.5 1.5 0 1 0 2.43 1.76s5.8-8 11.69-17.42c2.94-4.72 5.91-9.8 8.21-14.47a63.78 63.78 0 0 0 2.86-6.6 21.1 21.1 0 0 0 1.3-5.56 24.09 24.09 0 0 1 2.05-9.14 6.73 6.73 0 0 1 1.8-2.36 3.25 3.25 0 0 1 2.05-.72 5.8 5.8 0 0 1 2.73.83 17.29 17.29 0 0 1 3.76 3 21.2 21.2 0 0 1 3.9 5.86c3.41 7.1 5 17.26 5 24.45a32.13 32.13 0 0 1-.37 5.24 11.41 11.41 0 0 1-.41 1.75 3.41 3.41 0 0 1-.43.93 10 10 0 0 1-1.33 1.37 42.64 42.64 0 0 1-4.68 3.4 198.42 198.42 0 0 1-25.42 13.19 1.5 1.5 0 1 0 1.21 2.74Z" fill="#0b1236"/>
  <path d="M587.94 348.77c-13 4.88-21.34 7.34-36.43 6.29-3.32-.24-6.77-.53-10.43-1 3.65-.47 7.11-1 10.39-1.5 12.26-2 24.64-8.54 31.55-12.53 1.5 3.05 3.63 5.57 4.92 8.74Z" fill="#273d7d"/>
  <path d="m587.94 348.77-.52-1.4a123.51 123.51 0 0 1-14.71 4.75A62 62 0 0 1 558 353.8c-2 0-4.12-.08-6.4-.24-3.31-.23-6.74-.53-10.36-1l-.18 1.49.19 1.49q5.49-.7 10.44-1.51c12.6-2.06 25.09-8.69 32.06-12.71l-.75-1.3-1.34.66a50.2 50.2 0 0 0 2.61 4.45 27 27 0 0 1 2.26 4.18l1.39-.57-.52-1.4.52 1.4 1.39-.56a29.61 29.61 0 0 0-2.5-4.65 46.76 46.76 0 0 1-2.46-4.17 1.47 1.47 0 0 0-.91-.78 1.51 1.51 0 0 0-1.19.14c-6.84 4-19.13 10.42-31 12.35-3.26.53-6.71 1-10.35 1.49a1.5 1.5 0 0 0 0 3c3.69.45 7.17.75 10.51 1 2.34.17 4.53.25 6.61.25A64.7 64.7 0 0 0 573.4 355a126.28 126.28 0 0 0 15.07-4.86 1.52 1.52 0 0 0 .85-.8 1.49 1.49 0 0 0 0-1.17Z" fill="#0b1236"/>
</svg>
