<svg data-name="Layer 1" xmlns="http://www.w3.org/2000/svg" viewBox="0 0 800 800">
  <defs>
    <clipPath id="a">
      <path d="m546.58 448.66-5 2.85-14.43 1.33h-.22a2 2 0 0 1-1.29-.45 1.93 1.93 0 0 1-.45-2.23l-1.61.14a3.11 3.11 0 0 0-.07.67 3.4 3.4 0 0 0 1.13 2.53 3.44 3.44 0 0 0 2.26.82h.36l14.41-1.32a1.67 1.67 0 0 0 .61-.19l6.32-3.58a1.51 1.51 0 0 1-.72.18 1.74 1.74 0 0 1-.39-.05 1.58 1.58 0 0 1-.91-.71" fill="none"/>
    </clipPath>
  </defs>
  <path d="M165.43 593.1h-63.49a5.87 5.87 0 0 0-.82 2.94c0 21.94 134.91 39.71 301.33 39.71 165.73 0 300.21-17.63 301.33-39.43h-96.43c-.49.07-1 .11-1.48.14a15 15 0 0 1-12.3 6.44 13.47 13.47 0 0 1-1.56-.08 514.66 514.66 0 0 0-53-2.77 490.14 490.14 0 0 0-112.3 13 2.71 2.71 0 0 1-.69.08 3 3 0 0 1-1.86-.64 3.23 3.23 0 0 1-.57-.6 3 3 0 0 1-2.44 1.24 2.71 2.71 0 0 1-.69-.08 490 490 0 0 0-112.3-13c-3.27 0-6.56 0-9.86.1a32.8 32.8 0 0 1-8.58 4 132.89 132.89 0 0 1-38.06 5.85c-16.92 0-33.75-3.84-47.56-13.68h-6.79a5.9 5.9 0 0 1 .5.62 3.62 3.62 0 0 1 .66 2v.37l-.32 7.85a4.3 4.3 0 0 1-.61 2.17 6.76 6.76 0 0 1-1.5 1.72 16 16 0 0 1-4.75 2.56 47.18 47.18 0 0 1-14.71 2.46h-1.45a51.82 51.82 0 0 1-9.75-.87 24.9 24.9 0 0 1-7.22-2.42 7.62 7.62 0 0 1-2.92-2.62 4.26 4.26 0 0 1-.63-2.07h1.5-1.5V608l.33-8.13a3.61 3.61 0 0 1 .66-2.06 6.4 6.4 0 0 1 1.46-1.48h-52.7a1.5 1.5 0 0 1 0-3h60.07l1-.23m34.79 0h-9.93l.91.23h9.26l-.24-.23m502.74 0h-87.64l-.32.23h88.09l-.13-.23" fill="#d4d8e5"/>
  <path d="M104.34 596.33h599.2a1.5 1.5 0 0 0 0-3h-599.2a1.5 1.5 0 0 0 0 3" fill="#0b1236"/>
  <path d="M622.45 544.38a50.08 50.08 0 0 1-10.45 5.81c-1.07.63-2.16 1.24-3.28 1.8v35.47a15.74 15.74 0 0 1-1.05 5.64h7.65a17.52 17.52 0 0 0 7.13-14.17v-34.55m0-136.4-13.73 7.64v39.24a51 51 0 0 1 13.73 7V408M558 308c-24.54 0-51.35 5.22-75.48 14.69A65.49 65.49 0 0 0 464.33 334c5.44-2.43 11.22-4.69 17.26-6.74a205.64 205.64 0 0 1 65-11.11v1.5-1.5a153.63 153.63 0 0 1 22.15 1.55 3 3 0 0 1 2.56 3v5.08c2.4.07 4.76.19 7.06.38a3 3 0 0 1 2.76 3v6.37c2.29.2 4.6.43 6.89.69a3 3 0 0 1 2.66 3l.25 31.86 3 .06a15.39 15.39 0 0 1 14.85 15.46v1.74l13.73-7.67v-.7a17.57 17.57 0 0 0-17.06-17.56h-.76l-.29-29.41a5.23 5.23 0 0 0-4.66-5.14c-1.61-.18-3.25-.33-4.89-.49v-4.28a5.24 5.24 0 0 0-4.85-5.18c-1.62-.13-3.29-.21-5-.29v-2.92a5.25 5.25 0 0 0-4.51-5.17A158.41 158.41 0 0 0 558 308" fill="#d4d8e5"/>
  <path d="M607.35 596.33H606l-.09.14c.49 0 1-.07 1.48-.14m8-3.23h-7.65l-.09.23H615l.32-.23" fill="#b1b9d0"/>
  <path d="M615 593.33h-7.42a15.47 15.47 0 0 1-1.62 3h1.39a17.06 17.06 0 0 0 7.65-3" fill="#111b44"/>
  <path d="M421.18 611.68a2 2 0 0 1-.34 0 490.91 490.91 0 0 0-112.65-13.09 517.39 517.39 0 0 0-53.11 2.78 13.53 13.53 0 0 1-11-4 14 14 0 0 1-4-9.89V386.55a13.88 13.88 0 0 1 13.37-14l167.79-3.28a1.47 1.47 0 0 1 1.05.43 1.49 1.49 0 0 1 .45 1.07v239.41a1.5 1.5 0 0 1-.57 1.18 1.48 1.48 0 0 1-.93.32" fill="#8c58c4"/>
  <path d="M421.18 370.81v239.37a490.55 490.55 0 0 0-113-13.12 516.39 516.39 0 0 0-53.27 2.79c-.42 0-.84.06-1.25.06a12.31 12.31 0 0 1-12.15-12.45V386.55a12.31 12.31 0 0 1 11.9-12.46l167.76-3.28m0-3h-.06l-167.75 3.28a15.39 15.39 0 0 0-14.85 15.46v200.91a15.32 15.32 0 0 0 15.15 15.45 13.58 13.58 0 0 0 1.56-.08 514.62 514.62 0 0 1 53-2.77 490 490 0 0 1 112.3 13 2.71 2.71 0 0 0 .69.08 3 3 0 0 0 3-3V370.81a3 3 0 0 0-3-3m0 6" fill="#0b1236"/>
  <path d="M265 587.46V386.55a12.31 12.31 0 0 1 11.9-12.46l144.32-2.82v-.46l-167.76 3.28a12.31 12.31 0 0 0-11.9 12.46v200.91a12.28 12.28 0 0 0 13.4 12.39c5.49-.57 11-1 16.46-1.43a12.45 12.45 0 0 1-6.42-11" fill="#c58fff"/>
  <path d="M426.05 611.68a1.52 1.52 0 0 1-.93-.32 1.5 1.5 0 0 1-.57-1.18V370.81a1.5 1.5 0 0 1 1.5-1.5l167.79 3.28a13.87 13.87 0 0 1 13.37 14v200.87a13.82 13.82 0 0 1-13.65 13.95 13.26 13.26 0 0 1-1.4-.07 517.59 517.59 0 0 0-53.16-2.78 490.76 490.76 0 0 0-112.6 13.09 2.07 2.07 0 0 1-.35 0" fill="#674899"/>
  <path d="m426.05 370.81 167.76 3.28a12.32 12.32 0 0 1 11.91 12.46v200.91a12.31 12.31 0 0 1-12.15 12.45q-.63 0-1.26-.06a516.1 516.1 0 0 0-53.31-2.79 490.61 490.61 0 0 0-113 13.12V370.81m0-3a3 3 0 0 0-3 3v239.37a3 3 0 0 0 3 3 2.71 2.71 0 0 0 .69-.08 490.14 490.14 0 0 1 112.3-13 514.66 514.66 0 0 1 53 2.77 13.47 13.47 0 0 0 1.56.08 15.32 15.32 0 0 0 15.15-15.45V386.55a15.39 15.39 0 0 0-14.85-15.46l-167.76-3.28h-.06" fill="#0b1236"/>
  <path d="M605.72 386.55a12.32 12.32 0 0 0-11.91-12.46l-167.76-3.28v.42l146.22 2.86a12.31 12.31 0 0 1 11.9 12.46v200.91a12.46 12.46 0 0 1-6.65 11.09c4.93.37 9.86.79 14.79 1.3a12.28 12.28 0 0 0 13.41-12.39V386.55" fill="#5b4087"/>
  <path d="M421.73 592.43a1.62 1.62 0 0 1-.44-.07c-37.72-11.62-83.7-14.06-115.63-14.06-27.4 0-47.06 1.78-47.25 1.8h-.14a1.51 1.51 0 0 1-1-.4 1.49 1.49 0 0 1-.49-1.12l1.86-214.29a1.5 1.5 0 0 1 1.35-1.48c12.7-1.24 26.11-1.87 39.86-1.87 65.54 0 121 14.3 121.51 14.44a1.52 1.52 0 0 1 1.12 1.45l.76 214.08a1.48 1.48 0 0 1-.61 1.21 1.45 1.45 0 0 1-.89.3" fill="#fff"/>
  <path d="M299.84 362.45C366 362.45 421 376.84 421 376.84l.76 214.09c-37.37-11.52-82.65-14.13-116.07-14.13-27.79 0-47.39 1.8-47.39 1.8l1.86-214.29c13.44-1.31 26.79-1.86 39.71-1.86m0-3c-13.8 0-27.26.63-40 1.88a3 3 0 0 0-2.71 3l-1.86 214.29a3 3 0 0 0 3 3h.28c.19 0 19.79-1.79 47.11-1.79 31.83 0 77.65 2.42 115.19 14a2.94 2.94 0 0 0 .88.14 3.07 3.07 0 0 0 1.79-.59 3 3 0 0 0 1.21-2.42L424 376.83a3 3 0 0 0-2.24-2.89c-.56-.14-56.16-14.49-121.89-14.49" fill="#0b1236"/>
  <path d="M421.73 592.43a1.5 1.5 0 0 1-.55-.11c-43.34-17.12-83.81-24.11-139.71-24.11-4.08 0-8.37 0-12.74.11a1.5 1.5 0 0 1-1.5-1.51l1-211a1.49 1.49 0 0 1 1.4-1.49c8.28-.55 17-.84 25.88-.84 50.55 0 97.17 9 114.86 12.83a1.5 1.5 0 0 1 1.18 1.39l11.71 223.12a1.51 1.51 0 0 1-1.5 1.58" fill="#fff"/>
  <path d="M295.48 355c50 0 96.15 8.79 114.55 12.8l11.7 223.12c-46.36-18.32-87.78-24.22-140.26-24.22q-6.27 0-12.77.11l1-211c8.62-.58 17.26-.84 25.78-.84m0-3c-8.92 0-17.66.29-26 .84a3 3 0 0 0-2.8 3l-1 211a3 3 0 0 0 3 3h.05c4.36-.07 8.64-.11 12.72-.11 55.69 0 96 7 139.16 24a3 3 0 0 0 1.1.21 3 3 0 0 0 3-3.16L413 367.65a3 3 0 0 0-2.36-2.77C392.92 361 346.18 352 295.48 352" fill="#0b1236"/>
  <path d="M421.73 592.42a1.51 1.51 0 0 1-1-.4l-.24-.22c-.2-.2-.4-.39-.61-.57a65.48 65.48 0 0 0-9-6.91c-33.42-21.5-93.62-24.66-117.95-25h-5.62c-4.63 0-7.35.1-7.38.1h-.05a1.49 1.49 0 0 1-1-.42 1.47 1.47 0 0 1-.46-1.08L278 348.71a1.51 1.51 0 0 1 1.35-1.5c4-.41 8.33-.76 13.15-1 6.31-.38 12.77-.57 19.19-.57a353.72 353.72 0 0 1 100.35 14.67c5.52 1.67 8.7 2.85 9.29 3.07l.25.08a1.5 1.5 0 0 1 1 1.42l.59 226.09a1.48 1.48 0 0 1-.9 1.38 1.53 1.53 0 0 1-.6.12" fill="#fff"/>
  <path d="M311.71 347.09a353.83 353.83 0 0 1 99.91 14.6c5 1.53 8.22 2.67 9.2 3l.32.1.59 226.09c-.3-.28-.59-.58-.91-.84a66.16 66.16 0 0 0-9.2-7c-33.38-21.48-92.56-24.87-118.73-25.26h-5.65c-4.71 0-7.42.1-7.42.1l-.3-209.15c4.4-.46 8.78-.79 13.09-1.06 6.5-.38 12.88-.56 19.1-.56m0-3c-6.47 0-13 .19-19.29.57-4.83.29-9.16.64-13.22 1.06a3 3 0 0 0-2.69 3l.3 209.15a3 3 0 0 0 3 3h.1s2.73-.1 7.32-.1h5.61c24.2.36 84.06 3.49 117.15 24.78a64.31 64.31 0 0 1 8.79 6.71l.11.09.54.5.24.23a3 3 0 0 0 2.05.81 3.13 3.13 0 0 0 1.2-.24 3 3 0 0 0 1.8-2.76l-.59-226.09a3 3 0 0 0-2.05-2.84l-.27-.09c-.71-.27-3.92-1.44-9.33-3.08a355.29 355.29 0 0 0-100.77-14.73" fill="#0b1236"/>
  <path d="M292.89 557.8c-8.12-.12-13.07.06-13.07.06l-.3-209.15c4.4-.46 8.78-.79 13.09-1.06l.28 210.15" fill="#fff"/>
  <path d="M300.18 427.82a229.51 229.51 0 0 1 26.54-1.51 251.57 251.57 0 0 1 68.68 9.59 1.5 1.5 0 1 0 .83-2.88 254.59 254.59 0 0 0-69.51-9.71 233.29 233.29 0 0 0-26.88 1.53 1.5 1.5 0 0 0 .34 3Zm.69-18.69a229.52 229.52 0 0 1 26.54-1.5 251.61 251.61 0 0 1 68.68 9.58 1.5 1.5 0 1 0 .83-2.88 254.2 254.2 0 0 0-69.51-9.7 233.6 233.6 0 0 0-26.89 1.52 1.5 1.5 0 0 0 .35 3Zm.69-19.97a229.47 229.47 0 0 1 26.53-1.51 251.25 251.25 0 0 1 68.69 9.59 1.5 1.5 0 1 0 .83-2.89 254.6 254.6 0 0 0-69.52-9.7 233.42 233.42 0 0 0-26.88 1.53 1.5 1.5 0 0 0 .35 3Zm-.44-17.68a229.51 229.51 0 0 1 26.54-1.48 253.15 253.15 0 0 1 41.07 3.39 1.51 1.51 0 0 0 1.73-1.24 1.5 1.5 0 0 0-1.24-1.72 255.91 255.91 0 0 0-41.56-3.43 231.24 231.24 0 0 0-26.89 1.53 1.5 1.5 0 0 0 .35 3m-.75 76.66a229.64 229.64 0 0 1 26.54-1.51 251.31 251.31 0 0 1 68.69 9.59 1.5 1.5 0 0 0 .83-2.89 254.65 254.65 0 0 0-69.52-9.7 231.19 231.19 0 0 0-26.91 1.53 1.49 1.49 0 0 0-1.32 1.66 1.51 1.51 0 0 0 1.69 1.32Zm0 19.55a189.17 189.17 0 0 1 21.94-1.23c24.46 0 49.75 4.29 73.1 11a1.5 1.5 0 1 0 .83-2.88c-23.57-6.78-49.12-11.12-73.93-11.12a193.07 193.07 0 0 0-22.31 1.25 1.49 1.49 0 0 0-1.32 1.66 1.51 1.51 0 0 0 1.69 1.32Zm0 21.34a178.21 178.21 0 0 1 20.63-1.16c24.86 0 50.63 4.67 74.4 11.51a1.5 1.5 0 1 0 .83-2.88c-24-6.9-50-11.63-75.23-11.63a179.78 179.78 0 0 0-21 1.18 1.49 1.49 0 0 0-1.32 1.66 1.51 1.51 0 0 0 1.69 1.32Zm121.35-124.35L421.8 591c-3-2.54-6.49-5.81-10.18-8V361.69c5.54 1.53 9.02 2.67 10.1 3.04ZM300.37 510.86a194.77 194.77 0 0 1 22.53-1.28 225.41 225.41 0 0 1 72.44 12.21 1.5 1.5 0 0 0 1-2.83 228.27 228.27 0 0 0-73.41-12.38 196.2 196.2 0 0 0-22.87 1.3 1.49 1.49 0 0 0-1.32 1.66 1.51 1.51 0 0 0 1.63 1.32Zm0 21.71a174.32 174.32 0 0 1 20.18-1.15 210.4 210.4 0 0 1 75.07 14.33 1.5 1.5 0 1 0 1.09-2.79 213.2 213.2 0 0 0-76.16-14.54 175.89 175.89 0 0 0-20.55 1.17 1.49 1.49 0 0 0-1.32 1.66 1.51 1.51 0 0 0 1.69 1.32Z" fill="#ccc"/>
  <path fill="#fff" d="m411.78 518.23-.33 41.53"/>
  <path d="m410.28 518.22-.28 41.53a1.5 1.5 0 0 0 3 0l.33-41.52a1.5 1.5 0 1 0-3 0" fill="#0b1236"/>
  <path d="M426.05 591.49a1.5 1.5 0 0 1-1.5-1.5l.6-225.3a1.49 1.49 0 0 1 1-1.41c.5-.23 3.42-1.51 8.55-3.46 7.7-2.92 15.83-5.67 24.17-8.18l.16-.05c23.61-7.09 60-15.53 99.32-15.53 3.33 0 6.68.06 9.94.18s6.46.29 10 .56c3.17.23 6.39.54 9.58.9a1.51 1.51 0 0 1 1.33 1.48l1.8 236.2a1.51 1.51 0 0 1-1.5 1.51h-.17c-.19 0-19.82-2.13-47.17-2.13-28.68 0-70.43 2.36-106.49 13.59-3 .92-6.08 1.95-9.12 3.06a1.58 1.58 0 0 1-.52.09" fill="#fff"/>
  <path d="M558.37 337.56c3.27 0 6.56.05 9.88.18s6.56.29 9.88.56c3.16.23 6.33.52 9.53.89l1.86 236.2s-19.57-2.14-47.34-2.14c-30.73 0-71.5 2.62-106.93 13.65-3.11 1-6.18 2-9.2 3.09l.6-225.3h.05c.39-.18 3.39-1.49 8.55-3.46 5.65-2.14 13.86-5.07 24.06-8.14l.16-.06c24.48-7.34 60.25-15.46 98.9-15.46m0-3c-39.51 0-76.06 8.48-99.77 15.59h-.2c-8.36 2.52-16.51 5.28-24.22 8.19-4.56 1.74-7.64 3.06-8.58 3.47a3 3 0 0 0-2 2.81l-.6 225.3a3 3 0 0 0 1.28 2.46 3 3 0 0 0 1.72.54 3 3 0 0 0 1-.18c3-1.11 6.06-2.13 9-3 35.9-11.18 77.49-13.52 106.06-13.52 27.26 0 46.82 2.1 47 2.12a1.83 1.83 0 0 0 .33 0 3 3 0 0 0 2-.77 3 3 0 0 0 1-2.25l-1.86-236.2a3 3 0 0 0-2.66-3c-3.22-.37-6.47-.67-9.66-.9-3.5-.28-6.78-.47-10-.57s-6.63-.18-10-.18" fill="#0b1236"/>
  <path d="M589.52 575.39s-86.81-9.49-154.27 11.51c-3.11 1-6.18 2-9.2 3.09l.6-225.3h.05c.39-.18 3.39-1.49 8.55-3.46 5.65-2.14 13.86-5.07 24.06-8.14l.16-.06c26.55-8 66.39-16.85 108.78-15.28 3.28.1 6.56.29 9.88.56 3.16.23 6.33.52 9.53.89l1.86 236.2" fill="gray"/>
  <path d="M426.05 591.49a1.44 1.44 0 0 1-.8-.24 1.48 1.48 0 0 1-.7-1.27l.59-225.3a1.51 1.51 0 0 1 1.13-1.45c5-1.28 12.58-4.13 22.24-7.75 28.24-10.56 75.51-28.25 118.23-28.25 3.92 0 7.77.15 11.46.44a1.49 1.49 0 0 1 1.38 1.49l1 232.28a1.52 1.52 0 0 1-.44 1.07 1.51 1.51 0 0 1-1.06.43c-4.37-.08-8.65-.13-12.74-.13-55.86 0-96.31 8.27-139.62 28.54a1.57 1.57 0 0 1-.64.14" fill="#fff"/>
  <path d="M566.74 328.73c3.82 0 7.61.14 11.34.44l1 232.27q-6.5-.12-12.77-.13c-52.48 0-93.9 7-140.26 28.68l.59-225.3c20.17-5.21 83.53-36 140.1-36m0-3c-43 0-90.42 17.75-118.75 28.35-9.62 3.6-17.22 6.44-22.1 7.7a3 3 0 0 0-2.25 2.9L423.05 590a3 3 0 0 0 4.28 2.73c43.09-20.17 83.36-28.4 139-28.4 4.08 0 8.36.05 12.71.13h.06a3 3 0 0 0 3-3l-1-232.28a3 3 0 0 0-2.76-3c-3.73-.3-7.62-.45-11.58-.45" fill="#0b1236"/>
  <path d="M578.08 329.17c-59.17-4.71-129.91 30-151.44 35.52L426.05 590c50.06-23.42 94.36-29.7 153-28.55l-1-232.27" fill="#b3b3b3"/>
  <path d="M426.05 591.49a1.39 1.39 0 0 1-.53-.1 1.49 1.49 0 0 1-1-1.4l.6-225.3a1.55 1.55 0 0 1 .25-.83 50.3 50.3 0 0 1 8.86-9.75C455 336 500.17 317.69 546.55 317.69a152.1 152.1 0 0 1 21.93 1.54 1.5 1.5 0 0 1 1.28 1.48l-.29 230.11a1.51 1.51 0 0 1-.47 1.08 1.49 1.49 0 0 1-1 .42h-.06s-2.66-.1-7.13-.1c-20.17 0-88.74 2.19-124.61 30.35a68.32 68.32 0 0 0-9 8.42 1.52 1.52 0 0 1-1.12.5" fill="#f2f2f2"/>
  <path d="M546.55 319.19a150 150 0 0 1 21.71 1.52L568 550.82s-2.63-.1-7.2-.1c-22.07 0-89.54 2.42-125.52 30.67a70.38 70.38 0 0 0-9.2 8.6l.6-225.3a49.19 49.19 0 0 1 8.6-9.46c21.55-18.85 67.48-36 111.3-36m0-3a205.64 205.64 0 0 0-65 11.11c-19.95 6.76-37.11 15.87-48.32 25.68a52.11 52.11 0 0 0-9.12 10 3 3 0 0 0-.5 1.66l-.6 225.3a3 3 0 0 0 1.96 2.82 3.06 3.06 0 0 0 1.07.19 3 3 0 0 0 2.24-1 67.08 67.08 0 0 1 8.8-8.22c15.05-11.82 37.46-20.34 66.64-25.35a351.65 351.65 0 0 1 57-4.69c4.44 0 7.05.1 7.08.1h.17a3 3 0 0 0 2-.83 3 3 0 0 0 .93-2.16l.29-230.1a3 3 0 0 0-2.56-3 153.63 153.63 0 0 0-22.15-1.55" fill="#0b1236"/>
  <path d="M523.16 540.06C505 542 484 545.64 465 552.65a1.5 1.5 0 0 0-.89 1.93 1.52 1.52 0 0 0 1.93.89c18.65-6.89 39.51-10.53 57.46-12.42a1.5 1.5 0 1 0-.31-3Z" fill="#0b1236"/>
  <path d="m549.65 370.89-.1-1.49c-16.2 1-35 5.13-53.12 11.24s-35.5 14.24-48.81 23.42l.85 1.24h1.5l-.35-33.75h-1.5l.79 1.28c28.85-17.89 65.57-29.23 100.67-32.26l-.13-1.5H548l.2 31.83h1.5l-.1-1.49.1 1.49h1.5l-.2-31.83a1.48 1.48 0 0 0-.49-1.09 1.46 1.46 0 0 0-1.14-.39c-35.56 3.08-72.65 14.52-102 32.7a1.47 1.47 0 0 0-.71 1.29l.35 33.76a1.5 1.5 0 0 0 2.35 1.21c13-9 30.17-17 48.07-23s36.51-10.07 52.36-11.09a1.49 1.49 0 0 0 1.4-1.51Zm-100.74 56.47c28.93-17.93 65.67-32.75 100.67-35.77A1.49 1.49 0 0 0 551 390a1.51 1.51 0 0 0-1.63-1.37c-35.66 3.09-72.73 18.08-102 36.21a1.5 1.5 0 1 0 1.58 2.55Zm.65 21.01c28.93-17.93 65.67-32.75 100.67-35.76a1.5 1.5 0 1 0-.26-3c-35.65 3.09-72.72 18.07-102 36.2a1.5 1.5 0 1 0 1.58 2.55Zm-1.36 24.33c28.92-17.93 65.66-32.75 100.67-35.77a1.5 1.5 0 1 0-.26-3C513 437 475.88 452 446.62 470.15a1.5 1.5 0 1 0 1.58 2.55m.71 23.49c28.93-17.94 65.67-32.75 100.67-35.77a1.5 1.5 0 1 0-.26-3c-35.66 3.09-72.73 18.07-102 36.21a1.49 1.49 0 0 0-.49 2.06 1.52 1.52 0 0 0 2.08.5Zm0 22.06c28.93-17.94 65.67-32.75 100.67-35.77a1.5 1.5 0 1 0-.26-3c-35.66 3.09-72.73 18.07-102 36.21a1.49 1.49 0 0 0-.49 2.06 1.51 1.51 0 0 0 2.07.49" fill="#ccc"/>
  <g clip-path="url(#a)">
    <path fill="#c4c5cc" d="M523.47 448.66h25.13v5.67h-25.13z"/>
  </g>
  <path d="m544.62 445.21-6.35 3.59a1.67 1.67 0 0 1-.61.19l-10.57 1-.49.67a.58.58 0 0 0-.12.31.47.47 0 0 0 .12.29.58.58 0 0 0 .28.08h.23l14-1.28 4.76-2.7-1.22-2.14" fill="#c4c5cc"/>
  <path d="m545.84 447.35-4.76 2.7-14 1.28h-.23a.58.58 0 0 1-.28-.08.47.47 0 0 1-.12-.29.58.58 0 0 1 .12-.31l.49-.67-1.94.18a1.93 1.93 0 0 0 .45 2.23 2 2 0 0 0 1.29.45h.22l14.43-1.33 5-2.85-.74-1.31" fill="#c4c5cc"/>
  <path d="m638.13 397.54-6.76 3.76a1.5 1.5 0 0 1-.75 1.14 1.55 1.55 0 0 1-.74.2 1.58 1.58 0 0 1-.64-.15l-6.79 3.77V408l17.71-9.85a1.54 1.54 0 0 1-.72.18 1.37 1.37 0 0 1-.4-.05 1.51 1.51 0 0 1-.91-.71" fill="#ced0d7"/>
  <path fill="#acb0c2" d="m622.45 406.26-13.73 7.65v1.72l13.73-7.65v-1.72"/>
  <path fill="#0b1236" d="m608.72 413.91-3 1.67v1.71l3-1.66v-1.72"/>
  <path fill="#4b3777" d="m605.72 415.58-14.4 8 .02 1.72 14.38-8.01v-1.71"/>
  <path fill="#0b1236" d="m591.32 423.58-2.98 1.67.01 1.71 2.99-1.66-.02-1.72"/>
  <path fill="#696a71" d="m588.34 425.25-6.83 3.79.01 1.72 6.83-3.8-.01-1.71"/>
  <path fill="#0b1236" d="m581.51 429.04-2.99 1.67.01 1.71 2.99-1.66-.01-1.72"/>
  <path fill="#91939a" d="m578.52 430.71-7.4 4.12-.01 1.72 7.42-4.13-.01-1.71"/>
  <path d="m568.11 436.5-6.11 3.41-14.1 8-2-3.45-1.31.74 1.22 2.14.74 1.31a1.58 1.58 0 0 0 .91.71 1.74 1.74 0 0 0 .39.05 1.51 1.51 0 0 0 .72-.18l14.1-8 5.39-3v-1.73" fill="#c4c5cc"/>
  <path fill="#0b1236" d="m571.12 434.83-3.01 1.67v1.72l3-1.67.01-1.72"/>
  <path d="m636.18 394.1-6.48 3.61 1.2 2.14 6.51-3.62-1.21-2.14" fill="#ced0d7"/>
  <path d="m636.18 394.1 1.21 2.14-6.51 3.62.31.54a1.44 1.44 0 0 1 .18.9l6.76-3.76-2-3.44m-9.07 5.08-4.61 2.56v2.81l5.81-3.24-1.2-2.13" fill="#ced0d7"/>
  <path fill="#acb0c2" d="m622.45 401.74-13.73 7.64v2.81l13.73-7.64v-2.81"/>
  <path fill="#0b1236" d="m608.72 409.38-3 1.67v2.81l3-1.67v-2.81"/>
  <path fill="#4b3777" d="m605.72 411.05-14.43 8.03.02 2.8 14.41-8.02v-2.81"/>
  <path fill="#0b1236" d="m591.29 419.08-2.99 1.66.02 2.8 2.99-1.66-.02-2.8"/>
  <path fill="#696a71" d="m588.3 420.74-6.81 3.79.02 2.8 6.81-3.79-.02-2.8"/>
  <path fill="#0b1236" d="m581.49 424.53-2.99 1.67.01 2.8 3-1.67-.02-2.8"/>
  <path fill="#91939a" d="m578.5 426.2-7.38 4.1v2.81l7.39-4.11-.01-2.8"/>
  <path fill="#c4c5cc" d="m568.12 431.97-9.41 5.24.01-.01-11.49 6.53 1.22 2.15 12.8-7.28h.01l6.86-3.82v-2.81"/>
  <path fill="#0b1236" d="m571.12 430.3-3 1.67v2.81l3-1.67v-2.81"/>
  <path d="m628.26 401.32-5.81 3.23v1.71l6.79-3.77a1.54 1.54 0 0 1-.67-.62l-.31-.55" fill="#ced0d7"/>
  <path fill="#acb0c2" d="m622.45 404.55-13.73 7.64v1.72l13.73-7.65v-1.71"/>
  <path fill="#0b1236" d="m608.72 412.19-3 1.67v1.72l3-1.67v-1.72"/>
  <path fill="#4b3777" d="m605.72 413.86-14.41 8.02.01 1.7 14.4-8v-1.72"/>
  <path fill="#0b1236" d="m591.31 421.88-2.99 1.66.02 1.71 2.98-1.67-.01-1.7"/>
  <path fill="#696a71" d="m588.32 423.54-6.81 3.79v1.71l6.83-3.79-.02-1.71"/>
  <path fill="#0b1236" d="m581.51 427.33-3 1.67.01 1.71 2.99-1.67v-1.71"/>
  <path fill="#91939a" d="m578.51 429-7.39 4.11v1.72l7.4-4.12-.01-1.71"/>
  <path fill="#c4c5cc" d="m568.12 434.78-6.86 3.82h-.01l-12.8 7.28-1.22-2.15-1.3.74 1.96 3.45 14.1-8.01 6.12-3.41.01-1.72"/>
  <path fill="#0b1236" d="m571.12 433.11-3 1.67-.01 1.72 3.01-1.67v-1.72"/>
  <path d="M652.06 374.88a7.7 7.7 0 0 1 .75 1.94c0 .14.07.29.1.43a7.46 7.46 0 0 1 1.44 1.62l1.25-.82-1.25.82a4.64 4.64 0 0 1 .26.44v.11a5.93 5.93 0 0 1 .73 1.79 7.73 7.73 0 0 1-3.67 8.64l-.28.16-12 6.8-2-3.45-1.29.74 2 3.44a1.51 1.51 0 0 0 .91.71 1.37 1.37 0 0 0 .4.05 1.54 1.54 0 0 0 .72-.18l12-6.81.28-.16a9.28 9.28 0 0 0 4.67-8 8.89 8.89 0 0 0-.3-2.29 7.5 7.5 0 0 0-.79-2 1.21 1.21 0 0 0-.09-.2c-.12-.24-.25-.43-.33-.57a9.19 9.19 0 0 0-3.54-3.17" fill="#ced0d7"/>
  <path d="M653.09 379.69a9.28 9.28 0 0 1-4.65 7.45l-.28.16-9.36 5.32 1.21 2.15 10.68-6.07.28-.16a6.25 6.25 0 0 0 3.17-5.42 6.14 6.14 0 0 0-.2-1.54 4.52 4.52 0 0 0-.55-1.36 1.33 1.33 0 0 1-.15-.32l-.12-.19" fill="#ced0d7"/>
  <path d="m654.35 378.87-1.26.82.12.19a1.33 1.33 0 0 0 .15.32 4.52 4.52 0 0 1 .55 1.36 6.14 6.14 0 0 1 .2 1.54 6.25 6.25 0 0 1-3.17 5.42l-.28.16-10.66 6.09-1.21-2.15-1.31.74 2 3.45 12-6.8.28-.16a7.73 7.73 0 0 0 3.67-8.64 5.93 5.93 0 0 0-.73-1.79v-.11a4.64 4.64 0 0 0-.26-.44m-1.44-1.62a9.07 9.07 0 0 1 .2 1.87v.57l1.26-.82a7.46 7.46 0 0 0-1.44-1.62m-23.34 20.47-2.62 1.46 1.2 2.14.31.55a1.54 1.54 0 0 0 .67.62 1.58 1.58 0 0 0 .64.15 1.55 1.55 0 0 0 .74-.2 1.5 1.5 0 0 0 .75-1.14 1.44 1.44 0 0 0-.18-.9l-.31-.54-1.2-2.14" fill="#ced0d7"/>
  <path d="M547.85 433.23a24.86 24.86 0 0 1-3.57-7.32l-8 4.55-6.35 3.6-8.52 11.69a1.93 1.93 0 0 0 .21 2.62 2.05 2.05 0 0 0 1.4.45h.11l14.43-1.33 6.35-3.59 9-5.14a31.53 31.53 0 0 1-5.07-5.54" fill="#ffd000"/>
  <path d="m547.85 433.23 1.21-.87a23.53 23.53 0 0 1-3.35-6.89 1.49 1.49 0 0 0-.87-1 1.52 1.52 0 0 0-1.3.08l-8 4.56-6.35 3.59a1.6 1.6 0 0 0-.48.42l-8.52 11.69a3.56 3.56 0 0 0-.71 2.1 3.47 3.47 0 0 0 1.13 2.53 3.44 3.44 0 0 0 2.26.82h.19l-.08-1.5-.15 1.49h.4l14.43-1.25a1.67 1.67 0 0 0 .61-.19l6.35-3.59 9-5.13a1.48 1.48 0 0 0 .75-1.16 1.51 1.51 0 0 0-.5-1.28 30.8 30.8 0 0 1-4.84-5.28l-1.22.87-1.22.88a33.37 33.37 0 0 0 5.31 5.79l1-1.13-.74-1.3-9 5.14-6.09 3.38-14.07 1.33.14 1.5.15-1.49h-.37a.54.54 0 0 1-.31-.09l-1 1.14 1-1.12a.43.43 0 0 1-.14-.3.58.58 0 0 1 .12-.31l8.33-11.43 6.07-3.43 8-4.56-.74-1.3-1.44.43a26.17 26.17 0 0 0 3.79 7.77l1.22-.88" fill="#0b1236"/>
  <path d="m539.08 438.51-1.56.89-6.35 3.6-6.35.58-2.23 3.06a.58.58 0 0 0-.12.31.45.45 0 0 0 .12.29.62.62 0 0 0 .28.08h.23l14-1.28 4.76-2.69-2.75-4.84" fill="#ceaa0b"/>
  <path d="m541.83 443.35-4.76 2.65-14 1.28h-.23a.62.62 0 0 1-.28-.08.45.45 0 0 1-.12-.29.58.58 0 0 1 .12-.31l2.23-3.06-2 .19-1.45 2a1.93 1.93 0 0 0 .21 2.62 2 2 0 0 0 1.29.45h.22l14.43-1.33 5-2.85-.74-1.3" fill="#0b1236"/>
  <path fill="#2f96f4" d="m627.8 379.36 7.63 13.44-77.45 43.1-14.1 8.01-3.55-6.25-.27-.47-.01-.02-3.8-6.71 91.55-51.1"/>
  <path d="m627.8 379.36-1.31.74 6.89 12.13-76.13 42.36-12.8 7.28-2.81-4.95-.27-.48v-.08l-1.26.82 1.31-.74-3.12-5.44 90.23-50.37-.73-1.31-1.31.74 1.31-.74-.73-1.31-91.55 51.1a1.5 1.5 0 0 0-.58 2.05l3.81 6.71v.08l1.25-.82-1.31.73.27.47 3.55 6.25a1.58 1.58 0 0 0 .91.71 1.51 1.51 0 0 0 1.14-.15l14.1-8 77.45-43.1a1.45 1.45 0 0 0 .71-.9 1.49 1.49 0 0 0-.14-1.15l-7.63-13.44a1.49 1.49 0 0 0-2-.57l.73 1.31" fill="#0b1236"/>
  <path fill="#287cce" d="m627.23 381.39-.19.11 3.29 5.78-77.45 43.09-11.32 6.43.08.13-.01-.01 2.81 4.95 12.8-7.28h.01l76.13-42.36-6.15-10.84"/>
  <path fill="#0b1236" d="m626.49 380.09-.19.1.74 1.31.19-.11 6.15 10.84-76.13 42.36h-.01l-12.8 7.28-2.81-4.95.01.01-.08-.13-1.3.74.07.12 3.55 6.25 14.1-8.01 76.14-42.37-2.16-3.82-1.54-2.73v.01l-.31-.54-3.61-6.35-.01-.01"/>
  <path d="M650.34 374.86a4.64 4.64 0 0 1 .26.44v.11a5.93 5.93 0 0 1 .73 1.79 7.73 7.73 0 0 1-3.67 8.64l-.28.16-12 6.8-2.12-3.8-1.54-2.73-.3-.54-3.62-6.35 11.53-6.54.74-.42a7.71 7.71 0 0 1 10.27 2.46" fill="#d6332f"/>
  <path d="m650.34 374.86-1.26.82c.09.14.15.23.19.31l1.33-.69-1.45.38v.11a1.55 1.55 0 0 0 .17.4 4.52 4.52 0 0 1 .55 1.36 6.18 6.18 0 0 1-3 7l-.28.16-10.59 6.05-1.42-2.52-1.58-2.73-.31-.53-2.87-5.05 10.22-5.79.74-.42a6.26 6.26 0 0 1 3.1-.82 6.18 6.18 0 0 1 5.18 2.8l1.26-.82 1.25-.82a9.21 9.21 0 0 0-12.26-2.94l-.74.42-11.53 6.53a1.49 1.49 0 0 0-.56 2.05l3.61 6.35.31.54 1.53 2.73 2.16 3.83a1.51 1.51 0 0 0 .91.71 1.47 1.47 0 0 0 1.14-.14l12-6.81.28-.16a9.28 9.28 0 0 0 4.67-8 9.16 9.16 0 0 0-.3-2.31l-1.45.39 1.46-.36a7.83 7.83 0 0 0-.91-2.22l-1.28.79 1.45-.38v-.11a1.66 1.66 0 0 0-.12-.31 6.47 6.47 0 0 0-.33-.56l-1.25.82" fill="#0b1236"/>
  <path d="M647.25 373.87a7.73 7.73 0 0 1-3.91 7l-.28.17-9.5 5.39 1 1.79 1.42 2.52 10.68-6.06.28-.16a6.18 6.18 0 0 0 3-7 4.52 4.52 0 0 0-.55-1.36 1.57 1.57 0 0 1-.15-.32l-.12-.19a6.19 6.19 0 0 0-1.83-1.81" fill="#ad2c30"/>
  <path d="m650.34 374.86-1.26.82.12.19a1.57 1.57 0 0 0 .15.32 4.52 4.52 0 0 1 .55 1.36 6.18 6.18 0 0 1-3 7l-.28.16-10.62 6.05-1.42-2.52-1-1.79-1.3.74 1 1.79 2.17 3.82 12-6.8.28-.16a7.73 7.73 0 0 0 3.67-8.64 5.93 5.93 0 0 0-.73-1.79v-.11a4.64 4.64 0 0 0-.26-.44m-3.4-2.84.07.23a7.55 7.55 0 0 1 .24 1.62 6.19 6.19 0 0 1 1.83 1.81l1.26-.82a7.71 7.71 0 0 0-3.4-2.84" fill="#0b1236"/>
  <path fill="#fff" d="m618.73 384.42 7.14 12.71"/>
  <path d="m617.42 385.16 7.15 12.7a1.5 1.5 0 1 0 2.61-1.47l-7.18-12.7a1.5 1.5 0 1 0-2.61 1.47m-44.51-73.43 6.04-9.25m-4.79 10.07 6-9.25a1.5 1.5 0 0 0-2.51-1.64l-6 9.25a1.5 1.5 0 1 0 2.51 1.64m3.21 5.29 10.22-4.2m-9.65 5.58 10.22-4.22a1.5 1.5 0 0 0-1.14-2.78l-10.22 4.2a1.5 1.5 0 1 0 1.14 2.77m-12.42-7.89-1.64-10.93m3.15 10.71-1.63-10.93a1.5 1.5 0 0 0-3 .45l1.63 10.92a1.5 1.5 0 0 0 3-.44" fill="#0b1236"/>
  <path d="m435.25 355.23-.55 226.62c-3.23 2.38-6.62 6.11-8.65 8.14l.6-225.3a49.19 49.19 0 0 1 8.6-9.46Z" fill="#ccc"/>
  <path d="M526.51 541.11a1.55 1.55 0 1 0 1.55-1.55 1.54 1.54 0 0 0-1.55 1.55Zm-116.3-27.62a1.55 1.55 0 1 0 1.55-1.55 1.55 1.55 0 0 0-1.55 1.55Zm-183.87-55.64a2.63 2.63 0 1 0 1.8-3.26 2.64 2.64 0 0 0-1.8 3.26Zm1.03 9.15v100.09a1.5 1.5 0 0 0 3 0V467a1.5 1.5 0 1 0-3 0" fill="#0b1236"/>
  <path d="M704.87 426.51c-1.52 7.08-4.5 22.53-4.84 36.15 0 .09-.1 8.73 5.58 22.29a3 3 0 0 1-2.77 4.16h-.27l-35.42-3.16a18.18 18.18 0 0 0 1.44 2.44l41.64 3.28c-.53-1.27-1-2.51-1.49-3.69a73.62 73.62 0 0 1-4.38-36.52c1.18-8.78 2.77-16.64 3.7-20.88.46-2.11.76-3.33.76-3.33l-4-.73" fill="#ced0d7"/>
  <path d="M705.51 423.58c-.11.49-.24 1.09-.39 1.78l-.25 1.15 4 .73s-.3 1.22-.76 3.33c-.93 4.24-2.52 12.1-3.7 20.88a73.62 73.62 0 0 0 4.33 36.55c.46 1.18 1 2.42 1.49 3.69l-41.64-3.28a18.18 18.18 0 0 1-1.44-2.44l-3.49-.31a25.78 25.78 0 0 0 2.53 4.56 3 3 0 0 0 2.16 1.18l41.65 3.25h.24a3 3 0 0 0 2.77-4.15c-.51-1.22-1-2.44-1.47-3.63a70.7 70.7 0 0 1-4.19-35c1.19-8.89 2.8-16.74 3.65-20.64.44-2 .74-3.24.74-3.25a3 3 0 0 0-2.37-3.67l-3.85-.71" fill="#ced0d7"/>
  <path d="m702.71 487.6-40.13-3.6a1.52 1.52 0 0 1-1.07-.6c-.51-.66-12.67-17.4-5.51-58.2.64-3.75 1.49-7.81 2.52-12.07A1.51 1.51 0 0 1 660 412a1.23 1.23 0 0 1 .27 0l43 7.9a1.53 1.53 0 0 1 1 .67 1.5 1.5 0 0 1 .2 1.17s-.3 1.21-.75 3.28c-1.42 6.46-4.75 23-5.12 37.6 0 .09-.13 9 5.69 22.9a1.5 1.5 0 0 1-.17 1.46 1.52 1.52 0 0 1-1.21.62h-.13" fill="#e4ebef"/>
  <path d="m660 413.49 43 7.9s-.3 1.22-.75 3.33c-1.52 6.91-4.8 23.42-5.16 37.87 0 0-.24 9.07 5.81 23.52l-40.13-3.58s-12.37-16.46-5.26-57.07c.66-3.79 1.49-7.77 2.51-12m0-3a3 3 0 0 0-2.91 2.29c-1 4.29-1.9 8.39-2.55 12.17-7.25 41.41 5.28 58.67 5.81 59.39a3 3 0 0 0 2.13 1.18l40.13 3.58h.27a3 3 0 0 0 2.77-4.16c-5.68-13.56-5.58-22.2-5.58-22.29.36-14.41 3.68-30.89 5.09-37.3.44-2.05.73-3.24.73-3.25a3 3 0 0 0-.39-2.35 3 3 0 0 0-2-1.32l-43-7.9a2.62 2.62 0 0 0-.55-.05" fill="#0b1236"/>
  <path d="M657.05 478.44s40.07 9.08 41.21-11.23l5.48 21.1-45.07-5.1Z" fill="#cbd1d3"/>
  <path d="M667 430a1.5 1.5 0 0 0-.15 3l22.5 2.29h.16a1.5 1.5 0 0 0 .15-3L667.17 430H667m-.87 10.22a1.5 1.5 0 0 0-.15 3l22.51 2.29h.15a1.5 1.5 0 0 0 .15-3l-22.5-2.29h-.16m-.85 10.15a1.5 1.5 0 0 0-1.49 1.35 1.49 1.49 0 0 0 1.34 1.64l22.5 2.3h.16a1.5 1.5 0 0 0 .15-3l-22.51-2.29h-.15m-.15 9.63a1.5 1.5 0 0 0-.15 3l11.25 1.15h.15a1.5 1.5 0 0 0 .15-3l-11.25-1.14h-.15" fill="#b9c0ca"/>
  <path d="M657.45 425.46c.66-3.79 1.49-7.77 2.51-12l43 7.9s-.3 1.22-.75 3.33c-29.46-7.23-41.13-1.83-44.76.77Z" fill="#fff"/>
  <path d="M712.72 428s-5.53 17-5.67 32.45" fill="#0b1236"/>
  <path d="M711.3 427.49s-1.41 4.33-2.82 10.57a109.77 109.77 0 0 0-2.93 22.32 1.5 1.5 0 1 0 3 0 107.59 107.59 0 0 1 2.85-21.68c.7-3.06 1.39-5.65 1.9-7.47.26-.9.47-1.62.62-2.11.07-.24.13-.43.17-.55l.06-.18a1.5 1.5 0 1 0-2.85-.93Zm-3.48 38.69a1.55 1.55 0 1 1 .39-2.16 1.55 1.55 0 0 1-.39 2.16Z" fill="#0b1236"/>
  <path d="m660 413.49 43 7.9s-.3 1.22-.75 3.33c-1.52 6.91-4.8 23.42-5.16 37.87 0 0-.24 9.07 5.81 23.52l-40.13-3.58s-12.37-16.46-5.26-57.07c.66-3.79 1.49-7.77 2.51-12m0-3a3 3 0 0 0-2.91 2.29c-1 4.29-1.9 8.39-2.55 12.17-7.25 41.41 5.28 58.67 5.81 59.39a3 3 0 0 0 2.14 1.18l40.12 3.58h.27a3 3 0 0 0 2.77-4.16c-5.68-13.56-5.58-22.2-5.58-22.29.36-14.41 3.68-30.89 5.09-37.3.44-2 .73-3.24.73-3.25a3 3 0 0 0-.39-2.35 3 3 0 0 0-2-1.32l-43-7.9a2.62 2.62 0 0 0-.52-.01Z" fill="#0b1236"/>
  <path d="m676.59 294.06-3 2.72c4.74 5.47 15.3 17.14 26 25.6.07.06 6.92 5.33 21.16 8.95a3 3 0 0 1 1.49 4.92l-23.82 26.4a18.31 18.31 0 0 0 2.82.32l27.66-31.3c-1.34-.34-2.63-.68-3.85-1a73.45 73.45 0 0 1-31.81-18.46C687 306 681.63 300 678.8 296.67c-1.42-1.63-2.21-2.61-2.21-2.61" fill="#ced0d7"/>
  <path d="M676.59 291.06a3 3 0 0 0-2 .8l-2.88 2.65 1.19 1.38.77.89 3-2.72s.79 1 2.21 2.61c2.83 3.29 8.15 9.29 14.46 15.51a73.45 73.45 0 0 0 31.81 18.46c1.22.35 2.51.69 3.85 1L701.26 363a18.31 18.31 0 0 1-2.82-.32l-2.34 2.6a25.81 25.81 0 0 0 5.16.72 3 3 0 0 0 2.25-1l27.66-31.3a3 3 0 0 0-1.51-4.9c-1.28-.32-2.55-.66-3.78-1a70.77 70.77 0 0 1-30.52-17.8c-6.38-6.29-11.69-12.3-14.28-15.33-1.38-1.58-2.16-2.53-2.16-2.54a3 3 0 0 0-2.12-1.1h-.21" fill="#ced0d7"/>
  <path d="M693.05 365.65c-.87 0-21.57-.36-49.86-30.59-2.6-2.77-5.34-5.89-8.12-9.28a1.49 1.49 0 0 1 .14-2l32.16-29.59a1.46 1.46 0 0 1 1-.4h.11a1.5 1.5 0 0 1 1 .55s.8 1 2.18 2.57c4.31 5 15.57 17.66 27 26.71.07.05 7.1 5.5 21.72 9.21a1.5 1.5 0 0 1 .75 2.46l-27 29.91a1.5 1.5 0 0 1-1.12.5" fill="#e4ebef"/>
  <path d="M668.38 295.24s.8 1 2.21 2.6c4.61 5.37 15.84 17.92 27.16 26.9 0 0 7.11 5.64 22.28 9.5l-27 29.91s-20.59 0-48.77-30.12q-3.94-4.18-8-9.2l32.15-29.59m0-3a3 3 0 0 0-2 .79l-32.21 29.59a3 3 0 0 0-.29 4.11c2.8 3.42 5.56 6.56 8.19 9.36 28.73 30.69 50 31.06 50.95 31.06a3 3 0 0 0 2.23-1l27-29.91a3 3 0 0 0-1.49-4.92c-14.24-3.62-21.09-8.89-21.16-8.95-11.3-8.95-22.47-21.51-26.74-26.49-1.38-1.58-2.16-2.54-2.16-2.55a3 3 0 0 0-2.11-1.09h-.22" fill="#0b1236"/>
  <path d="M686.38 366.21s31.34-26.56 15.81-39.68l20.15 8.31-31.18 32.94Z" fill="#cbd1d3"/>
  <path d="M670.19 311.89a1.5 1.5 0 0 0-1.1.48L653.73 329a1.5 1.5 0 0 0 .08 2.12 1.54 1.54 0 0 0 1 .4 1.5 1.5 0 0 0 1.1-.49l15.37-16.6a1.5 1.5 0 0 0-.09-2.12 1.48 1.48 0 0 0-1-.4m7.68 6.86a1.51 1.51 0 0 0-1.11.48l-15.36 16.61a1.51 1.51 0 0 0 .08 2.12 1.54 1.54 0 0 0 1 .4 1.5 1.5 0 0 0 1.1-.49l15.42-16.6a1.5 1.5 0 0 0-.09-2.12 1.45 1.45 0 0 0-1-.4m7.55 6.79a1.49 1.49 0 0 0-1.1.48L669 342.64a1.5 1.5 0 0 0 .09 2.12 1.45 1.45 0 0 0 1 .4 1.51 1.51 0 0 0 1.11-.48l15.36-16.61a1.5 1.5 0 0 0-.08-2.12 1.53 1.53 0 0 0-1-.39m-.07 14.23a1.5 1.5 0 0 0-1.1.48l-7.68 8.31a1.5 1.5 0 0 0 .08 2.12 1.49 1.49 0 0 0 2.12-.09l7.68-8.3a1.5 1.5 0 0 0-.08-2.12 1.48 1.48 0 0 0-1-.4" fill="#b9c0ca"/>
  <path d="M644.28 334q-3.94-4.18-8-9.2l32.15-29.59s.8 1 2.21 2.6C647.09 317 644.39 329.57 644.28 334Z" fill="#fff"/>
  <path d="M680.34 292.08s10.28 14.66 22.51 24" fill="#0b1236"/>
  <path d="M679.11 292.94s2.61 3.72 6.75 8.61a110.18 110.18 0 0 0 16.08 15.76 1.5 1.5 0 0 0 1.83-2.38 107.38 107.38 0 0 1-15.62-15.32c-2-2.39-3.68-4.5-4.82-6-.57-.75-1-1.36-1.31-1.77-.15-.2-.27-.36-.34-.47l-.11-.15a1.5 1.5 0 0 0-2.46 1.72Zm29.42 26.13a1.55 1.55 0 1 1-1.48-1.61 1.54 1.54 0 0 1 1.48 1.61Z" fill="#0b1236"/>
  <path d="M668.38 295.24s.8 1 2.21 2.6c4.61 5.37 15.84 17.92 27.16 26.9 0 0 7.11 5.64 22.28 9.5l-27 29.91s-20.59 0-48.77-30.12q-3.94-4.18-8-9.2l32.15-29.59m0-3a3 3 0 0 0-2 .79l-32.21 29.59a3 3 0 0 0-.29 4.11c2.8 3.42 5.56 6.56 8.19 9.36 28.73 30.69 50 31.06 50.95 31.06a3 3 0 0 0 2.23-1l27-29.91a3 3 0 0 0-1.49-4.92c-14.24-3.62-21.09-8.89-21.16-8.95-11.3-8.95-22.47-21.51-26.74-26.49-1.38-1.58-2.16-2.54-2.16-2.55a3 3 0 0 0-2.11-1.09Z" fill="#0b1236"/>
  <path d="M248.64 242.09a73.43 73.43 0 0 0-10.12 146.16v-1.7a15.39 15.39 0 0 1 14.85-15.46l3.7-.07.06-6.73a3 3 0 0 1 2.71-3q3.39-.33 6.84-.61v-4.89a3 3 0 0 1 2.8-3q3.47-.23 7-.4v-3.74a3 3 0 0 1 2.69-3c4.06-.42 8.39-.77 13.22-1.06 6.34-.38 12.82-.57 19.29-.57v1.5-1.5q3.66 0 7.24.08l-1-4.49a73.45 73.45 0 0 0-69.36-97.59" fill="#d4d8e5"/>
  <path d="m257.07 371-3.7.07a15.39 15.39 0 0 0-14.85 15.46v1.7l1.19.16a14.31 14.31 0 0 1 2.67-6.46 12.14 12.14 0 0 1 11-7.86L257 374v-3" fill="#111b44"/>
  <path d="m257 374-3.62.07a12.14 12.14 0 0 0-11 7.86 16.17 16.17 0 0 1 12.76-6.71 14.53 14.53 0 0 1 1.89.12V374" fill="#a57fe5"/>
  <path d="M266.66 363.73q-3.26.27-6.53.58l-.1 11.74.55.2a11.55 11.55 0 0 1 3.07-4.63 11.8 11.8 0 0 1 3-2.35v-5.54" fill="#d4d8e5"/>
  <path d="M266.68 360.72q-3.45.28-6.84.61a3 3 0 0 0-2.71 3l-.06 6.73v4.34a14.88 14.88 0 0 1 3 .69l.1-11.74q3.27-.31 6.53-.58v-3" fill="#111b44"/>
  <path d="M276.53 355.46c-2.28.1-4.55.24-6.83.39l-.06 12.09a11.76 11.76 0 0 1 4.53-.89h2.38v-11.62" fill="#d4d8e5"/>
  <path d="M276.53 352.45q-3.57.18-7 .4a3 3 0 0 0-2.8 3v13.43a11.39 11.39 0 0 1 2-.87c.32-.17.65-.32 1-.46l.06-12.09c2.28-.15 4.55-.29 6.83-.39v-3" fill="#111b44"/>
  <path d="M311.71 347.09c-6.22 0-12.6.18-19.1.56v21.23a16.06 16.06 0 0 1 3.7 4l28.55-1.14-.38-1.76a227.62 227.62 0 0 0-23.39 1.49h-.18a1.5 1.5 0 0 1-.17-3 230.73 230.73 0 0 1 23.1-1.5l-4.26-19.82c-2.6-.06-5.24-.09-7.9-.09m0-1.5v1.5-1.5" fill="#d4d8e5"/>
  <path d="M311.72 344.09c-6.47 0-13 .19-19.29.57-4.83.29-9.16.64-13.22 1.06a3 3 0 0 0-2.69 3v18.37c.27 0 .55 0 .82.06a15.67 15.67 0 0 1 2.17-.79v-17.64c4.4-.46 8.78-.79 13.09-1.06 6.5-.38 12.88-.56 19.1-.56v-3m0 0v3c2.66 0 5.3 0 7.9.09l-.65-3q-3.58-.07-7.24-.08" fill="#111b44"/>
  <path d="M292.61 347.65c-4.31.27-8.69.6-13.09 1.06v17.64a14.51 14.51 0 0 1 3.93-.55 15 15 0 0 1 9.17 3.08v-21.23" fill="#d4d8e5"/>
  <path d="M323.87 367a230.73 230.73 0 0 0-23.1 1.5 1.5 1.5 0 0 0 .17 3h.18a227.62 227.62 0 0 1 23.39-1.5l-.64-3" fill="#abafbc"/>
  <path d="M162.36 340.1a87 87 0 0 1-2.31-39.23 1.5 1.5 0 0 0-3-.51 90.37 90.37 0 0 0-1.28 15.17 89.39 89.39 0 0 0 3.71 25.47 1.5 1.5 0 1 0 2.88-.86Z" fill="#0b1236"/>
  <path d="M240 390.47a74.94 74.94 0 1 1 70.91-50.7l6.81 31.66a1.5 1.5 0 0 1-1.41 1.82l-30 1.2A74.12 74.12 0 0 1 240 390.47Z" fill="#83ce3a"/>
  <path d="M240 242.09a73.45 73.45 0 0 1 69.36 97.59l6.89 32.07-30.53 1.25A73.43 73.43 0 1 1 240 242.09m0-3A76.44 76.44 0 0 0 240 392a75.55 75.55 0 0 0 46.82-16l29.55-1.18a3 3 0 0 0 2.81-3.63l-6.71-31.26A76.45 76.45 0 0 0 240 239.09Z" fill="#0b1236"/>
  <path d="M240 390.47a74.94 74.94 0 1 1 70.91-50.7l6.81 31.66a1.5 1.5 0 0 1-1.41 1.82l-30 1.2A74.12 74.12 0 0 1 240 390.47Z" fill="#bbe5ff"/>
  <path d="M240 242.09a73.45 73.45 0 0 1 69.36 97.59l6.89 32.07-30.53 1.25A73.43 73.43 0 1 1 240 242.09m0-3A76.44 76.44 0 0 0 240 392a75.55 75.55 0 0 0 46.82-16l29.55-1.18a3 3 0 0 0 2.81-3.63l-6.71-31.26A76.45 76.45 0 0 0 240 239.09Z" fill="#0b1236"/>
  <path d="M301.49 315.53a73.44 73.44 0 0 1-4.08 24.15l6.89 32.07h-.58l.18.48 12.34-.5-6.89-32.07A73.45 73.45 0 0 0 240 242.09c-2 0-4 .11-6 .27a73.42 73.42 0 0 1 67.49 73.17Z" fill="#9fc4d6"/>
  <path d="M252.54 384.14a73.44 73.44 0 0 1-32.6-139.25 73.43 73.43 0 1 0 52.6 136.46 72.92 72.92 0 0 1-20 2.79Z" fill="#dcf5ff"/>
  <path d="M158.09 296.06a1.55 1.55 0 1 0 1.55-1.55 1.55 1.55 0 0 0-1.55 1.55Zm39.02-29.21a60.59 60.59 0 0 1 42.78-17.63 1.5 1.5 0 0 0 0-3A63.69 63.69 0 0 0 195 264.71a1.51 1.51 0 1 0 2.12 2.14Z" fill="#0b1236"/>
  <circle cx="244.72" cy="247.8" r="1.55" fill="#0b1236"/>
  <path d="M193 357.28h94.6a1.5 1.5 0 0 0 0-3H193a1.5 1.5 0 0 0 0 3" fill="#0b1236"/>
  <path d="M281.28 355.78h-34.23v-65.57a2.2 2.2 0 0 1 2.34-2H279a2.2 2.2 0 0 1 2.33 2Z" fill="#2f96f4"/>
  <path d="M281.28 355.78v-1.5h-32.73v-64.07a.4.4 0 0 1 .17-.31 1.05 1.05 0 0 1 .67-.23H279a1 1 0 0 1 .66.23.4.4 0 0 1 .17.31v65.57h3v-65.57a3.37 3.37 0 0 0-1.2-2.57 4 4 0 0 0-2.63-1h-29.61a4 4 0 0 0-2.64 1 3.4 3.4 0 0 0-1.2 2.57v65.57a1.52 1.52 0 0 0 .44 1.06 1.5 1.5 0 0 0 1.06.44h34.23a1.48 1.48 0 0 0 1.06-.44 1.52 1.52 0 0 0 .44-1.06Z" fill="#0b1236"/>
  <path d="M257.6 355.78h-34.24v-48.64a2.2 2.2 0 0 1 2.34-2h29.56a2.2 2.2 0 0 1 2.34 2Z" fill="#2f96f4"/>
  <path d="M257.6 355.78v-1.5h-32.74v-47.14a.42.42 0 0 1 .17-.3 1 1 0 0 1 .67-.23h29.56a1 1 0 0 1 .67.23.39.39 0 0 1 .17.3v48.64h3v-48.64a3.42 3.42 0 0 0-1.2-2.57 4 4 0 0 0-2.64-1H225.7a4 4 0 0 0-2.64 1 3.45 3.45 0 0 0-1.2 2.57v48.64a1.5 1.5 0 0 0 1.5 1.5h34.24a1.5 1.5 0 0 0 1.5-1.5Z" fill="#0b1236"/>
  <path d="M234.26 355.78h-32.65V327a2.13 2.13 0 0 1 2.23-2H232a2.14 2.14 0 0 1 2.23 2Z" fill="#2f96f4"/>
  <path d="M234.26 355.78v-1.5h-31.15V327a.45.45 0 0 1 .16-.33.85.85 0 0 1 .57-.2H232a.89.89 0 0 1 .57.2.45.45 0 0 1 .16.33v28.78h3V327a3.44 3.44 0 0 0-1.14-2.54 3.8 3.8 0 0 0-2.59-1h-28.16a3.8 3.8 0 0 0-2.59 1 3.4 3.4 0 0 0-1.14 2.54v28.78a1.52 1.52 0 0 0 .44 1.06 1.5 1.5 0 0 0 1.06.44h32.65a1.5 1.5 0 0 0 1.06-.44 1.52 1.52 0 0 0 .44-1.06Z" fill="#0b1236"/>
  <path d="M255.93 354.13h-14v-47.32h13.78a.24.24 0 0 1 .24.24Zm23.62-.04h-14v-64.26h13.78a.24.24 0 0 1 .24.24Zm-47.06-.09h-14v-27.25h13.78a.23.23 0 0 1 .24.23Z" fill="#267cbc"/>
  <path d="m196.78 307.48 23.81-23.91 7.93 7.44a1.5 1.5 0 0 0 2 0l21.77-19.9a1.5 1.5 0 1 0-2-2.21l-20.75 19-8-7.5a1.51 1.51 0 0 0-2.1 0l-24.84 24.94a1.5 1.5 0 0 0 2.13 2.12Z" fill="#0b1336"/>
  <path fill="#0b1336" d="m247.09 266.48 7.38 8.07.34-7.72-7.72-.35z"/>
  <circle cx="206.26" cy="548.2" r="2.49" fill="#090e40"/>
  <path d="M279.66 497.77s10.53 14.25 24.88 37.37c13.73 22.12 11.91 59.36-15.23 67.57s-60.46 9.44-84.34-7.58c-14.73-10.51-15.21-29.48-9.3-45.24 5.4-14.43 15.52-25.2 24.8-37.1 8.74-11.19 15.78-25.47 8.73-39.37-8.34-16.42-11.81-11.06-13.2-21.73s15.8-20 27.33-13.56 12.44-2.08 20.33-2.48 9.79 9.5 8.3 12.57c0 0 13.93-5.25 15.11 8.22s-16.65 15.85-13.28 28.29a47.85 47.85 0 0 0 5.88 13" fill="#83ce3a"/>
  <path d="m279.66 497.77-1.2.89s.16.21.47.65c2.19 3 11.8 16.43 24.34 36.62a57.51 57.51 0 0 1 8.16 29.61c0 8-1.75 15.83-5.43 22.15a29.08 29.08 0 0 1-17.12 13.58 129.82 129.82 0 0 1-37.22 5.73c-16.48 0-32.66-3.74-45.82-13.13a27.79 27.79 0 0 1-9.37-11.35 34.37 34.37 0 0 1-2.84-14.16 52 52 0 0 1 3.44-18 80.2 80.2 0 0 1 10.76-19.14c4.31-5.93 9.15-11.58 13.82-17.56a68.29 68.29 0 0 0 8.35-13.25 36.18 36.18 0 0 0 3.6-15.05 27.61 27.61 0 0 0-3-12.61 56.56 56.56 0 0 0-5.54-9.07 75.89 75.89 0 0 0-5.27-5.73 7.14 7.14 0 0 1-1.31-2.23 18.71 18.71 0 0 1-.94-4.22 7.37 7.37 0 0 1-.07-1 9.18 9.18 0 0 1 1.41-4.75 16.71 16.71 0 0 1 6.57-5.85 20.61 20.61 0 0 1 9.43-2.36 15.71 15.71 0 0 1 7.76 1.94c3.28 1.84 5.89 2.61 8.16 2.61a9.79 9.79 0 0 0 4-.85 45.49 45.49 0 0 0 4.44-2.57 9.67 9.67 0 0 1 4.58-1.48h.38a5.78 5.78 0 0 1 3 .79 7.24 7.24 0 0 1 2.83 3.4 10.79 10.79 0 0 1 .93 4.31 4.88 4.88 0 0 1-.31 1.93 1.5 1.5 0 0 0 1.87 2.06l-.05-.14.05.14-.05-.14.05.14a17.21 17.21 0 0 1 5.26-.92 8 8 0 0 1 5 1.47 6.22 6.22 0 0 1 1.81 2.29 11.52 11.52 0 0 1 1 4.11c0 .38.05.76.05 1.13a11.56 11.56 0 0 1-1.92 6.35c-1.76 2.79-4.57 5.16-7.08 7.79a21 21 0 0 0-3.31 4.34 11.29 11.29 0 0 0-1.46 5.52 12.74 12.74 0 0 0 .48 3.41 48.89 48.89 0 0 0 6.1 13.49v.05l1.2-.89 1.24-.85a46.6 46.6 0 0 1-5.67-12.57 10.07 10.07 0 0 1-.37-2.63 8.93 8.93 0 0 1 1.88-5.33 27.94 27.94 0 0 1 3.28-3.7 49.39 49.39 0 0 0 5.68-6.2 14.83 14.83 0 0 0 2.93-8.77c0-.46 0-.92-.06-1.4a14.65 14.65 0 0 0-1.33-5.16 9.11 9.11 0 0 0-4.33-4.36 12 12 0 0 0-5.17-1.08 19.63 19.63 0 0 0-6.31 1.11l.53 1.4 1.34.66a7.33 7.33 0 0 0 .62-3.24 13.69 13.69 0 0 0-2.17-7.33 9.63 9.63 0 0 0-3.06-3 8.89 8.89 0 0 0-4.57-1.21h-.54a11.69 11.69 0 0 0-4.24 1 43 43 0 0 0-4.52 2.61 7.7 7.7 0 0 1-4.07 1.27c-1.57 0-3.68-.54-6.69-2.23a18.72 18.72 0 0 0-9.23-2.32 23.63 23.63 0 0 0-13.89 4.63 18.13 18.13 0 0 0-4.68 5 12.23 12.23 0 0 0-1.84 6.3 11.56 11.56 0 0 0 .09 1.43 18 18 0 0 0 1.64 6.08 11.1 11.1 0 0 0 2 2.72 52.65 52.65 0 0 1 3.92 4.14 51.2 51.2 0 0 1 5.77 9.27 24.51 24.51 0 0 1 2.72 11.26 33.26 33.26 0 0 1-3.33 13.8 65.52 65.52 0 0 1-8 12.71c-4.62 5.91-9.48 11.59-13.89 17.64a83 83 0 0 0-11.14 19.86 54.83 54.83 0 0 0-3.63 19 37.39 37.39 0 0 0 3.1 15.39 30.8 30.8 0 0 0 10.37 12.57c13.81 9.84 30.64 13.68 47.56 13.68a132.89 132.89 0 0 0 38.09-5.89 32.11 32.11 0 0 0 18.92-14.88c4-6.9 5.83-15.2 5.83-23.66a60.33 60.33 0 0 0-8.61-31.19c-14.38-23.17-24.93-37.45-24.95-37.47l-1.21.89 1.24-.85-1.24.85" fill="#090e40"/>
  <path d="M234 437.91h-.37a22.39 22.39 0 0 0-10.15 3.34c-3.94 2.65-6.42 6.71-6 10.06.6 4.67 1 5.26 3 7.25s5.7 5.62 9.93 14c6.2 12.25 3.61 25.48-8.54 41.06-1.73 2.21-3.49 4.37-5.23 6.52-7.69 9.54-15.4 18.85-19.67 30.24-5.2 13.9-5.67 33.4 8.49 43.5 2.33 1.67 5.17 1.74 7.68 3-14.11-10.58-14.47-29.23-8.67-44.74 5.41-14.44 15.53-25.22 24.8-37.1 8.75-11.21 14.76-25 8.74-39.37-9.48-22.61-7.19-35.09 1-36.89v-.11a16.33 16.33 0 0 0-5.11-.68" fill="#bdef84"/>
  <path d="M201.48 569.49a53.58 53.58 0 0 1 2.71-14.49" fill="#d392ff"/>
  <path d="M203 569.55a52 52 0 0 1 2.64-14.08 1.5 1.5 0 1 0-2.85-.94 54.46 54.46 0 0 0-2.78 14.9 1.5 1.5 0 1 0 3 .12Z" fill="#090e40"/>
  <path d="M302.73 535.14c-14.35-23.12-24.88-37.37-24.88-37.37a47.48 47.48 0 0 1-5.88-13c-3.38-12.43 14.45-14.8 13.28-28.28s-15.11-8.22-15.11-8.22a5.59 5.59 0 0 0 .44-2.08 14.82 14.82 0 0 1-2 3.13c1.68 1.38-3.7 7.51-4.67 11.07-4.33 15.9-8.7 12.11-5.34 24.54a48.35 48.35 0 0 0 5.88 13.05s10.55 14.2 24.9 37.32c13.73 22.12 14.47 54.26-12.33 63.52-24.21 8.37-46.25 2.91-60.26 1.37 3.81 6.62 43.15 12.63 72.82 2.43 26.81-9.21 26.87-45.36 13.15-67.48Z" fill="#75b234"/>
  <path d="M270.66 447.45c0 .06-7.57 12.54-11.31 25.83a1.5 1.5 0 0 0 2.89.81 105.57 105.57 0 0 1 6.85-17.36c1.15-2.34 2.19-4.28 2.94-5.63.37-.68.68-1.21.88-1.56l.24-.41.08-.13a1.5 1.5 0 1 0-2.57-1.55Zm-25.72 6.14.16-.11-.17.11.16-.11-.17.11a27.29 27.29 0 0 1 2.5 4.79 30.62 30.62 0 0 1 2.43 11.62 25.94 25.94 0 0 1-.55 5.3 1.5 1.5 0 1 0 2.93.63 28.82 28.82 0 0 0 .62-5.93 33.72 33.72 0 0 0-2.71-12.89 29.9 29.9 0 0 0-2.75-5.21 1.5 1.5 0 1 0-2.45 1.72Zm-2.6 34.14v.15a80 80 0 0 1-1.8 8.75 50.48 50.48 0 0 1-5.59 13.8 1.5 1.5 0 1 0 2.53 1.61 54.74 54.74 0 0 0 6.2-15.55 74.94 74.94 0 0 0 1.65-8.38 1.5 1.5 0 1 0-3-.38Zm20.48.17a65.71 65.71 0 0 0 11.07 20.9 1.5 1.5 0 1 0 2.37-1.85 66.9 66.9 0 0 1-8.26-13.79c-.82-1.85-1.39-3.37-1.76-4.43-.18-.52-.31-.93-.39-1.21a1.74 1.74 0 0 1-.09-.3v-.08a1.5 1.5 0 0 0-2.9.78Zm34.62 66.1a67.16 67.16 0 0 1 1.07 12.05c0 5.17-.64 11.16-2.78 16.2a20.76 20.76 0 0 1-4.4 6.68 17.26 17.26 0 0 1-7.27 4.26 1.5 1.5 0 0 0 .87 2.87 20.39 20.39 0 0 0 8.51-5 26.07 26.07 0 0 0 6.53-12 51 51 0 0 0 1.54-13 70.24 70.24 0 0 0-1.14-12.7 1.5 1.5 0 1 0-2.94.6Z" fill="#090e40"/>
  <path d="M156.08 608.09c.1 3.86 9.24 6.77 20.44 6.5s20.19-3.61 20.1-7.46L197 599l-40.53 1-.34 8.17" fill="#b08e00"/>
  <path d="M156.08 608.09h-1.5a4.26 4.26 0 0 0 .63 2.07 7.62 7.62 0 0 0 2.92 2.62 24.9 24.9 0 0 0 7.22 2.42 51.82 51.82 0 0 0 9.75.87h1.45a47.18 47.18 0 0 0 14.71-2.46 16 16 0 0 0 4.75-2.56 6.76 6.76 0 0 0 1.5-1.72 4.3 4.3 0 0 0 .61-2.17v-.09h-1.5l1.5.06.33-8.18a1.5 1.5 0 0 0-1.53-1.56l-40.54 1a1.49 1.49 0 0 0-1.46 1.44l-.33 8.17v.1h1.5l1.5.06.28-6.77 37.53-.89-.27 6.58v.11a1.35 1.35 0 0 1-.2.66 5.56 5.56 0 0 1-2 1.72 24 24 0 0 1-6.74 2.41 50.75 50.75 0 0 1-9.73 1.12h-1.38a41.81 41.81 0 0 1-12.94-1.8 11.81 11.81 0 0 1-3.6-1.81 3.21 3.21 0 0 1-.78-.84 1.24 1.24 0 0 1-.2-.6h-1.5l1.5.06-1.5-.06" fill="#090e40"/>
  <path d="M197 599c.08 3.34-8.93 6.27-20.12 6.54s-20.33-2.23-20.41-5.57 8.93-6.27 20.12-6.54 20.28 2.18 20.41 5.57" fill="#ffd000"/>
  <path d="M197 599h-1.5a.65.65 0 0 1-.15.39 5.25 5.25 0 0 1-1.94 1.47 26.48 26.48 0 0 1-6.79 2.13 59.34 59.34 0 0 1-9.78 1h-1.6a47.68 47.68 0 0 1-12.84-1.54 12.61 12.61 0 0 1-3.57-1.56 2.81 2.81 0 0 1-.72-.69.54.54 0 0 1-.14-.34.65.65 0 0 1 .15-.38A5.16 5.16 0 0 1 160 598a26.09 26.09 0 0 1 6.79-2.13 58.28 58.28 0 0 1 9.78-1h1.59A47.76 47.76 0 0 1 191 596.4a12.61 12.61 0 0 1 3.57 1.56 2.81 2.81 0 0 1 .72.69.54.54 0 0 1 .14.34h3a3.62 3.62 0 0 0-.66-2 7.4 7.4 0 0 0-2.91-2.28 26.37 26.37 0 0 0-7.1-2.07 58.38 58.38 0 0 0-9.61-.74h-1.67a54.07 54.07 0 0 0-14.66 2.17 16.81 16.81 0 0 0-4.73 2.23 6.35 6.35 0 0 0-1.53 1.53 3.61 3.61 0 0 0-.66 2.06v.11a3.63 3.63 0 0 0 .66 2 7.4 7.4 0 0 0 2.91 2.28 26.88 26.88 0 0 0 7.1 2.07 59.46 59.46 0 0 0 9.6.74h1.67a54.09 54.09 0 0 0 14.67-2.17 17.08 17.08 0 0 0 4.73-2.24 6.18 6.18 0 0 0 1.53-1.53 3.66 3.66 0 0 0 .66-2.06v-.08h-1.5" fill="#090e40"/>
  <path d="M178.21 594.86h-1.59a58.28 58.28 0 0 0-9.78 1A26.09 26.09 0 0 0 160 598a5.16 5.16 0 0 0-1.94 1.47.65.65 0 0 0-.15.38.54.54 0 0 0 .14.34 2.81 2.81 0 0 0 .72.69 12.61 12.61 0 0 0 3.57 1.56 47.49 47.49 0 0 0 12.82 1.56h1.6a59.34 59.34 0 0 0 9.78-1 26.48 26.48 0 0 0 6.79-2.13 5.25 5.25 0 0 0 1.94-1.47.65.65 0 0 0 .15-.39h1.5-1.5a.54.54 0 0 0-.14-.34 2.81 2.81 0 0 0-.72-.69 12.61 12.61 0 0 0-3.56-1.58 47.49 47.49 0 0 0-12.81-1.54" fill="#ffd933"/>
  <path d="M175.16 604a47.49 47.49 0 0 1-12.81-1.54 12.61 12.61 0 0 1-3.57-1.56 2.81 2.81 0 0 1-.72-.69.54.54 0 0 1-.14-.34.65.65 0 0 1 .15-.38A5.16 5.16 0 0 1 160 598a26.09 26.09 0 0 1 6.79-2.13 58.28 58.28 0 0 1 9.78-1h1.59A47.49 47.49 0 0 1 191 596.4a12.61 12.61 0 0 1 3.57 1.56 2.81 2.81 0 0 1 .72.69.54.54 0 0 1 .14.34h1.5-1.5a.65.65 0 0 1-.15.39 5.25 5.25 0 0 1-1.94 1.47 26.48 26.48 0 0 1-6.79 2.13 59.34 59.34 0 0 1-9.78 1h-1.6m3-10.65h-1.63c-11.19.27-20.2 3.19-20.12 6.54.07 3.18 8.34 5.59 18.77 5.59h1.64C188 605.22 197 602.29 197 599c-.07-3.18-8.34-5.59-18.78-5.59" fill="#3a3e66"/>
  <path d="M197 599h-1.5a.65.65 0 0 1-.15.39 5.25 5.25 0 0 1-1.94 1.47 26.48 26.48 0 0 1-6.79 2.13 59.34 59.34 0 0 1-9.78 1h-1.6a47.68 47.68 0 0 1-12.84-1.54 12.61 12.61 0 0 1-3.57-1.56 2.81 2.81 0 0 1-.72-.69.54.54 0 0 1-.14-.34.65.65 0 0 1 .15-.38A5.16 5.16 0 0 1 160 598a26.09 26.09 0 0 1 6.79-2.13 58.28 58.28 0 0 1 9.78-1h1.59A47.76 47.76 0 0 1 191 596.4a12.61 12.61 0 0 1 3.57 1.56 2.81 2.81 0 0 1 .72.69.54.54 0 0 1 .14.34h3a3.62 3.62 0 0 0-.66-2 7.51 7.51 0 0 0-2.91-2.29 26.76 26.76 0 0 0-7.1-2.06 58.47 58.47 0 0 0-9.61-.74h-1.67a54.07 54.07 0 0 0-14.66 2.17 16.81 16.81 0 0 0-4.73 2.23 6.35 6.35 0 0 0-1.53 1.53 3.61 3.61 0 0 0-.66 2.06v.11a3.63 3.63 0 0 0 .66 2 7.4 7.4 0 0 0 2.91 2.28 26.88 26.88 0 0 0 7.1 2.07 59.46 59.46 0 0 0 9.6.74h1.67a54.09 54.09 0 0 0 14.67-2.17 17.08 17.08 0 0 0 4.73-2.24 6.18 6.18 0 0 0 1.53-1.53 3.66 3.66 0 0 0 .66-2.06v-.08Z" fill="#090e40"/>
  <path d="m184.41 604.33 12.9-22.55-4.24-4.46c.6-.05-2.63-.81 4.28-.79 9.19 0 19.26 6 18.76 18.7-.55 14.16-9.62 17.09-18.8 16.94-6-.1-11-6.8-11.58-6.89" fill="#b08e00"/>
  <path d="m185.71 605.08 12.9-22.55a1.49 1.49 0 0 0-.21-1.78l-4.24-4.46-1.09 1 .11 1.49a1.67 1.67 0 0 0 .52-.11 1.48 1.48 0 0 0 .84-.85 1.59 1.59 0 0 0 .11-.56 1.51 1.51 0 0 0-.19-.74 1.43 1.43 0 0 0-.34-.42l-.22-.17-.54.72.68-.58c-.1-.11-.14-.13-.14-.14l-.54.72.68-.58-1 .84 1.16-.56a2 2 0 0 0-.18-.28l-1 .84 1.16-.56-1.25.6h1.39a1.36 1.36 0 0 0-.14-.6l-1.25.6 1.27.6a1.33 1.33 0 0 0 .14-.6h-1.41l1.27.6-1.2-.55.7 1.12a1.21 1.21 0 0 0 .49-.56L193 577l.7 1.12-.45-.72.28.81a.51.51 0 0 0 .17-.09l-.45-.72.28.81-.07-.2.06.2-.07-.2.06.2a6.15 6.15 0 0 1 .9-.1c.58 0 1.43-.07 2.63-.07h.3a18.9 18.9 0 0 1 11.8 4.05 14.7 14.7 0 0 1 3.95 5 16.61 16.61 0 0 1 1.53 7.22v.83a20.81 20.81 0 0 1-1.67 7.92 11.69 11.69 0 0 1-6.06 6 22 22 0 0 1-8.93 1.58h-.61a8.76 8.76 0 0 1-3.64-.95 19.66 19.66 0 0 1-4.61-3.34c-.61-.57-1.12-1.1-1.53-1.5-.2-.21-.38-.38-.56-.54l-.3-.24-.25-.15a1.61 1.61 0 0 0-.47-.15 1.5 1.5 0 1 0-.5 3l.22-1.27-.65 1.12a1.23 1.23 0 0 0 .43.15l.22-1.27-.65 1.12.33-.58-.41.53.08.05.33-.58-.41.53s.2.17.42.4c.41.4 1 1 1.75 1.71a23.55 23.55 0 0 0 4.26 3.23 12.27 12.27 0 0 0 5.89 1.78h.7a29.47 29.47 0 0 0 6.9-.74 15.78 15.78 0 0 0 8.81-5.32c2.32-2.88 3.74-6.91 4-12.32v-.95a19.66 19.66 0 0 0-1.82-8.51 18.15 18.15 0 0 0-7.86-8.15 22.71 22.71 0 0 0-10.67-2.7h-.31a29.12 29.12 0 0 0-3.62.15 4.05 4.05 0 0 0-1 .23 1.78 1.78 0 0 0-.61.39 1.51 1.51 0 0 0-.34.48 1.43 1.43 0 0 0-.15.67 1.65 1.65 0 0 0 .18.75 1.54 1.54 0 0 0 .42.52 1.44 1.44 0 0 0 .27.21l.26-.37-.27.36.26-.37-.27.36.75-1-.92.83a.7.7 0 0 0 .17.15l.75-1-.92.83 1.06-1-1.25.68a1.43 1.43 0 0 0 .19.28l1.06-1-1.25.68 1.29-.7h-1.47a1.38 1.38 0 0 0 .18.7l1.29-.7-1.38-.55a1.52 1.52 0 0 0-.1.55h1.48l-1.38-.55 1.38.55-.87-1.2a1.49 1.49 0 0 0-.51.65l1.38.55-.87-1.2.84 1.16-.33-1.4a1.46 1.46 0 0 0-.51.24l.84 1.16-.33-1.4.28 1.18-.09-1.21h-.19l.28 1.18-.09-1.21a1.52 1.52 0 0 0-1.29 1 1.49 1.49 0 0 0 .31 1.57l3.48 3.66-12.35 21.58a1.5 1.5 0 0 0 2.6 1.49Z" fill="#090e40"/>
  <ellipse cx="191.8" cy="594.39" rx="17.97" ry="16.94" transform="rotate(-87.37 191.80069206 594.395806)" fill="#ffd000"/>
  <path d="m208.72 595.17-1.5-.07a17.07 17.07 0 0 1-4.85 11.23 15 15 0 0 1-10.65 4.54h-.68a14.88 14.88 0 0 1-10.41-5 16.89 16.89 0 0 1-4.27-11.33v-.82a17 17 0 0 1 4.85-11.23 15 15 0 0 1 10.65-4.54h.67A14.84 14.84 0 0 1 203 583a16.9 16.9 0 0 1 4.28 11.33v.82l1.5.07 1.49.07v-1a19.88 19.88 0 0 0-5.05-13.34 17.91 17.91 0 0 0-12.5-6h-.81a18 18 0 0 0-12.78 5.42 20 20 0 0 0-5.72 13.21v1a19.94 19.94 0 0 0 5 13.34 17.91 17.91 0 0 0 12.5 6h.82a18 18 0 0 0 12.78-5.43 20 20 0 0 0 5.71-13.2Z" fill="#090e40"/>
  <path d="M190.94 577.93h-.08c-7.72.1-14.17 6.79-14.55 15.68A16.78 16.78 0 0 0 180 605.3a13.85 13.85 0 0 0 10.09 5.32h.57a13 13 0 0 0 1.66-.1c-5.47-1.87-11.81-8.64-10.84-16.95.72-6.25 4.22-13.93 15.46-14.21a13.28 13.28 0 0 0-5.29-1.43h-.72" fill="#ffdd92"/>
  <path d="M300.54 609.75c.09 3.76 9 6.6 20 6.34s19.72-3.52 19.63-7.29l.33-8-39.59.94Z" fill="#b08e00"/>
  <path d="M300.54 609.75h-1.5a4.17 4.17 0 0 0 .62 2.05 7.53 7.53 0 0 0 2.86 2.56 23.78 23.78 0 0 0 7.07 2.37 50.36 50.36 0 0 0 9.52.85h1.43a46.26 46.26 0 0 0 14.38-2.4 15.71 15.71 0 0 0 4.64-2.51A6.35 6.35 0 0 0 341 611a4.15 4.15 0 0 0 .6-2.13v-.1h-1.5l1.5.06.33-8a1.52 1.52 0 0 0-.43-1.11 1.49 1.49 0 0 0-1.11-.45l-39.59.94a1.5 1.5 0 0 0-1.46 1.44l-.33 8v.09h1.5l1.5.06.27-6.58 36.59-.87-.27 6.38v.12a1.19 1.19 0 0 1-.19.62 5.34 5.34 0 0 1-1.9 1.67 23.28 23.28 0 0 1-6.51 2.36 49.36 49.36 0 0 1-9.5 1.09h-1.35a41 41 0 0 1-12.63-1.75 11.62 11.62 0 0 1-3.5-1.76 3.15 3.15 0 0 1-.75-.82 1.16 1.16 0 0 1-.19-.57h-1.5l1.5.06Z" fill="#090e40"/>
  <path d="M340.46 600.82c.08 3.26-8.72 6.12-19.66 6.38s-19.8-2.2-19.93-5.44 8.72-6.12 19.65-6.38 19.86 2.17 19.94 5.44Z" fill="#ffd000"/>
  <path d="M340.46 600.82h-1.5a.64.64 0 0 1-.14.36 5.18 5.18 0 0 1-1.89 1.42 25.65 25.65 0 0 1-6.62 2.08 57.77 57.77 0 0 1-9.54 1h-1.56a46.48 46.48 0 0 1-12.54-1.5 12.3 12.3 0 0 1-3.47-1.52 2.65 2.65 0 0 1-.7-.66c-.12-.18-.13-.25-.13-.31a.64.64 0 0 1 .14-.36 5 5 0 0 1 1.88-1.42 25.52 25.52 0 0 1 6.62-2.08 57 57 0 0 1 9.55-1h1.56a46.08 46.08 0 0 1 12.54 1.5 12.43 12.43 0 0 1 3.47 1.52 2.65 2.65 0 0 1 .7.66.51.51 0 0 1 .13.31h3a3.72 3.72 0 0 0-.65-1.94 7.39 7.39 0 0 0-2.86-2.24 26.14 26.14 0 0 0-6.94-2 58.2 58.2 0 0 0-9.39-.72h-1.63a52.36 52.36 0 0 0-14.34 2.08 16.78 16.78 0 0 0-4.63 2.18 6.14 6.14 0 0 0-1.5 1.51 3.56 3.56 0 0 0-.65 2v.08a3.55 3.55 0 0 0 .65 1.94 7.31 7.31 0 0 0 2.86 2.24 26 26 0 0 0 6.94 2 58.11 58.11 0 0 0 9.39.72h1.63a52.22 52.22 0 0 0 14.33-2.12 16.71 16.71 0 0 0 4.64-2.18 6.51 6.51 0 0 0 1.5-1.51 3.66 3.66 0 0 0 .65-2v-.08Z" fill="#090e40"/>
  <path d="M291 595.17c.09 3.77 9 6.61 20 6.35s19.72-3.53 19.63-7.29l.33-8-39.59 1Z" fill="#b08e00"/>
  <path d="M291 595.17h-1.5a4.14 4.14 0 0 0 .62 2 7.55 7.55 0 0 0 2.86 2.57 24.08 24.08 0 0 0 7.07 2.36 50.36 50.36 0 0 0 9.52.85H311a46.24 46.24 0 0 0 14.38-2.41 15.7 15.7 0 0 0 4.64-2.5 6.55 6.55 0 0 0 1.47-1.7 4.12 4.12 0 0 0 .6-2.13v-.08h-1.5l1.5.06.33-8a1.48 1.48 0 0 0-.43-1.11 1.52 1.52 0 0 0-1.11-.45l-39.59 1a1.48 1.48 0 0 0-1.46 1.43l-.33 8v.1h1.5l1.5.06.27-6.58 36.59-.87-.26 6.39v.11a1.17 1.17 0 0 1-.19.62 5.16 5.16 0 0 1-1.9 1.67 23.57 23.57 0 0 1-6.58 2.36 50.16 50.16 0 0 1-9.5 1.09h-1.35a40.65 40.65 0 0 1-12.63-1.75 11.39 11.39 0 0 1-3.5-1.76 3.31 3.31 0 0 1-.75-.81 1.22 1.22 0 0 1-.19-.57h-1.5l1.5.06Z" fill="#090e40"/>
  <path d="M330.89 586.24c.08 3.27-8.72 6.13-19.66 6.39s-19.85-2.18-19.93-5.44 8.7-6.13 19.7-6.39 19.81 2.2 19.89 5.44Z" fill="#ffd000"/>
  <path d="M330.89 586.24h-1.5a.62.62 0 0 1-.14.36 5.17 5.17 0 0 1-1.89 1.43 25.69 25.69 0 0 1-6.62 2.07 57.71 57.71 0 0 1-9.54 1h-1.56a46.43 46.43 0 0 1-12.54-1.51 12 12 0 0 1-3.47-1.51 2.82 2.82 0 0 1-.7-.67.51.51 0 0 1-.13-.31.66.66 0 0 1 .14-.36 5.23 5.23 0 0 1 1.88-1.42 26.32 26.32 0 0 1 6.62-2.08 58 58 0 0 1 9.55-1h1.56a46 46 0 0 1 12.54 1.51 12.17 12.17 0 0 1 3.47 1.51 2.83 2.83 0 0 1 .7.66.55.55 0 0 1 .13.32h3a3.6 3.6 0 0 0-.65-1.94 7.31 7.31 0 0 0-2.86-2.25 26.16 26.16 0 0 0-6.94-2 57 57 0 0 0-9.39-.73h-1.63a53.14 53.14 0 0 0-14.34 2.12 16.78 16.78 0 0 0-4.63 2.19 6.28 6.28 0 0 0-1.5 1.5 3.66 3.66 0 0 0-.65 2v.08a3.52 3.52 0 0 0 .65 1.94 7.39 7.39 0 0 0 2.86 2.24 25.66 25.66 0 0 0 6.94 2 57 57 0 0 0 9.39.73h1.63a52.71 52.71 0 0 0 14.34-2.12 16.5 16.5 0 0 0 4.63-2.18 6.47 6.47 0 0 0 1.5-1.5 3.69 3.69 0 0 0 .65-2v-.08Z" fill="#090e40"/>
  <path d="M279.85 613c2.53 2.8 11.15-.88 19.27-8.21s12.64-15.55 10.12-18.34l-5-6.26-29.38 26.55Z" fill="#b08e00"/>
  <path d="m279.85 613-1.11 1a4.16 4.16 0 0 0 1.7 1.11 6 6 0 0 0 2 .32 12.57 12.57 0 0 0 3.81-.71c4.07-1.36 9-4.47 13.87-8.83a50.5 50.5 0 0 0 8.13-9.23 24.58 24.58 0 0 0 2.31-4.28 10.47 10.47 0 0 0 .88-3.84 5.35 5.35 0 0 0-.25-1.64 4 4 0 0 0-.84-1.47l-1.11 1 1.17-.93-5-6.27a1.5 1.5 0 0 0-2.18-.18l-29.39 26.55a1.51 1.51 0 0 0-.17 2l5 6.26.06.08 1.11-1 1.18-.93-4.09-5.16 27.15-24.54 4 5 .06.08a1 1 0 0 1 .22.38 2.19 2.19 0 0 1 .1.71 7.56 7.56 0 0 1-.66 2.72 25.66 25.66 0 0 1-3.53 5.83 50.4 50.4 0 0 1-6.14 6.57 47.83 47.83 0 0 1-9 6.5 24.44 24.44 0 0 1-3.84 1.71 9.65 9.65 0 0 1-2.87.56 2.88 2.88 0 0 1-1-.15 1 1 0 0 1-.47-.3l-1.12 1 1.18-.93Z" fill="#090e40"/>
  <path d="M304.27 580.18c2.19 2.42-2.61 10.33-10.72 17.66s-16.47 11.31-18.66 8.89 2.61-10.34 10.73-17.67 16.46-11.31 18.65-8.88Z" fill="#ffd000"/>
  <path d="m304.27 580.18-1.11 1a.37.37 0 0 1 .09.16 1.51 1.51 0 0 1 .05.44 6.6 6.6 0 0 1-.67 2.47 27.91 27.91 0 0 1-3.71 5.77 57.57 57.57 0 0 1-6.38 6.71 54.8 54.8 0 0 1-9.19 6.81 24.93 24.93 0 0 1-3.81 1.81 8.31 8.31 0 0 1-2.67.59 2.21 2.21 0 0 1-.65-.09.49.49 0 0 1-.22-.13.38.38 0 0 1-.08-.16 1.39 1.39 0 0 1-.06-.44 6.52 6.52 0 0 1 .68-2.47 27.64 27.64 0 0 1 3.7-5.77 58.39 58.39 0 0 1 6.38-6.7 54.4 54.4 0 0 1 9.2-6.82 24.87 24.87 0 0 1 3.8-1.81 8 8 0 0 1 2.67-.58 2.09 2.09 0 0 1 .66.08.5.5 0 0 1 .21.13l1.11-1 1.12-1a3.44 3.44 0 0 0-1.45-.94 4.87 4.87 0 0 0-1.65-.26 10.9 10.9 0 0 0-3.68.76c-4 1.44-9 4.72-14 9.22a56.47 56.47 0 0 0-8.4 9.31 26.28 26.28 0 0 0-2.42 4.18 9.47 9.47 0 0 0-.93 3.68 4.59 4.59 0 0 0 .2 1.37 3.45 3.45 0 0 0 2.16 2.19 5.13 5.13 0 0 0 1.65.26 11.24 11.24 0 0 0 3.69-.77c4-1.44 9-4.71 14-9.22a56.47 56.47 0 0 0 8.4-9.31 25.47 25.47 0 0 0 2.42-4.17 9.34 9.34 0 0 0 .93-3.69 4.59 4.59 0 0 0-.2-1.37 3.51 3.51 0 0 0-.71-1.24Zm-96.1 14.69-1.5-.07a17 17 0 0 1-4.85 11.2 15 15 0 0 1-10.65 4.54h-.67a14.84 14.84 0 0 1-10.41-5 16.9 16.9 0 0 1-4.28-11.33v-.82a17 17 0 0 1 4.85-11.23 15 15 0 0 1 10.65-4.54h.68a14.9 14.9 0 0 1 10.41 5 16.89 16.89 0 0 1 4.29 11.38v.82l1.5.07 1.5.07v-1a19.94 19.94 0 0 0-5-13.34 17.92 17.92 0 0 0-12.51-6h-.81a18 18 0 0 0-12.78 5.43 20 20 0 0 0-5.72 13.2v1a19.88 19.88 0 0 0 5.05 13.34 17.87 17.87 0 0 0 12.5 6h.81a18 18 0 0 0 12.77-5.44 20 20 0 0 0 5.72-13.21Zm43.74-35.76h-4l.19 15.51-10.93.13-.53-45 18.34-.22c8.77-.1 14.45 6.17 14.55 14.47.09 7.62-3.78 11.51-7.14 13l7.83 17.31-12.14.14Zm1.45-20.11-5.74.07.13 10.72 5.74-.07c2.9 0 5-2.15 4.92-5.39s-2.15-5.33-5.05-5.33Z" fill="#090e40"/>
  <path d="M263.89 483.39s-6.89-9.78-21.79-8.17-14.65 12.32-14.65 12.32 14-8.49 36.44-4.15" fill="#273d7d"/>
  <path d="m263.89 483.39 1.23-.86a20.44 20.44 0 0 0-4.9-4.55 26 26 0 0 0-14.87-4.44 31.17 31.17 0 0 0-3.41.19 22.85 22.85 0 0 0-9 2.66 13.85 13.85 0 0 0-6.09 6.77 11.94 11.94 0 0 0-.94 4.35v.06a1.49 1.49 0 0 0 2.27 1.25l-.11-.18.11.19-.11-.18.11.19c.12-.08 8.68-5.17 23.05-5.17a64.64 64.64 0 0 1 12.34 1.21 1.5 1.5 0 0 0 1.51-2.34l-1.23.86.29-1.47a68.31 68.31 0 0 0-12.91-1.26c-15.33 0-24.45 5.51-24.6 5.6l.78 1.28h1.49a9.81 9.81 0 0 1 1.68-5 11.21 11.21 0 0 1 3.85-3.52 19.71 19.71 0 0 1 7.79-2.29 27.67 27.67 0 0 1 3.09-.17 22.92 22.92 0 0 1 13.17 3.91 20.27 20.27 0 0 1 3.17 2.68c.35.36.6.65.76.85l.18.22v.05l.47-.34-.47.34.47-.34-.47.34 1.22-.87.29-1.47-.29 1.47" fill="#090e40"/>
  <path d="M227.44 502.27c-6.8-.08-14.07-8.54-14.07-8.54l-15.85 9.46a13.23 13.23 0 0 0 9.83 8.2c7.63 1.5 20-4.59 20-4.59Z" fill="#273d7d"/>
  <path d="M227.44 502.27v-1.5a10.64 10.64 0 0 1-4.42-1.22 26.74 26.74 0 0 1-6-4.25c-.79-.71-1.43-1.36-1.87-1.82l-.5-.54-.13-.14a1.49 1.49 0 0 0-1.91-.31l-15.85 9.45a1.5 1.5 0 0 0-.66 1.75 13.84 13.84 0 0 0 2.31 4 14.6 14.6 0 0 0 8.65 5.2 15.34 15.34 0 0 0 3 .27 38.39 38.39 0 0 0 12-2.5 61.6 61.6 0 0 0 6-2.48 1.5 1.5 0 0 0 .84-1.33l.05-4.53a1.49 1.49 0 0 0-1.48-1.52v1.5h-1.5l-.05 4.54h1.5l-.66-1.34h-.1a61.54 61.54 0 0 1-6.26 2.5 34.58 34.58 0 0 1-10.4 2.13 11.82 11.82 0 0 1-2.38-.22 11.5 11.5 0 0 1-6.9-4.13 12.64 12.64 0 0 1-1.42-2.19c-.14-.29-.24-.52-.3-.67l-.06-.17-.78.27.78-.26-.78.27.78-.26-1.42.47.77 1.29 15.85-9.53-.77-1.29-1.14 1a37.38 37.38 0 0 0 4.69 4.43 27.05 27.05 0 0 0 4.79 3.11 13.72 13.72 0 0 0 5.72 1.52v-1.5h-1.5Z" fill="#090e40"/>
  <path d="M227.11 502.06c-2.19 7.49-16.62 2.86-16.62 2.86l-10.3 11.17c41.46 14.78 48.59-21.76 48.59-21.76-7.53-.17-14.78 2.22-21.67 7.73Z" fill="#273d7d"/>
  <path d="m227.11 502.06-1.44-.42a3.75 3.75 0 0 1-.82 1.49 4.84 4.84 0 0 1-2.29 1.29 11.65 11.65 0 0 1-3.35.41 27.39 27.39 0 0 1-5.67-.67c-.78-.17-1.44-.34-1.9-.46l-.53-.15h-.13a1.52 1.52 0 0 0-1.56.42l-10.3 11.17a1.48 1.48 0 0 0-.35 1.37 1.51 1.51 0 0 0 1 1.06 55.81 55.81 0 0 0 18.64 3.6 31.67 31.67 0 0 0 16.2-4.17 33 33 0 0 0 12.61-14 36.7 36.7 0 0 0 3-8.38 1.5 1.5 0 0 0-1.43-1.79H248c-7.59 0-15 2.56-21.84 8.07a1.47 1.47 0 0 0-.5.75l1.44.42.93 1.17c6.44-5.14 13.05-7.4 20-7.41h.73v-1.5l-1.47-.28a35.5 35.5 0 0 1-5.62 12.35 28 28 0 0 1-8.78 8.07 28.68 28.68 0 0 1-14.59 3.64 52.71 52.71 0 0 1-17.63-3.43l-.5 1.41 1.1 1 10.3-11.17-1.1-1-.46 1.43s1.18.38 2.88.75a31.28 31.28 0 0 0 6.3.73 13.36 13.36 0 0 0 5.52-1 7.38 7.38 0 0 0 2.32-1.66 6.77 6.77 0 0 0 1.5-2.68l-1.44-.42.93 1.17Z" fill="#090e40"/>
  <path d="M280.29 488.42s.6-8.26-7.38-11.28-17.81-.22-17.81-.22l9.43 9Z" fill="#273d7d"/>
  <path d="m280.29 488.42 1.49.11v-.51a14.57 14.57 0 0 0-1.23-5.71 12.25 12.25 0 0 0-2.52-3.67 13.07 13.07 0 0 0-4.61-2.91 25.83 25.83 0 0 0-9.08-1.49 39.1 39.1 0 0 0-9.68 1.24 1.5 1.5 0 0 0-.62 2.53l9.44 9a1.52 1.52 0 0 0 .8.4l15.75 2.48a1.53 1.53 0 0 0 1.17-.31 1.49 1.49 0 0 0 .56-1.07l-1.49-.11.23-1.48-15.29-2.4-9.1-8.7-1 1.08.41 1.45a36.1 36.1 0 0 1 8.82-1.12 22.67 22.67 0 0 1 8 1.3 9.93 9.93 0 0 1 3.55 2.23 9.7 9.7 0 0 1 2.42 4.17 11.66 11.66 0 0 1 .45 3.08v.29l1.5.11.23-1.48Z" fill="#090e40"/>
  <path d="M230.66 487.83s-10.13 8.23-2.19 13.09c0 0 10.29-9.17 30.55-6.74 8.37 1 13.41 1.79 24.41 8.41 0 0 6.63-15.68-17-19s-35.79 4.27-35.79 4.27" fill="#273d7d"/>
  <path d="m230.66 487.83-.95-1.16a22.94 22.94 0 0 0-2.82 2.86 15.39 15.39 0 0 0-2 3 8.58 8.58 0 0 0-1 3.75 6.09 6.09 0 0 0 .9 3.21 8.4 8.4 0 0 0 2.85 2.72 1.52 1.52 0 0 0 1.78-.16l-.31-.36.31.36-.31-.36.31.36a24.12 24.12 0 0 1 5.79-3.41 42 42 0 0 1 17.06-3.36 54.37 54.37 0 0 1 6.53.4 58.4 58.4 0 0 1 11 2 58.5 58.5 0 0 1 12.86 6.16 1.46 1.46 0 0 0 1.24.14 1.5 1.5 0 0 0 .92-.84 14.88 14.88 0 0 0 1-5.36 13.64 13.64 0 0 0-.74-4.49 13.79 13.79 0 0 0-5.46-6.84c-2.94-2-7.09-3.57-12.92-4.4a83.42 83.42 0 0 0-11.85-.87c-16.29 0-24.77 5.24-24.95 5.35l-.15.11.95 1.16.79 1.27-.25-.4.25.41-.25-.4.25.41c.07 0 8-4.9 23.36-4.9a80.56 80.56 0 0 1 11.43.84 33.1 33.1 0 0 1 8.77 2.33 13.32 13.32 0 0 1 6.33 5.11 10 10 0 0 1 1.44 5.32 12.67 12.67 0 0 1-.38 3.05c-.1.38-.19.68-.26.88a2.32 2.32 0 0 1-.08.22l1.39.59.77-1.29a62 62 0 0 0-13.51-6.45 60.52 60.52 0 0 0-11.49-2.16 58.29 58.29 0 0 0-6.89-.42 45 45 0 0 0-18.47 3.7 26.26 26.26 0 0 0-6.37 3.83l1 1.12.78-1.28a5.43 5.43 0 0 1-1.86-1.72 3.06 3.06 0 0 1-.46-1.65 5.66 5.66 0 0 1 .66-2.42 15.17 15.17 0 0 1 2.5-3.42c.43-.45.82-.82 1.09-1.07l.32-.28.09-.07-1-1.17.79 1.27-.79-1.27" fill="#090e40"/>
  <path fill="#1e2f6b" d="m240.71 486.23-.09.08-.18.17.24-.06.02-.13.01-.06"/>
  <path d="M206 549.08a1.55 1.55 0 1 1-1.42 1.66 1.55 1.55 0 0 1 1.42-1.66Z" fill="#090e40"/>
  <path d="M289.64 587.54c-2.91 3.17-1.84 4.14-.26 6 1.39 1.66 3.95 1.24 7.59-1.13-.49.44-3.14 3.86-3.67 4.29-13.12 11.18-17.66 9.72-17.56 9.16.07-1.27 0-7.26 13.9-18.34" fill="#ffdd92"/>
  <path d="M193.72 447.3a2.88 2.88 0 0 1-.35 1L178 476.24l-2.8 5.08a3 3 0 0 1-2.63 1.54 2.65 2.65 0 0 1-.56-.05c-13.32-2.55-23-9.33-32.41-15.89s-18.28-12.79-30.47-14.77a3 3 0 0 1-1.34-.58l-.14.26a3.75 3.75 0 0 0-.06 3.45 3.82 3.82 0 0 0 .4.64 3.78 3.78 0 0 0 2.38 1.4c12 1.85 20.9 7.95 30.28 14.4s19.32 13.29 32.82 15.76a3.91 3.91 0 0 0 .68.06 3.76 3.76 0 0 0 3.29-2l2.76-5.1 15.2-28a3.75 3.75 0 0 0 .07-3.45 4.6 4.6 0 0 0-.4-.64 3.8 3.8 0 0 0-1.3-1.06" fill="#ced0d7"/>
  <path d="M187 435c-7.78-2.39-14.31-6.94-21.82-12.19l-2.38-1.66a1.5 1.5 0 1 0-1.71 2.46l2.37 1.66c7.5 5.23 14.3 10 22.65 12.6A1.5 1.5 0 0 0 187 435Z" fill="#090e40"/>
  <path d="M172.52 481.36a1.32 1.32 0 0 1-.28 0c-13-2.49-22.58-9.18-31.83-15.65-9.55-6.68-18.56-13-31.09-15a1.5 1.5 0 0 1-1.07-2.21l18.23-33a1.49 1.49 0 0 1 1.31-.77h.28c13 2.49 22.57 9.18 31.82 15.65 9.55 6.68 18.57 13 31.1 15a1.53 1.53 0 0 1 1.11.83 1.5 1.5 0 0 1 0 1.38l-18.23 33a1.49 1.49 0 0 1-1.31.77" fill="#83ce3a"/>
  <path d="M127.79 416.2c25.67 4.91 37.52 26.54 63 30.67l-15.42 27.92-2.81 5.07c-25.68-4.91-37.52-26.54-63-30.67L127.33 417l.46-.83m0-3a3 3 0 0 0-2.63 1.54l-.46.84-17.77 32.16a3 3 0 0 0 2.15 4.41c12.19 2 21.07 8.19 30.47 14.77s19.09 13.34 32.41 15.89a2.65 2.65 0 0 0 .56.05 3 3 0 0 0 2.63-1.54l2.8-5.08 15.42-27.92a3 3 0 0 0-2.14-4.41c-12.19-2-21.07-8.19-30.48-14.77s-19.08-13.34-32.4-15.89a3.64 3.64 0 0 0-.56-.05" fill="#0b1236"/>
  <path d="M109.57 449.17h.21l-.2-.05" fill="#a8dd75"/>
  <path d="m109.56 449.19.25.05h-.21m0 0" fill="#555a73"/>
  <path d="m184.24 445.37-15.4 27.89-2.74 4.95a54.24 54.24 0 0 0 6 1.57h.36l2.81-5.07 15.42-27.92h-.24a50.36 50.36 0 0 1-6.27-1.46" fill="#a8dd75"/>
  <path d="M172.38 479.84h.14-.14m-.13 0h.11-.11m-.15 0h.11-.11m12.14-34.38a50.36 50.36 0 0 0 6.27 1.46 50.78 50.78 0 0 1-6.27-1.46" fill="#555a73"/>
  <path d="m127.79 416.2-.46.83-17.77 32.16a50.84 50.84 0 0 1 6.7 1.56l17.47-31.63.71-1.16a39.21 39.21 0 0 0-6.65-1.76Z" fill="#75b234"/>
  <path d="M120.49 444.56c18.32 4.95 30.08 21.77 48.39 26.73l10.93-19.78c-18.32-5-30.07-21.78-48.39-26.73Z" fill="#83ce3a"/>
  <path d="M123.49 445.49c16 5.62 27.16 19.9 43.31 25.18a2.6 2.6 0 0 0 3.09-1.22l8.38-15.16a2.6 2.6 0 0 0-1.45-3.71c-16-5.62-27.16-19.9-43.32-25.18a2.6 2.6 0 0 0-3.09 1.21L122 441.77a2.62 2.62 0 0 0 1.49 3.72Z" fill="#75b234"/>
  <path d="m123.49 445.49-.5 1.41c7.71 2.71 14.39 7.58 21.21 12.52s13.77 9.93 22.14 12.67a4 4 0 0 0 1.27.21 4.11 4.11 0 0 0 3.6-2.12l8.37-15.18a4 4 0 0 0 .51-2 4.12 4.12 0 0 0-2.78-3.89c-7.71-2.7-14.39-7.57-21.2-12.51S142.33 426.71 134 424a4.12 4.12 0 0 0-4.87 1.92l-8.38 15.16a4.09 4.09 0 0 0 2.25 5.82l.5-1.41.5-1.42a1.13 1.13 0 0 1-.78-1.06 1 1 0 0 1 .14-.51l8.37-15.16a1.11 1.11 0 0 1 1-.57 1.33 1.33 0 0 1 .34.05c7.8 2.55 14.51 7.32 21.32 12.26s13.71 10 22 12.91a1.11 1.11 0 0 1 .64 1.58l-8.38 15.16a1.09 1.09 0 0 1-1 .57 1.06 1.06 0 0 1-.34-.06c-7.79-2.54-14.51-7.32-21.31-12.25s-13.71-10-22-12.92Z" fill="#090e40"/>
  <path d="M144.34 444.82a6.64 6.64 0 1 0 9-2.6 6.65 6.65 0 0 0-9 2.6Z" fill="#bdef84"/>
  <path d="m144.34 444.82-1.34-.72a8.14 8.14 0 0 0 14.28 7.9 8.15 8.15 0 0 0-3.19-11.06A8.12 8.12 0 0 0 143 444.1l1.31.72 1.31.73a5.14 5.14 0 0 1 9.64 2.49 5.07 5.07 0 0 1-.64 2.48 5.13 5.13 0 0 1-4.5 2.65 5.07 5.07 0 0 1-2.48-.64 5.13 5.13 0 0 1-2-7Z" fill="#0b1236"/>
  <path d="M144.34 444.82a6.64 6.64 0 0 1 9-2.6 6.79 6.79 0 0 1 1.8 1.46 6.63 6.63 0 0 0-6.24 10.87 6.43 6.43 0 0 1-2-.7 6.65 6.65 0 0 1-2.56-9.03Z" fill="#a5cc72"/>
  <path d="M132.43 429.81a1.55 1.55 0 1 0 2.16-.3 1.54 1.54 0 0 0-2.16.3ZM164.72 465a1.55 1.55 0 1 0 2.17-.29 1.54 1.54 0 0 0-2.17.29Z" fill="#0b1236"/>
  <path d="M159 418.66a1.54 1.54 0 1 1-2.18.06 1.54 1.54 0 0 1 2.18-.06Z" fill="#090e40"/>
  <path d="m144.34 444.82-1.34-.72a8.14 8.14 0 0 0 14.28 7.9 8.15 8.15 0 0 0-3.19-11.06A8.12 8.12 0 0 0 143 444.1l1.31.72 1.31.73a5.14 5.14 0 0 1 9.64 2.49 5.07 5.07 0 0 1-.64 2.48 5.13 5.13 0 0 1-4.5 2.65 5.07 5.07 0 0 1-2.48-.64 5.13 5.13 0 0 1-2-7Z" fill="#0b1236"/>
  <path d="M163.47 499.92h-.38a3.19 3.19 0 0 1 .35.69l8.23 23.25 1.5 4.23a3 3 0 0 1-1 3.37c-8.42 6.49-17.4 8.64-26.08 10.72s-16.63 4-23.91 9.91a2.86 2.86 0 0 1-1.18.59 2.88 2.88 0 0 0 1.77 1.38 2.27 2.27 0 0 0 .58.1h.18a2.93 2.93 0 0 0 1.85-.66c7.25-6 15.32-8 23.87-10.13s17.6-4.36 26-10.9a2.9 2.9 0 0 0 .94-3.27l-1.57-4.2-8.42-23.18a2.9 2.9 0 0 0-2-1.81 3.78 3.78 0 0 0-.57-.1h-.19" fill="#ced0d7"/>
  <path d="M151.64 497.39c-5.32 3.24-11.26 4.69-18.16 6.33l-2.18.53a1.5 1.5 0 0 0 .71 2.91l2.17-.52c6.88-1.65 13.18-3.14 19-6.68a1.5 1.5 0 0 0-1.56-2.57Z" fill="#090e40"/>
  <path d="M120.29 551.29a1.45 1.45 0 0 1-.41-.06 1.51 1.51 0 0 1-1-.94l-9.73-27.48a1.47 1.47 0 0 1 .5-1.68c8.17-6.29 17-8.4 25.51-10.45 8.73-2.08 17-4.06 24.51-10.21a1.51 1.51 0 0 1 1-.34 1.39 1.39 0 0 1 .4.06 1.49 1.49 0 0 1 1 .94l9.74 27.48a1.5 1.5 0 0 1-.5 1.68c-8.17 6.3-17 8.41-25.52 10.45-8.72 2.09-17 4.06-24.5 10.21a1.54 1.54 0 0 1-.95.34" fill="#83ce3a"/>
  <path d="m160.61 501.63 8.24 23.25 1.49 4.23c-16 12.33-34.61 8.08-50 20.68L110.8 523l-.25-.7c16-12.33 34.62-8.08 50.06-20.68m0-3a3 3 0 0 0-1.9.68c-7.28 5.93-15.35 7.87-23.91 9.92s-17.65 4.22-26.08 10.71a3 3 0 0 0-1 3.37l.25.7 9.49 26.78a3 3 0 0 0 2 1.89 3.16 3.16 0 0 0 .81.11 2.94 2.94 0 0 0 1.89-.68c7.28-5.93 15.36-7.87 23.91-9.91s17.66-4.23 26.08-10.72a3 3 0 0 0 1-3.37l-1.5-4.23-8.23-23.25a3 3 0 0 0-2-1.89 3.22 3.22 0 0 0-.81-.11" fill="#0b1236"/>
  <path d="m120.41 549.69-.13.08.12-.1" fill="#a8dd75"/>
  <path d="m120.44 549.67-.12.1.15-.12" fill="#555a73"/>
  <path d="m160.61 501.63-.08.06a39.67 39.67 0 0 1-4.06 2.88l8.23 23.22 1.46 4.12a41.07 41.07 0 0 0 4.25-2.86l-1.49-4.23-8.24-23.25" fill="#a8dd75"/>
  <path d="M160.46 501.75a39.55 39.55 0 0 1-4.06 2.87 39.67 39.67 0 0 0 4.06-2.88m.15-.12 8.24 23.25 1.49 4.23-1.49-4.23-8.24-23.25" fill="#555a73"/>
  <path d="m110.55 522.31.25.7 9.49 26.78a39.1 39.1 0 0 1 4.34-3.07l-9.34-26.34-.32-1a50.75 50.75 0 0 0-4.42 2.93Z" fill="#75b234"/>
  <path d="M123.22 541.09c12.26-8.06 28-6.23 40.29-14.28l-5.83-16.47c-12.27 8.05-28 6.22-40.3 14.27q2.93 8.24 5.84 16.48Z" fill="#83ce3a"/>
  <path d="M125.29 539.83c11.45-6.35 25.45-5.5 36.8-12.14a2 2 0 0 0 .88-2.41l-4.47-12.62a2 2 0 0 0-2.9-1.07c-11.44 6.36-25.45 5.5-36.79 12.14a2 2 0 0 0-.89 2.41l4.48 12.63a2 2 0 0 0 2.89 1.06Z" fill="#75b234"/>
  <path d="m125.29 539.83.73 1.31c5.47-3 11.67-4.4 18-5.81s12.86-2.87 18.8-6.34a3.52 3.52 0 0 0 1.74-3 3.69 3.69 0 0 0-.2-1.17l-4.48-12.62a3.42 3.42 0 0 0-1.32-1.72 3.48 3.48 0 0 0-2-.61 3.57 3.57 0 0 0-1.73.45c-5.47 3-11.68 4.4-18 5.81S124 519 118.05 522.44a3.51 3.51 0 0 0-1.74 3 3.39 3.39 0 0 0 .2 1.17l4.49 12.66a3.5 3.5 0 0 0 1.3 1.73 3.49 3.49 0 0 0 3.72.16l-.73-1.31-.73-1.31a.47.47 0 0 1-.27.08.59.59 0 0 1-.3-.09.49.49 0 0 1-.18-.24l-4.47-12.63v-.17a.5.5 0 0 1 .25-.44c5.41-3.17 11.58-4.6 17.93-6s12.86-2.8 18.84-6.12a.61.61 0 0 1 .28-.07.48.48 0 0 1 .29.09.47.47 0 0 1 .19.24l4.47 12.62v.17a.52.52 0 0 1-.26.45c-5.41 3.17-11.58 4.6-17.93 6s-12.85 2.8-18.84 6.12Z" fill="#090e40"/>
  <path d="M136 527.28a4.68 4.68 0 1 0 2.85-6 4.7 4.7 0 0 0-2.85 6Z" fill="#bdef84"/>
  <path d="m136 527.28-1.41.5a6.17 6.17 0 1 0-.36-2.07 6.19 6.19 0 0 0 .36 2.07l1.41-.5 1.42-.5a3.14 3.14 0 0 1-.19-1.07 3.19 3.19 0 0 1 2.12-3 3.38 3.38 0 0 1 1.07-.18 3.17 3.17 0 0 1 3 2.12 3.28 3.28 0 0 1 .18 1.06 3.17 3.17 0 0 1-2.12 3 3 3 0 0 1-1.06.19 3.19 3.19 0 0 1-3-2.12Z" fill="#0b1236"/>
  <path d="M136.12 527.29a4.5 4.5 0 0 1 2.74-5.76 4.38 4.38 0 0 1 1.55-.25 4.5 4.5 0 0 0 2.71 8.07 4.57 4.57 0 0 1-1.25.68 4.51 4.51 0 0 1-5.75-2.74Z" fill="#a5cc72"/>
  <path d="M121.69 526.68a1.55 1.55 0 1 0 1.22-1.82 1.56 1.56 0 0 0-1.22 1.82Zm35.1-1.35a1.55 1.55 0 1 0 1.22-1.82 1.55 1.55 0 0 0-1.22 1.82Z" fill="#0b1236"/>
  <path d="M127.24 505.35a1.55 1.55 0 1 1 .27 3.09 1.55 1.55 0 0 1-.27-3.09Z" fill="#090e40"/>
  <path d="m136 527.28-1.41.5a6.17 6.17 0 1 0-.36-2.07 6.19 6.19 0 0 0 .36 2.07l1.41-.5 1.42-.5a3.14 3.14 0 0 1-.19-1.07 3.19 3.19 0 0 1 2.12-3 3.38 3.38 0 0 1 1.07-.18 3.17 3.17 0 0 1 3 2.12 3.28 3.28 0 0 1 .18 1.06 3.17 3.17 0 0 1-2.12 3 3 3 0 0 1-1.06.19 3.19 3.19 0 0 1-3-2.12Z" fill="#0b1236"/>
  <path d="M622.45 461.9v6.56a52.26 52.26 0 0 1 0 73.51v2.41a50.86 50.86 0 0 0 0-82.48" fill="#d4d8e5"/>
  <path d="M622.45 542a52.14 52.14 0 0 1-10.45 8.19 50.08 50.08 0 0 0 10.45-5.81V542m-13.73-87.11v3.58a52.51 52.51 0 0 1 13.73 10v-6.57a51 51 0 0 0-13.73-7" fill="#b1b9d0"/>
  <path d="M605.72 454v3c1 .44 2 .9 3 1.4v-3.58q-1.49-.5-3-.9" fill="#111b44"/>
  <path d="M592.7 452.26h-1.15v.94a52.42 52.42 0 0 1 14.17 3.8v-3a50.5 50.5 0 0 0-13-1.7" fill="#513f85"/>
  <path d="M591.55 452.27c-1 0-2 .08-3 .16v.5c1 .07 2 .16 3 .28v-.94" fill="#111b44"/>
  <path d="M588.55 452.43c-1.14.09-2.28.22-3.42.4h.08v1.5-1.5c1.11 0 2.23 0 3.33.1v-.5" fill="#6e737f"/>
  <path d="M585.16 556.08a50.9 50.9 0 1 1 13.58-1.85 51 51 0 0 1-13.58 1.85" fill="#bbe5ff"/>
  <path d="M585.21 455.83a49.39 49.39 0 1 1-13.21 1.79 49.37 49.37 0 0 1 13.18-1.79m0-3a52.37 52.37 0 1 0 50.45 38.42 52.65 52.65 0 0 0-50.45-38.42" fill="#0b1236"/>
  <path d="M572 457.62c-1.25.35-2.46.75-3.65 1.18a49.35 49.35 0 0 1 26.21 94.85c1.25-.24 2.5-.52 3.75-.87A49.37 49.37 0 0 0 572 457.62Z" fill="#9fc4d6"/>
  <path d="M572 457.62c1.25-.34 2.49-.62 3.74-.86A49.35 49.35 0 0 0 602 551.6c-1.19.44-2.41.84-3.65 1.18A49.37 49.37 0 1 1 572 457.62Z" fill="#dcf5ff"/>
  <path d="M586.27 478.29h-2.04l-1.12.09-.46.05c-.38 0-.76.09-1.13.15h-.4c-.37.06-.74.12-1.11.2l-.43.08-1.22.28-.26.06c-.48.13-1 .26-1.42.41l-.44.14-1 .34-.42.16-1 .41-.31.14c-.41.17-.82.36-1.22.55h-.1a31 31 0 0 0-4.45 2.6l-.21.14-1 .72-.39.3-.15.12c-.21.16-.42.33-.63.52l-.21.16-.1.09-.12.11c-.35.31-.69.61-1 .91l-.54.53-.3.3-.35.36-.11.12-.07.07c-.3.31-.58.63-.87 1l-.11.13-.14.17-.16.19-.06.06-.07.09-.06.08-.14.17-.07.08-.09.12-.05.07-.26.34-.34.46-.13.16v.06l-.08.11v.05l-.1.16-.08.11-.05.07-.17.24-.53.68-.06.08-.09.14-.13.21c-.17.26-.33.53-.49.8v.08l-.06.11v.07a3.84 3.84 0 0 0-.22.39c-.17.28-.31.55-.44.8l-.08.16c-.11.2-.21.41-.31.62l-.11.22c-.09.17-.17.35-.26.53l-.12.26-.06.15-.17.41v.13l-.18.42-.18.44-.2.56v.09c0 .1-.07.21-.11.32s-.14.38-.2.57v.05c0 .1-.07.2-.1.3l-.07.25-.07.22c-.08.26-.15.52-.22.78s-.13.48-.19.73v.52c0 .15-.08.3-.11.46s0 .17 0 .27c-.06.28-.11.56-.16.84s-.06.38-.09.57v.41c0 .22 0 .44-.08.67s-.07.54-.1.82v3.11a32.39 32.39 0 0 0 .2 3.56v.89c0 .17.05.35.08.52s0 .22 0 .33.06.36.09.51.06.35.1.52.09.48.15.73v.12q.11.49.24 1v.14l.05.18c.07.24.13.48.2.72v.17c.08.25.16.5.25.76v.11l.09.26v.28c.13.38.25.69.37 1l.12.31.05.11c.15.37.3.74.46 1.1l.05.12.12.23c.23.49.47 1 .72 1.45l.14.27.1.21.11.19c.12.22.25.43.37.64l.1.17v.06c.16.26.31.53.48.79s.39.61.6.92l.14.21.32.42c.36.5.74 1 1.13 1.48l.23.28c.29.36.6.7.91 1l.2.23a32.5 32.5 0 0 0 56.35-22 3 3 0 0 0-.88-2.13 3 3 0 0 0-2.12-.88h-26.5v-26.5a3 3 0 0 0-.87-2.13 3 3 0 0 0-.87-.59l-.09-.05a2.69 2.69 0 0 0-.46-.14h-.1a3.07 3.07 0 0 0-.6-.07" fill="#98bbd7"/>
  <path d="M581.62 541.38a31 31 0 0 1 0-62 1.55 1.55 0 0 1 1.08.44 1.52 1.52 0 0 1 .46 1.06v28h28a1.5 1.5 0 0 1 1.5 1.5 31.06 31.06 0 0 1-31 31Z" fill="#2f96f4"/>
  <path d="M581.66 480.87v29.51h29.51a29.52 29.52 0 0 1-29.51 29.46 29.51 29.51 0 0 1 0-59m0-3a32.51 32.51 0 1 0 32.51 32.55 3 3 0 0 0-3-3h-26.51v-26.51a3 3 0 0 0-3-3Z" fill="#0b1236"/>
  <path d="M586.28 535.22a29.51 29.51 0 0 1-23-47.91 29.5 29.5 0 1 0 41.46 41.46 29.39 29.39 0 0 1-18.46 6.45Z" fill="#bbe5ff"/>
  <path d="M590.81 502.66a1.51 1.51 0 0 1-1.5-1.51l.05-29.5a1.46 1.46 0 0 1 .44-1.06 1.5 1.5 0 0 1 1.06-.44 31 31 0 0 1 31 31.05 1.5 1.5 0 0 1-1.5 1.5Z" fill="#2f96f4"/>
  <path d="M590.86 471.65a29.51 29.51 0 0 1 29.46 29.55h-29.51l.05-29.51m0-3a3 3 0 0 0-2.12.88 3 3 0 0 0-.88 2.12l-.05 29.5a3 3 0 0 0 3 3h29.5a3 3 0 0 0 2.12-.88 3 3 0 0 0 .88-2.12 32.55 32.55 0 0 0-32.46-32.55Z" fill="#0b1236"/>
  <path d="M590.86 471.65v1.4a29.5 29.5 0 0 1 23.59 28.14h5.88a29.51 29.51 0 0 0-29.47-29.54Z" fill="#277fc1"/>
  <path d="M559.94 531.89a1.5 1.5 0 0 1-1.07-.48 30.89 30.89 0 0 1-8.21-21.08v-1.44c0-.32 0-.6.06-.88v-.67c.09-1 .23-1.87.4-2.75l.14-.72a28.7 28.7 0 0 1 1.15-4l.22-.6c.06-.15.11-.28.17-.41s.16-.41.25-.61.16-.38.24-.56l.09-.2c.09-.19.18-.37.26-.55l.27-.53a2.89 2.89 0 0 1 .2-.39c.13-.27.28-.53.43-.79s.13-.23.2-.35l.12-.21c.18-.31.35-.58.52-.85a2.36 2.36 0 0 1 .17-.26l.59-.88.18-.27.52-.69.06-.08c.12-.16.18-.25.26-.34l.22-.28.48-.58.23-.28.84-.93a31.07 31.07 0 0 1 22.62-9.8 1.54 1.54 0 0 1 1.07.44 1.51 1.51 0 0 1 .45 1.06v28.35a1.5 1.5 0 0 1-.46 1.07l-17.28 16.89-4.41 4.3a1.49 1.49 0 0 1-1 .42Z" fill="#2f96f4"/>
  <path d="M581.67 480.86v28.34l-17.29 16.9-4.4 4.29a29.4 29.4 0 0 1-7.83-20.06v-1.39c0-.26 0-.53.06-.78v-.73c.08-.87.21-1.73.37-2.58.05-.23.09-.46.14-.69a27.26 27.26 0 0 1 1.09-3.81c.07-.21.14-.41.22-.61s.09-.22.14-.34.17-.41.26-.62a4.77 4.77 0 0 1 .22-.52l.07-.15.25-.54c.09-.18.19-.36.28-.55a3.37 3.37 0 0 1 .17-.32c.13-.27.28-.53.43-.79a2.69 2.69 0 0 1 .16-.29l.16-.27c.16-.27.32-.55.5-.81l.1-.16c.19-.31.4-.62.62-.92l.14-.21.56-.75.19-.25c.09-.11.16-.22.25-.31s.3-.38.45-.56l.24-.28c.26-.29.52-.59.79-.88a29.4 29.4 0 0 1 21.53-9.34m0-3A32.59 32.59 0 0 0 558 488.12l-.06.06c-.3.32-.58.64-.87 1l-.25.3-.5.61-.2.25-.26.33c-.23.31-.43.57-.62.84l-.12.17-.1.15c-.19.27-.38.55-.58.86-.06.09-.14.2-.22.34l-.49.8v.08l-.06.12v.07c-.08.13-.16.26-.23.39s-.3.55-.43.8a3.19 3.19 0 0 0-.23.45q-.15.28-.27.54l-.26.54-.12.25c-.09.2-.17.39-.25.59l-.25.6-.18.44-.23.64a30.94 30.94 0 0 0-1.21 4.23c0 .14-.06.3-.09.46v.25c-.19 1-.32 1.92-.42 2.88v.73c0 .29 0 .59-.06.89v1.51a32.42 32.42 0 0 0 8.61 22.14 3 3 0 0 0 2.13 1H560a3 3 0 0 0 2.09-.85l4.4-4.29 17.29-16.9a3 3 0 0 0 .91-2.14V480.9a3 3 0 0 0-3-3Z" fill="#0b1236"/>
  <path fill="#2f96f4" d="m588.04 514.29 12.31-.03"/>
  <path d="M588 515.79h12.31a1.5 1.5 0 1 0 0-3h-12.3a1.5 1.5 0 0 0 0 3M605.8 514a1.55 1.55 0 1 1-3.07.42 1.55 1.55 0 0 1 3.07-.42Z" fill="#0b1236"/>
  <path d="M559.94 531.89a1.5 1.5 0 0 1-1.07-.48 29.14 29.14 0 0 1-2.15-2.62c-.18-.23-.35-.45-.5-.68l-.18-.26q-.31-.47-.6-.93c-.16-.23-.33-.51-.48-.78-.07-.11-.18-.29-.28-.47l-.25-.45c-.37-.68-.71-1.37-1-2.05-.2-.44-.39-.87-.56-1.32s-.31-.77-.45-1.19l-.06-.17c-.06-.18-.12-.35-.17-.53s-.15-.44-.22-.7-.19-.67-.28-1-.2-.81-.3-1.22c0-.22-.1-.47-.15-.72l-.06-.36c0-.19-.07-.37-.09-.55a9.07 9.07 0 0 1-.14-.91 3.74 3.74 0 0 1 0-.39c0-.33-.08-.66-.1-1-.08-.87-.12-1.8-.12-2.77v-1.09a3.47 3.47 0 0 1 0-.43v-.49a2.19 2.19 0 0 1 0-.36c0-.24 0-.48.07-.73 0-.45.1-.91.17-1.38 0-.28.08-.59.14-.9s.09-.53.16-.82a1.79 1.79 0 0 1 .05-.25c0-.08 0-.23.08-.38l.1-.34v-.07c0-.19.09-.38.14-.57s.12-.46.2-.72l.18-.61c0-.14.08-.27.13-.41.15-.47.3-.87.45-1.27v-.09c.15-.39.3-.76.46-1.14l.23-.56a1.73 1.73 0 0 1 .12-.25q.49-1.09 1.11-2.16c.18-.34.41-.72.64-1.09s.49-.79.77-1.21l.23-.32.06-.11a2.61 2.61 0 0 1 .19-.27l.22-.29c.14-.18.27-.36.41-.53s.19-.26.31-.41l.11-.13.18-.23c.45-.54.88-1 1.32-1.49l.12-.14.4-.4c.53-.56 1.19-1.18 2-1.84l.22-.17c.2-.18.41-.35.63-.53a31 31 0 0 1 19.32-6.77 1.58 1.58 0 0 1 1.08.44 1.53 1.53 0 0 1 .45 1.06v28.34a1.5 1.5 0 0 1-.46 1.07l-17.28 16.9-4.4 4.3a1.54 1.54 0 0 1-1 .42Z" fill="#83ce3a"/>
  <path d="M581.65 480.86v28.34l-17 16.59-.32.31-4.4 4.29a25 25 0 0 1-2.07-2.52 6.62 6.62 0 0 1-.46-.62c-.25-.37-.5-.74-.74-1.12s-.3-.48-.44-.72-.18-.29-.26-.44l-.27-.48c-.35-.64-.67-1.28-1-1.94-.17-.4-.35-.81-.52-1.23s-.3-.77-.44-1.15c-.07-.22-.14-.42-.2-.64s-.15-.45-.22-.67-.19-.66-.27-1-.19-.79-.28-1.18c-.06-.22-.1-.42-.14-.64l-.06-.35a4.89 4.89 0 0 1-.09-.53c0-.29-.1-.57-.13-.87v-.38c0-.31-.07-.62-.1-.95-.08-.87-.11-1.75-.11-2.64v-2.23c0-.23 0-.45.06-.67 0-.46.1-.9.16-1.34 0-.28.08-.56.13-.83s.1-.56.17-.84v-.16c0-.1.05-.21.07-.31v-.11l.05-.19c.06-.23.1-.44.17-.65s.11-.47.18-.7l.08-.27c0-.13.09-.26.12-.39s.08-.26.13-.4c.12-.38.26-.76.4-1.14V500c.13-.37.27-.72.43-1.08v-.05c.08-.18.16-.35.23-.52l.07-.15a21.61 21.61 0 0 1 1.07-2.09c.19-.35.39-.7.61-1s.48-.78.74-1.17l.25-.35v-.06l.06-.1v-.05l.08-.1.58-.77c.1-.14.21-.27.32-.41l.27-.35c.4-.48.8-.94 1.22-1.38.15-.17.3-.33.46-.48.6-.63 1.24-1.22 1.9-1.79l.17-.14c.21-.18.41-.35.63-.52a29.24 29.24 0 0 1 18.38-6.45m0-3a32.5 32.5 0 0 0-19.93 7.01l-.63.52-.21.17a28.16 28.16 0 0 0-2.06 1.94c-.15.14-.28.28-.42.43l-.1.11c-.47.49-.91 1-1.35 1.52l-.07.09-.13.17-.14.16-.36.46-.38.51-.16.21v.06a2.08 2.08 0 0 0-.3.43v.07l-.17.23c-.35.52-.61.93-.84 1.31s-.47.78-.67 1.15a24.31 24.31 0 0 0-1.14 2.21 2.43 2.43 0 0 0-.16.37l-.06.12c-.06.13-.11.27-.17.41-.15.37-.29.71-.42 1.05 0 .1-.08.2-.11.3-.15.39-.29.78-.42 1.18-.06.17-.11.33-.16.5v.08l-.08.26v.07l-.05.17c-.08.25-.15.53-.22.81s-.1.37-.14.56v.36c0 .15-.09.32-.12.49s0 .16-.05.26c-.06.29-.11.57-.16.85s-.11.65-.16 1-.12.9-.16 1.39c0 .25-.06.51-.08.76v2.49c0 1 0 2 .12 2.94 0 .33.06.67.11 1 0 .14 0 .29.05.43 0 .31.09.62.14.92a5.73 5.73 0 0 0 .11.63v.27c0 .3.11.58.18.87s.19.83.3 1.25.19.71.29 1.06.16.51.25.76.11.35.17.53v.13c.18.53.34.94.5 1.32s.38.92.56 1.33c.34.75.7 1.47 1.08 2.17l.17.29.1.18c.1.18.2.35.31.52s.32.55.49.81.41.64.62 1l.15.22v.05c.18.26.36.5.54.73a31.3 31.3 0 0 0 2.24 2.73 3 3 0 0 0 2.13 1H560a3 3 0 0 0 2.09-.85l4.41-4.3.31-.3 17-16.6a3 3 0 0 0 .91-2.14v-28.34a3 3 0 0 0-3-3Z" fill="#0b1236"/>
  <path d="m564.7 525.79-.32.31-4.4 4.29a25 25 0 0 1-2.07-2.52c-.43-.56-.82-1.14-1.2-1.74-.15-.23-.3-.48-.44-.72s-.18-.29-.26-.44l-.27-.48c-.35-.64-.67-1.28-1-1.94-.17-.4-.35-.81-.52-1.23s-.3-.77-.44-1.15c-.07-.22-.14-.42-.2-.64s-.15-.45-.22-.67-.19-.66-.27-1-.19-.79-.28-1.18c-.06-.22-.1-.42-.14-.64l-.06-.35a4.89 4.89 0 0 1-.09-.53c0-.29-.1-.57-.13-.87v-.38c0-.31-.07-.62-.1-.95-.08-.87-.11-1.75-.11-2.64v-2.23c0-.16 0-.45.06-.67 0-.46.1-.9.16-1.34 0-.28.08-.56.13-.83s.1-.56.17-.84c0-.16.07-.32.1-.47v-.11a8.67 8.67 0 0 1 .22-.84c0-.23.11-.47.18-.7s.13-.44.2-.66.08-.26.13-.4c.12-.38.26-.76.4-1.14V500c.13-.37.27-.72.43-1.08v-.05l.3-.67a21.61 21.61 0 0 1 1.07-2.09c.19-.35.39-.7.61-1s.48-.78.74-1.17c.09-.13.19-.28.29-.41l.06-.1.11-.15.58-.77c.1-.14.21-.27.32-.41s.19-.25.3-.37c.4-.48.8-.94 1.22-1.38.15-.17.3-.33.46-.48.6-.63 1.24-1.22 1.9-1.79l.8-.66a29.5 29.5 0 0 0 1.37 38.42Z" fill="#bdef84"/>
  <path d="M559.89 516.15a1.55 1.55 0 1 1-1.75-1.33 1.56 1.56 0 0 1 1.75 1.33Zm54.2-25.23a1.55 1.55 0 1 1-1.75-1.33 1.55 1.55 0 0 1 1.75 1.33Z" fill="#0b1236"/>
</svg>
