<?xml version="1.0" encoding="utf-8"?>
<!-- Generator: Adobe Illustrator 26.0.3, SVG Export Plug-In . SVG Version: 6.00 Build 0)  -->
<svg version="1.1" id="Layer_1" xmlns="http://www.w3.org/2000/svg" xmlns:xlink="http://www.w3.org/1999/xlink" x="0px" y="0px"
	 viewBox="0 0 800 800" style="enable-background:new 0 0 800 800;" xml:space="preserve">
<style type="text/css">
	.st0{opacity:0.2;fill:#273D7D;enable-background:new    ;}
	.st1{fill:#0B1236;}
	.st2{fill:#B1B9D0;}
	.st3{fill:#111B44;}
	.st4{fill:#8C58C4;}
	.st5{fill:#C58FFF;}
	.st6{fill:#674899;}
	.st7{fill:#5B4087;}
	.st8{fill:#FFFFFF;}
	.st9{fill:#808080;}
	.st10{fill:#B3B3B3;}
	.st11{fill:#F2F2F2;}
	.st12{fill:#CCCCCC;}
	.st13{clip-path:url(#SVGID_00000121238619665613005080000007336096976681934467_);}
	.st14{fill:#C4C5CC;}
	.st15{fill:#CED0D7;}
	.st16{fill:#ACB0C2;}
	.st17{fill:#4B3777;}
	.st18{fill:#696A71;}
	.st19{fill:#91939A;}
	.st20{fill:#FFD000;}
	.st21{fill:#CEAA0B;}
	.st22{fill:#2F96F4;}
	.st23{fill:#287CCE;}
	.st24{fill:#D6332F;}
	.st25{fill:#AD2C30;}
	.st26{fill:#E4EBEF;}
	.st27{fill:#CBD1D3;}
	.st28{fill:#B9C0CA;}
	.st29{fill:#A57FE5;}
	.st30{fill:#D4D8E5;}
	.st31{fill:#ABAFBC;}
	.st32{fill:#83CE3A;}
	.st33{fill:#BBE5FF;}
	.st34{fill:#9FC4D6;}
	.st35{fill:#DCF5FF;}
	.st36{fill:#267CBC;}
	.st37{fill:#0B1336;}
	.st38{fill:#090E40;}
	.st39{fill:#BDEF84;}
	.st40{fill:#D392FF;}
	.st41{fill:#75B234;}
	.st42{fill:#B08E00;}
	.st43{fill:#FFD933;}
	.st44{fill:#3A3E66;}
	.st45{fill:#FFDD92;}
	.st46{fill:#273D7D;}
	.st47{fill:#1E2F6B;}
	.st48{fill:#A8DD75;}
	.st49{fill:#555A73;}
	.st50{fill:#A5CC72;}
	.st51{fill:#513F85;}
	.st52{fill:#6E737F;}
	.st53{fill:#98BBD7;}
	.st54{fill:#277FC1;}
</style>
<path class="st0" d="M165.4,593.1h-63.5c-0.5,0.9-0.8,1.9-0.8,2.9c0,21.9,134.9,39.7,301.3,39.7c165.7,0,300.2-17.6,301.3-39.4
	h-96.4c-0.5,0.1-1,0.1-1.5,0.1c-2.8,4-7.4,6.4-12.3,6.4c-0.5,0-1,0-1.6-0.1c-17.6-1.8-35.3-2.8-53-2.8c-37.8,0-75.5,4.3-112.3,13
	c-0.2,0.1-0.5,0.1-0.7,0.1c-0.7,0-1.3-0.2-1.9-0.6c-0.2-0.2-0.4-0.4-0.6-0.6c-0.6,0.8-1.5,1.2-2.4,1.2c-0.2,0-0.5,0-0.7-0.1
	c-36.8-8.7-74.5-13-112.3-13c-3.3,0-6.6,0-9.9,0.1c-2.7,1.7-5.5,3.1-8.6,4c-12.3,3.8-25.2,5.8-38.1,5.8c-16.9,0-33.8-3.8-47.6-13.7
	h-6.8c0.2,0.2,0.3,0.4,0.5,0.6c0.4,0.6,0.6,1.3,0.7,2v0.4l-0.3,7.8c0,0.8-0.2,1.5-0.6,2.2c-0.4,0.7-0.9,1.2-1.5,1.7
	c-1.4,1.1-3,2-4.8,2.6c-4.7,1.6-9.7,2.4-14.7,2.5h-1.4c-3.3,0-6.5-0.3-9.8-0.9c-2.5-0.4-5-1.2-7.2-2.4c-1.2-0.6-2.2-1.5-2.9-2.6
	c-0.4-0.6-0.6-1.3-0.6-2.1h1.5h-1.5V608l0.3-8.1c0-0.7,0.2-1.5,0.7-2.1c0.4-0.6,0.9-1.1,1.5-1.5h-52.7c-0.8,0-1.5-0.7-1.5-1.5
	s0.7-1.5,1.5-1.5h60.1L165.4,593.1 M200.2,593.1h-9.9l0.9,0.2h9.3L200.2,593.1 M703,593.1h-87.6l-0.3,0.2h88.1L703,593.1"/>
<path class="st1" d="M104.3,596.3h599.2c0.8,0,1.5-0.7,1.5-1.5s-0.7-1.5-1.5-1.5H104.3c-0.8,0-1.5,0.7-1.5,1.5
	S103.5,596.3,104.3,596.3"/>
<path class="st0" d="M622.5,544.4c-3.2,2.3-6.7,4.3-10.5,5.8c-1.1,0.6-2.2,1.2-3.3,1.8v35.5c0,1.9-0.4,3.8-1,5.6h7.7
	c4.5-3.3,7.2-8.6,7.1-14.2V544.4 M622.5,408l-13.7,7.6v39.2c4.9,1.6,9.5,4,13.7,7V408 M558,308c-24.5,0-51.4,5.2-75.5,14.7
	c-6.6,2.7-12.8,6.6-18.2,11.3c5.4-2.4,11.2-4.7,17.3-6.7c20.9-7.2,42.9-10.9,65-11.1v1.5v-1.5c7.4,0,14.8,0.5,22.2,1.5
	c1.5,0.2,2.6,1.5,2.6,3v5.1c2.4,0.1,4.8,0.2,7.1,0.4c1.6,0.1,2.8,1.4,2.8,3v6.4c2.3,0.2,4.6,0.4,6.9,0.7c1.5,0.2,2.7,1.5,2.7,3
	l0.2,31.9l3,0.1c8.3,0.3,14.9,7.1,14.8,15.5v1.7l13.7-7.7V380c0-9.5-7.6-17.3-17.1-17.6h-0.8l-0.3-29.4c0-2.6-2-4.9-4.7-5.1
	c-1.6-0.2-3.2-0.3-4.9-0.5v-4.3c0-2.7-2.1-5-4.8-5.2c-1.6-0.1-3.3-0.2-5-0.3v-2.9c0-2.6-1.9-4.8-4.5-5.2
	C573,308.5,565.5,308,558,308"/>
<path class="st2" d="M607.3,596.3H606l-0.1,0.1C606.4,596.5,606.9,596.4,607.3,596.3 M615.4,593.1h-7.7l-0.1,0.2h7.4L615.4,593.1"/>
<path class="st3" d="M615,593.3h-7.4c-0.4,1.1-1,2.1-1.6,3h1.4C610.1,596,612.7,594.9,615,593.3"/>
<path class="st4" d="M421.2,611.7c-0.1,0-0.2,0-0.3,0c-36.9-8.7-74.7-13.1-112.6-13.1c-17.7,0-35.5,0.9-53.1,2.8
	c-4.1,0.4-8.1-1.1-11-4c-2.6-2.6-4-6.2-4-9.9V386.5c-0.1-7.5,5.9-13.7,13.4-14l167.8-3.3c0.4,0,0.8,0.2,1,0.4
	c0.3,0.3,0.5,0.7,0.5,1.1v239.4c0,0.5-0.2,0.9-0.6,1.2C421.9,611.6,421.6,611.7,421.2,611.7"/>
<path class="st1" d="M421.2,370.8v239.4c-37-8.7-75-13.1-113-13.1c-17.8,0-35.6,0.9-53.3,2.8c-0.4,0-0.8,0.1-1.2,0.1
	c-6.8-0.1-12.2-5.7-12.1-12.5V386.5c-0.1-6.7,5.2-12.2,11.9-12.5L421.2,370.8 M421.2,367.8L421.2,367.8l-167.8,3.3
	c-8.3,0.3-14.9,7.1-14.9,15.5v200.9c-0.1,8.4,6.7,15.4,15.1,15.5c0.5,0,1,0,1.6-0.1c17.6-1.8,35.3-2.8,53-2.8
	c37.8,0,75.5,4.3,112.3,13c0.2,0.1,0.5,0.1,0.7,0.1c1.7,0,3-1.3,3-3V370.8C424.2,369.2,422.9,367.8,421.2,367.8"/>
<path class="st5" d="M265,587.5V386.5c-0.1-6.7,5.2-12.2,11.9-12.5l144.3-2.8v-0.5l-167.8,3.3c-6.7,0.2-12,5.8-11.9,12.5v200.9
	c-0.1,6.8,5.3,12.4,12.1,12.4c0.4,0,0.9,0,1.3-0.1c5.5-0.6,11-1,16.5-1.4C267.4,596.2,265,592,265,587.5"/>
<path class="st6" d="M426,611.7c-0.3,0-0.7-0.1-0.9-0.3c-0.4-0.3-0.6-0.7-0.6-1.2V370.8c0-0.8,0.7-1.5,1.5-1.5l167.8,3.3
	c7.5,0.3,13.4,6.5,13.4,14v200.9c0.1,7.6-6,13.9-13.7,14c-0.5,0-0.9,0-1.4-0.1c-17.7-1.8-35.4-2.8-53.2-2.8
	c-37.9,0-75.7,4.4-112.6,13.1C426.3,611.7,426.2,611.7,426,611.7"/>
<path class="st1" d="M426,370.8l167.8,3.3c6.7,0.2,12,5.8,11.9,12.5v200.9c0.1,6.8-5.4,12.4-12.2,12.5c-0.4,0-0.8,0-1.3-0.1
	c-17.7-1.8-35.5-2.8-53.3-2.8c-38,0-76,4.4-113,13.1L426,370.8 M426,367.8c-1.7,0-3,1.3-3,3v239.4c0,1.7,1.3,3,3,3
	c0.2,0,0.5,0,0.7-0.1c36.8-8.7,74.5-13,112.3-13c17.7,0,35.4,0.9,53,2.8c0.5,0.1,1,0.1,1.6,0.1c8.4-0.1,15.2-7,15.2-15.5v-201
	c0-8.3-6.5-15.2-14.8-15.5L426,367.8L426,367.8"/>
<path class="st7" d="M605.7,386.5c0.1-6.7-5.2-12.2-11.9-12.5L426,370.8v0.4l146.2,2.9c6.7,0.2,12,5.8,11.9,12.5v200.9
	c0,4.6-2.5,8.9-6.7,11.1c4.9,0.4,9.9,0.8,14.8,1.3c6.8,0.6,12.7-4.3,13.4-11.1c0-0.4,0.1-0.9,0.1-1.3V386.5"/>
<path class="st8" d="M421.7,592.4c-0.1,0-0.3,0-0.4-0.1c-37.7-11.6-83.7-14.1-115.6-14.1c-27.4,0-47.1,1.8-47.2,1.8h-0.1
	c-0.4,0-0.7-0.1-1-0.4c-0.3-0.3-0.5-0.7-0.5-1.1l1.9-214.3c0-0.8,0.6-1.4,1.4-1.5c12.7-1.2,26.1-1.9,39.9-1.9
	c65.5,0,121,14.3,121.5,14.4c0.7,0.2,1.1,0.8,1.1,1.5l0.8,214.1c0,0.5-0.2,0.9-0.6,1.2C422.4,592.3,422.1,592.4,421.7,592.4"/>
<path class="st1" d="M299.8,362.5c66.2,0,121.2,14.4,121.2,14.4l0.8,214.1c-37.4-11.5-82.6-14.1-116.1-14.1
	c-27.8,0-47.4,1.8-47.4,1.8l1.9-214.3C273.6,363,286.9,362.5,299.8,362.5 M299.9,359.5c-13.8,0-27.3,0.6-40,1.9
	c-1.5,0.1-2.7,1.5-2.7,3l-1.9,214.3c0,1.7,1.3,3,3,3c0,0,0,0,0,0h0.3c0.2,0,19.8-1.8,47.1-1.8c31.8,0,77.6,2.4,115.2,14
	c0.3,0.1,0.6,0.1,0.9,0.1c0.6,0,1.3-0.2,1.8-0.6c0.8-0.6,1.2-1.5,1.2-2.4L424,376.8c0-1.4-0.9-2.5-2.2-2.9
	C421.2,373.8,365.6,359.4,299.9,359.5"/>
<path class="st8" d="M421.7,592.4c-0.2,0-0.4,0-0.5-0.1c-43.3-17.1-83.8-24.1-139.7-24.1c-4.1,0-8.4,0-12.7,0.1
	c-0.8,0-1.5-0.7-1.5-1.5c0,0,0,0,0,0l1-211c0-0.8,0.6-1.4,1.4-1.5c8.3-0.5,17-0.8,25.9-0.8c50.5,0,97.2,9,114.9,12.8
	c0.7,0.1,1.1,0.7,1.2,1.4l11.7,223.1C423.3,591.7,422.7,592.4,421.7,592.4C421.8,592.4,421.8,592.4,421.7,592.4"/>
<path class="st1" d="M295.5,355c50,0,96.1,8.8,114.6,12.8l11.7,223.1c-46.4-18.3-87.8-24.2-140.3-24.2c-4.2,0-8.4,0-12.8,0.1l1-211
	C278.3,355.2,287,355,295.5,355 M295.5,352c-8.9,0-17.7,0.3-26,0.8c-1.6,0.1-2.8,1.4-2.8,3l-1,211c0,1.7,1.3,3,3,3h0
	c4.4-0.1,8.6-0.1,12.7-0.1c55.7,0,96,7,139.2,24c0.4,0.1,0.7,0.2,1.1,0.2c1.7,0,3-1.3,3-3c0-0.1,0-0.1,0-0.2L413,367.6
	c-0.1-1.3-1-2.5-2.4-2.8C392.9,361,346.2,352,295.5,352"/>
<path class="st8" d="M421.7,592.4c-0.4,0-0.7-0.1-1-0.4l-0.2-0.2c-0.2-0.2-0.4-0.4-0.6-0.6c-2.8-2.6-5.8-4.9-9-6.9
	c-33.4-21.5-93.6-24.7-117.9-25h-5.6c-4.6,0-7.4,0.1-7.4,0.1h0c-0.4,0-0.7-0.2-1-0.4c-0.3-0.3-0.5-0.7-0.5-1.1L278,348.7
	c0-0.8,0.6-1.4,1.4-1.5c4-0.4,8.3-0.8,13.1-1c6.3-0.4,12.8-0.6,19.2-0.6c34,0,67.8,5,100.4,14.7c5.5,1.7,8.7,2.9,9.3,3.1l0.2,0.1
	c0.6,0.2,1,0.8,1,1.4l0.6,226.1c0,0.6-0.3,1.1-0.9,1.4C422.1,592.4,421.9,592.5,421.7,592.4"/>
<path class="st1" d="M311.7,347.1c33.8,0.1,67.5,5,99.9,14.6c5,1.5,8.2,2.7,9.2,3l0.3,0.1l0.6,226.1c-0.3-0.3-0.6-0.6-0.9-0.8
	c-2.9-2.6-5.9-4.9-9.2-7c-33.4-21.5-92.6-24.9-118.7-25.3h-5.6c-4.7,0-7.4,0.1-7.4,0.1l-0.3-209.1c4.4-0.5,8.8-0.8,13.1-1.1
	C299.1,347.3,305.5,347.1,311.7,347.1 M311.7,344.1c-6.5,0-13,0.2-19.3,0.6c-4.8,0.3-9.2,0.6-13.2,1.1c-1.5,0.2-2.7,1.5-2.7,3
	l0.3,209.1c0,1.7,1.3,3,3,3h0.1c0,0,2.7-0.1,7.3-0.1h5.6c24.2,0.4,84.1,3.5,117.1,24.8c3.1,2,6.1,4.2,8.8,6.7l0.1,0.1l0.5,0.5
	l0.2,0.2c0.6,0.5,1.3,0.8,2,0.8c0.4,0,0.8-0.1,1.2-0.2c1.1-0.5,1.8-1.6,1.8-2.8l-0.6-226.1c0-1.3-0.8-2.4-2-2.8l-0.3-0.1
	c-0.7-0.3-3.9-1.4-9.3-3.1C379.8,349.1,345.8,344.1,311.7,344.1"/>
<path class="st8" d="M292.9,557.8c-8.1-0.1-13.1,0.1-13.1,0.1l-0.3-209.1c4.4-0.5,8.8-0.8,13.1-1.1L292.9,557.8"/>
<path class="st0" d="M300.2,427.8c8.8-1,17.7-1.5,26.5-1.5c23.2,0,46.3,3.2,68.7,9.6c0.8,0.3,1.6-0.2,1.9-0.9
	c0.3-0.8-0.2-1.6-0.9-1.9c0,0-0.1,0-0.1,0c-22.6-6.4-46-9.7-69.5-9.7c-9,0-18,0.5-26.9,1.5c-0.8,0.1-1.4,0.8-1.3,1.7
	C298.6,427.3,299.4,427.9,300.2,427.8L300.2,427.8z M300.9,409.1c8.8-1,17.7-1.5,26.5-1.5c23.2,0,46.3,3.2,68.7,9.6
	c0.8,0.3,1.6-0.2,1.9-0.9c0.3-0.8-0.2-1.6-0.9-1.9c0,0-0.1,0-0.1,0c-22.6-6.4-46-9.7-69.5-9.7c-9,0-18,0.5-26.9,1.5
	c-0.8,0.1-1.4,0.8-1.3,1.7C299.3,408.7,300,409.2,300.9,409.1L300.9,409.1L300.9,409.1z M301.6,389.2c8.8-1,17.7-1.5,26.5-1.5
	c23.2,0,46.3,3.2,68.7,9.6c0.8,0.2,1.6-0.2,1.9-1c0.2-0.8-0.2-1.6-1-1.9l0,0c-22.6-6.4-46-9.7-69.5-9.7c-9,0-18,0.5-26.9,1.5
	c-0.8,0.1-1.4,0.8-1.3,1.7C300,388.7,300.7,389.3,301.6,389.2L301.6,389.2z M301.1,371.5c8.8-1,17.7-1.5,26.5-1.5
	c13.8,0,27.5,1.1,41.1,3.4c0.8,0.1,1.6-0.4,1.7-1.2c0.1-0.8-0.4-1.6-1.2-1.7c-13.7-2.3-27.6-3.4-41.6-3.4c-9,0-18,0.5-26.9,1.5
	c-0.8,0.1-1.4,0.8-1.3,1.7C299.5,371,300.3,371.6,301.1,371.5 M300.4,448.2c8.8-1,17.7-1.5,26.5-1.5c23.2,0,46.3,3.2,68.7,9.6
	c0.8,0.2,1.6-0.2,1.9-1c0.2-0.8-0.2-1.6-1-1.9c-22.6-6.4-46-9.7-69.5-9.7c-9,0-18,0.5-26.9,1.5c-0.8,0.1-1.4,0.8-1.3,1.6
	c0,0,0,0,0,0C298.8,447.7,299.5,448.3,300.4,448.2C300.4,448.2,300.4,448.2,300.4,448.2L300.4,448.2z M300.4,467.7
	c7.3-0.8,14.6-1.2,21.9-1.2c24.5,0,49.8,4.3,73.1,11c0.8,0.3,1.6-0.2,1.9-0.9c0.3-0.8-0.2-1.6-0.9-1.9c0,0-0.1,0-0.1,0
	c-23.6-6.8-49.1-11.1-73.9-11.1c-7.5,0-14.9,0.4-22.3,1.2c-0.8,0.1-1.4,0.8-1.3,1.6c0,0,0,0,0,0
	C298.8,467.2,299.5,467.8,300.4,467.7C300.4,467.7,300.4,467.7,300.4,467.7z M300.4,489.1c6.8-0.8,13.7-1.2,20.6-1.2
	c24.9,0,50.6,4.7,74.4,11.5c0.8,0.3,1.6-0.2,1.9-0.9c0.3-0.8-0.2-1.6-0.9-1.9c0,0-0.1,0-0.1,0c-24-6.9-50-11.6-75.2-11.6
	c-7,0-14,0.4-21,1.2c-0.8,0.1-1.4,0.8-1.3,1.6c0,0,0,0,0,0C298.8,488.6,299.5,489.2,300.4,489.1
	C300.4,489.1,300.4,489.1,300.4,489.1L300.4,489.1z M421.7,364.7l0.1,226.3c-3-2.5-6.5-5.8-10.2-8V361.7
	C417.2,363.2,420.6,364.4,421.7,364.7L421.7,364.7z M300.4,510.9c7.5-0.9,15-1.3,22.5-1.3c24.7,0.1,49.1,4.2,72.4,12.2
	c0.8,0.3,1.6-0.1,1.9-0.9c0.3-0.8-0.1-1.6-0.9-1.9c-23.6-8.1-48.4-12.3-73.4-12.4c-7.6,0-15.3,0.4-22.9,1.3
	c-0.8,0.1-1.4,0.8-1.3,1.6c0,0,0,0,0,0C298.8,510.3,299.6,510.9,300.4,510.9L300.4,510.9z M300.4,532.6c6.7-0.8,13.4-1.2,20.2-1.2
	c25.7,0.2,51.1,5,75.1,14.3c0.8,0.3,1.6,0,2-0.7c0.3-0.8,0-1.6-0.7-2c-0.1,0-0.1,0-0.2-0.1c-24.3-9.5-50.1-14.4-76.2-14.5
	c-6.9,0-13.7,0.4-20.5,1.2c-0.8,0.1-1.4,0.8-1.3,1.6c0,0,0,0,0,0C298.8,532.1,299.5,532.7,300.4,532.6
	C300.4,532.6,300.4,532.6,300.4,532.6z"/>
<path class="st8" d="M411.8,518.2l-0.3,41.5"/>
<path class="st1" d="M410.3,518.2l-0.3,41.5c0,0.8,0.7,1.5,1.5,1.5s1.5-0.7,1.5-1.5l0.3-41.5c0-0.8-0.7-1.5-1.5-1.5
	S410.3,517.4,410.3,518.2"/>
<path class="st8" d="M426,591.5c-0.8,0-1.5-0.7-1.5-1.5l0.6-225.3c0-0.6,0.4-1.2,1-1.4c0.5-0.2,3.4-1.5,8.5-3.5
	c7.7-2.9,15.8-5.7,24.2-8.2l0.2,0c23.6-7.1,60-15.5,99.3-15.5c3.3,0,6.7,0.1,9.9,0.2s6.5,0.3,10,0.6c3.2,0.2,6.4,0.5,9.6,0.9
	c0.8,0.1,1.3,0.7,1.3,1.5l1.8,236.2c0,0.8-0.7,1.5-1.5,1.5h-0.2c-0.2,0-19.8-2.1-47.2-2.1c-28.7,0-70.4,2.4-106.5,13.6
	c-3,0.9-6.1,2-9.1,3.1C426.4,591.5,426.2,591.5,426,591.5"/>
<path class="st1" d="M558.4,337.6c3.3,0,6.6,0,9.9,0.2s6.6,0.3,9.9,0.6c3.2,0.2,6.3,0.5,9.5,0.9l1.9,236.2c0,0-19.6-2.1-47.3-2.1
	c-30.7,0-71.5,2.6-106.9,13.7c-3.1,1-6.2,2-9.2,3.1l0.6-225.3h0c0.4-0.2,3.4-1.5,8.5-3.5c5.6-2.1,13.9-5.1,24.1-8.1l0.2-0.1
	C483.9,345.7,519.7,337.6,558.4,337.6 M558.4,334.6c-39.5,0-76.1,8.5-99.8,15.6h-0.2c-8.4,2.5-16.5,5.3-24.2,8.2
	c-4.6,1.7-7.6,3.1-8.6,3.5c-1.2,0.4-2,1.5-2,2.8L423,589.9c0,1,0.5,1.9,1.3,2.5c0.5,0.4,1.1,0.5,1.7,0.5c0.3,0,0.7-0.1,1-0.2
	c3-1.1,6.1-2.1,9-3c35.9-11.2,77.5-13.5,106.1-13.5c27.3,0,46.8,2.1,47,2.1c0.1,0,0.2,0,0.3,0c0.7,0,1.5-0.3,2-0.8
	c0.6-0.6,1-1.4,1-2.2l-1.9-236.2c0-1.5-1.1-2.8-2.7-3c-3.2-0.4-6.5-0.7-9.7-0.9c-3.5-0.3-6.8-0.5-10-0.6s-6.6-0.2-10-0.2"/>
<path class="st9" d="M589.5,575.4c0,0-86.8-9.5-154.3,11.5c-3.1,1-6.2,2-9.2,3.1l0.6-225.3h0c0.4-0.2,3.4-1.5,8.5-3.5
	c5.6-2.1,13.9-5.1,24.1-8.1l0.2-0.1c26.5-8,66.4-16.9,108.8-15.3c3.3,0.1,6.6,0.3,9.9,0.6c3.2,0.2,6.3,0.5,9.5,0.9L589.5,575.4"/>
<path class="st8" d="M426,591.5c-0.3,0-0.6-0.1-0.8-0.2c-0.4-0.3-0.7-0.8-0.7-1.3l0.6-225.3c0-0.7,0.5-1.3,1.1-1.5
	c5-1.3,12.6-4.1,22.2-7.8c28.2-10.6,75.5-28.2,118.2-28.2c3.9,0,7.8,0.1,11.5,0.4c0.8,0.1,1.4,0.7,1.4,1.5l1,232.3
	c0,0.4-0.2,0.8-0.4,1.1c-0.3,0.3-0.7,0.4-1.1,0.4c-4.4-0.1-8.7-0.1-12.7-0.1c-55.9,0-96.3,8.3-139.6,28.5
	C426.5,591.4,426.3,591.5,426,591.5"/>
<path class="st1" d="M566.7,328.7c3.8,0,7.6,0.1,11.3,0.4l1,232.3c-4.3-0.1-8.6-0.1-12.8-0.1c-52.5,0-93.9,7-140.3,28.7l0.6-225.3
	C446.8,359.5,510.2,328.7,566.7,328.7 M566.7,325.7c-43,0-90.4,17.8-118.8,28.4c-9.6,3.6-17.2,6.4-22.1,7.7
	c-1.3,0.3-2.2,1.5-2.2,2.9L423,590c0,1.7,1.3,3,3,3c0.4,0,0.9-0.1,1.3-0.3c43.1-20.2,83.4-28.4,139-28.4c4.1,0,8.4,0,12.7,0.1h0.1
	c1.7,0,3-1.3,3-3l-1-232.3c0-1.6-1.2-2.9-2.8-3C574.6,325.9,570.7,325.7,566.7,325.7"/>
<path class="st10" d="M578.1,329.2c-59.2-4.7-129.9,30-151.4,35.5L426,590c50.1-23.4,94.4-29.7,153-28.5L578.1,329.2"/>
<path class="st11" d="M426,591.5c-0.2,0-0.4,0-0.5-0.1c-0.6-0.2-1-0.8-1-1.4l0.6-225.3c0-0.3,0.1-0.6,0.2-0.8
	c2.5-3.6,5.5-6.9,8.9-9.8c20.8-18.1,65.9-36.4,112.3-36.4c7.3,0,14.7,0.5,21.9,1.5c0.7,0.1,1.3,0.7,1.3,1.5l-0.3,230.1
	c0,0.4-0.2,0.8-0.5,1.1c-0.3,0.3-0.6,0.4-1,0.4h-0.1c0,0-2.7-0.1-7.1-0.1c-20.2,0-88.7,2.2-124.6,30.3c-3.2,2.5-6.3,5.3-9,8.4
	C426.9,591.3,426.5,591.5,426,591.5"/>
<path class="st1" d="M546.5,319.2c7.3,0,14.5,0.5,21.7,1.5L568,550.8c0,0-2.6-0.1-7.2-0.1c-22.1,0-89.5,2.4-125.5,30.7
	c-3.3,2.6-6.4,5.5-9.2,8.6l0.6-225.3c2.4-3.5,5.3-6.7,8.6-9.5C456.8,336.4,502.8,319.2,546.5,319.2 M546.6,316.2
	c-22.1,0.2-44.1,3.9-65,11.1c-20,6.8-37.1,15.9-48.3,25.7c-3.5,2.9-6.5,6.3-9.1,10c-0.3,0.5-0.5,1.1-0.5,1.7L423,590
	c0,1.3,0.8,2.4,2,2.8c0.3,0.1,0.7,0.2,1.1,0.2c0.9,0,1.7-0.4,2.2-1c2.7-3,5.6-5.7,8.8-8.2c15-11.8,37.5-20.3,66.6-25.3
	c18.8-3.1,37.9-4.7,57-4.7c4.4,0,7,0.1,7.1,0.1h0.2c0.7,0,1.5-0.3,2-0.8c0.6-0.6,0.9-1.3,0.9-2.2l0.3-230.1c0-1.5-1.1-2.8-2.6-3
	C561.3,316.7,553.9,316.2,546.6,316.2"/>
<path class="st1" d="M523.2,540.1C505,542,484,545.6,465,552.7c-0.8,0.3-1.2,1.1-0.9,1.9c0,0,0,0,0,0c0.3,0.8,1.2,1.2,1.9,0.9
	c18.6-6.9,39.5-10.5,57.5-12.4c0.8-0.1,1.4-0.8,1.3-1.7C524.8,540.6,524,540,523.2,540.1L523.2,540.1z"/>
<path class="st12" d="M549.7,370.9l-0.1-1.5c-16.2,1-35,5.1-53.1,11.2s-35.5,14.2-48.8,23.4l0.9,1.2h1.5l-0.4-33.8h-1.5l0.8,1.3
	c28.9-17.9,65.6-29.2,100.7-32.3l-0.1-1.5H548l0.2,31.8L549.7,370.9l0-1.5L549.7,370.9l1.5,0l-0.2-31.8c0-0.4-0.2-0.8-0.5-1.1
	c-0.3-0.3-0.7-0.4-1.1-0.4c-35.6,3.1-72.6,14.5-102,32.7c-0.5,0.3-0.7,0.8-0.7,1.3l0.4,33.8c0,0.8,0.7,1.5,1.5,1.5
	c0.3,0,0.6-0.1,0.8-0.3c13-9,30.2-17,48.1-23s36.5-10.1,52.4-11.1c0.8,0,1.4-0.7,1.4-1.5L549.7,370.9z M448.9,427.4
	c28.9-17.9,65.7-32.8,100.7-35.8c0.8,0,1.5-0.7,1.4-1.6c0,0,0,0,0,0c-0.1-0.8-0.8-1.4-1.6-1.4c-35.7,3.1-72.7,18.1-102,36.2
	c-0.7,0.4-0.9,1.4-0.5,2.1C447.3,427.6,448.2,427.8,448.9,427.4C448.9,427.4,448.9,427.4,448.9,427.4L448.9,427.4z M449.6,448.4
	c28.9-17.9,65.7-32.8,100.7-35.8c0.8-0.1,1.4-0.8,1.4-1.6s-0.8-1.4-1.6-1.4c-35.7,3.1-72.7,18.1-102,36.2c-0.7,0.4-0.9,1.4-0.5,2.1
	C447.9,448.6,448.8,448.8,449.6,448.4C449.5,448.4,449.5,448.4,449.6,448.4L449.6,448.4z M448.2,472.7
	c28.9-17.9,65.7-32.8,100.7-35.8c0.8-0.1,1.4-0.8,1.4-1.6s-0.8-1.4-1.6-1.4c-35.6,3.1-72.7,18.1-102,36.2c-0.7,0.4-0.9,1.4-0.5,2.1
	C446.5,472.9,447.5,473.1,448.2,472.7C448.2,472.7,448.2,472.7,448.2,472.7 M448.9,496.2c28.9-17.9,65.7-32.8,100.7-35.8
	c0.8-0.1,1.4-0.8,1.4-1.6s-0.8-1.4-1.6-1.4c-35.7,3.1-72.7,18.1-102,36.2c-0.7,0.4-0.9,1.3-0.5,2c0,0,0,0,0,0
	C447.3,496.4,448.2,496.6,448.9,496.2L448.9,496.2z M448.9,518.2c28.9-17.9,65.7-32.8,100.7-35.8c0.8-0.1,1.4-0.8,1.4-1.6
	s-0.8-1.4-1.6-1.4c-35.7,3.1-72.7,18.1-102,36.2c-0.7,0.4-0.9,1.3-0.5,2c0,0,0,0,0,0C447.3,518.5,448.2,518.7,448.9,518.2"/>
<g>
	<defs>
		<path id="SVGID_1_" d="M546.6,448.7l-5,2.9l-14.4,1.3h-0.2c-0.5,0-0.9-0.2-1.3-0.5c-0.6-0.6-0.8-1.5-0.5-2.2l-1.6,0.1
			c0,0.2-0.1,0.4-0.1,0.7c0,1,0.4,1.9,1.1,2.5c0.6,0.5,1.4,0.8,2.3,0.8h0.4l14.4-1.3c0.2,0,0.4-0.1,0.6-0.2l6.3-3.6
			c-0.2,0.1-0.5,0.2-0.7,0.2c-0.1,0-0.3,0-0.4,0C547.1,449.2,546.8,449,546.6,448.7"/>
	</defs>
	<clipPath id="SVGID_00000040560929037495799360000003772459876101749431_">
		<use xlink:href="#SVGID_1_"  style="overflow:visible;"/>
	</clipPath>
	<g style="clip-path:url(#SVGID_00000040560929037495799360000003772459876101749431_);">
		<path class="st14" d="M523.5,448.7h25.1v5.7h-25.1V448.7z"/>
	</g>
</g>
<path class="st14" d="M544.6,445.2l-6.3,3.6c-0.2,0.1-0.4,0.2-0.6,0.2l-10.6,1l-0.5,0.7c-0.1,0.1-0.1,0.2-0.1,0.3
	c0,0.1,0,0.2,0.1,0.3c0.1,0.1,0.2,0.1,0.3,0.1h0.2l14-1.3l4.8-2.7L544.6,445.2"/>
<path class="st14" d="M545.8,447.4l-4.8,2.7l-14,1.3h-0.2c-0.1,0-0.2,0-0.3-0.1c-0.1-0.1-0.1-0.2-0.1-0.3c0-0.1,0.1-0.2,0.1-0.3
	l0.5-0.7l-1.9,0.2c-0.4,0.8-0.2,1.7,0.5,2.2c0.4,0.3,0.8,0.5,1.3,0.5h0.2l14.4-1.3l5-2.9L545.8,447.4"/>
<path class="st15" d="M638.1,397.5l-6.8,3.8c-0.1,0.5-0.3,0.9-0.8,1.1c-0.2,0.1-0.5,0.2-0.7,0.2c-0.2,0-0.4-0.1-0.6-0.1l-6.8,3.8
	v1.7l17.7-9.9c-0.2,0.1-0.5,0.2-0.7,0.2c-0.1,0-0.3,0-0.4,0C638.7,398.2,638.3,397.9,638.1,397.5"/>
<path class="st16" d="M622.5,406.3l-13.7,7.6v1.7l13.7-7.6V406.3"/>
<path class="st1" d="M608.7,413.9l-3,1.7v1.7l3-1.7V413.9"/>
<path class="st17" d="M605.7,415.6l-14.4,8l0,1.7l14.4-8V415.6"/>
<path class="st1" d="M591.3,423.6l-3,1.7l0,1.7l3-1.7L591.3,423.6"/>
<path class="st18" d="M588.3,425.2l-6.8,3.8l0,1.7l6.8-3.8L588.3,425.2"/>
<path class="st1" d="M581.5,429l-3,1.7l0,1.7l3-1.7L581.5,429"/>
<path class="st19" d="M578.5,430.7l-7.4,4.1l0,1.7l7.4-4.1L578.5,430.7"/>
<path class="st14" d="M568.1,436.5l-6.1,3.4l-14.1,8l-2-3.5l-1.3,0.7l1.2,2.1l0.7,1.3c0.2,0.3,0.5,0.6,0.9,0.7c0.1,0,0.3,0,0.4,0
	c0.3,0,0.5-0.1,0.7-0.2l14.1-8l5.4-3L568.1,436.5"/>
<path class="st1" d="M571.1,434.8l-3,1.7v1.7l3-1.7L571.1,434.8"/>
<path class="st15" d="M636.2,394.1l-6.5,3.6l1.2,2.1l6.5-3.6L636.2,394.1"/>
<path class="st15" d="M636.2,394.1l1.2,2.1l-6.5,3.6l0.3,0.5c0.2,0.3,0.2,0.6,0.2,0.9l6.8-3.8L636.2,394.1 M627.1,399.2l-4.6,2.6
	v2.8l5.8-3.2L627.1,399.2"/>
<path class="st16" d="M622.5,401.7l-13.7,7.6v2.8l13.7-7.6V401.7"/>
<path class="st1" d="M608.7,409.4l-3,1.7v2.8l3-1.7V409.4"/>
<path class="st17" d="M605.7,411l-14.4,8l0,2.8l14.4-8V411"/>
<path class="st1" d="M591.3,419.1l-3,1.7l0,2.8l3-1.7L591.3,419.1"/>
<path class="st18" d="M588.3,420.7l-6.8,3.8l0,2.8l6.8-3.8L588.3,420.7"/>
<path class="st1" d="M581.5,424.5l-3,1.7l0,2.8l3-1.7L581.5,424.5"/>
<path class="st19" d="M578.5,426.2l-7.4,4.1v2.8l7.4-4.1L578.5,426.2"/>
<path class="st14" d="M568.1,432l-9.4,5.2l0,0l-11.5,6.5l1.2,2.1l12.8-7.3h0l6.9-3.8V432"/>
<path class="st1" d="M571.1,430.3l-3,1.7v2.8l3-1.7V430.3"/>
<path class="st15" d="M628.3,401.3l-5.8,3.2v1.7l6.8-3.8c-0.3-0.1-0.5-0.4-0.7-0.6L628.3,401.3"/>
<path class="st16" d="M622.5,404.5l-13.7,7.6v1.7l13.7-7.6V404.5"/>
<path class="st1" d="M608.7,412.2l-3,1.7v1.7l3-1.7V412.2"/>
<path class="st17" d="M605.7,413.9l-14.4,8l0,1.7l14.4-8L605.7,413.9"/>
<path class="st1" d="M591.3,421.9l-3,1.7l0,1.7l3-1.7L591.3,421.9"/>
<path class="st18" d="M588.3,423.5l-6.8,3.8v1.7l6.8-3.8L588.3,423.5"/>
<path class="st1" d="M581.5,427.3l-3,1.7l0,1.7l3-1.7V427.3"/>
<path class="st19" d="M578.5,429l-7.4,4.1v1.7l7.4-4.1L578.5,429"/>
<path class="st14" d="M568.1,434.8l-6.9,3.8h0l-12.8,7.3l-1.2-2.1l-1.3,0.7l2,3.5l14.1-8l6.1-3.4L568.1,434.8"/>
<path class="st1" d="M571.1,433.1l-3,1.7l0,1.7l3-1.7V433.1"/>
<path class="st15" d="M652.1,374.9c0.3,0.6,0.6,1.3,0.8,1.9c0,0.1,0.1,0.3,0.1,0.4c0.6,0.5,1,1,1.4,1.6l1.2-0.8l-1.2,0.8
	c0.1,0.1,0.2,0.3,0.3,0.4v0.1c0.3,0.6,0.6,1.2,0.7,1.8c0.9,3.4-0.6,6.9-3.7,8.6l-0.3,0.2l-12,6.8l-2-3.5l-1.3,0.7l2,3.4
	c0.2,0.3,0.5,0.6,0.9,0.7c0.1,0,0.3,0.1,0.4,0c0.3,0,0.5-0.1,0.7-0.2l12-6.8l0.3-0.2c2.9-1.6,4.7-4.7,4.7-8c0-0.8-0.1-1.5-0.3-2.3
	c-0.2-0.7-0.4-1.4-0.8-2c0-0.1-0.1-0.1-0.1-0.2c-0.1-0.2-0.2-0.4-0.3-0.6C654.7,376.7,653.5,375.6,652.1,374.9"/>
<path class="st15" d="M653.1,379.7c-0.2,3.1-1.9,5.9-4.7,7.5l-0.3,0.2l-9.4,5.3l1.2,2.1l10.7-6.1l0.3-0.2c2-1.1,3.2-3.2,3.2-5.4
	c0-0.5-0.1-1-0.2-1.5c-0.1-0.5-0.3-0.9-0.5-1.4c-0.1-0.1-0.1-0.2-0.2-0.3L653.1,379.7"/>
<path class="st15" d="M654.3,378.9l-1.3,0.8l0.1,0.2c0,0.1,0.1,0.2,0.2,0.3c0.3,0.4,0.4,0.9,0.5,1.4c0.1,0.5,0.2,1,0.2,1.5
	c0,2.2-1.2,4.3-3.2,5.4l-0.3,0.2l-10.7,6.1l-1.2-2.1l-1.3,0.7l2,3.5l12-6.8l0.3-0.2c3-1.7,4.5-5.3,3.7-8.6c-0.1-0.6-0.4-1.2-0.7-1.8
	v-0.1C654.6,379.2,654.5,379,654.3,378.9 M653,377.3c0.1,0.6,0.2,1.2,0.2,1.9v0.6l1.3-0.8C654.1,378.3,653.6,377.7,653,377.3
	 M629.7,397.7l-2.6,1.5l1.2,2.1l0.3,0.5c0.2,0.3,0.4,0.5,0.7,0.6c0.2,0.1,0.4,0.1,0.6,0.1c0.3,0,0.5-0.1,0.7-0.2
	c0.4-0.2,0.7-0.7,0.8-1.1c0-0.3,0-0.6-0.2-0.9l-0.3-0.5L629.7,397.7"/>
<path class="st20" d="M547.8,433.2c-1.6-2.2-2.8-4.7-3.6-7.3l-8,4.5l-6.3,3.6l-8.5,11.7c-0.6,0.8-0.5,1.9,0.2,2.6
	c0.4,0.3,0.9,0.5,1.4,0.5h0.1l14.4-1.3l6.3-3.6l9-5.1C551,437.1,549.3,435.3,547.8,433.2"/>
<path class="st1" d="M547.8,433.2l1.2-0.9c-1.5-2.1-2.6-4.4-3.3-6.9c-0.1-0.5-0.4-0.8-0.9-1c-0.4-0.2-0.9-0.1-1.3,0.1l-8,4.6
	l-6.3,3.6c-0.2,0.1-0.3,0.2-0.5,0.4l-8.5,11.7c-0.5,0.6-0.7,1.3-0.7,2.1c0,1,0.4,1.9,1.1,2.5c0.6,0.5,1.4,0.8,2.3,0.8h0.2l-0.1-1.5
	l-0.2,1.5h0.4l14.4-1.2c0.2,0,0.4-0.1,0.6-0.2l6.3-3.6l9-5.1c0.4-0.2,0.7-0.7,0.8-1.2c0-0.5-0.1-1-0.5-1.3c-1.8-1.6-3.4-3.3-4.8-5.3
	L547.8,433.2l-1.3,0.9c1.5,2.1,3.3,4.1,5.3,5.8l1-1.1l-0.7-1.3l-9,5.1l-6.1,3.4l-14.1,1.3l0.1,1.5l0.2-1.5h-0.4
	c-0.1,0-0.2,0-0.3-0.1l-1,1.1l1-1.1c-0.1-0.1-0.1-0.2-0.1-0.3c0-0.1,0.1-0.2,0.1-0.3l8.3-11.4l6.1-3.4l8-4.6l-0.7-1.3l-1.4,0.4
	c0.8,2.8,2.1,5.4,3.8,7.8L547.8,433.2"/>
<path class="st21" d="M539.1,438.5l-1.6,0.9l-6.3,3.6l-6.3,0.6l-2.2,3.1c-0.1,0.1-0.1,0.2-0.1,0.3c0,0.1,0,0.2,0.1,0.3
	c0.1,0,0.2,0.1,0.3,0.1h0.2l14-1.3l4.8-2.7L539.1,438.5"/>
<path class="st1" d="M541.8,443.4l-4.8,2.6l-14,1.3h-0.2c-0.1,0-0.2,0-0.3-0.1c-0.1-0.1-0.1-0.2-0.1-0.3c0-0.1,0.1-0.2,0.1-0.3
	l2.2-3.1l-2,0.2l-1.5,2c-0.6,0.8-0.5,1.9,0.2,2.6c0.4,0.3,0.8,0.5,1.3,0.5h0.2l14.4-1.3l5-2.9L541.8,443.4"/>
<path class="st22" d="M627.8,379.4l7.6,13.4L558,435.9l-14.1,8l-3.5-6.2l-0.3-0.5l0,0l-3.8-6.7L627.8,379.4"/>
<path class="st1" d="M627.8,379.4l-1.3,0.7l6.9,12.1l-76.1,42.4l-12.8,7.3l-2.8-5l-0.3-0.5v-0.1l-1.3,0.8l1.3-0.7l-3.1-5.4
	l90.2-50.4L627.8,379.4l-1.3,0.7L627.8,379.4l-0.7-1.4l-91.5,51.1c-0.7,0.4-1,1.3-0.6,2c0,0,0,0,0,0l3.8,6.7v0.1l1.2-0.8l-1.3,0.7
	l0.3,0.5l3.5,6.2c0.2,0.3,0.5,0.6,0.9,0.7c0.4,0.1,0.8,0,1.1-0.1l14.1-8l77.5-43.1c0.4-0.2,0.6-0.5,0.7-0.9c0.1-0.4,0.1-0.8-0.1-1.1
	l-7.6-13.4c-0.4-0.7-1.3-1-2-0.6L627.8,379.4"/>
<path class="st23" d="M627.2,381.4l-0.2,0.1l3.3,5.8l-77.5,43.1l-11.3,6.4l0.1,0.1l0,0l2.8,5l12.8-7.3h0l76.1-42.4L627.2,381.4"/>
<path class="st1" d="M626.5,380.1l-0.2,0.1l0.7,1.3l0.2-0.1l6.2,10.8l-76.1,42.4h0l-12.8,7.3l-2.8-5l0,0l-0.1-0.1l-1.3,0.7l0.1,0.1
	l3.5,6.2l14.1-8l76.1-42.4l-2.2-3.8l-1.5-2.7v0l-0.3-0.5L626.5,380.1L626.5,380.1"/>
<path class="st24" d="M650.3,374.9c0.1,0.1,0.2,0.3,0.3,0.4v0.1c0.3,0.6,0.6,1.2,0.7,1.8c0.9,3.4-0.6,6.9-3.7,8.6l-0.3,0.2l-12,6.8
	l-2.1-3.8l-1.5-2.7l-0.3-0.5l-3.6-6.4l11.5-6.5l0.7-0.4C643.6,370.4,648.1,371.5,650.3,374.9"/>
<path class="st1" d="M650.3,374.9l-1.3,0.8c0.1,0.1,0.2,0.2,0.2,0.3l1.3-0.7l-1.5,0.4v0.1c0,0.1,0.1,0.3,0.2,0.4
	c0.3,0.4,0.4,0.9,0.5,1.4c0.7,2.7-0.5,5.6-3,7l-0.3,0.2l-10.6,6l-1.4-2.5l-1.6-2.7l-0.3-0.5l-2.9-5l10.2-5.8l0.7-0.4
	c0.9-0.5,2-0.8,3.1-0.8c2.1,0,4,1.1,5.2,2.8L650.3,374.9l1.2-0.8c-2.7-4.1-8-5.3-12.3-2.9l-0.7,0.4l-11.5,6.5c-0.7,0.4-1,1.3-0.6,2
	c0,0,0,0,0,0l3.6,6.4l0.3,0.5l1.5,2.7l2.2,3.8c0.2,0.3,0.5,0.6,0.9,0.7c0.4,0.1,0.8,0.1,1.1-0.1l12-6.8l0.3-0.2
	c2.9-1.6,4.7-4.7,4.7-8c0-0.8-0.1-1.6-0.3-2.3l-1.5,0.4l1.5-0.4c-0.2-0.8-0.5-1.5-0.9-2.2l-1.3,0.8l1.5-0.4V375
	c0-0.1-0.1-0.2-0.1-0.3c-0.1-0.2-0.2-0.4-0.3-0.6L650.3,374.9"/>
<path class="st25" d="M647.2,373.9c0.1,2.9-1.4,5.6-3.9,7l-0.3,0.2l-9.5,5.4l1,1.8l1.4,2.5l10.7-6.1l0.3-0.2c2.5-1.4,3.7-4.3,3-7
	c-0.1-0.5-0.3-0.9-0.5-1.4c-0.1-0.1-0.1-0.2-0.2-0.3l-0.1-0.2C648.6,374.9,648,374.3,647.2,373.9"/>
<path class="st1" d="M650.3,374.9l-1.3,0.8l0.1,0.2c0,0.1,0.1,0.2,0.2,0.3c0.3,0.4,0.4,0.9,0.5,1.4c0.7,2.7-0.5,5.6-3,7l-0.3,0.2
	l-10.6,6l-1.4-2.5l-1-1.8l-1.3,0.7l1,1.8l2.2,3.8l12-6.8l0.3-0.2c3-1.7,4.5-5.3,3.7-8.6c-0.1-0.6-0.4-1.2-0.7-1.8v-0.1
	C650.6,375.1,650.5,375,650.3,374.9 M647,372l0.1,0.2c0.1,0.5,0.2,1.1,0.2,1.6c0.7,0.5,1.4,1.1,1.8,1.8l1.3-0.8
	C649.6,373.6,648.4,372.6,647,372"/>
<path class="st8" d="M618.7,384.4l7.1,12.7"/>
<path class="st1" d="M617.4,385.2l7.2,12.7c0.4,0.7,1.3,1,2,0.7c0.7-0.4,1-1.3,0.7-2c0,0-0.1-0.1-0.1-0.1l-7.2-12.7
	c-0.4-0.7-1.3-1-2-0.7c-0.7,0.4-1,1.3-0.7,2C617.3,385.1,617.4,385.1,617.4,385.2 M572.9,311.7l6-9.2 M574.1,312.6l6-9.2
	c0.4-0.7,0.2-1.6-0.5-2.1c-0.7-0.4-1.6-0.2-2,0.4l-6,9.2c-0.5,0.7-0.3,1.6,0.4,2.1S573.6,313.3,574.1,312.6
	C574.1,312.6,574.1,312.6,574.1,312.6 M577.3,317.8l10.2-4.2 M577.9,319.2l10.2-4.2c0.8-0.3,1.1-1.2,0.8-2c-0.3-0.8-1.2-1.1-2-0.8
	l-10.2,4.2c-0.8,0.3-1.2,1.1-0.9,1.9s1.1,1.2,1.9,0.9C577.8,319.2,577.9,319.2,577.9,319.2 M565.5,311.3l-1.6-10.9 M567,311.1
	l-1.6-10.9c-0.1-0.8-0.9-1.4-1.7-1.3c-0.8,0.1-1.4,0.9-1.3,1.7l1.6,10.9c0.1,0.8,0.9,1.4,1.7,1.3C566.5,312.7,567.1,311.9,567,311.1
	"/>
<path class="st0" d="M435.2,355.2l-0.5,226.6c-3.2,2.4-6.6,6.1-8.6,8.1l0.6-225.3C429.1,361.2,432,358,435.2,355.2L435.2,355.2z"/>
<path class="st1" d="M526.5,541.1c0,0.9,0.7,1.5,1.5,1.5c0.9,0,1.5-0.7,1.5-1.5c0-0.9-0.7-1.5-1.5-1.5l0,0
	C527.2,539.6,526.5,540.2,526.5,541.1C526.5,541.1,526.5,541.1,526.5,541.1z M410.2,513.5c0,0.9,0.7,1.5,1.5,1.5
	c0.9,0,1.6-0.7,1.6-1.5c0-0.9-0.7-1.5-1.5-1.5h0C410.9,511.9,410.2,512.6,410.2,513.5z M226.3,457.8c0.4,1.4,1.9,2.2,3.3,1.8
	s2.2-1.9,1.8-3.3c-0.4-1.4-1.9-2.2-3.3-1.8C226.7,455,225.9,456.5,226.3,457.8z M227.4,467v100.1c0,0.8,0.7,1.5,1.5,1.5
	s1.5-0.7,1.5-1.5V467c0-0.8-0.7-1.5-1.5-1.5S227.4,466.2,227.4,467"/>
<path class="st15" d="M704.9,426.5c-1.5,7.1-4.5,22.5-4.8,36.1c0,0.1-0.1,8.7,5.6,22.3c0.6,1.5-0.1,3.3-1.6,3.9
	c-0.4,0.2-0.8,0.2-1.2,0.2h-0.3l-35.4-3.2c0.4,0.8,0.9,1.7,1.4,2.4l41.6,3.3c-0.5-1.3-1-2.5-1.5-3.7c-4.5-11.6-6-24.2-4.4-36.5
	c1.2-8.8,2.8-16.6,3.7-20.9c0.5-2.1,0.8-3.3,0.8-3.3L704.9,426.5"/>
<path class="st0" d="M705.5,423.6c-0.1,0.5-0.2,1.1-0.4,1.8l-0.2,1.1l4,0.7c0,0-0.3,1.2-0.8,3.3c-0.9,4.2-2.5,12.1-3.7,20.9
	c-1.7,12.4-0.2,24.9,4.3,36.5c0.5,1.2,1,2.4,1.5,3.7l-41.6-3.3c-0.5-0.8-1-1.6-1.4-2.4l-3.5-0.3c0.7,1.6,1.5,3.1,2.5,4.6
	c0.5,0.7,1.3,1.1,2.2,1.2l41.7,3.2h0.2c1.7,0,3-1.3,3-3c0-0.4-0.1-0.8-0.2-1.1c-0.5-1.2-1-2.4-1.5-3.6c-4.3-11.1-5.8-23.2-4.2-35
	c1.2-8.9,2.8-16.7,3.7-20.6c0.4-2,0.7-3.2,0.7-3.2c0.4-1.6-0.6-3.2-2.2-3.6c-0.1,0-0.1,0-0.2,0L705.5,423.6"/>
<path class="st26" d="M702.7,487.6l-40.1-3.6c-0.4,0-0.8-0.3-1.1-0.6c-0.5-0.7-12.7-17.4-5.5-58.2c0.6-3.8,1.5-7.8,2.5-12.1
	c0.2-0.7,0.8-1.1,1.5-1.1c0.1,0,0.2,0,0.3,0l43,7.9c0.4,0.1,0.8,0.3,1,0.7c0.2,0.3,0.3,0.8,0.2,1.2c0,0-0.3,1.2-0.8,3.3
	c-1.4,6.5-4.8,23-5.1,37.6c0,0.1-0.1,9,5.7,22.9c0.2,0.5,0.1,1-0.2,1.5c-0.3,0.4-0.7,0.6-1.2,0.6H702.7"/>
<path class="st1" d="M660,413.5l43,7.9c0,0-0.3,1.2-0.8,3.3c-1.5,6.9-4.8,23.4-5.2,37.9c0,0-0.2,9.1,5.8,23.5l-40.1-3.6
	c0,0-12.4-16.5-5.3-57.1C658.2,421.7,659,417.7,660,413.5 M660,410.5c-1.4,0-2.6,0.9-2.9,2.3c-1,4.3-1.9,8.4-2.5,12.2
	c-7.2,41.4,5.3,58.7,5.8,59.4c0.5,0.7,1.3,1.1,2.1,1.2l40.1,3.6h0.3c1.7,0,3-1.3,3-3c0-0.4-0.1-0.8-0.2-1.2
	c-5.7-13.6-5.6-22.2-5.6-22.3c0.4-14.4,3.7-30.9,5.1-37.3c0.4-2,0.7-3.2,0.7-3.2c0.2-0.8,0.1-1.7-0.4-2.4c-0.5-0.7-1.2-1.2-2-1.3
	l-43-7.9C660.3,410.5,660.2,410.4,660,410.5"/>
<path class="st27" d="M657,478.4c0,0,40.1,9.1,41.2-11.2l5.5,21.1l-45.1-5.1L657,478.4z"/>
<path class="st28" d="M667,430c-0.8,0-1.5,0.6-1.6,1.4s0.6,1.5,1.4,1.6l22.5,2.3h0.2c0.8,0,1.5-0.6,1.6-1.4s-0.6-1.5-1.4-1.6l0,0
	l-22.5-2.3H667 M666.1,440.2c-0.8,0-1.5,0.6-1.6,1.4s0.6,1.5,1.4,1.6l22.5,2.3h0.2c0.8,0,1.5-0.6,1.6-1.4s-0.6-1.5-1.4-1.6l0,0
	l-22.5-2.3H666.1 M665.3,450.4c-0.8,0-1.4,0.6-1.5,1.4c-0.1,0.8,0.5,1.6,1.3,1.6c0,0,0,0,0,0l22.5,2.3h0.2c0.8,0,1.5-0.6,1.6-1.4
	s-0.6-1.5-1.4-1.6l-22.5-2.3H665.3 M665.1,460c-0.8,0-1.5,0.6-1.6,1.4s0.6,1.5,1.4,1.6l11.2,1.1h0.2c0.8,0,1.5-0.6,1.6-1.4
	s-0.6-1.5-1.4-1.6l0,0l-11.2-1.1L665.1,460"/>
<path class="st8" d="M657.5,425.5c0.7-3.8,1.5-7.8,2.5-12l43,7.9c0,0-0.3,1.2-0.8,3.3C672.8,417.5,661.1,422.9,657.5,425.5
	L657.5,425.5z"/>
<path class="st1" d="M712.7,428c0,0-5.5,17-5.7,32.5"/>
<path class="st1" d="M711.3,427.5c0,0-1.4,4.3-2.8,10.6c-1.7,7.3-2.7,14.8-2.9,22.3c0,0.8,0.7,1.5,1.5,1.5s1.5-0.7,1.5-1.5
	c0.2-7.3,1.2-14.6,2.8-21.7c0.7-3.1,1.4-5.6,1.9-7.5c0.3-0.9,0.5-1.6,0.6-2.1c0.1-0.2,0.1-0.4,0.2-0.5l0.1-0.2
	c0.3-0.8-0.1-1.6-0.9-1.9s-1.6,0.1-1.9,0.9C711.3,427.4,711.3,427.4,711.3,427.5L711.3,427.5z M707.8,466.2
	c-0.7,0.5-1.7,0.3-2.2-0.4s-0.3-1.7,0.4-2.2c0.7-0.5,1.7-0.3,2.2,0.4C708.7,464.7,708.5,465.7,707.8,466.2
	C707.8,466.2,707.8,466.2,707.8,466.2z"/>
<path class="st1" d="M660,413.5l43,7.9c0,0-0.3,1.2-0.8,3.3c-1.5,6.9-4.8,23.4-5.2,37.9c0,0-0.2,9.1,5.8,23.5l-40.1-3.6
	c0,0-12.4-16.5-5.3-57.1C658.2,421.7,659,417.7,660,413.5 M660,410.5c-1.4,0-2.6,0.9-2.9,2.3c-1,4.3-1.9,8.4-2.5,12.2
	c-7.2,41.4,5.3,58.7,5.8,59.4c0.5,0.7,1.3,1.1,2.1,1.2l40.1,3.6h0.3c1.7,0,3-1.3,3-3c0-0.4-0.1-0.8-0.2-1.2
	c-5.7-13.6-5.6-22.2-5.6-22.3c0.4-14.4,3.7-30.9,5.1-37.3c0.4-2,0.7-3.2,0.7-3.2c0.2-0.8,0.1-1.7-0.4-2.4c-0.5-0.7-1.2-1.2-2-1.3
	l-43-7.9C660.3,410.5,660.2,410.5,660,410.5L660,410.5z"/>
<path class="st15" d="M676.6,294.1l-3,2.7c4.7,5.5,15.3,17.1,26,25.6c0.1,0.1,6.9,5.3,21.2,9c1.6,0.4,2.6,2,2.2,3.6
	c-0.1,0.5-0.4,0.9-0.7,1.3l-23.8,26.4c0.9,0.2,1.9,0.3,2.8,0.3l27.7-31.3c-1.3-0.3-2.6-0.7-3.8-1c-12-3.4-22.9-9.7-31.8-18.5
	c-6.2-6.2-11.6-12.2-14.4-15.5C677.4,295,676.6,294.1,676.6,294.1"/>
<path class="st0" d="M676.6,291.1c-0.7,0-1.5,0.3-2,0.8l-2.9,2.6l1.2,1.4l0.8,0.9l3-2.7c0,0,0.8,1,2.2,2.6
	c2.8,3.3,8.2,9.3,14.5,15.5c8.9,8.8,19.8,15.1,31.8,18.5c1.2,0.4,2.5,0.7,3.8,1L701.3,363c-0.9,0-1.9-0.1-2.8-0.3l-2.3,2.6
	c1.7,0.4,3.4,0.7,5.2,0.7c0.9,0,1.7-0.4,2.2-1l27.7-31.3c1.1-1.2,1-3.1-0.3-4.2c-0.4-0.3-0.8-0.5-1.3-0.7c-1.3-0.3-2.5-0.7-3.8-1
	c-11.5-3.3-22-9.4-30.5-17.8c-6.4-6.3-11.7-12.3-14.3-15.3c-1.4-1.6-2.2-2.5-2.2-2.5c-0.5-0.6-1.3-1-2.1-1.1L676.6,291.1"/>
<path class="st26" d="M693,365.6c-0.9,0-21.6-0.4-49.9-30.6c-2.6-2.8-5.3-5.9-8.1-9.3c-0.5-0.6-0.4-1.5,0.1-2l32.2-29.6
	c0.3-0.3,0.6-0.4,1-0.4h0.1c0.4,0,0.8,0.2,1,0.5c0,0,0.8,1,2.2,2.6c4.3,5,15.6,17.7,27,26.7c0.1,0,7.1,5.5,21.7,9.2
	c0.8,0.2,1.3,1,1.1,1.8c-0.1,0.2-0.2,0.5-0.3,0.6l-27,29.9C693.8,365.5,693.4,365.7,693,365.6"/>
<path class="st1" d="M668.4,295.2c0,0,0.8,1,2.2,2.6c4.6,5.4,15.8,17.9,27.2,26.9c0,0,7.1,5.6,22.3,9.5l-27,29.9
	c0,0-20.6,0-48.8-30.1c-2.6-2.8-5.3-5.9-8-9.2L668.4,295.2 M668.4,292.2c-0.7,0-1.5,0.3-2,0.8l-32.2,29.6c-1.2,1.1-1.3,2.9-0.3,4.1
	c2.8,3.4,5.6,6.6,8.2,9.4c28.7,30.7,50,31.1,51,31.1c0.9,0,1.7-0.4,2.2-1l27-29.9c1.1-1.2,1-3.1-0.2-4.2c-0.4-0.3-0.8-0.6-1.3-0.7
	c-14.2-3.6-21.1-8.9-21.2-9c-11.3-9-22.5-21.5-26.7-26.5c-1.4-1.6-2.2-2.5-2.2-2.5c-0.5-0.6-1.3-1-2.1-1.1L668.4,292.2"/>
<path class="st27" d="M686.4,366.2c0,0,31.3-26.6,15.8-39.7l20.2,8.3l-31.2,32.9L686.4,366.2z"/>
<path class="st28" d="M670.2,311.9c-0.4,0-0.8,0.2-1.1,0.5L653.7,329c-0.6,0.6-0.5,1.6,0.1,2.1c0,0,0,0,0,0c0.3,0.2,0.6,0.4,1,0.4
	c0.4,0,0.8-0.2,1.1-0.5l15.4-16.6c0.6-0.6,0.5-1.6-0.1-2.1c0,0,0,0,0,0C670.9,312.1,670.6,311.9,670.2,311.9 M677.9,318.8
	c-0.4,0-0.8,0.2-1.1,0.5l-15.4,16.6c-0.6,0.6-0.5,1.6,0.1,2.1c0.3,0.2,0.6,0.4,1,0.4c0.4,0,0.8-0.2,1.1-0.5l15.4-16.6
	c0.6-0.6,0.5-1.6-0.1-2.1c0,0,0,0,0,0C678.6,318.9,678.3,318.8,677.9,318.8 M685.5,325.6c-0.4,0-0.8,0.2-1.1,0.5L669,342.6
	c-0.6,0.6-0.5,1.6,0.1,2.1c0,0,0,0,0,0c0.3,0.3,0.6,0.4,1,0.4c0.4,0,0.8-0.2,1.1-0.5l15.4-16.6c0.6-0.6,0.5-1.6-0.1-2.1c0,0,0,0,0,0
	C686.2,325.7,685.8,325.6,685.5,325.6 M685.4,339.8c-0.4,0-0.8,0.2-1.1,0.5l-7.7,8.3c-0.6,0.6-0.5,1.6,0.1,2.1c0,0,0,0,0,0
	c0.6,0.6,1.5,0.5,2.1-0.1c0,0,0,0,0,0l7.7-8.3c0.6-0.6,0.5-1.6-0.1-2.1c0,0,0,0,0,0C686.2,339.9,685.8,339.8,685.4,339.8"/>
<path class="st8" d="M644.3,334c-2.6-2.8-5.3-5.9-8-9.2l32.2-29.6c0,0,0.8,1,2.2,2.6C647.1,317,644.4,329.6,644.3,334z"/>
<path class="st1" d="M680.3,292.1c0,0,10.3,14.7,22.5,24"/>
<path class="st1" d="M679.1,292.9c0,0,2.6,3.7,6.8,8.6c4.8,5.8,10.2,11.1,16.1,15.8c0.7,0.5,1.6,0.4,2.1-0.3
	c0.5-0.7,0.4-1.6-0.3-2.1c-5.7-4.6-10.9-9.7-15.6-15.3c-2-2.4-3.7-4.5-4.8-6c-0.6-0.8-1-1.4-1.3-1.8c-0.2-0.2-0.3-0.4-0.3-0.5
	l-0.1-0.1c-0.5-0.7-1.4-0.8-2.1-0.4C678.8,291.3,678.6,292.3,679.1,292.9z M708.5,319.1c0,0.9-0.8,1.5-1.6,1.5s-1.5-0.8-1.5-1.6
	c0-0.9,0.8-1.5,1.6-1.5c0,0,0,0,0,0C707.9,317.5,708.6,318.2,708.5,319.1C708.5,319.1,708.5,319.1,708.5,319.1z"/>
<path class="st1" d="M668.4,295.2c0,0,0.8,1,2.2,2.6c4.6,5.4,15.8,17.9,27.2,26.9c0,0,7.1,5.6,22.3,9.5l-27,29.9
	c0,0-20.6,0-48.8-30.1c-2.6-2.8-5.3-5.9-8-9.2L668.4,295.2 M668.4,292.2c-0.7,0-1.5,0.3-2,0.8l-32.2,29.6c-1.2,1.1-1.3,2.9-0.3,4.1
	c2.8,3.4,5.6,6.6,8.2,9.4c28.7,30.7,50,31.1,51,31.1c0.9,0,1.7-0.4,2.2-1l27-29.9c1.1-1.2,1-3.1-0.2-4.2c-0.4-0.3-0.8-0.6-1.3-0.7
	c-14.2-3.6-21.1-8.9-21.2-9c-11.3-9-22.5-21.5-26.7-26.5c-1.4-1.6-2.2-2.5-2.2-2.5c-0.5-0.6-1.3-1-2.1-1.1L668.4,292.2z"/>
<path class="st0" d="M248.6,242.1c-40.6,0-73.4,32.9-73.4,73.4c0,36.6,27,67.7,63.3,72.7v-1.7c0-8.3,6.5-15.2,14.9-15.5l3.7-0.1
	l0.1-6.7c0-1.5,1.2-2.9,2.7-3c2.3-0.2,4.5-0.4,6.8-0.6v-4.9c0-1.6,1.2-2.9,2.8-3c2.3-0.2,4.6-0.3,7-0.4v-3.7c0-1.5,1.2-2.8,2.7-3
	c4.1-0.4,8.4-0.8,13.2-1.1c6.3-0.4,12.8-0.6,19.3-0.6v1.5V344c2.4,0,4.9,0,7.2,0.1l-1-4.5c13.3-38.3-6.9-80.2-45.2-93.5
	C264.9,243.4,256.8,242,248.6,242.1"/>
<path class="st3" d="M257.1,371l-3.7,0.1c-8.3,0.3-14.9,7.1-14.9,15.5v1.7l1.2,0.2c0.3-2.3,1.3-4.6,2.7-6.5c1.7-4.6,6.1-7.7,11-7.9
	l3.6-0.1L257.1,371"/>
<path class="st29" d="M257,374l-3.6,0.1c-4.9,0.1-9.3,3.3-11,7.9c3-4.1,7.7-6.6,12.8-6.7c0.6,0,1.3,0,1.9,0.1L257,374"/>
<path class="st30" d="M266.7,363.7c-2.2,0.2-4.4,0.4-6.5,0.6L260,376l0.5,0.2c0.6-1.8,1.7-3.4,3.1-4.6c0.9-0.9,1.9-1.7,3-2.4
	L266.7,363.7"/>
<path class="st3" d="M266.7,360.7c-2.3,0.2-4.6,0.4-6.8,0.6c-1.5,0.1-2.7,1.5-2.7,3l-0.1,6.7v4.3c1,0.1,2,0.4,3,0.7l0.1-11.7
	c2.2-0.2,4.4-0.4,6.5-0.6L266.7,360.7"/>
<path class="st30" d="M276.5,355.5c-2.3,0.1-4.5,0.2-6.8,0.4l-0.1,12.1c1.4-0.6,3-0.9,4.5-0.9h2.4L276.5,355.5"/>
<path class="st3" d="M276.5,352.5c-2.4,0.1-4.7,0.3-7,0.4c-1.6,0.1-2.8,1.4-2.8,3v13.4c0.6-0.4,1.3-0.6,2-0.9c0.3-0.2,0.6-0.3,1-0.5
	l0.1-12.1c2.3-0.1,4.5-0.3,6.8-0.4L276.5,352.5"/>
<path class="st30" d="M311.7,347.1c-6.2,0-12.6,0.2-19.1,0.6v21.2c1.5,1.1,2.7,2.5,3.7,4l28.5-1.1l-0.4-1.8
	c-7.8,0.1-15.6,0.6-23.4,1.5h-0.2c-0.8,0-1.5-0.6-1.6-1.4c0-0.8,0.6-1.5,1.4-1.6c7.7-0.9,15.4-1.4,23.1-1.5l-4.3-19.8
	C317,347.1,314.3,347.1,311.7,347.1 M311.7,345.6v1.5V345.6"/>
<path class="st3" d="M311.7,344.1c-6.5,0-13,0.2-19.3,0.6c-4.8,0.3-9.2,0.6-13.2,1.1c-1.5,0.2-2.7,1.5-2.7,3v18.4
	c0.3,0,0.5,0,0.8,0.1c0.7-0.3,1.4-0.6,2.2-0.8v-17.6c4.4-0.5,8.8-0.8,13.1-1.1c6.5-0.4,12.9-0.6,19.1-0.6L311.7,344.1 M311.7,344.1
	v3c2.7,0,5.3,0,7.9,0.1l-0.6-3C316.6,344.1,314.2,344.1,311.7,344.1"/>
<path class="st30" d="M292.6,347.6c-4.3,0.3-8.7,0.6-13.1,1.1v17.6c1.3-0.4,2.6-0.5,3.9-0.5c3.3,0,6.5,1.1,9.2,3.1L292.6,347.6"/>
<path class="st31" d="M323.9,367c-7.7,0.1-15.4,0.6-23.1,1.5c-0.8,0-1.5,0.8-1.4,1.6c0,0.8,0.8,1.5,1.6,1.4h0.2
	c7.8-0.9,15.6-1.4,23.4-1.5L323.9,367"/>
<path class="st1" d="M162.4,340.1c-3.8-12.7-4.5-26.1-2.3-39.2c0.1-0.8-0.4-1.6-1.2-1.8s-1.6,0.4-1.8,1.2l0,0
	c-0.9,5-1.3,10.1-1.3,15.2c0,8.6,1.3,17.2,3.7,25.5c0.2,0.8,1.1,1.2,1.9,1S162.6,340.9,162.4,340.1L162.4,340.1z"/>
<path class="st32" d="M240,390.5c-41.4,0-74.9-33.6-74.9-74.9c0-41.4,33.6-74.9,74.9-74.9s74.9,33.6,74.9,74.9
	c0,8.2-1.4,16.4-4,24.2l6.8,31.7c0.2,0.8-0.3,1.6-1.1,1.8c-0.1,0-0.2,0-0.3,0l-30,1.2C273.1,384.9,256.8,390.5,240,390.5z"/>
<path class="st1" d="M240,242.1c40.6,0,73.4,32.9,73.4,73.5c0,8.2-1.4,16.4-4.1,24.1l6.9,32.1l-30.5,1.2
	c-31.7,25.2-77.9,20-103.2-11.8s-20-77.9,11.8-103.2C207.3,247.7,223.4,242.1,240,242.1 M240,239.1c-42.2,0-76.5,34.2-76.5,76.5
	S197.8,392,240,392c17,0.1,33.5-5.6,46.8-16l29.5-1.2c1.7-0.1,2.9-1.5,2.9-3.1c0-0.2,0-0.3-0.1-0.5l-6.7-31.3
	c13.5-40-8-83.4-48.1-96.8C256.5,240.4,248.3,239.1,240,239.1z"/>
<path class="st33" d="M240,390.5c-41.4,0-74.9-33.6-74.9-74.9c0-41.4,33.6-74.9,74.9-74.9s74.9,33.6,74.9,74.9
	c0,8.2-1.4,16.4-4,24.2l6.8,31.7c0.2,0.8-0.3,1.6-1.1,1.8c-0.1,0-0.2,0-0.3,0l-30,1.2C273.1,384.9,256.8,390.5,240,390.5z"/>
<path class="st1" d="M240,242.1c40.6,0,73.4,32.9,73.4,73.5c0,8.2-1.4,16.4-4.1,24.1l6.9,32.1l-30.5,1.2
	c-31.7,25.2-77.9,20-103.2-11.8s-20-77.9,11.8-103.2C207.3,247.7,223.4,242.1,240,242.1 M240,239.1c-42.2,0-76.5,34.2-76.5,76.5
	S197.8,392,240,392c17,0.1,33.5-5.6,46.8-16l29.5-1.2c1.7-0.1,2.9-1.5,2.9-3.1c0-0.2,0-0.3-0.1-0.5l-6.7-31.3
	c13.5-40-8-83.4-48.1-96.8C256.5,240.4,248.3,239.1,240,239.1z"/>
<path class="st34" d="M301.5,315.5c0,8.2-1.4,16.4-4.1,24.1l6.9,32.1h-0.6l0.2,0.5l12.3-0.5l-6.9-32.1c13.3-38.3-6.9-80.2-45.3-93.5
	c-7.7-2.7-15.9-4.1-24.1-4.1c-2,0-4,0.1-6,0.3C272.1,245.4,301.5,277.3,301.5,315.5z"/>
<path class="st35" d="M252.5,384.1c-40.6,0-73.4-32.9-73.4-73.4c0-27.9,15.8-53.4,40.8-65.8c-39,11.1-61.7,51.7-50.6,90.7
	c11.1,39,51.7,61.7,90.7,50.6c4.3-1.2,8.5-2.8,12.5-4.8C266,383.2,259.3,384.1,252.5,384.1L252.5,384.1z"/>
<path class="st1" d="M158.1,296.1c0,0.9,0.7,1.6,1.5,1.6s1.6-0.7,1.6-1.5c0-0.9-0.7-1.6-1.5-1.6c0,0,0,0,0,0
	C158.8,294.5,158.1,295.2,158.1,296.1z M197.1,266.9c11.4-11.3,26.7-17.6,42.8-17.6c0.8,0,1.5-0.7,1.5-1.5s-0.7-1.5-1.5-1.5
	c-16.8,0-33,6.6-44.9,18.5c-0.6,0.5-0.7,1.5-0.2,2.1c0.5,0.6,1.5,0.7,2.1,0.2C197,267,197.1,266.9,197.1,266.9L197.1,266.9z"/>
<circle class="st1" cx="244.7" cy="247.8" r="1.6"/>
<path class="st1" d="M193,357.3h94.6c0.8,0,1.5-0.7,1.5-1.5s-0.7-1.5-1.5-1.5H193c-0.8,0-1.5,0.7-1.5,1.5S192.2,357.3,193,357.3"/>
<path class="st22" d="M281.3,355.8h-34.2v-65.6c0.1-1.2,1.1-2.1,2.3-2H279c1.2-0.1,2.2,0.8,2.3,2L281.3,355.8z"/>
<path class="st1" d="M281.3,355.8v-1.5h-32.7v-64.1c0-0.1,0.1-0.2,0.2-0.3c0.2-0.2,0.4-0.2,0.7-0.2H279c0.2,0,0.5,0.1,0.7,0.2
	c0.1,0.1,0.2,0.2,0.2,0.3v65.6h3v-65.6c0-1-0.4-1.9-1.2-2.6c-0.7-0.6-1.7-1-2.6-1h-29.6c-1,0-1.9,0.4-2.6,1
	c-0.8,0.6-1.2,1.6-1.2,2.6v65.6c0,0.4,0.2,0.8,0.4,1.1c0.3,0.3,0.7,0.4,1.1,0.4h34.2c0.4,0,0.8-0.2,1.1-0.4c0.3-0.3,0.4-0.7,0.4-1.1
	H281.3z"/>
<path class="st22" d="M257.6,355.8h-34.2v-48.6c0.1-1.2,1.1-2.1,2.3-2h29.6c1.2-0.1,2.2,0.8,2.3,2V355.8z"/>
<path class="st1" d="M257.6,355.8v-1.5h-32.7v-47.1c0-0.1,0.1-0.2,0.2-0.3c0.2-0.2,0.4-0.2,0.7-0.2h29.6c0.2,0,0.5,0.1,0.7,0.2
	c0.1,0.1,0.2,0.2,0.2,0.3v48.6h3v-48.6c0-1-0.4-1.9-1.2-2.6c-0.7-0.6-1.7-1-2.6-1h-29.6c-1,0-1.9,0.4-2.6,1
	c-0.7,0.6-1.2,1.6-1.2,2.6v48.6c0,0.8,0.7,1.5,1.5,1.5h34.2c0.8,0,1.5-0.7,1.5-1.5L257.6,355.8z"/>
<path class="st22" d="M234.3,355.8h-32.7V327c0.1-1.2,1.1-2.1,2.2-2H232c1.2-0.1,2.2,0.8,2.2,2L234.3,355.8z"/>
<path class="st1" d="M234.3,355.8v-1.5h-31.1V327c0-0.1,0.1-0.2,0.2-0.3c0.2-0.1,0.4-0.2,0.6-0.2H232c0.2,0,0.4,0.1,0.6,0.2
	c0.1,0.1,0.2,0.2,0.2,0.3v28.8h3V327c0-1-0.4-1.9-1.1-2.5c-0.7-0.6-1.6-1-2.6-1h-28.2c-1,0-1.9,0.4-2.6,1c-0.7,0.6-1.1,1.6-1.1,2.5
	v28.8c0,0.4,0.2,0.8,0.4,1.1c0.3,0.3,0.7,0.4,1.1,0.4h32.6c0.4,0,0.8-0.2,1.1-0.4c0.3-0.3,0.4-0.7,0.4-1.1H234.3z"/>
<path class="st36" d="M255.9,354.1h-14v-47.3h13.8c0.1,0,0.2,0.1,0.2,0.2L255.9,354.1z M279.5,354.1h-14v-64.3h13.8
	c0.1,0,0.2,0.1,0.2,0.2L279.5,354.1z M232.5,354h-14v-27.2h13.8c0.1,0,0.2,0.1,0.2,0.2c0,0,0,0,0,0L232.5,354z"/>
<path class="st37" d="M196.8,307.5l23.8-23.9l7.9,7.4c0.6,0.5,1.4,0.5,2,0l21.8-19.9c0.7-0.5,0.8-1.4,0.3-2.1
	c-0.5-0.7-1.4-0.8-2.1-0.3c-0.1,0.1-0.2,0.1-0.3,0.2l-20.8,19l-8-7.5c-0.6-0.6-1.5-0.6-2.1,0l-24.8,24.9c-0.6,0.6-0.6,1.5,0,2.1
	S196.1,308,196.8,307.5L196.8,307.5z"/>
<path class="st37" d="M247.1,266.5l7.4,8.1l0.3-7.7L247.1,266.5z"/>
<circle class="st38" cx="206.3" cy="548.2" r="2.5"/>
<path class="st32" d="M279.7,497.8c0,0,10.5,14.3,24.9,37.4c13.7,22.1,11.9,59.4-15.2,67.6s-60.5,9.4-84.3-7.6
	c-14.7-10.5-15.2-29.5-9.3-45.2c5.4-14.4,15.5-25.2,24.8-37.1c8.7-11.2,15.8-25.5,8.7-39.4c-8.3-16.4-11.8-11.1-13.2-21.7
	s15.8-20,27.3-13.6s12.4-2.1,20.3-2.5c7.9-0.4,9.8,9.5,8.3,12.6c0,0,13.9-5.2,15.1,8.2s-16.6,15.9-13.3,28.3
	C275.1,489.3,277.1,493.7,279.7,497.8"/>
<path class="st38" d="M279.7,497.8l-1.2,0.9c0,0,0.2,0.2,0.5,0.6c2.2,3,11.8,16.4,24.3,36.6c5.4,8.9,8.2,19.2,8.2,29.6
	c0,8-1.8,15.8-5.4,22.2c-3.7,6.6-9.9,11.5-17.1,13.6c-12.1,3.7-24.6,5.6-37.2,5.7c-16.5,0-32.7-3.7-45.8-13.1
	c-4.1-2.9-7.3-6.8-9.4-11.3c-1.9-4.5-2.9-9.3-2.8-14.2c0.1-6.2,1.2-12.3,3.4-18c2.7-6.8,6.3-13.3,10.8-19.1
	c4.3-5.9,9.1-11.6,13.8-17.6c3.3-4.1,6.1-8.5,8.4-13.2c2.3-4.7,3.5-9.8,3.6-15c0-4.4-1-8.7-3-12.6c-1.6-3.2-3.4-6.2-5.5-9.1
	c-1.7-2-3.4-3.9-5.3-5.7c-0.6-0.7-1-1.4-1.3-2.2c-0.5-1.4-0.8-2.8-0.9-4.2c0-0.3-0.1-0.7-0.1-1c0-1.7,0.5-3.3,1.4-4.8
	c1.6-2.5,3.9-4.5,6.6-5.9c2.9-1.5,6.1-2.3,9.4-2.4c2.7,0,5.4,0.6,7.8,1.9c3.3,1.8,5.9,2.6,8.2,2.6c1.4,0,2.7-0.3,4-0.9
	c1.5-0.8,3-1.6,4.4-2.6c1.4-0.9,3-1.4,4.6-1.5h0.4c1.1,0,2.1,0.3,3,0.8c1.3,0.8,2.3,2,2.8,3.4c0.6,1.4,0.9,2.8,0.9,4.3
	c0,0.7-0.1,1.3-0.3,1.9c-0.4,0.7,0,1.6,0.7,2c0.4,0.2,0.8,0.2,1.2,0.1l0-0.1l0,0.1l0-0.1l0,0.1c1.7-0.6,3.5-0.9,5.3-0.9
	c1.8-0.1,3.5,0.4,5,1.5c0.8,0.6,1.4,1.4,1.8,2.3c0.6,1.3,0.9,2.7,1,4.1c0,0.4,0,0.8,0,1.1c0,2.3-0.7,4.5-1.9,6.4
	c-1.8,2.8-4.6,5.2-7.1,7.8c-1.3,1.3-2.4,2.8-3.3,4.3c-1,1.7-1.5,3.6-1.5,5.5c0,1.2,0.2,2.3,0.5,3.4c1.3,4.8,3.4,9.3,6.1,13.5v0
	L279.7,497.8l1.2-0.8c-2.5-3.9-4.4-8.1-5.7-12.6c-0.2-0.9-0.4-1.7-0.4-2.6c0-1.9,0.7-3.8,1.9-5.3c1-1.3,2.1-2.6,3.3-3.7
	c2.1-1.9,4-4,5.7-6.2c1.9-2.5,2.9-5.6,2.9-8.8c0-0.5,0-0.9-0.1-1.4c-0.1-1.8-0.6-3.5-1.3-5.2c-0.9-1.9-2.4-3.5-4.3-4.4
	c-1.6-0.7-3.4-1.1-5.2-1.1c-2.1,0-4.3,0.4-6.3,1.1l0.5,1.4l1.3,0.7c0.5-1,0.7-2.1,0.6-3.2c0-2.6-0.8-5.1-2.2-7.3
	c-0.8-1.2-1.8-2.2-3.1-3c-1.4-0.8-3-1.2-4.6-1.2h-0.5c-1.5,0.1-2.9,0.4-4.2,1c-1.6,0.8-3.1,1.6-4.5,2.6c-1.2,0.8-2.6,1.2-4.1,1.3
	c-1.6,0-3.7-0.5-6.7-2.2c-2.8-1.6-6-2.4-9.2-2.3c-5,0-9.9,1.7-13.9,4.6c-1.9,1.4-3.5,3.1-4.7,5c-1.2,1.9-1.8,4.1-1.8,6.3
	c0,0.5,0,1,0.1,1.4c0.2,2.1,0.7,4.2,1.6,6.1c0.5,1,1.2,1.9,2,2.7c1.4,1.3,2.7,2.7,3.9,4.1c2.2,2.9,4.2,6,5.8,9.3
	c1.8,3.5,2.7,7.3,2.7,11.3c-0.1,4.8-1.2,9.5-3.3,13.8c-2.2,4.5-4.9,8.8-8,12.7c-4.6,5.9-9.5,11.6-13.9,17.6
	c-4.6,6.1-8.4,12.8-11.1,19.9c-2.3,6.1-3.6,12.5-3.6,19c-0.1,5.3,1,10.5,3.1,15.4c2.3,5,5.8,9.4,10.4,12.6
	c13.8,9.8,30.6,13.7,47.6,13.7c12.9-0.1,25.7-2.1,38.1-5.9c8-2.3,14.8-7.7,18.9-14.9c4-6.9,5.8-15.2,5.8-23.7c0-11-3-21.8-8.6-31.2
	c-14.4-23.2-24.9-37.5-25-37.5L279.7,497.8l1.2-0.9L279.7,497.8"/>
<path class="st39" d="M234,437.9h-0.4c-3.6,0.3-7.1,1.4-10.1,3.3c-3.9,2.6-6.4,6.7-6,10.1c0.6,4.7,1,5.3,3,7.2s5.7,5.6,9.9,14
	c6.2,12.2,3.6,25.5-8.5,41.1c-1.7,2.2-3.5,4.4-5.2,6.5c-7.7,9.5-15.4,18.8-19.7,30.2c-5.2,13.9-5.7,33.4,8.5,43.5
	c2.3,1.7,5.2,1.7,7.7,3c-14.1-10.6-14.5-29.2-8.7-44.7c5.4-14.4,15.5-25.2,24.8-37.1c8.8-11.2,14.8-25,8.7-39.4
	c-9.5-22.6-7.2-35.1,1-36.9v-0.1C237.4,438.2,235.6,437.9,234,437.9"/>
<path class="st40" d="M201.5,569.5c0.2-4.9,1.1-9.8,2.7-14.5"/>
<path class="st38" d="M203,569.5c0.2-4.8,1.1-9.5,2.6-14.1c0.3-0.8-0.2-1.6-1-1.9s-1.6,0.2-1.9,1c-1.6,4.8-2.6,9.8-2.8,14.9
	c0,0.8,0.6,1.5,1.4,1.6S203,570.4,203,569.5L203,569.5z"/>
<path class="st41" d="M302.7,535.1c-14.4-23.1-24.9-37.4-24.9-37.4c-2.6-4-4.6-8.4-5.9-13c-3.4-12.4,14.5-14.8,13.3-28.3
	s-15.1-8.2-15.1-8.2c0.3-0.7,0.4-1.4,0.4-2.1c-0.5,1.1-1.2,2.2-2,3.1c1.7,1.4-3.7,7.5-4.7,11.1c-4.3,15.9-8.7,12.1-5.3,24.5
	c1.3,4.6,3.3,9,5.9,13c0,0,10.5,14.2,24.9,37.3c13.7,22.1,14.5,54.3-12.3,63.5c-24.2,8.4-46.2,2.9-60.3,1.4
	c3.8,6.6,43.2,12.6,72.8,2.4C316.4,593.4,316.5,557.3,302.7,535.1L302.7,535.1z"/>
<path class="st38" d="M270.7,447.5c0,0.1-7.6,12.5-11.3,25.8c-0.2,0.8,0.2,1.6,1,1.9s1.6-0.2,1.9-1c1.8-6,4.1-11.8,6.9-17.4
	c1.1-2.3,2.2-4.3,2.9-5.6c0.4-0.7,0.7-1.2,0.9-1.6l0.2-0.4l0.1-0.1c0.4-0.7,0.2-1.6-0.5-2.1S271.1,446.7,270.7,447.5L270.7,447.5z
	 M244.9,453.6l0.2-0.1L244.9,453.6l0.2-0.1L244.9,453.6c1,1.5,1.8,3.1,2.5,4.8c1.6,3.7,2.4,7.6,2.4,11.6c0,1.8-0.2,3.6-0.6,5.3
	c-0.2,0.8,0.3,1.6,1.1,1.8c0.8,0.2,1.6-0.3,1.8-1.1c0,0,0-0.1,0-0.1c0.4-1.9,0.6-3.9,0.6-5.9c0-4.4-1-8.8-2.7-12.9
	c-0.7-1.8-1.7-3.6-2.8-5.2c-0.4-0.7-1.4-0.9-2.1-0.5c-0.7,0.4-0.9,1.4-0.5,2.1C244.9,453.5,244.9,453.6,244.9,453.6L244.9,453.6z
	 M242.3,487.7v0.1c-0.4,2.9-1,5.9-1.8,8.8c-1.2,4.9-3.1,9.5-5.6,13.8c-0.5,0.7-0.3,1.6,0.4,2.1c0.7,0.5,1.6,0.3,2.1-0.4
	c0,0,0,0,0-0.1c2.9-4.8,4.9-10.1,6.2-15.5c0.7-2.8,1.3-5.6,1.6-8.4c0.1-0.8-0.5-1.6-1.3-1.7S242.4,486.9,242.3,487.7L242.3,487.7z
	 M262.8,487.9c2.4,7.6,6.1,14.7,11.1,20.9c0.5,0.7,1.5,0.8,2.1,0.3c0.7-0.5,0.8-1.5,0.3-2.1c-3.3-4.2-6.1-8.9-8.3-13.8
	c-0.8-1.9-1.4-3.4-1.8-4.4c-0.2-0.5-0.3-0.9-0.4-1.2c0-0.1-0.1-0.2-0.1-0.3v-0.1c-0.2-0.8-1-1.3-1.8-1.1S262.6,487.1,262.8,487.9
	L262.8,487.9z M297.4,554c0.7,4,1.1,8,1.1,12c0,5.2-0.6,11.2-2.8,16.2c-1,2.5-2.5,4.8-4.4,6.7c-2,2-4.5,3.5-7.3,4.3
	c-0.8,0.3-1.2,1.1-1,1.9c0.3,0.8,1.1,1.2,1.8,1c3.2-0.9,6.1-2.7,8.5-5c3.2-3.3,5.5-7.5,6.5-12c1.1-4.2,1.6-8.6,1.5-13
	c0-4.3-0.4-8.5-1.1-12.7c-0.2-0.8-1-1.3-1.8-1.2C297.8,552.4,297.3,553.1,297.4,554L297.4,554z"/>
<path class="st42" d="M156.1,608.1c0.1,3.9,9.2,6.8,20.4,6.5s20.2-3.6,20.1-7.5l0.4-8.1l-40.5,1L156.1,608.1"/>
<path class="st38" d="M156.1,608.1h-1.5c0,0.7,0.2,1.4,0.6,2.1c0.7,1.1,1.7,2,2.9,2.6c2.3,1.2,4.7,2,7.2,2.4
	c3.2,0.6,6.5,0.9,9.8,0.9h1.4c5,0,10-0.9,14.7-2.5c1.7-0.6,3.3-1.4,4.8-2.6c0.6-0.5,1.1-1.1,1.5-1.7c0.4-0.7,0.6-1.4,0.6-2.2v-0.1
	h-1.5l1.5,0.1l0.3-8.2c0-0.8-0.6-1.5-1.4-1.6c0,0-0.1,0-0.1,0l-40.5,1c-0.8,0-1.4,0.6-1.5,1.4l-0.3,8.2v0.1L156.1,608.1l1.5,0.1
	l0.3-6.8l37.5-0.9l-0.3,6.6v0.1c0,0.2-0.1,0.5-0.2,0.7c-0.5,0.7-1.2,1.3-2,1.7c-2.1,1.1-4.4,1.9-6.7,2.4c-3.2,0.7-6.5,1.1-9.7,1.1
	h-1.4c-4.4,0.1-8.7-0.5-12.9-1.8c-1.3-0.4-2.5-1-3.6-1.8c-0.3-0.2-0.6-0.5-0.8-0.8c-0.1-0.2-0.2-0.4-0.2-0.6L156.1,608.1l1.5,0
	L156.1,608.1"/>
<path class="st20" d="M197,599c0.1,3.3-8.9,6.3-20.1,6.5s-20.3-2.2-20.4-5.6s8.9-6.3,20.1-6.5S196.9,595.6,197,599"/>
<path class="st38" d="M197,599h-1.5c0,0.1-0.1,0.3-0.1,0.4c-0.5,0.6-1.2,1.1-1.9,1.5c-2.2,1-4.4,1.7-6.8,2.1c-3.2,0.6-6.5,0.9-9.8,1
	h-1.6c-4.3,0.1-8.6-0.4-12.8-1.5c-1.3-0.3-2.5-0.9-3.6-1.6c-0.3-0.2-0.5-0.4-0.7-0.7c-0.1-0.1-0.1-0.2-0.1-0.3
	c0-0.1,0.1-0.3,0.1-0.4c0.5-0.6,1.1-1.1,1.9-1.5c2.2-1,4.4-1.7,6.8-2.1c3.2-0.6,6.5-0.9,9.8-1h1.6c4.3-0.1,8.6,0.4,12.8,1.5
	c1.3,0.3,2.5,0.9,3.6,1.6c0.3,0.2,0.5,0.4,0.7,0.7c0.1,0.1,0.1,0.2,0.1,0.3h3c0-0.7-0.2-1.4-0.7-2c-0.8-1-1.8-1.8-2.9-2.3
	c-2.3-1-4.6-1.7-7.1-2.1c-3.2-0.5-6.4-0.8-9.6-0.7h-1.7c-5,0-9.9,0.8-14.7,2.2c-1.7,0.5-3.3,1.2-4.7,2.2c-0.6,0.4-1.1,0.9-1.5,1.5
	c-0.4,0.6-0.7,1.3-0.7,2.1v0.1c0,0.7,0.2,1.4,0.7,2c0.8,1,1.8,1.8,2.9,2.3c2.3,1,4.6,1.7,7.1,2.1c3.2,0.5,6.4,0.8,9.6,0.7h1.7
	c5,0,9.9-0.8,14.7-2.2c1.7-0.5,3.3-1.3,4.7-2.2c0.6-0.4,1.1-0.9,1.5-1.5c0.4-0.6,0.7-1.3,0.7-2.1V599L197,599"/>
<path class="st43" d="M178.2,594.9h-1.6c-3.3,0.1-6.6,0.4-9.8,1c-2.4,0.4-4.7,1.1-6.8,2.1c-0.8,0.3-1.4,0.8-1.9,1.5
	c-0.1,0.1-0.1,0.2-0.1,0.4c0,0.1,0.1,0.2,0.1,0.3c0.2,0.3,0.4,0.5,0.7,0.7c1.1,0.7,2.3,1.2,3.6,1.6c4.2,1.1,8.5,1.6,12.8,1.6h1.6
	c3.3-0.1,6.6-0.4,9.8-1c2.3-0.4,4.6-1.1,6.8-2.1c0.8-0.3,1.4-0.8,1.9-1.5c0.1-0.1,0.1-0.2,0.1-0.4h1.5h-1.5c0-0.1-0.1-0.2-0.1-0.3
	c-0.2-0.3-0.4-0.5-0.7-0.7c-1.1-0.7-2.3-1.2-3.6-1.6C186.8,595.3,182.5,594.8,178.2,594.9"/>
<path class="st44" d="M175.2,604c-4.3,0.1-8.6-0.4-12.8-1.5c-1.3-0.3-2.5-0.9-3.6-1.6c-0.3-0.2-0.5-0.4-0.7-0.7
	c-0.1-0.1-0.1-0.2-0.1-0.3c0-0.1,0.1-0.3,0.1-0.4c0.5-0.6,1.2-1.2,1.9-1.5c2.2-1,4.4-1.7,6.8-2.1c3.2-0.6,6.5-0.9,9.8-1h1.6
	c4.3-0.1,8.6,0.4,12.8,1.5c1.3,0.3,2.5,0.9,3.6,1.6c0.3,0.2,0.5,0.4,0.7,0.7c0.1,0.1,0.1,0.2,0.1,0.3h1.5h-1.5
	c0,0.1-0.1,0.3-0.1,0.4c-0.5,0.6-1.2,1.1-1.9,1.5c-2.2,1-4.4,1.7-6.8,2.1c-3.2,0.6-6.5,0.9-9.8,1L175.2,604 M178.2,593.3h-1.6
	c-11.2,0.3-20.2,3.2-20.1,6.5c0.1,3.2,8.3,5.6,18.8,5.6h1.6c11.2-0.2,20.2-3.2,20.2-6.5C196.9,595.8,188.7,593.4,178.2,593.3"/>
<path class="st38" d="M197,599h-1.5c0,0.1-0.1,0.3-0.1,0.4c-0.5,0.6-1.2,1.1-1.9,1.5c-2.2,1-4.4,1.7-6.8,2.1c-3.2,0.6-6.5,0.9-9.8,1
	h-1.6c-4.3,0.1-8.6-0.4-12.8-1.5c-1.3-0.3-2.5-0.9-3.6-1.6c-0.3-0.2-0.5-0.4-0.7-0.7c-0.1-0.1-0.1-0.2-0.1-0.3
	c0-0.1,0.1-0.3,0.1-0.4c0.5-0.6,1.1-1.1,1.9-1.5c2.2-1,4.4-1.7,6.8-2.1c3.2-0.6,6.5-0.9,9.8-1h1.6c4.3-0.1,8.6,0.4,12.8,1.5
	c1.3,0.3,2.5,0.9,3.6,1.6c0.3,0.2,0.5,0.4,0.7,0.7c0.1,0.1,0.1,0.2,0.1,0.3h3c0-0.7-0.2-1.4-0.7-2c-0.8-1-1.8-1.8-2.9-2.3
	c-2.3-1-4.6-1.7-7.1-2.1c-3.2-0.5-6.4-0.8-9.6-0.7h-1.7c-5,0-9.9,0.8-14.7,2.2c-1.7,0.5-3.3,1.2-4.7,2.2c-0.6,0.4-1.1,0.9-1.5,1.5
	c-0.4,0.6-0.7,1.3-0.7,2.1v0.1c0,0.7,0.2,1.4,0.7,2c0.8,1,1.8,1.8,2.9,2.3c2.3,1,4.6,1.7,7.1,2.1c3.2,0.5,6.4,0.8,9.6,0.7h1.7
	c5,0,9.9-0.8,14.7-2.2c1.7-0.5,3.3-1.3,4.7-2.2c0.6-0.4,1.1-0.9,1.5-1.5c0.4-0.6,0.7-1.3,0.7-2.1V599L197,599z"/>
<path class="st42" d="M184.4,604.3l12.9-22.5l-4.2-4.5c0.6,0-2.6-0.8,4.3-0.8c9.2,0,19.3,6,18.8,18.7c-0.6,14.2-9.6,17.1-18.8,16.9
	c-6-0.1-11-6.8-11.6-6.9"/>
<path class="st38" d="M185.7,605.1l12.9-22.5c0.3-0.6,0.2-1.3-0.2-1.8l-4.2-4.5l-1.1,1l0.1,1.5c0.2,0,0.4,0,0.5-0.1
	c0.4-0.2,0.7-0.5,0.8-0.8c0.1-0.2,0.1-0.4,0.1-0.6c0-0.3-0.1-0.5-0.2-0.7c-0.1-0.2-0.2-0.3-0.3-0.4l-0.2-0.2l-0.5,0.7l0.7-0.6
	c-0.1-0.1-0.1-0.1-0.1-0.1l-0.5,0.7l0.7-0.6l-1,0.8l1.2-0.6c-0.1-0.1-0.1-0.2-0.2-0.3l-1,0.8l1.2-0.6l-1.2,0.6h1.4
	c0-0.2,0-0.4-0.1-0.6l-1.2,0.6l1.3,0.6c0.1-0.2,0.1-0.4,0.1-0.6h-1.4l1.3,0.6L193,577l0.7,1.1c0.2-0.1,0.4-0.3,0.5-0.6L193,577
	l0.7,1.1l-0.4-0.7l0.3,0.8c0.1,0,0.1,0,0.2-0.1l-0.4-0.7l0.3,0.8l-0.1-0.2l0.1,0.2l-0.1-0.2l0.1,0.2c0.3-0.1,0.6-0.1,0.9-0.1
	c0.6,0,1.4-0.1,2.6-0.1h0.3c4.3,0,8.4,1.4,11.8,4c1.7,1.4,3,3.1,3.9,5c1,2.3,1.6,4.7,1.5,7.2v0.8c0,2.7-0.6,5.4-1.7,7.9
	c-1.2,2.7-3.4,4.8-6.1,6c-2.8,1.1-5.9,1.7-8.9,1.6h-0.6c-1.3,0-2.5-0.4-3.6-1c-1.7-0.9-3.2-2-4.6-3.3c-0.6-0.6-1.1-1.1-1.5-1.5
	c-0.2-0.2-0.4-0.4-0.6-0.5l-0.3-0.2l-0.2-0.2c-0.1-0.1-0.3-0.1-0.5-0.2c-0.8-0.1-1.6,0.4-1.8,1.2s0.4,1.6,1.2,1.8l0,0l0.2-1.3
	l-0.6,1.1c0.1,0.1,0.3,0.1,0.4,0.2l0.2-1.3l-0.6,1.1l0.3-0.6l-0.4,0.5l0.1,0l0.3-0.6l-0.4,0.5c0,0,0.2,0.2,0.4,0.4
	c0.4,0.4,1,1,1.8,1.7c1.3,1.2,2.7,2.3,4.3,3.2c1.8,1.1,3.8,1.7,5.9,1.8h0.7c2.3,0,4.6-0.2,6.9-0.7c3.4-0.7,6.6-2.6,8.8-5.3
	c2.3-2.9,3.7-6.9,4-12.3v-1c0-2.9-0.6-5.8-1.8-8.5c-1.7-3.5-4.4-6.3-7.9-8.2c-3.3-1.8-6.9-2.7-10.7-2.7H197c-1.2,0-2.4,0-3.6,0.2
	c-0.3,0-0.7,0.1-1,0.2c-0.2,0.1-0.4,0.2-0.6,0.4c-0.1,0.1-0.3,0.3-0.3,0.5c-0.1,0.2-0.2,0.4-0.1,0.7c0,0.3,0.1,0.5,0.2,0.8
	c0.1,0.2,0.2,0.4,0.4,0.5c0.1,0.1,0.2,0.2,0.3,0.2l0.3-0.4l-0.3,0.4l0.3-0.4l-0.3,0.4l0.8-1l-0.9,0.8c0,0.1,0.1,0.1,0.2,0.2l0.8-1
	l-0.9,0.8l1.1-1l-1.2,0.7c0.1,0.1,0.1,0.2,0.2,0.3l1.1-1l-1.2,0.7l1.3-0.7h-1.5c0,0.2,0.1,0.5,0.2,0.7l1.3-0.7l-1.4-0.5
	c-0.1,0.2-0.1,0.4-0.1,0.5h1.5l-1.4-0.5l1.4,0.5l-0.9-1.2c-0.2,0.2-0.4,0.4-0.5,0.7l1.4,0.5l-0.9-1.2l0.8,1.2l-0.3-1.4
	c-0.2,0-0.4,0.1-0.5,0.2l0.8,1.2l-0.3-1.4l0.3,1.2l-0.1-1.2h-0.2l0.3,1.2l-0.1-1.2c-0.6,0.1-1.1,0.4-1.3,1c-0.2,0.5-0.1,1.2,0.3,1.6
	l3.5,3.7l-12.4,21.6c-0.4,0.7-0.1,1.6,0.7,2c0.7,0.4,1.5,0.1,1.9-0.5L185.7,605.1z"/>
<ellipse transform="matrix(4.588600e-02 -0.9989 0.9989 4.588600e-02 -410.776 758.7146)" class="st20" cx="191.8" cy="594.4" rx="18" ry="16.9"/>
<path class="st38" d="M208.7,595.2l-1.5-0.1c-0.2,4.2-1.9,8.2-4.9,11.2c-2.8,2.9-6.6,4.5-10.6,4.5H191c-4-0.2-7.8-2-10.4-5
	c-2.8-3.1-4.3-7.2-4.3-11.3v-0.8c0.2-4.2,1.9-8.2,4.9-11.2c2.8-2.9,6.6-4.5,10.6-4.5h0.7c4,0.2,7.8,2,10.5,5.1
	c2.8,3.1,4.3,7.2,4.3,11.3v0.8L208.7,595.2l1.6,0.1v-1c0-4.9-1.8-9.7-5.1-13.3c-3.2-3.6-7.7-5.8-12.5-6h-0.8c-4.8,0-9.4,2-12.8,5.4
	c-3.5,3.5-5.5,8.2-5.7,13.2v1c0,4.9,1.7,9.7,5,13.3c3.2,3.6,7.7,5.8,12.5,6h0.8c4.8,0,9.4-2,12.8-5.4c3.5-3.5,5.5-8.2,5.7-13.2
	L208.7,595.2z"/>
<path class="st45" d="M190.9,577.9L190.9,577.9c-7.8,0.1-14.2,6.8-14.6,15.7c-0.3,4.2,1,8.4,3.7,11.7c2.4,3.1,6.1,5.1,10.1,5.3h0.6
	c0.6,0,1.1,0,1.7-0.1c-5.5-1.9-11.8-8.6-10.8-17c0.7-6.2,4.2-13.9,15.5-14.2c-1.6-0.8-3.4-1.3-5.3-1.4H190.9"/>
<path class="st42" d="M300.5,609.8c0.1,3.8,9,6.6,20,6.3s19.7-3.5,19.6-7.3l0.3-8l-39.6,0.9L300.5,609.8z"/>
<path class="st38" d="M300.5,609.8H299c0,0.7,0.2,1.4,0.6,2c0.7,1.1,1.7,2,2.9,2.6c2.2,1.2,4.6,2,7.1,2.4c3.1,0.6,6.3,0.9,9.5,0.8
	h1.4c4.9,0,9.7-0.8,14.4-2.4c1.7-0.6,3.2-1.4,4.6-2.5c0.6-0.5,1.1-1,1.4-1.7c0.4-0.6,0.6-1.4,0.6-2.1v-0.1h-1.5l1.5,0.1l0.3-8
	c0-0.4-0.1-0.8-0.4-1.1c-0.3-0.3-0.7-0.5-1.1-0.5l-39.6,0.9c-0.8,0-1.4,0.7-1.5,1.4l-0.3,8v0.1L300.5,609.8l1.5,0.1l0.3-6.6
	l36.6-0.9l-0.3,6.4v0.1c0,0.2-0.1,0.4-0.2,0.6c-0.5,0.7-1.1,1.3-1.9,1.7c-2,1.1-4.2,1.9-6.5,2.4c-3.1,0.7-6.3,1-9.5,1.1h-1.4
	c-4.3,0.1-8.5-0.5-12.6-1.8c-1.3-0.4-2.4-1-3.5-1.8c-0.3-0.2-0.6-0.5-0.8-0.8c-0.1-0.2-0.2-0.4-0.2-0.6L300.5,609.8h1.5H300.5z"/>
<path class="st20" d="M340.5,600.8c0.1,3.3-8.7,6.1-19.7,6.4s-19.8-2.2-19.9-5.4s8.7-6.1,19.6-6.4S340.4,597.5,340.5,600.8z"/>
<path class="st38" d="M340.5,600.8H339c0,0.1-0.1,0.3-0.1,0.4c-0.5,0.6-1.2,1.1-1.9,1.4c-2.1,1-4.3,1.7-6.6,2.1
	c-3.1,0.6-6.3,0.9-9.5,1h-1.6c-4.2,0.1-8.4-0.4-12.5-1.5c-1.2-0.3-2.4-0.8-3.5-1.5c-0.3-0.2-0.5-0.4-0.7-0.7
	c-0.1-0.2-0.1-0.2-0.1-0.3c0-0.1,0.1-0.3,0.1-0.4c0.5-0.6,1.1-1.1,1.9-1.4c2.1-1,4.3-1.7,6.6-2.1c3.1-0.6,6.3-0.9,9.5-1h1.6
	c4.2-0.1,8.4,0.4,12.5,1.5c1.2,0.3,2.4,0.8,3.5,1.5c0.3,0.2,0.5,0.4,0.7,0.7c0.1,0.1,0.1,0.2,0.1,0.3h3c0-0.7-0.3-1.4-0.6-1.9
	c-0.8-1-1.7-1.7-2.9-2.2c-2.2-1-4.5-1.7-6.9-2c-3.1-0.5-6.2-0.7-9.4-0.7h-1.6c-4.9,0-9.7,0.7-14.3,2.1c-1.6,0.5-3.2,1.2-4.6,2.2
	c-0.6,0.4-1.1,0.9-1.5,1.5c-0.4,0.6-0.6,1.3-0.6,2v0.1c0,0.7,0.2,1.4,0.6,1.9c0.7,1,1.7,1.7,2.9,2.2c2.2,1,4.5,1.7,6.9,2
	c3.1,0.5,6.2,0.7,9.4,0.7h1.6c4.9,0,9.7-0.8,14.3-2.1c1.6-0.5,3.2-1.2,4.6-2.2c0.6-0.4,1.1-0.9,1.5-1.5c0.4-0.6,0.6-1.3,0.6-2v-0.1
	L340.5,600.8z"/>
<path class="st42" d="M291,595.2c0.1,3.8,9,6.6,20,6.3s19.7-3.5,19.6-7.3l0.3-8l-39.6,1L291,595.2z"/>
<path class="st38" d="M291,595.2h-1.5c0,0.7,0.2,1.4,0.6,2c0.7,1.1,1.7,2,2.9,2.6c2.2,1.1,4.6,1.9,7.1,2.4c3.1,0.6,6.3,0.9,9.5,0.8
	h1.4c4.9,0,9.7-0.9,14.4-2.4c1.7-0.6,3.2-1.4,4.6-2.5c0.6-0.5,1.1-1.1,1.5-1.7c0.4-0.6,0.6-1.4,0.6-2.1v-0.1h-1.5l1.5,0.1l0.3-8
	c0-0.4-0.1-0.8-0.4-1.1c-0.3-0.3-0.7-0.5-1.1-0.5l-39.6,1c-0.8,0-1.4,0.6-1.5,1.4l-0.3,8v0.1L291,595.2l1.5,0l0.3-6.6l36.6-0.9
	l-0.3,6.4v0.1c0,0.2-0.1,0.4-0.2,0.6c-0.5,0.7-1.1,1.3-1.9,1.7c-2.1,1.1-4.3,1.9-6.6,2.4c-3.1,0.7-6.3,1-9.5,1.1h-1.4
	c-4.3,0.1-8.5-0.5-12.6-1.8c-1.3-0.4-2.4-1-3.5-1.8c-0.3-0.2-0.5-0.5-0.8-0.8c-0.1-0.2-0.2-0.4-0.2-0.6L291,595.2l1.5,0L291,595.2z"
	/>
<path class="st20" d="M330.9,586.2c0.1,3.3-8.7,6.1-19.7,6.4s-19.9-2.2-19.9-5.4s8.7-6.1,19.7-6.4S330.8,583,330.9,586.2z"/>
<path class="st38" d="M330.9,586.2h-1.5c0,0.1-0.1,0.3-0.1,0.4c-0.5,0.6-1.2,1.1-1.9,1.4c-2.1,1-4.3,1.7-6.6,2.1
	c-3.1,0.6-6.3,0.9-9.5,1h-1.6c-4.2,0.1-8.4-0.4-12.5-1.5c-1.2-0.3-2.4-0.8-3.5-1.5c-0.3-0.2-0.5-0.4-0.7-0.7
	c-0.1-0.1-0.1-0.2-0.1-0.3c0-0.1,0.1-0.3,0.1-0.4c0.5-0.6,1.2-1.1,1.9-1.4c2.1-1,4.3-1.7,6.6-2.1c3.2-0.6,6.3-0.9,9.5-1h1.6
	c4.2-0.1,8.4,0.4,12.5,1.5c1.2,0.3,2.4,0.8,3.5,1.5c0.3,0.2,0.5,0.4,0.7,0.7c0.1,0.1,0.1,0.2,0.1,0.3h3c0-0.7-0.3-1.4-0.6-1.9
	c-0.7-1-1.7-1.8-2.9-2.2c-2.2-1-4.5-1.7-6.9-2c-3.1-0.5-6.2-0.7-9.4-0.7h-1.6c-4.9,0-9.7,0.8-14.3,2.1c-1.6,0.5-3.2,1.2-4.6,2.2
	c-0.6,0.4-1.1,0.9-1.5,1.5c-0.4,0.6-0.6,1.3-0.6,2v0.1c0,0.7,0.2,1.4,0.6,1.9c0.8,1,1.7,1.7,2.9,2.2c2.2,1,4.5,1.7,6.9,2
	c3.1,0.5,6.2,0.7,9.4,0.7h1.6c4.9,0,9.7-0.8,14.3-2.1c1.6-0.5,3.2-1.2,4.6-2.2c0.6-0.4,1.1-0.9,1.5-1.5c0.4-0.6,0.6-1.3,0.6-2v-0.1
	H330.9z"/>
<path class="st42" d="M279.9,613c2.5,2.8,11.1-0.9,19.3-8.2s12.6-15.5,10.1-18.3l-5-6.3l-29.4,26.5L279.9,613z"/>
<path class="st38" d="M279.9,613l-1.1,1c0.5,0.5,1.1,0.9,1.7,1.1c0.6,0.2,1.3,0.3,2,0.3c1.3,0,2.6-0.3,3.8-0.7
	c4.1-1.4,9-4.5,13.9-8.8c3.1-2.7,5.8-5.8,8.1-9.2c0.9-1.3,1.7-2.8,2.3-4.3c0.5-1.2,0.8-2.5,0.9-3.8c0-0.6-0.1-1.1-0.2-1.6
	c-0.2-0.5-0.5-1-0.8-1.5l-1.1,1l1.2-0.9l-5-6.3c-0.5-0.6-1.5-0.8-2.1-0.2c0,0,0,0-0.1,0.1l-29.4,26.5c-0.6,0.5-0.6,1.4-0.2,2l5,6.3
	l0.1,0.1L279.9,613l1.2-1l-4.1-5.2l27.1-24.5l4,5l0.1,0.1c0.1,0.1,0.2,0.2,0.2,0.4c0.1,0.2,0.1,0.5,0.1,0.7c0,0.9-0.3,1.9-0.7,2.7
	c-0.9,2.1-2.1,4.1-3.5,5.8c-1.8,2.4-3.9,4.6-6.1,6.6c-2.7,2.5-5.8,4.7-9,6.5c-1.2,0.7-2.5,1.3-3.8,1.7c-0.9,0.3-1.9,0.5-2.9,0.6
	c-0.3,0-0.7,0-1-0.2c-0.2-0.1-0.3-0.2-0.5-0.3L279.9,613l1.2-1L279.9,613z"/>
<path class="st20" d="M304.3,580.2c2.2,2.4-2.6,10.3-10.7,17.7s-16.5,11.3-18.7,8.9s2.6-10.3,10.7-17.7S302.1,577.8,304.3,580.2z"/>
<path class="st38" d="M304.3,580.2l-1.1,1c0,0,0.1,0.1,0.1,0.2c0,0.1,0.1,0.3,0,0.4c-0.1,0.9-0.3,1.7-0.7,2.5c-1,2.1-2.2,4-3.7,5.8
	c-1.9,2.4-4.1,4.6-6.4,6.7c-2.8,2.6-5.9,4.9-9.2,6.8c-1.2,0.7-2.5,1.3-3.8,1.8c-0.9,0.3-1.8,0.5-2.7,0.6c-0.2,0-0.4,0-0.6-0.1
	c-0.1,0-0.2-0.1-0.2-0.1c0,0-0.1-0.1-0.1-0.2c0-0.1-0.1-0.3-0.1-0.4c0.1-0.9,0.3-1.7,0.7-2.5c1-2.1,2.2-4,3.7-5.8
	c1.9-2.4,4.1-4.6,6.4-6.7c2.8-2.6,5.9-4.9,9.2-6.8c1.2-0.7,2.5-1.3,3.8-1.8c0.9-0.3,1.8-0.5,2.7-0.6c0.2,0,0.4,0,0.7,0.1
	c0.1,0,0.2,0.1,0.2,0.1L304.3,580.2l1.1-1c-0.4-0.4-0.9-0.8-1.5-0.9c-0.5-0.2-1.1-0.3-1.6-0.3c-1.3,0-2.5,0.3-3.7,0.8
	c-4,1.4-9,4.7-14,9.2c-3.1,2.8-6,5.9-8.4,9.3c-0.9,1.3-1.7,2.7-2.4,4.2c-0.6,1.2-0.9,2.4-0.9,3.7c0,0.5,0.1,0.9,0.2,1.4
	c0.3,1,1.1,1.8,2.2,2.2c0.5,0.2,1.1,0.3,1.6,0.3c1.3,0,2.5-0.3,3.7-0.8c4-1.4,9-4.7,14-9.2c3.1-2.8,6-5.9,8.4-9.3
	c0.9-1.3,1.7-2.7,2.4-4.2c0.6-1.2,0.9-2.4,0.9-3.7c0-0.5-0.1-0.9-0.2-1.4c-0.1-0.5-0.4-0.9-0.7-1.2L304.3,580.2z M208.2,594.9
	l-1.5-0.1c-0.2,4.2-1.9,8.2-4.9,11.2c-2.8,2.9-6.6,4.5-10.6,4.5h-0.7c-4-0.2-7.8-2-10.4-5c-2.8-3.1-4.3-7.2-4.3-11.3v-0.8
	c0.2-4.2,1.9-8.2,4.9-11.2c2.8-2.9,6.6-4.5,10.6-4.5h0.7c4,0.2,7.8,2,10.4,5c2.8,3.1,4.3,7.2,4.3,11.4v0.8L208.2,594.9l1.5,0.1v-1
	c0-4.9-1.7-9.7-5-13.3c-3.2-3.6-7.7-5.8-12.5-6h-0.8c-4.8,0-9.4,2-12.8,5.4c-3.5,3.5-5.5,8.2-5.7,13.2v1c0,4.9,1.8,9.7,5.1,13.3
	c3.2,3.6,7.7,5.8,12.5,6h0.8c4.8,0,9.4-2,12.8-5.4c3.5-3.5,5.5-8.2,5.7-13.2L208.2,594.9z M251.9,559.1h-4l0.2,15.5l-10.9,0.1
	l-0.5-45l18.3-0.2c8.8-0.1,14.5,6.2,14.5,14.5c0.1,7.6-3.8,11.5-7.1,13l7.8,17.3l-12.1,0.1L251.9,559.1z M253.4,539l-5.7,0.1
	l0.1,10.7l5.7-0.1c2.9,0,5-2.2,4.9-5.4S256.3,539,253.4,539L253.4,539z"/>
<path class="st46" d="M263.9,483.4c0,0-6.9-9.8-21.8-8.2s-14.6,12.3-14.6,12.3S241.5,479.1,263.9,483.4"/>
<path class="st38" d="M263.9,483.4l1.2-0.9c-1.4-1.8-3-3.3-4.9-4.5c-4.4-3-9.6-4.5-14.9-4.4c-1.1,0-2.3,0.1-3.4,0.2
	c-3.2,0.3-6.2,1.2-9,2.7c-2.7,1.5-4.9,3.9-6.1,6.8c-0.6,1.4-0.9,2.9-0.9,4.4v0.1c0,0.8,0.7,1.5,1.5,1.5c0.3,0,0.5-0.1,0.8-0.2
	l-0.1-0.2l0.1,0.2l-0.1-0.2l0.1,0.2c0.1-0.1,8.7-5.2,23.1-5.2c4.1,0,8.3,0.4,12.3,1.2c0.8,0.2,1.6-0.4,1.8-1.2
	c0.1-0.4,0-0.8-0.2-1.2L263.9,483.4l0.3-1.5c-4.3-0.8-8.6-1.3-12.9-1.3c-15.3,0-24.4,5.5-24.6,5.6l0.8,1.3h1.5
	c0.1-1.8,0.7-3.5,1.7-5c1-1.5,2.3-2.7,3.9-3.5c2.4-1.3,5.1-2.1,7.8-2.3c1-0.1,2.1-0.2,3.1-0.2c4.7-0.1,9.3,1.3,13.2,3.9
	c1.1,0.8,2.2,1.7,3.2,2.7c0.4,0.4,0.6,0.6,0.8,0.9l0.2,0.2v0l0.5-0.3l-0.5,0.3l0.5-0.3l-0.5,0.3L263.9,483.4l0.2-1.5L263.9,483.4"/>
<path class="st46" d="M227.4,502.3c-6.8-0.1-14.1-8.5-14.1-8.5l-15.9,9.5c1.6,4.2,5.4,7.3,9.8,8.2c7.6,1.5,20-4.6,20-4.6
	L227.4,502.3z"/>
<path class="st38" d="M227.4,502.3v-1.5c-1.5-0.1-3.1-0.5-4.4-1.2c-2.2-1.1-4.2-2.6-6-4.2c-0.8-0.7-1.4-1.4-1.9-1.8l-0.5-0.5
	l-0.1-0.1c-0.5-0.6-1.3-0.7-1.9-0.3l-15.9,9.5c-0.6,0.4-0.9,1.1-0.7,1.8c0.5,1.5,1.3,2.8,2.3,4c2.2,2.7,5.2,4.6,8.6,5.2
	c1,0.2,2,0.3,3,0.3c4.1-0.2,8.2-1,12-2.5c2-0.7,4-1.5,6-2.5c0.5-0.2,0.8-0.8,0.8-1.3l0.1-4.5c0-0.8-0.6-1.5-1.5-1.5c0,0,0,0,0,0
	L227.4,502.3l-1.5,0l-0.1,4.5h1.5l-0.7-1.3h-0.1c-2,0.9-4.1,1.8-6.3,2.5c-3.3,1.2-6.8,2-10.4,2.1c-0.8,0-1.6-0.1-2.4-0.2
	c-2.7-0.5-5.2-2-6.9-4.1c-0.5-0.7-1-1.4-1.4-2.2c-0.1-0.3-0.2-0.5-0.3-0.7l-0.1-0.2l-0.8,0.3l0.8-0.3l-0.8,0.3l0.8-0.3l-1.4,0.5
	l0.8,1.3l15.9-9.5l-0.8-1.3l-1.1,1c1.4,1.6,3,3.1,4.7,4.4c1.5,1.2,3.1,2.2,4.8,3.1c1.8,0.9,3.7,1.4,5.7,1.5L227.4,502.3l-1.5,0
	L227.4,502.3z"/>
<path class="st46" d="M227.1,502.1c-2.2,7.5-16.6,2.9-16.6,2.9l-10.3,11.2c41.5,14.8,48.6-21.8,48.6-21.8
	C241.2,494.2,234,496.5,227.1,502.1L227.1,502.1z"/>
<path class="st38" d="M227.1,502.1l-1.4-0.4c-0.2,0.6-0.4,1.1-0.8,1.5c-0.6,0.6-1.4,1.1-2.3,1.3c-1.1,0.3-2.2,0.4-3.4,0.4
	c-1.9,0-3.8-0.2-5.7-0.7c-0.8-0.2-1.4-0.3-1.9-0.5l-0.5-0.1H211c-0.6-0.2-1.2,0-1.6,0.4l-10.3,11.2c-0.3,0.4-0.5,0.9-0.4,1.4
	c0.1,0.5,0.5,0.9,1,1.1c6,2.3,12.3,3.5,18.6,3.6c5.7,0.1,11.3-1.4,16.2-4.2c5.5-3.3,9.9-8.2,12.6-14c1.3-2.7,2.3-5.5,3-8.4
	c0.2-0.8-0.4-1.6-1.2-1.8c-0.1,0-0.2,0-0.2,0H248c-7.6,0-15,2.6-21.8,8.1c-0.2,0.2-0.4,0.5-0.5,0.8L227.1,502.1l0.9,1.2
	c6.4-5.1,13.1-7.4,20-7.4h0.7v-1.5l-1.5-0.3c-1.1,4.4-3,8.6-5.6,12.4c-2.3,3.3-5.3,6-8.8,8.1c-4.5,2.5-9.5,3.7-14.6,3.6
	c-6-0.1-12-1.3-17.6-3.4l-0.5,1.4l1.1,1l10.3-11.2l-1.1-1l-0.5,1.4c0,0,1.2,0.4,2.9,0.8c2.1,0.5,4.2,0.7,6.3,0.7
	c1.9,0.1,3.8-0.3,5.5-1c0.9-0.4,1.7-1,2.3-1.7c0.7-0.8,1.2-1.7,1.5-2.7L227.1,502.1l0.9,1.2L227.1,502.1z"/>
<path class="st46" d="M280.3,488.4c0,0,0.6-8.3-7.4-11.3s-17.8-0.2-17.8-0.2l9.4,9L280.3,488.4z"/>
<path class="st38" d="M280.3,488.4l1.5,0.1V488c0-2-0.4-3.9-1.2-5.7c-0.6-1.4-1.5-2.6-2.5-3.7c-1.3-1.3-2.9-2.3-4.6-2.9
	c-2.9-1-6-1.5-9.1-1.5c-3.3,0-6.5,0.4-9.7,1.2c-0.8,0.2-1.3,1.1-1,1.9c0.1,0.3,0.2,0.5,0.4,0.7l9.4,9c0.2,0.2,0.5,0.3,0.8,0.4
	l15.8,2.5c0.4,0.1,0.8-0.1,1.2-0.3c0.3-0.3,0.5-0.7,0.6-1.1L280.3,488.4l0.2-1.5l-15.3-2.4l-9.1-8.7l-1,1.1l0.4,1.5
	c2.9-0.7,5.8-1.1,8.8-1.1c2.7-0.1,5.4,0.4,8,1.3c1.3,0.5,2.5,1.2,3.5,2.2c1.1,1.2,2,2.6,2.4,4.2c0.3,1,0.4,2,0.5,3.1v0.3
	L280.3,488.4l0.2-1.5L280.3,488.4z"/>
<path class="st46" d="M230.7,487.8c0,0-10.1,8.2-2.2,13.1c0,0,10.3-9.2,30.5-6.7c8.4,1,13.4,1.8,24.4,8.4c0,0,6.6-15.7-17-19
	S230.6,487.9,230.7,487.8"/>
<path class="st38" d="M230.7,487.8l-0.9-1.2c-1,0.9-2,1.8-2.8,2.9c-0.8,0.9-1.5,1.9-2,3c-0.6,1.2-1,2.4-1,3.8c0,1.1,0.3,2.2,0.9,3.2
	c0.7,1.1,1.7,2.1,2.9,2.7c0.6,0.3,1.3,0.3,1.8-0.2l-0.3-0.4l0.3,0.4l-0.3-0.4l0.3,0.4c1.8-1.4,3.7-2.5,5.8-3.4
	c5.4-2.3,11.2-3.4,17.1-3.4c2.2,0,4.4,0.1,6.5,0.4c3.7,0.3,7.4,1,11,2c4.5,1.5,8.8,3.6,12.9,6.2c0.4,0.2,0.8,0.3,1.2,0.1
	c0.4-0.1,0.7-0.4,0.9-0.8c0.7-1.7,1-3.5,1-5.4c0-1.5-0.2-3-0.7-4.5c-1-2.8-2.9-5.2-5.5-6.8c-2.9-2-7.1-3.6-12.9-4.4
	c-3.9-0.6-7.9-0.9-11.9-0.9c-16.3,0-24.8,5.2-24.9,5.4l-0.1,0.1L230.7,487.8l0.8,1.2l-0.2-0.4l0.2,0.4l-0.2-0.4l0.2,0.4
	c0.1,0,8-4.9,23.4-4.9c3.8,0,7.6,0.3,11.4,0.8c3,0.4,6,1.2,8.8,2.3c2.6,1,4.8,2.8,6.3,5.1c1,1.6,1.5,3.4,1.4,5.3c0,1-0.1,2.1-0.4,3
	c-0.1,0.4-0.2,0.7-0.3,0.9c0,0.1,0,0.1-0.1,0.2l1.4,0.6l0.8-1.3c-4.2-2.7-8.8-4.9-13.5-6.5c-3.8-1.1-7.6-1.8-11.5-2.2
	c-2.3-0.3-4.6-0.4-6.9-0.4c-6.3-0.1-12.6,1.2-18.5,3.7c-2.3,1-4.4,2.3-6.4,3.8l1,1.1l0.8-1.3c-0.7-0.4-1.4-1-1.9-1.7
	c-0.3-0.5-0.5-1.1-0.5-1.6c0-0.8,0.3-1.7,0.7-2.4c0.7-1.3,1.5-2.4,2.5-3.4c0.4-0.5,0.8-0.8,1.1-1.1l0.3-0.3l0.1-0.1L230.7,487.8
	l0.8,1.2L230.7,487.8"/>
<path class="st47" d="M240.7,486.2L240.7,486.2l-0.3,0.2l0.2-0.1L240.7,486.2L240.7,486.2"/>
<path class="st38" d="M206,549.1c0.9-0.1,1.6,0.6,1.7,1.4c0.1,0.9-0.6,1.6-1.4,1.7s-1.6-0.6-1.7-1.4c0,0,0,0,0,0
	C204.5,549.9,205.2,549.1,206,549.1z"/>
<path class="st45" d="M289.6,587.5c-2.9,3.2-1.8,4.1-0.3,6c1.4,1.7,4,1.2,7.6-1.1c-0.5,0.4-3.1,3.9-3.7,4.3
	c-13.1,11.2-17.7,9.7-17.6,9.2C275.8,604.6,275.7,598.6,289.6,587.5"/>
<path class="st0" d="M193.7,447.3c-0.1,0.4-0.2,0.7-0.4,1L178,476.2l-2.8,5.1c-0.5,1-1.5,1.5-2.6,1.5c-0.2,0-0.4,0-0.6,0
	c-13.3-2.5-23-9.3-32.4-15.9s-18.3-12.8-30.5-14.8c-0.5-0.1-0.9-0.3-1.3-0.6l-0.1,0.3c-0.6,1.1-0.6,2.4-0.1,3.5
	c0.1,0.2,0.2,0.4,0.4,0.6c0.6,0.8,1.4,1.3,2.4,1.4c12,1.9,20.9,8,30.3,14.4s19.3,13.3,32.8,15.8c0.2,0,0.5,0.1,0.7,0.1
	c1.4,0,2.6-0.8,3.3-2l2.8-5.1l15.2-28c0.6-1.1,0.6-2.4,0.1-3.5c-0.1-0.2-0.2-0.4-0.4-0.6C194.7,447.9,194.3,447.5,193.7,447.3"/>
<path class="st38" d="M187,435c-7.8-2.4-14.3-6.9-21.8-12.2l-2.4-1.7c-0.7-0.5-1.6-0.4-2.1,0.3c-0.5,0.7-0.4,1.6,0.3,2.1
	c0,0,0.1,0.1,0.1,0.1l2.4,1.7c7.5,5.2,14.3,10,22.6,12.6c0.8,0.2,1.6-0.2,1.9-1C188.2,436.1,187.8,435.2,187,435z"/>
<path class="st32" d="M172.5,481.4c-0.1,0-0.2,0-0.3,0c-13-2.5-22.6-9.2-31.8-15.6c-9.6-6.7-18.6-13-31.1-15
	c-0.8-0.1-1.4-0.9-1.2-1.7c0-0.2,0.1-0.3,0.2-0.5l18.2-33c0.3-0.5,0.8-0.8,1.3-0.8h0.3c13,2.5,22.6,9.2,31.8,15.6
	c9.6,6.7,18.6,13,31.1,15c0.5,0.1,0.9,0.4,1.1,0.8c0.2,0.4,0.2,0.9,0,1.4l-18.2,33C173.6,481.1,173.1,481.4,172.5,481.4"/>
<path class="st1" d="M127.8,416.2c25.7,4.9,37.5,26.5,63,30.7l-15.4,27.9l-2.8,5.1c-25.7-4.9-37.5-26.5-63-30.7l17.8-32.2
	L127.8,416.2 M127.8,413.2c-1.1,0-2.1,0.6-2.6,1.5l-0.5,0.8l-17.8,32.2c-0.8,1.5-0.3,3.3,1.2,4.1c0.3,0.2,0.6,0.3,1,0.3
	c12.2,2,21.1,8.2,30.5,14.8s19.1,13.3,32.4,15.9c0.2,0,0.4,0.1,0.6,0c1.1,0,2.1-0.6,2.6-1.5l2.8-5.1l15.4-27.9
	c0.8-1.5,0.3-3.3-1.2-4.1c-0.3-0.2-0.6-0.3-1-0.3c-12.2-2-21.1-8.2-30.5-14.8s-19.1-13.3-32.4-15.9
	C128.2,413.2,128,413.2,127.8,413.2"/>
<path class="st48" d="M109.6,449.2h0.2H109.6"/>
<path class="st49" d="M109.6,449.2l0.2,0L109.6,449.2"/>
<path class="st48" d="M184.2,445.4l-15.4,27.9l-2.7,5c2,0.6,4,1.2,6,1.6h0.4l2.8-5.1l15.4-27.9h-0.2
	C188.3,446.4,186.2,445.9,184.2,445.4"/>
<path class="st49" d="M172.4,479.8h0.1H172.4 M172.2,479.8h0.1H172.2 M172.1,479.8h0.1H172.1 M184.2,445.5c2.1,0.6,4.2,1.1,6.3,1.5
	C188.4,446.6,186.3,446.1,184.2,445.5"/>
<path class="st41" d="M127.8,416.2l-0.5,0.8l-17.8,32.2c2.3,0.4,4.5,0.9,6.7,1.6l17.5-31.6l0.7-1.2
	C132.3,417.2,130.1,416.6,127.8,416.2L127.8,416.2z"/>
<path class="st32" d="M120.5,444.6c18.3,5,30.1,21.8,48.4,26.7l10.9-19.8c-18.3-5-30.1-21.8-48.4-26.7L120.5,444.6z"/>
<path class="st41" d="M123.5,445.5c16,5.6,27.2,19.9,43.3,25.2c1.2,0.4,2.5-0.1,3.1-1.2l8.4-15.2c0.7-1.3,0.2-2.8-1-3.5
	c-0.1-0.1-0.3-0.1-0.4-0.2c-16-5.6-27.2-19.9-43.3-25.2c-1.2-0.4-2.5,0.1-3.1,1.2l-8.4,15.2c-0.7,1.3-0.2,2.9,1.1,3.5
	C123.2,445.4,123.3,445.4,123.5,445.5z"/>
<path class="st38" d="M123.5,445.5l-0.5,1.4c7.7,2.7,14.4,7.6,21.2,12.5s13.8,9.9,22.1,12.7c0.4,0.1,0.8,0.2,1.3,0.2
	c1.5,0,2.9-0.8,3.6-2.1l8.4-15.2c0.3-0.6,0.5-1.3,0.5-2c0-1.8-1.1-3.3-2.8-3.9c-7.7-2.7-14.4-7.6-21.2-12.5s-13.8-9.9-22.1-12.6
	c-1.9-0.6-3.9,0.2-4.9,1.9l-8.4,15.2c-1.1,2-0.3,4.5,1.6,5.5c0.2,0.1,0.4,0.2,0.6,0.3L123.5,445.5l0.5-1.4c-0.5-0.1-0.8-0.6-0.8-1.1
	c0-0.2,0-0.4,0.1-0.5l8.4-15.2c0.2-0.4,0.6-0.6,1-0.6c0.1,0,0.2,0,0.3,0c7.8,2.5,14.5,7.3,21.3,12.3s13.7,10,22,12.9
	c0.6,0.2,0.9,0.8,0.7,1.4c0,0.1,0,0.1-0.1,0.2l-8.4,15.2c-0.2,0.4-0.6,0.6-1,0.6c-0.1,0-0.2,0-0.3-0.1c-7.8-2.5-14.5-7.3-21.3-12.2
	s-13.7-10-22-12.9L123.5,445.5z"/>
<path class="st39" d="M144.3,444.8c-1.8,3.2-0.6,7.2,2.6,9c3.2,1.8,7.2,0.6,9-2.6c1.8-3.2,0.6-7.2-2.6-9c0,0,0,0,0,0
	C150.1,440.5,146.1,441.6,144.3,444.8z"/>
<path class="st1" d="M144.3,444.8l-1.3-0.7c-2.2,3.9-0.8,8.9,3.2,11.1s8.9,0.8,11.1-3.2c2.2-3.9,0.7-8.9-3.2-11.1
	c-3.9-2.2-8.9-0.8-11.1,3.1c0,0,0,0,0,0.1L144.3,444.8l1.3,0.7c1.4-2.5,4.5-3.4,7-2c1.6,0.9,2.7,2.6,2.7,4.5c0,0.9-0.2,1.7-0.6,2.5
	c-0.9,1.6-2.6,2.7-4.5,2.6c-0.9,0-1.7-0.2-2.5-0.6c-2.5-1.4-3.4-4.5-2-7c0,0,0,0,0,0L144.3,444.8z"/>
<path class="st50" d="M144.3,444.8c1.8-3.2,5.8-4.4,9-2.6c0.7,0.4,1.3,0.9,1.8,1.5c-3.6-0.7-7.1,1.7-7.8,5.3c-0.4,2,0.2,4.1,1.5,5.6
	c-0.7-0.1-1.4-0.4-2-0.7C143.7,452.1,142.6,448,144.3,444.8L144.3,444.8z"/>
<path class="st1" d="M132.4,429.8c-0.5,0.7-0.4,1.7,0.3,2.2c0.7,0.5,1.7,0.4,2.2-0.3c0.5-0.7,0.4-1.7-0.3-2.2c0,0,0,0,0,0
	C133.9,429,132.9,429.1,132.4,429.8C132.4,429.8,132.4,429.8,132.4,429.8z M164.7,465c-0.5,0.7-0.4,1.7,0.3,2.2
	c0.7,0.5,1.7,0.4,2.2-0.3c0.5-0.7,0.4-1.7-0.3-2.2c0,0,0,0,0,0C166.2,464.2,165.2,464.3,164.7,465C164.7,465,164.7,465,164.7,465z"
	/>
<path class="st38" d="M159,418.7c0.6,0.6,0.6,1.6,0.1,2.2c-0.6,0.6-1.6,0.6-2.2,0.1c-0.6-0.6-0.6-1.6-0.1-2.2
	C157.4,418.1,158.4,418.1,159,418.7C159,418.7,159,418.7,159,418.7z"/>
<path class="st1" d="M144.3,444.8l-1.3-0.7c-2.2,3.9-0.8,8.9,3.2,11.1s8.9,0.8,11.1-3.2c2.2-3.9,0.7-8.9-3.2-11.1
	c-3.9-2.2-8.9-0.8-11.1,3.1c0,0,0,0,0,0.1L144.3,444.8l1.3,0.7c1.4-2.5,4.5-3.4,7-2c1.6,0.9,2.7,2.6,2.7,4.5c0,0.9-0.2,1.7-0.6,2.5
	c-0.9,1.6-2.6,2.7-4.5,2.6c-0.9,0-1.7-0.2-2.5-0.6c-2.5-1.4-3.4-4.5-2-7c0,0,0,0,0,0L144.3,444.8z"/>
<path class="st0" d="M163.5,499.9h-0.4c0.1,0.2,0.3,0.4,0.4,0.7l8.2,23.2l1.5,4.2c0.4,1.2,0,2.6-1,3.4c-8.4,6.5-17.4,8.6-26.1,10.7
	s-16.6,4-23.9,9.9c-0.3,0.3-0.7,0.5-1.2,0.6c0.4,0.7,1,1.2,1.8,1.4c0.2,0.1,0.4,0.1,0.6,0.1h0.2c0.7,0,1.3-0.2,1.8-0.7
	c7.2-6,15.3-8,23.9-10.1s17.6-4.4,26-10.9c1-0.8,1.4-2.1,0.9-3.3l-1.6-4.2l-8.4-23.2c-0.3-0.9-1.1-1.6-2-1.8c-0.2,0-0.4-0.1-0.6-0.1
	L163.5,499.9"/>
<path class="st38" d="M151.6,497.4c-5.3,3.2-11.3,4.7-18.2,6.3l-2.2,0.5c-0.8,0.2-1.2,1.1-1,1.9c0.2,0.7,1,1.2,1.7,1l2.2-0.5
	c6.9-1.6,13.2-3.1,19-6.7c0.7-0.4,0.9-1.4,0.5-2.1S152.3,497,151.6,497.4L151.6,497.4L151.6,497.4z"/>
<path class="st32" d="M120.3,551.3c-0.1,0-0.3,0-0.4-0.1c-0.5-0.1-0.8-0.5-1-0.9l-9.7-27.5c-0.2-0.6,0-1.3,0.5-1.7
	c8.2-6.3,17-8.4,25.5-10.5c8.7-2.1,17-4.1,24.5-10.2c0.3-0.2,0.6-0.4,1-0.3c0.1,0,0.3,0,0.4,0.1c0.5,0.1,0.8,0.5,1,0.9l9.7,27.5
	c0.2,0.6,0,1.3-0.5,1.7c-8.2,6.3-17,8.4-25.5,10.5c-8.7,2.1-17,4.1-24.5,10.2C121,551.2,120.7,551.3,120.3,551.3"/>
<path class="st1" d="M160.6,501.6l8.2,23.2l1.5,4.2c-16,12.3-34.6,8.1-50,20.7l-9.5-26.8l-0.2-0.7
	C126.6,510,145.2,514.2,160.6,501.6 M160.6,498.6c-0.7,0-1.4,0.2-1.9,0.7c-7.3,5.9-15.4,7.9-23.9,9.9s-17.7,4.2-26.1,10.7
	c-1,0.8-1.4,2.1-1,3.4l0.2,0.7l9.5,26.8c0.3,0.9,1.1,1.6,2,1.9c0.3,0.1,0.5,0.1,0.8,0.1c0.7,0,1.4-0.2,1.9-0.7
	c7.3-5.9,15.4-7.9,23.9-9.9s17.7-4.2,26.1-10.7c1-0.8,1.4-2.1,1-3.4l-1.5-4.2l-8.2-23.2c-0.3-0.9-1.1-1.6-2-1.9
	C161.2,498.7,160.9,498.6,160.6,498.6"/>
<path class="st48" d="M120.4,549.7l-0.1,0.1L120.4,549.7"/>
<path class="st49" d="M120.4,549.7l-0.1,0.1L120.4,549.7"/>
<path class="st48" d="M160.6,501.6L160.6,501.6c-1.4,1.1-2.7,2.1-4.1,2.9l8.2,23.2l1.5,4.1c1.5-0.9,2.9-1.8,4.2-2.9l-1.5-4.2
	L160.6,501.6"/>
<path class="st49" d="M160.5,501.8c-1.3,1-2.6,2-4.1,2.9C157.8,503.7,159.2,502.8,160.5,501.8 M160.6,501.6l8.2,23.2l1.5,4.2
	l-1.5-4.2L160.6,501.6"/>
<path class="st41" d="M110.6,522.3l0.2,0.7l9.5,26.8c1.4-1.1,2.8-2.1,4.3-3.1l-9.3-26.3l-0.3-1C113.4,520.3,112,521.3,110.6,522.3z"
	/>
<path class="st32" d="M123.2,541.1c12.3-8.1,28-6.2,40.3-14.3l-5.8-16.5c-12.3,8.1-28,6.2-40.3,14.3
	C119.3,530.1,121.3,535.6,123.2,541.1L123.2,541.1z"/>
<path class="st41" d="M125.3,539.8c11.5-6.3,25.5-5.5,36.8-12.1c0.8-0.5,1.2-1.5,0.9-2.4l-4.5-12.6c-0.4-1-1.5-1.6-2.5-1.2
	c-0.1,0-0.2,0.1-0.4,0.2c-11.4,6.4-25.4,5.5-36.8,12.1c-0.8,0.5-1.2,1.5-0.9,2.4l4.5,12.6c0.4,1,1.5,1.6,2.6,1.2
	C125.1,539.9,125.2,539.9,125.3,539.8z"/>
<path class="st38" d="M125.3,539.8l0.7,1.3c5.5-3,11.7-4.4,18-5.8s12.9-2.9,18.8-6.3c1.1-0.6,1.7-1.8,1.7-3c0-0.4-0.1-0.8-0.2-1.2
	l-4.5-12.6c-0.2-0.7-0.7-1.3-1.3-1.7c-0.6-0.4-1.3-0.6-2-0.6c-0.6,0-1.2,0.2-1.7,0.5c-5.5,3-11.7,4.4-18,5.8s-12.8,2.9-18.8,6.3
	c-1.1,0.6-1.7,1.8-1.7,3c0,0.4,0.1,0.8,0.2,1.2l4.5,12.7c0.2,0.7,0.7,1.3,1.3,1.7c1.1,0.8,2.6,0.8,3.7,0.2L125.3,539.8l-0.7-1.3
	c-0.1,0.1-0.2,0.1-0.3,0.1c-0.1,0-0.2,0-0.3-0.1c-0.1-0.1-0.1-0.1-0.2-0.2l-4.5-12.6v-0.2c0-0.2,0.1-0.3,0.2-0.4
	c5.4-3.2,11.6-4.6,17.9-6s12.9-2.8,18.8-6.1c0.1,0,0.2-0.1,0.3-0.1c0.1,0,0.2,0,0.3,0.1c0.1,0.1,0.2,0.1,0.2,0.2l4.5,12.6v0.2
	c0,0.2-0.1,0.4-0.3,0.5c-5.4,3.2-11.6,4.6-17.9,6s-12.9,2.8-18.8,6.1L125.3,539.8z"/>
<path class="st39" d="M136,527.3c0.9,2.4,3.6,3.7,6,2.8c2.4-0.9,3.7-3.6,2.8-6c-0.9-2.4-3.5-3.7-6-2.8
	C136.4,522.2,135.1,524.8,136,527.3z"/>
<path class="st1" d="M136,527.3l-1.4,0.5c1.1,3.2,4.7,4.9,7.9,3.7c3.2-1.1,4.9-4.7,3.7-7.9c-1.1-3.2-4.7-4.9-7.9-3.7
	c-2.5,0.9-4.1,3.2-4.1,5.8c0,0.7,0.1,1.4,0.4,2.1L136,527.3l1.4-0.5c-0.1-0.3-0.2-0.7-0.2-1.1c0-1.3,0.9-2.5,2.1-3
	c0.3-0.1,0.7-0.2,1.1-0.2c1.3,0,2.6,0.8,3,2.1c0.1,0.3,0.2,0.7,0.2,1.1c0,1.3-0.8,2.6-2.1,3c-0.3,0.1-0.7,0.2-1.1,0.2
	c-1.3,0-2.5-0.9-3-2.1L136,527.3z"/>
<path class="st50" d="M136.1,527.3c-0.8-2.3,0.4-4.9,2.7-5.8c0,0,0,0,0,0c0.5-0.2,1-0.3,1.6-0.2c-2,1.5-2.3,4.3-0.8,6.3
	c0.8,1.1,2.2,1.8,3.5,1.8c-0.4,0.3-0.8,0.5-1.2,0.7C139.5,530.9,137,529.6,136.1,527.3L136.1,527.3z"/>
<path class="st1" d="M121.7,526.7c0.2,0.8,1,1.4,1.8,1.2s1.4-1,1.2-1.8c-0.2-0.8-1-1.4-1.8-1.2c0,0,0,0,0,0
	C122.1,525,121.5,525.8,121.7,526.7z M156.8,525.3c0.2,0.8,1,1.4,1.8,1.2c0.8-0.2,1.4-1,1.2-1.8c-0.2-0.8-1-1.4-1.8-1.2c0,0,0,0,0,0
	C157.2,523.7,156.6,524.5,156.8,525.3z"/>
<path class="st38" d="M127.2,505.4c0.9-0.1,1.6,0.6,1.7,1.4s-0.6,1.6-1.4,1.7c-0.9,0.1-1.6-0.6-1.7-1.4
	C125.8,506.2,126.4,505.4,127.2,505.4z"/>
<path class="st1" d="M136,527.3l-1.4,0.5c1.1,3.2,4.7,4.9,7.9,3.7c3.2-1.1,4.9-4.7,3.7-7.9c-1.1-3.2-4.7-4.9-7.9-3.7
	c-2.5,0.9-4.1,3.2-4.1,5.8c0,0.7,0.1,1.4,0.4,2.1L136,527.3l1.4-0.5c-0.1-0.3-0.2-0.7-0.2-1.1c0-1.3,0.9-2.5,2.1-3
	c0.3-0.1,0.7-0.2,1.1-0.2c1.3,0,2.6,0.8,3,2.1c0.1,0.3,0.2,0.7,0.2,1.1c0,1.3-0.8,2.6-2.1,3c-0.3,0.1-0.7,0.2-1.1,0.2
	c-1.3,0-2.5-0.9-3-2.1L136,527.3z"/>
<path class="st30" d="M622.5,461.9v6.6c20.1,20.4,20.1,53.1,0,73.5v2.4c22.8-16.4,27.9-48.2,11.5-71
	C630.7,469,626.9,465.1,622.5,461.9"/>
<path class="st2" d="M622.5,542c-3.1,3.2-6.6,5.9-10.5,8.2c3.7-1.5,7.2-3.5,10.5-5.8V542 M608.7,454.9v3.6c5.1,2.6,9.7,5.9,13.7,10
	v-6.6C618.3,458.9,613.6,456.5,608.7,454.9"/>
<path class="st3" d="M605.7,454v3c1,0.4,2,0.9,3,1.4v-3.6C607.7,454.5,606.7,454.2,605.7,454"/>
<path class="st51" d="M592.7,452.3h-1.2v0.9c4.9,0.6,9.6,1.9,14.2,3.8v-3C601.5,452.9,597.1,452.3,592.7,452.3"/>
<path class="st3" d="M591.5,452.3c-1,0-2,0.1-3,0.2v0.5c1,0.1,2,0.2,3,0.3V452.3"/>
<path class="st52" d="M588.5,452.4c-1.1,0.1-2.3,0.2-3.4,0.4h0.1v1.5v-1.5c1.1,0,2.2,0,3.3,0.1L588.5,452.4"/>
<path class="st33" d="M585.2,556.1c-28.1,0-50.9-22.8-50.9-50.9c0-28.1,22.8-50.9,50.9-50.9c28.1,0,50.9,22.8,50.9,50.9
	c0,22.9-15.3,43-37.3,49.1C594.3,555.5,589.7,556.1,585.2,556.1"/>
<path class="st1" d="M585.2,455.8c27.3,0,49.4,22.1,49.4,49.4c0,27.3-22.1,49.4-49.4,49.4c-27.3,0-49.4-22.1-49.4-49.4
	c0-22.2,14.8-41.6,36.2-47.6C576.3,456.4,580.7,455.8,585.2,455.8 M585.2,452.8c-28.9,0-52.4,23.4-52.4,52.3s23.4,52.4,52.3,52.4
	s52.4-23.4,52.4-52.3c0-4.7-0.6-9.4-1.9-14C629.3,468.6,608.7,452.9,585.2,452.8"/>
<path class="st34" d="M572,457.6c-1.2,0.4-2.5,0.8-3.7,1.2c26.8-5.2,52.7,12.3,57.9,39c4.6,23.9-8.8,47.6-31.7,55.8
	c1.2-0.2,2.5-0.5,3.8-0.9c26.2-7.6,41.2-35,33.6-61.2C624.4,465.9,597.9,450.9,572,457.6z"/>
<path class="st35" d="M572,457.6c1.2-0.3,2.5-0.6,3.7-0.9c-25.6,9.3-38.9,37.6-29.6,63.2c8.3,22.9,32,36.3,55.9,31.6
	c-1.2,0.4-2.4,0.8-3.7,1.2c-26.3,7.3-53.5-8.1-60.8-34.4C530.3,492.1,545.7,464.9,572,457.6z"/>
<path class="st53" d="M586.3,478.3h-2l-1.1,0.1l-0.5,0c-0.4,0-0.8,0.1-1.1,0.1h-0.4c-0.4,0.1-0.7,0.1-1.1,0.2l-0.4,0.1l-1.2,0.3
	l-0.3,0.1c-0.5,0.1-1,0.3-1.4,0.4l-0.4,0.1l-1,0.3l-0.4,0.2l-1,0.4l-0.3,0.1c-0.4,0.2-0.8,0.4-1.2,0.5h-0.1c-1.6,0.7-3,1.6-4.5,2.6
	l-0.2,0.1l-1,0.7l-0.4,0.3l-0.2,0.1c-0.2,0.2-0.4,0.3-0.6,0.5l-0.2,0.2l-0.1,0.1l-0.1,0.1c-0.3,0.3-0.7,0.6-1,0.9l-0.5,0.5l-0.3,0.3
	l-0.3,0.4l-0.1,0.1l-0.1,0.1c-0.3,0.3-0.6,0.6-0.9,1l-0.1,0.1l-0.1,0.2l-0.2,0.2l-0.1,0.1l-0.1,0.1l-0.1,0.1l-0.1,0.2l-0.1,0.1
	l-0.1,0.1l0,0.1l-0.3,0.3l-0.3,0.5l-0.1,0.2v0.1l-0.1,0.1v0l-0.1,0.2l-0.1,0.1l0,0.1l-0.2,0.2L559,493l-0.1,0.1l-0.1,0.1l-0.1,0.2
	c-0.2,0.3-0.3,0.5-0.5,0.8v0.1l-0.1,0.1v0.1c-0.1,0.1-0.2,0.3-0.2,0.4c-0.2,0.3-0.3,0.5-0.4,0.8l-0.1,0.2c-0.1,0.2-0.2,0.4-0.3,0.6
	l-0.1,0.2c-0.1,0.2-0.2,0.4-0.3,0.5l-0.1,0.3l-0.1,0.1l-0.2,0.4v0.1l-0.2,0.4L556,499l-0.2,0.6v0.1c0,0.1-0.1,0.2-0.1,0.3
	s-0.1,0.4-0.2,0.6v0c0,0.1-0.1,0.2-0.1,0.3l-0.1,0.2l-0.1,0.2c-0.1,0.3-0.2,0.5-0.2,0.8s-0.1,0.5-0.2,0.7v0.5c0,0.1-0.1,0.3-0.1,0.5
	s0,0.2,0,0.3c-0.1,0.3-0.1,0.6-0.2,0.8s-0.1,0.4-0.1,0.6v0.4c0,0.2,0,0.4-0.1,0.7s-0.1,0.5-0.1,0.8v3.1c0,1.2,0.1,2.4,0.2,3.6v0.9
	c0,0.2,0,0.3,0.1,0.5s0,0.2,0,0.3s0.1,0.4,0.1,0.5s0.1,0.3,0.1,0.5s0.1,0.5,0.2,0.7v0.1c0.1,0.3,0.2,0.7,0.2,1v0.1l0,0.2
	c0.1,0.2,0.1,0.5,0.2,0.7v0.2c0.1,0.2,0.2,0.5,0.2,0.8v0.1l0.1,0.3v0.3c0.1,0.4,0.2,0.7,0.4,1l0.1,0.3l0,0.1
	c0.2,0.4,0.3,0.7,0.5,1.1l0,0.1l0.1,0.2c0.2,0.5,0.5,1,0.7,1.5l0.1,0.3l0.1,0.2l0.1,0.2c0.1,0.2,0.2,0.4,0.4,0.6l0.1,0.2v0.1
	c0.2,0.3,0.3,0.5,0.5,0.8s0.4,0.6,0.6,0.9l0.1,0.2l0.3,0.4c0.4,0.5,0.7,1,1.1,1.5l0.2,0.3c0.3,0.4,0.6,0.7,0.9,1l0.2,0.2
	c12.2,13.2,32.8,14,45.9,1.8c6.6-6.1,10.4-14.7,10.4-23.8c0-0.8-0.3-1.6-0.9-2.1c-0.6-0.6-1.3-0.9-2.1-0.9h-26.5V481
	c0-0.8-0.3-1.6-0.9-2.1c-0.3-0.2-0.5-0.4-0.9-0.6l-0.1,0c-0.1-0.1-0.3-0.1-0.5-0.1H587c-0.2,0-0.4-0.1-0.6-0.1"/>
<path class="st22" d="M581.6,541.4c-17.1,0-31-13.9-31-31c0-17.1,13.9-31,31-31c0.4,0,0.8,0.2,1.1,0.4c0.3,0.3,0.5,0.7,0.5,1.1v28
	h28c0.8,0,1.5,0.7,1.5,1.5C612.6,527.5,598.8,541.3,581.6,541.4L581.6,541.4z"/>
<path class="st1" d="M581.7,480.9v29.5h29.5c0,16.3-13.2,29.5-29.5,29.5c-16.3-0.4-29.2-14-28.7-30.3
	C553.3,493.9,566,481.2,581.7,480.9 M581.7,477.8c-18,0-32.5,14.6-32.5,32.5c0,18,14.6,32.5,32.5,32.5c17.9,0,32.5-14.5,32.5-32.5
	c0-1.7-1.3-3-3-3h-26.5v-26.5C584.7,479.2,583.3,477.9,581.7,477.8L581.7,477.8z"/>
<path class="st33" d="M586.3,535.2c-16.3,0-29.5-13.3-29.4-29.6c0-6.7,2.3-13.1,6.4-18.3c-12.7,10.2-14.8,28.7-4.6,41.5
	c10.2,12.7,28.7,14.8,41.5,4.6c1.7-1.4,3.3-2.9,4.6-4.6C599.5,533,593,535.2,586.3,535.2z"/>
<path class="st22" d="M590.8,502.7c-0.8,0-1.5-0.7-1.5-1.5l0-29.5c0-0.4,0.2-0.8,0.4-1.1c0.3-0.3,0.7-0.4,1.1-0.4
	c17.1,0,31,13.9,31,31c0,0,0,0,0,0.1c0,0.8-0.7,1.5-1.5,1.5l0,0L590.8,502.7z"/>
<path class="st1" d="M590.9,471.6c16.3,0,29.5,13.3,29.5,29.5h-29.5L590.9,471.6 M590.9,468.7c-0.8,0-1.6,0.3-2.1,0.9
	c-0.6,0.6-0.9,1.3-0.9,2.1l0,29.5c0,1.7,1.3,3,3,3h29.5c0.8,0,1.6-0.3,2.1-0.9c0.6-0.6,0.9-1.3,0.9-2.1
	C623.3,483.2,608.8,468.7,590.9,468.7L590.9,468.7z"/>
<path class="st54" d="M590.9,471.6v1.4c13.5,2.7,23.2,14.4,23.6,28.1h5.9C620.3,484.9,607.2,471.7,590.9,471.6L590.9,471.6z"/>
<path class="st22" d="M559.9,531.9c-0.4,0-0.8-0.2-1.1-0.5c-5.3-5.7-8.2-13.3-8.2-21.1v-1.4c0-0.3,0-0.6,0.1-0.9v-0.7
	c0.1-1,0.2-1.9,0.4-2.8l0.1-0.7c0.3-1.4,0.7-2.7,1.2-4l0.2-0.6c0.1-0.1,0.1-0.3,0.2-0.4s0.2-0.4,0.2-0.6s0.2-0.4,0.2-0.6l0.1-0.2
	c0.1-0.2,0.2-0.4,0.3-0.5l0.3-0.5c0.1-0.1,0.1-0.3,0.2-0.4c0.1-0.3,0.3-0.5,0.4-0.8s0.1-0.2,0.2-0.4l0.1-0.2
	c0.2-0.3,0.3-0.6,0.5-0.9c0.1-0.1,0.1-0.2,0.2-0.3l0.6-0.9l0.2-0.3l0.5-0.7l0.1-0.1c0.1-0.2,0.2-0.2,0.3-0.3l0.2-0.3l0.5-0.6
	l0.2-0.3l0.8-0.9c5.9-6.2,14.1-9.8,22.6-9.8c0.4,0,0.8,0.2,1.1,0.4c0.3,0.3,0.4,0.7,0.5,1.1v28.4c0,0.4-0.2,0.8-0.5,1.1l-17.3,16.9
	l-4.4,4.3C560.7,531.8,560.3,532,559.9,531.9L559.9,531.9z"/>
<path class="st1" d="M581.7,480.9v28.3l-17.3,16.9l-4.4,4.3c-5.1-5.5-7.9-12.6-7.8-20.1v-1.4c0-0.3,0-0.5,0.1-0.8v-0.7
	c0.1-0.9,0.2-1.7,0.4-2.6c0-0.2,0.1-0.5,0.1-0.7c0.3-1.3,0.6-2.6,1.1-3.8c0.1-0.2,0.1-0.4,0.2-0.6s0.1-0.2,0.1-0.3s0.2-0.4,0.3-0.6
	c0.1-0.2,0.1-0.4,0.2-0.5l0.1-0.1l0.2-0.5c0.1-0.2,0.2-0.4,0.3-0.5c0.1-0.1,0.1-0.2,0.2-0.3c0.1-0.3,0.3-0.5,0.4-0.8
	c0-0.1,0.1-0.2,0.2-0.3l0.2-0.3c0.2-0.3,0.3-0.5,0.5-0.8l0.1-0.2c0.2-0.3,0.4-0.6,0.6-0.9l0.1-0.2l0.6-0.8l0.2-0.2
	c0.1-0.1,0.2-0.2,0.2-0.3s0.3-0.4,0.5-0.6l0.2-0.3c0.3-0.3,0.5-0.6,0.8-0.9c5.6-6,13.4-9.4,21.5-9.3 M581.5,477.9
	c-8.9,0-17.4,3.7-23.5,10.2l-0.1,0.1c-0.3,0.3-0.6,0.6-0.9,1l-0.2,0.3l-0.5,0.6l-0.2,0.2l-0.3,0.3c-0.2,0.3-0.4,0.6-0.6,0.8
	l-0.1,0.2l-0.1,0.1c-0.2,0.3-0.4,0.5-0.6,0.9c-0.1,0.1-0.1,0.2-0.2,0.3l-0.5,0.8v0.1l-0.1,0.1v0.1c-0.1,0.1-0.2,0.3-0.2,0.4
	s-0.3,0.5-0.4,0.8c-0.1,0.1-0.2,0.3-0.2,0.5c-0.1,0.2-0.2,0.4-0.3,0.5l-0.3,0.5l-0.1,0.2c-0.1,0.2-0.2,0.4-0.2,0.6l-0.2,0.6
	l-0.2,0.4l-0.2,0.6c-0.5,1.4-0.9,2.8-1.2,4.2c0,0.1-0.1,0.3-0.1,0.5v0.2c-0.2,1-0.3,1.9-0.4,2.9v0.7c0,0.3,0,0.6-0.1,0.9v1.5
	c0,8.2,3,16.1,8.6,22.1c0.5,0.6,1.3,1,2.1,1H560c0.8,0,1.5-0.3,2.1-0.8l4.4-4.3l17.3-16.9c0.6-0.6,0.9-1.3,0.9-2.1v-28.4
	c0-1.7-1.3-3-3-3L581.5,477.9z"/>
<path class="st22" d="M588,514.3l12.3,0"/>
<path class="st1" d="M588,515.8h12.3c0.8,0,1.5-0.7,1.5-1.5s-0.7-1.5-1.5-1.5H588c-0.8,0-1.5,0.7-1.5,1.5S587.2,515.8,588,515.8
	 M605.8,514c0.1,0.8-0.4,1.6-1.3,1.8c-0.8,0.1-1.6-0.4-1.8-1.3c0,0,0-0.1,0-0.1c-0.1-0.9,0.5-1.6,1.4-1.7
	C604.9,512.6,605.7,513.2,605.8,514z"/>
<path class="st32" d="M559.9,531.9c-0.4,0-0.8-0.2-1.1-0.5c-0.8-0.8-1.5-1.7-2.2-2.6c-0.2-0.2-0.3-0.5-0.5-0.7l-0.2-0.3
	c-0.2-0.3-0.4-0.6-0.6-0.9c-0.2-0.2-0.3-0.5-0.5-0.8c-0.1-0.1-0.2-0.3-0.3-0.5l-0.2-0.5c-0.4-0.7-0.7-1.4-1-2
	c-0.2-0.4-0.4-0.9-0.6-1.3s-0.3-0.8-0.5-1.2l-0.1-0.2c-0.1-0.2-0.1-0.3-0.2-0.5s-0.2-0.4-0.2-0.7s-0.2-0.7-0.3-1s-0.2-0.8-0.3-1.2
	c0-0.2-0.1-0.5-0.2-0.7l-0.1-0.4c0-0.2-0.1-0.4-0.1-0.5c-0.1-0.3-0.1-0.6-0.1-0.9c0-0.1,0-0.3,0-0.4c0-0.3-0.1-0.7-0.1-1
	c-0.1-0.9-0.1-1.8-0.1-2.8v-1.1c0-0.1,0-0.3,0-0.4v-0.5c0-0.1,0-0.2,0-0.4c0-0.2,0-0.5,0.1-0.7c0-0.5,0.1-0.9,0.2-1.4
	c0-0.3,0.1-0.6,0.1-0.9s0.1-0.5,0.2-0.8c0-0.1,0-0.2,0-0.2c0-0.1,0-0.2,0.1-0.4l0.1-0.3v-0.1c0-0.2,0.1-0.4,0.1-0.6s0.1-0.5,0.2-0.7
	l0.2-0.6c0-0.1,0.1-0.3,0.1-0.4c0.2-0.5,0.3-0.9,0.5-1.3v-0.1c0.2-0.4,0.3-0.8,0.5-1.1l0.2-0.6c0-0.1,0.1-0.2,0.1-0.2
	c0.3-0.7,0.7-1.4,1.1-2.2c0.2-0.3,0.4-0.7,0.6-1.1s0.5-0.8,0.8-1.2l0.2-0.3l0.1-0.1c0.1-0.1,0.1-0.2,0.2-0.3l0.2-0.3
	c0.1-0.2,0.3-0.4,0.4-0.5s0.2-0.3,0.3-0.4l0.1-0.1l0.2-0.2c0.5-0.5,0.9-1,1.3-1.5l0.1-0.1l0.4-0.4c0.5-0.6,1.2-1.2,2-1.8l0.2-0.2
	c0.2-0.2,0.4-0.4,0.6-0.5c5.5-4.4,12.3-6.8,19.3-6.8c0.4,0,0.8,0.2,1.1,0.4c0.3,0.3,0.4,0.7,0.5,1.1v28.3c0,0.4-0.2,0.8-0.5,1.1
	l-17.3,16.9l-4.4,4.3C560.8,531.8,560.4,531.9,559.9,531.9L559.9,531.9z"/>
<path class="st1" d="M581.7,480.9v28.3l-17,16.6l-0.3,0.3l-4.4,4.3c-0.7-0.8-1.4-1.6-2.1-2.5c-0.2-0.2-0.3-0.4-0.5-0.6
	c-0.2-0.4-0.5-0.7-0.7-1.1s-0.3-0.5-0.4-0.7s-0.2-0.3-0.3-0.4l-0.3-0.5c-0.3-0.6-0.7-1.3-1-1.9c-0.2-0.4-0.3-0.8-0.5-1.2
	s-0.3-0.8-0.4-1.2c-0.1-0.2-0.1-0.4-0.2-0.6s-0.2-0.5-0.2-0.7s-0.2-0.7-0.3-1s-0.2-0.8-0.3-1.2c-0.1-0.2-0.1-0.4-0.1-0.6l-0.1-0.3
	c0-0.2-0.1-0.4-0.1-0.5c0-0.3-0.1-0.6-0.1-0.9v-0.4c0-0.3-0.1-0.6-0.1-1c-0.1-0.9-0.1-1.8-0.1-2.6v-2.2c0-0.2,0-0.5,0.1-0.7
	c0-0.5,0.1-0.9,0.2-1.3c0-0.3,0.1-0.6,0.1-0.8s0.1-0.6,0.2-0.8v-0.2c0-0.1,0-0.2,0.1-0.3v-0.1l0-0.2c0.1-0.2,0.1-0.4,0.2-0.6
	s0.1-0.5,0.2-0.7l0.1-0.3c0-0.1,0.1-0.3,0.1-0.4s0.1-0.3,0.1-0.4c0.1-0.4,0.3-0.8,0.4-1.1V500c0.1-0.4,0.3-0.7,0.4-1.1v0
	c0.1-0.2,0.2-0.4,0.2-0.5l0.1-0.1c0.3-0.7,0.7-1.4,1.1-2.1c0.2-0.4,0.4-0.7,0.6-1s0.5-0.8,0.7-1.2l0.2-0.4v-0.1l0.1-0.1v0l0.1-0.1
	l0.6-0.8c0.1-0.1,0.2-0.3,0.3-0.4l0.3-0.4c0.4-0.5,0.8-0.9,1.2-1.4c0.2-0.2,0.3-0.3,0.5-0.5c0.6-0.6,1.2-1.2,1.9-1.8l0.2-0.1
	c0.2-0.2,0.4-0.4,0.6-0.5c5.2-4.2,11.7-6.5,18.4-6.5 M581.3,478c-7.2,0.1-14.3,2.5-19.9,7l-0.6,0.5l-0.2,0.2
	c-0.7,0.6-1.4,1.3-2.1,1.9c-0.2,0.1-0.3,0.3-0.4,0.4l-0.1,0.1c-0.5,0.5-0.9,1-1.3,1.5l-0.1,0.1l-0.1,0.2l-0.1,0.2l-0.4,0.5l-0.4,0.5
	l-0.2,0.2v0.1c-0.1,0.1-0.2,0.3-0.3,0.4v0.1l-0.2,0.2c-0.3,0.5-0.6,0.9-0.8,1.3s-0.5,0.8-0.7,1.1c-0.4,0.7-0.8,1.5-1.1,2.2
	c-0.1,0.1-0.1,0.2-0.2,0.4l-0.1,0.1c-0.1,0.1-0.1,0.3-0.2,0.4c-0.2,0.4-0.3,0.7-0.4,1c0,0.1-0.1,0.2-0.1,0.3
	c-0.2,0.4-0.3,0.8-0.4,1.2c-0.1,0.2-0.1,0.3-0.2,0.5v0.1l-0.1,0.3v0.1l0,0.2c-0.1,0.2-0.2,0.5-0.2,0.8s-0.1,0.4-0.1,0.6v0.4
	c0,0.1-0.1,0.3-0.1,0.5s0,0.2,0,0.3c-0.1,0.3-0.1,0.6-0.2,0.9s-0.1,0.6-0.2,1s-0.1,0.9-0.2,1.4c0,0.2-0.1,0.5-0.1,0.8v2.5
	c0,1,0,2,0.1,2.9c0,0.3,0.1,0.7,0.1,1c0,0.1,0,0.3,0,0.4c0,0.3,0.1,0.6,0.1,0.9c0,0.2,0.1,0.4,0.1,0.6v0.3c0,0.3,0.1,0.6,0.2,0.9
	s0.2,0.8,0.3,1.2s0.2,0.7,0.3,1.1s0.2,0.5,0.2,0.8s0.1,0.3,0.2,0.5v0.1c0.2,0.5,0.3,0.9,0.5,1.3s0.4,0.9,0.6,1.3
	c0.3,0.8,0.7,1.5,1.1,2.2l0.2,0.3l0.1,0.2c0.1,0.2,0.2,0.3,0.3,0.5s0.3,0.5,0.5,0.8s0.4,0.6,0.6,1l0.2,0.2v0
	c0.2,0.3,0.4,0.5,0.5,0.7c0.7,1,1.4,1.9,2.2,2.7c0.5,0.6,1.3,1,2.1,1H560c0.8,0,1.5-0.3,2.1-0.8l4.4-4.3l0.3-0.3l17-16.6
	c0.6-0.6,0.9-1.3,0.9-2.1v-28.3c0-1.7-1.3-3-3-3l0,0L581.3,478z"/>
<path class="st39" d="M564.7,525.8l-0.3,0.3l-4.4,4.3c-0.7-0.8-1.4-1.6-2.1-2.5c-0.4-0.6-0.8-1.1-1.2-1.7c-0.2-0.2-0.3-0.5-0.4-0.7
	s-0.2-0.3-0.3-0.4l-0.3-0.5c-0.3-0.6-0.7-1.3-1-1.9c-0.2-0.4-0.3-0.8-0.5-1.2s-0.3-0.8-0.4-1.2c-0.1-0.2-0.1-0.4-0.2-0.6
	s-0.2-0.5-0.2-0.7s-0.2-0.7-0.3-1s-0.2-0.8-0.3-1.2c-0.1-0.2-0.1-0.4-0.1-0.6l-0.1-0.3c0-0.2-0.1-0.4-0.1-0.5c0-0.3-0.1-0.6-0.1-0.9
	v-0.4c0-0.3-0.1-0.6-0.1-1c-0.1-0.9-0.1-1.8-0.1-2.6v-2.2c0-0.2,0-0.5,0.1-0.7c0-0.5,0.1-0.9,0.2-1.3c0-0.3,0.1-0.6,0.1-0.8
	s0.1-0.6,0.2-0.8c0-0.2,0.1-0.3,0.1-0.5v-0.1c0.1-0.3,0.1-0.6,0.2-0.8c0-0.2,0.1-0.5,0.2-0.7s0.1-0.4,0.2-0.7s0.1-0.3,0.1-0.4
	c0.1-0.4,0.3-0.8,0.4-1.1V500c0.1-0.4,0.3-0.7,0.4-1.1v0l0.3-0.7c0.3-0.7,0.7-1.4,1.1-2.1c0.2-0.4,0.4-0.7,0.6-1s0.5-0.8,0.7-1.2
	c0.1-0.1,0.2-0.3,0.3-0.4l0.1-0.1l0.1-0.1l0.6-0.8c0.1-0.1,0.2-0.3,0.3-0.4s0.2-0.2,0.3-0.4c0.4-0.5,0.8-0.9,1.2-1.4
	c0.2-0.2,0.3-0.3,0.5-0.5c0.6-0.6,1.2-1.2,1.9-1.8l0.8-0.7c-9.1,11.4-8.5,27.7,1.4,38.4L564.7,525.8z"/>
<path class="st1" d="M559.9,516.2c0.1,0.8-0.5,1.6-1.3,1.7c-0.8,0.1-1.6-0.5-1.7-1.3c-0.1-0.8,0.5-1.6,1.3-1.7
	C559,514.7,559.8,515.3,559.9,516.2z M614.1,490.9c0.1,0.8-0.5,1.6-1.3,1.7s-1.6-0.5-1.7-1.3c-0.1-0.8,0.5-1.6,1.3-1.7
	C613.2,489.5,614,490.1,614.1,490.9C614.1,490.9,614.1,490.9,614.1,490.9z"/>
</svg>
