<?xml version="1.0" encoding="utf-8"?>
<!-- Generator: Adobe Illustrator 26.0.2, SVG Export Plug-In . SVG Version: 6.00 Build 0)  -->
<svg version="1.1" id="Layer_1" xmlns="http://www.w3.org/2000/svg" xmlns:xlink="http://www.w3.org/1999/xlink" x="0px" y="0px"
	 viewBox="0 0 750 750" style="enable-background:new 0 0 750 750;" xml:space="preserve">
<style type="text/css">
	.st0{opacity:0.5;fill:#0B1236;}
	.st1{opacity:0.5;}
	.st2{fill:#0B1236;}
	.st3{opacity:0.2;}
	.st4{fill:#8D58C6;}
	.st5{opacity:0.2;fill:#0B1236;}
	.st6{fill:#83CE3A;}
	.st7{fill:none;stroke:#0B1236;stroke-width:3;stroke-linecap:round;stroke-linejoin:round;stroke-miterlimit:10;}
	.st8{fill:#FFA733;}
	.st9{fill:#EC9B37;stroke:#0B1236;stroke-width:3;stroke-linecap:round;stroke-linejoin:round;stroke-miterlimit:10;}
	.st10{fill:#EC9B37;}
	.st11{fill:#FFFFFF;stroke:#0A0F34;stroke-width:3;stroke-miterlimit:10;}
	.st12{fill:#C63B30;stroke:#0A0F34;stroke-width:3;stroke-linecap:round;stroke-linejoin:round;stroke-miterlimit:10;}
	.st13{fill:#C4A6DA;stroke:#0A0F34;stroke-width:3;stroke-linecap:round;stroke-linejoin:round;stroke-miterlimit:10;}
	.st14{fill:#0A0F34;}
	.st15{opacity:0.2;fill:#0A0F34;stroke:#0A0F34;stroke-width:2;stroke-miterlimit:10;}
	.st16{fill:#C63B30;stroke:#C63B30;stroke-width:2;stroke-miterlimit:10;}
	.st17{fill:#FFCB39;}
	.st18{opacity:0.4;fill:#FFFFFF;}
	.st19{fill:#E1C7FF;}
	.st20{font-family:'ProximaSoft-Bold';}
	.st21{font-size:38.4804px;}
	.st22{fill:#8D58C6;stroke:#0B1236;stroke-width:3;stroke-linecap:round;stroke-linejoin:round;stroke-miterlimit:10;}
	.st23{opacity:0.2;fill:#FFFFFF;}
	.st24{opacity:0.3;fill:#0B1236;}
	
		.st25{fill:#0B1236;fill-opacity:0.3;stroke:#0B1236;stroke-width:3;stroke-linecap:round;stroke-linejoin:round;stroke-miterlimit:10;}
	.st26{fill:#41BFCB;stroke:#0B1236;stroke-width:3;stroke-linecap:round;stroke-linejoin:round;stroke-miterlimit:10;}
	.st27{opacity:0.9;}
	.st28{opacity:0.7;fill:#0B1236;}
	.st29{opacity:0.15;fill:#FFFFFF;}
	.st30{opacity:0.5;fill-rule:evenodd;clip-rule:evenodd;fill:#0B1236;}
	.st31{opacity:0.3;}
	.st32{fill:#FFFFFF;}
	.st33{opacity:0.2;fill:none;stroke:#2F96F4;stroke-width:3;stroke-linecap:round;stroke-linejoin:round;stroke-miterlimit:10;}
	.st34{fill:#FFCB39;stroke:#0B1236;stroke-width:3;stroke-linecap:round;stroke-linejoin:round;stroke-miterlimit:10;}
	.st35{opacity:0.4;fill:#0B1236;}
	.st36{fill:#C58FFF;stroke:#0B1236;stroke-width:3;stroke-linecap:round;stroke-linejoin:round;stroke-miterlimit:10;}
	.st37{opacity:0.5;fill:#0B1236;stroke:#0B1236;stroke-width:3;stroke-linecap:round;stroke-linejoin:round;stroke-miterlimit:10;}
	.st38{fill:#FCE8BE;stroke:#0B1236;stroke-width:3.5;stroke-linecap:round;stroke-linejoin:round;stroke-miterlimit:10;}
	.st39{opacity:0.2;fill:none;stroke:#2F8FED;stroke-width:3;stroke-linecap:round;stroke-linejoin:round;stroke-miterlimit:10;}
	.st40{opacity:0.2;fill:#2F8FED;}
	.st41{font-size:28.202px;}
	.st42{fill:#83CE3A;stroke:#0B1236;stroke-width:3;stroke-linecap:round;stroke-miterlimit:10;}
	.st43{fill:none;stroke:#FFFFFF;stroke-width:3;stroke-linecap:round;stroke-linejoin:round;stroke-miterlimit:10;}
	.st44{fill:none;stroke:#FFFFFF;stroke-width:3;stroke-linecap:round;stroke-miterlimit:10;}
	.st45{fill:#0B1236;stroke:#0B1236;stroke-width:3;stroke-linecap:round;stroke-linejoin:round;stroke-miterlimit:10;}
	.st46{fill:#F37E2C;stroke:#0B1236;stroke-width:3;stroke-linecap:round;stroke-linejoin:round;stroke-miterlimit:10;}
	.st47{fill:#F37E2C;}
	.st48{fill:#C63B30;}
	.st49{clip-path:url(#SVGID_00000123416961249994912090000005617698048151439038_);}
	.st50{opacity:0.2;fill:#0B1236;stroke:#0B1236;stroke-width:3.5;stroke-miterlimit:10;}
	.st51{fill:#71C2FF;stroke:#0B1236;stroke-width:3.5;stroke-linecap:round;stroke-linejoin:round;stroke-miterlimit:10;}
	.st52{fill:#FFFFFF;stroke:#0B1236;stroke-width:3;stroke-linecap:round;stroke-linejoin:round;stroke-miterlimit:10;}
	.st53{fill:#AD6E5A;stroke:#0B1236;stroke-width:3;stroke-linecap:round;stroke-linejoin:round;stroke-miterlimit:10;}
	
		.st54{fill:#2F96F4;fill-opacity:0.2;stroke:#0B1236;stroke-width:3.5;stroke-linecap:round;stroke-linejoin:round;stroke-miterlimit:10;}
	
		.st55{fill:#2F96F4;fill-opacity:0.2;stroke:#0B1236;stroke-width:3;stroke-linecap:round;stroke-linejoin:round;stroke-miterlimit:10;}
	.st56{fill:#2F96F4;stroke:#0B1236;stroke-width:3.5;stroke-linecap:round;stroke-linejoin:round;stroke-miterlimit:10;}
	.st57{fill:none;stroke:#0B1236;stroke-width:3.5;stroke-linecap:round;stroke-linejoin:round;stroke-miterlimit:10;}
	
		.st58{opacity:0.4;fill:#0B1236;stroke:#0B1236;stroke-width:3.5;stroke-linecap:round;stroke-linejoin:round;stroke-miterlimit:10;}
	.st59{fill:none;stroke:#0B1236;stroke-width:3;stroke-linecap:round;stroke-linejoin:round;}
	
		.st60{opacity:0.2;fill:#0B1236;stroke:#0B1236;stroke-width:3.5;stroke-linecap:round;stroke-linejoin:round;stroke-miterlimit:10;}
	.st61{fill:#BBE5FF;stroke:#0B1236;stroke-width:3.5;stroke-linecap:round;stroke-linejoin:round;stroke-miterlimit:10;}
	.st62{fill:none;stroke:#0B1236;stroke-width:3;stroke-linecap:round;stroke-miterlimit:10;}
</style>
<g>
	<path class="st0" d="M273.58,355.03l-18.54-79.86l0.04-0.01l-4.19-18.05c-1.76-7.57-9.39-12.33-16.96-10.57l-109.55,25.43
		c-7.57,1.76-12.33,9.39-10.57,16.96l4.19,18.05h0l18.54,79.86c1.76,7.57,9.39,12.33,16.96,10.57l109.51-25.42
		C270.58,370.23,275.34,362.6,273.58,355.03z"/>
	<g class="st1">
		<path class="st2" d="M88.21,235.6c6.25,4.33,6.63,14.21,6.31,19.71c-0.07,1.23,0.49,2.41,1.5,3.12c0.61,0.44,1.34,0.66,2.07,0.66
			c0.34,0,0.68-0.07,1.02-0.17c0.59,0.39,1.27,0.59,1.96,0.59c0.46,0,0.93-0.09,1.37-0.27l11.11-4.63c1.32-0.55,2.19-1.84,2.2-3.27
			c0.08-11.48-4.16-20.22-11.92-24.61c-0.54-0.31-1.15-0.46-1.76-0.46c-0.34,0-0.68,0.06-1.01,0.16c-0.07-0.04-0.13-0.09-0.2-0.13
			c-0.54-0.31-1.15-0.46-1.76-0.46c-0.42,0-0.83,0.07-1.23,0.22l-8.84,3.24c-1.25,0.46-2.15,1.58-2.31,2.9
			C86.53,233.53,87.12,234.84,88.21,235.6z"/>
		<path class="st2" d="M71.57,265.05c1.62,9.24,7.73,17.73,18.69,25.95c0.64,0.48,1.39,0.71,2.14,0.71c0.55,0,1.11-0.14,1.61-0.39
			c0.12,0.09,0.23,0.18,0.35,0.27c0.64,0.48,1.39,0.71,2.14,0.71c0.79,0,1.58-0.26,2.24-0.79l11.61-9.31
			c0.93-0.75,1.43-1.92,1.32-3.11c-0.11-1.19-0.81-2.25-1.86-2.82c-0.08-0.05-9.68-5.46-18.79-20.76c-0.54-0.91-1.46-1.53-2.51-1.7
			c-0.19-0.03-0.37-0.04-0.56-0.04c-0.58,0-1.13,0.15-1.64,0.41c-0.52-0.5-1.18-0.85-1.9-0.96c-0.19-0.03-0.37-0.04-0.56-0.04
			c-0.86,0-1.7,0.31-2.35,0.89l-8.76,7.68C71.79,262.57,71.35,263.83,71.57,265.05z"/>
		<path class="st2" d="M66.46,251.12c0.36,0.05,0.73,0.08,1.09,0.08c3.87,0,7.19-2.89,7.73-6.73c0.06-0.4,0.07-0.8,0.07-1.19
			c0.11-0.38,0.21-0.76,0.26-1.16c0.29-2.07-0.24-4.12-1.5-5.78c-1.26-1.67-3.09-2.74-5.15-3.03c-0.36-0.05-0.73-0.08-1.09-0.08
			c-3.87,0-7.19,2.89-7.73,6.73c-0.06,0.4-0.07,0.79-0.07,1.19c-0.11,0.38-0.21,0.77-0.26,1.17
			C59.21,246.57,62.19,250.52,66.46,251.12z"/>
		<path class="st2" d="M96.62,298.68l-9.37,0.07c-0.04,0-0.08,0.02-0.13,0.02c-0.08,0.01-0.15,0.02-0.23,0.04
			c-0.1,0.02-0.2,0.05-0.29,0.09c-0.07,0.03-0.14,0.06-0.21,0.1c-0.09,0.05-0.17,0.11-0.25,0.18c-0.06,0.05-0.12,0.1-0.18,0.16
			c-0.07,0.08-0.13,0.16-0.19,0.25c-0.03,0.05-0.08,0.09-0.11,0.14c-6.34,12.49-12.11,17.6-15.22,19.62
			c-3.02-4.07-6.32-11.81-8.08-26.5c-0.08-0.65-0.5-1.2-1.11-1.45l-7.8-3.13c-0.06-0.02-0.13-0.03-0.19-0.05
			c-0.03-0.01-0.06-0.03-0.09-0.03c-0.02,0-0.03,0-0.05,0c-0.14-0.03-0.27-0.03-0.41-0.03c-0.02,0-0.05,0-0.07,0
			c-0.16,0.01-0.31,0.05-0.46,0.1c-0.04,0.02-0.08,0.04-0.12,0.06c-0.08,0.04-0.16,0.07-0.23,0.11c-0.03,0.02-0.04,0.04-0.07,0.06
			c-0.05,0.03-0.09,0.07-0.13,0.11c-0.08,0.07-0.16,0.15-0.23,0.24c-0.02,0.03-0.05,0.04-0.07,0.07c-0.07,0.1-6.44,8.81-15.37,10.59
			c0.7-5.04,3.1-12.35,5.32-17.61c0.36-0.85,0.01-1.83-0.8-2.27l-7.72-4.15c-0.84-0.45-1.88-0.16-2.38,0.65
			c-5.64,9.37-6.57,22.13-6.08,24.72c0.31,1.61,2.58,3.38,6.76,5.26c0.64,0.3,1.52,0.69,2.56,1.07c0.2,0.08,0.4,0.16,0.61,0.24
			c0.05,0.02,0.1,0.01,0.15,0.03c2,0.68,4.45,1.28,6.89,1.28c2.04,0,4.07-0.42,5.81-1.56c1.65-1.09,3.42-2.43,4.93-3.62
			c1.17,6.43,3.62,13.72,8.68,18.56c5.44,5.2,9.7,6.58,12.68,6.58c0.55,0,1.04-0.06,1.5-0.14c0.06,0,0.12-0.01,0.18-0.02
			c0.09-0.02,0.19-0.05,0.28-0.07c0.12-0.03,0.23-0.05,0.34-0.08c0.12-0.03,0.23-0.07,0.35-0.11c0.19-0.06,0.37-0.12,0.53-0.19
			c0.05-0.02,0.11-0.05,0.16-0.07c0.15-0.06,0.3-0.13,0.43-0.19c5.57-2.59,11.71-10.85,15.03-15.82c1.37,3.18,2.61,7.01,3.23,11.41
			c0.12,0.88,0.88,1.54,1.77,1.54c0,0,0.01,0,0.01,0l8.81-0.07c0.91-0.01,1.67-0.7,1.76-1.61c0.05-0.5,1.08-12.48-9.84-24.01
			C97.59,298.88,97.12,298.65,96.62,298.68z"/>
		<path class="st2" d="M691.76,517.06c-0.07-5.4-11.85-6.69-18.81-6.62c-6.89,0.08-18.47,1.64-18.64,6.91
			c0,0.02-0.01,0.03-0.01,0.05l-0.36,6.83c0,0.04,0,0.08,0,0.12c0.02,1.68,1.12,4.05,6.24,5.74c3.25,1.08,7.48,1.66,11.97,1.66
			c0.21,0,0.41,0,0.62,0c9.02-0.11,18.7-2.61,18.64-7.73l0.36-6.83c0-0.01,0-0.03,0-0.04C691.75,517.12,691.76,517.09,691.76,517.06
			C691.76,517.07,691.76,517.07,691.76,517.06z"/>
		<path class="st2" d="M645.43,517.18c-0.01-0.08-0.01-0.16-0.03-0.24c-0.23-2.11-2.32-3.75-6.26-4.87
			c-3.37-0.96-7.82-1.45-12.51-1.41c-2.8,0.03-5.51,0.27-7.95,0.67l-2-5.17c-0.01-0.01-0.01-0.02-0.02-0.04
			c-0.01-0.02-0.02-0.05-0.03-0.07c-0.01-0.03-0.04-0.05-0.05-0.08c-0.04-0.07-0.08-0.15-0.13-0.21c-1.07-1.83-3.65-2.47-7.7-1.89
			c-3.47,0.5-7.73,1.86-11.99,3.83c-1.39,0.64-2.96,1.45-4.55,2.37l0.03-0.57c0-0.01,0-0.03,0-0.04c0-0.03,0-0.05,0-0.08
			c-0.06-4.64-8.61-6.31-15.57-6.68c3.34-12.88,1.12-28.47-6.02-40.28c-3.05-5.04-5.91-9.62-8.49-13.67c3-0.49,6.15-1.29,9.44-2.42
			c0.57-0.19,1-0.66,1.15-1.24c0.15-0.58,0-1.2-0.4-1.64l-2.69-2.99c4.08-2.46,5.46-6.36,5.54-6.58c0.27-0.79-0.05-1.66-0.76-2.1
			l-13.85-8.49c-0.74-0.45-1.7-0.31-2.27,0.34c-1.3,1.47-4.8,4.78-8.29,6.14c0.5-0.87,0.7-1.72,0.76-2.42
			c0.3-3.8-3.05-7.37-4.52-8.74c-0.09-1.27-0.48-2.8-1.3-4.34c0.78-1.44,2.17-2.85,4.06-4.66c3.61-3.47,8.1-7.79,7.55-15.18
			c-0.53-7.08-4.87-11.31-11.59-11.31c-0.45,0-0.88,0.02-1.3,0.05c-0.25-1.91-0.9-3.87-1.9-5.49c-1.95-3.15-5.01-4.89-8.61-4.89
			c-0.15,0-0.3,0-0.45,0.01c-3.42,0.13-5.72,1.56-7.57,2.7c-1.56,0.97-2.44,1.47-3.63,1.47c-1.25,0-2.91-0.59-4.93-1.76
			c-2.74-1.58-5.96-2.42-9.34-2.42c-6.17,0-12.41,2.71-16.28,7.07c-2.72,3.06-3.99,6.72-3.56,10.28c0.68,5.7,2.17,7.45,4.54,9.82
			c1.66,1.67,3.94,3.95,7.18,10.53c0.5,1.01,0.89,2.04,1.21,3.08c-1.02,2.03-1.35,4.1-1.33,5.57c-0.78,0.78-1.47,1.61-2.01,2.53
			c-3.03,5.2-0.86,10.64-0.77,10.87c0.15,0.36,0.4,0.65,0.73,0.85c-1.47,2.61-3.31,5.3-5.55,8.1c-1.51,1.89-3.09,3.79-4.6,5.63
			c-1.23,1.48-2.46,2.98-3.68,4.5V179.75c0-8.17-7.08-14.82-15.78-14.82H306.79c-8.7,0-15.78,6.65-15.78,14.82v229.31h-56.79
			c-7.91,0-14.35,6.44-14.35,14.35v94.07c0,7.92,6.44,14.35,14.35,14.35h69.53c2.73,0,5.28-0.78,7.46-2.11
			c5.34-0.25,9.78-3.91,11.2-8.86h112.95c-0.22,0.4-0.34,0.83-0.39,1.27c-0.03,0.11-0.05,0.23-0.05,0.35l-0.38,7.19
			c0,0.04,0,0.08,0,0.12c0.02,1.74,1.17,4.19,6.5,5.96c3.41,1.13,7.85,1.74,12.57,1.74c0.22,0,0.43,0,0.65,0
			c4.48-0.05,8.96-0.69,12.51-1.84c0.07,0.01,0.14,0.02,0.22,0.02c0.31,0.02,0.63,0.03,0.94,0.03c1.04,0,2.07-0.1,3.08-0.3
			c0.49,0.1,1,0.16,1.51,0.18c0.33,0.01,0.65,0.01,0.98,0.01c8.67,0,14.17-3.38,16.43-10.04c9.31,3.93,20.04,5.98,31.69,5.98
			c6.24,0,12.76-0.6,19.33-1.74l2.87,3.71c0.02,0.03,0.05,0.06,0.07,0.09c0.88,0.99,2.13,1.43,3.63,1.43
			c3.85,0,9.34-2.91,14.25-6.89l-0.08,1.54c0,0.04,0,0.08,0,0.12c0.06,5.01,9.36,7.57,18.71,7.57c0.2,0,0.4,0,0.61,0
			c9.55-0.11,19.19-2.91,19.12-7.9l0.01-0.2c1.73-0.58,3.47-1.27,5.15-2.04c0.87-0.4,1.73-0.84,2.58-1.29
			c0.56,1.46,2.13,3.11,5.98,4.38c3.25,1.08,7.48,1.66,11.97,1.66c0.21,0,0.41,0,0.62,0c9.02-0.11,18.7-2.61,18.64-7.73l0.36-6.83
			c0-0.01,0-0.03,0-0.04c0-0.03,0-0.05,0-0.08C645.44,517.25,645.43,517.21,645.43,517.18z"/>
	</g>
	<circle class="st2" cx="728.05" cy="583.85" r="1.79"/>
	<g>
		<g>
			<g>
				<g class="st3">
					<g>
						<g>
							<g>
								<path class="st2" d="M95.25,255.11c-0.31,0-0.61-0.09-0.87-0.28c-0.42-0.3-0.66-0.8-0.63-1.31
									c0.61-10.25-1.95-17.9-7.2-21.54c-0.46-0.32-0.71-0.87-0.63-1.42c0.07-0.56,0.45-1.03,0.97-1.22l8.84-3.24
									c0.17-0.06,0.34-0.09,0.52-0.09c0.26,0,0.51,0.07,0.74,0.19c7.08,4,10.94,12.09,10.87,22.79c0,0.6-0.37,1.14-0.92,1.37
									l-11.11,4.62C95.65,255.07,95.45,255.11,95.25,255.11z"/>
								<path class="st2" d="M96.26,227.51c7.78,4.4,10.16,13.28,10.1,21.47l-11.11,4.63c0.24-3.98,0.68-16.96-7.84-22.86
									L96.26,227.51 M96.26,224.51c-0.35,0-0.7,0.06-1.03,0.18l-8.84,3.24c-1.05,0.39-1.8,1.33-1.94,2.44
									c-0.14,1.11,0.35,2.21,1.27,2.85c6.48,4.49,6.89,14.59,6.55,20.21c-0.06,1.03,0.41,2.02,1.26,2.62
									c0.52,0.37,1.12,0.55,1.74,0.55c0.39,0,0.78-0.08,1.15-0.23l11.11-4.63c1.11-0.46,1.84-1.55,1.85-2.75
									c0.08-11.27-4.05-19.83-11.63-24.1C97.28,224.64,96.77,224.51,96.26,224.51L96.26,224.51z"/>
							</g>
						</g>
					</g>
				</g>
				<g>
					<g>
						<g>
							<g>
								<path class="st4" d="M92.28,254.68c-0.31,0-0.61-0.09-0.87-0.28c-0.42-0.3-0.66-0.8-0.63-1.31
									c0.61-10.25-1.95-17.9-7.2-21.54c-0.46-0.32-0.71-0.87-0.63-1.42c0.07-0.56,0.45-1.03,0.97-1.22l8.84-3.24
									c0.17-0.06,0.34-0.09,0.52-0.09c0.26,0,0.51,0.07,0.74,0.19c7.08,4,10.94,12.09,10.87,22.79c0,0.6-0.37,1.14-0.92,1.37
									l-11.11,4.63C92.67,254.64,92.47,254.68,92.28,254.68z"/>
								<path class="st2" d="M93.28,227.08c7.78,4.4,10.16,13.28,10.1,21.47l-11.11,4.63c0.24-3.98,0.68-16.96-7.84-22.86
									L93.28,227.08 M93.28,224.08c-0.35,0-0.7,0.06-1.03,0.18l-8.84,3.24c-1.05,0.39-1.8,1.33-1.94,2.44
									c-0.14,1.11,0.35,2.21,1.27,2.85c6.48,4.49,6.89,14.59,6.55,20.21c-0.06,1.03,0.41,2.02,1.26,2.62
									c0.52,0.37,1.12,0.55,1.74,0.55c0.39,0,0.78-0.08,1.15-0.23l11.11-4.63c1.11-0.46,1.84-1.55,1.85-2.75
									c0.08-11.27-4.05-19.83-11.63-24.1C94.3,224.22,93.79,224.08,93.28,224.08L93.28,224.08z"/>
							</g>
						</g>
					</g>
				</g>
				<path class="st5" d="M98.19,250.72c0.01-6.14-0.99-16.38-7.6-22.65l-6.15,2.25c8.52,5.9,8.08,18.88,7.84,22.86L98.19,250.72z"/>
			</g>
			<g class="st3">
				<g>
					<g>
						<g>
							<path class="st2" d="M90.7,287.91c-0.32,0-0.63-0.1-0.9-0.3c-10.52-7.89-16.37-15.96-17.9-24.65
								c-0.09-0.52,0.1-1.04,0.49-1.39l8.76-7.68c0.28-0.24,0.63-0.37,0.99-0.37c0.08,0,0.16,0.01,0.23,0.02
								c0.44,0.07,0.83,0.33,1.05,0.71c9.46,15.88,19.49,21.47,19.59,21.53c0.44,0.24,0.73,0.69,0.78,1.19s-0.16,0.99-0.55,1.3
								l-11.61,9.32C91.37,287.8,91.04,287.91,90.7,287.91z"/>
							<path class="st2" d="M82.15,255.01c9.82,16.5,20.17,22.08,20.17,22.08l-11.61,9.32c-7.28-5.46-15.5-13.32-17.32-23.71
								L82.15,255.01 M82.15,252.01c-0.72,0-1.43,0.26-1.98,0.74l-8.76,7.68c-0.79,0.69-1.16,1.74-0.98,2.77
								c1.59,9.09,7.63,17.46,18.47,25.6c0.53,0.4,1.17,0.6,1.8,0.6c0.67,0,1.33-0.22,1.88-0.66l11.61-9.32
								c0.78-0.63,1.2-1.61,1.11-2.61c-0.09-1-0.68-1.89-1.56-2.37c-0.09-0.05-9.8-5.51-19.01-20.97c-0.46-0.77-1.23-1.29-2.11-1.43
								C82.46,252.03,82.31,252.01,82.15,252.01L82.15,252.01z"/>
						</g>
					</g>
				</g>
			</g>
			<g>
				<g>
					<g>
						<g>
							<path class="st6" d="M86.6,287.32c-0.32,0-0.63-0.1-0.9-0.3c-10.52-7.89-16.37-15.96-17.9-24.65
								c-0.09-0.52,0.1-1.04,0.49-1.39l8.76-7.68c0.28-0.24,0.63-0.37,0.99-0.37c0.08,0,0.16,0.01,0.23,0.02
								c0.44,0.07,0.83,0.33,1.05,0.71c9.5,15.96,19.49,21.47,19.59,21.52c0.44,0.24,0.74,0.68,0.78,1.18
								c0.05,0.5-0.16,0.99-0.56,1.31l-11.61,9.32C87.26,287.21,86.93,287.32,86.6,287.32z"/>
							<path class="st2" d="M78.04,254.42c9.82,16.5,20.17,22.08,20.17,22.08l-11.61,9.32c-7.28-5.46-15.5-13.32-17.32-23.71
								L78.04,254.42 M78.04,251.42c-0.72,0-1.43,0.26-1.98,0.74l-8.76,7.68c-0.79,0.69-1.16,1.74-0.98,2.77
								c1.59,9.09,7.63,17.46,18.47,25.6c0.53,0.4,1.17,0.6,1.8,0.6c0.67,0,1.33-0.22,1.88-0.66l11.61-9.32
								c0.78-0.63,1.2-1.61,1.11-2.61c-0.09-1-0.68-1.89-1.56-2.37c-0.09-0.05-9.8-5.51-19.01-20.97c-0.46-0.77-1.23-1.29-2.11-1.43
								C78.36,251.44,78.2,251.42,78.04,251.42L78.04,251.42z"/>
						</g>
					</g>
				</g>
			</g>
			<path class="st5" d="M86.6,285.82l11.61-9.32c0,0,0.97,1.19,0.74,1.05l-5.66,4.63c-7.28-5.46-16.61-14.59-18.43-24.98l-5.59,4.9
				C71.1,272.49,79.32,280.35,86.6,285.82z"/>
			<path class="st7" d="M97.69,217.85c4.88,2.42,9.13,6.8,11.55,14.11"/>
			<g class="st3">
				<path class="st2" d="M61.74,246.79c-0.26,0-0.53-0.02-0.8-0.06c-3.13-0.44-5.32-3.34-4.88-6.48c0.39-2.82,2.83-4.94,5.67-4.94
					c0.26,0,0.53,0.02,0.8,0.06c1.52,0.21,2.86,1,3.78,2.23c0.92,1.22,1.31,2.73,1.1,4.25C67.02,244.66,64.58,246.79,61.74,246.79z"
					/>
				<path class="st2" d="M61.73,236.81c0.2,0,0.39,0.01,0.59,0.04c2.32,0.32,3.93,2.47,3.61,4.78c-0.3,2.12-2.11,3.65-4.19,3.65
					c-0.2,0-0.39-0.01-0.59-0.04c-2.32-0.32-3.93-2.47-3.61-4.78C57.84,238.35,59.65,236.81,61.73,236.81 M61.73,233.81
					C61.73,233.81,61.73,233.81,61.73,233.81c-3.58,0-6.66,2.68-7.16,6.23c-0.27,1.91,0.23,3.82,1.39,5.36
					c1.16,1.54,2.86,2.54,4.77,2.81c0.33,0.05,0.67,0.07,1.01,0.07c3.58,0,6.66-2.68,7.16-6.23c0.27-1.91-0.23-3.82-1.39-5.36
					c-1.16-1.54-2.86-2.54-4.77-2.81C62.4,233.84,62.06,233.81,61.73,233.81L61.73,233.81z"/>
			</g>
			<g>
				<path class="st8" d="M62.07,244.43c-0.26,0-0.53-0.02-0.8-0.06c-1.52-0.21-2.86-1-3.78-2.23c-0.92-1.22-1.31-2.73-1.1-4.25
					c0.39-2.82,2.83-4.94,5.68-4.94c0.26,0,0.53,0.02,0.8,0.06c3.13,0.44,5.32,3.34,4.88,6.48
					C67.35,242.31,64.91,244.43,62.07,244.43z"/>
				<path class="st2" d="M62.06,234.46c0.2,0,0.39,0.01,0.59,0.04c2.32,0.32,3.93,2.47,3.61,4.78c-0.3,2.12-2.11,3.65-4.19,3.65
					c-0.2,0-0.39-0.01-0.59-0.04c-2.32-0.32-3.93-2.47-3.61-4.78C58.16,235.99,59.98,234.46,62.06,234.46 M62.06,231.46
					C62.06,231.46,62.06,231.46,62.06,231.46c-3.58,0-6.66,2.68-7.16,6.23c-0.27,1.91,0.23,3.82,1.39,5.36
					c1.16,1.54,2.86,2.54,4.77,2.81c0.33,0.05,0.67,0.07,1.01,0.07c3.58,0,6.66-2.68,7.16-6.23c0.27-1.91-0.23-3.82-1.39-5.36
					c-1.16-1.54-2.86-2.54-4.77-2.81C62.73,231.49,62.39,231.46,62.06,231.46L62.06,231.46z"/>
			</g>
		</g>
		<g>
			<g>
				<path class="st9" d="M81.45,298.2l4.79,0.9l0.98,5.9c0,0-10.8,18.02-18.3,19.42l-6.33-4.42
					C62.6,319.99,71.39,318.03,81.45,298.2z"/>
			</g>
			<g>
				<path class="st10" d="M24.98,301.61c0,0,9.74,5.36,15.32,1.69c3.84-2.52,8.44-6.54,8.44-6.54l-1.76-9.17
					c0,0-8.3,11.63-19.89,11.68L24.98,301.61z"/>
			</g>
			<g>
				<path class="st7" d="M24.98,301.61c0,0,9.74,5.36,15.32,1.69c3.84-2.52,8.44-6.54,8.44-6.54l-1.76-9.17
					c0,0-8.3,11.63-19.89,11.68L24.98,301.61z"/>
			</g>
			<g class="st1">
				<path class="st2" d="M81.45,298.2l4.79,0.9l0.98,5.9c0,0-10.8,18.02-18.3,19.42l-6.33-4.42
					C62.6,319.99,71.39,318.03,81.45,298.2z"/>
			</g>
			<g class="st1">
				<path class="st2" d="M24.98,301.61c0,0,9.74,5.36,15.32,1.69c3.84-2.52,8.44-6.54,8.44-6.54l-1.76-9.17
					c0,0-8.3,11.63-19.89,11.68L24.98,301.61z"/>
			</g>
			<g>
				<path class="st9" d="M26.11,274.69l7.72,4.15c0,0-8.27,19.64-4.75,24.55c0,0-8.44-3.23-8.82-5.24
					C19.87,296.14,20.69,283.7,26.11,274.69z"/>
			</g>
			<g>
				<path class="st9" d="M46.98,287.59c0,0-1.06,21.09,9.14,30.86c10.2,9.76,15.31,4.85,15.31,4.85s-12.55,1.6-16.65-32.58
					L46.98,287.59z"/>
			</g>
			<g>
				<path class="st9" d="M91.37,320.8l8.81-0.07c0,0,1.13-11.54-9.36-22.61l-9.37,0.07C81.45,298.2,89.39,306.67,91.37,320.8z"/>
			</g>
		</g>
	</g>
	<path class="st11" d="M255.83,366.75L141.92,393.2c-6.36,1.48-12.77-2.52-14.24-8.88l-21.99-94.73
		c-1.48-6.36,2.52-12.77,8.88-14.24l113.92-26.45c6.36-1.48,12.77,2.52,14.24,8.88l21.99,94.73
		C266.19,358.87,262.19,365.28,255.83,366.75z"/>
	<path class="st12" d="M245.7,270.43l-137.07,31.82l-4.7-20.25c-1.48-6.36,2.52-12.77,8.88-14.24l113.96-26.46
		c6.36-1.48,12.77,2.52,14.24,8.88L245.7,270.43z"/>
	<line class="st13" x1="239.03" y1="281.27" x2="245.56" y2="309.62"/>
	<line class="st13" x1="122.6" y1="321.98" x2="127.83" y2="344.56"/>
	<circle class="st14" cx="247.75" cy="318.93" r="2.05"/>
	<circle class="st14" cx="120.58" cy="313.91" r="2.05"/>
	<path class="st15" d="M158.63,322.26l-18.79,4.35c-2.26,0.52-4.51-0.88-5.03-3.14l-2.37-10.22c-0.52-2.26,0.88-4.51,3.14-5.03
		l18.79-4.35c2.26-0.52,4.51,0.88,5.03,3.14l2.37,10.22C162.3,319.48,160.89,321.73,158.63,322.26z"/>
	<path class="st15" d="M193.37,314.21l-18.79,4.35c-2.26,0.52-4.51-0.88-5.03-3.14l-2.37-10.22c-0.52-2.26,0.88-4.51,3.14-5.03
		l18.79-4.35c2.26-0.52,4.51,0.88,5.03,3.14l2.37,10.22C197.03,311.44,195.63,313.69,193.37,314.21z"/>
	<path class="st15" d="M228.43,306.1l-18.79,4.35c-2.26,0.52-4.51-0.88-5.03-3.14l-2.37-10.22c-0.52-2.26,0.88-4.51,3.14-5.03
		l18.79-4.35c2.26-0.52,4.51,0.88,5.03,3.14l2.37,10.22C232.1,303.32,230.69,305.57,228.43,306.1z"/>
	<path class="st15" d="M199.07,339.16l-18.79,4.35c-2.26,0.52-4.51-0.88-5.03-3.14l-2.37-10.22c-0.52-2.26,0.88-4.51,3.14-5.03
		l18.79-4.35c2.26-0.52,4.51,0.88,5.03,3.14l2.37,10.22C202.74,336.38,201.33,338.63,199.07,339.16z"/>
	<path class="st15" d="M234.14,331.04l-18.79,4.35c-2.26,0.52-4.51-0.88-5.03-3.14l-2.37-10.22c-0.52-2.26,0.88-4.51,3.14-5.03
		l18.79-4.35c2.26-0.52,4.51,0.88,5.03,3.14l2.37,10.22C237.8,328.26,236.4,330.52,234.14,331.04z"/>
	<path class="st15" d="M164.4,347.18l-18.79,4.35c-2.26,0.52-4.51-0.88-5.03-3.14l-2.37-10.22c-0.52-2.26,0.88-4.51,3.14-5.03
		l18.79-4.35c2.26-0.52,4.51,0.88,5.03,3.14l2.37,10.22C168.07,344.41,166.66,346.66,164.4,347.18z"/>
	<path class="st15" d="M204.75,364.3l-18.79,4.35c-2.26,0.52-4.51-0.88-5.03-3.14l-2.37-10.22c-0.52-2.26,0.88-4.51,3.14-5.03
		l18.79-4.35c2.26-0.52,4.51,0.88,5.03,3.14l2.37,10.22C208.42,361.52,207.01,363.77,204.75,364.3z"/>
	<path class="st16" d="M239.82,356.18l-18.79,4.35c-2.26,0.52-4.51-0.88-5.03-3.14l-2.37-10.22c-0.52-2.26,0.88-4.51,3.14-5.03
		l18.79-4.35c2.26-0.52,4.51,0.88,5.03,3.14l2.37,10.22C243.48,353.4,242.08,355.66,239.82,356.18z"/>
	<path class="st15" d="M170.08,372.32l-18.79,4.35c-2.26,0.52-4.51-0.88-5.03-3.14l-2.37-10.22c-0.52-2.26,0.88-4.51,3.14-5.03
		l18.79-4.35c2.26-0.52,4.51,0.88,5.03,3.14l2.37,10.22C173.75,369.55,172.34,371.8,170.08,372.32z"/>
	<g>
		<g>
			<path class="st17" d="M132.19,404.78c-12.5,0-23.2-8.52-26.02-20.71c-3.32-14.36,5.65-28.75,20.01-32.07
				c1.99-0.46,4.03-0.69,6.05-0.69c12.5,0,23.2,8.52,26.02,20.71c3.32,14.36-5.65,28.75-20.01,32.07
				C136.25,404.54,134.21,404.78,132.19,404.78z"/>
			<path class="st2" d="M132.23,352.8c11.48,0,21.86,7.89,24.56,19.55c3.14,13.58-5.32,27.13-18.89,30.27
				c-1.91,0.44-3.83,0.66-5.71,0.66c-11.48,0-21.86-7.89-24.56-19.55c-3.14-13.58,5.32-27.13,18.89-30.27
				C128.43,353.01,130.35,352.8,132.23,352.8 M132.23,349.8C132.23,349.8,132.23,349.8,132.23,349.8c-2.14,0-4.29,0.25-6.39,0.73
				c-15.17,3.51-24.65,18.71-21.14,33.87c2.98,12.88,14.28,21.87,27.48,21.87c2.14,0,4.29-0.25,6.39-0.73
				c7.35-1.7,13.59-6.16,17.58-12.56s5.25-13.97,3.55-21.31C156.73,358.79,145.43,349.8,132.23,349.8L132.23,349.8z"/>
		</g>
		<path class="st5" d="M126.52,353.46c-0.68,0.16-1.35,0.35-2.01,0.56c12.87-1.89,25.24,6.38,28.22,19.27
			c2.98,12.89-4.5,25.76-16.88,29.71c0.68-0.1,1.36-0.22,2.05-0.38c13.58-3.14,22.03-16.7,18.89-30.27
			C153.65,358.77,140.09,350.31,126.52,353.46z"/>
		<path class="st18" d="M126.52,353.46c0.68-0.16,1.37-0.28,2.05-0.38c-12.39,3.95-19.87,16.82-16.88,29.71
			c2.98,12.89,15.36,21.16,28.22,19.27c-0.66,0.21-1.32,0.4-2.01,0.56c-13.58,3.14-27.13-5.32-30.27-18.89
			C104.48,370.15,112.94,356.6,126.52,353.46z"/>
		<g>
			<path class="st2" d="M126.87,392.67c-1.66-0.95-2.81-2.82-3.46-5.6l-0.27-1.18l7.53-1.74l0.19,0.83c0.3,1.32,0.75,2.17,1.34,2.55
				c0.59,0.39,1.27,0.49,2.06,0.31c0.81-0.19,1.36-0.61,1.67-1.26c0.3-0.66,0.36-1.38,0.18-2.17c-0.23-0.99-0.71-1.71-1.45-2.16
				c-0.74-0.44-1.6-0.77-2.61-0.99c-1-0.21-2.09-0.41-3.24-0.59c-1.16-0.18-2.27-0.51-3.33-0.98c-1.07-0.48-2.03-1.2-2.88-2.17
				c-0.86-0.97-1.49-2.35-1.9-4.13c-1.26-5.46,0.55-9.23,5.45-11.28l-0.59-2.54l3.85-0.89l0.59,2.54c2.86-0.35,5.08,0.06,6.68,1.25
				c1.6,1.19,2.74,3.28,3.44,6.29l-7.28,1.69l-0.15-0.66c-0.2-0.88-0.56-1.6-1.08-2.17c-0.51-0.57-1.15-0.77-1.9-0.6
				c-0.84,0.19-1.38,0.62-1.64,1.28c-0.26,0.66-0.31,1.33-0.15,2c0.24,1.02,0.74,1.75,1.5,2.19c0.76,0.44,1.67,0.76,2.71,0.96
				c1.05,0.2,2.16,0.38,3.34,0.52c1.18,0.14,2.32,0.45,3.43,0.94c1.11,0.48,2.11,1.22,3,2.21c0.89,0.99,1.56,2.44,2,4.34
				c0.69,2.98,0.46,5.36-0.69,7.13c-1.15,1.77-3.12,3.15-5.92,4.14l0.91,3.95l-3.85,0.89l-0.91-3.95
				C130.72,393.94,128.53,393.62,126.87,392.67z"/>
		</g>
	</g>
	<ellipse class="st0" cx="440.98" cy="522.59" rx="259.06" ry="22.91"/>
	<g>
		<text transform="matrix(1 0 0 1 321.354 367.0914)" class="st19 st20 st21">Expired</text>
	</g>
	<path class="st22" d="M475.53,177.41v326.3c0,7.2-6.27,13.04-13.99,13.04H300.98c-7.72,0-13.99-5.84-13.99-13.04v-326.3
		c0-7.21,6.27-13.04,13.99-13.04h160.56C469.26,164.37,475.53,170.2,475.53,177.41z"/>
	<path class="st23" d="M293.92,504.33c0,5.8,2.71,10.48,6.04,10.48h-3.79c-4.13,0-7.48-5.81-7.48-12.97V178.83
		c0-2.12,0.4-4.24,1.31-6.16c1.56-3.28,4.96-7.02,12.31-6.57c0,0-6.99,3.79-6.86,11.86l0.42,20.62l-1.54,3.15v93.14L293.92,504.33z"
		/>
	<path class="st24" d="M454.45,514.81h9.78c6.24,0,11.31-4.68,11.31-10.48V174.85c0-5.79-5.07-10.49-11.31-10.49h-9.78
		c6.24,0,11.31,4.69,11.31,10.49v329.48C465.75,510.13,460.69,514.81,454.45,514.81z"/>
	<ellipse class="st25" cx="381.26" cy="494.16" rx="13.26" ry="12.87"/>
	<line class="st26" x1="318" y1="170.51" x2="375.12" y2="170.51"/>
	<g class="st27">
		<path class="st28" d="M297.38,471.08c-0.83,0-1.5-0.67-1.5-1.5V201.73c0-0.83,0.67-1.5,1.5-1.5h167.61c0.83,0,1.5,0.67,1.5,1.5
			v267.85c0,0.83-0.67,1.5-1.5,1.5H297.38z"/>
		<g>
			<path class="st2" d="M464.99,201.73v267.85H297.38V201.73H464.99 M464.99,198.73H297.38c-1.66,0-3,1.34-3,3v267.85
				c0,1.66,1.34,3,3,3h167.61c1.66,0,3-1.34,3-3V201.73C467.99,200.07,466.65,198.73,464.99,198.73L464.99,198.73z"/>
		</g>
	</g>
	<rect x="456.61" y="201.73" class="st5" width="8.38" height="267.95"/>
	<rect x="297.38" y="201.73" class="st29" width="8.38" height="268.16"/>
	<g>
		<g>
			<g>
				<path class="st25" d="M416.88,186.5c0,2.52-2.11,4.57-4.72,4.57c-2.61,0-4.73-2.05-4.73-4.57c0-2.53,2.12-4.58,4.73-4.58
					C414.77,181.92,416.88,183.97,416.88,186.5z"/>
			</g>
			<path class="st25" d="M399.24,186.5c0,1.26-0.51,2.4-1.35,3.22c-0.82,0.84-1.98,1.35-3.24,1.35h-44.59
				c-2.53,0-4.58-2.05-4.58-4.57c0-1.26,0.51-2.41,1.35-3.24c0.82-0.84,1.98-1.35,3.24-1.35h44.59
				C397.2,181.92,399.24,183.97,399.24,186.5z"/>
		</g>
		<path class="st24" d="M345.49,186.5h53.76c0,1.26-0.51,2.4-1.35,3.22c-0.82,0.84-1.98,1.35-3.24,1.35h-44.59
			C347.54,191.07,345.49,189.03,345.49,186.5z"/>
		<path class="st24" d="M416.88,186.5c0,2.52-2.11,4.57-4.72,4.57c-2.61,0-4.73-2.05-4.73-4.57H416.88z"/>
	</g>
	<g>
		<path class="st30" d="M297.38,227.27c-0.83,0-1.5-0.67-1.5-1.5v-24.04c0-0.83,0.67-1.5,1.5-1.5h167.61c0.83,0,1.5,0.67,1.5,1.5
			v24.04c0,0.83-0.67,1.5-1.5,1.5H297.38z"/>
		<path class="st2" d="M464.98,201.73v24.04H297.38v-24.04H464.98 M464.98,198.73H297.38c-1.66,0-3,1.34-3,3v24.04
			c0,1.66,1.34,3,3,3h167.61c1.66,0,3-1.34,3-3v-24.04C467.98,200.07,466.64,198.73,464.98,198.73L464.98,198.73z"/>
	</g>
	<g>
		<path class="st2" d="M307.24,222.82h-2.69c-0.58,0-1.04-0.47-1.04-1.04v-7.59c0-0.58,0.47-1.04,1.04-1.04h2.69
			c0.58,0,1.04,0.47,1.04,1.04v7.59C308.28,222.36,307.81,222.82,307.24,222.82z"/>
		<path class="st2" d="M314.55,222.82h-2.69c-0.58,0-1.04-0.47-1.04-1.04v-12.35c0-0.58,0.47-1.04,1.04-1.04h2.69
			c0.58,0,1.04,0.47,1.04,1.04v12.35C315.59,222.36,315.12,222.82,314.55,222.82z"/>
		<path class="st2" d="M321.86,222.82h-2.69c-0.58,0-1.04-0.47-1.04-1.04v-16.07c0-0.58,0.47-1.04,1.04-1.04h2.69
			c0.58,0,1.04,0.47,1.04,1.04v16.07C322.9,222.36,322.43,222.82,321.86,222.82z"/>
	</g>
	<g class="st31">
		<path class="st2" d="M311.42,445.05c-0.83,0-1.5-0.67-1.5-1.5V265.49c0-0.83,0.67-1.5,1.5-1.5h146.47c0.83,0,1.5,0.67,1.5,1.5
			v178.07c0,0.83-0.67,1.5-1.5,1.5H311.42z"/>
		<path class="st2" d="M457.89,265.49v178.07H311.42V265.49H457.89 M457.89,262.49H311.42c-1.66,0-3,1.34-3,3v178.07
			c0,1.66,1.34,3,3,3h146.47c1.66,0,3-1.34,3-3V265.49C460.89,263.83,459.55,262.49,457.89,262.49L457.89,262.49z"/>
	</g>
	<g>
		<path class="st32" d="M307.95,441.49c-0.83,0-1.5-0.67-1.5-1.5V261.93c0-0.83,0.67-1.5,1.5-1.5h146.47c0.83,0,1.5,0.67,1.5,1.5
			v178.07c0,0.83-0.67,1.5-1.5,1.5H307.95z"/>
		<path class="st2" d="M454.42,261.93v178.07H307.95V261.93H454.42 M454.42,258.93H307.95c-1.66,0-3,1.34-3,3v178.07
			c0,1.66,1.34,3,3,3h146.47c1.66,0,3-1.34,3-3V261.93C457.42,260.27,456.08,258.93,454.42,258.93L454.42,258.93z"/>
	</g>
	<line class="st26" x1="333.24" y1="213.75" x2="448.57" y2="213.75"/>
	<circle class="st2" cx="380.33" cy="170.51" r="1.69"/>
	<circle class="st2" cx="446.88" cy="269.68" r="1.69"/>
	<circle class="st2" cx="455.5" cy="213.75" r="1.69"/>
	<circle class="st2" cx="393.29" cy="186.5" r="1.69"/>
	<line class="st33" x1="275.35" y1="186.5" x2="275.35" y2="222.82"/>
	<rect x="446.88" y="261.93" class="st5" width="7.55" height="178.67"/>
	<g>
		<g>
			<path class="st34" d="M649.91,521.98c0.04,3.22,7.66,5.75,17.02,5.64c9.36-0.11,16.92-2.82,16.88-6.04l0.36-6.83l-33.89,0.4
				L649.91,521.98z"/>
			<path class="st35" d="M649.91,521.98c0.04,3.22,7.66,5.75,17.02,5.64c9.36-0.11,16.92-2.82,16.88-6.04l0.36-6.83l-33.89,0.4
				L649.91,521.98z"/>
			
				<ellipse transform="matrix(0.9999 -0.0119 0.0119 0.9999 -6.0871 7.9849)" class="st34" cx="667.22" cy="514.95" rx="16.95" ry="5.06"/>
			<g>
				<path class="st17" d="M668.59,518.22c-0.44,0.01-0.87,0.02-1.32,0.02c-9.88,0.15-14.88-2.22-15.22-3.06
					c0.32-0.96,5.29-3.4,15.14-3.52c0.24,0,0.47-0.01,0.71-0.01c0.54,0,1.08,0.01,1.6,0.02c-2.79,0.93-4.48,2.16-4.47,3.49
					C665.03,516.33,666.36,517.4,668.59,518.22z"/>
			</g>
			<g class="st1">
				<path class="st32" d="M668.59,518.22c-0.44,0.01-0.87,0.02-1.32,0.02c-9.88,0.15-14.88-2.22-15.22-3.06
					c0.32-0.96,5.29-3.4,15.14-3.52c0.24,0,0.47-0.01,0.71-0.01c0.54,0,1.08,0.01,1.6,0.02c-2.79,0.93-4.48,2.16-4.47,3.49
					C665.03,516.33,666.36,517.4,668.59,518.22z"/>
			</g>
		</g>
		<g>
			<path class="st34" d="M603.59,522.2c0.04,3.22,7.66,5.75,17.02,5.64c9.36-0.11,16.92-2.82,16.88-6.04l0.36-6.83l-33.89,0.4
				L603.59,522.2z"/>
			<path class="st35" d="M603.59,522.2c0.04,3.22,7.66,5.75,17.02,5.64c9.36-0.11,16.92-2.82,16.88-6.04l0.36-6.83l-33.89,0.4
				L603.59,522.2z"/>
			
				<ellipse transform="matrix(0.9999 -0.0119 0.0119 0.9999 -6.093 7.4332)" class="st34" cx="620.9" cy="515.17" rx="16.95" ry="5.06"/>
			<path class="st5" d="M619.4,515.37c-0.02-2.04,3.99-3.83,9.78-4.71c-2.47-0.39-5.31-0.59-8.33-0.56
				c-9.36,0.11-16.92,2.47-16.89,5.26s7.65,4.97,17.01,4.86c2.54-0.03,4.95-0.23,7.11-0.56
				C622.92,518.86,619.42,517.26,619.4,515.37z"/>
		</g>
		<g>
			<path class="st34" d="M580.91,525.07c1.35,2.93,9.34,2.11,17.83-1.82s14.28-9.49,12.93-12.41l-2.47-6.38l-30.76,14.23
				L580.91,525.07z"/>
			<path class="st35" d="M580.91,525.07c1.35,2.93,9.34,2.11,17.83-1.82s14.28-9.49,12.93-12.41l-2.47-6.38l-30.76,14.23
				L580.91,525.07z"/>
			
				<ellipse transform="matrix(0.9076 -0.4199 0.4199 0.9076 -159.9229 296.6322)" class="st34" cx="593.83" cy="511.57" rx="16.95" ry="5.06"/>
			<g>
				<path class="st17" d="M607.59,505.21c-0.02,0.43-0.56,1.3-1.71,2.46c-3.12,0.48-7.04,1.73-11.13,3.62
					c-4.57,2.12-8.4,4.61-10.77,6.87c-2.25,0.31-3.6,0.14-3.9-0.15c-0.11-1,3.43-5.27,12.37-9.41c6.22-2.88,10.8-3.72,13.25-3.72
					C606.69,504.87,607.33,505.01,607.59,505.21z"/>
			</g>
			<g class="st1">
				<path class="st32" d="M607.59,505.21c-0.02,0.43-0.56,1.3-1.71,2.46c-3.12,0.48-7.04,1.73-11.13,3.62
					c-4.57,2.12-8.4,4.61-10.77,6.87c-2.25,0.31-3.6,0.14-3.9-0.15c-0.11-1,3.43-5.27,12.37-9.41c6.22-2.88,10.8-3.72,13.25-3.72
					C606.69,504.87,607.33,505.01,607.59,505.21z"/>
			</g>
		</g>
	</g>
	<g>
		<g>
			<path class="st22" d="M541.36,429.83c5.99,0,12.48-7.36,12.48-7.36l13.85,8.49c0,0-2,5.87-8.74,7.11
				c-6.74,1.25-17.6-4.24-17.6-4.24V429.83z"/>
			<path class="st24" d="M541.36,429.83c5.99,0,12.48-7.36,12.48-7.36l13.85,8.49c0,0-2,5.87-8.74,7.11
				c-6.74,1.25-17.6-4.24-17.6-4.24V429.83z"/>
			<g>
				<path class="st6" d="M515.83,527.26c-16.85,0-31.7-4.35-42.95-12.57c-13.97-10.22-13.4-28.17-8.2-41.55
					c4.09-10.53,11.07-18.96,17.82-27.12c1.54-1.87,3.1-3.74,4.62-5.65c9.95-12.44,12.62-23.57,7.94-33.08
					c-3.38-6.86-5.79-9.28-7.55-11.04c-2.21-2.21-3.39-3.6-3.99-8.69c-0.36-3.05,0.71-6.09,3.09-8.77c3.46-3.9,9.29-6.42,14.84-6.42
					c3.08,0,5.89,0.73,8.37,2.16c2.35,1.36,4.28,2.02,5.9,2.02c1.79,0,3.12-0.82,4.64-1.76c1.74-1.08,3.71-2.3,6.63-2.41
					c0.12,0,0.25-0.01,0.37-0.01c2.91,0,5.38,1.41,6.96,3.98c1.31,2.12,1.82,4.64,1.72,6.67c0.89-0.17,1.97-0.31,3.12-0.31
					c3.34,0,9.04,1.24,9.67,9.52c0.49,6.49-3.47,10.29-6.96,13.64c-3.53,3.39-6.31,6.07-5.08,10.87c1.59,6.18,4.82,11.06,4.85,11.11
					c0.06,0.09,9.27,12.9,21.54,33.22c7.73,12.79,9.49,30.17,4.39,43.24c-3.62,9.26-10.3,15.54-19.31,18.15
					C537.43,525.6,526.22,527.26,515.83,527.26z"/>
				<g>
					<path class="st2" d="M527.35,373.77c6.68,0,8.18,8.51,6.86,11.16c0,0,2.28-0.83,4.95-0.83c3.54,0,7.76,1.45,8.27,8.22
						c0.9,11.88-14.83,13.77-11.99,24.76c1.68,6.5,5.05,11.54,5.05,11.54s9.12,12.66,21.51,33.16
						c11.85,19.61,9.86,52.38-14.12,59.32c-10.07,2.92-21.1,4.74-32.04,4.74c-15.1,0-30.04-3.47-42.13-12.3
						c-12.86-9.4-13.08-26.11-7.72-39.92c4.91-12.65,13.93-22.03,22.22-32.4c7.81-9.77,14.16-22.26,8.1-34.57
						c-7.17-14.57-10.28-9.86-11.4-19.27c-0.86-7.2,7.87-13.62,16.53-13.62c2.65,0,5.3,0.6,7.67,1.97c2.8,1.62,4.89,2.21,6.6,2.21
						c4.45,0,6.31-3.98,11.32-4.18C527.14,373.78,527.24,373.77,527.35,373.77 M527.35,370.97c-0.14,0-0.28,0-0.42,0.01
						c-3.28,0.13-5.51,1.51-7.31,2.62c-1.6,0.99-2.57,1.55-3.91,1.55c-1.35,0-3.1-0.62-5.2-1.83c-2.65-1.53-5.79-2.34-9.07-2.34
						c-6.03,0-12.11,2.64-15.88,6.89c-2.62,2.95-3.84,6.45-3.43,9.87c0.66,5.52,2.1,7.21,4.39,9.51c1.69,1.69,4,4.01,7.28,10.67
						c4.48,9.11,1.94,19.44-7.77,31.58c-1.52,1.9-3.09,3.8-4.61,5.64c-6.82,8.24-13.87,16.76-18.04,27.5
						c-5.39,13.87-5.94,32.51,8.68,43.19c11.49,8.4,26.63,12.84,43.78,12.84c10.52,0,21.87-1.68,32.82-4.85
						c9.45-2.74,16.44-9.3,20.23-18.99c5.26-13.45,3.45-31.33-4.49-44.47c-11.91-19.71-20.95-32.39-21.6-33.3
						c-0.27-0.41-3.18-4.98-4.64-10.65c-0.99-3.82,1.03-6,4.69-9.51c3.53-3.39,7.92-7.62,7.38-14.76
						c-0.52-6.87-4.55-10.81-11.06-10.81c-0.61,0-1.21,0.04-1.76,0.09c-0.18-1.99-0.83-4.08-1.89-5.79
						C533.65,372.62,530.76,370.97,527.35,370.97L527.35,370.97z"/>
				</g>
			</g>
			<g class="st31">
				<path class="st32" d="M474.16,476.26c-5.28,13.59-5.15,30.01,7.16,39.48c-2.19-1.1-4.08-2.81-6.36-3.89
					c-14.66-6.94-14.02-25.16-9.3-37.33c3.88-9.99,10.74-18.91,17.61-27.23c1.56-1.88,3.4-4.11,4.94-6.04
					c10.86-13.59,13.43-23.72,8.1-34.57c-3.63-7.38-5.76-9.36-7.59-11.18c-1.77-1.77-3.34-3.97-3.82-8.09
					c-0.35-2.96,1.13-6.98,5.55-10.14c2.48-1.78,6.83-3.46,10.3-3.46c1.61,0,4.34,0.25,5.88,0.83c-7.4,1.36-10.33,14.49-2.16,34.66
					c5.15,12.71-0.28,24.79-8.1,34.57C488.09,454.22,479.07,463.6,474.16,476.26z"/>
			</g>
			<path class="st36" d="M470.9,490.95c0.22-4.28,1.12-8.61,2.54-12.73"/>
			<path class="st5" d="M561.99,461.8c-12.39-20.51-21.51-33.16-21.51-33.16s-3.37-5.04-5.04-11.55
				c-2.84-10.98,12.88-12.88,11.99-24.76c-0.89-11.87-13.21-7.4-13.21-7.4c0.23-0.46,0.36-1.09,0.41-1.82
				c-0.49,0.98-1.08,1.9-1.79,2.74c1.47,1.23-3.33,6.57-4.22,9.69c-3.98,13.95-7.79,10.57-4.96,21.55
				c1.68,6.5,5.04,11.55,5.04,11.55s9.12,12.66,21.51,33.16c11.86,19.61,12.17,47.92-11.52,55.79c-21.4,7.11-43.1,3.12-55.42,1.62
				c3.28,5.87,38.38,10.58,64.61,1.91C571.57,513.3,573.84,481.41,561.99,461.8z"/>
			<path class="st7" d="M536.33,383.25c0,0-8.85,12.56-12.21,23.99"/>
			<path class="st7" d="M511.46,388.63c0,0,6.27,9.19,3.81,20.17"/>
			<path class="st7" d="M509.04,419.59c0,0-1.71,12.41-6.96,20.45"/>
			<path class="st7" d="M527.04,419.44c0,0,2.24,8.74,9.3,18.04"/>
			<path class="st7" d="M556.83,478.05c0,0,5.87,30.43-13.11,35.92"/>
			<path class="st34" d="M546.61,512.01"/>
			<g>
				<path class="st34" d="M430.53,527.44c0.04,3.4,8.06,6.05,17.92,5.93s17.81-2.96,17.77-6.36l0.38-7.19l-35.7,0.43L430.53,527.44z
					"/>
				<path class="st35" d="M430.53,527.44c0.04,3.4,8.06,6.05,17.92,5.93s17.81-2.96,17.77-6.36l0.38-7.19l-35.7,0.43L430.53,527.44z
					"/>
				
					<ellipse transform="matrix(0.9999 -0.0119 0.0119 0.9999 -6.1631 5.3828)" class="st34" cx="448.75" cy="520.03" rx="17.85" ry="5.33"/>
				
					<ellipse transform="matrix(0.9999 -0.0119 0.0119 0.9999 -6.1598 5.385)" class="st37" cx="448.94" cy="519.75" rx="17.85" ry="5.33"/>
			</g>
			<path class="st34" d="M455.5,524.42l11.6-19.72l-3.69-3.97c0.53-0.03-2.31-0.74,3.78-0.65c8.08,0.12,16.89,5.51,16.32,16.66
				c-0.64,12.45-8.65,14.94-16.73,14.71c-5.3-0.15-9.6-6.1-10.12-6.19"/>
			
				<ellipse transform="matrix(0.0577 -0.9983 0.9983 0.0577 -79.3731 947.4166)" class="st34" cx="462.22" cy="515.76" rx="15.82" ry="14.91"/>
			<path class="st22" d="M541.66,429.65c1.84,6.61,14.6,2.69,14.6,2.69l8.95,9.94c-36.66,12.58-42.55-19.67-42.55-19.67
				C529.3,422.55,535.65,424.73,541.66,429.65z"/>
			<g class="st1">
				<path class="st32" d="M458.77,516.97c-0.29,5.01,1.57,9.61,4.73,12.84c-0.66,0.07-1.35,0.08-2.03,0.05
					c-3.53-0.2-6.78-1.85-9.12-4.61c-2.4-2.82-3.6-6.46-3.38-10.24c0.44-7.53,6.4-13.38,13.43-13.38c0.25,0,0.49,0.02,0.73,0.02
					c1.67,0.1,3.3,0.52,4.77,1.23C462.81,505.41,459.14,510.68,458.77,516.97z"/>
			</g>
			<path class="st22" d="M494.99,417.09c0,0-0.45-7.28,6.61-9.86c7.06-2.58,15.69,0,15.69,0l-8.4,7.84L494.99,417.09z"/>
			<path class="st22" d="M506.64,413.06c0,0,6.17-8.54,19.28-6.97c13.11,1.57,12.77,11,12.77,11S526.47,409.47,506.64,413.06z"/>
			<path class="st24" d="M506.64,413.06c0,0,6.17-8.54,19.28-6.97c13.11,1.57,12.77,11,12.77,11S526.47,409.47,506.64,413.06z"/>
			<path class="st22" d="M538.69,417.09c0,0,8.83,7.35,1.79,11.54c0,0-8.96-8.18-26.82-6.25c-7.38,0.8-11.83,1.43-21.58,7.15
				c0,0-5.67-13.87,15.15-16.57C528.04,410.26,538.69,417.09,538.69,417.09z"/>
			<g>
				<path class="st34" d="M557.68,527.43c0.04,3.32,7.88,5.91,17.5,5.8c9.63-0.11,17.4-2.9,17.36-6.21l0.37-7.03l-34.86,0.42
					L557.68,527.43z"/>
				<path class="st35" d="M557.68,527.43c0.04,3.32,7.88,5.91,17.5,5.8c9.63-0.11,17.4-2.9,17.36-6.21l0.37-7.03l-34.86,0.42
					L557.68,527.43z"/>
				
					<ellipse transform="matrix(0.9999 -0.0119 0.0119 0.9999 -6.1562 6.8925)" class="st34" cx="575.49" cy="520.2" rx="17.43" ry="5.21"/>
				
					<ellipse transform="matrix(0.9999 -0.0119 0.0119 0.9999 -6.1562 6.8925)" class="st35" cx="575.49" cy="520.2" rx="17.43" ry="5.21"/>
			</g>
			<g>
				<path class="st34" d="M549.41,514.5c0.04,3.32,7.88,5.91,17.5,5.8c9.63-0.11,17.4-2.9,17.36-6.21l0.37-7.03l-34.86,0.42
					L549.41,514.5z"/>
				<path class="st35" d="M549.41,514.5c0.04,3.32,7.88,5.91,17.5,5.8c9.63-0.11,17.4-2.9,17.36-6.21l0.37-7.03l-34.86,0.42
					L549.41,514.5z"/>
				
					<ellipse transform="matrix(0.9999 -0.0119 0.0119 0.9999 -6.0027 6.7931)" class="st34" cx="567.22" cy="507.27" rx="17.43" ry="5.21"/>
			</g>
			<g class="st31">
				<path class="st2" d="M538.69,417.09c0,0-5.74-3.66-16.99-4.56c3.12,1.09,4.71,2.1,4.71,2.1s5.95,4.96,4.18,9.06
					c6.58,1.94,9.9,4.94,9.9,4.94C547.51,424.45,538.69,417.09,538.69,417.09z M529.87,415.74c0-0.04-0.01-0.07-0.01-0.11
					c0-0.02,0-0.04,0-0.06c0.02,0.03,0.05,0.05,0.08,0.08c0.05,0.05,0.1,0.09,0.15,0.15C530.01,415.78,529.94,415.76,529.87,415.74z
					"/>
			</g>
			<g>
				<path class="st34" d="M539.44,530.07c2.19,2.49,9.83-0.66,17.05-7.03c7.22-6.37,11.3-13.55,9.1-16.04l-4.3-5.57l-26.15,23.07
					L539.44,530.07z"/>
				<path class="st35" d="M539.44,530.07c2.19,2.49,9.83-0.66,17.05-7.03c7.22-6.37,11.3-13.55,9.1-16.04l-4.3-5.57l-26.15,23.07
					L539.44,530.07z"/>
				
					<ellipse transform="matrix(0.7499 -0.6615 0.6615 0.7499 -202.2507 490.942)" class="st34" cx="548.21" cy="512.97" rx="17.43" ry="5.21"/>
			</g>
		</g>
		<circle class="st2" cx="554.97" cy="472.58" r="1.69"/>
		<circle class="st2" cx="507.83" cy="384.94" r="1.69"/>
		<circle class="st2" cx="498.75" cy="444.33" r="1.69"/>
		<circle class="st2" cx="531.03" cy="499.75" r="1.69"/>
		<circle class="st2" cx="475.53" cy="473.5" r="1.69"/>
		<circle class="st2" cx="458.6" cy="516.11" r="1.69"/>
	</g>
	<g class="st1">
		<path class="st2" d="M576.33,371.32c-2.75,0-5.55-0.14-8.3-0.41c-18.75-1.85-35.82-9.67-49.42-22.62l-19.74-0.3
			c-0.45-0.01-0.87-0.22-1.15-0.57c-0.28-0.35-0.39-0.81-0.29-1.25l4.44-20.21c-7.38-14.31-10.44-30.35-8.85-46.44
			c2.05-20.78,11.71-39.92,27.21-53.89c15.4-13.88,35.25-21.52,55.89-21.52c2.75,0,5.54,0.14,8.3,0.41
			c45.88,4.52,79.52,45.52,75,91.4c-2.05,20.78-11.71,39.92-27.21,53.89C616.83,363.68,596.98,371.32,576.33,371.32
			C576.34,371.32,576.34,371.32,576.33,371.32z"/>
		<path class="st2" d="M576.14,205.6c2.69,0,5.42,0.13,8.15,0.4c45.13,4.45,78.1,44.64,73.65,89.76
			c-4.18,42.39-39.89,74.06-81.61,74.06c-2.69,0-5.42-0.13-8.15-0.4c-19.15-1.89-36.11-10.21-48.95-22.62l-20.33-0.31l4.56-20.75
			c-7.17-13.69-10.57-29.56-8.94-46.09C498.71,237.27,534.42,205.6,576.14,205.6 M576.14,202.6c-21.01,0-41.22,7.78-56.89,21.9
			c-15.78,14.22-25.62,33.7-27.7,54.86c-1.6,16.2,1.43,32.35,8.76,46.8l-4.33,19.69c-0.19,0.88,0.02,1.8,0.58,2.51
			s1.41,1.12,2.31,1.14l19.15,0.29c13.77,12.94,30.99,20.76,49.88,22.62c2.8,0.28,5.64,0.42,8.45,0.42
			c21.01,0,41.22-7.78,56.89-21.9c15.78-14.22,25.62-33.7,27.7-54.86c4.6-46.7-29.65-88.44-76.35-93.04
			C581.78,202.74,578.94,202.6,576.14,202.6L576.14,202.6z"/>
	</g>
	<path class="st38" d="M580.44,204.55c-45.13-4.45-85.31,28.53-89.76,73.65c-1.63,16.53,1.77,32.4,8.94,46.09l-4.56,20.75
		l20.33,0.31c12.84,12.4,29.8,20.73,48.95,22.62c45.13,4.45,85.31-28.53,89.76-73.65S625.57,208.99,580.44,204.55z"/>
	<g>
		<g class="st31">
			<path class="st32" d="M505.9,343.35l4.27-19.43c-6.97-13.31-10.28-28.74-8.69-44.82c4.18-42.38,40.78-73.74,82.81-71.93
				c-1.47-0.23-2.95-0.42-4.45-0.57c-43.88-4.33-82.42,27.8-87.29,71.62c-1.84,16.56,1.96,32.46,8.94,45.78l-4.19,19.28
				L505.9,343.35z"/>
		</g>
	</g>
	<g class="st3">
		<path class="st2" d="M580.44,204.55c-1.15-0.11-2.29-0.19-3.43-0.25c13.32,1.87,24.87,9.35,35.22,16.65
			c23.35,16.48,38.02,42.21,35.02,72.69c-4.34,44.05-42.75,76.51-86.55,73.89c1.2,0.17,2.41,0.32,3.63,0.44
			c45.13,4.45,85.31-28.53,89.76-73.65C658.55,249.18,625.57,208.99,580.44,204.55z"/>
	</g>
	<circle class="st2" cx="499.41" cy="286.17" r="1.69"/>
	<path class="st18" d="M548.21,508.5c0,0,5.66-4.72,6.09,3.1c0,0,5.41-5.12,5.71-9.06C560,502.53,555.87,502.52,548.21,508.5z"/>
	<path class="st7" d="M528.51,470.89c0,0,4.05,11.85,2.97,21.39"/>
	<g>
		<path class="st39" d="M558.49,195.82c0,0,41.93-8.51,69.49,16.05"/>
		
			<ellipse transform="matrix(0.9053 -0.4249 0.4249 0.9053 -31.5642 252.9608)" class="st40" cx="551.41" cy="197.25" rx="1.7" ry="1.69"/>
	</g>
	<g>
		<text transform="matrix(1 0 0 1 322.5015 303.4489)" class="st2 st20 st41">Payment</text>
	</g>
	<g class="st1">
		<text transform="matrix(1 0 0 1 317.7263 421.9674)" class="st2 st20 st41">Received!</text>
	</g>
	<g class="st31">
		<circle class="st6" cx="378.64" cy="354.55" r="43.45"/>
	</g>
	
		<ellipse transform="matrix(0.0577 -0.9983 0.9983 0.0577 -79.3731 947.4166)" class="st7" cx="462.22" cy="515.76" rx="15.82" ry="14.91"/>
	<g>
		<circle class="st42" cx="378.64" cy="354.52" r="36.25"/>
		<path class="st5" d="M378.24,319.22c-1.13,0-2.25,0.06-3.36,0.16c17.92,1.69,31.94,16.77,31.94,35.13
			c0,18.36-14.02,33.44-31.94,35.13c1.11,0.1,2.22,0.16,3.36,0.16c19.49,0,35.3-15.8,35.3-35.3
			C413.53,335.02,397.73,319.22,378.24,319.22z"/>
		<path class="st23" d="M378.64,320.28c1.13,0,2.94,0.11,4.05,0.21c-17.92,1.69-32.13,16.2-32.13,34.56
			c0,18.36,16.7,31.38,34.62,33.07c-1.49,0.46-5.41,0.66-6.55,0.66c-18.73,0-34.27-15.59-34.27-33.69
			C344.37,335.99,359.14,320.28,378.64,320.28z"/>
		<polyline class="st43" points="372.11,356.89 376.6,361.14 387.51,350.71 		"/>
		<path class="st44" d="M398.73,344.74c-3.69-7.42-11.35-12.53-20.21-12.53c-12.47,0-22.57,10.1-22.57,22.56
			c0,0.22,0,0.43,0.02,0.65v0.01"/>
		<path class="st44" d="M358.42,364.56c3.69,7.42,11.35,12.53,20.21,12.53c12.47,0,22.57-10.1,22.57-22.56c0-0.22,0-0.43-0.02-0.65
			v-0.01"/>
		<path class="st44" d="M400.11,338.35l-0.5,6.63c0,0.16-0.13,0.28-0.29,0.27l-6.33-0.79"/>
		<path class="st44" d="M355.96,369.68l1.49-6.48c0.02-0.16,0.17-0.26,0.33-0.22l6.14,1.72"/>
	</g>
	<g class="st3">
		<g>
			<path class="st45" d="M663.69,317.1l4.09,0.91l0.68,5.1c0,0-9.79,15.19-16.27,16.18l-5.31-3.98
				C646.87,335.31,654.49,333.87,663.69,317.1z"/>
		</g>
		<g>
			<path class="st2" d="M615.05,318.46c0,0,8.23,4.88,13.12,1.88c3.37-2.06,7.44-5.39,7.44-5.39l-1.26-7.93
				c0,0-7.46,9.77-17.43,9.49L615.05,318.46z"/>
		</g>
		<g>
			<path class="st45" d="M615.05,318.46c0,0,8.23,4.88,13.12,1.88c3.37-2.06,7.44-5.39,7.44-5.39l-1.26-7.93
				c0,0-7.46,9.77-17.43,9.49L615.05,318.46z"/>
		</g>
		<g class="st1">
			<path class="st2" d="M663.69,317.1l4.09,0.91l0.68,5.1c0,0-9.79,15.19-16.27,16.18l-5.31-3.98
				C646.87,335.31,654.49,333.87,663.69,317.1z"/>
		</g>
		<g class="st1">
			<path class="st2" d="M615.05,318.46c0,0,8.23,4.88,13.12,1.88c3.37-2.06,7.44-5.39,7.44-5.39l-1.26-7.93
				c0,0-7.46,9.77-17.43,9.49L615.05,318.46z"/>
		</g>
		<g>
			<path class="st45" d="M616.77,295.35l6.52,3.78c0,0-7.65,16.65-4.77,20.97c0,0-7.17-3.01-7.44-4.75S611.86,302.94,616.77,295.35z
				"/>
		</g>
		<g>
			<path class="st45" d="M643.01,322.86c-0.87-3.48-1.58-7.72-2.04-12.93l-6.62-2.91c0,0-1.18,14.39,4.58,23.66
				C640.55,328.17,642.2,325.68,643.01,322.86z"/>
			<path class="st45" d="M645.84,330.93c-0.64,1.1-1.33,2.19-2.03,3.29c-0.28,0.45-0.63,0.76-1,0.99c7.55,6.8,11.57,3.19,11.57,3.19
				S649.76,338.83,645.84,330.93z"/>
		</g>
		<path class="st45" d="M671.59,336.81l7.57,0.19c0,0,1.29-9.88-7.41-19.69l-8.06-0.2C663.69,317.1,670.28,324.6,671.59,336.81z"/>
	</g>
	<g>
		<g>
			<path class="st46" d="M666.51,315.69l4.09,0.91l0.68,5.1c0,0-9.79,15.19-16.27,16.18l-5.31-3.98
				C649.69,333.9,657.31,332.46,666.51,315.69z"/>
		</g>
		<g>
			<path class="st47" d="M617.87,317.05c0,0,8.23,4.88,13.12,1.88c3.37-2.06,7.44-5.39,7.44-5.39l-1.26-7.93
				c0,0-7.46,9.77-17.43,9.49L617.87,317.05z"/>
		</g>
		<g>
			<path class="st7" d="M617.87,317.05c0,0,8.23,4.88,13.12,1.88c3.37-2.06,7.44-5.39,7.44-5.39l-1.26-7.93
				c0,0-7.46,9.77-17.43,9.49L617.87,317.05z"/>
		</g>
		<g class="st1">
			<path class="st2" d="M666.51,315.69l4.09,0.91l0.68,5.1c0,0-9.79,15.19-16.27,16.18l-5.31-3.98
				C649.69,333.9,657.31,332.46,666.51,315.69z"/>
		</g>
		<g class="st1">
			<path class="st2" d="M617.87,317.05c0,0,8.23,4.88,13.12,1.88c3.37-2.06,7.44-5.39,7.44-5.39l-1.26-7.93
				c0,0-7.46,9.77-17.43,9.49L617.87,317.05z"/>
		</g>
		<g>
			<path class="st9" d="M619.59,293.94l6.52,3.78c0,0-7.65,16.65-4.77,20.97c0,0-7.17-3.01-7.44-4.75
				C613.63,312.21,614.68,301.53,619.59,293.94z"/>
		</g>
		<g>
			<path class="st9" d="M637.17,305.62c0,0-1.5,18.1,7,26.78s13.03,4.6,13.03,4.6s-10.83,1.02-13.41-28.47L637.17,305.62z"/>
		</g>
		<g>
			<path class="st9" d="M674.41,335.4l7.57,0.19c0,0,1.29-9.88-7.41-19.69l-8.06-0.2C666.51,315.69,673.1,323.19,674.41,335.4z"/>
		</g>
	</g>
	<g class="st1">
		<g>
			<g>
				<g>
					<path class="st2" d="M635.47,293.05c-2.42,0-4.68-0.43-6.69-1.27c-0.48-0.2-0.83-0.64-0.9-1.16l-0.97-6.45
						c-0.07-0.44,0.07-0.89,0.36-1.22c0.29-0.32,0.69-0.5,1.12-0.5c0.02,0,0.03,0,0.05,0c0.55,0.02,1.09,0.03,1.61,0.03
						c9.1,0,14.06-2.65,14.11-2.67c0.22-0.12,0.47-0.18,0.72-0.18c0.24,0,0.48,0.06,0.7,0.17c0.44,0.23,0.74,0.67,0.8,1.17
						l0.88,8.28c0.07,0.68-0.33,1.32-0.97,1.56C642.22,292.31,638.69,293.05,635.47,293.05z"/>
					<path class="st2" d="M644.87,281.11l0.88,8.28c-3.04,1.13-6.65,2.15-10.29,2.15c-2.07,0-4.14-0.33-6.11-1.16l-0.97-6.45
						c0.57,0.02,1.12,0.03,1.66,0.03C639.71,283.97,644.87,281.11,644.87,281.11 M644.87,278.11c-0.5,0-0.99,0.12-1.44,0.37
						c-0.11,0.06-4.81,2.49-13.39,2.49c-0.51,0-1.03-0.01-1.56-0.03c-0.03,0-0.07,0-0.1,0c-0.85,0-1.67,0.36-2.24,1.01
						c-0.59,0.67-0.86,1.56-0.73,2.44l0.97,6.45c0.16,1.04,0.84,1.92,1.81,2.32c2.2,0.92,4.65,1.39,7.27,1.39
						c3.4,0,7.11-0.77,11.33-2.34c1.28-0.48,2.08-1.77,1.94-3.13l-0.88-8.28c-0.11-1-0.71-1.88-1.6-2.34
						C645.82,278.22,645.35,278.11,644.87,278.11L644.87,278.11z"/>
				</g>
			</g>
		</g>
	</g>
	<g>
		<g>
			<g>
				<g>
					<path class="st48" d="M635.65,291.09c-2.42,0-4.68-0.43-6.69-1.27c-0.48-0.2-0.83-0.64-0.9-1.16l-0.97-6.45
						c-0.07-0.44,0.07-0.89,0.36-1.22c0.29-0.32,0.69-0.5,1.12-0.5c0.02,0,0.03,0,0.05,0c0.55,0.02,1.08,0.03,1.61,0.03
						c9.18,0,14.06-2.65,14.11-2.67c0.23-0.13,0.48-0.19,0.73-0.19c0.24,0,0.47,0.06,0.69,0.17c0.45,0.23,0.75,0.67,0.8,1.17
						l0.88,8.28c0.07,0.68-0.33,1.32-0.97,1.56C642.4,290.36,638.86,291.09,635.65,291.09z"/>
					<path class="st2" d="M645.05,279.15l0.88,8.28c-3.04,1.13-6.65,2.15-10.29,2.15c-2.07,0-4.14-0.33-6.11-1.16l-0.97-6.45
						c0.57,0.02,1.12,0.03,1.66,0.03C639.89,282.01,645.05,279.15,645.05,279.15 M645.05,276.15c-0.5,0-0.99,0.12-1.44,0.37
						c-0.12,0.06-4.82,2.49-13.39,2.49c-0.51,0-1.03-0.01-1.56-0.03c-0.03,0-0.07,0-0.1,0c-0.85,0-1.67,0.36-2.24,1.01
						c-0.59,0.67-0.86,1.56-0.73,2.44l0.97,6.45c0.16,1.04,0.84,1.92,1.81,2.32c2.2,0.92,4.65,1.39,7.27,1.39
						c3.4,0,7.11-0.77,11.33-2.34c1.28-0.48,2.08-1.77,1.94-3.13l-0.88-8.28c-0.11-1-0.71-1.88-1.6-2.34
						C646,276.27,645.53,276.15,645.05,276.15L645.05,276.15z"/>
				</g>
			</g>
		</g>
	</g>
	<path class="st5" d="M645.93,287.44l-0.88-8.28c0,0,0.85-0.1,0.72-0.03l0.47,4.06c-4.77,1.78-11.89,3.42-17.33,1.14l0.62,4.11
		C634.98,290.72,641.16,289.22,645.93,287.44z"/>
	<g class="st1">
		<path class="st2" d="M665.32,300.31c-2.43,0-4.54-1.82-4.9-4.22c-0.41-2.71,1.46-5.24,4.17-5.65c0.25-0.04,0.5-0.06,0.74-0.06
			c2.43,0,4.54,1.82,4.9,4.22c0.41,2.71-1.46,5.24-4.17,5.65C665.81,300.3,665.56,300.31,665.32,300.31z"/>
		<path class="st2" d="M665.33,291.89c1.68,0,3.16,1.23,3.42,2.95c0.28,1.89-1.02,3.65-2.91,3.94c-0.17,0.03-0.35,0.04-0.52,0.04
			c-1.68,0-3.16-1.23-3.42-2.95c-0.28-1.89,1.02-3.65,2.91-3.94C664.98,291.9,665.15,291.89,665.33,291.89 M665.33,288.89
			L665.33,288.89c-0.32,0-0.65,0.02-0.97,0.07c-1.71,0.26-3.21,1.16-4.24,2.55c-1.03,1.39-1.45,3.09-1.19,4.8
			c0.47,3.14,3.22,5.5,6.39,5.5c0.32,0,0.65-0.02,0.97-0.07c1.71-0.26,3.21-1.16,4.24-2.55c1.03-1.39,1.45-3.09,1.19-4.8
			C671.24,291.25,668.49,288.89,665.33,288.89L665.33,288.89z"/>
	</g>
	<g class="st3">
		<path class="st2" d="M651.47,359.47c-2.43,0-4.54-1.82-4.9-4.22c-0.41-2.71,1.46-5.24,4.17-5.64c0.25-0.04,0.5-0.06,0.74-0.06
			c2.43,0,4.54,1.82,4.9,4.22c0.41,2.71-1.46,5.24-4.17,5.65C651.96,359.45,651.71,359.47,651.47,359.47z"/>
		<path class="st2" d="M651.47,351.04c1.68,0,3.16,1.23,3.42,2.95c0.28,1.89-1.02,3.65-2.91,3.94c-0.17,0.03-0.35,0.04-0.52,0.04
			c-1.68,0-3.16-1.23-3.42-2.95c-0.28-1.89,1.02-3.65,2.91-3.94C651.13,351.05,651.3,351.04,651.47,351.04 M651.47,348.04
			C651.47,348.04,651.47,348.04,651.47,348.04c-0.32,0-0.65,0.02-0.97,0.07c-3.52,0.53-5.96,3.83-5.43,7.35
			c0.47,3.14,3.22,5.5,6.39,5.5c0.32,0,0.65-0.02,0.97-0.07c3.52-0.53,5.96-3.83,5.43-7.35
			C657.39,350.41,654.64,348.04,651.47,348.04L651.47,348.04z"/>
	</g>
	<g>
		<path class="st4" d="M663.78,299.08c-2.43,0-4.54-1.82-4.9-4.22c-0.41-2.71,1.46-5.24,4.17-5.64c0.25-0.04,0.5-0.06,0.74-0.06
			c2.43,0,4.54,1.82,4.9,4.22c0.41,2.71-1.46,5.24-4.17,5.65C664.27,299.06,664.02,299.08,663.78,299.08z"/>
		<path class="st2" d="M663.78,290.65c1.68,0,3.16,1.23,3.42,2.95c0.28,1.89-1.02,3.65-2.91,3.94c-0.17,0.03-0.35,0.04-0.52,0.04
			c-1.68,0-3.16-1.23-3.42-2.95c-0.28-1.89,1.02-3.65,2.91-3.94C663.44,290.67,663.61,290.65,663.78,290.65 M663.78,287.65
			C663.78,287.65,663.78,287.65,663.78,287.65c-0.32,0-0.65,0.02-0.97,0.07c-3.52,0.53-5.96,3.83-5.43,7.35
			c0.47,3.14,3.22,5.5,6.39,5.5c0.32,0,0.65-0.02,0.97-0.07c1.71-0.26,3.21-1.16,4.24-2.55c1.03-1.39,1.45-3.09,1.19-4.8
			C669.7,290.02,666.95,287.65,663.78,287.65L663.78,287.65z"/>
	</g>
	<circle class="st12" cx="651.47" cy="353.45" r="4.34"/>
	<g class="st1">
		<g>
			<g>
				<g>
					<path class="st2" d="M699.1,337.86c-0.36,0-0.72-0.13-1-0.38c-0.39-0.34-0.57-0.86-0.48-1.37c0.67-3.96,1.16-11.18-3.18-14.94
						c-0.42-0.37-0.61-0.94-0.47-1.48c0.13-0.54,0.55-0.97,1.1-1.1l6.33-1.56c0.12-0.03,0.24-0.04,0.36-0.04
						c0.31,0,0.62,0.1,0.88,0.28c4.71,3.39,6.83,9.4,5.95,16.93c-0.07,0.6-0.49,1.1-1.07,1.27l-7.99,2.35
						C699.39,337.84,699.24,337.86,699.1,337.86z"/>
					<path class="st2" d="M701.76,318.48c5.03,3.61,5.99,9.91,5.34,15.54l-7.99,2.35c0.46-2.72,1.75-11.62-3.67-16.32L701.76,318.48
						 M701.76,315.48c-0.24,0-0.48,0.03-0.72,0.09l-6.33,1.56c-1.09,0.27-1.94,1.12-2.2,2.21s0.1,2.23,0.95,2.97
						c3.78,3.28,3.3,9.9,2.68,13.55c-0.17,1.02,0.19,2.06,0.96,2.74c0.56,0.49,1.27,0.76,1.99,0.76c0.28,0,0.57-0.04,0.84-0.12
						l7.99-2.35c1.16-0.34,2-1.34,2.14-2.53c0.94-8.1-1.39-14.6-6.56-18.32C703,315.67,702.38,315.48,701.76,315.48L701.76,315.48z"
						/>
				</g>
			</g>
		</g>
	</g>
	<g>
		<g>
			<g>
				<path class="st12" d="M693.28,318.72l6.33-1.56c5.03,3.61,5.99,9.91,5.34,15.54l-7.99,2.35
					C697.42,332.32,698.7,323.42,693.28,318.72z"/>
			</g>
		</g>
	</g>
	<path class="st5" d="M701.21,333.79c0.47-4.22,0.56-11.35-3.52-16.16l-4.41,1.09c5.42,4.7,4.14,13.6,3.67,16.32L701.21,333.79z"/>
	<path class="st39" d="M698.73,298.26c-7.18,4.38-16.67,7.34-27.84,6.71"/>
	<path class="st39" d="M667.33,344.92c7.52,3.77,15.06,10.25,20.43,20.06"/>
	<path class="st39" d="M668.65,356.35c3.61,2.88,7.06,6.57,9.97,11.08"/>
	<circle class="st40" cx="664.7" cy="353.32" r="1.18"/>
	<circle class="st40" cx="702.57" cy="295.78" r="1.18"/>
	<circle class="st2" cx="608.29" cy="336.42" r="1.58"/>
	<g>
		<defs>
			<path id="SVGID_1_" d="M654.62,285.02c-1.65,56.04-38.67,83.07-79.78,85.58c-58.97-1.56-79.78-41.52-79.78-85.58
				s35.72-79.78,79.78-79.78C618.9,205.24,654.62,240.96,654.62,285.02z"/>
		</defs>
		<clipPath id="SVGID_00000101782926550050522800000000415296741750130871_">
			<use xlink:href="#SVGID_1_"  style="overflow:visible;"/>
		</clipPath>
		<g style="clip-path:url(#SVGID_00000101782926550050522800000000415296741750130871_);">
			<path class="st50" d="M626.34,335.81c-6.95-7.63-16.67-15.57-26.5-19.04v-3.86c6.99-5.45,12.61-13.78,13.57-25.03
				c0.15-1.4,0.21-2.85,0.21-4.35c0.23,0.02,0.47,0.04,0.71,0.04c4.23,0,7.66-3.82,7.66-8.54c0-4.71-3.43-8.54-7.66-8.54
				c-0.24,0-0.47,0.02-0.7,0.04l0.01-11.25v-1.14c0-19.21-17.35-33.87-36.14-33.87c0,0-33.11,15.49-33.11,34.57v1.14l0.01,10.56
				c-0.25-0.03-0.5-0.04-0.75-0.04c-4.23,0-7.66,3.82-7.66,8.54c0,4.71,3.43,8.54,7.66,8.54c0.26,0,0.51-0.02,0.76-0.04v0.53
				c-0.12,13.2,5.97,22.8,13.73,28.85v6.8c-3.18,1.11-6.24,2.47-9.17,4.06c-0.22,0.11-0.44,0.24-0.66,0.35
				c-1.81,1-3.56,2.09-5.25,3.26c-6.94,4.81-12.87,10.96-17.41,18.09c14.29,12.39,32.93,19.87,53.33,19.87
				c20.4,0,40.12-8.03,54.42-20.41C633.84,344.56,626.98,336.51,626.34,335.81z"/>
			<g>
				<path class="st51" d="M628.77,345.94c-14.3,12.38-33.54,23.1-53.94,23.1s-42.83-8.15-57.12-20.54
					c4.53-7.13,13.75-16.31,20.69-21.12c1.69-1.17,3.44-2.26,5.25-3.26c0.22-0.12,0.44-0.25,0.66-0.35
					c8.92-4.85,19.15-7.59,30.01-7.59s21.1,2.75,30.02,7.59c0.23,0.12,0.44,0.24,0.66,0.35c1.81,1,3.56,2.09,5.25,3.26
					C617.21,332.19,624.23,338.81,628.77,345.94z"/>
				<path class="st7" d="M532.1,340.58c2.83-3.02,5.99-5.74,9.44-8.13c0.45-0.31,0.9-0.61,1.36-0.91"/>
				<path class="st52" d="M602.03,321.34c-2.56,10.66-14.77,19.42-27.57,19.42c-11.68,0-25.87-8.76-27.79-19.45
					c8.92-3.92,16.81-5.14,27.68-5.14S593.11,317.43,602.03,321.34z"/>
				<path class="st53" d="M595.2,303.55c-0.58-1.03-1.24-2.01-1.98-2.93h-37.75c-0.74,0.92-1.4,1.9-1.98,2.93v18.11
					c0,0.96,0.29,1.89,0.84,2.71c4.11,6.17,11.53,10.3,20.02,10.3c8.48,0,15.91-4.13,20.02-10.3c0.54-0.82,0.84-1.75,0.84-2.71
					V303.55z"/>
				<path class="st24" d="M629.15,345.93c-3.07,2.66-6.33,5.09-9.78,7.27c-7.98-13.12-20.29-24.01-28.59-28.64
					c-0.22-0.12-0.43-0.24-0.66-0.35c-0.55-0.3-1.11-0.6-1.68-0.88c-4.44,1.99-8.94,2.97-12.79,2.97c-6.25,0-14.17-2.59-20.85-7.81
					V303.5c0.57-1.03,1.23-2.01,1.98-2.93h37.75c0.74,0.92,1.41,1.9,1.98,2.93v14.99c-0.49,0.38-0.99,0.76-1.5,1.1
					c3.79,1.2,7.4,2.75,10.84,4.61c0.23,0.12,0.44,0.24,0.66,0.35C615.71,329.68,623.51,337.06,629.15,345.93z"/>
				<ellipse class="st53" cx="609.69" cy="275.03" rx="7.66" ry="8.54"/>
				<path class="st24" d="M609.69,266.49c4.23,0,7.66,3.82,7.66,8.54s-3.43,8.54-7.66,8.54"/>
				<ellipse class="st53" cx="539" cy="275.03" rx="7.66" ry="8.54"/>
				<path class="st7" d="M535.73,275.03c0-2.25,1.5-4.15,3.27-4.15s3.27,1.9,3.27,4.15c0,0.87-0.23,1.69-0.61,2.37"/>
				<path class="st7" d="M606.92,277.2c-0.31-0.63-0.5-1.38-0.5-2.17c0-2.25,1.5-4.15,3.27-4.15s3.27,1.9,3.27,4.15"/>
				<path class="st53" d="M608.95,254.84v1.14l-0.03,26.5v1.57c0.23,24.57-21.05,36.66-34.58,36.66s-34.81-12.09-34.59-36.66v-1.57
					l-0.01-15.31l-0.01-11.19v-1.14c0-19.21,15.24-34.76,34.03-34.76h1.14c17.85,0,32.49,14.03,33.92,31.89
					C608.92,252.91,608.95,253.87,608.95,254.84z"/>
				<path class="st23" d="M545.96,284.05v-1.57l-0.01-15.31l-0.01-11.19v-1.14c0-18.34,13.9-33.34,31.51-34.66
					c-0.84-0.06-1.68-0.11-2.54-0.11h-1.14c-18.79,0-34.03,15.56-34.03,34.76v1.14l0.01,11.19l0.01,15.31v1.57
					c-0.23,24.57,21.06,36.66,34.59,36.66c0.99,0,2.03-0.07,3.1-0.2C564.01,318.86,545.75,306.82,545.96,284.05z"/>
				<path class="st5" d="M609,254.14v1.14l-0.02,26.5v1.57c0.23,24.57-21.06,36.66-34.59,36.66c-1.34,0-2.74-0.12-4.2-0.35
					c13.32-2.15,30.59-14.15,30.39-36.31v-1.57l0.02-26.5v-1.14c0-17.96-12.03-32.12-29.12-33.97c1.19-0.13,1.51,0,2.74,0h2.01
					C595.02,220.17,609,234.93,609,254.14z"/>
				<path class="st54" d="M599.8,280.58c-6.04,0.92-10.74,0.93-16.38,0.03c-1.44-0.23-2.76-1.08-3.55-3.29
					c-0.23-0.65-1.05-6.43-1.05-6.43c-0.57-2.89,1.22-5.69,3.75-5.86c5.85-0.4,12.06-0.21,17.85,0.44c2.36,0.26,4.04,2.8,3.66,5.54
					l-0.37,5.58C603.42,278.67,601.97,280.25,599.8,280.58z"/>
				<path class="st55" d="M548.9,280.58c6.03,0.97,10.74,0.93,16.38,0.03c1.68-0.27,3.03-1.74,3.41-3.67l1.19-6.05
					c0.57-2.89-1.22-5.69-3.75-5.86c-5.85-0.4-12.06-0.21-17.85,0.44c-2.36,0.26-4.04,2.8-3.66,5.54l0.77,5.59
					C545.68,278.68,547.11,280.29,548.9,280.58z"/>
				<path class="st24" d="M560.85,280.58c1.79-0.29,3.22-1.9,3.51-3.99l0.77-5.59c0.38-2.74-1.3-5.27-3.66-5.54
					c-3.19-0.36-6.51-0.57-9.83-0.63c4.53-0.09,9.17,0.14,13.56,0.63c2.36,0.26,4.04,2.8,3.66,5.54l-0.77,5.59
					c-0.29,2.09-1.72,3.7-3.51,3.99c-3.7,0.6-6.9,0.81-10.13,0.67C556.48,281.17,558.57,280.95,560.85,280.58z"/>
				<path class="st24" d="M595.4,280.58c1.79-0.29,3.22-1.9,3.51-3.99l0.77-5.59c0.38-2.74-1.3-5.27-3.66-5.54
					c-3.19-0.36-6.51-0.57-9.83-0.63c4.53-0.09,9.17,0.14,13.56,0.63c2.36,0.26,4.04,2.8,3.66,5.54l-0.77,5.59
					c-0.29,2.09-1.72,3.7-3.51,3.99c-3.7,0.6-6.9,0.81-10.13,0.67C591.03,281.17,593.12,280.95,595.4,280.58z"/>
				<g>
					<g>
						<g>
							<g>
								<g>
									<path class="st2" d="M549.51,274.37c-0.4-0.36-0.12-1.51,1.14-2.78c1.24-1.25,3.57-2.48,6.35-2.58
										c1.38-0.05,2.7,0.18,3.83,0.57c1.12,0.44,2.07,0.98,2.72,1.61c1.35,1.24,1.62,2.41,1.22,2.77
										c-0.43,0.41-1.39,0.08-2.69-0.25c-0.64-0.19-1.41-0.31-2.22-0.45c-0.83-0.09-1.74-0.15-2.7-0.12
										c-1.92,0.07-3.63,0.52-4.94,0.92C550.91,274.45,549.94,274.78,549.51,274.37z"/>
								</g>
							</g>
						</g>
					</g>
					<g>
						<g>
							<g>
								<g>
									<path class="st2" d="M583.92,274.37c-0.4-0.36-0.12-1.51,1.14-2.78c1.24-1.25,3.57-2.48,6.35-2.58
										c1.38-0.05,2.7,0.18,3.83,0.57c1.12,0.44,2.07,0.98,2.72,1.61c1.35,1.24,1.62,2.41,1.22,2.77
										c-0.43,0.41-1.39,0.08-2.69-0.25c-0.64-0.19-1.41-0.31-2.22-0.45c-0.83-0.09-1.74-0.15-2.7-0.12
										c-1.92,0.07-3.63,0.52-4.94,0.92C585.32,274.45,584.35,274.78,583.92,274.37z"/>
								</g>
							</g>
						</g>
					</g>
				</g>
				<line class="st56" x1="569.1" y1="274.93" x2="570.07" y2="269.78"/>
				<path class="st57" d="M570.07,269.78c2.69-0.99,5.43-0.95,8.2,0.04"/>
				<path class="st58" d="M608.87,253.37v13.8c-1.1,0-2.1-0.45-2.83-1.18c-0.73-0.72-1.17-1.72-1.17-2.83v-6.62
					c0-8.97-7.14-16.28-16.11-16.58c-4.82-0.18-9.66,0.36-14.49,0.36c-4.84,0-9.67-0.54-14.5-0.36c-8.97,0.29-16.1,7.61-16.1,16.58
					v6.62c0,2.18-1.75,3.96-3.92,4.01l-0.01-11.19v-1.14c0-19.21,15.24-34.76,34.03-34.76h1.14c17.85,0,32.49,14.03,33.92,31.89
					C608.86,252.43,608.87,252.9,608.87,253.37z"/>
				<g>
					<path class="st59" d="M553.29,235.47c5.42-5.99,13.16-9.74,21.74-9.74"/>
				</g>
				<path class="st57" d="M548.9,280.58c6.03,0.97,10.74,0.93,16.38,0.03c1.68-0.27,3.03-1.74,3.41-3.67l1.19-6.05
					c0.57-2.89-1.22-5.69-3.75-5.86c-5.85-0.4-12.06-0.21-17.85,0.44c-2.36,0.26-4.04,2.8-3.66,5.54l0.77,5.59
					C545.68,278.68,547.11,280.29,548.9,280.58z"/>
				<path class="st7" d="M599.8,280.58c-6.04,0.92-10.74,0.93-16.38,0.03c-1.44-0.23-2.76-1.08-3.55-3.29
					c-0.23-0.65-1.05-6.43-1.05-6.43c-0.57-2.89,1.22-5.69,3.75-5.86c5.85-0.4,12.06-0.21,17.85,0.44c2.36,0.26,4.04,2.8,3.66,5.54
					l-0.37,5.58C603.42,278.67,601.97,280.25,599.8,280.58z"/>
				<g>
					<path class="st60" d="M576.31,306.06c5.6,0,10.23-3.21,10.94-7.36c0.1-0.58-0.34-1.11-0.88-1.11c-6.7,0.68-13.41,0.68-20.11,0
						c-0.54,0-0.98,0.53-0.88,1.11C566.08,302.85,570.71,306.06,576.31,306.06z"/>
					<path class="st52" d="M574.35,305.78c5.6,0,10.23-3.21,10.94-7.36c0.1-0.58-0.34-1.11-0.88-1.11c-6.7,0.68-13.41,0.68-20.11,0
						c-0.54,0-0.98,0.53-0.88,1.11C564.12,302.58,568.74,305.78,574.35,305.78z"/>
					<g>
						<path class="st59" d="M579.62,286.84c-2.3,3.7-8.17,3.76-10.54,0.1"/>
					</g>
					<g class="st3">
						<g>
							<g>
								<g>
									<path class="st2" d="M565.93,308.67c0.25-0.28,0.72-0.35,1.32-0.21c0.61,0.14,1.32,0.5,2.05,0.84
										c1.49,0.72,2.84,1.07,5.07,1.07c2.28-0.02,3.57-0.33,5.02-1.07c0.71-0.36,1.42-0.74,2.03-0.9c0.6-0.17,1.08-0.11,1.33,0.17
										c0.26,0.29,0.32,0.72,0.24,1.29c-0.09,0.57-0.31,1.3-0.87,2.22c-0.55,0.9-1.56,1.98-2.99,2.72
										c-1.42,0.73-3.12,1.08-4.74,1.08c-1.64,0.02-3.34-0.35-4.75-1.07c-1.41-0.73-2.41-1.77-2.98-2.65
										c-0.58-0.89-0.83-1.62-0.93-2.19C565.63,309.39,565.68,308.96,565.93,308.67z"/>
								</g>
							</g>
						</g>
					</g>
					<g>
						<path class="st59" d="M582.75,308.58c-3.63,3.7-13.11,3.74-16.82,0.1"/>
					</g>
					<ellipse class="st23" cx="574.35" cy="285.57" rx="3.04" ry="1.27"/>
				</g>
				<path class="st7" d="M608.95,254.84v1.14l-0.03,26.5v1.57c0.23,24.57-21.05,36.66-34.58,36.66s-34.81-12.09-34.59-36.66v-1.57
					l-0.01-15.31l-0.01-11.19v-1.14c0-19.21,15.24-34.76,34.03-34.76h1.14c17.85,0,32.49,14.03,33.92,31.89
					C608.92,252.91,608.95,253.87,608.95,254.84z"/>
			</g>
			<circle class="st2" cx="564.78" cy="241.39" r="1.45"/>
			<circle class="st2" cx="529.05" cy="343.93" r="1.45"/>
			<circle class="st2" cx="599.76" cy="291.92" r="1.45"/>
		</g>
	</g>
	<path class="st5" d="M304.83,408.8l-69.53,0c-6.78,0-12.27,5.49-12.27,12.27v94.07c0,6.78,5.49,12.27,12.27,12.27h69.53
		c6.78,0,12.27-5.49,12.27-12.27v-94.07C317.1,414.29,311.61,408.8,304.83,408.8z"/>
	<g>
		<path class="st61" d="M228.42,408.8h69.53c6.78,0,12.27,5.49,12.27,12.27l0,94.07c0,6.78-5.49,12.27-12.27,12.27l-69.53,0
			c-6.78,0-12.27-5.49-12.27-12.27l0-94.07C216.15,414.29,221.65,408.8,228.42,408.8z"/>
		<path class="st51" d="M297.96,416.98l-69.53,0c-2.26,0-4.1,1.83-4.1,4.1l0,16.36c0,2.26,1.83,4.09,4.1,4.09l69.53,0
			c2.26,0,4.09-1.83,4.09-4.09l0-16.36C302.05,418.81,300.22,416.98,297.96,416.98z"/>
		<path class="st51" d="M244.78,506.96l0,8.18c0,2.25-1.83,4.09-4.08,4.09l-12.28,0c-2.25,0-4.09-1.84-4.09-4.09v-8.18
			c0-2.25,1.84-4.09,4.09-4.09h12.28C242.95,502.87,244.78,504.71,244.78,506.96z"/>
		<g>
			<path class="st60" d="M246.63,506.96v8.18c0,2.25-1.83,4.09-4.08,4.09l-12.28,0c-2.25,0-4.09-1.84-4.09-4.09l0-8.18
				c0-2.25,1.84-4.09,4.09-4.09h12.28C244.8,502.87,246.63,504.71,246.63,506.96z"/>
			<path class="st60" d="M275.26,482.42v8.18c0,2.26-1.83,4.09-4.09,4.09h-12.27c-2.26,0-4.09-1.83-4.09-4.09v-8.18
				c0-2.25,1.83-4.08,4.09-4.08l12.27,0C273.44,478.34,275.26,480.17,275.26,482.42z"/>
			<path class="st60" d="M246.63,482.42v8.18c0,2.26-1.83,4.09-4.08,4.09h-12.28c-2.25,0-4.09-1.83-4.09-4.09v-8.18
				c0-2.25,1.84-4.08,4.09-4.08h12.28C244.8,478.34,246.63,480.17,246.63,482.42z"/>
			<path class="st60" d="M275.26,457.88v8.18c0,2.26-1.83,4.09-4.09,4.09h-12.27c-2.26,0-4.09-1.83-4.09-4.09v-8.18
				c0-2.25,1.83-4.08,4.09-4.08h12.27C273.44,453.8,275.26,455.63,275.26,457.88z"/>
			<path class="st60" d="M246.63,457.88l0,8.18c0,2.26-1.83,4.09-4.08,4.09l-12.28,0c-2.25,0-4.09-1.83-4.09-4.09v-8.18
				c0-2.25,1.84-4.08,4.09-4.08h12.28C244.8,453.8,246.63,455.63,246.63,457.88z"/>
			<path class="st60" d="M303.9,457.88v8.18c0,2.26-1.83,4.09-4.09,4.09h-12.27c-2.26,0-4.09-1.83-4.09-4.09v-8.18
				c0-2.25,1.83-4.08,4.09-4.08h12.27C302.07,453.8,303.9,455.63,303.9,457.88z"/>
			<path class="st60" d="M303.9,482.42l0,32.73c0,2.25-1.83,4.09-4.09,4.09h-12.27c-2.26,0-4.09-1.84-4.09-4.09l0-32.73
				c0-2.25,1.83-4.08,4.09-4.08h12.27C302.07,478.34,303.9,480.17,303.9,482.42z"/>
			<path class="st60" d="M275.26,506.96v8.18c0,2.25-1.83,4.09-4.09,4.09h-12.27c-2.26,0-4.09-1.84-4.09-4.09l0-8.18
				c0-2.25,1.83-4.09,4.09-4.09h12.27C273.44,502.87,275.26,504.71,275.26,506.96z"/>
		</g>
		<path class="st51" d="M273.41,482.42v8.18c0,2.26-1.83,4.09-4.09,4.09h-12.27c-2.26,0-4.09-1.83-4.09-4.09l0-8.18
			c0-2.25,1.83-4.08,4.09-4.08l12.27,0C271.58,478.34,273.41,480.17,273.41,482.42z"/>
		<path class="st51" d="M244.78,482.42v8.18c0,2.26-1.83,4.09-4.08,4.09h-12.28c-2.25,0-4.09-1.83-4.09-4.09v-8.18
			c0-2.25,1.84-4.08,4.09-4.08h12.28C242.95,478.34,244.78,480.17,244.78,482.42z"/>
		<path class="st51" d="M273.41,457.88v8.18c0,2.26-1.83,4.09-4.09,4.09h-12.27c-2.26,0-4.09-1.83-4.09-4.09v-8.18
			c0-2.25,1.83-4.08,4.09-4.08h12.27C271.58,453.8,273.41,455.63,273.41,457.88z"/>
		<path class="st51" d="M244.78,457.88v8.18c0,2.26-1.83,4.09-4.08,4.09l-12.28,0c-2.25,0-4.09-1.83-4.09-4.09v-8.18
			c0-2.25,1.84-4.08,4.09-4.08h12.28C242.95,453.8,244.78,455.63,244.78,457.88z"/>
		<path class="st51" d="M302.05,457.88v8.18c0,2.26-1.83,4.09-4.09,4.09h-12.27c-2.26,0-4.09-1.83-4.09-4.09v-8.18
			c0-2.25,1.83-4.08,4.09-4.08h12.27C300.22,453.8,302.05,455.63,302.05,457.88z"/>
		<path class="st51" d="M302.05,482.42v32.73c0,2.25-1.83,4.09-4.09,4.09h-12.27c-2.26,0-4.09-1.84-4.09-4.09v-32.73
			c0-2.25,1.83-4.08,4.09-4.08h12.27C300.22,478.34,302.05,480.17,302.05,482.42z"/>
		<path class="st51" d="M273.41,506.96v8.18c0,2.25-1.83,4.09-4.09,4.09h-12.27c-2.26,0-4.09-1.84-4.09-4.09v-8.18
			c0-2.25,1.83-4.09,4.09-4.09h12.27C271.58,502.87,273.41,504.71,273.41,506.96z"/>
		<path class="st18" d="M302.05,421.07l0,16.36c0,2.26-1.83,4.09-4.09,4.09h-29.41l10.98-24.54l18.43,0
			C300.22,416.98,302.05,418.81,302.05,421.07z"/>
		<polygon class="st18" points="273.45,416.98 262.48,441.52 245.2,441.52 256.18,416.98 		"/>
		<path class="st57" d="M297.96,416.98l-69.53,0c-2.26,0-4.1,1.83-4.1,4.1l0,16.36c0,2.26,1.83,4.09,4.1,4.09l69.53,0
			c2.26,0,4.09-1.83,4.09-4.09l0-16.36C302.05,418.81,300.22,416.98,297.96,416.98z"/>
		<g class="st31">
			<path class="st2" d="M302.05,452.84v13.22c0,2.26-1.83,4.09-4.09,4.09h-6.13v-17.32H302.05z"/>
		</g>
		<g class="st31">
			<path class="st2" d="M302.05,482.42v36.82h-10.23l0-40.9h6.13C300.22,478.34,302.05,480.17,302.05,482.42z"/>
		</g>
		<g class="st31">
			<path class="st2" d="M273.41,457.88v8.18c0,2.26-1.83,4.09-4.09,4.09h-6.13l0-16.36h6.13
				C271.58,453.8,273.41,455.63,273.41,457.88z"/>
		</g>
		<g class="st31">
			<path class="st2" d="M273.41,482.42v8.18c0,2.26-1.83,4.09-4.09,4.09h-6.13v-16.36l6.13,0
				C271.58,478.34,273.41,480.17,273.41,482.42z"/>
		</g>
		<g class="st31">
			<path class="st2" d="M273.41,506.96v8.18c0,2.25-1.83,4.09-4.09,4.09h-6.13v-16.37h6.13
				C271.58,502.87,273.41,504.71,273.41,506.96z"/>
		</g>
		<g class="st31">
			<path class="st2" d="M244.78,457.88v8.18c0,2.26-1.83,4.09-4.08,4.09l-5.32,0l0-16.36h5.32
				C242.95,453.8,244.78,455.63,244.78,457.88z"/>
		</g>
		<g class="st31">
			<path class="st2" d="M244.78,482.42v8.18c0,2.26-1.83,4.09-4.08,4.09h-5.32v-16.36h5.32
				C242.95,478.34,244.78,480.17,244.78,482.42z"/>
		</g>
		<g class="st31">
			<path class="st2" d="M244.78,506.96l0,8.18c0,2.25-1.83,4.09-4.08,4.09h-5.32l0-16.37h5.32
				C242.95,502.87,244.78,504.71,244.78,506.96z"/>
		</g>
		<circle class="st2" cx="291.98" cy="494.7" r="2.74"/>
		<circle class="st2" cx="232.88" cy="425.7" r="2.32"/>
	</g>
	<g>
		<path class="st62" d="M564.38,357.58l-5.46-5.46c-0.35-0.35-0.35-0.93,0-1.28l5.46-5.46"/>
		<path class="st62" d="M585.29,357.58l5.46-5.46c0.35-0.35,0.35-0.93,0-1.28l-5.46-5.46"/>
		<line class="st62" x1="580.62" y1="344.76" x2="572.12" y2="358.09"/>
	</g>
	
		<ellipse transform="matrix(0.9053 -0.4249 0.4249 0.9053 -71.3741 138.7188)" class="st40" cx="275.35" cy="229.4" rx="1.7" ry="1.69"/>
	<line class="st33" x1="193.36" y1="242.68" x2="157.89" y2="250.53"/>
	
		<ellipse transform="matrix(0.7921 -0.6103 0.6103 0.7921 -122.2905 144.8195)" class="st40" cx="151.47" cy="251.95" rx="1.69" ry="1.7"/>
	<g>
		<line class="st33" x1="163.41" y1="396.25" x2="198.87" y2="388.4"/>
		
			<ellipse transform="matrix(0.7921 -0.6103 0.6103 0.7921 -193.5189 205.7377)" class="st40" cx="205.29" cy="386.98" rx="1.69" ry="1.7"/>
	</g>
	<g>
		<line class="st33" x1="206.19" y1="462.3" x2="205.43" y2="498.61"/>
		
			<ellipse transform="matrix(0.914 -0.4058 0.4058 0.914 -187.3246 126.7553)" class="st40" cx="205.29" cy="505.19" rx="1.7" ry="1.69"/>
	</g>
	<path class="st5" d="M379.62,480.99c-0.42,0-0.84,0.02-1.25,0.06c6.69,0.63,11.92,6.26,11.92,13.11c0,6.85-5.23,12.48-11.92,13.11
		c0.41,0.04,0.83,0.06,1.25,0.06c7.28,0,13.18-5.9,13.18-13.18C392.79,486.89,386.89,480.99,379.62,480.99z"/>
	
		<rect x="239.68" y="270.66" transform="matrix(0.9742 -0.2255 0.2255 0.9742 -65.4027 63.9228)" class="st5" width="14.82" height="95.14"/>
	<g>
		<path class="st32" d="M196.53,259.64l-8.07,1.87c-0.09,0.02-0.14,0.11-0.12,0.19l0.36,1.57c0.02,0.09,0.11,0.14,0.19,0.12
			l5.44-1.26l-4.13,8.29c-0.02,0.03-0.02,0.07-0.01,0.11l0.3,1.31c0.02,0.09,0.11,0.14,0.19,0.12l8.26-1.92
			c0.09-0.02,0.14-0.11,0.12-0.19l-0.36-1.57c-0.02-0.09-0.11-0.14-0.19-0.12l-5.62,1.31l4.13-8.29c0.02-0.03,0.02-0.07,0.01-0.11
			l-0.3-1.31C196.7,259.67,196.61,259.62,196.53,259.64z"/>
		<path class="st32" d="M208.31,265.87l-5.63,1.31l-0.56-2.4l4.91-1.14c0.09-0.02,0.14-0.11,0.12-0.19l-0.37-1.59
			c-0.02-0.09-0.11-0.14-0.19-0.12l-4.91,1.14l-0.54-2.31l5.55-1.29c0.09-0.02,0.14-0.11,0.12-0.19l-0.37-1.59
			c-0.02-0.09-0.11-0.14-0.19-0.12l-7.48,1.74c-0.09,0.02-0.14,0.11-0.12,0.19L201,269.4c0.02,0.09,0.11,0.14,0.19,0.12l7.56-1.75
			c0.09-0.02,0.14-0.11,0.12-0.19l-0.37-1.59C208.48,265.9,208.39,265.85,208.31,265.87z"/>
		<path class="st32" d="M217.6,254.75l-1.74,0.41c-0.09,0.02-0.14,0.11-0.12,0.19l1.51,6.52l-6.66-5.43
			c-0.04-0.03-0.09-0.04-0.14-0.03l-1.64,0.38c-0.09,0.02-0.14,0.11-0.12,0.19l2.34,10.09c0.02,0.09,0.11,0.14,0.19,0.12l1.74-0.4
			c0.09-0.02,0.14-0.11,0.12-0.19l-1.56-6.72l6.87,5.59c0.04,0.03,0.09,0.04,0.14,0.03l1.49-0.34c0.09-0.02,0.14-0.11,0.12-0.19
			l-2.34-10.09C217.78,254.78,217.69,254.73,217.6,254.75z"/>
		<path class="st32" d="M184.06,258.08l-58.98,13.69c-0.14,0.03-0.23,0.17-0.19,0.31l4.29,18.48c0.03,0.14,0.17,0.22,0.31,0.19
			l58.98-13.69c0.14-0.03,0.23-0.17,0.19-0.31l-4.29-18.48C184.34,258.13,184.2,258.05,184.06,258.08z M182.95,260.19l3.59,15.47
			l-55.95,12.99L127,273.17L182.95,260.19z"/>
		<g>
			<path class="st32" d="M149.58,270.6l-7.51,1.74c-0.09,0.02-0.14,0.11-0.12,0.19l2.34,10.09c0.02,0.09,0.11,0.14,0.19,0.12
				l1.77-0.41c0.09-0.02,0.14-0.11,0.12-0.19l-0.92-3.95l4.93-1.15c0.09-0.02,0.14-0.11,0.12-0.19l-0.37-1.61
				c-0.02-0.09-0.11-0.14-0.19-0.12l-4.93,1.15l-0.57-2.44l5.58-1.3c0.09-0.02,0.14-0.11,0.12-0.19l-0.37-1.61
				C149.76,270.64,149.67,270.58,149.58,270.6z"/>
		</g>
		<g>
			<path class="st32" d="M159.54,268.29l-7.51,1.74c-0.09,0.02-0.14,0.11-0.12,0.19l2.34,10.09c0.02,0.09,0.11,0.14,0.19,0.12
				l1.77-0.41c0.09-0.02,0.14-0.11,0.12-0.19l-0.92-3.95l4.93-1.15c0.09-0.02,0.14-0.11,0.12-0.19l-0.37-1.61
				c-0.02-0.09-0.11-0.14-0.19-0.12l-4.93,1.15l-0.57-2.44l5.58-1.3c0.09-0.02,0.14-0.11,0.12-0.19l-0.37-1.61
				C159.71,268.33,159.63,268.27,159.54,268.29z"/>
		</g>
		<g>
			<path class="st32" d="M171.58,274.46l-5.63,1.31l-0.56-2.4l4.9-1.14c0.09-0.02,0.14-0.11,0.12-0.19l-0.37-1.59
				c-0.02-0.09-0.11-0.14-0.19-0.12l-4.9,1.14l-0.54-2.31l5.55-1.29c0.09-0.02,0.14-0.11,0.12-0.19l-0.37-1.59
				c-0.02-0.09-0.11-0.14-0.19-0.12l-7.48,1.74c-0.09,0.02-0.14,0.11-0.12,0.19l2.34,10.09c0.02,0.09,0.11,0.14,0.19,0.12l7.56-1.75
				c0.09-0.02,0.14-0.11,0.12-0.19l-0.37-1.59C171.75,274.5,171.66,274.44,171.58,274.46z"/>
		</g>
		<g>
			<path class="st32" d="M179.62,270.49c1.36-0.83,1.93-2.16,1.58-3.69c-0.48-2.07-2.28-3.01-4.68-2.45l-4.5,1.04
				c-0.09,0.02-0.14,0.11-0.12,0.19l2.34,10.09c0.02,0.09,0.11,0.14,0.19,0.12l1.77-0.41c0.09-0.02,0.14-0.11,0.12-0.19l-0.78-3.36
				l1.98-0.46l3.24,2.89c0.04,0.03,0.09,0.05,0.14,0.04l2.09-0.49c0,0,0,0,0,0c0.09-0.02,0.14-0.11,0.12-0.19
				c-0.01-0.04-0.04-0.08-0.07-0.1L179.62,270.49z M174.39,266.87l2.42-0.56c0.88-0.2,2-0.18,2.29,1.08
				c0.22,0.95-0.38,1.72-1.56,1.99l-2.44,0.57L174.39,266.87z"/>
		</g>
		<g>
			<path class="st32" d="M135.17,273.77c-2.96,0.69-4.65,3.52-3.94,6.59c0.71,3.06,3.46,4.85,6.41,4.16
				c2.96-0.69,4.65-3.52,3.94-6.59C140.87,274.87,138.11,273.08,135.17,273.77z M137.19,282.54c-1.79,0.42-3.49-0.75-3.95-2.72
				c-0.45-1.95,0.55-3.73,2.33-4.14c1.79-0.42,3.49,0.75,3.95,2.72C139.97,280.35,138.97,282.13,137.19,282.54z"/>
		</g>
	</g>
</g>
</svg>
