<svg data-name="Layer 1" xmlns="http://www.w3.org/2000/svg" viewBox="0 0 800 800">
  <path d="M507.26 456.12c3.29 10.68 4.06 22.15 4.36 33.76v5.52a126 126 0 0 1-3.45 27.39 3.24 3.24 0 0 1-3.15 2.49h-1.31a3.23 3.23 0 0 1-1.94.65h-8.72a3.19 3.19 0 0 1-1.78.54H336.44a3.25 3.25 0 0 1-1.79-.54h-10.92a3.25 3.25 0 0 1-3.16-2.49 126.4 126.4 0 0 1-3.48-29.56 125.12 125.12 0 0 1 7.07-41.74c-.54-4.55-1-8.83-1.45-12.67q-.1-.86-.18-1.68l-.06-.53a3.05 3.05 0 0 1 0-.74 9.32 9.32 0 0 1 9.07-8.2 9 9 0 0 1 3.41-.66h1.29c1.12-1.69 2.27-3.35 3.47-5 0-.06.06-.12.1-.18l.88-1.13c.52-.69 1.05-1.37 1.58-2.05s1-1.25 1.55-1.87c.38-.46.74-.93 1.12-1.37s.57-.64.85-1l.17-.19a101.57 101.57 0 0 1 12-11.47 44.35 44.35 0 0 1-5.95-8.95c-19.7-9.54-27.36-32-27.36-48.31a32.81 32.81 0 0 1 4.93-16.87q-1.31-5.79-2.14-11.8s0-.09 0-.13c0-.2-.05-.4-.07-.6s-.06-.47-.08-.71c-.54-4.16-.9-8.52-1.09-13-.07-1.66-.1-3.47-.1-5.7 0-2.75.06-5.27.2-7.66.07-1.6.18-3.25.33-5.07s.33-3.35.52-5l.1-.76c.07-.56.14-1.13.21-1.67.17-1.18.35-2.32.54-3.49.62-3.87 1.39-7.63 2.27-11.17.63-2.6 1.37-5.26 2.27-8.17.48-1.5.92-2.8 1.33-4 .73-2.12 1.53-4.21 2.37-6.28-29.95-18.5-45.37-45.52-45.85-80.42v-.09a3.53 3.53 0 0 1 .08-.72 4.56 4.56 0 0 1 .18-.52l.09-.17.07-.12a3.07 3.07 0 0 1 .42-.58l.08-.08a3 3 0 0 1 .59-.48h.05a3.46 3.46 0 0 1 .76-.34h.05a3.46 3.46 0 0 1 .84-.11 2.7 2.7 0 0 1 .49 0l.66.11a2.85 2.85 0 0 1 .38-.31h.05a3.46 3.46 0 0 1 .82-.23 3.4 3.4 0 0 1 .84-.11 2.7 2.7 0 0 1 .49 0c21.41 3.31 38.5 10.41 50.81 21.09a68.35 68.35 0 0 1 16.91 22.34 23.76 23.76 0 0 1 10.16-3.8c.38-.1.77-.2 1.16-.28q-2.58-3.91-5.35-7.62a3.22 3.22 0 0 1-.56-2.7 3.18 3.18 0 0 1 1.71-2.15c2.87-1.43 5.84-2.74 8.82-3.89 1.23-.47 2.46-.92 3.69-1.34-1.5-1.75-3-3.4-4.6-4.9.78-.34 1.57-.67 2.36-1l.3-.12a76.9 76.9 0 0 1 15.15-4.27c15.8-3.48 32.75-2.06 45.95 5.55a29.83 29.83 0 0 0-3.6 4 115.75 115.75 0 0 1 13.4 5.29 3.25 3.25 0 0 1 1.11 5q-3.09 3.65-5.87 7.58a23.78 23.78 0 0 1 15.12 6.38l.49.45.09.1a1.85 1.85 0 0 1 .14.14l.07.06.64.64a68.5 68.5 0 0 1 15.89-22.81c11.87-11.17 28.66-18.95 49.91-23.14h.3c1-.21 2-.43 3-.62a3.34 3.34 0 0 1 .62-.06 3.22 3.22 0 0 1 .76.09h.08a2.94 2.94 0 0 1 .69.28h.05a3.68 3.68 0 0 1 .59.45l.08.08a2.76 2.76 0 0 1 .45.56l.06.11a1 1 0 0 1 .1.17 3.66 3.66 0 0 1 .21.51 3.61 3.61 0 0 1 .12.72s0 .05 0 .08c1 36.61-14.81 65.21-46.94 85.07.2.53.4 1.06.59 1.6v.12c0 .05 0 .1.05.15.34 1 .65 1.93.94 2.82l.21.67q.25.81.48 1.56.81 2.68 1.52 5.41 1.27 4.94 2.19 10c.06.3.11.6.16.9.25 1.46.49 2.92.7 4.38l.06.36v.34a1.1 1.1 0 0 1 0 .18 146.47 146.47 0 0 1 1.38 20.18c0 1.42 0 2.61-.05 3.74 0 .89-.06 1.76-.1 2.54v1.3c-.05.8-.09 1.6-.15 2.43v.15c-.05.74-.11 1.48-.17 2.16-.12 1.52-.24 2.76-.37 3.86-.08.78-.17 1.56-.27 2.33l-.09.7c-.06.46-.12.93-.19 1.4l-.07.49c0 .38-.11.76-.17 1.13-.2 1.37-.44 2.81-.73 4.31a2.5 2.5 0 0 1-.05.29c-.3 1.63-.65 3.33-1 5.06a32.85 32.85 0 0 1 4.93 16.88c0 12.68-3.83 25.22-10.5 34.42-3.79 5.21-10.06 10.19-15.42 13.16 0 0 1.8 3.44.81 10.64.05.43 5.08 5.07 9.08 10.64 3 4.13 6.49 9.12 9.25 13.41.08.18 9.41 17.56 12.84 28.48Z" fill="#273d7d" opacity=".2"/>
  <path d="M89 448.89c12.87-9.89 26.59-13.15 39.86-16.31 13.11-3.12 25.49-6.06 36.66-15.15a4.46 4.46 0 0 1 3.12-1 4.48 4.48 0 0 1 3.86 2.95L185.06 455l2.29 6.48a4.43 4.43 0 0 1-1.48 5c-12.88 9.89-26.6 13.16-39.87 16.31-13.11 3.12-25.49 6.07-36.66 15.16a4.45 4.45 0 0 1-3.12 1 4.38 4.38 0 0 1-.88-.15 4.43 4.43 0 0 1-3-2.79l-14.46-41-.38-1.07a4.44 4.44 0 0 1 1.5-5.05Z" fill="#0b1236" opacity=".2"/>
  <path d="M151.47 414.38c-8.58 5.11-18 7.26-28.52 9.69l-3.34.77" fill="none" stroke="#090e40" stroke-linecap="round" stroke-linejoin="round" stroke-width="3"/>
  <path d="M101.6 493.62a1.52 1.52 0 0 1-.42-.06 1.49 1.49 0 0 1-1-.95l-14.51-42.17a1.5 1.5 0 0 1 .52-1.68c12.45-9.41 25.88-12.5 38.87-15.48 13.47-3.09 26.2-6 38-15.44a1.45 1.45 0 0 1 .93-.33 1.52 1.52 0 0 1 .42.06 1.51 1.51 0 0 1 1 .95l14.51 42.18a1.5 1.5 0 0 1-.52 1.68c-12.45 9.41-25.89 12.5-38.88 15.48-13.47 3.09-26.19 6-38 15.43a1.47 1.47 0 0 1-.92.33Z" fill="#83ce3a"/>
  <path d="m164 419 12.28 35.68 2.23 6.49c-24.68 18.65-53.07 11.89-76.87 30.94L87.46 451l-.37-1c24.68-18.69 53.07-11.93 76.91-31m0-3a3 3 0 0 0-1.87.66c-11.5 9.21-24.06 12.09-37.36 15.15S98 438 85.28 447.56a3 3 0 0 0-1 3.36l.37 1.07 14.11 41.11a3 3 0 0 0 2 1.91 3.46 3.46 0 0 0 .84.11 3 3 0 0 0 1.87-.65c11.5-9.21 24.06-12.1 37.36-15.15 13.14-3 26.74-6.14 39.45-15.74a3 3 0 0 0 1-3.37l-2.23-6.49L166.8 418a3 3 0 0 0-2-1.91 3 3 0 0 0-.8-.09Z" fill="#0b1236"/>
  <path d="m101.84 491.94-.24.18Zm67.91-32.76-12.27-35.65A59.63 59.63 0 0 0 164 419l12.28 35.68 2.23 6.49a64.36 64.36 0 0 1-6.55 4.33Z" opacity=".3" fill="#fff"/>
  <path d="m93.52 445.4.85 1.65 13.91 40.43a61.26 61.26 0 0 0-6.68 4.64L87.46 451l-.37-1c3.37-2.54 6.32-5.18 9.81-6.91-1.14.69-2.26 1.47-3.38 2.31Z" fill="#75b234"/>
  <path d="M106.2 478.85c18.88-12.15 43-9.13 61.85-21.27l-8.69-25.29c-18.88 12.15-43 9.13-61.85 21.28Z" fill="#83ce3a"/>
  <path d="M109.39 477c17.61-9.57 39-8.06 56.47-18a3.1 3.1 0 0 0 1.39-3.68l-6.67-19.38a3.08 3.08 0 0 0-4.41-1.67c-17.61 9.57-39 8.06-56.47 18.05a3.1 3.1 0 0 0-1.39 3.68l6.69 19.29a3.07 3.07 0 0 0 4.39 1.71Z" fill="#75b234" stroke="#090e40" stroke-miterlimit="10" stroke-width="3"/>
  <circle cx="132.78" cy="455.57" r="7.86" fill="#bdef84" stroke="#0b1236" stroke-linecap="round" stroke-linejoin="round" stroke-width="3"/>
  <path d="M125.35 458.13a7.86 7.86 0 0 1 4.87-10 8 8 0 0 1 2.71-.42 7.85 7.85 0 0 0 4.6 14.11 7.86 7.86 0 0 1-12.18-3.7Z" fill="#0b1236" opacity=".2"/>
  <circle cx="104.52" cy="456.34" r="1.83" fill="#0b1236"/>
  <circle cx="161.06" cy="455.92" r="1.83" fill="#0b1236"/>
  <circle cx="114.17" cy="426.31" r="1.83" fill="#090e40"/>
  <path d="M562.38 510.78a6.44 6.44 0 1 1 5.44-3 6.4 6.4 0 0 1-5.44 3Z" fill="#0b1236" opacity=".4"/>
  <path d="M562.39 499.42a4.93 4.93 0 1 1 0 9.86 4.93 4.93 0 0 1 0-9.86m0-3a7.92 7.92 0 1 0 4.23 1.22 7.88 7.88 0 0 0-4.23-1.22Z" fill="#0b1236"/>
  <path d="m571.59 489.4-71.23 36.49-3.67-7 5.66-3L554 488.75a17.66 17.66 0 0 1 17.59.65Z" fill="#fff" opacity=".2"/>
  <path fill="#2f96f4" stroke="#0b1236" stroke-linecap="round" stroke-linejoin="round" stroke-width="3" d="M91.41 595.08h644.46"/>
  <path d="M735.39 596.26c0 17.69-144.66 32-323.11 32S89.2 614 89.2 596.26a3.88 3.88 0 0 1 .88-2.37H734.5a3.83 3.83 0 0 1 .89 2.37Z" fill="#273d7d" opacity=".2"/>
  <path d="M312.74 565.1a1.48 1.48 0 0 1-1.46-1.19c-2.35-11.18-3.58-41.48-3.58-54.6 0-73.3 45.13-132.93 100.6-132.93S508.9 436 508.9 509.31c0 12.56-2.06 43.15-4.41 54.34a1.5 1.5 0 0 1-1.47 1.19Z" fill="#2f96f4"/>
  <path d="M408.3 377.88c54.73 0 99.1 58.84 99.1 131.43 0 12.26-2 42.78-4.38 54l-190.27.26c-2.37-11.25-3.55-42-3.55-54.29 0-72.59 44.37-131.43 99.1-131.43m0-3c-27.43 0-53.17 14.09-72.47 39.69-19.11 25.34-29.63 59-29.63 94.74 0 13.17 1.24 43.63 3.61 54.91a3 3 0 0 0 2.94 2.38l190.25-.23a3 3 0 0 0 3-2.34c2.37-11.27 4.44-42 4.44-54.65 0-35.75-10.52-69.4-29.63-94.74-19.3-25.6-45-39.69-72.47-39.69Z" fill="#0b1236"/>
  <path fill="#8c58c4" stroke="#0b1236" stroke-linecap="round" stroke-linejoin="round" stroke-width="3" d="m395.26 459.71-1.88 6.12-5.47 17.74 21.68 22.19 21.81-22.19-5.47-17.74-1.88-6.12-7.42-24.06h-13.95l-7.42 24.06"/>
  <path fill="#8c58c4" stroke="#0b1236" stroke-linecap="round" stroke-linejoin="round" stroke-width="3" d="m409.06 417.29 18.6 9.83-11.03 8.54h-13.95l-12.21-8.64 18.59-9.73"/>
  <ellipse cx="412.35" cy="443.84" rx="2" ry="1.73" fill="#0b1236"/>
  <path d="M434.76 437.15a1.51 1.51 0 0 1-.95-.34l-17.38-14.4-4.52-.77a1.5 1.5 0 0 1-1.1-.8l-1.8-3.47a1.51 1.51 0 0 1 .63-2l53.88-28.56a1.46 1.46 0 0 1 .7-.18 1.51 1.51 0 0 1 .72.18c7.27 4 7.54 16.74 5.38 20.73-6 11.18-20.09 23-35 29.5a1.57 1.57 0 0 1-.56.11Z" fill="#fff"/>
  <path d="M464.22 388.12c6.37 3.47 6.7 15.15 4.78 18.7-5.66 10.47-19.27 22.33-34.24 28.83L417.08 421l-4.78-.82h-.16l-1.79-3.47 53.87-28.56m0-3a3 3 0 0 0-1.4.35L408.94 414a3 3 0 0 0-1.26 4l1.79 3.47a3 3 0 0 0 2.21 1.59h.14l4 .68L432.85 438a3 3 0 0 0 3.11.44c15.15-6.58 29.49-18.7 35.68-30.16 2.43-4.49 2.18-18.31-6-22.75a2.94 2.94 0 0 0-1.44-.37Z" fill="#0b1236"/>
  <path d="M382.35 436.26a1.57 1.57 0 0 1-.6-.12c-15.67-6.81-28-19.51-33.74-28.32-1.56-2.38-1.87-7.4-.73-11.93 1.05-4.19 3.2-7.35 6.05-8.91a1.54 1.54 0 0 1 .72-.18 1.46 1.46 0 0 1 .7.18l53.88 28.56a1.49 1.49 0 0 1 .63 2l-1.8 3.47a1.48 1.48 0 0 1-1.09.8l-4.58.78L383.23 436a1.49 1.49 0 0 1-.88.26Z" fill="#fff"/>
  <path d="m354.05 388.3 53.88 28.56-1.8 3.47h-.16l-4.78.82-18.84 13.58c-15-6.5-27.12-18.67-33.08-27.76-2.24-3.41-1.59-15.23 4.78-18.7m0-3a2.9 2.9 0 0 0-1.43.37c-3.23 1.75-5.64 5.25-6.79 9.86-1.25 5-.87 10.37.93 13.11 5.88 9 18.42 21.93 34.39 28.87a3 3 0 0 0 3-.31L402.38 424l4.1-.7h.11a3 3 0 0 0 2.21-1.59l1.79-3.47a3 3 0 0 0-1.26-4l-53.87-28.56a3.06 3.06 0 0 0-1.41-.35Z" fill="#0b1236"/>
  <path fill="#fff" stroke="#0b1236" stroke-linecap="round" stroke-linejoin="round" stroke-width="3" d="m414.03 449.25 8.67 28.94"/>
  <path d="M408.66 422.38c-33.72 0-61.15-20.71-61.15-46.16s27.43-46.16 61.15-46.16 61.14 20.71 61.14 46.16-27.43 46.16-61.14 46.16Z" fill="#273d7d"/>
  <path d="M408.66 331.56c32.94 0 59.64 20 59.64 44.66s-26.7 44.66-59.64 44.66-59.66-20-59.66-44.66 26.7-44.66 59.65-44.66m0-3c-16.58 0-32.2 4.86-44 13.68-12 9-18.67 21.08-18.67 34s6.63 25 18.67 34c11.78 8.82 27.4 13.68 44 13.68s32.19-4.86 44-13.68c12-9 18.67-21.08 18.67-34s-6.63-25-18.67-34c-11.78-8.82-27.4-13.68-44-13.68Z" fill="#090e40"/>
  <ellipse cx="408.66" cy="364.22" rx="61.15" ry="46.16" fill="#273d7d" opacity=".5"/>
  <path d="M408.66 319.56c32.94 0 59.64 20 59.64 44.66s-26.7 44.66-59.64 44.66-59.66-20-59.66-44.66 26.7-44.66 59.65-44.66m0-3c-16.58 0-32.2 4.86-44 13.68-12 9-18.67 21.08-18.67 34s6.63 25 18.67 34c11.78 8.82 27.4 13.68 44 13.68s32.19-4.86 44-13.68c12-9 18.67-21.09 18.67-34s-6.63-25-18.67-34c-11.78-8.82-27.4-13.68-44-13.68Z" fill="#090e40"/>
  <path d="M408.68 410.41a75.93 75.93 0 0 1-15.76-1.59c-.31-.06-.63-.13-1-.22-1.48-.34-3-.75-4.49-1.21-10.75-3.4-16.91-9-16.91-15.28a1.73 1.73 0 0 1 1.25-1.66 131.65 131.65 0 0 1 73.75 0 1.73 1.73 0 0 1 1.25 1.66c0 6.31-6.16 11.87-16.89 15.26-1.36.44-2.89.86-4.53 1.24-.32.08-.64.14-1 .21a75.37 75.37 0 0 1-15.67 1.59Z" fill="#242f5b"/>
  <path d="M408.67 386.91a131.39 131.39 0 0 1 36.39 5.21c0 5.64-6.2 10.61-15.68 13.6-1.38.45-2.87.85-4.4 1.21l-.93.2a76.6 76.6 0 0 1-30.76 0l-.94-.2c-1.53-.36-3-.76-4.4-1.19-9.47-3-15.69-8-15.69-13.62a131.53 131.53 0 0 1 36.41-5.21m0-3.45a135.69 135.69 0 0 0-37.36 5.34 3.44 3.44 0 0 0-2.5 3.32c0 7.11 6.6 13.28 18.1 16.91 1.57.48 3.13.9 4.66 1.26.32.08.66.15 1 .22a80.13 80.13 0 0 0 32.16 0c.36-.07.7-.14 1.05-.23 1.64-.38 3.21-.81 4.64-1.27 11.48-3.62 18.07-9.78 18.07-16.89a3.44 3.44 0 0 0-2.5-3.32 135.49 135.49 0 0 0-37.32-5.34Z" fill="#090e40"/>
  <path d="M408.66 331.56a79.73 79.73 0 0 0-9 .5c28.7 3.23 55.25 21.77 55.25 44.16s-26.55 40.92-55.25 44.16a79.73 79.73 0 0 0 9 .5c32.94 0 59.64-20 59.64-44.66s-26.7-44.66-59.64-44.66Z" fill="#242f5b"/>
  <path d="M341.7 246.59a1.51 1.51 0 0 1-.72-.18c-32.94-18-49.89-45.47-50.39-81.58a1.49 1.49 0 0 1 1.5-1.52 1.53 1.53 0 0 1 .69.17c29.88 15.58 59.23 37.5 50.39 81.91a1.51 1.51 0 0 1-.84 1.06 1.41 1.41 0 0 1-.63.14Z" fill="#fff"/>
  <path d="M292.09 164.81c32.81 17.11 57.86 38.82 49.61 80.28-32-17.5-49.11-43.92-49.61-80.28m0-3a3 3 0 0 0-3 3c.5 36.69 17.72 64.58 51.17 82.88a3 3 0 0 0 4.38-2c9-45.38-20.79-67.69-51.16-83.53a3 3 0 0 0-1.39-.34Z" fill="#090e40"/>
  <path d="M303.5 171.19c-3.66-2.21-7.48-4.33-11.41-6.38.5 36.36 17.61 62.78 49.61 80.28a82.74 82.74 0 0 0 1.39-10.32c-22.97-15.35-36.45-36.37-39.59-63.58Z" fill="#c2c3cc"/>
  <path d="M341.7 246.59a1.45 1.45 0 0 1-.7-.17 1.48 1.48 0 0 1-.8-1.29c-.72-27.11-16.31-52.26-49.06-79.16a1.5 1.5 0 0 1 .95-2.66.93.93 0 0 1 .23 0c43.8 6.79 67.73 28.77 73.13 67.2a1.51 1.51 0 0 1-.67 1.47l-22.27 14.35a1.5 1.5 0 0 1-.81.26Z" fill="#273d7d"/>
  <path d="M292.09 164.81c39.69 6.15 66.2 25.57 71.87 65.93l-22.26 14.35c-.83-31.09-21.06-56.83-49.61-80.28m0-3a3 3 0 0 0-1.91 5.32c32.39 26.6 47.81 51.4 48.52 78a3 3 0 0 0 3 2.92 3 3 0 0 0 1.62-.47l22.27-14.36a3 3 0 0 0 1.34-2.94c-2.83-20.15-11-36.17-24.18-47.64-12.16-10.54-29.05-17.56-50.2-20.84h-.46Z" fill="#090e40"/>
  <path d="M292.09 164.81c3.08 2.53 6.07 5.1 8.94 7.69 30.69 8.65 50.89 27.85 55.76 62.46l-15.11 9.74v.39L364 230.74c-5.71-40.36-32.22-59.74-71.91-65.93Z" fill="#242f5b"/>
  <path d="M334.65 189.13c9.11 8.26 15.28 18.9 18.62 32" fill="none" stroke="#090e40" stroke-linecap="round" stroke-linejoin="round" stroke-width="3"/>
  <circle cx="312.46" cy="201.06" r="1.84" fill="#090e40"/>
  <circle cx="330.93" cy="186.15" r="1.84" fill="#090e40"/>
  <path d="M481.72 248.55a1.47 1.47 0 0 1-.58-.12 1.49 1.49 0 0 1-.88-1c-10.64-44 17.79-67.1 47-83.89a1.53 1.53 0 0 1 .75-.2 1.45 1.45 0 0 1 .73.19 1.5 1.5 0 0 1 .77 1.27c1 36.1-14.85 64.22-47 83.56a1.5 1.5 0 0 1-.79.19Z" fill="#fff"/>
  <path d="M528 164.81c1 36.35-15 63.44-46.3 82.24-9.94-41.09 14.21-63.81 46.3-82.24m0-3a2.92 2.92 0 0 0-1.49.4c-29.71 17.06-58.6 40.57-47.73 85.54a3 3 0 0 0 1.76 2.06 2.94 2.94 0 0 0 1.16.24 3.07 3.07 0 0 0 1.55-.43C515.94 230 532 201.41 531 164.73a3 3 0 0 0-1.53-2.54 3.07 3.07 0 0 0-1.47-.38Z" fill="#090e40"/>
  <path d="M514.67 173.13c-2.12 26.16-14 47-34.85 63a81 81 0 0 0 1.9 11C513 228.25 529 201.16 528 164.81c-4.62 2.67-9.09 5.43-13.33 8.32Z" fill="#c2c3cc"/>
  <path d="M481.72 248.55a1.48 1.48 0 0 1-.76-.21l-22.83-13.44a1.48 1.48 0 0 1-.73-1.44c3.83-38.61 26.84-61.55 70.33-70.12a1.43 1.43 0 0 1 .29 0 1.48 1.48 0 0 1 1.34.83 1.51 1.51 0 0 1-.34 1.79c-31.63 28.21-46.18 54-45.8 81.09a1.49 1.49 0 0 1-.75 1.32 1.44 1.44 0 0 1-.75.18Z" fill="#273d7d"/>
  <path d="M528 164.81c-27.58 24.59-46.74 51.14-46.3 82.24l-22.83-13.44c4-40.56 29.72-61 69.13-68.8m0-3a2.86 2.86 0 0 0-.58.06c-21 4.13-37.59 11.83-49.31 22.86-12.74 12-20.22 28.34-22.23 48.58a3 3 0 0 0 1.47 2.89l22.83 13.43a3 3 0 0 0 1.52.42 3 3 0 0 0 1.51-.41 3 3 0 0 0 1.49-2.64c-.38-26.65 14-52.05 45.3-79.95a3 3 0 0 0-2-5.24Zm0 6Z" fill="#090e40"/>
  <path d="M528 164.81q-6.42 5.73-12.19 11.61c-26.81 10.52-43.86 30.1-47.07 62.5l13 7.64v.44l-22.86-13.4c4.04-40.54 29.73-61.03 69.12-68.79Z" fill="#242f5b"/>
  <circle cx="495.29" cy="186.76" r="1.84" fill="#090e40"/>
  <circle cx="501.09" cy="214.11" r="1.84" fill="#090e40"/>
  <path d="M490.09 190.59q-13.66 12.38-18.62 32" fill="none" stroke="#090e40" stroke-linecap="round" stroke-linejoin="round" stroke-width="3"/>
  <path d="M359.63 384.87a1.51 1.51 0 0 1-1.07-.44c-.28-.28-.57-.59-.84-.89-10.86-11.24-19.5-26-25-42.75a136.7 136.7 0 0 1-5.49-23.94c0-.27 0-.48-.08-.69s-.06-.48-.08-.71c-.52-4.05-.88-8.34-1.06-12.7-.07-1.62-.1-3.39-.1-5.57 0-2.7.06-5.16.19-7.52.07-1.54.18-3.15.33-4.92s.32-3.3.51-4.88l.09-.74c.07-.56.13-1.12.21-1.67.16-1.14.34-2.28.52-3.4.61-3.79 1.36-7.47 2.23-10.94.62-2.54 1.34-5.14 2.21-8 .42-1.33.85-2.63 1.3-3.91a117.91 117.91 0 0 1 12.77-26.14c1.51-2.29 3.18-4.62 5-6.93 1.16-1.49 2.36-2.93 3.55-4.28 1.85-2.1 3.77-4.09 5.7-5.93a22.22 22.22 0 0 1 16.21-6.29 38.59 38.59 0 0 1 4.28.26c2.12.24 9.1.5 18.22.68 6.74.13 13.45.2 18.9.2 8.14 0 13.67-.14 15.18-.4a42.5 42.5 0 0 1 7.43-.73 21.91 21.91 0 0 1 15.67 6c.11.1.27.24.41.39l.37.37c1.09 1 2.21 2.16 3.42 3.44s2.35 2.62 3.64 4.14c1.75 2.1 3.46 4.35 5.09 6.69l.09.13c.45.66.91 1.33 1.35 2l.19.28c1.95 3 3.78 6 5.42 9.15 1.1 2.09 2.18 4.3 3.21 6.56.5 1.13 1 2.26 1.48 3.42.92 2.22 1.81 4.55 2.64 6.93v.12c.69 2 1.26 3.76 1.74 5.39A136.55 136.55 0 0 1 490 277s.06.39.07.43a145.13 145.13 0 0 1 1.35 19.77c0 1.24 0 2.47-.05 3.69 0 .85-.05 1.69-.1 2.51v1.16c-.05.8-.09 1.6-.15 2.42v.27c0 .68-.1 1.37-.16 2-.12 1.46-.24 2.66-.37 3.76-.07.74-.15 1.5-.26 2.26l-.08.69c-.06.45-.12.9-.19 1.36l-.07.49c-.05.38-.11.75-.17 1.12-.19 1.3-.42 2.71-.7 4.14v.11a1.86 1.86 0 0 1-.05.27c-.5 2.77-1.16 5.78-1.94 8.88l-.21.78c-.29 1.11-.58 2.21-.9 3.31-.18.66-.39 1.34-.6 2l-.05.17-.51 1.65c0 .1-.07.21-.11.31-.37 1.13-.75 2.22-1.13 3.3-.2.6-.43 1.22-.66 1.83-.5 1.33-1 2.67-1.56 4a119.82 119.82 0 0 1-5.2 11l-.08.17c-.48.87-1 1.73-1.45 2.59a2 2 0 0 1-.18.32l-.24.41c-.4.67-.79 1.34-1.2 2-.49.82-1 1.64-1.54 2.44a1.59 1.59 0 0 1-.18.27c-.46.73-.95 1.44-1.44 2.15 0 .09-.12.19-.19.3l-1.23 1.75c-.61.83-1.2 1.61-1.8 2.39l-.19.25c-.18.24-.36.47-.56.71l-.5.62c-.32.41-.65.82-1 1.22l-.13.16-1.79 2.08a.29.29 0 0 1-.07.08c-.62.7-1.27 1.4-1.91 2.09a1.48 1.48 0 0 1-1.1.48h-92.93a14.59 14.59 0 0 0-3.14.4 13.85 13.85 0 0 0-1.59.48 14.7 14.7 0 0 0-1.43.63 1.46 1.46 0 0 1-.7.2Z" fill="#f0f0f0"/>
  <path d="M376.75 203.18a36.27 36.27 0 0 1 4.12.25c2.3.26 9.74.52 18.35.69 6.19.12 13 .21 18.93.21 7.51 0 13.65-.13 15.43-.43a41.67 41.67 0 0 1 7.18-.71 20.54 20.54 0 0 1 14.65 5.57c.12.1.25.22.37.34l.12.11a2.47 2.47 0 0 0 .28.28c1.14 1.09 2.26 2.23 3.35 3.39 1.23 1.33 2.41 2.68 3.59 4.08 1.74 2.09 3.41 4.29 5 6.57.49.71 1 1.44 1.46 2.17a1 1 0 0 1 .11.17q2.88 4.37 5.39 9.08c1.11 2.1 2.16 4.26 3.17 6.47.49 1.1 1 2.22 1.45 3.37q1.41 3.39 2.63 6.92c.6 1.75 1.18 3.52 1.71 5.32a136.39 136.39 0 0 1 4.39 20.12v.35a141.78 141.78 0 0 1 1.35 19.63c0 1.22 0 2.44-.05 3.65 0 .83-.05 1.65-.1 2.46v1.15c-.05.8-.09 1.59-.15 2.4s-.11 1.53-.18 2.27c-.1 1.26-.21 2.5-.36 3.72-.07.75-.15 1.49-.25 2.24s-.17 1.35-.27 2c-.08.53-.15 1.06-.24 1.57-.2 1.38-.43 2.77-.69 4.13a2.44 2.44 0 0 1-.06.31c-.55 3-1.21 6-1.93 8.86-.36 1.34-.71 2.69-1.1 4-.19.7-.4 1.39-.62 2.07s-.36 1.18-.55 1.77a1.9 1.9 0 0 1-.1.28c-.35 1.1-.72 2.18-1.1 3.25-.21.6-.43 1.2-.65 1.79-.5 1.32-1 2.63-1.55 3.93a112.49 112.49 0 0 1-5.21 11c-.49.9-1 1.78-1.49 2.66a.53.53 0 0 1-.06.14c-.5.83-1 1.65-1.48 2.47s-1 1.65-1.56 2.46a.47.47 0 0 1-.1.16c-.48.76-1 1.5-1.51 2.25a2.11 2.11 0 0 1-.18.27l-1.19 1.69c-.58.8-1.16 1.57-1.75 2.34-.24.3-.46.61-.71.9-.51.64-1 1.29-1.54 1.91-.6.72-1.21 1.42-1.81 2.12-.63.7-1.27 1.39-1.91 2.08h-92.94a16.53 16.53 0 0 0-3.39.44 15.68 15.68 0 0 0-1.76.53 14.79 14.79 0 0 0-1.61.72c-.27-.27-.54-.56-.8-.84-10.65-11-19.19-25.51-24.64-42.21a134.12 134.12 0 0 1-5.43-23.67c-.05-.46-.12-.9-.16-1.35-.53-4.12-.87-8.34-1.05-12.61-.08-1.83-.1-3.66-.1-5.51 0-2.5.05-5 .19-7.43.07-1.64.19-3.27.32-4.89s.31-3.22.5-4.82c.11-.8.2-1.59.31-2.38.15-1.14.33-2.26.51-3.38.6-3.68 1.32-7.28 2.21-10.81.65-2.68 1.39-5.3 2.18-7.87.42-1.3.84-2.58 1.29-3.84a116.06 116.06 0 0 1 12.61-25.83c1.55-2.36 3.2-4.64 4.9-6.83 1.13-1.44 2.31-2.86 3.49-4.21 1.81-2 3.68-4 5.61-5.83a20.92 20.92 0 0 1 15.18-5.88m0-3a23.94 23.94 0 0 0-17.24 6.71c-2 1.86-3.92 3.89-5.8 6-1.2 1.37-2.42 2.83-3.6 4.34-1.82 2.35-3.52 4.71-5.05 7a119.52 119.52 0 0 0-12.94 26.49c-.4 1.15-.83 2.44-1.31 3.92-.88 2.87-1.61 5.5-2.24 8.08-.87 3.49-1.63 7.21-2.25 11-.18 1.15-.36 2.28-.53 3.44-.07.54-.14 1.1-.21 1.66l-.09.75c-.19 1.62-.37 3.27-.52 4.93s-.25 3.43-.33 5c-.13 2.37-.19 4.86-.19 7.58 0 2.2 0 4 .1 5.64.18 4.39.54 8.7 1.07 12.82 0 .24.05.47.08.7s.05.4.07.6v.12a138.78 138.78 0 0 0 5.56 24.2c5.52 16.91 14.27 31.89 25.3 43.32.28.31.57.62.86.91a3 3 0 0 0 2.13.88A3 3 0 0 0 361 386a11.61 11.61 0 0 1 1.27-.57 12.47 12.47 0 0 1 1.39-.41 12.8 12.8 0 0 1 2.75-.36h92.87a3 3 0 0 0 2.2-1c.65-.69 1.3-1.41 1.94-2.12l.08-.09c.61-.71 1.23-1.42 1.84-2.15a1.58 1.58 0 0 0 .12-.15l1-1.21.49-.61c.21-.25.4-.5.59-.76l.18-.22c.65-.86 1.24-1.64 1.8-2.4v-.06l.58-.83.6-.86.05-.06.19-.29c.49-.7 1-1.42 1.45-2.15.08-.12.16-.23.23-.36.53-.8 1.05-1.63 1.54-2.45s.84-1.39 1.26-2.1l.2-.34a2.71 2.71 0 0 0 .21-.37c.48-.85.95-1.69 1.42-2.55a2.1 2.1 0 0 0 .13-.26 118.87 118.87 0 0 0 5.23-11.08c.54-1.32 1.07-2.67 1.58-4 .2-.54.45-1.21.68-1.88.4-1.14.76-2.2 1.09-3.21a4 4 0 0 0 .15-.43q.29-.87.54-1.74c.21-.68.43-1.39.64-2.13.32-1.11.62-2.23.9-3.31l.21-.76c.79-3.15 1.45-6.18 2-9.05 0-.09 0-.18.05-.28a.15.15 0 0 1 0-.06c.27-1.43.51-2.85.71-4.21.06-.36.11-.74.17-1.11l.07-.48.18-1.39.09-.69c.11-.79.19-1.56.27-2.32.13-1.07.24-2.29.36-3.8.06-.67.12-1.41.17-2.13v-.16c.06-.82.11-1.61.15-2.41v-1.27c0-.77.09-1.63.1-2.51 0-1.12.05-2.3.05-3.7a146.43 146.43 0 0 0-1.36-20v-.17.01-.23a137.74 137.74 0 0 0-4.41-20.55c-.48-1.63-1.05-3.42-1.75-5.44l-.06-.17c-.84-2.39-1.73-4.73-2.66-7-.5-1.22-1-2.42-1.49-3.44-1-2.3-2.13-4.53-3.25-6.65-1.66-3.14-3.5-6.24-5.48-9.24a2.92 2.92 0 0 0-.31-.28c-.41-.62-.83-1.24-1.24-1.84l-.17-.26c-1.69-2.41-3.43-4.69-5.2-6.81-1.3-1.55-2.5-2.92-3.68-4.19s-2.38-2.47-3.49-3.53h-.05a2.27 2.27 0 0 0-.22-.22l-.09-.1-.47-.44a23.66 23.66 0 0 0-16.66-6.33 44.66 44.66 0 0 0-7.7.75c-.51.09-3.14.39-14.91.39-5.4 0-12.11-.08-18.87-.21-9.08-.18-16-.44-18.08-.67a39.25 39.25 0 0 0-4.45-.27Z" fill="#090e40"/>
  <path d="M380.87 203.44a78.67 78.67 0 0 0-6.6 5.63 95.49 95.49 0 0 0-14 16.87 116.61 116.61 0 0 0-12.63 25.81 133 133 0 0 0-6.16 25.92 140.21 140.21 0 0 0-1.33 19.52c0 1.85 0 3.69.1 5.5.17 4.27.51 8.49 1.05 12.61.05.45.11.89.16 1.34a135 135 0 0 0 5.43 23.69c5.32 16.27 13.57 30.41 23.85 41.34h-3.82a18.23 18.23 0 0 0-2 .11h-.05a14.83 14.83 0 0 0-3.64.85c-.56.22-1.11.46-1.62.72-.27-.26-.53-.56-.79-.84-10.65-11-19.19-25.51-24.64-42.2a135 135 0 0 1-5.43-23.69c-.05-.45-.11-.89-.16-1.34-.53-4.12-.88-8.34-1.05-12.61-.07-1.81-.1-3.65-.1-5.5q0-3.75.19-7.44c.08-1.64.19-3.26.32-4.89s.31-3.22.5-4.82c.1-.8.21-1.58.32-2.37.16-1.13.32-2.26.5-3.39q.9-5.52 2.2-10.81c.65-2.68 1.39-5.3 2.2-7.87.41-1.29.84-2.58 1.27-3.85a116.15 116.15 0 0 1 12.62-25.81c1.56-2.37 3.2-4.65 4.9-6.83q1.71-2.19 3.5-4.22c1.8-2 3.66-4 5.6-5.82 5.87-5.53 12.37-6.4 19.31-5.61Z" fill="#fff"/>
  <path d="M346.85 382.92a18.46 18.46 0 0 1 8-1.72h-9.74c.59.57 1.15 1.17 1.74 1.72Zm84.23-181.84c2.16 1.63 4.25 3.4 6.28 5.27 5.34 4.93 9.05 10.63 13.34 17 5.33 7.82 10.93 16.63 14.35 26.18a131.2 131.2 0 0 1 6.36 25.78 2.16 2.16 0 0 1 .06.38 142 142 0 0 1 1.4 19.88c0 2.48-.06 4.94-.2 7.38a138.22 138.22 0 0 1-2.27 18.91c-4.53 23.77-15 44.48-29.36 59.3h16.86c.68-.68 1.34-1.4 2-2.11v-.06c.64-.7 1.27-1.41 1.89-2.14.55-.64 1.08-1.28 1.61-1.93.25-.3.5-.61.74-.92.62-.78 1.23-1.56 1.82-2.37.42-.57.84-1.14 1.25-1.72l.19-.27c.53-.75 1.06-1.51 1.57-2.28a.54.54 0 0 0 .1-.16c.56-.82 1.11-1.66 1.63-2.49s1-1.66 1.53-2.51a.5.5 0 0 0 .08-.14c.52-.89 1-1.78 1.55-2.68a118.64 118.64 0 0 0 5.43-11.15c.55-1.31 1.09-2.65 1.61-4 .23-.6.45-1.2.67-1.81.39-1.09.79-2.19 1.15-3.31.23-.68.46-1.37.68-2.07s.44-1.39.64-2.1c.41-1.34.78-2.71 1.15-4.08.76-2.93 1.44-5.92 2-9 0-.11 0-.22.07-.32.26-1.38.5-2.78.72-4.18.09-.53.16-1.06.24-1.6s.19-1.37.28-2.06.19-1.51.27-2.27c.15-1.24.26-2.49.38-3.76.06-.76.12-1.54.17-2.31s.11-1.6.14-2.41c0-.39 0-.78.05-1.18.06-.82.09-1.65.11-2.49 0-1.23.05-2.46.05-3.7a142 142 0 0 0-1.4-19.88c0-.13 0-.24-.06-.36a134.7 134.7 0 0 0-4.5-20.34c-.56-1.83-1.15-3.63-1.79-5.4-.85-2.39-1.78-4.74-2.75-7-.5-1.16-1-2.29-1.53-3.41q-1.56-3.36-3.3-6.55c-1.73-3.2-3.61-6.26-5.6-9.2-.55-.8-1.09-1.6-1.64-2.36-1.68-2.32-3.41-4.55-5.23-6.67-1.22-1.42-2.46-2.79-3.73-4.13a21.66 21.66 0 0 0-3.86-3.59c-5.28-3.51-10.23-4.22-23.2-5.61Z" fill="#c2c3cc"/>
  <path d="M415.54 260.21c0 20.34-5.19 36.3-6.87 36.81s-6.87-16.47-6.87-36.81c0-8.24.5-18.78 1.37-28.41 3.6.13 7.57.21 11 .21.83 9.56 1.37 19.99 1.37 28.2Z" fill="#273d7d" stroke="#090e40" stroke-linecap="round" stroke-linejoin="round" stroke-width="3"/>
  <path d="M329.23 279.17a1.5 1.5 0 0 1-1.49-1.7 135.88 135.88 0 0 1 6.26-26.22 1.52 1.52 0 0 1 1.31-1c1-.07 2-.11 3-.11 12 0 23.27 5.12 28.93 8.17a3.39 3.39 0 0 1 1.73 3.61 3.31 3.31 0 0 1-2.75 2.79c-18 2.89-29.53 9.3-36.06 14.16a1.47 1.47 0 0 1-.93.3Z" fill="#5a5c5f"/>
  <path d="M338.27 251.65c11.42 0 22.25 4.76 28.22 8a2 2 0 0 1-.54 3.6c-18.59 3-30.41 9.73-36.72 14.44a133.68 133.68 0 0 1 6.17-25.92c1-.07 1.92-.1 2.87-.1m0-3c-1 0-2.08 0-3.09.11a3 3 0 0 0-2.61 2 136.77 136.77 0 0 0-6.32 26.5 3 3 0 0 0 4.77 2.82c6.39-4.77 17.73-11 35.4-13.89a4.8 4.8 0 0 0 4-4 4.93 4.93 0 0 0-2.5-5.18c-5.78-3.12-17.33-8.34-29.64-8.34Z" fill="#090e40"/>
  <path d="M348 227.44a1.5 1.5 0 0 1-1.25-2.33A97.29 97.29 0 0 1 361 208a1.51 1.51 0 0 1 1-.41 1.56 1.56 0 0 1 .48.08 41.21 41.21 0 0 1 15.08 9 4 4 0 0 1 .95 4.41 3.73 3.73 0 0 1-3.5 2.44h-1.88a77.89 77.89 0 0 0-24.66 3.89 1.5 1.5 0 0 1-.47.03Z" fill="#5a5c5f"/>
  <path d="M362 209.07a39.39 39.39 0 0 1 14.53 8.66A2.46 2.46 0 0 1 375 222h-1.82a79.21 79.21 0 0 0-25.13 4 95.49 95.49 0 0 1 14-16.87m0-3a3 3 0 0 0-2.06.82 99.22 99.22 0 0 0-14.45 17.4 3 3 0 0 0 2.51 4.65 2.83 2.83 0 0 0 1-.16 76.29 76.29 0 0 1 24.1-3.84H375a5.28 5.28 0 0 0 4.9-3.38 5.51 5.51 0 0 0-1.32-6.06 42.68 42.68 0 0 0-15.58-9.33 2.89 2.89 0 0 0-1-.16Z" fill="#090e40"/>
  <path d="M488.46 278.69a1.46 1.46 0 0 1-.87-.28c-6.48-4.69-17.89-10.87-35.44-13.7a3.31 3.31 0 0 1-2.74-2.79 3.39 3.39 0 0 1 1.73-3.61c5.67-3.05 17-8.16 28.92-8.16.8 0 1.6 0 2.38.07a1.49 1.49 0 0 1 1.28.89l.06.15A135.11 135.11 0 0 1 490 277a1.52 1.52 0 0 1-.71 1.5 1.55 1.55 0 0 1-.83.19Z" fill="#273d7d"/>
  <path d="M480.06 251.65c.76 0 1.52 0 2.29.07a133 133 0 0 1 6.1 25.44c-6.46-4.67-18.1-11.06-36.07-14a2 2 0 0 1-.55-3.6c6-3.21 16.8-8 28.22-8m0-3c-12.28 0-23.84 5.23-29.63 8.34a4.93 4.93 0 0 0-2.5 5.18 4.8 4.8 0 0 0 4 4c17.26 2.79 28.44 8.84 34.79 13.43a3 3 0 0 0 3.3.14 3 3 0 0 0 1.43-3 137.32 137.32 0 0 0-6.24-26 2.44 2.44 0 0 0-.1-.24 3 3 0 0 0-2.58-1.8c-.81 0-1.64-.07-2.46-.07Z" fill="#090e40"/>
  <path d="M380.87 203.44a78.67 78.67 0 0 0-6.6 5.63 95.49 95.49 0 0 0-14 16.87 116.61 116.61 0 0 0-12.63 25.81 133 133 0 0 0-6.16 25.92 140.21 140.21 0 0 0-1.33 19.52c0 1.85 0 3.69.1 5.5.17 4.27.51 8.49 1.05 12.61.05.45.11.89.16 1.34a135 135 0 0 0 5.43 23.69c5.32 16.27 13.57 30.41 23.85 41.34h-3.82a18.23 18.23 0 0 0-2 .11h-.05a14.83 14.83 0 0 0-3.64.85c-.56.22-1.11.46-1.62.72-.27-.26-.53-.56-.79-.84-10.65-11-19.19-25.51-24.64-42.2a135 135 0 0 1-5.43-23.69c-.05-.45-.11-.89-.16-1.34-.53-4.12-.88-8.34-1.05-12.61-.07-1.81-.1-3.65-.1-5.5q0-3.75.19-7.44c.08-1.64.19-3.26.32-4.89s.31-3.22.5-4.82c.1-.8.21-1.58.32-2.37.16-1.13.32-2.26.5-3.39q.9-5.52 2.2-10.81c.65-2.68 1.39-5.3 2.2-7.87.41-1.29.84-2.58 1.27-3.85a116.15 116.15 0 0 1 12.62-25.81c1.56-2.37 3.2-4.65 4.9-6.83q1.71-2.19 3.5-4.22c1.8-2 3.66-4 5.6-5.82 5.87-5.53 12.37-6.4 19.31-5.61Z" fill="#fff"/>
  <path d="M469.59 227.2a1.48 1.48 0 0 1-.46-.08 78.26 78.26 0 0 0-24-3.66h-1.73a3.77 3.77 0 0 1-3.59-2.42 4 4 0 0 1 1-4.43 41 41 0 0 1 14.63-8.83 1.43 1.43 0 0 1 .5-.09 1.51 1.51 0 0 1 1 .42l.28.28c1.15 1.1 2.31 2.26 3.42 3.45s2.46 2.73 3.64 4.14c1.73 2.06 3.44 4.31 5.09 6.68.5.72 1 1.45 1.48 2.19a1.49 1.49 0 0 1 0 1.73 1.52 1.52 0 0 1-1.26.62Z" fill="#273d7d"/>
  <path d="M455.9 209.21a3.7 3.7 0 0 0 .28.28q1.71 1.65 3.36 3.4c1.21 1.32 2.41 2.67 3.58 4.07 1.75 2.09 3.42 4.29 5 6.58.49.71 1 1.42 1.46 2.16a79.23 79.23 0 0 0-24.45-3.7h-1.82a2.45 2.45 0 0 1-1.51-4.26 39.26 39.26 0 0 1 14.1-8.51m0-3a3 3 0 0 0-1 .17 42.57 42.57 0 0 0-15.18 9.16 5.51 5.51 0 0 0-1.32 6.07 5.27 5.27 0 0 0 4.9 3.37h1.82a76.49 76.49 0 0 1 23.54 3.59 3 3 0 0 0 3.42-4.51c-.49-.75-1-1.48-1.49-2.2-1.68-2.42-3.43-4.71-5.19-6.81-1.19-1.42-2.43-2.83-3.67-4.18s-2.31-2.4-3.49-3.53l-.07-.06-.21-.21a3 3 0 0 0-2.07-.84Z" fill="#090e40"/>
  <path d="M329.23 279.17a1.5 1.5 0 0 1-1.49-1.7 135.88 135.88 0 0 1 6.26-26.22 1.52 1.52 0 0 1 1.31-1c1-.07 2-.11 3-.11 12 0 23.27 5.12 28.93 8.17a3.39 3.39 0 0 1 1.73 3.61 3.31 3.31 0 0 1-2.75 2.79c-18 2.89-29.53 9.3-36.06 14.16a1.47 1.47 0 0 1-.93.3Z" fill="#273d7d"/>
  <path d="M338.27 251.65c11.42 0 22.25 4.76 28.22 8a2 2 0 0 1-.54 3.6c-18.59 3-30.41 9.73-36.72 14.44a133.68 133.68 0 0 1 6.17-25.92c1-.07 1.92-.1 2.87-.1m0-3c-1 0-2.08 0-3.09.11a3 3 0 0 0-2.61 2 136.77 136.77 0 0 0-6.32 26.5 3 3 0 0 0 4.77 2.82c6.39-4.77 17.73-11 35.4-13.89a4.8 4.8 0 0 0 4-4 4.93 4.93 0 0 0-2.5-5.18c-5.78-3.12-17.33-8.34-29.64-8.34Z" fill="#090e40"/>
  <path d="M371 396.15c-34.06 0-46.42-30.3-46.42-50.67 0-20.75 23.34-39 50-39A62.25 62.25 0 0 1 388 308a94.93 94.93 0 0 0 41.36 0 62.16 62.16 0 0 1 13.48-1.5c26.62 0 50 18.21 50 39 0 12.2-3.68 24.25-10.08 33.07-8.12 11.19-20.39 17.11-35.48 17.11a80.67 80.67 0 0 1-24-4.1 46.4 46.4 0 0 0-14.07-2.28 40.78 40.78 0 0 0-13.4 2.27 76.73 76.73 0 0 1-24.81 4.58Z" fill="#273d7d"/>
  <path d="M442.83 308c26.65 0 48.46 18 48.46 37.46 0 20.94-11.42 48.68-44.06 48.68a78.89 78.89 0 0 1-23.58-4 48.16 48.16 0 0 0-14.52-2.35 42.24 42.24 0 0 0-13.89 2.35 74.76 74.76 0 0 1-24.24 4.51c-32.3 0-44.93-28.39-44.93-49.17C326 326 347.83 308 374.49 308a60.25 60.25 0 0 1 13.16 1.47 96.66 96.66 0 0 0 42 0 60.27 60.27 0 0 1 13.18-1.47m0-3a63.43 63.43 0 0 0-13.83 1.56 93.6 93.6 0 0 1-40.71 0 63.27 63.27 0 0 0-13.8-1.56 58.31 58.31 0 0 0-36.09 12.1c-9.77 7.71-15.38 18-15.38 28.38 0 21 12.77 52.17 47.93 52.17a78.09 78.09 0 0 0 25.27-4.65 39.73 39.73 0 0 1 12.91-2.18 44.58 44.58 0 0 1 13.61 2.18 82.18 82.18 0 0 0 24.49 4.17c15.59 0 28.28-6.13 36.69-17.73 6.59-9.07 10.37-21.44 10.37-33.95 0-10.33-5.61-20.67-15.38-28.38A58.3 58.3 0 0 0 442.83 305Z" fill="#090e40"/>
  <path d="M442.83 308a60 60 0 0 0-10.15.87c21.87 3.81 38.39 19.64 38.39 36.59 0 18.73-9.16 42.89-34.46 47.77a66.36 66.36 0 0 0 10.61.9c32.64 0 44.07-27.73 44.07-48.67 0-19.47-21.81-37.46-48.46-37.46" fill="#242f5b"/>
  <path d="M384.63 308.89c-21.87 3.81-38.39 19.64-38.39 36.59 0 18.73 9.16 42.89 34.46 47.77-40.8 6.6-54.68-24.71-54.68-47.77-.02-21.89 27.57-41.91 58.61-36.59Z" fill="#44609e"/>
  <path d="M342.79 350.51a28.66 28.66 0 0 1-1.18-17.51 20.42 20.42 0 0 1 12.56-14.26 19.51 19.51 0 0 1 6.83-1.24c7 0 13.84 3.71 18.62 9.75" fill="none" stroke="#090e40" stroke-linecap="round" stroke-linejoin="round" stroke-width="3"/>
  <path d="M365.49 355.76c-4.57 0-9.24-3.86-11.37-9.39a14.74 14.74 0 0 1-.08-11.28 8.25 8.25 0 0 1 4.69-4.56 7.78 7.78 0 0 1 2.71-.48c4.57 0 9.25 3.86 11.37 9.39a14.79 14.79 0 0 1 .09 11.28 8.33 8.33 0 0 1-4.7 4.56 7.73 7.73 0 0 1-2.71.48Z" fill="#090e40"/>
  <path d="M361.44 331.55c3.88 0 8 3.35 10 8.43 2.33 6.06.66 12.28-3.73 13.89a6.32 6.32 0 0 1-2.19.39c-3.87 0-8-3.35-10-8.43-2.33-6.06-.66-12.28 3.73-13.9a6.35 6.35 0 0 1 2.19-.38m0-3a9.31 9.31 0 0 0-3.23.57 9.94 9.94 0 0 0-5.54 5.35 16.26 16.26 0 0 0 .05 12.43c2.38 6.2 7.51 10.36 12.77 10.36a9.31 9.31 0 0 0 3.23-.57 9.94 9.94 0 0 0 5.54-5.35 16.28 16.28 0 0 0-.05-12.44c-2.38-6.19-7.51-10.35-12.77-10.35Z" fill="#090e40"/>
  <path d="M361 343.51a20.27 20.27 0 0 1-1-11.78c-.24.06-.47.12-.7.2-4.39 1.62-6.06 7.84-3.73 13.9s7.77 9.66 12.16 8a5.53 5.53 0 0 0 1-.47 20.6 20.6 0 0 1-7.73-9.85Z" fill="#44609e"/>
  <path d="M474.53 352.39a28.68 28.68 0 0 0 1.17-17.55 20.43 20.43 0 0 0-12.55-14.26 19.58 19.58 0 0 0-6.79-1.2c-6.36 0-12.52 3-17.18 8.05" fill="none" stroke="#090e40" stroke-linecap="round" stroke-linejoin="round" stroke-width="3"/>
  <path d="M451.82 357.63a7.78 7.78 0 0 1-2.71-.48 8.33 8.33 0 0 1-4.7-4.56 14.79 14.79 0 0 1 .09-11.28c2.13-5.53 6.8-9.39 11.37-9.39a7.73 7.73 0 0 1 2.71.48 8.3 8.3 0 0 1 4.7 4.56 14.79 14.79 0 0 1-.09 11.28c-2.12 5.53-6.8 9.39-11.37 9.39Z" fill="#090e40"/>
  <path d="M455.87 333.42a6.1 6.1 0 0 1 2.19.39c4.39 1.61 6.06 7.83 3.73 13.89-2 5.08-6.09 8.43-10 8.43a6.14 6.14 0 0 1-2.19-.39c-4.39-1.61-6.06-7.83-3.73-13.89 2-5.08 6.09-8.43 10-8.43m0-3c-5.26 0-10.39 4.16-12.77 10.35a16.28 16.28 0 0 0-.05 12.44 9.94 9.94 0 0 0 5.54 5.35 9.31 9.31 0 0 0 3.23.57c5.26 0 10.39-4.16 12.77-10.35a16.28 16.28 0 0 0 .05-12.44 9.94 9.94 0 0 0-5.54-5.34 9.31 9.31 0 0 0-3.23-.57Z" fill="#090e40"/>
  <path d="M450.76 344.26a20.27 20.27 0 0 0-1.05 11.74 5.64 5.64 0 0 1-.7-.21c-4.39-1.61-6.05-7.83-3.72-13.89s7.78-9.66 12.17-8a6.68 6.68 0 0 1 1 .47 20.6 20.6 0 0 0-7.7 9.89Z" fill="#44609e"/>
  <path d="M348 227.44a1.5 1.5 0 0 1-1.25-2.33A97.29 97.29 0 0 1 361 208a1.51 1.51 0 0 1 1-.41 1.56 1.56 0 0 1 .48.08 41.21 41.21 0 0 1 15.08 9 4 4 0 0 1 .95 4.41 3.73 3.73 0 0 1-3.5 2.44h-1.88a77.89 77.89 0 0 0-24.66 3.89 1.5 1.5 0 0 1-.47.03Z" fill="#273d7d"/>
  <path d="M362 209.07a39.39 39.39 0 0 1 14.53 8.66A2.46 2.46 0 0 1 375 222h-1.82a79.21 79.21 0 0 0-25.13 4 95.49 95.49 0 0 1 14-16.87m0-3a3 3 0 0 0-2.06.82 99.22 99.22 0 0 0-14.45 17.4 3 3 0 0 0 2.51 4.65 2.83 2.83 0 0 0 1-.16 76.29 76.29 0 0 1 24.1-3.84H375a5.28 5.28 0 0 0 4.9-3.38 5.51 5.51 0 0 0-1.32-6.06 42.68 42.68 0 0 0-15.58-9.33 2.89 2.89 0 0 0-1-.16Z" fill="#090e40"/>
  <path d="M408.68 410.19a74.76 74.76 0 0 1-15.71-1.6c-.31-.06-.63-.12-1-.21-1.49-.34-3-.75-4.49-1.21a1.5 1.5 0 0 1-.13-2.82c4.85-2 12.81-3.23 21.3-3.23s16.41 1.2 21.28 3.22a1.48 1.48 0 0 1 .92 1.44 1.5 1.5 0 0 1-1 1.37c-1.37.44-2.9.86-4.53 1.24-.32.08-.64.14-1 .21a74.89 74.89 0 0 1-15.64 1.59Z" fill="#d6332f"/>
  <path d="M408.68 402.62c8.59 0 16.19 1.24 20.7 3.1-1.38.45-2.87.85-4.4 1.21l-.93.2a76.6 76.6 0 0 1-30.76 0l-.94-.2c-1.53-.36-3-.76-4.4-1.19 4.52-1.88 12.12-3.12 20.73-3.12m0-3c-8.81 0-16.78 1.22-21.88 3.35a3 3 0 0 0 .27 5.64c1.53.47 3.08.89 4.61 1.24l1 .22a79.72 79.72 0 0 0 32 0c.35-.07.68-.14 1-.23 1.62-.38 3.18-.8 4.6-1.26a3 3 0 0 0 .23-5.63c-5-2.08-13.2-3.33-21.85-3.33Z" fill="#090e40"/>
  <path d="M408.68 410.19a74.76 74.76 0 0 1-15.71-1.6c-.31-.06-.63-.12-1-.21-1.49-.34-3-.75-4.49-1.21a1.5 1.5 0 0 1-.13-2.82c4.85-2 12.81-3.23 21.3-3.23s16.41 1.2 21.28 3.22a1.48 1.48 0 0 1 .92 1.44 1.5 1.5 0 0 1-1 1.37c-1.37.44-2.9.86-4.53 1.24-.32.08-.64.14-1 .21a74.89 74.89 0 0 1-15.64 1.59Z" fill="#d6332f"/>
  <path d="M408.68 402.62c8.59 0 16.19 1.24 20.7 3.1-1.38.45-2.87.85-4.4 1.21l-.93.2a76.6 76.6 0 0 1-30.76 0l-.94-.2c-1.53-.36-3-.76-4.4-1.19 4.52-1.88 12.12-3.12 20.73-3.12m0-3c-8.81 0-16.78 1.22-21.88 3.35a3 3 0 0 0 .27 5.64c1.53.47 3.08.89 4.61 1.24l1 .22a79.72 79.72 0 0 0 32 0c.35-.07.68-.14 1-.23 1.62-.38 3.18-.8 4.6-1.26a3 3 0 0 0 .23-5.63c-5-2.08-13.2-3.33-21.85-3.33Z" fill="#090e40"/>
  <path d="M431.08 384.55c-2.32-.52-4.71-1.17-7.15-1.94a49.48 49.48 0 0 0-14.83-2.39 43.76 43.76 0 0 0-14.34 2.43c-1.56.53-3.1 1-4.62 1.45" fill="none" stroke="#090e40" stroke-linecap="round" stroke-linejoin="round" stroke-width="3"/>
  <circle cx="382.93" cy="332.61" r="1.84" fill="#090e40"/>
  <circle cx="434.52" cy="332.61" r="1.84" fill="#090e40"/>
  <ellipse cx="353.99" cy="237.55" rx="1.68" ry="1.84" fill="#090e40"/>
  <circle cx="353.99" cy="374.38" r="1.84" fill="#090e40"/>
  <circle cx="436.89" cy="386.91" r="1.84" fill="#090e40"/>
  <path d="M408.65 265.39a1.5 1.5 0 0 1-1.38-.91c-11.13-27-21.64-52.42-37.14-73.1a1.45 1.45 0 0 1-.26-1.24 1.48 1.48 0 0 1 .79-1c2.79-1.39 5.68-2.66 8.59-3.78a78.63 78.63 0 0 1 28.8-5.59c12.43 0 25.05 3.06 38.57 9.35a1.5 1.5 0 0 1 .51 2.33C430.55 211.09 420.6 237 411 262.05l-.82 2.14c0 .12-.08.21-.1.27a1.54 1.54 0 0 1-1.39.93Z" fill="#273d7d"/>
  <path d="M408.05 181.27c12.16 0 24.63 3 37.94 9.21-17.24 20.42-27.34 47.43-37.27 73.25a1.15 1.15 0 0 1-.06.17c-11.22-27.16-21.74-52.62-37.33-73.42 2.82-1.41 5.65-2.64 8.46-3.72a77.4 77.4 0 0 1 28.26-5.49m0-3A80.11 80.11 0 0 0 378.7 184c-2.94 1.13-5.87 2.42-8.71 3.84a3 3 0 0 0-1.06 4.48c15.39 20.53 25.86 45.9 36.95 72.77a3 3 0 0 0 2.78 1.85 3 3 0 0 0 2.77-1.88 2.81 2.81 0 0 0 .13-.33l.8-2.1c9.58-24.94 19.49-50.72 35.91-70.17a3 3 0 0 0-1-4.66c-13.72-6.39-26.54-9.49-39.2-9.49Z" fill="#090e40"/>
  <path d="M437.39 186.88c-15.09 18.54-30.36 73.1-28.73 77 9.93-25.88 20-53 37.33-73.43-2.91-1.32-5.77-2.51-8.6-3.57Z" fill="#242f5b"/>
  <path d="M408.72 263.73a1.15 1.15 0 0 1-.06.17c-11.22-27.16-21.74-52.62-37.33-73.42 2.82-1.41 5.65-2.64 8.46-3.72 13.65 18.02 27.95 66.3 28.93 76.97Z" fill="#44609e"/>
  <path d="M410.77 235c3-7.48 6.22-14.91 9.74-22.07" fill="#9f5ad2" stroke="#090e40" stroke-linecap="round" stroke-linejoin="round" stroke-width="3"/>
  <path d="M401.6 216.63c-5.32-15.57-13.89-29.48-23.87-39 19-8.44 42.7-9.12 59.91.82-3.92 3.27-13.44 17.67-16.31 24" fill="#273d7d" stroke="#090e40" stroke-linecap="round" stroke-linejoin="round" stroke-width="3"/>
  <path d="M387.84 174a74.94 74.94 0 0 0-10.11 3.61c10 9.57 18.89 24.79 23.87 39-1.71.02.95-25.15-13.76-42.61Z" fill="#44609e"/>
  <path d="M396 179.46a72.52 72.52 0 0 1 20.25-.62" fill="#9f5ad2" stroke="#090e40" stroke-linecap="round" stroke-linejoin="round" stroke-width="3"/>
  <ellipse cx="421.81" cy="180.24" rx="1.68" ry="1.84" fill="#090e40"/>
  <ellipse cx="403.48" cy="222.59" rx="1.68" ry="1.84" fill="#090e40"/>
  <path d="M401.6 216.63c-5.32-15.57-13.89-29.48-23.87-39 19-8.44 42.7-9.12 59.91.82-3.92 3.27-13.44 17.67-16.31 24m-86.62 103.49c-.29-16.91.46-32.94 4.62-46.09" fill="none" stroke="#090e40" stroke-linecap="round" stroke-linejoin="round" stroke-width="3"/>
  <path d="M369.67 261.59c-11.8.46-20.94 11.18-20.41 24a24.54 24.54 0 0 0 4 12.49 2.81 2.81 0 0 1 .29 0 9.45 9.45 0 0 1 2.77-.59h.5a9.51 9.51 0 0 1 2.71-.56 8.82 8.82 0 0 1 5.39 1.29 87.63 87.63 0 0 1 22.72.78 24.19 24.19 0 0 0 4.36-15c-.55-12.85-10.54-22.85-22.33-22.41Z" fill="#fff" opacity=".4"/>
  <path d="M350.32 300.53c15.29-4.16 28.54-3.08 42.87.4" fill="none" stroke="#090e40" stroke-linecap="round" stroke-linejoin="round" stroke-width="3"/>
  <path d="M387.6 299.29h-.27a97.92 97.92 0 0 0-15.87-1.69h-1.3a61 61 0 0 0-7.31.43 51.26 51.26 0 0 0-6.28 1.11 1.45 1.45 0 0 1-1.52-.51 22.43 22.43 0 0 1-5-14.28 22.15 22.15 0 0 1 22-22.15h.1A21.9 21.9 0 0 1 393 277.85a22.43 22.43 0 0 1 1 6.67 23 23 0 0 1-.47 4.48 22.27 22.27 0 0 1-4.7 9.75 1.52 1.52 0 0 1-1.23.54Z" fill="#fff"/>
  <path d="M372 263.66h.09a20.52 20.52 0 0 1 19.45 14.63 21.26 21.26 0 0 1 .9 6.22 20.51 20.51 0 0 1-.44 4.18 20.77 20.77 0 0 1-4.38 9.1 99.9 99.9 0 0 0-16.12-1.71h-1.31a62.15 62.15 0 0 0-7.5.44 52.32 52.32 0 0 0-6.46 1.15 20.9 20.9 0 0 1-4.68-13.33A20.6 20.6 0 0 1 372 263.66m0-3a23.65 23.65 0 0 0-23.45 23.64 24 24 0 0 0 5.36 15.24 3 3 0 0 0 2.32 1.11 2.88 2.88 0 0 0 .71-.09 50.42 50.42 0 0 1 6.09-1.08 58.91 58.91 0 0 1 7.16-.42h1.26a98.41 98.41 0 0 1 15.64 1.67 3.07 3.07 0 0 0 .53.05 3 3 0 0 0 2.3-1.08 23.76 23.76 0 0 0 5-10.42 24.15 24.15 0 0 0-.53-11.87 23.4 23.4 0 0 0-22.3-16.76Z" fill="#090e40"/>
  <path d="M392 288.69a20.77 20.77 0 0 1-4.38 9.1 99.9 99.9 0 0 0-16.12-1.71 62.88 62.88 0 0 0-8.81.42 15.54 15.54 0 1 1 29.31-7.81Z" fill="#090e40"/>
  <ellipse cx="369.65" cy="289.56" rx="5.66" ry="5.58" transform="rotate(-89.73 369.62861535 289.56000305)" fill="#fff"/>
  <ellipse cx="374.23" cy="281.76" rx="1.81" ry="1.84" transform="rotate(-.27 379.17909458 285.25130544)" fill="#fff" opacity=".3"/>
  <circle cx="346.33" cy="302.22" r="1.33" fill="#090e40"/>
  <path d="M449.26 261.68A23.22 23.22 0 0 1 467 298.21h-.3a10.87 10.87 0 0 0-3-.6h-.54a11.06 11.06 0 0 0-2.88-.57 9.86 9.86 0 0 0-5.76 1.27 100.21 100.21 0 0 0-24.26.68 23.25 23.25 0 0 1-4.72-15.05 23 23 0 0 1 23.72-22.26Z" fill="#c2c3cc"/>
  <path d="M467.19 300.53c-15.29-4.16-28.54-3.08-42.88.4" fill="none" stroke="#090e40" stroke-linecap="round" stroke-linejoin="round" stroke-width="3"/>
  <path d="M429.91 299.29a1.52 1.52 0 0 1-1.15-.54 22.59 22.59 0 0 1-5.18-14.23 23.1 23.1 0 0 1 1-6.67 21.92 21.92 0 0 1 20.88-15.69h.1a22.15 22.15 0 0 1 22 22.15 22.51 22.51 0 0 1-5 14.28 1.5 1.5 0 0 1-1.17.56 1.48 1.48 0 0 1-.35 0 51.44 51.44 0 0 0-6.27-1.11 61.32 61.32 0 0 0-7.32-.43h-1.29a97.92 97.92 0 0 0-15.88 1.69Z" fill="#fff"/>
  <path d="M445.53 263.66A20.6 20.6 0 0 1 466 284.32a20.85 20.85 0 0 1-4.69 13.33 52.16 52.16 0 0 0-6.45-1.15 62.27 62.27 0 0 0-7.5-.44h-1.31a99.9 99.9 0 0 0-16.12 1.71 21.11 21.11 0 0 1-4.83-13.28 21.61 21.61 0 0 1 .91-6.22 20.51 20.51 0 0 1 19.44-14.63h.1m0-3h-.11a23.39 23.39 0 0 0-22.3 16.76 24 24 0 0 0-1 7.1 24.56 24.56 0 0 0 .51 4.79 23.79 23.79 0 0 0 5 10.4 3 3 0 0 0 2.3 1.08 3.17 3.17 0 0 0 .53-.05 98.42 98.42 0 0 1 15.63-1.67h1.27a58.34 58.34 0 0 1 7.14.42 50.05 50.05 0 0 1 6.11 1.08 2.8 2.8 0 0 0 .7.09 3 3 0 0 0 2.33-1.11A24 24 0 0 0 469 284.3a23.65 23.65 0 0 0-23.45-23.64Z" fill="#090e40"/>
  <path d="M425.53 288.69a20.66 20.66 0 0 0 4.38 9.1 99.9 99.9 0 0 1 16.09-1.71 62.88 62.88 0 0 1 8.81.42 15.54 15.54 0 1 0-29.31-7.81Z" fill="#090e40"/>
  <ellipse cx="447.86" cy="289.56" rx="5.58" ry="5.66" transform="rotate(-.27 453.43126391 293.91455336)" fill="#fff"/>
  <ellipse cx="443.28" cy="281.76" rx="1.84" ry="1.81" transform="rotate(-90 441.55 282.14)" fill="#fff" opacity=".3"/>
  <circle cx="471.18" cy="302.22" r="1.33" fill="#090e40"/>
  <path d="M656.41 555.56a3.43 3.43 0 0 0-1.92-.59h-5.32l.54-1.47a7.09 7.09 0 0 0 .4-1.68 6 6 0 0 0 0-.85 7.19 7.19 0 0 0-1.28-4c-.14-.2-.3-.39-.46-.58a7.14 7.14 0 0 0-5.41-2.49h-6c0-.13.06-.26.09-.39s.07-.26.1-.4a6.58 6.58 0 0 0 .12-1.19v-3.25a6.57 6.57 0 0 0-.13-1.26c0-.13-.08-.26-.11-.39a6.59 6.59 0 0 0-.24-.79c-.06-.15-.14-.29-.21-.43a6.54 6.54 0 0 0-.35-.64 4.33 4.33 0 0 0-.3-.41 5.75 5.75 0 0 0-.44-.54c-.12-.13-.24-.24-.37-.36l-.53-.44c-.14-.1-.28-.2-.43-.29s-.4-.23-.61-.33a4.84 4.84 0 0 0-.47-.21 6.12 6.12 0 0 0-.69-.22l-.49-.12a1.16 1.16 0 0 0-.18 0l4.19-4h17.76a2.6 2.6 0 0 0 .68-.1l.18-.08a2.44 2.44 0 0 0 .44-.19l.17-.14a3.17 3.17 0 0 0 .35-.29 1.13 1.13 0 0 0 .12-.18 3 3 0 0 0 .27-.39c0-.09.06-.18.09-.26s.1-.26.13-.39a2.42 2.42 0 0 0 0-.6v-.06a2.22 2.22 0 0 0-.44-1.2l-5.6-8a6.33 6.33 0 0 0-5.22-2.74h-7.6v-3.79a6.47 6.47 0 0 0-6-6.42l-33-2.05a7.64 7.64 0 0 0 1-2 6.74 6.74 0 0 0 .38-1.79v-.79a7.88 7.88 0 0 0-7.39-7.8h-.6l-2.88-.18-6.68-.41-24.63-1.51L513.4 484a2.25 2.25 0 0 0-1 .15l-9.75 3.71a3.64 3.64 0 0 0-.75 6.51 2.7 2.7 0 0 0 .31.2l9.26 4.88a2.31 2.31 0 0 0 .92.26l5.22.32h.05l3.22.2a1.32 1.32 0 0 0-.12.2c0 .08 0 .13-.08.2l-.12.26c-.09.25-.15.51-.22.78s-.08.23-.1.35a6.11 6.11 0 0 0-.12 1.2v10.25h-17.23a2.62 2.62 0 0 0-2.3 1.36.67.67 0 0 0-.07.18 2.18 2.18 0 0 0-.19.48 2.48 2.48 0 0 0 0 .27 2.87 2.87 0 0 0-.05.41 2.2 2.2 0 0 0 .06.37 1.35 1.35 0 0 0 0 .29c0 .06 0 .1.06.15a3.19 3.19 0 0 0 .2.46l4.54 7.87c.13.21.27.41.42.61a5.65 5.65 0 0 0 4.42 2.17h14l2.75 4h-4.33a6.56 6.56 0 0 0-6.55 6.55v3.25a6.91 6.91 0 0 0 .12 1.22c0 .09 0 .18.07.27s.06.33.11.49h-5.69a4.64 4.64 0 0 0-4 2.22 2.56 2.56 0 0 0-.11.24 4.92 4.92 0 0 0-.38.85c0 .12 0 .25-.07.38a5.08 5.08 0 0 0-.13.78v.34a4.53 4.53 0 0 0 .48 2l1.54 3 .67 1.31h-9.16a2.46 2.46 0 0 0-1 .22l-.22.1a2.4 2.4 0 0 0-.26.18 2.23 2.23 0 0 0-.24.19 1.73 1.73 0 0 0-.21.25c0 .07-.12.13-.17.21-.05.09-.07.18-.11.27s-.09.18-.12.27a1.62 1.62 0 0 0 0 .2 2.93 2.93 0 0 0-.07.41s0 .07 0 .1a2.12 2.12 0 0 0 .05.5.32.32 0 0 0 0 .09 2.38 2.38 0 0 0 .15.45l5 10.56c.06.1.13.19.2.29a1.56 1.56 0 0 0 .17.25 1.71 1.71 0 0 0 .2.18 2.88 2.88 0 0 0 .33.28l.22.1a2 2 0 0 0 .39.18 2.75 2.75 0 0 0 .7.1h4.94l3.93 9.46.29.7h-4.97a5.57 5.57 0 0 0-3.68 1.4l-10.65 9.35-.15.13a3 3 0 0 0-1 2.43 3.1 3.1 0 0 0 .2.89 3 3 0 0 0 2.8 1.92h147.73a5.51 5.51 0 0 0 4.43-2.22 5.4 5.4 0 0 0 1.15-3.36v-5a5.21 5.21 0 0 0-.1-1 2.8 2.8 0 0 0-.06-.28 5 5 0 0 0-.2-.69l-.09-.24a5.61 5.61 0 0 0-.47-.91l-.21-.29c-.14-.17-.28-.34-.43-.5a5.61 5.61 0 0 0-.73-.61l-.3-.19c-.12-.08-.23-.16-.36-.23l-.2-.07a5.1 5.1 0 0 0-.74-.28c-.14 0-.28-.1-.43-.13a5.42 5.42 0 0 0-1.21-.15h-4.6c0-.24-.08-.47-.13-.71s-.06-.39-.1-.58c-.08-.38-.18-.75-.29-1.12 0-.14-.07-.28-.11-.42-.16-.5-.34-1-.55-1.48 0-.08-.08-.16-.11-.24-.18-.4-.36-.79-.56-1.16l-.27-.47c-.17-.29-.34-.59-.53-.87s-.23-.33-.35-.49-.37-.52-.57-.76-.26-.33-.4-.49-.41-.46-.62-.68-.29-.3-.45-.45l-.23-.24h20.56a3.18 3.18 0 0 0 .62-.06l.22-.06a2.26 2.26 0 0 0 .37-.11l.24-.1.3-.16a1.82 1.82 0 0 0 .23-.15 2 2 0 0 0 .27-.22 4.17 4.17 0 0 0 .36-.37c.06-.07.12-.13.17-.2s.13-.21.19-.31a1.14 1.14 0 0 0 .1-.19 1.8 1.8 0 0 0 .16-.38s0 0 0-.05v-.12a3.37 3.37 0 0 0 .09-.34 3.08 3.08 0 0 0 .06-.61v-8.56a3.42 3.42 0 0 0-1.46-2.79Z" fill="#273d7d" opacity=".2"/>
  <path fill="#0b1236" opacity=".2" d="m524.85 499.37 1.81 23.59 6.18-1.4v9.93l-10.5.17-.64 11.61-8.77.59v9.22l-7.72 12.16 17.34.16 1.01 14.57-10.33-.53-.3 10.82-27.62 1.26 7.65-8.72 11.22-4.42h5.95l-10.04-14.08-6.35-1.29-3-8.89 8.66-10.26 12.27-1.11-2.59-8.86 3.85-2.4 6.49-.89-1.56-4.47-3.6-3.17-15.69-1.92-4.83-8.13 20.52-.66-.34-12.86.59-5.02 10.34 5z"/>
  <path d="M305.82 593.3a1.5 1.5 0 0 1-1.49-1.31l-1.22-9.91v-.33c-1.16-9.17-2.5-19.52-3.89-30.28-3.13-24.22-6.68-51.68-8.75-70.84-.09-.75-.16-1.49-.24-2.22l-.07-.69a1.29 1.29 0 0 1 0-.34 9.55 9.55 0 0 1 9.45-8.42h217.45a9.59 9.59 0 0 1 9.44 10.81l-.1.86c-1.81 14.06-4.16 32.75-6.65 52.53-2.15 17.11-4.32 34.41-6.13 48.53v.42c-.45 3.5-.87 6.82-1.27 9.89a1.49 1.49 0 0 1-1.48 1.3Z" fill="#8c58c4"/>
  <path d="M517.06 470.46a8.09 8.09 0 0 1 8 9.11c0 .3-.08.6-.11.9-3.4 26.44-8.93 70.93-12.78 101v.4c-.44 3.52-.87 6.84-1.26 9.9h-205c-.37-3.08-.78-6.4-1.22-9.9 0-.13 0-.27-.05-.4-3.78-30-9.66-73.55-12.63-101-.11-1-.21-2-.31-2.91a8.08 8.08 0 0 1 8-7.1h217.36m0-3H299.57a11.06 11.06 0 0 0-10.94 9.74 3.09 3.09 0 0 0 0 .68l.08.75c.08.71.15 1.44.24 2.17 2.07 19.18 5.62 46.65 8.76 70.88 1.4 10.85 2.73 21.09 3.87 30.2v.44c.43 3.48.84 6.78 1.21 9.85a3 3 0 0 0 3 2.63h205a3 3 0 0 0 3-2.61q.6-4.59 1.26-9.86c0-.17.05-.33.07-.5 1.8-14.11 4-31.57 6.12-48.45 2.49-19.8 4.84-38.49 6.64-52.53v-.05c0-.13 0-.26.05-.4l.06-.47a11.1 11.1 0 0 0-10.94-12.47Z" fill="#090e40"/>
  <path d="M525.41 477.57c-2.85 27.24-9 72.79-12.94 103.93 0 .14 0 .27-.06.4-.44 3.5-.84 6.83-1.22 9.91H494.1c.38-3.08.77-6.41 1.22-9.91 0-.13 0-.26.05-.4 3.9-31.14 10.09-76.69 12.94-103.93a8.08 8.08 0 0 0-8-7.1h17.07a8.08 8.08 0 0 1 8.03 7.1Z" fill="#5b4087"/>
  <path d="M291.61 477.57c2.85 27.24 9 72.79 12.94 103.93 0 .14 0 .27.05.4.45 3.5.85 6.83 1.22 9.91h17.1c-.38-3.08-.78-6.41-1.22-9.91 0-.13 0-.26-.06-.4-3.9-31.14-10.09-76.69-12.94-103.93a8.08 8.08 0 0 1 8-7.1h-17.1a8.08 8.08 0 0 0-7.99 7.1Z" fill="#c58fff"/>
  <path fill="none" stroke="#090e40" stroke-linecap="round" stroke-linejoin="round" stroke-width="3" d="M421.51 480.44h57.07m-152.29 0h48.1M303.54 581.9h208.87"/>
  <path d="M408.32 549.19a14.94 14.94 0 1 1 15.27-14.94 15.12 15.12 0 0 1-15.27 14.94Z" fill="#c58fff" opacity=".4"/>
  <path d="M408.32 520.81a13.44 13.44 0 1 1-13.77 13.44 13.61 13.61 0 0 1 13.77-13.44m0-3a16.44 16.44 0 1 0 16.77 16.44 16.63 16.63 0 0 0-16.77-16.44Z" fill="#090e40"/>
  <path d="M413.14 546.85a13.94 13.94 0 0 1-4.81.85 13.44 13.44 0 1 1 0-26.88 14.18 14.18 0 0 1 4.81.84 13.33 13.33 0 0 0 0 25.19Z" fill="#8c58c4"/>
  <path d="M512.47 581.5c0 .14 0 .27-.06.4-.44 3.5-.84 6.83-1.22 9.91H305.82c-.37-3.08-.78-6.41-1.22-9.91 0-.13 0-.26-.05-.4Z" fill="#090e40" opacity=".3"/>
  <path fill="none" stroke="#090e40" stroke-linecap="round" stroke-linejoin="round" stroke-width="3" d="M333.15 571.92h44.88"/>
  <circle cx="383.36" cy="571.72" r="1.83" fill="#090e40"/>
  <circle cx="379.17" cy="480.27" r="1.83" fill="#090e40"/>
  <circle cx="199.11" cy="539.26" r="2.51" fill="#090e40"/>
  <path d="M650 557.26v8.56a.75.75 0 0 1-.06.33 1.14 1.14 0 0 1-1.09.83h-32.11a14.72 14.72 0 0 1 14.73 14.72h6.67a3.34 3.34 0 0 1 1.54.38 3.6 3.6 0 0 1 .83.62 5.54 5.54 0 0 1 .37.45 3.39 3.39 0 0 1 .56 1.85v5a3.17 3.17 0 0 1-.66 2 3.26 3.26 0 0 1-2.64 1.34H490.43A.73.73 0 0 1 490 592l.09-.07 10.68-9.39a3.31 3.31 0 0 1 2.18-.83h8.5L505.27 567h-6.46a.14.14 0 0 1-.14-.09l-5.05-10.55a.16.16 0 0 1 .13-.24h14.34a2.38 2.38 0 0 1-2.11-1.29l-3.25-6.35a2.39 2.39 0 0 1 2.12-3.46h11.95a4.27 4.27 0 0 1-4.27-4.26v-3.25a4.27 4.27 0 0 1 4.27-4.27h8.68l-5.93-8.53h-15.16a3.35 3.35 0 0 1-2.88-1.65l-4.51-7.87a.36.36 0 0 1 .3-.55h19.54v-12.53a3.9 3.9 0 0 1 .3-1.53 1.59 1.59 0 0 1 .12-.27 2 2 0 0 1 .3-.54 2.51 2.51 0 0 1 .38-.48 1.72 1.72 0 0 1 .27-.27l.28-.25a4.58 4.58 0 0 1 1-.55 2.62 2.62 0 0 1 .58-.18 5 5 0 0 1 .53-.11h.69l79.23 4.94h.5l24.53 1.53a4.16 4.16 0 0 1 3.88 4.14v6.07h9.88a4 4 0 0 1 3.34 1.75l2.85 4.06 2.76 4a.18.18 0 0 1-.15.28h-18.69l-5.16 5-3.67 3.55h4.57a4.27 4.27 0 0 1 4.26 4.27v3.25a4.06 4.06 0 0 1-.24 1.39l-.09.27a4.27 4.27 0 0 1-3.93 2.6h12.23a4.88 4.88 0 0 1 4.58 6.56l-1.67 4.54h8.59a1.17 1.17 0 0 1 1.11 1.13Z" fill="#fff" stroke="#0b1236" stroke-linecap="round" stroke-linejoin="round" stroke-width="3"/>
  <path d="M583.87 502.87h.5l24.53 1.53a4.16 4.16 0 0 1 3.88 4.14v6.07h9.88a4 4 0 0 1 3.34 1.75l2.85 4.06 2.76 4a.17.17 0 0 1-.15.28h17.95a.18.18 0 0 0 .15-.28l-2.77-4-2.79-4.03a4 4 0 0 0-3.34-1.75h-9.88v-6.07a4.16 4.16 0 0 0-3.88-4.14l-24.54-1.53h-.5l-79.22-4.94h-.7a4.82 4.82 0 0 0-.52.11 2.71 2.71 0 0 0-.59.18 4.75 4.75 0 0 0-1 .55l-.11.1Zm66.32 53.23h-8.59c6.91-14.07-6.48-10.76-15.13-11.1 4.12 0 4.56-4.4 4.26-7.51.07-4.75-5.54-4.41-8.83-4.27 2.1-2 6.69-6.46 8.83-8.53h-12.89c-2.15 2.08-6.67 8.14-9.58 8.53 7.52-1 5.39 9.22 5.26 10.56 0 .42-.44.84-.26 1.22 9.2-.25 21.32-1 15.62 11.1 1.06.47 4.78-1.15 4.52 1.16-.44 1 1.14 10-1.15 9.72.78-.51 20 1.26 19.1-1.16-.45-1.02 1.14-9.99-1.16-9.72Zm-8 27.05a4.11 4.11 0 0 0-.38-.45 3.54 3.54 0 0 0-.82-.62 3.34 3.34 0 0 0-1.54-.38h-6.68a14.72 14.72 0 0 0-14.72-14.7h-14.22v.49a14.7 14.7 0 0 1 11 14.23h6.68a3.33 3.33 0 0 1 1.53.38 3.6 3.6 0 0 1 .83.62 5.54 5.54 0 0 1 .37.45 3.39 3.39 0 0 1 .56 1.85v5a3.17 3.17 0 0 1-.66 2 3.25 3.25 0 0 1-2.63 1.34h17.94a3.24 3.24 0 0 0 2.63-1.34 3.18 3.18 0 0 0 .67-2v-5a3.47 3.47 0 0 0-.56-1.87Z" fill="#fff"/>
  <path d="M524.63 581.7H502.9a3.31 3.31 0 0 0-2.18.83L490 591.92v.08a.73.73 0 0 0 .48 1.27h147.66a3.26 3.26 0 0 0 2.64-1.34 3.17 3.17 0 0 0 .66-2v-5a3.29 3.29 0 0 0-3.3-3.3h-55.4" fill="none" stroke="#0b1236" stroke-linecap="round" stroke-linejoin="round" stroke-width="3"/>
  <path fill="none" stroke="#0b1236" stroke-linecap="round" stroke-linejoin="round" stroke-width="3" d="M531.6 581.71h-20.2l-6.12-14.73h62.75M585 581.7h46.44a14.72 14.72 0 0 0-14.7-14.7h-12.06"/>
  <path d="M559.32 567h-60.51a.16.16 0 0 1-.14-.09l-5.06-10.55a.16.16 0 0 1 .15-.23h23.07M604.68 567h44.2a1.15 1.15 0 0 0 1.16-1.16v-8.56a1.17 1.17 0 0 0-1.16-1.16h-19.46m-115.25-.01h-6.08a2.38 2.38 0 0 1-2.11-1.3l-3.24-6.35a2.38 2.38 0 0 1 2.12-3.46h20.74m108.59 11.1h6.11l1.67-4.54a4.88 4.88 0 0 0-4.58-6.56h-23.21M533 545h-16.21a4.26 4.26 0 0 1-4.26-4.26v-3.25a4.27 4.27 0 0 1 4.26-4.27h20M585.03 545h-34m63.15 0h11a4.26 4.26 0 0 0 4.26-4.26v-3.25a4.27 4.27 0 0 0-4.26-4.27H609.9m-73.16 0h-11.27l-5.92-8.53h77.2m13.14 8.53h10.7l8.83-8.53h-12.38" fill="none" stroke="#0b1236" stroke-linecap="round" stroke-linejoin="round" stroke-width="3"/>
  <path d="M617 524.69h31.1a.18.18 0 0 0 .15-.28l-2.76-4-2.85-4.06a4 4 0 0 0-3.34-1.75h-80m-31.7.04h-30.31a.36.36 0 0 0-.3.55l4.52 7.85a3.35 3.35 0 0 0 2.88 1.65h92.36" fill="none" stroke="#0b1236" stroke-linecap="round" stroke-linejoin="round" stroke-width="3"/>
  <path d="M527.6 514.64h-10.77v-12.53a3.9 3.9 0 0 1 .3-1.53 1.07 1.07 0 0 1 .12-.27 2 2 0 0 1 .3-.54 2.51 2.51 0 0 1 .38-.48 1.72 1.72 0 0 1 .27-.27l.28-.25a3.88 3.88 0 0 1 1-.55 2.16 2.16 0 0 1 .58-.18 5 5 0 0 1 .53-.11h.69l79.23 4.94h.49l24.54 1.53a4.16 4.16 0 0 1 3.88 4.14v6.07h-70.1" fill="none" stroke="#0b1236" stroke-linecap="round" stroke-linejoin="round" stroke-width="3"/>
  <path d="m598.6 556.11-10 13.19a1.51 1.51 0 0 1-1.77.48 1.32 1.32 0 0 1-.58-.42L575 556.11Z" fill="#8c58c4" stroke="#0b1236" stroke-linecap="round" stroke-linejoin="round" stroke-width="3"/>
  <path fill="none" stroke="#0b1236" stroke-linecap="round" stroke-linejoin="round" stroke-width="3" d="M605.98 556.11h-35.22m-53.93-49.82h16.1m8.32 68.05h21.34"/>
  <path d="m598.6 556.11-10 13.19a1.51 1.51 0 0 1-1.77.48v-13.67Z" fill="#0b1236" opacity=".3"/>
  <path fill="#ffd000" stroke="#0b1236" stroke-linecap="round" stroke-linejoin="round" stroke-width="3" d="M548.9 524.69h22.16v13.03H548.9zm42.7-29.19v.36a.13.13 0 0 1 0 .09 6 6 0 0 1-.28 1.38 5.86 5.86 0 0 1-5.58 3.77l-9.94-.6-51.83-3.17-11.71-.71-5.26-.33-9.26-4.88a.18.18 0 0 1-.07-.05 1.43 1.43 0 0 1-.66-.83 1.39 1.39 0 0 1 .9-1.67l9.77-3.72 5.26.33 63.54 3.88 9.56.58a5.78 5.78 0 0 1 5.56 5.57Z"/>
  <path fill="#273d7d" stroke="#0b1236" stroke-linecap="round" stroke-linejoin="round" stroke-width="3" d="m576.45 489.35-.32 5.27-.02.45-.15 2.26-.19 3.17-51.83-3.17-11.71-.71.32-5.18.02-.4v-.01l.34-5.56 63.54 3.88z"/>
  <path d="M591.87 495.51v.44a4.27 4.27 0 0 1-.26 1.38 5.57 5.57 0 0 1-5.63 3.78h-.23l-9.94-.6.19-3.17.15-2.26v-.45l.32-5.27 9.56.58h.61a5.56 5.56 0 0 1 5.23 5.57Z" fill="#d6332f" stroke="#0b1236" stroke-linecap="round" stroke-linejoin="round" stroke-width="3"/>
  <path fill="#0b1236" opacity=".3" d="M559.98 524.69h11.08v13.03h-11.08zm31.89-29.18v.44a4.27 4.27 0 0 1-.26 1.38 5.57 5.57 0 0 1-5.63 3.78h-.23l-9.94-.6-51.83-3.17-11.71-.71-5.26-.33-9.26-4.88a.18.18 0 0 1-.07-.05l.07-1.17 14.86.84 63.56 3.59 15.47.88Z"/>
  <path d="M742.26 384.09H539.52c-4.73 0-8.43 3.2-8.43 7.28v43.87c0 4.08 3.7 7.28 8.43 7.28h202.74c4.73 0 8.44-3.2 8.44-7.28v-43.87c0-4.08-3.7-7.28-8.44-7.28Z" fill="#0b1236" opacity=".2"/>
  <path d="M533.74 435c-3.35 0-6-2.12-6-4.82v-43.9c0-2.7 2.63-4.82 6-4.82h202.74c3.34 0 6 2.12 6 4.82v43.87c0 2.7-2.63 4.82-6 4.82Z" fill="#fff"/>
  <path d="M736.48 383.36c2.25 0 4.08 1.31 4.08 2.92v43.87c0 1.62-1.83 2.93-4.08 2.93H533.74c-2.26 0-4.09-1.31-4.09-2.93v-43.87c0-1.61 1.83-2.92 4.09-2.92h202.74m0-3.79H533.74c-4.41 0-7.87 2.95-7.87 6.71v43.87c0 3.76 3.46 6.71 7.87 6.71h202.74c4.41 0 7.86-2.95 7.86-6.71v-43.87c0-3.76-3.45-6.71-7.86-6.71Z" fill="#0b1236"/>
  <path d="M740.56 386.28v43.87c0 1.62-1.94 2.93-4.32 2.93h-4.92v-49.72h4.92c2.38 0 4.32 1.31 4.32 2.92Z" fill="#ccc"/>
  <path d="M539.46 383.36v49.72h-5.32c-2.58 0-4.67-1.31-4.67-2.93v-43.87c0-1.61 2.09-2.92 4.67-2.92Z" fill="#fff" opacity=".4"/>
  <path fill="none" stroke="#0b1236" stroke-linecap="round" stroke-linejoin="round" stroke-width="3" d="M643.12 443.77h66.15"/>
  <g data-name="4KVOil.tif" fill="#132254">
    <path d="M719.64 418.65a6.61 6.61 0 0 1-4.42 3 10.83 10.83 0 0 1-6.81-.61 8 8 0 0 1-2.67-2 4.73 4.73 0 0 1-.72-5.41 7.84 7.84 0 0 1 4.74-4.19 12.9 12.9 0 0 1 7.75-.38 4 4 0 0 1 1.42.63 1.1 1.1 0 0 1 .52 1.08 1.16 1.16 0 0 1-.79 1 1.65 1.65 0 0 1-1.69-.22c-.34-.26-.66-.56-1-.84a4.37 4.37 0 0 0-2.59-1 5.61 5.61 0 0 0-3.43.73 4.87 4.87 0 0 0-1 7.41 6.6 6.6 0 0 0 4.61 2 11.64 11.64 0 0 0 5.59-1.15 3.34 3.34 0 0 1 .44-.17Zm-95.2 3.28q-2.6-4.49-5.2-9c-.39-.67-.77-1.36-1.14-2.05a1.9 1.9 0 0 0-1.77-1.25.26.26 0 0 1-.29-.3c0-.23.16-.25.34-.25h6.1c.16 0 .33 0 .34.24s-.13.29-.33.3h-.18c-.83 0-1.14.26-.82 1.3a10.26 10.26 0 0 0 1 1.94c.88 1.53 1.78 3 2.66 4.56.17.3.25.27.4 0q1.47-2.71 3-5.42a4.51 4.51 0 0 0 .48-1.33.76.76 0 0 0-.78-1h-.49c-.17 0-.27-.09-.26-.29s.12-.24.29-.25h4.35c.17 0 .36 0 .37.25s-.13.29-.32.31a1.84 1.84 0 0 0-1.44 1l-3.8 6.87-2.34 4.19a.87.87 0 0 0-.07.17Zm-71.36-20.11h6.29c.53 0 .53 0 .53-.51V395c0-.42-.06-.48-.44-.42a8.11 8.11 0 0 0-6.17 4.18 6.12 6.12 0 0 0-.66 1.74c-.08.38-.25.49-.63.48h-2.16c-.4 0-.43 0-.33-.43a8.41 8.41 0 0 1 2.78-4.27 12.55 12.55 0 0 1 7.06-2.86c.53 0 .55-.06.55-.6v-1.86c0-.32.1-.45.43-.44.78 0 .78 0 .78.75v10c0 .56 0 .56.55.56h12.57c.19 0 .45-.1.54.13a1.25 1.25 0 0 1 0 .81c0 .17-.22.13-.35.13h-2.12c-.23 0-.36.05-.39.32a8 8 0 0 1-2.69 5.12 11.94 11.94 0 0 1-6.72 3c-.3 0-.37-.06-.37-.33 0-.77 0-.74.71-1a7.89 7.89 0 0 0 5.86-6.11c.26-1.19.29-1-.79-1h-6.29c-.51 0-.51 0-.51.52v10.31c0 .19.09.46-.15.53a1.54 1.54 0 0 1-1 0c-.14-.05-.1-.24-.1-.37v-2c0-.3-.07-.43-.4-.46a12.39 12.39 0 0 1-7.14-2.84 8.07 8.07 0 0 1-3-5.21c0-.39-.2-.52-.59-.5h-2.2c-.31 0-.43-.11-.41-.42v-.3c0-.27.1-.37.37-.36H553Zm3 1.07h-3.35c-.36 0-.44.1-.39.45a7.29 7.29 0 0 0 1 2.89 8.37 8.37 0 0 0 6 4c.46.08.47.06.47-.39v-6.52c0-.32-.09-.43-.42-.42Zm44.4 13.02v3.83c0 .83.13 1 1 1h.41c.21 0 .28.11.28.31s-.07.31-.28.31l-1.22-.06c-1.53 0-3.06 0-4.58.06-.24 0-.46 0-.43-.34s.08-.27.27-.28.47 0 .7-.06a.61.61 0 0 0 .61-.54 2.69 2.69 0 0 0 .06-.63v-8.08a1.1 1.1 0 0 0-.93-1.17c-.13 0-.33 0-.31-.25s.18-.18.31-.21a26 26 0 0 0 3.52-1.19c.48-.19.63-.08.64.44v.89c0 .77-.05.75.64.41a23.17 23.17 0 0 1 2.65-1.17 9.11 9.11 0 0 1 5-.43 3.42 3.42 0 0 1 2.81 3.42c.09 2.18 0 4.37 0 6.55v.63c0 1.26.1 1.36 1.34 1.39.22 0 .39 0 .39.31s-.17.32-.39.31c-1.52-.09-3.05-.09-4.57-.06-.4 0-.79 0-1.19.06-.21 0-.36-.05-.36-.31s.13-.32.35-.31h.37c.73-.09.91-.24.92-1v-7.44a1.77 1.77 0 0 0-1.16-1.64 5.55 5.55 0 0 0-3.39-.32 18.38 18.38 0 0 0-3.15 1 .49.49 0 0 0-.3.53c0 1.38-.01 2.71-.01 4.04Zm99.84 1.6a.55.55 0 0 1 0 .47 4.36 4.36 0 0 1-1.65 2.24 7.87 7.87 0 0 1-4 1.56 9.87 9.87 0 0 1-6.15-1.11 6.42 6.42 0 0 1-3.47-4.5 5.31 5.31 0 0 1 1.32-4.49 8 8 0 0 1 4.82-2.73 9.93 9.93 0 0 1 6 .52 5.15 5.15 0 0 1 3.28 4.51c0 .38 0 .44-.47.44h-11c-.51 0-.51 0-.51.52a4.78 4.78 0 0 0 3.88 4.95 8.17 8.17 0 0 0 7-1.52 5.87 5.87 0 0 0 .95-.86Zm-7.47-4.21h3.71c.43 0 .48-.05.44-.48a3.12 3.12 0 0 0-1.64-2.58 4.72 4.72 0 0 0-2.48-.51 4.16 4.16 0 0 0-4.1 3.1c-.13.42-.1.47.35.47Zm-42.09 4.21a3.47 3.47 0 0 1-1.24 2.29 8.09 8.09 0 0 1-4.85 1.93 10.28 10.28 0 0 1-5.59-1 7 7 0 0 1-2.83-2.52 5.38 5.38 0 0 1 .78-6.79 8.59 8.59 0 0 1 5.37-2.56 9.74 9.74 0 0 1 4.93.52 5.36 5.36 0 0 1 3.28 3.15 4.68 4.68 0 0 1 .28 1.49c0 .26-.1.36-.35.35h-11c-.57 0-.55 0-.57.55a4.93 4.93 0 0 0 4.55 5.15 8.22 8.22 0 0 0 6.45-1.75c.29-.27.5-.57.79-.81Zm-7.53-4.21H647c.23 0 .42 0 .39-.33a3.28 3.28 0 0 0-1.23-2.45 4.45 4.45 0 0 0-3-.79 4.17 4.17 0 0 0-4.07 3.15c-.11.4-.1.42.31.42Zm23.21-2.8v.79c0 .13 0 .25-.18.27s-.29 0-.35-.14a2.79 2.79 0 0 0-2.7-1.71 8.74 8.74 0 0 0-3.06.1 3.05 3.05 0 0 0-.88.4 1.46 1.46 0 0 0-.14 2.43 5.37 5.37 0 0 0 1.77.93l3 1a8.7 8.7 0 0 1 2.34 1.12 2.76 2.76 0 0 1 .14 4.61 7.18 7.18 0 0 1-3.54 1.44 12.24 12.24 0 0 1-6.36-.71.57.57 0 0 1-.44-.62c0-.56-.09-1.11-.13-1.67 0-.13 0-.28.15-.32a.29.29 0 0 1 .35.2 3.91 3.91 0 0 0 3.47 2.2 7.82 7.82 0 0 0 2.73-.07 2.93 2.93 0 0 0 1-.47 1.59 1.59 0 0 0 .27-2.38 4 4 0 0 0-1.51-1c-1.26-.52-2.58-.86-3.84-1.4a5.32 5.32 0 0 1-1.92-1.25 2.78 2.78 0 0 1 .38-4.16 6.78 6.78 0 0 1 3.79-1.39 13.38 13.38 0 0 1 5.1.62c.37.11.58.28.51.69a3 3 0 0 0 0 .52Zm-79.04-7.69h2.82c.2 0 .42 0 .41.29s-.22.24-.4.25h-.08c-.94 0-1.19.28-1.19 1.21v14.96c0 1.12.13 1.25 1.25 1.27.16 0 .34-.05.41.16a.3.3 0 0 1-.3.45h-1.15c-1.46 0-2.93-.06-4.39.05a3.2 3.2 0 0 1-.44 0c-.2 0-.24-.15-.24-.31s.06-.29.25-.3.43 0 .63 0c.54-.07.66-.2.74-.72a5.26 5.26 0 0 0 .07-.89c0-2.48.09-5 .06-7.43 0-2.31-.05-4.61-.06-6.92v-.22c-.11-1-.26-1.19-1.31-1.24-.19 0-.36 0-.36-.26s.19-.28.38-.28ZM682.18 420a1.69 1.69 0 0 1-.76.92 5.2 5.2 0 0 1-3.22.85 6.68 6.68 0 0 1-2.46-.51 3.5 3.5 0 0 1-2.26-3.37v-7c0-.56 0-.56-.58-.56h-1c-.25 0-.34-.09-.38-.34-.12-.8-.12-.82.68-.82h.93c.31 0 .36-.09.35-.35v-1.67c0-.37.1-.51.48-.5h2.27c.35 0 .5.11.48.47v1.6c0 .33.09.46.44.45h4c.37 0 .54.11.48.48a1.5 1.5 0 0 0 0 .3c0 .3-.11.38-.39.38h-4.2c-.35 0-.48.08-.48.45v6.89a2.66 2.66 0 0 0 2.82 2.91 4.43 4.43 0 0 0 2.55-.5 1.28 1.28 0 0 1 .25-.08Z"/>
    <path d="M570.25 401h-1.16a.36.36 0 0 1-.41-.32 8.12 8.12 0 0 0-6.19-5.94c-.28-.08-.39-.2-.37-.49 0-.73-.21-.83.79-.67a11.54 11.54 0 0 1 6.74 3.41 7.87 7.87 0 0 1 2 3.51c.12.48.11.5-.4.5Z"/>
  </g>
  <circle cx="714.5" cy="443.7" r="1.83" fill="#090e40"/>
  <path fill="none" stroke="#0b1236" stroke-linecap="round" stroke-linejoin="round" stroke-width="3" d="M618.05 373.16H551.9"/>
  <path d="M273.09 488.42s10.61 14.37 25.08 37.68c13.84 22.29 12 59.82-15.35 68.1s-60.95 9.51-85-7.64C183 576 182.48 556.84 188.43 541c5.45-14.54 15.64-25.4 25-37.39 8.81-11.29 15.9-25.68 8.8-39.68-8.41-16.58-11.91-11.15-13.32-21.91s15.93-20.2 27.55-13.67 12.54-2.09 20.49-2.5 9.87 9.58 8.36 12.68c0 0 14.05-5.3 15.24 8.28s-16.79 16-13.39 28.51a48.24 48.24 0 0 0 5.93 13.1Z" fill="#83ce3a" stroke="#090e40" stroke-linecap="round" stroke-linejoin="round" stroke-width="3"/>
  <path d="M227.46 428.09h-.37a22.66 22.66 0 0 0-10.24 3.37c-4 2.67-6.47 6.76-6 10.14.61 4.7 1 5.3 3.08 7.3s5.74 5.67 10 14.08c6.26 12.34 3.65 25.68-8.6 41.39-1.74 2.22-3.51 4.39-5.27 6.57-7.75 9.61-15.52 19-19.82 30.48-5.24 14-5.73 33.66 8.55 43.84 2.35 1.68 5.22 1.75 7.74 3-14.22-10.66-14.59-29.46-8.73-45.09 5.44-14.56 15.65-25.42 25-37.4 8.82-11.29 14.88-25.2 8.81-39.68-9.55-22.79-7.25-35.37 1-37.19v-.11a16.62 16.62 0 0 0-5.15-.68" fill="#bdef84"/>
  <path d="M194.29 560.71a53.63 53.63 0 0 1 2.73-14.6" fill="#d392ff" stroke="#090e40" stroke-linecap="round" stroke-linejoin="round" stroke-width="3"/>
  <path d="M296.35 526.1c-14.47-23.31-25.08-37.68-25.08-37.68a47.89 47.89 0 0 1-5.93-13.14c-3.4-12.53 14.56-14.92 13.38-28.51s-15.23-8.29-15.23-8.29a5.64 5.64 0 0 0 .45-2.09 15.74 15.74 0 0 1-2 3.15c1.69 1.39-3.72 7.57-4.7 11.16-4.37 16-8.78 12.21-5.39 24.74a48.24 48.24 0 0 0 5.93 13.14s10.62 14.37 25.08 37.68c13.84 22.29 14.59 54.69-12.42 64-24.41 8.44-46.62 2.93-60.74 1.38 3.84 6.67 43.49 12.73 73.4 2.45 27.01-9.26 27.08-45.7 13.25-67.99Z" fill="#75b234"/>
  <path d="M265.31 438.49s-7.54 12.53-11.24 25.66M239.33 443s7.31 10.43 4.63 23M237 478.5s-1.79 14.22-7.69 23.5m28.27-23.91a64.52 64.52 0 0 0 10.89 20.52m24.02 46.16s7.13 34.76-14.52 41.3" fill="none" stroke="#090e40" stroke-linecap="round" stroke-linejoin="round" stroke-width="3"/>
  <path d="M148.53 599.63c.09 3.88 9.32 6.81 20.6 6.55s20.35-3.64 20.26-7.53l.33-8.24-40.85 1Z" fill="#ffd000" stroke="#090e40" stroke-linecap="round" stroke-linejoin="round" stroke-width="3"/>
  <path d="M148.53 599.63c.09 3.88 9.32 6.81 20.6 6.55s20.35-3.64 20.26-7.53l.33-8.24-40.85 1Z" fill="#090e40" opacity=".4"/>
  <ellipse cx="169.3" cy="590.9" rx="20.43" ry="6.1" transform="rotate(-1.37 168.62792592 588.83101208)" fill="#ffd000" stroke="#090e40" stroke-linecap="round" stroke-linejoin="round" stroke-width="3"/>
  <ellipse cx="169.3" cy="590.9" rx="20.43" ry="6.1" transform="rotate(-1.37 168.62792592 588.83101208)" fill="#fff" opacity=".2"/>
  <ellipse cx="169.3" cy="590.9" rx="20.43" ry="6.1" transform="rotate(-1.37 168.62792592 588.83101208)" fill="none" stroke="#090e40" stroke-linecap="round" stroke-linejoin="round" stroke-width="3"/>
  <path d="m177.08 595.84 13-22.73-4.28-4.5c.61-.05-2.65-.82 4.32-.79 9.25 0 19.41 6.07 18.91 18.84-.56 14.27-9.7 17.22-18.95 17.08-6.07-.1-11.08-6.85-11.68-7" fill="#ffd000" stroke="#090e40" stroke-linecap="round" stroke-linejoin="round" stroke-width="3"/>
  <ellipse cx="184.53" cy="585.82" rx="18.12" ry="17.07" transform="rotate(-87.37 184.54317304 585.82227514)" fill="#ffd000" stroke="#090e40" stroke-linecap="round" stroke-linejoin="round" stroke-width="3"/>
  <path d="M183.67 569.23h-.08c-7.79.09-14.29 6.84-14.68 15.79a17 17 0 0 0 3.74 11.79 13.93 13.93 0 0 0 10.17 5.36h.57a13.3 13.3 0 0 0 1.68-.1c-5.51-1.88-11.9-8.71-10.93-17.08.73-6.3 4.25-14 15.58-14.33a13.25 13.25 0 0 0-5.33-1.43h-.72" fill="#ffdd92"/>
  <path d="M294.14 601.29c.09 3.8 9.09 6.66 20.11 6.4s19.88-3.55 19.79-7.35l.33-8.05-39.9 1Z" fill="#ffd000" stroke="#090e40" stroke-linecap="round" stroke-linejoin="round" stroke-width="3"/>
  <path d="M294.14 601.29c.09 3.8 9.09 6.66 20.11 6.4s19.88-3.55 19.79-7.35l.33-8.05-39.9 1Z" fill="#090e40" opacity=".4"/>
  <ellipse cx="314.42" cy="592.77" rx="19.96" ry="5.96" transform="rotate(-1.37 313.32424109 590.56101208)" fill="#ffd000" stroke="#090e40" stroke-linecap="round" stroke-linejoin="round" stroke-width="3"/>
  <ellipse cx="314.42" cy="592.77" rx="19.96" ry="5.96" transform="rotate(-1.37 313.32424109 590.56101208)" fill="#090e40" opacity=".2"/>
  <path d="M284.49 586.6c.09 3.8 9.1 6.66 20.12 6.4s19.88-3.55 19.79-7.35l.33-8-39.91.95Z" fill="#ffd000" stroke="#090e40" stroke-linecap="round" stroke-linejoin="round" stroke-width="3"/>
  <path d="M284.49 586.6c.09 3.8 9.1 6.66 20.12 6.4s19.88-3.55 19.79-7.35l.33-8-39.91.95Z" fill="#090e40" opacity=".4"/>
  <ellipse cx="304.77" cy="578.08" rx="19.96" ry="5.96" transform="rotate(-1.37 303.45750247 576.22229902)" fill="#ffd000" stroke="#090e40" stroke-linecap="round" stroke-linejoin="round" stroke-width="3"/>
  <ellipse cx="304.77" cy="578.08" rx="19.96" ry="5.96" transform="rotate(-1.37 303.45750247 576.22229902)" fill="#090e40" opacity=".2"/>
  <path d="M273.28 604.56c2.55 2.82 11.24-.89 19.42-8.28s12.75-15.66 10.2-18.48l-5-6.31-29.62 26.76Z" fill="#ffd000" stroke="#090e40" stroke-linecap="round" stroke-linejoin="round" stroke-width="3"/>
  <path d="M273.28 604.56c2.55 2.82 11.24-.89 19.42-8.28s12.75-15.66 10.2-18.48l-5-6.31-29.62 26.76Z" fill="#090e40" opacity=".4"/>
  <ellipse cx="283.09" cy="584.87" rx="19.96" ry="5.96" transform="rotate(-42.1 283.0790287 584.85331165)" fill="#ffd000" stroke="#090e40" stroke-linecap="round" stroke-linejoin="round" stroke-width="3"/>
  <ellipse cx="183.98" cy="585.52" rx="18.12" ry="17.07" transform="rotate(-87.37 183.98843772 585.52267885)" fill="none" stroke="#090e40" stroke-linecap="round" stroke-linejoin="round" stroke-width="3"/>
  <path d="M245.12 550.25h-4.08l.19 15.64-11 .13-.54-45.35 18.5-.22c8.83-.11 14.55 6.22 14.65 14.58.1 7.69-3.8 11.61-7.18 13.14l7.89 17.45-12.24.15Zm1.46-20.25-5.78.07.13 10.81 5.78-.07c2.92 0 5-2.17 5-5.43s-2.21-5.44-5.13-5.38Z" fill="#090e40"/>
  <path d="M257.2 473.94s-6.95-9.86-22-8.25-14.77 12.43-14.77 12.43 14.11-8.56 36.77-4.18ZM220.46 493c-6.86-.08-14.19-8.6-14.19-8.6l-16 9.53a13.31 13.31 0 0 0 9.9 8.26c7.7 1.52 20.21-4.62 20.21-4.62Z" fill="#273d7d" stroke="#090e40" stroke-linecap="round" stroke-linejoin="round" stroke-width="3"/>
  <path d="M220.12 492.75c-2.2 7.55-16.75 2.89-16.75 2.89L193 506.9c41.8 14.89 49-21.94 49-21.94-7.63-.17-14.93 2.24-21.88 7.79Zm53.6-13.75s.61-8.33-7.43-11.38-18-.21-18-.21l9.51 9.09Z" fill="#273d7d" stroke="#090e40" stroke-linecap="round" stroke-linejoin="round" stroke-width="3"/>
  <path d="M223.7 478.41s-10.21 8.3-2.21 13.19c0 0 10.37-9.24 30.79-6.79 8.44 1 13.52 1.8 24.61 8.47 0 0 6.68-15.8-17.12-19.17s-36.07 4.3-36.07 4.3Z" fill="#273d7d" stroke="#090e40" stroke-linecap="round" stroke-linejoin="round" stroke-width="3"/>
  <path d="m233.56 477 .18-.16.09-.09v.19l-.24.06m9.65-3.62" fill="#090e40" opacity=".3"/>
  <circle cx="199.09" cy="541.18" r="1.83" fill="#090e40"/>
  <circle cx="271.5" cy="502.61" r="1.83" fill="#090e40"/>
  <path d="M283.15 578.91c-2.94 3.2-1.86 4.17-.27 6.07 1.41 1.68 4 1.25 7.66-1.14-.5.45-3.17 3.89-3.7 4.32-13.23 11.28-17.8 9.81-17.71 9.23.08-1.27 0-7.31 14-18.48" fill="#ffdd92"/>
  <path d="M164.9 339.31c13.49 2.47 23.31 9.23 32.81 15.76S216 367.62 228 369.47a3.78 3.78 0 0 1 2.39 1.4 3.82 3.82 0 0 1 .4.64 3.75 3.75 0 0 1-.06 3.45l-15.2 28-2.77 5.1a3.75 3.75 0 0 1-4 1.9c-13.5-2.47-23.32-9.22-32.82-15.76s-18.24-12.54-30.27-14.4a3.74 3.74 0 0 1-2.39-1.4 3.82 3.82 0 0 1-.4-.64 3.75 3.75 0 0 1 .06-3.45l17.52-32.29.45-.85a3.76 3.76 0 0 1 3.99-1.86Z" fill="#0b1236" opacity=".2"/>
  <path d="M221.94 358.93c-8.07-2.49-14.74-7.15-22.24-12.4l-2.38-1.66" fill="none" stroke="#090e40" stroke-linecap="round" stroke-linejoin="round" stroke-width="3"/>
  <path d="M207.88 403.88h-.28c-13-2.49-22.57-9.18-31.83-15.65-9.54-6.68-18.56-13-31.09-15a1.51 1.51 0 0 1-1.11-.82 1.5 1.5 0 0 1 0-1.38l18.23-33a1.49 1.49 0 0 1 1.31-.77 1.33 1.33 0 0 1 .28 0c13 2.49 22.57 9.18 31.82 15.65 9.55 6.67 18.57 13 31.1 15a1.49 1.49 0 0 1 1.07 2.2l-18.22 33a1.51 1.51 0 0 1-1.28.77Z" fill="#83ce3a"/>
  <path d="M163.15 338.71c25.67 4.91 37.52 26.55 63 30.68l-15.46 27.91-2.81 5.08c-25.68-4.91-37.52-26.55-63-30.68l17.77-32.16.46-.83m0-3a3 3 0 0 0-2.63 1.55l-.46.83-17.72 32.16a3 3 0 0 0 2.14 4.41c12.19 2 21.07 8.19 30.47 14.77s19.09 13.35 32.41 15.89a2.74 2.74 0 0 0 .56.06 3 3 0 0 0 2.63-1.55l2.8-5.08 15.42-27.91a3 3 0 0 0 .08-2.77 3 3 0 0 0-2.22-1.65c-12.19-2-21.07-8.19-30.48-14.76s-19.08-13.35-32.4-15.9a3.64 3.64 0 0 0-.56-.05Z" fill="#0b1236"/>
  <path d="m145.18 371.75-.26-.05Zm59.02 24.02 15.41-27.89a51.44 51.44 0 0 0 6.5 1.51l-15.42 27.91-2.81 5.08a54.27 54.27 0 0 1-6.42-1.65Z" opacity=".3" fill="#fff"/>
  <path d="m169.65 340.17-.56 1.46-17.47 31.63a50.84 50.84 0 0 0-6.7-1.56l17.77-32.16.46-.83c3.5.67 6.83 1 9.89 2.23-1.11-.29-2.23-.55-3.39-.77Z" fill="#75b234"/>
  <path d="M155.86 367.07c18.31 4.95 30.07 21.78 48.38 26.73l10.93-19.8c-18.31-4.95-30.07-21.78-48.39-26.73Z" fill="#83ce3a"/>
  <path d="M158.85 368c16 5.62 27.16 19.9 43.32 25.18a2.61 2.61 0 0 0 3.09-1.21l8.37-15.16a2.61 2.61 0 0 0-1.45-3.72c-16-5.62-27.16-19.9-43.32-25.18a2.6 2.6 0 0 0-3.09 1.21l-8.37 15.17a2.6 2.6 0 0 0 1.45 3.71Z" fill="#75b234" stroke="#090e40" stroke-miterlimit="10" stroke-width="3"/>
  <circle cx="185.51" cy="370.55" r="6.64" fill="#bdef84" stroke="#0b1236" stroke-linecap="round" stroke-linejoin="round" stroke-width="3"/>
  <path d="M179.7 367.34a6.63 6.63 0 0 1 10.82-1.15 6.63 6.63 0 0 0-6.24 10.88 6.73 6.73 0 0 1-2-.71 6.64 6.64 0 0 1-2.58-9.02Z" fill="#0b1236" opacity=".2"/>
  <circle cx="169.02" cy="353.26" r="1.54" fill="#0b1236"/>
  <circle cx="201.31" cy="388.48" r="1.54" fill="#0b1236"/>
  <circle cx="193.32" cy="342.3" r="1.54" fill="#090e40"/>
</svg>
