<svg data-name="Layer 1" xmlns="http://www.w3.org/2000/svg" viewBox="0 0 800 800">
  <defs>
    <clipPath id="a">
      <path d="M626.16 265.26a105.67 105.67 0 1 1-211.34 0c0-36.47 16.23-97 44.34-116C476 137.85 493 123.9 514.87 123.9c29.18 0 67.65 8.86 86.77 28s24.52 84.19 24.52 113.37" fill="none"/>
    </clipPath>
  </defs>
  <path d="M70.65 593.24h-.48a4 4 0 0 0-.89 2.42c0 18 147.36 32.63 329.14 32.63 180.79 0 327.52-14.45 329.15-32.33H619.05a133.84 133.84 0 0 1-31.82 4 95.93 95.93 0 0 1-28.39-4h-26.59v1.12a4.42 4.42 0 0 1-.62 2.2 7 7 0 0 1-1.53 1.76 16.58 16.58 0 0 1-4.86 2.62 48.61 48.61 0 0 1-15.1 2.52h-1.49a53.5 53.5 0 0 1-10-.89 25.23 25.23 0 0 1-7.4-2.48 8 8 0 0 1-3-2.67 4.2 4.2 0 0 1-.63-2.11h1.49-1.49V598l.08-2H71.53a1.5 1.5 0 0 1-1.5-1.5 1.53 1.53 0 0 1 .62-1.22" fill="#d4d8e5"/>
  <path d="M71.53 596h656.55a1.5 1.5 0 0 0 0-3H71.53a1.5 1.5 0 1 0 0 3" fill="#0b1236"/>
  <path d="M245.58 562h-4.22a6.11 6.11 0 0 0-3.24.93H246c-.14-.35-.27-.66-.37-.93m356-216.78a106.18 106.18 0 0 1-9.24 7.7V422a21.88 21.88 0 0 1 2.74-1.5 12.2 12.2 0 0 1 4.34-1h.53a9.46 9.46 0 0 1 2.77.4v-68.94a18.45 18.45 0 0 0-1.16-5.76m-313.14-11.94h-12.19a22.49 22.49 0 0 0-6.39.92h18.58v-.92" fill="#d4d8e5"/>
  <path d="M260.08 582.73c-1 0-1.8-.78-2.7-2l-.08-.12-.14-.2c-.63-.87-1.36-2-2.13-3.31-.17-.27-.35-.58-.54-.89-2.37-4.12-5.1-9.51-6.64-12.79-.11-.24-.17-.38-.24-.52-.35-.78-.63-1.45-.75-1.82v-.14a1.84 1.84 0 0 1-.06-.47V354.71a20 20 0 0 1 20-19h308.02a15.37 15.37 0 0 1 5.53 1 16 16 0 0 1 10.51 14.42v209.38a2.72 2.72 0 0 1-.1.69v.14c-.06.3-.19.77-.35 1.34l-.07.19c-.47 1.64-1.26 4.1-2.15 6.63l-.49 1.45a53.51 53.51 0 0 1-2.1 5.21 4 4 0 0 1-.76 1.15 1.67 1.67 0 0 1-1.23.57h-12l-23.41.12h-1l-275.1.95h-5.07c-2.09 0-3.8 1.32-5.73 3.27a1.71 1.71 0 0 1-1.24.52" fill="#8c58c4"/>
  <path d="M574.82 337.18a13.84 13.84 0 0 1 5 .9 14.55 14.55 0 0 1 9.55 13.08 5.82 5.82 0 0 1 0 .59v208.76a1.84 1.84 0 0 1-.06.36v.12c-.06.31-.19.75-.34 1.28-.47 1.66-1.3 4.23-2.17 6.74-.17.48-.33 1-.5 1.45a52.93 52.93 0 0 1-2 5 3.48 3.48 0 0 1-.48.76l-.17.13h-12l-15.1.06h-9.35l-270.28.92H267c-2.73 0-4.85 1.75-6.79 3.72l-.17.07c-.32 0-.85-.51-1.51-1.37-.07-.11-.13-.21-.2-.3-.6-.83-1.31-1.94-2.05-3.18-.18-.29-.36-.59-.53-.89-2.42-4.2-5.16-9.64-6.58-12.67l-.26-.55c-.35-.79-.58-1.38-.67-1.62V354.77a18.59 18.59 0 0 1 18.49-17.59h308.09m0-3H266.77a21.49 21.49 0 0 0-21.48 20.43v205.9a3.52 3.52 0 0 0 .06.66 4.44 4.44 0 0 0 .15.52c.15.42.42 1.08.75 1.81l.05.12.19.4v.07c1.56 3.31 4.31 8.76 6.7 12.9v.06l.53.88c.79 1.33 1.55 2.5 2.19 3.39l.09.13.16.23c1 1.32 2.18 2.55 3.89 2.55a3.21 3.21 0 0 0 2.29-1c1.68-1.7 3.12-2.83 4.69-2.84h9.89l270.28-.92h9.36l15.1-.06h12a3.18 3.18 0 0 0 2.3-1 5.67 5.67 0 0 0 1-1.5 56.6 56.6 0 0 0 2.19-5.39v-.05l.25-.73.24-.72c.88-2.52 1.67-5 2.15-6.62l.09-.27c.14-.51.28-1 .37-1.4a1.53 1.53 0 0 0 .06-.25 4.52 4.52 0 0 0 .11-.93V351a17.46 17.46 0 0 0-11.49-15.73 17 17 0 0 0-6-1.09" fill="#0b1236"/>
  <path d="M589.38 355a104.19 104.19 0 0 1-12.11 7.17v59a18.83 18.83 0 0 1 2.13 1c3.09 1.73 5.25 2.29 6.88 2.29a7.28 7.28 0 0 0 3.09-.72V355" fill="#724aa8"/>
  <path d="M266.33 353.53a13.55 13.55 0 0 1-13.6-9.85 18.48 18.48 0 0 0-4.45 11.09v205.81a1.3 1.3 0 0 0 0 .29v.12c.07.31.19.75.34 1.28.47 1.66 1.3 4.23 2.18 6.74.16.48.32 1 .49 1.45.75 2.08 1.49 4 2 5a3.91 3.91 0 0 0 .48.76l.18.13h14.51v-223a17.7 17.7 0 0 1-2.22.16" fill="#ab86db"/>
  <path d="M258.71 593.86a31.86 31.86 0 0 1-21.54-8.13 27 27 0 0 1-8.9-17.63 3.26 3.26 0 0 1 .88-2.52 3.65 3.65 0 0 1 2.71-1.17H380a2.57 2.57 0 0 1 2.58 2.3 8.87 8.87 0 0 0 2.92 5.64 10.8 10.8 0 0 0 7.29 2.75h52.11a10.8 10.8 0 0 0 7.29-2.75 8.87 8.87 0 0 0 2.92-5.65 2.56 2.56 0 0 1 2.58-2.29h148.08a3.65 3.65 0 0 1 2.71 1.17 3.26 3.26 0 0 1 .88 2.52 27.06 27.06 0 0 1-8.9 17.63 31.86 31.86 0 0 1-21.54 8.13H258.71" fill="#5b4087"/>
  <path d="M605.77 565.91a2 2 0 0 1 2.09 2.07 25.44 25.44 0 0 1-8.41 16.64 30.46 30.46 0 0 1-20.53 7.74H258.71a30.46 30.46 0 0 1-20.53-7.74 25.5 25.5 0 0 1-8.42-16.62 2 2 0 0 1 2.1-2.07H380a1.06 1.06 0 0 1 1.09.94 10.29 10.29 0 0 0 3.4 6.6 12.27 12.27 0 0 0 8.3 3.15h52.11a12.29 12.29 0 0 0 8.3-3.15 10.29 10.29 0 0 0 3.4-6.6 1.06 1.06 0 0 1 1.09-.94h148.08m0-3H457.66a4.05 4.05 0 0 0-4.07 3.65 7.37 7.37 0 0 1-2.44 4.68 9.28 9.28 0 0 1-6.28 2.36h-52.11a9.28 9.28 0 0 1-6.28-2.36 7.37 7.37 0 0 1-2.44-4.68 4.05 4.05 0 0 0-4.07-3.65H231.86a5.2 5.2 0 0 0-3.82 1.65 4.81 4.81 0 0 0-1.26 3.67 28.42 28.42 0 0 0 9.38 18.61 33.29 33.29 0 0 0 22.55 8.52h320.21a33.29 33.29 0 0 0 22.55-8.52 28.42 28.42 0 0 0 9.38-18.61 4.81 4.81 0 0 0-1.26-3.67 5.2 5.2 0 0 0-3.82-1.65" fill="#0b1236"/>
  <path d="M280.48 586a35.39 35.39 0 0 1-8.33-20.12h-40.29a2 2 0 0 0-2.1 2.07 25.45 25.45 0 0 0 8.42 16.64 30.46 30.46 0 0 0 20.53 7.74h29.5a29.39 29.39 0 0 1-7.73-6.33Z" fill="#4e3977"/>
  <path d="M271.19 546a9.2 9.2 0 0 1-4.83-1.37 8.88 8.88 0 0 1-3.19-3.25 9.36 9.36 0 0 1-1.33-4.86V360.76a3.77 3.77 0 0 1 0-.55 9.62 9.62 0 0 1 1.73-5 3.28 3.28 0 0 1 .41-.54 9.17 9.17 0 0 1 7.18-3.42h295.28a9.3 9.3 0 0 1 7.12 3.34 9.42 9.42 0 0 1 2.21 6.13v175.84a9.41 9.41 0 0 1-9.33 9.48H271.19" fill="#2f96f4"/>
  <path d="M566.44 352.72a7.74 7.74 0 0 1 6 2.8 8.05 8.05 0 0 1 1.86 5.17v175.87a7.88 7.88 0 0 1-7.83 8H271.19a7.64 7.64 0 0 1-4-1.15 7.41 7.41 0 0 1-2.68-2.71 8.06 8.06 0 0 1-1.13-4.12V360.75a2 2 0 0 1 0-.36 8 8 0 0 1 1.51-4.4 1.41 1.41 0 0 1 .27-.36 7.62 7.62 0 0 1 6.05-2.91h295.23m0-3H271.19a10.61 10.61 0 0 0-8.31 3.94 4 4 0 0 0-.54.71 11 11 0 0 0-2 5.69 4.82 4.82 0 0 0 0 .69v175.81a11 11 0 0 0 1.54 5.63 10.5 10.5 0 0 0 3.72 3.81 10.62 10.62 0 0 0 5.59 1.58h295.25a10.92 10.92 0 0 0 10.83-11V360.69a11.12 11.12 0 0 0-2.55-7.09 10.8 10.8 0 0 0-8.28-3.88" fill="#0b1236"/>
  <path d="M549.16 438v67.38c1.63-2 3.26-4 4.86-6.09q1.35-1.74 2.64-3.56v-45.1c-1.5-1.8-2.69-2.83-3.79-4a11.67 11.67 0 0 1-2.08-2.79 18 18 0 0 1-1.63-5.9m7.5-68c-2.47.63-5 1.19-7.5 1.65v62.77a12.86 12.86 0 0 1 1.75-4.67 18.29 18.29 0 0 1 4.79-5.16c.31-.23.63-.46 1-.67V370m-268.23-17.28h-17.28a7.62 7.62 0 0 0-6.05 2.91 1.41 1.41 0 0 0-.27.36 8 8 0 0 0-1.51 4.4 1.94 1.94 0 0 0 0 .35v6.74a77.44 77.44 0 0 1 8.31 91.45l1.06 24.2a3 3 0 0 1-3 3.14h-.17l-6.2-.35v50.64a8.06 8.06 0 0 0 1.13 4.12 7.41 7.41 0 0 0 2.68 2.71 7.64 7.64 0 0 0 4 1.15h17.28V352.72" fill="#16396f"/>
  <path d="M566.44 352.72a7.74 7.74 0 0 1 6 2.8 8.05 8.05 0 0 1 1.86 5.17v175.87a7.88 7.88 0 0 1-7.83 8H271.19a7.64 7.64 0 0 1-4-1.15 7.41 7.41 0 0 1-2.68-2.71 8.06 8.06 0 0 1-1.13-4.12V360.75a2 2 0 0 1 0-.36 8 8 0 0 1 1.51-4.4 1.41 1.41 0 0 1 .27-.36 7.62 7.62 0 0 1 6.05-2.91h295.23m0-3H271.19a10.61 10.61 0 0 0-8.31 3.94 4 4 0 0 0-.54.71 11 11 0 0 0-2 5.69 4.82 4.82 0 0 0 0 .69v175.81a11 11 0 0 0 1.54 5.63 10.5 10.5 0 0 0 3.72 3.81 10.62 10.62 0 0 0 5.59 1.58h295.25a10.92 10.92 0 0 0 10.83-11V360.69a11.12 11.12 0 0 0-2.55-7.09 10.8 10.8 0 0 0-8.28-3.88" fill="#0b1236"/>
  <path d="M549.14 592.21a29.49 29.49 0 0 1-3 .15h3.32l-.33-.15" fill="#4b3777"/>
  <path d="M463.56 586.35h42.77a1.5 1.5 0 1 0 0-3h-42.77a1.5 1.5 0 0 0 0 3" fill="#0b1236"/>
  <path d="M556.66 450.63v45.08a65.91 65.91 0 0 0 4.55-7.47 7.16 7.16 0 0 1-1.5-1.74 6.22 6.22 0 0 1-.92-3.27 8.86 8.86 0 0 1 1-3.84 16.43 16.43 0 0 1 2-3.06l.48-.57a1.55 1.55 0 0 1-.66-.18 1.51 1.51 0 0 1-.78-1.29v-.06a12.36 12.36 0 0 1 1-4.45 13.69 13.69 0 0 1 2.91-4.39 26.71 26.71 0 0 0-1.91-4.94 52.37 52.37 0 0 0-5.93-9.53l-.24-.29m17.61-87a103.88 103.88 0 0 1-17.61 6.37v53.92a24.33 24.33 0 0 1 13.27-4.08 20.42 20.42 0 0 1 4.33.46v-56.63" fill="#122958"/>
  <path d="M399.86 562h37.91a1.5 1.5 0 0 0 0-3h-37.91a1.5 1.5 0 0 0 0 3m116.75 22.85a2 2 0 1 1-2-2 2 2 0 0 1 2 2m-202.73 0a2 2 0 1 1-2-2 2 2 0 0 1 2 2Zm256.97-29.07a2 2 0 1 1-2-2 2 2 0 0 1 2 2Z" fill="#0b1236"/>
  <path d="M291.47 546a1.5 1.5 0 0 1-1.5-1.5V296.77a1.5 1.5 0 0 1 1.5-1.5h254.69a1.5 1.5 0 0 1 1.5 1.5v247.77a1.5 1.5 0 0 1-1.5 1.5H291.47" fill="#f2f2f2"/>
  <path d="M546.16 296.77v247.77H291.47V296.77h254.69m0-3H291.47a3 3 0 0 0-3 3v247.77a3 3 0 0 0 3 3h254.69a3 3 0 0 0 3-3V296.77a3 3 0 0 0-3-3" fill="#0b1236"/>
  <path d="M291.47 326a1.5 1.5 0 0 1-1.5-1.5v-27.73a1.5 1.5 0 0 1 1.5-1.5h254.68a1.5 1.5 0 0 1 1.5 1.5v27.76a1.5 1.5 0 0 1-1.5 1.5H291.47" fill="#273d7d"/>
  <path d="M546.15 296.77v27.76H291.47v-27.76h254.68m0-3H291.47a3 3 0 0 0-3 3v27.76a3 3 0 0 0 3 3h254.68a3 3 0 0 0 3-3v-27.76a3 3 0 0 0-3-3" fill="#0b1236"/>
  <path fill="#32509a" d="M306.96 296.77h-15.49v27.76h15.49v-27.76"/>
  <path d="M308.1 316a5.33 5.33 0 1 1 5.32-5.33 5.33 5.33 0 0 1-5.32 5.33Z" fill="#d6332f"/>
  <path d="M308.1 306.83a3.83 3.83 0 1 1-3.83 3.82 3.82 3.82 0 0 1 3.83-3.82m0-3a6.83 6.83 0 1 0 6.82 6.82 6.83 6.83 0 0 0-6.82-6.82Z" fill="#0b1236"/>
  <path d="M329.8 316a5.33 5.33 0 1 1 5.33-5.33 5.33 5.33 0 0 1-5.33 5.33Z" fill="#ffd000"/>
  <path d="M329.8 306.83a3.83 3.83 0 1 1-3.82 3.82 3.82 3.82 0 0 1 3.82-3.82m0-3a6.83 6.83 0 1 0 6.83 6.82 6.83 6.83 0 0 0-6.83-6.82Z" fill="#0b1236"/>
  <path d="M351.51 316a5.33 5.33 0 1 1 5.33-5.33 5.33 5.33 0 0 1-5.33 5.33Z" fill="#83ce3a"/>
  <path d="M351.51 306.83a3.83 3.83 0 1 1-3.82 3.82 3.83 3.83 0 0 1 3.82-3.82m0-3a6.83 6.83 0 1 0 6.83 6.82 6.83 6.83 0 0 0-6.83-6.82Z" fill="#0b1236"/>
  <path d="M422.65 306.83h-45.19v7.65H426q-1.81-3.76-3.31-7.65" fill="#1e2f6b"/>
  <path d="M530.66 306.83v7.65h-153.2v-7.65h153.2m0-3h-153.2a3 3 0 0 0-3 3v7.65a3 3 0 0 0 3 3h153.2a3 3 0 0 0 3-3v-7.65a3 3 0 0 0-3-3" fill="#0b1236"/>
  <path d="M546.15 372.14a105.55 105.55 0 0 1-14.2 1.17l-1.29.13v158.85a94.68 94.68 0 0 1 9.1-14.91c2.06-2.82 4.21-5.56 6.39-8.28v-137" fill="#dbdbdb"/>
  <path fill="#fff" d="M291.47 327.57h15.49v216.97h-15.49z"/>
  <path d="M536.9 433.64v32.78a1.5 1.5 0 0 0 3 0v-32.78a1.5 1.5 0 0 0-3 0M326 539h96.93a1.5 1.5 0 1 0 0-3H326a1.5 1.5 0 0 0 0 3m274.44-78.42V528a1.5 1.5 0 0 0 3 0v-67.42a1.5 1.5 0 1 0-3 0m-302.72-33.47v80.8a1.5 1.5 0 1 0 3 0v-80.8a1.5 1.5 0 0 0-3 0m306.18 26.96a2 2 0 1 1-2-2 2 2 0 0 1 2 2Zm32.48-185a2 2 0 1 1-2-2 2 2 0 0 1 2 2" fill="#0b1236"/>
  <path d="M230.4 348.64a77.6 77.6 0 0 1 14.86 9.18v-1.91a74.72 74.72 0 0 0-14.86-7.27" fill="#b5b7c2"/>
  <path d="M245.26 355.91v1.91c1 .8 2 1.62 3 2.48v-2.37c-1-.7-2-1.37-3-2" fill="#0b1236"/>
  <path d="M248.26 357.93v2.37c1.68 1.46 3.31 3 4.88 4.63a79.12 79.12 0 0 1 7.2 8.59v-4.94a75.11 75.11 0 0 0-12.08-10.65" fill="#7b63a9"/>
  <path d="M263.34 372.08V378a77.59 77.59 0 0 1 .43 80.95l1.06 23.91v.14l4.88.28-1.1-25.13a74.51 74.51 0 0 0-5.27-86.07" fill="#132d5e"/>
  <path d="M260.34 368.58v4.94q1.57 2.18 3 4.47v-5.91c-1-1.2-2-2.36-3-3.5" fill="#0b1236"/>
  <path d="M205.31 341.31c-1.36 0-2.7 0-4 .11a77 77 0 0 1 29.12 7.22 74.72 74.72 0 0 1 14.86 7.27v-1.3a20 20 0 0 1 .2-2.05 77.11 77.11 0 0 0-40.18-11.25" fill="#b5b7c2"/>
  <path d="M245.49 352.56a20 20 0 0 0-.2 2.05v1.3c1 .65 2 1.32 3 2v-3.55q-1.4-.93-2.82-1.8" fill="#0b1236"/>
  <path d="M248.31 354.36v3.55a75.11 75.11 0 0 1 12.08 10.65v-4.3a78.44 78.44 0 0 0-12-9.92" fill="#7b63a9"/>
  <path d="M263.34 367.49v4.59a74.51 74.51 0 0 1 5.27 86.07l1.1 25.13-4.88-.28v.15a3 3 0 0 1-.89 2.27 3 3 0 0 1-.61.46l6.2.35h.17a3 3 0 0 0 3-3.14l-1.06-24.2a77.44 77.44 0 0 0-8.31-91.45" fill="#132d5e"/>
  <path d="M263.34 485.88h-.07.07m-3-121.6v4.3c1 1.14 2 2.3 3 3.5v-4.59q-1.45-1.65-3-3.21M145 483.17a86.15 86.15 0 0 1-26.4-37.72 1.5 1.5 0 0 0-2.83 1 89.16 89.16 0 0 0 27.32 39 1.5 1.5 0 0 0 1.91-2.31Z" fill="#0b1236"/>
  <path d="M197.42 494.86a76 76 0 0 1 0-152c.92 0 1.82 0 2.71.05a76 76 0 0 1 62.12 115.68l1.09 24.67a1.5 1.5 0 0 1-.44 1.13 1.52 1.52 0 0 1-1.06.43l-24.3-1.37a75.9 75.9 0 0 1-40.12 11.45" fill="#bbe5ff"/>
  <path d="M197.42 344.32c.89 0 1.77 0 2.65.05a74.51 74.51 0 0 1 60.66 113.79l1.1 24.82v.3l-24.69-1.4a74.52 74.52 0 1 1-39.73-137.56m0-3a77.52 77.52 0 1 0 40.51 143.61l23.74 1.35h.17a3 3 0 0 0 3-3.13v-.3l-1.06-23.91a77.51 77.51 0 0 0-63.6-117.57c-.81 0-1.69-.05-2.75-.05" fill="#0b1236"/>
  <path d="m260.73 458.16 1.1 24.82-7.94-.44-1-22.72A74.5 74.5 0 0 0 189.59 346c-1 0-1.93 0-2.88.06a75.09 75.09 0 0 1 13.36-1.67 74.51 74.51 0 0 1 60.66 113.79Z" fill="#9fc4d6"/>
  <path d="M133.51 418.84a74.51 74.51 0 0 1 69.22-74.32c-1.75-.12-3.52-.21-5.3-.21a74.53 74.53 0 0 0 0 149.05c1.83 0 3.65-.07 5.45-.2a74.51 74.51 0 0 1-69.37-74.32Z" fill="#dcf5ff"/>
  <path d="M222.72 418.28a6.79 6.79 0 0 1-.78 0l-80.77-8.71a7.13 7.13 0 0 1-6.32-7.84l4.59-42.58a7.11 7.11 0 0 1 7.08-6.37 6.34 6.34 0 0 1 .76 0l80.78 8.71a7.13 7.13 0 0 1 6.32 7.84l-2 18.86-2.56 23.73a7.1 7.1 0 0 1-7.07 6.36" fill="#8d58c6"/>
  <path d="M146.52 354.24h.61L227.9 363a5.63 5.63 0 0 1 5 6.19l-.74 6.84-.07.65-1.17 10.84v.52l-2.56 23.74a5.62 5.62 0 0 1-5.58 5h-.62L141.33 408a5.62 5.62 0 0 1-5-6.19l2.69-25 .06-.52 1.16-10.83.07-.65.61-5.62a5.63 5.63 0 0 1 5.59-5m0-3A8.61 8.61 0 0 0 138 359l-.61 5.62-.07.65-1.17 10.83v.51l-2.69 25A8.63 8.63 0 0 0 141 411l80.76 8.7h.94a8.6 8.6 0 0 0 8.56-7.7l2.56-23.74.06-.5 1.18-10.76.07-.66.74-6.82a8.63 8.63 0 0 0-7.65-9.5l-80.77-8.71c-.31 0-.62-.05-.93-.05" fill="#0b1236"/>
  <path d="m145.32 403.47 2.78-25.85.06-.54 1.21-11.23.08-.67.63-5.83a5.78 5.78 0 0 1 2.93-4.44l-5.88-.64a5.64 5.64 0 0 0-6.2 5l-.61 5.62-.07.65-1.16 10.83-.06.52-2.69 25a5.62 5.62 0 0 0 5 6.19l6.24.67a5.81 5.81 0 0 1-2.26-5.28Z" fill="#c58fff"/>
  <path d="m227.9 363-7.32-.79a5.84 5.84 0 0 1 1.23 4.22l-.77 7-.07.67-1.2 11.17-.06.54-2.64 24.48a5.79 5.79 0 0 1-6.39 5.14l-70.1-7.56a6.58 6.58 0 0 0 .75.14l80.77 8.71a5.63 5.63 0 0 0 6.2-5l2.56-23.72v-.52l1.17-10.84.07-.65.74-6.84a5.63 5.63 0 0 0-5-6.19" fill="#5b4087"/>
  <path d="M166.06 379.87 149 378a1.5 1.5 0 0 1-1.33-1.65l1.24-11.35a1.51 1.51 0 0 1 1.49-1.34h.17l13 1.41 4.06.44a1.52 1.52 0 0 1 1.33 1.66l-1.25 11.38a1.49 1.49 0 0 1-1.49 1.34Z" fill="#ffcb39"/>
  <path d="m150.41 365.14 13 1.41 4.05.45-1.24 11.38-4.05-.44-13-1.43 1.25-11.37m0-3a3 3 0 0 0-3 2.67l-1.24 11.38a3 3 0 0 0 2.66 3.3l13 1.43 4.06.44h.32a3 3 0 0 0 1.88-.66 3 3 0 0 0 1.11-2l1.24-11.39a3 3 0 0 0-2.66-3.31l-4-.44-13-1.41a1.83 1.83 0 0 0-.39-.01Z" fill="#0b1236"/>
  <path d="M199.16 385.38a8.74 8.74 0 0 1 .21-17.48h.22a8.74 8.74 0 0 1-.21 17.48Z" fill="#bbe5ff"/>
  <path d="M199.37 369.4h.18a7.24 7.24 0 0 1-.17 14.48h-.18a7.24 7.24 0 0 1 .17-14.48m0-3a10.31 10.31 0 0 0-10.24 10 10.26 10.26 0 0 0 10 10.49h.26a10.3 10.3 0 0 0 10.23-10 10.25 10.25 0 0 0-10-10.49Z" fill="#0b1236"/>
  <path d="M215.06 387.22a8.74 8.74 0 0 1 .21-17.48h.22a8.75 8.75 0 0 1-.22 17.49Z" fill="#e6e6e6"/>
  <path d="M215.27 371.24h.18a7.24 7.24 0 0 1-.18 14.48h-.18a7.24 7.24 0 0 1 .18-14.48m0-3a10.24 10.24 0 0 0-.25 20.48h.25a10.24 10.24 0 0 0 .25-20.47Z" fill="#0b1236"/>
  <path d="M215.45 371.24a7.26 7.26 0 0 0-3.79 1 7.23 7.23 0 0 1 0 12.54 7.16 7.16 0 0 0 3.44 1 7.24 7.24 0 1 0 .36-14.48Z" fill="#ccc"/>
  <path d="M195.9 395.35 146.45 390a1.5 1.5 0 1 0-.32 3l49.45 5.33a1.5 1.5 0 1 0 .32-3m-6.11 7.35-44-4.74a1.5 1.5 0 1 0-.32 3l44 4.75a1.5 1.5 0 0 0 .32-3" fill="#0a1236"/>
  <path fill="#b08e00" d="m162.16617887 377.91127734 1.24056598-11.38259619 4.05598187.4420532-1.24056597 11.3825962z"/>
  <path d="M220.58 395.66a2 2 0 1 1-2-2 2 2 0 0 1 2 2Zm-55.73-23.55a2 2 0 1 1-2-2 2 2 0 0 1 2 2Z" fill="#0a1236"/>
  <path d="M230.13 470.37a7.24 7.24 0 0 1-2.48-.44l-76.17-28.26a7.14 7.14 0 0 1-4.2-9.16l12.93-34.85 2-5.3a7.14 7.14 0 0 1 6.68-4.66 7 7 0 0 1 2.47.45l76.17 28.26a7.14 7.14 0 0 1 4.21 9.15l-6.6 17.78-8.3 22.39a7.16 7.16 0 0 1-6.68 4.64" fill="#2f96f4"/>
  <path d="M168.86 389.21a5.64 5.64 0 0 1 2 .35L247 417.82a5.61 5.61 0 0 1 3.3 7.18l-2.39 6.45-.23.62-3.79 10.21-.18.49-8.31 22.43a5.63 5.63 0 0 1-7.23 3.32L152 440.26a5.63 5.63 0 0 1-3.33-7.23l8.73-23.53.19-.49 3.79-10.22.23-.61 2-5.3a5.6 5.6 0 0 1 5.27-3.67m0-3a8.66 8.66 0 0 0-8.09 5.63l-2 5.29-.22.62-3.79 10.25-.17.47-8.74 23.53a8.63 8.63 0 0 0 5.1 11.08l76.16 28.26a8.51 8.51 0 0 0 3 .54 8.64 8.64 0 0 0 8.08-5.63l8.31-22.38.18-.48 3.79-10.23.23-.63 2.39-6.43A8.65 8.65 0 0 0 248 415l-76.17-28.26a8.82 8.82 0 0 0-3-.53" fill="#0b1236"/>
  <path d="m247 417.82-6.9-2.57a5.81 5.81 0 0 1 .15 4.4l-2.47 6.64-.23.64-3.91 10.53-.19.5-8.56 23.09a5.8 5.8 0 0 1-7.45 3.42l-66.11-24.53a5 5 0 0 0 .7.32l76.16 28.26a5.63 5.63 0 0 0 7.23-3.32l8.31-22.39.18-.49 3.79-10.21.23-.62 2.37-6.49a5.61 5.61 0 0 0-3.32-7.22" fill="#277fc1"/>
  <path d="m157 436.81 9-24.39.2-.5 3.92-10.59.24-.63 2-5.49a5.81 5.81 0 0 1 3.93-3.6l-5.54-2.05a5.61 5.61 0 0 0-7.23 3.32l-2 5.3-.23.61L157.6 409l-.19.49-8.73 23.51a5.63 5.63 0 0 0 3.33 7.23l5.88 2.18a5.81 5.81 0 0 1-.9-5.63" fill="#71c2ff"/>
  <path d="M161.29 397.28a1.5 1.5 0 0 0-1.41 1l-4 11.38a1.5 1.5 0 0 0 .81 1.88l.75-2 .19-.49 3.79-10.22.23-.61.28-.77h-.09a1.34 1.34 0 0 0-.52-.1" fill="#133658"/>
  <path fill="#2578b7" d="m170.44 400.56-.05.14-.24.63-3.93 10.59-.19.51-.84 2.26 67.61 24.97.63-1.7.19-.5 3.91-10.53.23-.64.29-.77-67.61-24.96"/>
  <path d="m248.67 429.45-.76 2-.23.62-3.79 10.21-.18.49-.29.77h.09a1.34 1.34 0 0 0 .52.1 1.52 1.52 0 0 0 .63-.14 1.47 1.47 0 0 0 .78-.86l4-11.39a1.5 1.5 0 0 0-.81-1.87" fill="#133658"/>
  <path d="m238.05 425.52-.29.77-.23.64-3.91 10.53-.19.5-.63 1.7 10.62 3.92.29-.77.18-.49 3.79-10.21.23-.62.76-2h-.09l-10.53-3.89" fill="#216c9d"/>
  <path d="m161.9 397.41-.28.77-.23.61L157.6 409l-.19.49-.75 2h.08l8.45 3.12.84-2.27.2-.5 3.92-10.59.24-.63.05-.14-8.54-3.15" fill="#468ebc"/>
  <path d="m161.29 398.78 86.78 32-.22.62-3.64 10.28-.18.49-86.77-32 .17-.49 3.64-10.27.22-.62m0-3a3 3 0 0 0-1.27.29 3 3 0 0 0-1.56 1.71l-.21.62-3.64 10.27-.18.48a3 3 0 0 0 1.79 3.83L243 445a3.13 3.13 0 0 0 1 .19 3.08 3.08 0 0 0 1.26-.28 3 3 0 0 0 1.56-1.71l.18-.49 3.64-10.28.22-.63a3 3 0 0 0-1.76-3.8l-86.77-32a3.09 3.09 0 0 0-1.04-.22Z" fill="#0b1236"/>
  <path d="m174.08 412 47.66 17.46a1.5 1.5 0 1 0 1-2.81l-47.63-17.45a1.5 1.5 0 0 0-1 2.82m56.61 37.75-15.88-5.9a1.5 1.5 0 1 0-1 2.82l15.88 5.89a1.5 1.5 0 1 0 1-2.81m-2.85 7.7-41.47-15.39a1.5 1.5 0 1 0-1 2.82l41.46 15.38a1.5 1.5 0 0 0 1.05-2.81M210 442.93a2 2 0 1 1-2-2 2 2 0 0 1 2 2Z" fill="#0a1236"/>
  <path d="M117.58 440.75a2 2 0 1 1-2-2 2 2 0 0 1 2 2Zm13.06-95.9 4.09 3.94a1.5 1.5 0 1 0 2.09-2.15l-4.09-3.95a1.5 1.5 0 1 0-2.09 2.16m9.13-6.23.63 5.33a1.5 1.5 0 0 0 3-.35l-.63-5.33a1.5 1.5 0 1 0-3 .35m-12.31 16.99 5.37.13a1.5 1.5 0 0 0 .07-3l-5.36-.13a1.5 1.5 0 1 0-.08 3m173.72 65.04a2 2 0 1 1-2-2 2 2 0 0 1 2 2Z" fill="#0b1236"/>
  <circle cx="306.96" cy="335.39" r="1.96" fill="#0b1236"/>
  <path d="M431.68 537.52a2 2 0 1 1-2-2 2 2 0 0 1 2 2Z" fill="#0b1236"/>
  <circle cx="540.61" cy="536.55" r="2.56" fill="#090e40"/>
  <path d="M616 484.76s10.81 14.64 25.55 38.38c14.1 22.71 12.23 61-15.64 69.38s-62.09 9.7-86.61-7.78c-15.13-10.79-15.61-30.27-9.55-46.45 5.55-14.82 15.94-25.88 25.47-38.1 9-11.49 16.2-26.16 9-40.42-8.56-16.89-12.12-11.36-13.56-22.32s16.22-20.58 28.06-13.92 12.78-2.14 20.88-2.55 10.05 9.76 8.52 12.91c0 0 14.31-5.4 15.52 8.44s-17.1 16.27-13.64 29.05a49 49 0 0 0 6 13.38" fill="#83ce3a"/>
  <path d="m616 484.76-1.2.89s.16.23.48.67c2.26 3.1 12.13 16.88 25 37.61a59 59 0 0 1 8.38 30.43c0 8.25-1.79 16.26-5.58 22.76a29.9 29.9 0 0 1-17.6 14 133.9 133.9 0 0 1-38.25 5.88c-16.93 0-33.55-3.85-47.07-13.5a28.46 28.46 0 0 1-9.64-11.67 35.25 35.25 0 0 1-2.92-14.56 53.32 53.32 0 0 1 3.53-18.46 82.79 82.79 0 0 1 11-19.67c4.44-6.08 9.41-11.89 14.2-18a70.63 70.63 0 0 0 8.55-13.66 37.17 37.17 0 0 0 3.74-15.48 28.27 28.27 0 0 0-3.12-12.94 58.1 58.1 0 0 0-5.68-9.31 77.58 77.58 0 0 0-5.41-5.87 7.67 7.67 0 0 1-1.36-2.31 19.6 19.6 0 0 1-1-4.34 7.79 7.79 0 0 1-.07-1.07 9.5 9.5 0 0 1 1.45-4.9 17.15 17.15 0 0 1 6.76-6 21.32 21.32 0 0 1 9.7-2.44 16.32 16.32 0 0 1 8 2c3.36 1.9 6 2.68 8.36 2.68a10.06 10.06 0 0 0 4.06-.87 43.84 43.84 0 0 0 4.59-2.63 10 10 0 0 1 4.72-1.52h.4a6 6 0 0 1 3.14.82 7.56 7.56 0 0 1 2.92 3.5 11.53 11.53 0 0 1 1 4.45 5.18 5.18 0 0 1-.33 2 1.5 1.5 0 0 0 1.88 2.05v-.07.07-.07.07a17.79 17.79 0 0 1 5.41-.94 8.35 8.35 0 0 1 5.15 1.51 6.57 6.57 0 0 1 1.87 2.37 11.79 11.79 0 0 1 1.06 4.23q.06.6.06 1.17a11.89 11.89 0 0 1-2 6.55c-1.81 2.86-4.7 5.3-7.28 8a21.64 21.64 0 0 0-3.39 4.45 11.56 11.56 0 0 0-1.49 5.65 13.39 13.39 0 0 0 .49 3.49 50.81 50.81 0 0 0 6.25 13.84l1.2-.89 1.24-.84a48 48 0 0 1-5.82-12.89 10.61 10.61 0 0 1-.38-2.7 9.3 9.3 0 0 1 1.93-5.5 30.43 30.43 0 0 1 3.38-3.81 49.65 49.65 0 0 0 5.82-6.35 15.17 15.17 0 0 0 3-9 14 14 0 0 0-.07-1.43 15.06 15.06 0 0 0-1.35-5.29 9.34 9.34 0 0 0-4.43-4.46 12.33 12.33 0 0 0-5.29-1.1 20.16 20.16 0 0 0-6.47 1.14l.53 1.4 1.35.66a7.79 7.79 0 0 0 .63-3.31 14 14 0 0 0-2.23-7.51 9.87 9.87 0 0 0-3.13-3 9.11 9.11 0 0 0-4.66-1.23h-.56a12.2 12.2 0 0 0-4.34 1 44.29 44.29 0 0 0-4.64 2.68 8 8 0 0 1-4.19 1.31c-1.63 0-3.8-.55-6.89-2.29a19.26 19.26 0 0 0-9.47-2.39 24.36 24.36 0 0 0-14.23 4.75 18.29 18.29 0 0 0-4.79 5.16 12.4 12.4 0 0 0-1.89 6.45 12 12 0 0 0 .09 1.46 18.4 18.4 0 0 0 1.68 6.23 11.67 11.67 0 0 0 2.08 2.79 42.33 42.33 0 0 1 10 13.78 25.22 25.22 0 0 1 2.76 11.56 34.26 34.26 0 0 1-3.42 14.18 67.38 67.38 0 0 1-8.2 13.09c-4.74 6.07-9.73 11.9-14.26 18.11a85.65 85.65 0 0 0-11.44 20.38 56.35 56.35 0 0 0-3.72 19.52 38.28 38.28 0 0 0 3.18 15.79A31.74 31.74 0 0 0 538.41 586c14.18 10.1 31.45 14 48.82 14a137 137 0 0 0 39.1-6 33 33 0 0 0 19.33-15.33c4.11-7.07 6-15.59 6-24.27a61.89 61.89 0 0 0-8.84-32c-14.76-23.79-25.59-38.45-25.61-38.48l-1.21.89 1.24-.84-1.24.84" fill="#090e40"/>
  <path d="M569.49 423.3h-.38a23 23 0 0 0-10.42 3.43c-4.05 2.72-6.6 6.89-6.14 10.33.61 4.79 1.05 5.4 3.13 7.44s5.85 5.78 10.19 14.34c6.37 12.58 3.71 26.16-8.77 42.17-1.77 2.26-3.57 4.48-5.36 6.69-7.9 9.8-15.82 19.35-20.2 31.05-5.34 14.27-5.83 34.29 8.71 44.66 2.4 1.72 5.32 1.79 7.89 3.05-14.48-10.87-14.86-30-8.89-45.94 5.54-14.84 15.94-25.9 25.46-38.1 9-11.51 15.16-25.68 9-40.43-9.73-23.22-7.39-36 1.05-37.88V424a16.92 16.92 0 0 0-5.25-.69" fill="#bdef84"/>
  <path d="M535.7 558.41a55 55 0 0 1 2.79-14.88" fill="#d392ff"/>
  <path d="M537.2 558.47a53.35 53.35 0 0 1 2.71-14.47 1.5 1.5 0 0 0-2.85-.94 56.17 56.17 0 0 0-2.85 15.29 1.5 1.5 0 1 0 3 .12Z" fill="#090e40"/>
  <path d="M639.67 523.14c-14.73-23.74-25.55-38.38-25.55-38.38a48.94 48.94 0 0 1-6-13.39c-3.46-12.76 14.84-15.2 13.64-29s-15.52-8.44-15.52-8.44a5.91 5.91 0 0 0 .46-2.14 15.69 15.69 0 0 1-2 3.22c1.73 1.41-3.79 7.71-4.79 11.36-4.45 16.33-8.94 12.44-5.49 25.2a49.44 49.44 0 0 0 6 13.4s10.82 14.63 25.55 38.38C640 546 640.79 579 613.27 588.53c-24.86 8.6-47.49 3-61.88 1.41 3.91 6.8 44.31 13 74.78 2.49 27.53-9.43 27.59-46.58 13.5-69.29Z" fill="#75b234"/>
  <path d="M606.77 433.12c0 .06-7.77 12.88-11.61 26.51a1.5 1.5 0 1 0 2.89.81 108.09 108.09 0 0 1 7-17.83c1.18-2.41 2.25-4.4 3-5.79.38-.69.69-1.23.91-1.6.1-.19.19-.33.24-.42a.55.55 0 0 0 .08-.14 1.5 1.5 0 0 0-2.57-1.54Zm-26.42 6.26.14-.09-.14.09.14-.09-.14.09a27.6 27.6 0 0 1 2.57 4.93 31.32 31.32 0 0 1 2.49 11.91 26 26 0 0 1-.57 5.45 1.5 1.5 0 0 0 2.93.63 28.92 28.92 0 0 0 .64-6.08 34.62 34.62 0 0 0-2.78-13.22 30.65 30.65 0 0 0-2.82-5.34 1.5 1.5 0 1 0-2.46 1.72Zm-2.65 35.08a.86.86 0 0 1 0 .15 78.81 78.81 0 0 1-1.84 9 52 52 0 0 1-5.75 14.18 1.5 1.5 0 0 0 2.53 1.61c3.15-5 5.13-11.06 6.36-16a81.76 81.76 0 0 0 1.7-8.6 1.5 1.5 0 0 0-3-.38Zm21.03.17a67 67 0 0 0 11.36 21.44 1.5 1.5 0 1 0 2.36-1.85 69.07 69.07 0 0 1-8.45-14.17c-.85-1.9-1.43-3.46-1.81-4.55-.18-.54-.32-1-.4-1.24s-.08-.25-.1-.32v-.08a1.5 1.5 0 1 0-2.9.78Zm35.54 67.84a70.51 70.51 0 0 1 1.1 12.38c0 5.31-.66 11.47-2.86 16.65a21.13 21.13 0 0 1-4.53 6.87 17.76 17.76 0 0 1-7.48 4.39 1.5 1.5 0 0 0 .87 2.87 20.81 20.81 0 0 0 8.72-5.12 26.75 26.75 0 0 0 6.69-12.27 52.52 52.52 0 0 0 1.59-13.39 70.67 70.67 0 0 0-1.18-13 1.5 1.5 0 0 0-2.94.61Z" fill="#090e40"/>
  <path d="M489.08 598.05c.1 4 9.49 7 21 6.67s20.73-3.7 20.64-7.66l.34-8.4-41.62 1-.35 8.39" fill="#b08e00"/>
  <path d="M489.08 598.05h-1.49a4.2 4.2 0 0 0 .63 2.11 8 8 0 0 0 3 2.67 25.23 25.23 0 0 0 7.4 2.48 53.5 53.5 0 0 0 10 .89h1.49a48.61 48.61 0 0 0 15.1-2.52 16.58 16.58 0 0 0 4.86-2.62 7 7 0 0 0 1.53-1.76 4.42 4.42 0 0 0 .62-2.2v-.1h-1.5l1.5.06.34-8.39a1.51 1.51 0 0 0-.43-1.12 1.52 1.52 0 0 0-1.11-.45l-41.62 1a1.49 1.49 0 0 0-1.46 1.44l-.34 8.39v.1h1.49l1.5.06.29-7 38.62-.92-.28 6.8v.12a1.3 1.3 0 0 1-.22.69 5.54 5.54 0 0 1-2 1.78 24.33 24.33 0 0 1-6.93 2.48 51.79 51.79 0 0 1-10 1.15h-1.42a43 43 0 0 1-13.3-1.84 12.29 12.29 0 0 1-3.71-1.87 3.64 3.64 0 0 1-.81-.87 1.36 1.36 0 0 1-.21-.64h-1.5l1.5.06-1.5-.06" fill="#090e40"/>
  <path d="M531.05 588.66c.08 3.44-9.17 6.44-20.66 6.72s-20.88-2.29-21-5.72 9.17-6.44 20.66-6.72 20.88 2.29 21 5.72" fill="#ffd000"/>
  <path d="M531.05 588.66h-1.5a.77.77 0 0 1-.16.42 5.57 5.57 0 0 1-2 1.52 27.18 27.18 0 0 1-7 2.19 60.33 60.33 0 0 1-10 1h-1.64a49 49 0 0 1-13.21-1.59 13.2 13.2 0 0 1-3.67-1.6 2.88 2.88 0 0 1-.75-.72.63.63 0 0 1-.15-.37.77.77 0 0 1 .16-.42 5.48 5.48 0 0 1 2-1.52 27.05 27.05 0 0 1 7-2.19 60.22 60.22 0 0 1 10.05-1h1.64A48.86 48.86 0 0 1 525 586a12.94 12.94 0 0 1 3.67 1.6 3 3 0 0 1 .76.72.63.63 0 0 1 .15.37h3a3.74 3.74 0 0 0-.67-2 7.6 7.6 0 0 0-3-2.33 27.57 27.57 0 0 0-7.27-2.12 61.46 61.46 0 0 0-9.86-.76h-1.71a55.72 55.72 0 0 0-15.07 2.19 17.39 17.39 0 0 0-4.85 2.29 6.42 6.42 0 0 0-1.56 1.56 3.71 3.71 0 0 0-.67 2.09v.07a3.66 3.66 0 0 0 .67 2 7.51 7.51 0 0 0 3 2.33 27.45 27.45 0 0 0 7.27 2.12 60.24 60.24 0 0 0 9.86.76h1.71a55.79 55.79 0 0 0 15.05-2.23 17.39 17.39 0 0 0 4.85-2.29 6.42 6.42 0 0 0 1.56-1.56 3.76 3.76 0 0 0 .67-2.09v-.07h-1.5" fill="#090e40"/>
  <path d="M511.8 584.42h-1.64a60.22 60.22 0 0 0-10.05 1 27.05 27.05 0 0 0-7 2.19 5.48 5.48 0 0 0-2 1.52.77.77 0 0 0-.16.42.59.59 0 0 0 .15.36 2.88 2.88 0 0 0 .75.72 13.2 13.2 0 0 0 3.67 1.6 48.75 48.75 0 0 0 13.18 1.59h1.64a60.33 60.33 0 0 0 10-1 27.18 27.18 0 0 0 7-2.19 5.57 5.57 0 0 0 2-1.52.77.77 0 0 0 .16-.42.63.63 0 0 0-.15-.37 3 3 0 0 0-.76-.72A12.94 12.94 0 0 0 525 586a48.62 48.62 0 0 0-13.17-1.59" fill="#ffd933"/>
  <path d="M490.93 589.63a.77.77 0 0 1 .16-.42 5.48 5.48 0 0 1 2-1.52 27.05 27.05 0 0 1 7-2.19 60.22 60.22 0 0 1 10.05-1h1.64A48.62 48.62 0 0 1 525 586a12.94 12.94 0 0 1 3.67 1.6 3 3 0 0 1 .76.72.63.63 0 0 1 .15.37.77.77 0 0 1-.16.42 5.57 5.57 0 0 1-2 1.52 27.18 27.18 0 0 1-7 2.19 60.33 60.33 0 0 1-10 1h-1.64a48.75 48.75 0 0 1-13.18-1.59 13.2 13.2 0 0 1-3.67-1.6 2.88 2.88 0 0 1-.75-.72.59.59 0 0 1-.15-.36m20.84-6.71h-1.68c-11.49.28-20.74 3.28-20.66 6.72.07 3.26 8.56 5.74 19.28 5.74h1.68c11.49-.28 20.74-3.28 20.66-6.72h-1.5 1.5c-.08-3.26-8.57-5.74-19.28-5.74" fill="#3a3e66"/>
  <path d="M531.05 588.66h-1.5a.77.77 0 0 1-.16.42 5.57 5.57 0 0 1-2 1.52 27.18 27.18 0 0 1-7 2.19 60.33 60.33 0 0 1-10 1h-1.64a49 49 0 0 1-13.21-1.59 13.2 13.2 0 0 1-3.67-1.6 2.88 2.88 0 0 1-.75-.72.63.63 0 0 1-.15-.37.77.77 0 0 1 .16-.42 5.48 5.48 0 0 1 2-1.52 27.05 27.05 0 0 1 7-2.19 60.22 60.22 0 0 1 10.05-1h1.64A48.86 48.86 0 0 1 525 586a12.94 12.94 0 0 1 3.67 1.6 3 3 0 0 1 .76.72.63.63 0 0 1 .15.37h3a3.74 3.74 0 0 0-.67-2 7.6 7.6 0 0 0-3-2.33 27.68 27.68 0 0 0-7.27-2.12 61.46 61.46 0 0 0-9.86-.76h-1.72a55.77 55.77 0 0 0-15 2.23 17.39 17.39 0 0 0-4.85 2.29 6.42 6.42 0 0 0-1.56 1.56 3.71 3.71 0 0 0-.67 2.09v.07a3.66 3.66 0 0 0 .67 2 7.51 7.51 0 0 0 3 2.33 27.08 27.08 0 0 0 7.27 2.12 60.24 60.24 0 0 0 9.86.76h1.71a55.79 55.79 0 0 0 15.05-2.23 17.39 17.39 0 0 0 4.85-2.29 6.42 6.42 0 0 0 1.56-1.56 3.76 3.76 0 0 0 .67-2.09v-.07Z" fill="#090e40"/>
  <path d="M518.17 594.19 531.42 571l-4.36-4.59c.62 0-2.7-.83 4.4-.81 9.43 0 19.77 6.2 19.26 19.21-.57 14.53-9.87 17.54-19.3 17.39-6.18-.1-11.28-7-11.89-7.08" fill="#b08e00"/>
  <path d="m519.47 594.94 13.25-23.16a1.51 1.51 0 0 0-.21-1.78l-4.36-4.58-1.09 1 .11 1.5a1.73 1.73 0 0 0 .52-.12 1.49 1.49 0 0 0 .56-.39 1.75 1.75 0 0 0 .29-.45 1.65 1.65 0 0 0 .11-.57 1.58 1.58 0 0 0-.19-.73 1.7 1.7 0 0 0-.35-.43 1.63 1.63 0 0 0-.22-.17l-.53.7.66-.56c-.09-.11-.13-.13-.13-.14l-.53.7.66-.56-1 .83 1.15-.55a1.09 1.09 0 0 0-.19-.28l-1 .83 1.15-.55-1.25.6h1.38a1.45 1.45 0 0 0-.13-.6l-1.25.6 1.27.59a1.45 1.45 0 0 0 .13-.59h-1.4l1.27.59-1.19-.55.7 1.11a1.27 1.27 0 0 0 .49-.56l-1.19-.55.7 1.11-.44-.7.27.79a.68.68 0 0 0 .17-.09l-.44-.7.27.79a5.38 5.38 0 0 1 1-.11c.6 0 1.46-.07 2.65-.07h.31a19.44 19.44 0 0 1 12.14 4.17 15.05 15.05 0 0 1 4.07 5.19 17.08 17.08 0 0 1 1.57 7.43v.86a21.68 21.68 0 0 1-1.72 8.14 12.05 12.05 0 0 1-6.25 6.18 22.56 22.56 0 0 1-9.18 1.63h-.64a8.94 8.94 0 0 1-3.74-1 20.43 20.43 0 0 1-4.75-3.44c-.63-.59-1.15-1.12-1.57-1.54-.21-.21-.39-.39-.57-.55l-.31-.25a2.5 2.5 0 0 0-.25-.14 1.56 1.56 0 0 0-.47-.16 1.5 1.5 0 1 0-.5 3l.21-1.27-.64 1.12a1.14 1.14 0 0 0 .43.15l.21-1.27-.64 1.12.32-.56-.4.51h.08l.32-.56-.4.51a5.81 5.81 0 0 1 .44.41c.42.41 1 1 1.79 1.76a24.4 24.4 0 0 0 4.37 3.3 12.49 12.49 0 0 0 6 1.83h.68a29.86 29.86 0 0 0 7.07-.76 16.14 16.14 0 0 0 9-5.45c2.38-2.95 3.84-7.08 4.05-12.63v-1a20.12 20.12 0 0 0-1.86-8.72 18.53 18.53 0 0 0-8.06-8.35 23.18 23.18 0 0 0-10.85-2.72h-.32a35.46 35.46 0 0 0-3.71.15 4.61 4.61 0 0 0-1 .24 2 2 0 0 0-.62.39 2.12 2.12 0 0 0-.34.48 1.73 1.73 0 0 0-.15.68 1.49 1.49 0 0 0 .19.74 1.61 1.61 0 0 0 .42.53 1.94 1.94 0 0 0 .27.21l.25-.35-.26.34.25-.35-.26.34.75-1-.91.82a1.22 1.22 0 0 0 .16.15l.75-1-.91.82 1.06-1-1.26.68a1.37 1.37 0 0 0 .2.28l1.06-1-1.26.68 1.3-.7h-1.47a1.51 1.51 0 0 0 .17.7l1.3-.7-1.38-.56a1.38 1.38 0 0 0-.1.56h1.48l-1.38-.56 1.37.56-.86-1.2a1.51 1.51 0 0 0-.51.64l1.37.56-.86-1.2.83 1.16-.32-1.4a1.46 1.46 0 0 0-.51.24l.83 1.16-.32-1.4.27 1.17.03-.94h-.18l.27 1.17L527 565a1.49 1.49 0 0 0-1 2.52l3.58 3.78-12.69 22.19a1.5 1.5 0 0 0 2.6 1.49Z" fill="#090e40"/>
  <path d="M543.13 584.78c-.47 10.19-8.62 18.08-18.22 17.64s-17-9-16.53-19.23 8.63-18.08 18.22-17.64 17 9.05 16.53 19.23Z" fill="#ffd000"/>
  <path d="m543.13 584.78-1.5-.07a17.48 17.48 0 0 1-5 11.56 15.39 15.39 0 0 1-11 4.67h-.7a15.29 15.29 0 0 1-10.72-5.15 17.45 17.45 0 0 1-4.4-11.67v-.84a17.48 17.48 0 0 1 5-11.56 15.41 15.41 0 0 1 11-4.67h.7a15.27 15.27 0 0 1 10.71 5.15 17.42 17.42 0 0 1 4.4 11.67v.84l1.5.07 1.5.07v-1a20.41 20.41 0 0 0-5.17-13.67 18.29 18.29 0 0 0-12.81-6.15h-.83a18.44 18.44 0 0 0-13.1 5.56 20.49 20.49 0 0 0-5.85 13.53v1a20.41 20.41 0 0 0 5.14 13.65 18.33 18.33 0 0 0 12.81 6.15h.84a18.42 18.42 0 0 0 13.09-5.56 20.5 20.5 0 0 0 5.86-13.53Z" fill="#090e40"/>
  <path d="M524.88 567.08h-.08c-7.94.1-14.56 7-14.95 16.1a17.26 17.26 0 0 0 3.81 12 14.19 14.19 0 0 0 10.34 5.46h.58a16 16 0 0 0 1.71-.1c-5.62-1.92-12.13-8.88-11.14-17.41.75-6.42 4.33-14.3 15.88-14.59a13.65 13.65 0 0 0-5.43-1.47h-.74" fill="#ffdd92"/>
  <path d="M637.42 599.75c.09 3.87 9.27 6.79 20.5 6.52s20.25-3.62 20.16-7.49l.33-8.2-40.65 1Z" fill="#b08e00"/>
  <path d="M637.42 599.75h-1.5a4.22 4.22 0 0 0 .63 2.08 7.9 7.9 0 0 0 2.93 2.62 24.35 24.35 0 0 0 7.24 2.42 52 52 0 0 0 9.77.87H658a47.38 47.38 0 0 0 14.75-2.47 16 16 0 0 0 4.76-2.57A6.41 6.41 0 0 0 679 601a4.31 4.31 0 0 0 .62-2.17v-.1h-1.5l1.5.06.33-8.2a1.48 1.48 0 0 0-.43-1.11 1.52 1.52 0 0 0-1.1-.45l-40.66 1a1.5 1.5 0 0 0-1.46 1.44l-.34 8.2v.1h1.5l1.5.06.28-6.79 37.65-.9-.27 6.6v.12a1.3 1.3 0 0 1-.21.66 5.38 5.38 0 0 1-2 1.72 23.47 23.47 0 0 1-6.76 2.42 51.14 51.14 0 0 1-9.76 1.13h-1.39a41.81 41.81 0 0 1-13-1.79 12.1 12.1 0 0 1-3.61-1.82 3.22 3.22 0 0 1-.78-.85 1.21 1.21 0 0 1-.2-.61h-1.5l1.5.06Z" fill="#090e40"/>
  <path d="M678.41 590.58c.08 3.35-9 6.29-20.18 6.56s-20.39-2.24-20.47-5.59 9-6.29 20.18-6.56 20.39 2.24 20.47 5.59Z" fill="#ffd000"/>
  <path d="M678.41 590.58h-1.5a.69.69 0 0 1-.15.39 5.42 5.42 0 0 1-2 1.47 26.49 26.49 0 0 1-6.81 2.14 59.72 59.72 0 0 1-9.81 1h-1.6a47.58 47.58 0 0 1-12.89-1.55 12.61 12.61 0 0 1-3.57-1.56 2.89 2.89 0 0 1-.73-.69.56.56 0 0 1-.14-.35.65.65 0 0 1 .15-.39 5.21 5.21 0 0 1 2-1.48 26.89 26.89 0 0 1 6.81-2.14 59.71 59.71 0 0 1 9.8-1h1.61a47.69 47.69 0 0 1 12.89 1.58 12.61 12.61 0 0 1 3.57 1.56 3.08 3.08 0 0 1 .73.69.66.66 0 0 1 .14.35h3a3.63 3.63 0 0 0-.66-2 7.46 7.46 0 0 0-2.92-2.29 26.42 26.42 0 0 0-7.12-2.07 58.66 58.66 0 0 0-9.63-.75h-1.68a54 54 0 0 0-14.71 2.18 17.16 17.16 0 0 0-4.74 2.24 6.35 6.35 0 0 0-1.53 1.53 3.64 3.64 0 0 0-.66 2.07v.07a3.52 3.52 0 0 0 .66 2 7.37 7.37 0 0 0 2.92 2.29 26.34 26.34 0 0 0 7.11 2.07 58.79 58.79 0 0 0 9.64.75h1.67a53.92 53.92 0 0 0 14.74-2.23 17 17 0 0 0 4.75-2.24 6.35 6.35 0 0 0 1.53-1.53 3.68 3.68 0 0 0 .66-2.06v-.07Z" fill="#090e40"/>
  <path d="M627.59 584.78c.1 3.87 9.27 6.79 20.5 6.52s20.25-3.62 20.16-7.49l.33-8.2-40.65 1Z" fill="#b08e00"/>
  <path d="M627.59 584.78h-1.49a4.18 4.18 0 0 0 .62 2.08 7.81 7.81 0 0 0 2.93 2.62 24.35 24.35 0 0 0 7.24 2.42 51.28 51.28 0 0 0 9.78.88h1.45a47.81 47.81 0 0 0 14.76-2.46 16.26 16.26 0 0 0 4.76-2.57 7 7 0 0 0 1.5-1.73 4.27 4.27 0 0 0 .61-2.17v-.09h-1.5l1.5.07.33-8.2a1.51 1.51 0 0 0-.43-1.12 1.54 1.54 0 0 0-1.1-.45l-40.66 1a1.5 1.5 0 0 0-1.46 1.44l-.33 8.2v.1h1.49l1.5.06.28-6.79 37.65-.9-.27 6.6v.12a1.32 1.32 0 0 1-.2.66 5.56 5.56 0 0 1-2 1.73 24.2 24.2 0 0 1-6.76 2.42 51.19 51.19 0 0 1-9.77 1.12h-1.38a42.15 42.15 0 0 1-13-1.8 12 12 0 0 1-3.61-1.82 3.58 3.58 0 0 1-.78-.84 1.35 1.35 0 0 1-.2-.61h-1.5l1.5.06Z" fill="#090e40"/>
  <path d="M668.58 575.61c.08 3.36-9 6.29-20.18 6.56s-20.39-2.23-20.47-5.59 9-6.29 20.18-6.55 20.39 2.23 20.47 5.58Z" fill="#ffd000"/>
  <path d="M668.58 575.61h-1.5a.67.67 0 0 1-.15.39 5.33 5.33 0 0 1-1.95 1.47 26.49 26.49 0 0 1-6.81 2.14 58.64 58.64 0 0 1-9.8 1h-1.61a47.55 47.55 0 0 1-12.88-1.55 12.28 12.28 0 0 1-3.58-1.56 2.89 2.89 0 0 1-.73-.69.61.61 0 0 1-.14-.34.67.67 0 0 1 .15-.39 5.42 5.42 0 0 1 1.95-1.48 26.53 26.53 0 0 1 6.81-2.13 58.65 58.65 0 0 1 9.81-1h1.6a47.62 47.62 0 0 1 12.89 1.54 12.58 12.58 0 0 1 3.57 1.57 3.17 3.17 0 0 1 .74.69.57.57 0 0 1 .13.34h3a3.55 3.55 0 0 0-.66-2 7.39 7.39 0 0 0-2.92-2.29 26.34 26.34 0 0 0-7.11-2.07 58.85 58.85 0 0 0-9.64-.74h-1.67a54.34 54.34 0 0 0-14.71 2.17 17.23 17.23 0 0 0-4.75 2.24 6.21 6.21 0 0 0-1.53 1.54 3.74 3.74 0 0 0-.66 2.06v.07a3.71 3.71 0 0 0 .66 2 7.46 7.46 0 0 0 2.92 2.29 27.16 27.16 0 0 0 7.12 2.07 58.73 58.73 0 0 0 9.63.74h1.68a54 54 0 0 0 14.71-2.18 16.88 16.88 0 0 0 4.74-2.23 6.39 6.39 0 0 0 1.53-1.54 3.61 3.61 0 0 0 .66-2.06v-.07Z" fill="#090e40"/>
  <path d="M616.18 603.08c2.59 2.87 11.45-.91 19.78-8.43s13-16 10.39-18.83l-5.1-6.43-30.17 27.26Z" fill="#b08e00"/>
  <path d="m616.18 603.08-1.12 1a4.37 4.37 0 0 0 1.73 1.13 6.05 6.05 0 0 0 2 .32 12.65 12.65 0 0 0 3.91-.72c4.16-1.39 9.27-4.59 14.23-9.06a51.52 51.52 0 0 0 8.33-9.47 26.29 26.29 0 0 0 2.38-4.38 10.82 10.82 0 0 0 .89-3.93 5.26 5.26 0 0 0-.25-1.68 4.15 4.15 0 0 0-.86-1.49l-1.11 1 1.18-.93-5.1-6.44a1.51 1.51 0 0 0-1-.56 1.54 1.54 0 0 0-1.13.38l-30.18 27.27a1.5 1.5 0 0 0-.17 2L615 604l.06.08 1.12-1 1.17-.93-4.22-5.33 27.94-25.25 4.11 5.18.06.07a1.22 1.22 0 0 1 .23.41 2.47 2.47 0 0 1 .1.75 8.06 8.06 0 0 1-.67 2.8 27.1 27.1 0 0 1-3.64 6 51.13 51.13 0 0 1-6.31 6.75 48.68 48.68 0 0 1-9.21 6.68 25.34 25.34 0 0 1-4 1.76 9.89 9.89 0 0 1-3 .57 3 3 0 0 1-1-.15 1.27 1.27 0 0 1-.51-.31l-1.11 1 1.17-.93Z" fill="#090e40"/>
  <path d="M641.25 569.39c2.25 2.48-2.68 10.61-11 18.13s-16.91 11.62-19.16 9.13 2.68-10.61 11-18.14 16.91-11.61 19.16-9.12Z" fill="#ffd000"/>
  <path d="m641.25 569.39-1.11 1a.67.67 0 0 1 .1.18 1.59 1.59 0 0 1 .06.46 7 7 0 0 1-.7 2.56 28.7 28.7 0 0 1-3.81 5.93 59.1 59.1 0 0 1-6.56 6.89 55.67 55.67 0 0 1-9.45 7 26.46 26.46 0 0 1-3.91 1.87 8.89 8.89 0 0 1-2.75.6 1.86 1.86 0 0 1-.69-.1.55.55 0 0 1-.24-.14.49.49 0 0 1-.09-.18 1.27 1.27 0 0 1-.1-.46 6.73 6.73 0 0 1 .69-2.55 29.1 29.1 0 0 1 3.82-5.94 59.76 59.76 0 0 1 6.55-6.89 56.62 56.62 0 0 1 9.45-7 25.4 25.4 0 0 1 3.92-1.86 8.28 8.28 0 0 1 2.75-.6 2.13 2.13 0 0 1 .68.09.52.52 0 0 1 .24.14l1.11-1 1.12-1a3.61 3.61 0 0 0-1.47-1 5 5 0 0 0-1.68-.26 11.24 11.24 0 0 0-3.77.78c-4.06 1.47-9.23 4.84-14.36 9.46a58.42 58.42 0 0 0-8.62 9.55 26.9 26.9 0 0 0-2.48 4.28 9.44 9.44 0 0 0-1 3.77 4.67 4.67 0 0 0 .2 1.39 3.33 3.33 0 0 0 .73 1.26 3.42 3.42 0 0 0 1.46 1 5.11 5.11 0 0 0 1.69.27 11.55 11.55 0 0 0 3.77-.78c4.05-1.48 9.23-4.84 14.35-9.46a58 58 0 0 0 8.62-9.56 26.05 26.05 0 0 0 2.48-4.28 9.64 9.64 0 0 0 1-3.77 4.42 4.42 0 0 0-.21-1.39 3.62 3.62 0 0 0-.72-1.26Zm-98.68 15.09-1.5-.07a17.52 17.52 0 0 1-5 11.56 15.42 15.42 0 0 1-11 4.66h-.69a15.34 15.34 0 0 1-10.72-5.16 17.4 17.4 0 0 1-4.4-11.67v-.84a17.52 17.52 0 0 1 5-11.56 15.45 15.45 0 0 1 11-4.67h.69a15.34 15.34 0 0 1 10.72 5.16 17.39 17.39 0 0 1 4.4 11.66v.85l1.5.07 1.5.07v-1a20.41 20.41 0 0 0-5.17-13.67 18.31 18.31 0 0 0-12.81-6.15h-.83a18.43 18.43 0 0 0-13.1 5.56 20.52 20.52 0 0 0-5.86 13.53v1a20.42 20.42 0 0 0 5.17 13.68 18.36 18.36 0 0 0 12.81 6.14h.83a18.42 18.42 0 0 0 13.1-5.55 20.55 20.55 0 0 0 5.86-13.54Zm44.92-36.73h-4.16l.19 15.93-11.22.14-.55-46.2 18.84-.23c9-.11 14.83 6.34 14.93 14.86.09 7.83-3.88 11.82-7.32 13.39l8 17.77-12.47.15Zm1.51-20.66-5.89.07.13 11 5.89-.07c3 0 5.1-2.21 5.06-5.54s-2.19-5.49-5.19-5.46Z" fill="#090e40"/>
  <path d="M599.79 470s-7.07-10.05-22.38-8.4-15 12.65-15 12.65 14.35-8.71 37.43-4.25" fill="#273d7d"/>
  <path d="m599.79 470 1.23-.87a21.28 21.28 0 0 0-5-4.66 26.58 26.58 0 0 0-15.24-4.55 32.65 32.65 0 0 0-3.5.19 23.25 23.25 0 0 0-9.18 2.73 14.16 14.16 0 0 0-6.24 6.93 12.36 12.36 0 0 0-1 4.45v.06a1.51 1.51 0 0 0 .78 1.29 1.49 1.49 0 0 0 1.5 0l-.1-.17.1.17-.1-.17.1.17c.12-.08 8.92-5.32 23.68-5.31a66.64 66.64 0 0 1 12.68 1.24 1.51 1.51 0 0 0 1.52-2.34l-1.23.87.28-1.48a70.23 70.23 0 0 0-13.25-1.29c-15.72 0-25.08 5.65-25.24 5.74l.78 1.28h1.5a10.12 10.12 0 0 1 1.72-5.14 11.58 11.58 0 0 1 4-3.63 20.27 20.27 0 0 1 8-2.36 29.26 29.26 0 0 1 3.18-.17 23.66 23.66 0 0 1 13.55 4 21.55 21.55 0 0 1 3.26 2.75c.35.37.61.68.78.88l.18.23v.05l.45-.32-.45.32.45-.32-.45.32 1.23-.86.28-1.48-.28 1.48" fill="#090e40"/>
  <path d="M562.36 489.39c-7-.09-14.45-8.77-14.45-8.77l-16.28 9.71a13.59 13.59 0 0 0 10.09 8.42c7.85 1.55 20.59-4.71 20.59-4.71Z" fill="#273d7d"/>
  <path d="M562.36 489.39v-1.5a10.86 10.86 0 0 1-4.56-1.26 27.25 27.25 0 0 1-6.17-4.37c-.81-.73-1.47-1.39-1.92-1.87l-.52-.56-.13-.14a1.47 1.47 0 0 0-1.9-.31l-16.3 9.62a1.5 1.5 0 0 0-.65 1.76 14.1 14.1 0 0 0 2.36 4.1 14.9 14.9 0 0 0 8.86 5.32 16 16 0 0 0 3 .27 38.9 38.9 0 0 0 12.33-2.56 62.05 62.05 0 0 0 6.17-2.54 1.52 1.52 0 0 0 .84-1.33l.05-4.66a1.49 1.49 0 0 0-1.48-1.51v1.5h-1.5l-.05 4.66h1.5l-.66-1.34-.11.05a65.19 65.19 0 0 1-6.4 2.58 35.25 35.25 0 0 1-10.67 2.16 13.51 13.51 0 0 1-2.46-.21 11.89 11.89 0 0 1-7.09-4.25 12.44 12.44 0 0 1-1.45-2.26c-.15-.3-.25-.54-.31-.69l-.07-.17-.77.25.77-.25-.77.25.77-.25-1.43.47.77 1.29 16.28-9.71-.77-1.29-1.14 1a38.49 38.49 0 0 0 4.81 4.55 27.74 27.74 0 0 0 4.92 3.18 13.81 13.81 0 0 0 5.84 1.56v-1.5h-1.5Z" fill="#090e40"/>
  <path d="M562 489.17c-2.24 7.69-17.06 2.94-17.06 2.94l-10.58 11.47c42.58 15.18 49.9-22.34 49.9-22.34-7.73-.18-15.17 2.27-22.26 7.93Z" fill="#273d7d"/>
  <path d="m562 489.17-1.44-.42a3.64 3.64 0 0 1-.85 1.54 5 5 0 0 1-2.36 1.35 12.82 12.82 0 0 1-3.46.42 28.76 28.76 0 0 1-5.82-.69c-.81-.17-1.49-.35-2-.48l-.54-.15h-.14a1.52 1.52 0 0 0-1.56.42l-10.57 11.46a1.52 1.52 0 0 0-.36 1.38 1.47 1.47 0 0 0 1 1.05 57.22 57.22 0 0 0 19.1 3.65 32.47 32.47 0 0 0 16.7-4.27 33.79 33.79 0 0 0 12.93-14.31 37.12 37.12 0 0 0 3.11-8.59 1.5 1.5 0 0 0-.3-1.23 1.54 1.54 0 0 0-1.14-.56h-.82c-7.79 0-15.34 2.62-22.4 8.27a1.55 1.55 0 0 0-.51.75l1.44.42.94 1.17c6.62-5.28 13.42-7.6 20.53-7.61h.76v-1.5l-1.44-.24a36.66 36.66 0 0 1-5.8 12.65 28.75 28.75 0 0 1-9 8.3 29.63 29.63 0 0 1-15 3.75 54.43 54.43 0 0 1-18.13-3.53l-.5 1.41 1.1 1 10.58-11.47-1.1-1-.46 1.43s1.21.39 3 .76a31.2 31.2 0 0 0 6.45.76 13.58 13.58 0 0 0 5.65-1 7.3 7.3 0 0 0 2.38-1.69 6.85 6.85 0 0 0 1.52-2.74l-1.44-.42.94 1.17Z" fill="#090e40"/>
  <path d="M616.62 475.17s.63-8.49-7.57-11.59-18.29-.22-18.29-.22l9.69 9.27Z" fill="#273d7d"/>
  <path d="m616.62 475.17 1.5.11v-.52a14.63 14.63 0 0 0-1.25-5.85 12.7 12.7 0 0 0-2.59-3.76 13.22 13.22 0 0 0-4.71-3 26.27 26.27 0 0 0-9.31-1.54 40.42 40.42 0 0 0-9.93 1.28 1.5 1.5 0 0 0-.62 2.53l9.69 9.26a1.52 1.52 0 0 0 .8.4l16.18 2.54a1.5 1.5 0 0 0 1.73-1.37l-1.5-.11.23-1.48-15.71-2.47-9.35-8.94-1 1.08.41 1.44a37.9 37.9 0 0 1 9.07-1.15 23.55 23.55 0 0 1 8.25 1.34 10.36 10.36 0 0 1 3.66 2.3 10 10 0 0 1 2.49 4.3 12.05 12.05 0 0 1 .46 3.18v.3l1.49.11.23-1.48Z" fill="#090e40"/>
  <path d="M565.66 474.56s-10.4 8.44-2.25 13.44c0 0 10.57-9.42 31.37-6.92 8.6 1 13.78 1.83 25.07 8.63 0 0 6.8-16.09-17.44-19.53s-36.75 4.38-36.75 4.38" fill="#273d7d"/>
  <path d="m565.66 474.56-.94-1.16a22.94 22.94 0 0 0-2.9 2.93 16.43 16.43 0 0 0-2 3.06 8.86 8.86 0 0 0-1 3.84 6.22 6.22 0 0 0 .92 3.27 8.52 8.52 0 0 0 2.92 2.78 1.51 1.51 0 0 0 1.78-.16l-.31-.35.31.35-.31-.35.31.35a24.7 24.7 0 0 1 6-3.51 43.17 43.17 0 0 1 17.54-3.45 55.14 55.14 0 0 1 6.7.41 59 59 0 0 1 11.26 2.1 60.26 60.26 0 0 1 13.13 6.33 1.51 1.51 0 0 0 2.16-.7 15.45 15.45 0 0 0 1-5.49 13.85 13.85 0 0 0-.77-4.6 14.06 14.06 0 0 0-5.59-7c-3-2.06-7.26-3.67-13.25-4.52a86.29 86.29 0 0 0-12.16-.88c-16.72 0-25.41 5.37-25.59 5.48l-.15.11.94 1.16.8 1.27-.24-.37.23.38-.24-.37.23.38c.08 0 8.2-5 24-5a83.42 83.42 0 0 1 11.74.85 34.17 34.17 0 0 1 9 2.4 13.7 13.7 0 0 1 6.52 5.27 10.37 10.37 0 0 1 1.49 5.48 12.86 12.86 0 0 1-.4 3.14c-.1.39-.19.7-.26.91l-.09.22v.05l.6.25-.6-.25.6.25-.6-.25 1.39.58.77-1.28a52.67 52.67 0 0 0-25.6-8.88 59 59 0 0 0-7.06-.43A46.11 46.11 0 0 0 569 483a27.25 27.25 0 0 0-6.54 3.92l1 1.12.78-1.28a5.69 5.69 0 0 1-1.92-1.78 3.29 3.29 0 0 1-.48-1.71 5.73 5.73 0 0 1 .69-2.5 15.28 15.28 0 0 1 2.57-3.53c.44-.46.84-.84 1.12-1.09l.33-.3.09-.07-1-1.17.8 1.27-.8-1.27" fill="#090e40"/>
  <path fill="#1e2f6b" d="m575.98 472.91-.09.09-.18.17.25-.06.01-.13.01-.07"/>
  <path d="M540.44 536.66a1.86 1.86 0 1 1-1.7 2 1.85 1.85 0 0 1 1.7-2Z" fill="#090e40"/>
  <path d="M626.23 577c-3 3.26-1.89 4.25-.27 6.18 1.43 1.71 4.06 1.28 7.8-1.16-.51.46-3.23 4-3.77 4.4-13.48 11.49-18.14 10-18 9.41.07-1.3 0-7.45 14.28-18.83" fill="#ffdd92"/>
  <path d="M177 599.62c0 3.76-8.94 6.71-19.86 6.58s-19.75-3.29-19.7-7.05l-.42-8 39.56.48Z" fill="#b08e00"/>
  <path d="M177 599.62h-1.5a1.06 1.06 0 0 1-.19.59 4.81 4.81 0 0 1-1.84 1.56 21.91 21.91 0 0 1-6.38 2.12 48.86 48.86 0 0 1-9.26.83h-.67a43.25 43.25 0 0 1-13.46-2.07 12.66 12.66 0 0 1-3.76-2 3.46 3.46 0 0 1-.81-.89 1.16 1.16 0 0 1-.19-.61h-1 1-1 1v-.14l-.33-6.38 36.56.44.35 6.57 1.49-.08h-1.5 1.5l1.5-.08-.42-8a1.5 1.5 0 0 0-1.48-1.42l-39.61-.39a1.54 1.54 0 0 0-1.1.47 1.51 1.51 0 0 0-.41 1.11l.42 8 1.5-.08-1.5-.06v.09a4.15 4.15 0 0 0 .6 2.13 8.16 8.16 0 0 0 3 2.72 25.82 25.82 0 0 0 7.49 2.62 52.32 52.32 0 0 0 10.1 1.05h.71a44.78 44.78 0 0 0 14-2 15 15 0 0 0 4.56-2.34 6.29 6.29 0 0 0 1.46-1.64 4.11 4.11 0 0 0 .61-2.09v-.1Z" fill="#090e40"/>
  <path d="M137 591.17c0 3.27 8.78 6 19.71 6.15s19.81-2.41 19.85-5.67-8.78-6-19.71-6.15-19.79 2.41-19.85 5.67Z" fill="#ffd000"/>
  <path d="M159.31 596.41h1.54c11.54.22 11.94-2.58 12.34-3.76-.37-1.35-.75-5.37-12.24-5.54h-2.69c3.26 1.32 5.23 3.05 5.22 4.92-.02 1.71-1.58 3.22-4.17 4.38Z" fill="#b08e00"/>
  <path d="M137.58 591.54s.82-2.83 12.44-4.13c0 0-6.1 2-5.91 4.1s6.53 4.49 6.53 4.49-10.64-1-13.06-4.46Z" fill="#ffdd92"/>
  <path d="M137.05 591.69h-1.5a3.62 3.62 0 0 0 .66 2 7.77 7.77 0 0 0 3 2.39 28.37 28.37 0 0 0 7.45 2.27 61 61 0 0 0 10.07.93h.82a50.62 50.62 0 0 0 13.9-1.71 15.63 15.63 0 0 0 4.51-2 5.88 5.88 0 0 0 1.49-1.45 3.61 3.61 0 0 0 .66-2 3.64 3.64 0 0 0-.66-2 7.82 7.82 0 0 0-3-2.4 28.63 28.63 0 0 0-7.45-2.27 59.8 59.8 0 0 0-10.07-.92h-.82a51.06 51.06 0 0 0-13.9 1.71 15.37 15.37 0 0 0-4.51 2 5.83 5.83 0 0 0-1.48 1.45 3.58 3.58 0 0 0-.66 2h3a.59.59 0 0 1 .13-.33 4.87 4.87 0 0 1 1.8-1.31 24.61 24.61 0 0 1 6.38-1.84 56.94 56.94 0 0 1 9.24-.72h.79a49.64 49.64 0 0 1 13.51 1.82 13.37 13.37 0 0 1 3.79 1.71 3.2 3.2 0 0 1 .79.74.72.72 0 0 1 .14.35h1.5-1.5a.59.59 0 0 1-.14.33 4.62 4.62 0 0 1-1.79 1.31 24 24 0 0 1-6.39 1.84 55.75 55.75 0 0 1-9.24.72h-.78a49.62 49.62 0 0 1-13.52-1.83 13.83 13.83 0 0 1-3.79-1.7 3.52 3.52 0 0 1-.78-.75.62.62 0 0 1-.14-.35Z" fill="#090e40"/>
  <path d="M200.13 601.29c-1.58 3.42-10.9 2.47-20.82-2.12s-16.67-11.08-15.09-14.5l2.88-7.44 35.9 16.61Z" fill="#b08e00"/>
  <path d="m200.13 601.29-1.36-.63a1.13 1.13 0 0 1-.31.38 3.25 3.25 0 0 1-1.26.56 10 10 0 0 1-2.32.24 27 27 0 0 1-6.68-1 51.5 51.5 0 0 1-8.26-3 45.54 45.54 0 0 1-10.65-6.68 17.3 17.3 0 0 1-2.92-3.18 4.35 4.35 0 0 1-.88-2.19 1 1 0 0 1 .09-.46v-.08l2.3-6 33.18 15.35-2.37 6.14 1.4.54-1.36-.63 1.36.63 1.4.54 2.88-7.45a1.5 1.5 0 0 0-.77-1.9l-35.91-16.62a1.56 1.56 0 0 0-1.2 0 1.51 1.51 0 0 0-.83.85l-2.88 7.45 1.4.54-1.36-.63a4 4 0 0 0-.37 1.72 7.11 7.11 0 0 0 1.39 3.86 24.38 24.38 0 0 0 5.76 5.64 52.79 52.79 0 0 0 9 5.27 54 54 0 0 0 8.76 3.2 30.09 30.09 0 0 0 7.44 1.11 11.16 11.16 0 0 0 3.93-.6 5.79 5.79 0 0 0 1.57-.89 4.12 4.12 0 0 0 1.11-1.43v-.09Z" fill="#090e40"/>
  <path d="M167.1 577.23c-1.37 3 5.55 9.08 15.47 13.67s19.07 5.9 20.44 2.94-5.56-9.08-15.48-13.67-19.06-5.91-20.43-2.94Z" fill="#ffd000"/>
  <path d="M169 578.11c0 .49.64 1.51 2 2.86a51.28 51.28 0 0 1 13 4.23 48.43 48.43 0 0 1 12.57 8c2.62.36 4.21.17 4.55-.18.13-1.17-4-6.15-14.44-11-7.26-3.37-12.61-4.34-15.47-4.34a4 4 0 0 0-2.21.43Z" fill="#ffd000"/>
  <path d="M169.16 577.64s2-2.53 13.05.76c0 0-6.39-.39-7.14 1.78s3.91 7.11 3.91 7.11-9.21-5.24-9.82-9.65Z" fill="#ffdd92"/>
  <path d="M186.46 586.62c1-2.14-2.34-6-8.05-9.78a58.5 58.5 0 0 1 9.1 3.5c9.87 4.7 16.72 10.91 15.32 13.85s-10.54 1.52-20.41-3.19a61.61 61.61 0 0 1-7.25-4.07c5.83 1.67 10.34 1.68 11.29-.31Z" fill="#b08e00"/>
  <path d="m168.22 576.93-1.36-.63a3.35 3.35 0 0 0-.31 1.45 4.72 4.72 0 0 0 .42 1.88 11.31 11.31 0 0 0 2.14 3.08 32.68 32.68 0 0 0 5.77 4.72 62.72 62.72 0 0 0 8.18 4.53 60.78 60.78 0 0 0 9.27 3.45 29.66 29.66 0 0 0 7.6 1.21 9.45 9.45 0 0 0 3.25-.48 4.6 4.6 0 0 0 1.34-.73 3.4 3.4 0 0 0 1-1.24 3.36 3.36 0 0 0 .32-1.45 4.91 4.91 0 0 0-.43-1.88 11.09 11.09 0 0 0-2.14-3.08 32.68 32.68 0 0 0-5.77-4.72 62.72 62.72 0 0 0-8.18-4.53 60.78 60.78 0 0 0-9.27-3.45 30.1 30.1 0 0 0-7.6-1.22 9.69 9.69 0 0 0-3.25.49 4.73 4.73 0 0 0-1.34.73 3.32 3.32 0 0 0-1 1.24l1.36.63 1.36.63a.45.45 0 0 1 .14-.17 2.42 2.42 0 0 1 .89-.37 8 8 0 0 1 1.81-.18 26.79 26.79 0 0 1 6.8 1.12 58.33 58.33 0 0 1 8.81 3.27 51.77 51.77 0 0 1 10.9 6.61 17.92 17.92 0 0 1 3 3 6 6 0 0 1 .7 1.16 1.93 1.93 0 0 1 .18.7.49.49 0 0 1 0 .19.37.37 0 0 1-.14.16 2.24 2.24 0 0 1-.88.38 7.7 7.7 0 0 1-1.82.17 26.27 26.27 0 0 1-6.8-1.11 58.33 58.33 0 0 1-8.81-3.27 52.19 52.19 0 0 1-10.9-6.61 18.29 18.29 0 0 1-3-3 5.44 5.44 0 0 1-.69-1.16 1.93 1.93 0 0 1-.18-.7.38.38 0 0 1 0-.19Z" fill="#090e40"/>
  <path d="M211.55 598.08c0 4 9.53 7.15 21.17 7s21.05-3.5 21-7.51l.45-8.5-42.17.51Z" fill="#b08e00"/>
  <path d="M211.55 598.08h-1.5a4.36 4.36 0 0 0 .64 2.18 8.24 8.24 0 0 0 3.1 2.77 26.27 26.27 0 0 0 7.73 2.6 54.83 54.83 0 0 0 10.46 1h.76a48.92 48.92 0 0 0 15.34-2.38 16.43 16.43 0 0 0 4.92-2.65 6.77 6.77 0 0 0 1.55-1.76 4.35 4.35 0 0 0 .64-2.23v-.06h-1.5l1.5.08.44-8.5a1.5 1.5 0 0 0-.41-1.12 1.57 1.57 0 0 0-1.1-.46l-42.17.51a1.49 1.49 0 0 0-1.48 1.42l-.45 8.49v.1h1.5l1.5.08.37-7.09 39.16-.47-.36 6.9v.12h.64-.64.64-.64a1.3 1.3 0 0 1-.22.7 5.57 5.57 0 0 1-2.07 1.79 24.62 24.62 0 0 1-7.06 2.44 52.48 52.48 0 0 1-10.17 1.05H232a44.78 44.78 0 0 1-13.95-2 13 13 0 0 1-3.91-2 3.64 3.64 0 0 1-.85-.93 1.38 1.38 0 0 1-.22-.67h-1.5l1.5.08Z" fill="#0b1236"/>
  <path d="M254.17 589.08c0 3.48-9.37 6.41-21 6.55s-21.12-2.57-21.16-6 9.36-6.42 21-6.55 21.11 2.52 21.16 6Z" fill="#ffd000"/>
  <path d="M254.17 589.08h-1.5a.82.82 0 0 1-.17.42 5.52 5.52 0 0 1-2.05 1.53 27.31 27.31 0 0 1-7.1 2.14 60.78 60.78 0 0 1-10.21.93h-.84a51.52 51.52 0 0 1-13.93-1.69 14.17 14.17 0 0 1-3.9-1.71 3.37 3.37 0 0 1-.81-.77.71.71 0 0 1-.16-.4H212h1.5a.76.76 0 0 1 .17-.43 5.57 5.57 0 0 1 2-1.52 27.31 27.31 0 0 1 7.1-2.14 60.91 60.91 0 0 1 10.22-.93h.83a51.46 51.46 0 0 1 13.93 1.69 13.74 13.74 0 0 1 3.9 1.71 3.27 3.27 0 0 1 .82.77.77.77 0 0 1 .16.4h3A3.71 3.71 0 0 0 255 587a7.89 7.89 0 0 0-3.1-2.42 29 29 0 0 0-7.65-2.24 62.91 62.91 0 0 0-10.37-.81H233a55.78 55.78 0 0 0-15.29 2.08 17.28 17.28 0 0 0-4.93 2.26 6.59 6.59 0 0 0-1.59 1.57 3.76 3.76 0 0 0-.68 2.11 3.81 3.81 0 0 0 .68 2.07 7.85 7.85 0 0 0 3.11 2.42 28.53 28.53 0 0 0 7.65 2.23 61.66 61.66 0 0 0 10.36.82h.88a55.64 55.64 0 0 0 15.28-2.08 17.84 17.84 0 0 0 4.93-2.26 6.42 6.42 0 0 0 1.59-1.57 3.79 3.79 0 0 0 .69-2.11v-.05Z" fill="#0b1236"/>
  <path d="M209.87 582.23c0 3.92 9.3 7 20.68 6.85s20.55-3.42 20.5-7.34l.44-8.3-41.18.49Z" fill="#b08e00"/>
  <path d="M209.87 582.23h-1.5a4.28 4.28 0 0 0 .63 2.14 8 8 0 0 0 3 2.72 25.78 25.78 0 0 0 7.57 2.55 54.12 54.12 0 0 0 10.22.92h.74a47.86 47.86 0 0 0 15-2.33 16.17 16.17 0 0 0 4.84-2.55 6.77 6.77 0 0 0 1.53-1.74 4.29 4.29 0 0 0 .63-2.19v-.07h-1.5l1.5.08.44-8.3a1.51 1.51 0 0 0-.42-1.12 1.46 1.46 0 0 0-1.1-.46l-41.18.49a1.5 1.5 0 0 0-1.48 1.42l-.44 8.3v.1h1.5l1.5.08.36-6.9 38.18-.45-.35 6.7v.12h.69-.69.69-.69a1.41 1.41 0 0 1-.21.67 5.59 5.59 0 0 1-2 1.73 23.77 23.77 0 0 1-6.89 2.38 51.52 51.52 0 0 1-9.92 1h-.71a43.7 43.7 0 0 1-13.61-1.9 13 13 0 0 1-3.81-1.92 3.83 3.83 0 0 1-.83-.9 1.29 1.29 0 0 1-.2-.65h-1.5l1.5.08Z" fill="#0b1236"/>
  <path d="M251.49 573.44c0 3.4-9.14 6.26-20.52 6.4s-20.62-2.51-20.66-5.91 9.14-6.26 20.52-6.4 20.62 2.47 20.66 5.91Z" fill="#ffd000"/>
  <path d="M251.49 573.44H250a.64.64 0 0 1-.16.4 5.22 5.22 0 0 1-2 1.48 27.14 27.14 0 0 1-6.93 2.09 61.19 61.19 0 0 1-10 .91h-.82a50.08 50.08 0 0 1-13.6-1.65 13.73 13.73 0 0 1-3.8-1.66 3.31 3.31 0 0 1-.78-.74.61.61 0 0 1-.15-.38h-1.5 1.5a.67.67 0 0 1 .15-.4 5.37 5.37 0 0 1 2-1.48 26.75 26.75 0 0 1 6.93-2.09 61.19 61.19 0 0 1 10-.91h.82a50.13 50.13 0 0 1 13.6 1.65 13.87 13.87 0 0 1 3.8 1.66 3.31 3.31 0 0 1 .78.74.61.61 0 0 1 .15.38h3a3.57 3.57 0 0 0-.67-2 7.71 7.71 0 0 0-3-2.38 27.94 27.94 0 0 0-7.48-2.19 61.28 61.28 0 0 0-10.13-.79h-.85a54.52 54.52 0 0 0-14.94 2 17.11 17.11 0 0 0-4.83 2.21 6.52 6.52 0 0 0-1.56 1.54 3.71 3.71 0 0 0-.67 2.09 3.57 3.57 0 0 0 .67 2 7.71 7.71 0 0 0 3.05 2.38 28.31 28.31 0 0 0 7.48 2.19 61.19 61.19 0 0 0 10.13.79h.81a54.91 54.91 0 0 0 14.94-2 17.39 17.39 0 0 0 4.83-2.21 6.38 6.38 0 0 0 1.56-1.55 3.73 3.73 0 0 0 .67-2.08Z" fill="#0b1236"/>
  <path d="M214 565.85c0 3.92 9.31 7 20.68 6.85s20.56-3.42 20.51-7.34l.44-8.3-41.19.49Z" fill="#b08e00"/>
  <path d="M214 565.85h-1.5a4.35 4.35 0 0 0 .63 2.15 8.14 8.14 0 0 0 3 2.71 25.78 25.78 0 0 0 7.57 2.55 54 54 0 0 0 10.22.92h.74a47.79 47.79 0 0 0 15-2.33 16.11 16.11 0 0 0 4.85-2.55 6.8 6.8 0 0 0 1.53-1.74 4.35 4.35 0 0 0 .62-2.19v-.07h-1.5l1.5.08.44-8.3a1.51 1.51 0 0 0-.42-1.12 1.49 1.49 0 0 0-1.1-.46l-41.19.49a1.51 1.51 0 0 0-1.48 1.42l-.43 8.3v.1h1.5l1.5.08.37-6.9 38.18-.45-.36 6.7v.12h.7-.7.7-.7a1.3 1.3 0 0 1-.21.67 5.41 5.41 0 0 1-2 1.73 23.58 23.58 0 0 1-6.88 2.38 51.72 51.72 0 0 1-9.93 1H234a43.81 43.81 0 0 1-13.62-1.9 12.88 12.88 0 0 1-3.8-1.92 3.44 3.44 0 0 1-.83-.9 1.43 1.43 0 0 1-.21-.65h-1.5l1.5.08Z" fill="#0b1236"/>
  <ellipse cx="235.03" cy="557.31" rx="20.59" ry="6.15" transform="rotate(-.68 235.98132914 559.20471793)" fill="#ffd000"/>
  <path d="M255.62 557.06h-1.5a.71.71 0 0 1-.16.4 5.31 5.31 0 0 1-2 1.48 26.75 26.75 0 0 1-6.93 2.09 61.32 61.32 0 0 1-10 .91h-.82a50 50 0 0 1-13.59-1.65 13.59 13.59 0 0 1-3.8-1.66 3.2 3.2 0 0 1-.79-.74.77.77 0 0 1-.15-.38h-1.5 1.5a.71.71 0 0 1 .16-.4 5.31 5.31 0 0 1 2-1.48 26.75 26.75 0 0 1 6.93-2.09 61.32 61.32 0 0 1 10-.91h.82a50 50 0 0 1 13.59 1.65 13.59 13.59 0 0 1 3.8 1.66 3.2 3.2 0 0 1 .79.74.77.77 0 0 1 .15.38h3a3.66 3.66 0 0 0-.68-2 7.68 7.68 0 0 0-3-2.38 28 28 0 0 0-7.48-2.19 61.28 61.28 0 0 0-10.13-.79h-.86a55 55 0 0 0-14.94 2 17 17 0 0 0-4.82 2.21 6.21 6.21 0 0 0-1.56 1.55 3.66 3.66 0 0 0-.68 2.08 3.66 3.66 0 0 0 .68 2 7.68 7.68 0 0 0 3 2.38 28 28 0 0 0 7.48 2.19 61.28 61.28 0 0 0 10.13.79h.86a55 55 0 0 0 14.94-2 17 17 0 0 0 4.82-2.21 6.21 6.21 0 0 0 1.56-1.55 3.66 3.66 0 0 0 .68-2.08Z" fill="#0b1236"/>
  <path d="M219 552c.05 3.91 9.31 7 20.68 6.84s20.55-3.42 20.51-7.33l.44-8.31-41.19.5Z" fill="#b08e00"/>
  <path d="M219 552h-1.5a4.35 4.35 0 0 0 .63 2.15 8.17 8.17 0 0 0 3 2.72 25.79 25.79 0 0 0 7.57 2.54 53.09 53.09 0 0 0 10.21.93h.75a48.1 48.1 0 0 0 15-2.32 16.47 16.47 0 0 0 4.85-2.56 6.71 6.71 0 0 0 1.52-1.73 4.32 4.32 0 0 0 .63-2.19v-.07h-1.5l1.5.07.43-8.3a1.47 1.47 0 0 0-.41-1.11 1.54 1.54 0 0 0-1.1-.47l-41.19.5a1.49 1.49 0 0 0-1.48 1.42l-.44 8.3v.12H219l1.5.08.36-6.9 38.18-.46-.35 6.71v.11a1.25 1.25 0 0 1-.21.66 5.5 5.5 0 0 1-2 1.74 24.41 24.41 0 0 1-6.88 2.38 51.76 51.76 0 0 1-9.93 1h-.71a44 44 0 0 1-13.61-1.91 12.49 12.49 0 0 1-3.81-1.92 3.55 3.55 0 0 1-.82-.9 1.26 1.26 0 0 1-.21-.64h-1.5l1.5.08Z" fill="#0b1236"/>
  <path d="M260.61 543.16c0 3.4-9.15 6.27-20.52 6.4s-20.63-2.51-20.67-5.9 9.15-6.27 20.52-6.4 20.63 2.51 20.67 5.9Z" fill="#ffd000"/>
  <path d="M260.61 543.16h-1.5a.83.83 0 0 1-.16.4 5.49 5.49 0 0 1-2 1.47 26.66 26.66 0 0 1-6.92 2.09 59.26 59.26 0 0 1-10 .91h-.82a50.4 50.4 0 0 1-13.59-1.65 13.28 13.28 0 0 1-3.8-1.67 3 3 0 0 1-.79-.74.66.66 0 0 1-.15-.37h-1.5 1.5a.73.73 0 0 1 .16-.4 5.33 5.33 0 0 1 2-1.47 26.75 26.75 0 0 1 6.93-2.09 59.06 59.06 0 0 1 10-.91h.81a50.42 50.42 0 0 1 13.6 1.65 13.28 13.28 0 0 1 3.8 1.67 3.2 3.2 0 0 1 .79.74.75.75 0 0 1 .15.37h3a3.72 3.72 0 0 0-.68-2 7.84 7.84 0 0 0-3-2.38 28.15 28.15 0 0 0-7.49-2.18 61.13 61.13 0 0 0-10.13-.8h-.85a54.55 54.55 0 0 0-14.94 2 17.11 17.11 0 0 0-4.83 2.22 6.35 6.35 0 0 0-1.56 1.54 3.73 3.73 0 0 0-.67 2.08 3.79 3.79 0 0 0 .67 2 7.8 7.8 0 0 0 3 2.38 28.07 28.07 0 0 0 7.48 2.18 61.22 61.22 0 0 0 10.13.8h.85a54.69 54.69 0 0 0 15-2 17.32 17.32 0 0 0 4.82-2.22 6.35 6.35 0 0 0 1.56-1.54 3.69 3.69 0 0 0 .68-2.08h-1.5Z" fill="#0b1236"/>
  <path d="m243.05 597.4 13.7-23.29-4.35-4.7c.62 0-2.73-.87 4.46-.76 9.55.15 19.95 6.51 19.28 19.68-.75 14.71-10.22 17.65-19.76 17.38-6.26-.17-11.35-7.2-12-7.31" fill="#b08e00"/>
  <path d="m244.35 598.16 13.7-23.29a1.51 1.51 0 0 0-.2-1.78l-4.35-4.7-1.1 1 .09 1.5a1.67 1.67 0 0 0 .52-.11 1.52 1.52 0 0 0 .86-.85 1.48 1.48 0 0 0 .11-.57 1.59 1.59 0 0 0-.18-.72 1.54 1.54 0 0 0-.34-.43l-.22-.17-.53.69.66-.56-.13-.13-.53.69.66-.56-1 .83 1.14-.55a1.42 1.42 0 0 0-.17-.28l-1 .83 1.14-.55-1.25.59h1.39a1.31 1.31 0 0 0-.14-.59l-1.25.59 1.3.55a1.42 1.42 0 0 0 .11-.55h-1.41l1.3.55-1.23-.52.76 1.1a1.28 1.28 0 0 0 .47-.58l-1.23-.52.76 1.1-.55-.8.34.92a1.43 1.43 0 0 0 .21-.12l-.55-.8.34.92-.13-.36.11.36-.13-.36.11.36a8.55 8.55 0 0 1 .86-.09h3.1a19.74 19.74 0 0 1 12.23 4.26 15.3 15.3 0 0 1 4.07 5.23 17.16 17.16 0 0 1 1.57 7.44v1.12a21.77 21.77 0 0 1-1.79 8.13 12.15 12.15 0 0 1-6.24 6.2 22.14 22.14 0 0 1-9.1 1.65h-1.09a9 9 0 0 1-3.79-1 20.41 20.41 0 0 1-4.77-3.54c-.63-.6-1.16-1.15-1.58-1.58-.21-.22-.39-.4-.57-.56a2.12 2.12 0 0 0-.31-.26l-.24-.14a1.6 1.6 0 0 0-.48-.17 1.5 1.5 0 0 0-.53 3l.23-1.26-.66 1.11a1.23 1.23 0 0 0 .43.15l.23-1.26-.66 1.11.33-.55-.4.5.07.05.33-.55-.4.5s.21.19.44.42c.42.43 1 1.08 1.79 1.8a25.14 25.14 0 0 0 4.38 3.4 12.69 12.69 0 0 0 6.08 1.92h1.17c4.74 0 9.55-.83 13.38-3.71a15.33 15.33 0 0 0 4.68-5.88 24.85 24.85 0 0 0 2.07-9.23v-1.28a20.19 20.19 0 0 0-1.86-8.72 18.78 18.78 0 0 0-8.05-8.42 23.36 23.36 0 0 0-10.87-2.84h-1.24a23.31 23.31 0 0 0-3.05.14 3.65 3.65 0 0 0-.93.24 1.75 1.75 0 0 0-.9.89 1.67 1.67 0 0 0-.12.62 1.61 1.61 0 0 0 .18.74 1.92 1.92 0 0 0 .41.53l.27.21.66-.87-.78.76.12.11.66-.87-.78.76 1-1-1.2.72a1.48 1.48 0 0 0 .2.26l1-1-1.2.72 1.26-.76H251a1.47 1.47 0 0 0 .21.76l1.26-.76-1.37-.55a1.38 1.38 0 0 0-.11.55h1.48l-1.37-.55 1.37.55-.86-1.2a1.42 1.42 0 0 0-.51.65l1.37.55-.86-1.2.83 1.16-.31-1.4a1.48 1.48 0 0 0-.52.24l.83 1.16-.31-1.4.26 1.17-.08-1.19h-.18l.26 1.17-.08-1.19a1.49 1.49 0 0 0-1 2.51l3.6 3.88-13.14 22.33a1.5 1.5 0 0 0 2.59 1.52Z" fill="#0b1236"/>
  <path d="M268.57 588.18c-.6 10.31-8.95 18.21-18.66 17.65s-17.11-9.38-16.51-19.68 8.95-18.21 18.66-17.65 17.11 9.37 16.51 19.68Z" fill="#ffd000"/>
  <path d="m268.57 588.18-1.5-.09a17.73 17.73 0 0 1-5.13 11.6 15.66 15.66 0 0 1-11.06 4.66h-.89a15.52 15.52 0 0 1-10.74-5.35 17.63 17.63 0 0 1-4.38-11.73v-1.08a17.69 17.69 0 0 1 5.13-11.55 15.63 15.63 0 0 1 11.09-4.64h.89a15.55 15.55 0 0 1 10.74 5.28A17.67 17.67 0 0 1 267.1 587v1.07l1.5.09 1.5.09V587a20.63 20.63 0 0 0-5.1-13.71 18.58 18.58 0 0 0-12.85-6.29h-1.06a18.65 18.65 0 0 0-13.17 5.54 20.76 20.76 0 0 0-6 13.55v1.25A20.63 20.63 0 0 0 237 601a18.53 18.53 0 0 0 12.81 6.28h1.06a18.6 18.6 0 0 0 13.17-5.53 20.76 20.76 0 0 0 6-13.55Z" fill="#0b1236"/>
  <path d="M246.16 588.52a21.26 21.26 0 0 0 5.48 15.65 15.31 15.31 0 0 1-2.35.06 14.64 14.64 0 0 1-10.56-5.62 18.25 18.25 0 0 1-3.91-12.48c.51-9.18 7.41-16.3 15.55-16.3h.84a14 14 0 0 1 5.51 1.5 20.53 20.53 0 0 0-10.56 17.19Z" fill="#ffdd92"/>
  <path d="M377.13 397.42h-54.5A5.62 5.62 0 0 0 317 403v.21a5.62 5.62 0 0 0 5.62 5.62h54.5a5.62 5.62 0 0 0 5.63-5.62V403a5.63 5.63 0 0 0-5.63-5.62m130.14.04H395a5.62 5.62 0 0 0-5.62 5.62v.21a5.61 5.61 0 0 0 5.62 5.62h112.26a5.62 5.62 0 0 0 5.62-5.62V403a5.62 5.62 0 0 0-5.62-5.62" fill="#90c3f2"/>
  <path d="M434.89 424.32H322.63a5.62 5.62 0 0 0-5.62 5.62v.21a5.62 5.62 0 0 0 5.62 5.62h112.26a5.62 5.62 0 0 0 5.63-5.62v-.21a5.63 5.63 0 0 0-5.63-5.62" fill="#a3e5e9"/>
  <path d="M507.26 424.32h-54.65a5.63 5.63 0 0 0-5.63 5.62v.21a5.62 5.62 0 0 0 5.63 5.62h54.65a5.62 5.62 0 0 0 5.62-5.62v-.21a5.62 5.62 0 0 0-5.62-5.62" fill="#beeaec"/>
  <path d="M377.13 508.22h-54.5a5.62 5.62 0 0 0-5.62 5.62v.21a5.62 5.62 0 0 0 5.62 5.62h54.5a5.63 5.63 0 0 0 5.63-5.62v-.21a5.62 5.62 0 0 0-5.63-5.62m130.13 0H395a5.61 5.61 0 0 0-5.62 5.62v.21a5.62 5.62 0 0 0 5.62 5.62h112.26a5.62 5.62 0 0 0 5.62-5.62v-.21a5.62 5.62 0 0 0-5.62-5.62M430 344.38H322.63A5.62 5.62 0 0 0 317 350v.21a5.62 5.62 0 0 0 5.62 5.62h112.32a5.62 5.62 0 0 0 4.59-2.37l-7.1.59h-.25a3 3 0 0 1-3-3.36l.75-6.32" fill="#90c3f2"/>
  <path d="M435 371.27h-33.3a5.62 5.62 0 0 0-5.62 5.62v.22a5.62 5.62 0 0 0 5.62 5.62H435a5.62 5.62 0 0 0 5.62-5.62v-.22a5.62 5.62 0 0 0-5.62-5.62m-53.35 0h-59a5.62 5.62 0 0 0-5.62 5.62v.22a5.62 5.62 0 0 0 5.62 5.62h59a5.62 5.62 0 0 0 5.62-5.62v-.22a5.62 5.62 0 0 0-5.62-5.62m124.85 79.45H322.63a5.63 5.63 0 0 0-5.62 5.63v.21a5.62 5.62 0 0 0 5.62 5.62H506.5a5.63 5.63 0 0 0 5.63-5.62v-.21a5.63 5.63 0 0 0-5.63-5.63" fill="#a3e5e9"/>
  <path d="M496.8 371.27h-44.1a5.62 5.62 0 0 0-5.62 5.62v.22a5.62 5.62 0 0 0 5.62 5.62h54.66a5.62 5.62 0 0 0 5.62-5.62v-.22a5.63 5.63 0 0 0-1.07-3.3 104 104 0 0 1-15.11-2.32" fill="#beeaec"/>
  <path d="M435 478.71h-33.3a5.62 5.62 0 0 0-5.62 5.62v.21a5.62 5.62 0 0 0 5.62 5.62H435a5.61 5.61 0 0 0 5.62-5.62v-.21a5.62 5.62 0 0 0-5.62-5.62m-53.35 0h-59a5.62 5.62 0 0 0-5.62 5.62v.21a5.62 5.62 0 0 0 5.62 5.62h59a5.61 5.61 0 0 0 5.62-5.62v-.21a5.62 5.62 0 0 0-5.62-5.62" fill="#a3e5e9"/>
  <path d="M507.36 478.71H452.7a5.62 5.62 0 0 0-5.62 5.62v.21a5.62 5.62 0 0 0 5.62 5.62h54.66a5.62 5.62 0 0 0 5.62-5.62v-.21a5.62 5.62 0 0 0-5.62-5.62" fill="#beeaec"/>
  <path d="M619.2 216a111.22 111.22 0 0 1 13.27 47.82 1.5 1.5 0 0 0 3-.13 114.19 114.19 0 0 0-13.63-49.12 1.5 1.5 0 1 0-2.64 1.43" fill="#0b1236"/>
  <path d="M532 164.87a104.79 104.79 0 0 1 66.19 174.59 18.21 18.21 0 0 1 3.48 5.74 103.94 103.94 0 0 0 33-74.18h-.19a2 2 0 1 1 0-3.92h.19c0-.67 0-1.33-.05-2a1.78 1.78 0 0 1-.52.11h-.1a1.5 1.5 0 0 1-1.5-1.43A111.22 111.22 0 0 0 619.2 216a1.53 1.53 0 0 1 0-1.47 104.16 104.16 0 0 0-87.2-49.66" fill="#d4d8e5"/>
  <path d="M598.14 339.46c-2.12 2.33-4.34 4.58-6.66 6.71a17.7 17.7 0 0 1 .88 4.83v1.9a106.18 106.18 0 0 0 9.24-7.7 18.21 18.21 0 0 0-3.48-5.74" fill="#b1b9d0"/>
  <path d="M591.48 346.17c-.82.76-1.65 1.5-2.49 2.23a13.9 13.9 0 0 1 .37 2.76 5.82 5.82 0 0 1 0 .59V355c1-.7 2-1.41 3-2.14v-1.9a17.7 17.7 0 0 0-.88-4.83" fill="#111b44"/>
  <path d="M589 348.4a105.44 105.44 0 0 1-12.19 9.09 11.11 11.11 0 0 1 .47 3.2v1.52a104.19 104.19 0 0 0 12.1-7.21v-3.29a5.82 5.82 0 0 0 0-.59 13.9 13.9 0 0 0-.37-2.76" fill="#63479f"/>
  <path d="M556.66 367.5c-2.46.91-5 1.72-7.5 2.45v1.69c2.53-.46 5-1 7.5-1.65v-2.49" fill="#193a72"/>
  <path d="M576.8 357.49c-.83.53-1.68 1.06-2.53 1.57v4.61c1-.47 2-1 3-1.46v-1.52a11.11 11.11 0 0 0-.47-3.2" fill="#111b44"/>
  <path d="M574.13 359.15a105.38 105.38 0 0 1-17.47 8.35v2.5a103.88 103.88 0 0 0 17.61-6.32v-3a8.56 8.56 0 0 0-.14-1.54" fill="#162d5f"/>
  <path d="m574.27 359.06-.14.09a8.56 8.56 0 0 1 .14 1.54v3-4.61" fill="#111b44"/>
  <path fill="#c9cedb" d="m546.16 370.75-.01.01v1.38h.01v-1.39"/>
  <path d="M549.16 370c-1 .28-2 .55-3 .8v1.39c1-.15 2-.32 3-.5V370" fill="#111b44"/>
  <path d="M546.15 370.76a105.69 105.69 0 0 1-14.2 2.55 105.55 105.55 0 0 0 14.2-1.17v-1.38" fill="#b7bbc8"/>
  <path d="M634.42 267.11a2 2 0 1 0 0 3.92h.19v-3.93h-.19m-15.2-52.58a1.53 1.53 0 0 0 0 1.47 111.22 111.22 0 0 1 13.27 47.82 1.5 1.5 0 0 0 1.5 1.43h.01a1.78 1.78 0 0 0 .52-.11 103.71 103.71 0 0 0-15.34-50.61" fill="#111b44"/>
  <path d="M520.49 372.43a102.27 102.27 0 0 1-63.64-21.92l-24.54 2h-.13a1.54 1.54 0 0 1-1.08-.46 1.51 1.51 0 0 1-.41-1.22l3.05-25.62a103.35 103.35 0 1 1 86.75 47.17" fill="#bbe5ff"/>
  <path d="M520.49 167.25A101.84 101.84 0 1 1 457.31 349l-25.13 2.09 3.11-26.17a101.85 101.85 0 0 1 85.2-157.64m0-3a104.86 104.86 0 0 0-88.31 161.37l-3 25.08a3 3 0 0 0 3 3.36h.25l24-2a103.76 103.76 0 0 0 64.1 21.87 104.84 104.84 0 1 0 0-209.68" fill="#0b1236"/>
  <path d="M430 243.69a93.67 93.67 0 0 1 16.56-32.55" fill="#d3fffa"/>
  <path d="M431.42 244.1a92.2 92.2 0 0 1 16.29-32 1.5 1.5 0 0 0-2.36-1.85 95.17 95.17 0 0 0-16.82 33.07 1.5 1.5 0 0 0 2.89.82Z" fill="#0b1236"/>
  <path d="M520.49 167.25c-1.43 0-2.85.05-4.26.1 16.66.69 31.84 8.52 45.5 16.27 30.83 17.51 52.07 47.49 52.07 85.47A101.82 101.82 0 0 1 516 370.83c1.51.07 3 .1 4.54.1a101.84 101.84 0 1 0 0-203.68" fill="#9fc4d6"/>
  <g clip-path="url(#a)">
    <path d="M496.09 223.87a1.47 1.47 0 0 1-.54-.1c-12.34-4.69-27.23-11.74-30.76-16.13-4-4.95-5.5-32.93 1.66-44 2.53-3.91 5.13-5.89 7.71-5.89 4.29 0 7.55 5.17 9.19 14.55 2 11.27 24.32 44 24.54 44.28a1.49 1.49 0 0 1-.6 2.21l-10.57 4.92a1.56 1.56 0 0 1-.63.14" fill="#efefef"/>
    <path d="M474.16 159.27c3.65 0 6.37 5.63 7.71 13.31 2 11.72 24.79 44.87 24.79 44.87l-10.57 4.92c-14.29-5.43-27.21-12-30.14-15.67-3.41-4.24-5.09-31.66 1.76-42.22 2.36-3.65 4.53-5.21 6.45-5.21m0-3c-3.17 0-6.1 2.15-9 6.57-4.51 7-5.2 18.73-5.21 25.11 0 7.43.94 17.28 3.64 20.63 3.73 4.63 18.46 11.67 31.4 16.59a2.82 2.82 0 0 0 1.07.2 2.93 2.93 0 0 0 1.26-.28l10.57-4.92a3 3 0 0 0 1.21-4.42c-6.22-9.07-22.72-34.6-24.31-43.69-1.77-10.18-5.56-15.79-10.66-15.79" fill="#0b1236"/>
    <path d="M481.87 172.58c-1.35-7.71-4.08-13.35-7.75-13.31 3.08 1.23 4.76 6.82 5 14 .47 11.88 18.62 47.76 18.62 47.76l-2.88.9 1.19.45 10.57-4.92s-22.75-33.15-24.79-44.87" fill="#c2c3cc"/>
    <path d="M501 219.88c-14.28-5.43-27.21-12-30.13-15.67-3.42-4.24-5.09-31.66 1.75-42.22a20.93 20.93 0 0 1 2-2.68c-2-.28-4.37 1.22-6.92 5.17-6.85 10.56-5.17 38-1.76 42.22 2.93 3.63 15.85 10.24 30.14 15.67l10.57-4.92-.11-.16-5.54 2.59" fill="#fff"/>
    <path d="M469.8 174.69a79.58 79.58 0 0 0-.73 15.89" fill="#efefef"/>
    <path d="M468.32 174.45a75.21 75.21 0 0 0-.86 11.7c0 1.53 0 3 .12 4.51a1.5 1.5 0 0 0 3-.15c-.07-1.42-.11-2.88-.11-4.36a71 71 0 0 1 .83-11.23 1.5 1.5 0 0 0-3-.47Z" fill="#0b1236"/>
    <path d="m584.05 261.53 16.11 4.06-6.4 23.82-13.11 1.59 10.75 6.78c-4 11.25-9.27 19.92-16.62 27.56a102.12 102.12 0 0 1-17.47 14.14l-21.83-108L568.57 202l7-6.24c16.2 18.68 23.64 38.07 24.57 61l-16.11 4.76" fill="#273d7d"/>
    <path d="m584.05 261.53-.37 1.45 14.64 3.7-5.75 21.32-12.1 1.45a1.49 1.49 0 0 0-.62 2.75l10.75 6.8.8-1.27-1.42-.5c-4 11.09-9.08 19.53-16.28 27a100.39 100.39 0 0 1-17.22 13.93l.83 1.25 1.47-.3L537.12 232l32.44-28.88 7-6.25-1-1.12-1.13 1a99.21 99.21 0 0 1 17.75 28.48 94.86 94.86 0 0 1 6.45 31.64l1.5-.06-.43-1.44-16.1 4.76a1.5 1.5 0 0 0 0 2.89l.37-1.45.43 1.44 16.1-4.76a1.5 1.5 0 0 0 1.08-1.5 97.69 97.69 0 0 0-6.58-32.66 102.34 102.34 0 0 0-18.28-29.35 1.47 1.47 0 0 0-1-.51 1.49 1.49 0 0 0-1.1.38l-7 6.24-33.09 29.46a1.49 1.49 0 0 0-.47 1.42l21.83 108a1.54 1.54 0 0 0 .89 1.09 1.51 1.51 0 0 0 1.41-.14 103.76 103.76 0 0 0 17.72-14.35c7.5-7.79 12.87-16.69 16.95-28.09a1.52 1.52 0 0 0-.61-1.78L585 292l8.92-1.06a1.52 1.52 0 0 0 1.27-1.1l6.4-23.82a1.5 1.5 0 0 0-1.08-1.84l-16.11-4.07-.37 1.46.43 1.44-.43-1.44" fill="#0b1236"/>
    <path d="M567.17 324.5a91 91 0 0 1-10.95 9.56l1.09 5.39a102.12 102.12 0 0 0 17.47-14.14c7.35-7.64 12.59-16.31 16.62-27.56l-6.67-4.2c-.32 1.1-10.21 23.32-17.56 30.95m25.54-66.13c.31.93.48 0-2.46 1.33l9.91-2.93c-.93-23-8.37-42.36-24.57-61l-4 3.56c13.7 17.35 20.11 35.49 21 56.68Zm-2.58 4.69a9.49 9.49 0 0 1-.22 1.06l2.64.67-5.46 25.7-.92.11c.05.57-.89-.75-.91-.18l8.5-1 6.4-23.82Z" fill="#242f5b"/>
    <path d="m584.05 261.53-.37 1.45 14.64 3.7-5.75 21.32-12.1 1.45a1.49 1.49 0 0 0-.62 2.75l10.75 6.8.8-1.27-1.42-.5c-4 11.09-9.08 19.53-16.28 27a100.39 100.39 0 0 1-17.22 13.93l.83 1.25 1.47-.3L537.12 232l32.44-28.88 7-6.25-1-1.12-1.13 1a99.21 99.21 0 0 1 17.75 28.48 94.86 94.86 0 0 1 6.45 31.64l1.5-.06-.43-1.44-16.1 4.76a1.5 1.5 0 0 0 0 2.89l.37-1.45.43 1.44 16.1-4.76a1.5 1.5 0 0 0 1.08-1.5 97.69 97.69 0 0 0-6.58-32.66 102.34 102.34 0 0 0-18.28-29.35 1.47 1.47 0 0 0-1-.51 1.49 1.49 0 0 0-1.1.38l-7 6.24-33.09 29.46a1.49 1.49 0 0 0-.47 1.42l21.83 108a1.54 1.54 0 0 0 .89 1.09 1.51 1.51 0 0 0 1.41-.14 103.76 103.76 0 0 0 17.72-14.35c7.5-7.79 12.87-16.69 16.95-28.09a1.52 1.52 0 0 0-.61-1.78L585 292l8.92-1.06a1.52 1.52 0 0 0 1.27-1.1l6.4-23.82a1.5 1.5 0 0 0-1.08-1.84l-16.11-4.07-.37 1.46.43 1.44-.43-1.44" fill="#0b1236"/>
    <path d="M468.19 409.11a1.5 1.5 0 0 1-1.5-1.47c0-.51-.6-50.65 29.95-83.63a86.41 86.41 0 0 1 15.1-12.95l-70.46-44.48a1.5 1.5 0 0 1 .36-2.71 58.09 58.09 0 0 0 22-12.28 39.26 39.26 0 0 0 9.84-12.88q.19-.47.36-.9c.67-1.74 1.32-3.46 1.94-5.13 8.7-23.16 14.44-38.46 50-38.46h4l.89.05h.15l1 .06 1.32.11h.76l1.5.15 1 .11c1.58.18 3.2.41 4.83.69h.1c10.42 1.76 24.22 5.85 30.78 15.37 3.48 5.06 4.56 11.11 3.18 18-.39 1.9-.82 3.78-1.27 5.6-.6 2.44-1.3 5.12-2.14 8.17-.47 1.75-1 3.55-1.47 5.37-4.08 14.75-8.7 31.46-8.39 44.62.36 33.67 8 44.27 15.37 54.52 8 11.16 15.63 21.7 11.06 60.62a1.5 1.5 0 0 1-1.49 1.33H468.19" fill="#efefef"/>
    <path d="M525.72 195.72h5.45c.51 0 1.1.07 1.75.13h.67l1.46.14h.08l1 .11c1.46.17 3.09.4 4.82.69 14.76 2.49 37.09 9.84 32.74 31.57-.36 1.75-.77 3.61-1.26 5.54-.63 2.58-1.35 5.31-2.12 8.13-4.37 16.06-10.27 35.41-9.92 50.43.76 71.61 35 41.68 26.44 114.93H468.19S467.25 358 497.75 325a84.61 84.61 0 0 1 16.76-14l-72.43-45.73a60.43 60.43 0 0 0 10.09-4.07 58.62 58.62 0 0 0 12.43-8.54 40.26 40.26 0 0 0 10.21-13.4c.14-.32.27-.63.39-.94 9.87-25.77 13.49-42.64 50.52-42.64m0-3c-36.58 0-42.79 16.54-51.38 39.43-.63 1.67-1.27 3.38-1.94 5.14l-.33.81a37.75 37.75 0 0 1-9.47 12.37 55.91 55.91 0 0 1-11.8 8.1 57.17 57.17 0 0 1-9.58 3.87 3 3 0 0 0-.75 5.41L509 311.12A87.64 87.64 0 0 0 495.54 323c-9 9.66-20.88 27.05-26.94 55a141 141 0 0 0-3.41 29.63 3 3 0 0 0 3 2.95h118.64a3 3 0 0 0 3-2.65c4.63-39.5-3.12-50.28-11.34-61.68-7.24-10.06-14.73-20.46-15.08-53.64-.3-13 4.28-29.57 8.33-44.22.51-1.82 1-3.62 1.48-5.38.83-3 1.54-5.72 2.15-8.21.46-1.84.89-3.74 1.28-5.64 1.46-7.3.31-13.73-3.42-19.14-6.86-10-21.05-14.19-31.76-16h-.16c-1.63-.27-3.25-.5-4.84-.69l-1-.11h-.17l-1.39-.13h-.79l-1.32-.1h-6.06" fill="#0b1236"/>
    <path d="M466.29 258.9c1-.81 17.83 1.14 33 3.08 13.36 1.72 25.46 3.44 24.4 3.27-40.32-6.28-47-12.87-45.37-17.38.12-.33 2.74-8.43 2.84-8.75 6.06-19.64 9-34.12 25.35-41.25-19.6 5.3-23.51 20.1-31.32 40.49-.12.31-.25.62-.39.94a40.36 40.36 0 0 1-10.21 13.4 58.33 58.33 0 0 1-8.31 6.2h10" fill="#fff"/>
    <path d="M560.39 292.68c-.46-19.66 9.77-46.72 13.3-64.1 6.4-32-45-32.83-45-32.83h-5 .55s45.7 6.52 39.31 38.5c-3.53 17.38-8.09 38.77-7.63 58.43.75 71.61 35 41.68 26.44 114.93h4.46c8.6-73.25-25.68-43.32-26.44-114.93" fill="#c2c3cc"/>
    <path d="M510.67 313.64c-43.66 31.18-42.48 94-42.48 94h36.19c-8.07-12.83-17.29-65.81 24.47-94h-18.18" fill="#fff"/>
    <path d="m556.34 307.61 6.57 5c9.21 7.83 17 18.88 23.09 31.3q2.24 4.55 4.19 9.32c1.56 3.85 3 7.77 4.25 11.73.61 1.92 1.19 3.85 1.73 5.77 1.23 4.4 2.27 8.81 3.12 13.17.62 3.22 1.13 6.41 1.54 9.55a126.34 126.34 0 0 1 1.11 18.55v.87l-.71.2a118.33 118.33 0 0 1-20.08 3.32c-6.15.59-12.83 1-19.73 1.18-2.44.08-4.92.14-7.4.17-17.55.28-35.7-.33-49.29-1-1.41-6.58 1.39-36.68 33.38-32.73 13.23 1.11 19-9.35 21.31-15.31l-3.07-61.13" fill="#efefef"/>
    <path d="m555.43 308.8 6.57 5 .91-1.19-1 1.14c9 7.65 16.66 18.53 22.71 30.82q2.22 4.5 4.15 9.22c1.55 3.81 3 7.7 4.21 11.63q.91 2.85 1.71 5.72c1.22 4.35 2.25 8.72 3.1 13.05.61 3.18 1.12 6.34 1.52 9.45a128.56 128.56 0 0 1 1.12 16.44v2.77h1.5l-.41-1.44-.69.2A117.64 117.64 0 0 1 581 415c-6.11.58-12.76 1-19.64 1.17-2.43.08-4.9.14-7.37.17-3 .05-5.93.07-8.89.07-14.6 0-29-.51-40.3-1.09l-.08 1.5 1.47-.31a15.85 15.85 0 0 1-.25-3.07 34.57 34.57 0 0 1 1.07-8.22 28.05 28.05 0 0 1 7.46-13.47c4-3.81 9.69-6.51 18.09-6.52a42.71 42.71 0 0 1 5.36.35h.08c.7.06 1.39.09 2 .09a20.08 20.08 0 0 0 8.35-1.74 21.39 21.39 0 0 0 8.26-6.9 33.92 33.92 0 0 0 4.17-7.7 1.5 1.5 0 0 0-2.79-1.1 28 28 0 0 1-5.75 9.32 17.42 17.42 0 0 1-5.13 3.65 17 17 0 0 1-7.11 1.47c-.58 0-1.18 0-1.8-.08l-.12 1.5.18-1.49a46.3 46.3 0 0 0-5.72-.37 30.57 30.57 0 0 0-14.94 3.51 27.07 27.07 0 0 0-11.8 13.6 37.51 37.51 0 0 0-2.88 14.1 18.79 18.79 0 0 0 .31 3.7 1.51 1.51 0 0 0 1.39 1.18c11.32.58 25.79 1.09 40.46 1.09q4.47 0 8.93-.07c2.49 0 5-.09 7.43-.17 6.92-.23 13.63-.59 19.82-1.18a120.91 120.91 0 0 0 20.34-3.37l-.4-1.45.39 1.45.72-.2a1.52 1.52 0 0 0 1.1-1.4v-.92h-1.5 1.5v-1.94a132.29 132.29 0 0 0-1.14-16.82c-.41-3.17-.93-6.4-1.56-9.64-.86-4.41-1.91-8.85-3.15-13.29q-.81-2.92-1.74-5.83c-1.28-4-2.71-8-4.3-11.84-1.3-3.21-2.72-6.35-4.23-9.42-6.18-12.55-14-23.75-23.46-31.77v-.05l-6.57-5a1.5 1.5 0 1 0-1.83 2.38" fill="#0b1236"/>
    <path d="M559.06 311.58a112.72 112.72 0 0 1 22.59 39.87c1.57-1.12 3.1-2.27 4.61-3.47-.53-1.14-1.06-2.26-1.61-3.37-6-12.28-13.7-23.15-22.68-30.8l-2.91-2.23" fill="#c1c3ca"/>
    <path d="M556.34 307.61v1.06q1.39 1.44 2.7 2.91l2.91 2.23c9 7.65 16.64 18.52 22.68 30.8.55 1.11 1.08 2.23 1.61 3.37l1.27-1c-7.28-15.73-17.47-29.8-31.19-39.34" fill="#0b1236"/>
    <path d="M565.19 263.09c-.07.87-1.08 1.74-1.15 2.62-.14 1.8-.26 3.63-.37 5.48l-14.57-3.73Z" fill="#273d7d"/>
    <path d="m565.19 263.09-1.5-.11h.19-.18.19-.18v.05a8.31 8.31 0 0 1-.5.86 6 6 0 0 0-.37.72 3.44 3.44 0 0 0-.27 1c-.14 1.81-.27 3.65-.37 5.52l1.49.08.38-1.45-9.07-2.34 10.6-2.89-.39-1.44-1.5-.11 1.5.11-.39-1.45L548.7 266a1.5 1.5 0 0 0 0 2.9l14.57 3.73a1.45 1.45 0 0 0 1.26-.24 1.5 1.5 0 0 0 .61-1.13c.1-1.83.23-3.66.37-5.45h-.17.16-.17.16a9.76 9.76 0 0 1 .49-.86 4.63 4.63 0 0 0 .38-.71 3.17 3.17 0 0 0 .26-1 1.5 1.5 0 0 0-1.88-1.56Z" fill="#0b1236"/>
    <path d="M572.43 234.11c-.63 2.59-1.35 5.32-2.12 8.14L556 238.59Z" fill="#273d7d"/>
    <path d="m572.43 234.11-1.45-.35c-.63 2.56-1.35 5.28-2.12 8.1l1.45.39.37-1.45-8.81-2.26 11-3-.4-1.45-1.45-.35 1.45.35-.39-1.44-16.44 4.47a1.5 1.5 0 0 0 0 2.9l14.31 3.67a1.5 1.5 0 0 0 1.82-1.06c.78-2.84 1.5-5.58 2.14-8.18a1.5 1.5 0 0 0-1.85-1.8Z" fill="#0b1236"/>
    <path d="M577.94 333.29c-14.87 6.59-30.89 10.45-51.29 11.84 15.22-5.68 37.36-16.22 41.79-25.14a79.9 79.9 0 0 1 9.5 13.3Z" fill="#273d7d"/>
    <path d="m577.94 333.29-.6-1.37c-14.71 6.51-30.52 10.33-50.79 11.71l.1 1.5.53 1.4a191.11 191.11 0 0 0 25.14-11.45 82 82 0 0 0 10.79-7c3-2.42 5.39-4.84 6.67-7.4l-1.34-.67-1.13 1a78.27 78.27 0 0 1 9.33 12.99l1.3-.75-.6-1.37.6 1.37 1.3-.75a82.17 82.17 0 0 0-9.68-13.5 1.49 1.49 0 0 0-1.32-.48 1.48 1.48 0 0 0-1.15.82 21.23 21.23 0 0 1-5.84 6.38 97.86 97.86 0 0 1-16.52 10 200.44 200.44 0 0 1-18.6 8 1.5 1.5 0 0 0 .62 2.9c20.53-1.39 36.76-5.3 51.8-12a1.48 1.48 0 0 0 .82-.91 1.51 1.51 0 0 0-.13-1.21Z" fill="#0b1236"/>
    <path d="M590.19 353.27a150.94 150.94 0 0 1-33 1.7c-3.32-.21-6.77-.53-10.43-1 3.65-.48 7.11-1 10.39-1.51 12.26-2 21.92-4.55 28.83-8.54q2.26 4.58 4.21 9.35Z" fill="#273d7d"/>
    <path d="m590.19 353.27-.23-1.49a159 159 0 0 1-24 2c-2.82 0-5.69-.09-8.67-.27-3.29-.2-6.71-.52-10.34-1l-.18 1.49.19 1.48c3.66-.47 7.14-1 10.44-1.51 12.33-2 22.14-4.58 29.34-8.72L586 344l-1.35.66q2.22 4.5 4.15 9.22l1.39-.56-.23-1.49.23 1.49 1.38-.57c-1.3-3.21-2.72-6.35-4.23-9.42a1.49 1.49 0 0 0-2.09-.63c-6.63 3.83-16.14 6.39-28.33 8.36-3.26.54-6.7 1-10.34 1.5a1.5 1.5 0 0 0 0 3c3.68.45 7.16.78 10.52 1 3 .18 6 .27 8.85.27a162.86 162.86 0 0 0 24.44-2 1.52 1.52 0 0 0 1.08-.74 1.47 1.47 0 0 0 .08-1.31Zm5.16 16.99a75.36 75.36 0 0 1-12.68.63c-2.46-.09-5-.28-7.72-.59 2.66-.61 5.17-1.23 7.56-1.88a83.71 83.71 0 0 0 11.28-3.86q.83 2.84 1.56 5.7Z" fill="#0b1236"/>
    <path d="m595.35 370.26-.2-1.49a71.94 71.94 0 0 1-9.81.66h-2.62c-2.41-.09-4.93-.28-7.6-.58l-.12 1.45.33 1.46c2.67-.61 5.21-1.23 7.63-1.9a84.59 84.59 0 0 0 11.49-3.93l-.6-1.37-1.44.41q.81 2.82 1.55 5.67l1.45-.38-.2-1.49.2 1.49 1.45-.37q-.75-2.88-1.57-5.75a1.51 1.51 0 0 0-2-1 79.8 79.8 0 0 1-11.18 3.86c-2.36.65-4.85 1.26-7.5 1.87a1.5 1.5 0 0 0 .17 3c2.74.31 5.34.51 7.83.6h2.73a76 76 0 0 0 10.21-.68 1.53 1.53 0 0 0 1-.65 1.49 1.49 0 0 0 .21-1.21Z" fill="#0b1236"/>
    <path d="M467.91 258.71a7.36 7.36 0 0 0-1.39.09c-3.2 2.58-6.23 1.07-10.54 3.38a56.63 56.63 0 0 1-9.7 4.07l51.05 33.54a18.23 18.23 0 0 1 11.67 7.67l3.92 2.57 1.59 1 1.41.93c-.82.54-1.62 1.09-2.41 1.65h15.37a71.37 71.37 0 0 0-12.54 10.68 18.44 18.44 0 0 0 6.57 1.36c8 0 14.92-7 23.08-25.29 4.37-9.78 10.84-38.67-20.88-38.67h-1.71c-1 0-2.16.05-3.54.05-4.27 0-10.32-.15-17-.44 5.67 1.3 12.55 2.61 20.85 3.9h.06c-.09 0-11.7-1.64-24.46-3.28-4.19-.53-8.52-1.07-12.59-1.55-6.23-.45-12.2-1-17-1.67-.68 0-1.27-.05-1.76-.05" fill="#c1c3ca"/>
    <path d="m512.92 310 1.56 1-1.59-1" fill="#0b1236"/>
    <path d="M486.71 260.43c4.07.48 8.4 1 12.59 1.55 12.76 1.64 24.37 3.28 24.46 3.28h-.06c-8.3-1.29-15.18-2.6-20.85-3.9-5.2-.22-10.76-.53-16.14-.92M467 258.37l-.5.43a7.36 7.36 0 0 1 1.39-.09c.49 0 1.08 0 1.76.05l-2.65-.39m61.85 55.27h-15.37l-1.27.94a22 22 0 0 1 .64 4.39 17.22 17.22 0 0 1-.79 5.93c1-.4 1.93-.81 2.77-1.2.5.22 1 .43 1.48.62a71.37 71.37 0 0 1 12.54-10.68" fill="#ced0d7"/>
    <path d="M499 325.32h-.17l-40.29-4.75h-.17c-8.13-1.9-15.41-8.47-20.5-18.49-4.58-9-6.71-19.66-5.68-28.48 1.36-11.78 7.92-18.53 18-18.53a26.65 26.65 0 0 1 4.67.44c11.43 2 49.58 7.25 60.92 7.25h1.51c11.49 0 19.37 3.29 23.42 9.78 5.67 9.08 2.08 22-.93 28.13-8.42 17.25-15 24-23.57 24a21.12 21.12 0 0 1-7.68-1.64c-2.73 1.08-6.47 2.38-9.49 2.38Z" fill="#505254"/>
    <path d="M450.16 256.53a25.13 25.13 0 0 1 4.41.41c10.72 1.92 49.44 7.28 61.18 7.28h1.51c32.5 0 25.43 27 21.14 35.75-8 16.45-14.35 23.12-22.23 23.12a20.24 20.24 0 0 1-7.67-1.76c-2.76 1.12-6.58 2.5-9.5 2.5l-40.29-4.75c-26.15-6.12-36.79-62.54-8.51-62.54m0-3c-10.78 0-18.07 7.42-19.5 19.85-2.2 19 9.26 44.38 27.33 48.61a1.86 1.86 0 0 0 .34.06l40.29 4.75h.34c3.11 0 6.75-1.19 9.55-2.27a21.94 21.94 0 0 0 7.67 1.53c10.64 0 17.66-9.92 24.92-24.81 3.15-6.45 6.88-19.95.86-29.58-4.34-7-12.65-10.48-24.69-10.48h-1.51c-11.27 0-49.27-5.19-60.66-7.23a28.55 28.55 0 0 0-4.93-.46Z" fill="#0b1236"/>
    <path d="M499 325.31h-.17l-40.3-4.74h-.17c-8.13-1.9-15.41-8.47-20.5-18.49-4.58-9-6.7-19.65-5.68-28.48 1.36-11.77 7.93-18.52 18-18.52h.44a25.83 25.83 0 0 1 4.24.42c11.43 2 49.57 7.25 60.9 7.25h1.52c11.5 0 19.38 3.29 23.43 9.78 5.67 9.08 2.08 21.95-.94 28.13-8.41 17.25-15 24-23.56 24a21.17 21.17 0 0 1-7.69-1.64c-2.72 1.08-6.45 2.37-9.49 2.37Z" fill="#273d7d"/>
    <path d="M450.15 256.54h.41a24.3 24.3 0 0 1 4 .4c10.71 1.92 49.39 7.27 61.16 7.27h1.52c32.52 0 25.43 27 21.15 35.76-8 16.45-14.35 23.12-22.22 23.12a20.33 20.33 0 0 1-7.69-1.76c-2.75 1.12-6.57 2.5-9.49 2.5l-40.3-4.75c-26.14-6.13-36.77-62.53-8.51-62.53m0-3c-10.77 0-18.06 7.42-19.5 19.85-1 9.11 1.13 20.07 5.83 29.33C441.78 313.14 449.41 320 458 322l.33.06 40.3 4.74h.34c2.5 0 5.55-.73 9.55-2.27a22.18 22.18 0 0 0 7.68 1.53c10.63 0 17.64-9.92 24.91-24.81 3.15-6.45 6.88-19.95.86-29.59-4.34-6.95-12.65-10.48-24.69-10.48h-1.53c-11.26 0-49.25-5.19-60.64-7.22a26.78 26.78 0 0 0-4.52-.45Z" fill="#090e40"/>
    <path d="m455 257-.42-.07a24.3 24.3 0 0 0-4-.4c-28.77-.54-18.17 56.37 8.1 62.53l8.89 1.05c-17.39.47-44.32-48.57-12.57-63.11Z" fill="#44609e"/>
    <path d="M516.47 264.21c20.95 5.07 15 27 11.22 34.7-6.79 13.9-12.35 20.81-18.67 22.62 11.58 4.53 19.07-.46 29.38-21.57 4.32-8.86 11.47-36.18-21.93-35.75Z" fill="#242f5b"/>
    <path d="M528.81 294.7a121.4 121.4 0 0 1-9.25 15c-3.51 4.75-7.47 8.93-11.82 11.68a1.5 1.5 0 1 0 1.6 2.54 49 49 0 0 0 12.66-12.4 123.13 123.13 0 0 0 9.48-15.41 1.5 1.5 0 1 0-2.64-1.41Z" fill="#0b1236"/>
    <path d="M527.14 294.84a10.17 10.17 0 0 1 3.2.35 2.94 2.94 0 0 1 1.85 1.73 1.5 1.5 0 0 0 2.75-1.22 6.36 6.36 0 0 0-1.56-2.16 6.56 6.56 0 0 0-3.14-1.47 16 16 0 0 0-3.1-.23 1.49 1.49 0 0 0-1.5 1.49 1.51 1.51 0 0 0 1.5 1.51Z" fill="#0b1236"/>
    <path d="M459.84 289a5.25 5.25 0 0 1-.56 0 4.87 4.87 0 0 1-3.24-2 10.64 10.64 0 0 1-1.59-7.77c.65-4.68 3.55-8.2 6.74-8.2a5.12 5.12 0 0 1 .56 0 4.87 4.87 0 0 1 3.24 2 10.66 10.66 0 0 1 1.59 7.77c-.65 4.69-3.58 8.2-6.74 8.2Z" fill="#090e40"/>
    <path d="M461.19 272.53h.37c2.53.32 4.12 3.93 3.54 8.06-.55 3.92-2.86 6.9-5.26 6.9a2.3 2.3 0 0 1-.37 0c-2.53-.32-4.11-3.93-3.54-8.05.55-3.93 2.86-6.91 5.26-6.91m0-3c-4 0-7.46 4-8.23 9.49a12.17 12.17 0 0 0 1.89 8.89 6.35 6.35 0 0 0 4.24 2.56 6.28 6.28 0 0 0 .75 0c4 0 7.46-4 8.23-9.49a12.17 12.17 0 0 0-1.89-8.89 6.27 6.27 0 0 0-4.24-2.55 4.73 4.73 0 0 0-.75-.01Z" fill="#090e40"/>
    <path d="M451.28 270.44a12.14 12.14 0 0 1 3.2-3.62 9 9 0 0 1 5.47-1.93 9.78 9.78 0 0 1 3.58.72 1.5 1.5 0 0 0 1.11-2.79 12.9 12.9 0 0 0-4.69-.93 12 12 0 0 0-7.27 2.53 15.1 15.1 0 0 0-4 4.56 1.51 1.51 0 0 0 .58 2 1.49 1.49 0 0 0 2.02-.54Zm68.25 3.56a15.1 15.1 0 0 0-4-4.56 12 12 0 0 0-7.27-2.53 12.69 12.69 0 0 0-4.69.93 1.5 1.5 0 0 0 1.11 2.79 9.58 9.58 0 0 1 3.58-.72 9 9 0 0 1 5.46 1.93 12.05 12.05 0 0 1 3.21 3.62 1.5 1.5 0 0 0 2.62-1.46Z" fill="#0b1236"/>
    <path d="M506.88 293.8h-.37c-3.41-.3-5.79-4.48-5.41-9.53.36-4.86 3.12-8.52 6.41-8.52a2.42 2.42 0 0 1 .38 0c3.41.29 5.78 4.47 5.41 9.52-.37 4.87-3.12 8.53-6.42 8.53Z" fill="#090e40"/>
    <path d="M507.51 277.24h.25c2.54.22 4.35 3.76 4 7.92s-2.47 7.13-4.92 7.13h-.24c-2.55-.22-4.36-3.76-4.05-7.92s2.48-7.13 4.92-7.13m0-3c-4.09 0-7.49 4.26-7.91 9.91-.44 5.87 2.54 10.76 6.78 11.13h.5c4.09 0 7.49-4.26 7.91-9.91.44-5.87-2.54-10.76-6.77-11.13Z" fill="#090e40"/>
    <path d="M481.74 372.35a126.57 126.57 0 0 1 10.1-26.46" fill="#efefef"/>
    <path d="M483.19 372.73a124.36 124.36 0 0 1 10-26.14 1.5 1.5 0 0 0-2.66-1.39 128 128 0 0 0-10.25 26.8 1.5 1.5 0 0 0 2.91.76Z" fill="#0b1236"/>
    <path d="M489.56 221.38a9.89 9.89 0 0 0-3 .46c-1.85 5.17-3.48 11-5.43 17.28-.06.19-1.1 3.42-1.91 5.9a11 11 0 0 0 6.69 5 8.28 8.28 0 0 0 .84.16 8.61 8.61 0 0 0 1.43.11c5.6 0 10.81-4.86 12.23-11.7 1.61-7.83-2.25-15.44-8.62-17a8.33 8.33 0 0 0-.84-.17 10 10 0 0 0-1.44-.11" fill="#c1c3ca"/>
    <path d="M478.75 229a17.44 17.44 0 0 0-1.16 3.06c.39-1 .78-2.06 1.16-3.06" fill="#0b1236"/>
    <path d="M486.6 221.84a13.54 13.54 0 0 0-7.85 7.12c-.38 1-.77 2-1.16 3.06-.09.35-.18.7-.25 1.07a16.43 16.43 0 0 0 1.92 11.91c.81-2.48 1.85-5.71 1.91-5.9 1.95-6.32 3.58-12.11 5.43-17.28" fill="#ced0d7"/>
    <path d="M476 227.77a20.08 20.08 0 0 0-1.26 3.33c.43-1.12.85-2.24 1.26-3.33" fill="#98bbd7"/>
    <path d="M482.12 220.67q-1.1 2.46-2.14 5.13 1-2.67 2.14-5.13m7.44-2.29a11.9 11.9 0 0 0-1.69.12c-.44 1.08-.86 2.19-1.27 3.34a9.66 9.66 0 0 1 4.4-.35 8.33 8.33 0 0 1 .84.17c6.37 1.53 10.23 9.14 8.62 17-1.42 6.84-6.63 11.7-12.23 11.7a8.61 8.61 0 0 1-1.43-.11 8.28 8.28 0 0 1-.84-.16 11 11 0 0 1-6.69-5l-.93 2.85a3.21 3.21 0 0 0-.17.66 13.5 13.5 0 0 0 7.09 4.45c.37.08.74.16 1.1.21a13.11 13.11 0 0 0 1.88.14c7.1 0 13.47-5.93 15.16-14.09 1.95-9.4-2.92-18.59-10.84-20.5-.36-.09-.74-.16-1.11-.22a13.11 13.11 0 0 0-1.88-.14" fill="#c1c3ca"/>
    <path d="M482.12 220.67a17.63 17.63 0 0 0-6.13 7.1c-.41 1.09-.83 2.21-1.26 3.33q-.18.68-.33 1.38a20.13 20.13 0 0 0-.08 7.88c.18-.35.34-.71.49-1.06s.27-.63.39-.94c.83-2.18 1.62-4.3 2.39-6.34a17.44 17.44 0 0 1 1.16-3.06c.41-1.08.82-2.13 1.23-3.16q1-2.67 2.14-5.13" fill="#0b1236"/>
    <path d="M477.59 232c-.77 2-1.56 4.16-2.39 6.34-.12.31-.25.62-.39.94s-.31.71-.49 1.06a17.66 17.66 0 0 0 3.84 8.17 3.21 3.21 0 0 1 .17-.66l.93-2.85a16.43 16.43 0 0 1-1.92-11.93c.07-.37.16-.72.25-1.07m10.28-13.52a13.83 13.83 0 0 0-5.75 2.17q-1.1 2.46-2.14 5.13c-.41 1-.82 2.08-1.23 3.16a13.54 13.54 0 0 1 7.85-7.12c.41-1.15.83-2.26 1.27-3.34" fill="#ced0d7"/>
    <path d="M484.64 251.23a11.59 11.59 0 0 1-1.66-.12c-.32-.05-.65-.11-1-.19-7.15-1.72-11.52-10.13-9.73-18.74 1.54-7.47 7.3-12.89 13.69-12.89a11.59 11.59 0 0 1 1.66.12c.32.05.65.11 1 .19 7.15 1.72 11.51 10.13 9.73 18.74-1.54 7.47-7.33 12.89-13.69 12.89Z" fill="#fff"/>
    <path d="M486 220.79a9.92 9.92 0 0 1 1.43.1c.29.05.57.1.85.17 6.37 1.53 10.23 9.15 8.61 17-1.41 6.84-6.62 11.71-12.22 11.71a10 10 0 0 1-1.44-.11 8.33 8.33 0 0 1-.84-.17c-6.37-1.53-10.23-9.15-8.62-17 1.42-6.84 6.63-11.7 12.23-11.7m0-3c-7.1 0-13.48 5.93-15.16 14.09-1.95 9.4 2.92 18.59 10.84 20.5q.57.13 1.11.21a11.82 11.82 0 0 0 1.88.15c7.1 0 13.47-5.93 15.16-14.1 1.94-9.39-2.92-18.59-10.85-20.5-.36-.08-.73-.16-1.1-.21a11.81 11.81 0 0 0-1.88-.14Z" fill="#0b1236"/>
    <path d="M482.24 251.92c5.14 1.23 10.46-3.35 11.89-10.24s-1.59-13.48-6.73-14.68-10.46 3.35-11.89 10.24 1.59 13.44 6.73 14.68Z" fill="#090e40"/>
    <path d="M477.93 245.82c2.63.63 5.35-1.71 6.08-5.24s-.81-6.89-3.44-7.52-5.35 1.71-6.08 5.23.82 6.89 3.44 7.53Z" fill="#fff"/>
    <path d="M535.25 226.58c-5.6 0-10.81 4.86-12.22 11.7-1.62 7.82 2.24 15.44 8.61 17 .28.07.56.12.84.17a10 10 0 0 0 1.44.1c5.6 0 10.81-4.86 12.22-11.7 1.62-7.82-2.24-15.44-8.61-17-.28-.07-.56-.12-.84-.17a10 10 0 0 0-1.44-.1" fill="#c1c3ca"/>
    <path d="M532.48 255.42c-.28 0-.56-.1-.84-.17-6.37-1.53-10.23-9.15-8.61-17 1.41-6.84 6.62-11.7 12.22-11.7a10 10 0 0 1 1.44.1c.28 0 .56.1.84.17 6.37 1.53 10.23 9.15 8.61 17-1.41 6.84-6.62 11.7-12.22 11.7a10 10 0 0 1-1.44-.1m2.77-31.84c-7.1 0-13.47 5.92-15.16 14.09-1.94 9.39 2.92 18.59 10.85 20.5a11.18 11.18 0 0 0 1.1.21 11.81 11.81 0 0 0 1.88.14c7.1 0 13.47-5.92 15.16-14.09 1.95-9.4-2.92-18.59-10.85-20.5-.35-.08-.72-.16-1.1-.21a11.81 11.81 0 0 0-1.88-.14" fill="#c1c3ca"/>
    <path d="M530.05 257.28a10.32 10.32 0 0 1-1.66-.13c-.32 0-.64-.11-1-.18-7.15-1.73-11.51-10.13-9.73-18.74 1.54-7.47 7.3-12.9 13.69-12.9a10.32 10.32 0 0 1 1.66.13 8.9 8.9 0 0 1 1 .19c7.14 1.72 11.5 10.12 9.72 18.73-1.53 7.47-7.29 12.9-13.68 12.9Z" fill="#fff"/>
    <path d="M531.38 226.83a10.08 10.08 0 0 1 1.44.11c.28 0 .56.1.84.16 6.37 1.54 10.23 9.15 8.61 17-1.41 6.84-6.62 11.7-12.22 11.7a10 10 0 0 1-1.44-.11c-.28 0-.56-.1-.84-.16-6.37-1.54-10.23-9.15-8.61-17 1.41-6.84 6.62-11.7 12.22-11.7m0-3c-7.1 0-13.47 5.93-15.16 14.1-2 9.39 2.92 18.58 10.85 20.49.37.09.74.16 1.1.22a13.11 13.11 0 0 0 1.88.14c7.1 0 13.47-5.93 15.16-14.09 1.95-9.4-2.92-18.6-10.85-20.5-.35-.09-.73-.16-1.1-.22a13.11 13.11 0 0 0-1.88-.14Z" fill="#0b1236"/>
    <path d="M527.65 258c5.14 1.24 10.47-3.35 11.89-10.24S538 234.24 532.81 233s-10.46 3.34-11.89 10.23 1.59 13.49 6.73 14.77Z" fill="#090e40"/>
    <path d="M516.35 211.18h-.21l-1-.15a1.5 1.5 0 0 1-1.3-1.48v-65.9a1.51 1.51 0 0 1 .58-1.18 1.49 1.49 0 0 1 .92-.32 1.47 1.47 0 0 1 .36 0c9.8 2.42 19.61 8.05 29.16 16.73a1.5 1.5 0 0 1 .41 1.59l-4 12 9.64-7.21a1.5 1.5 0 0 1 1.91.09c5.05 4.62 12.14 15.78 12.44 16.25a1.51 1.51 0 0 1-.06 1.68l-19 26.24a1.52 1.52 0 0 1-1.16.62Z" fill="#8d58c6"/>
    <path d="M515.31 143.65c9.81 2.42 19.3 8 28.51 16.38l-5.56 16.53 13.5-10.1c5 4.54 12.18 15.94 12.18 15.94l-19.05 26.24-28.54 1-1-.14v-65.85m0-3a3 3 0 0 0-3 3v65.89a3 3 0 0 0 2.59 3l1 .14h.53l28.54-1a3 3 0 0 0 2.31-1.24l19.06-26.23a3 3 0 0 0 .1-3.37c-.3-.48-7.49-11.8-12.69-16.55a3 3 0 0 0-2-.79 3 3 0 0 0-1.8.6l-5.78 4.32 2.49-7.39a3 3 0 0 0-.83-3.18c-9.74-8.85-19.77-14.6-29.81-17.08a3.45 3.45 0 0 0-.75-.12Z" fill="#0b1236"/>
    <path d="m551.76 166.46-13.5 10.1 5.56-16.56c-9.21-8.37-18.7-14-28.51-16.38v65.89l1 .14 28.54-1 19.05-26.24s-7.18-11.41-12.14-15.95Z" fill="#273d7d"/>
    <path d="m551.76 166.46-.9-1.2-9.64 7.21 4-12a1.48 1.48 0 0 0-.41-1.59c-9.34-8.49-19.05-14.23-29.16-16.73a1.48 1.48 0 0 0-1.28.28 1.51 1.51 0 0 0-.58 1.18v65.89a1.51 1.51 0 0 0 1.3 1.48l1 .15h.26l28.54-1a1.52 1.52 0 0 0 1.16-.62l19-26.24a1.49 1.49 0 0 0 .06-1.68s-1.83-2.88-4.28-6.33c-1.22-1.73-2.61-3.6-4-5.35a43.58 43.58 0 0 0-4.15-4.57 1.51 1.51 0 0 0-1.91-.09l.9 1.2-1 1.11a38.56 38.56 0 0 1 3.85 4.24c2 2.51 4 5.37 5.56 7.59.76 1.11 1.39 2.07 1.83 2.74l.51.79.18.28 1.27-.81-1.21-.88-18.56 25.66-27.68 1-.9-.13-.21 1.49h1.5v-65.88h-1.5l-.31 1.45c9.49 2.34 18.77 7.79 27.85 16l1-1.11-1.42-.48-5.56 16.53a1.5 1.5 0 0 0 2.32 1.68l13.49-10.1-.89-1.2-1 1.11Z" fill="#090e40"/>
    <path d="M563.94 182.4s-7.22-11.4-12.18-15.94l-7.47 5.59a39 39 0 0 1 9.89 13c-5.29 8.93-10.92 17.7-16.7 24.09l7.17-.39L563 184.64l-.31-.48ZM543.82 160c-9.21-8.37-18.7-14-28.51-16.38v4.74c9.3 2.56 18.32 8 27.08 15.91Z" fill="#242f5b"/>
    <path d="m551.76 166.46-.9-1.2-9.64 7.21 4-12a1.48 1.48 0 0 0-.41-1.59c-9.34-8.49-19.05-14.23-29.16-16.73a1.48 1.48 0 0 0-1.28.28 1.51 1.51 0 0 0-.58 1.18v65.89a1.51 1.51 0 0 0 1.3 1.48l1 .15h.26l28.54-1a1.52 1.52 0 0 0 1.16-.62l19-26.24a1.49 1.49 0 0 0 .06-1.68s-1.83-2.88-4.28-6.33c-1.22-1.73-2.61-3.6-4-5.35a43.58 43.58 0 0 0-4.15-4.57 1.51 1.51 0 0 0-1.91-.09l.9 1.2-1 1.11a38.56 38.56 0 0 1 3.85 4.24c2 2.51 4 5.37 5.56 7.59.76 1.11 1.39 2.07 1.83 2.74l.51.79.18.28 1.27-.81-1.21-.88-18.56 25.66-27.68 1-.9-.13-.21 1.49h1.5v-65.88h-1.5l-.31 1.45c9.49 2.34 18.77 7.79 27.85 16l1-1.11-1.42-.48-5.56 16.53a1.5 1.5 0 0 0 2.32 1.68l13.49-10.1-.89-1.2-1 1.11Z" fill="#090e40"/>
    <path d="M516.27 211.17h-.22l-17-2.57a1.49 1.49 0 0 1-1.05-.7 1.51 1.51 0 0 1-.15-1.26c6.34-19.18 2.67-39-10.93-58.89a1.53 1.53 0 0 1-.22-1.18 1.5 1.5 0 0 1 .71-1c5.17-3 11.16-4.46 18.3-4.46a62.29 62.29 0 0 1 9.85.84 1.49 1.49 0 0 1 1.19 1c6.68 19.8 12 43.28.94 67.33a1.52 1.52 0 0 1-1.37.87" fill="#273d7d"/>
    <path d="M505.66 142.63a60.65 60.65 0 0 1 9.62.82c7.42 22 11.23 44 1 66.22l-17-2.57c6.43-19.46 3-39.52-11.12-60.21 4.64-2.7 10.35-4.26 17.55-4.26m0-3c-7.42 0-13.65 1.52-19.05 4.66a3 3 0 0 0-1 4.29c13.51 19.76 17 38.59 10.75 57.57a3 3 0 0 0 2.4 3.91l17.05 2.58h.44a3 3 0 0 0 2.73-1.75c11.29-24.52 5.89-48.35-.88-68.43a3 3 0 0 0-2.37-2 64.14 64.14 0 0 0-10.09-.86" fill="#0b1236"/>
    <path d="M504.34 207.86c3.6-20.93 4.18-40.3-10.23-61.39 1.6-.93 1.6-1.74 3.48-2.39a35 35 0 0 1 5.25-1.36 35.77 35.77 0 0 0-9.72 1.87 28.69 28.69 0 0 0-5 2.3c14.14 20.69 17.55 40.74 11.12 60.2l5.11.77" fill="#44609e"/>
    <path d="m494.67 147.23-3.39-6.09c5.41-2.7 17.28-4.15 23.18-4.54a92.17 92.17 0 0 1 3.5 9.15l-23.29 1.48" fill="#273d7d"/>
    <path d="m496 146.5-3.39-6.09-1.31.73.67 1.34a25.91 25.91 0 0 1 4.79-1.68 104.82 104.82 0 0 1 17.82-2.7l-.1-1.5-1.37.6a89.38 89.38 0 0 1 3.44 9 1.5 1.5 0 0 0 2.85-.95 92.81 92.81 0 0 0-3.54-9.26 1.47 1.47 0 0 0-1.48-.9c-3 .19-7.48.66-11.93 1.41-2.22.38-4.44.84-6.46 1.38a28 28 0 0 0-5.36 1.9 1.48 1.48 0 0 0-.64 2.07l3.38 6.09a1.5 1.5 0 0 0 2.63-1.44" fill="#090e40"/>
    <path fill="#0a103c" d="m491.24 141.28 3.33 5.98-3.33-5.98"/>
    <path d="M515.43 157.91a1.9 1.9 0 1 1-1.89-1.89 1.89 1.89 0 0 1 1.89 1.89Zm-28.72 35.35a1.89 1.89 0 1 1-1.89-1.89 1.89 1.89 0 0 1 1.89 1.89Zm26.72-28.38a81.52 81.52 0 0 1 1.37 14.77 77.59 77.59 0 0 1-2.71 20.35 1.5 1.5 0 1 0 2.89.78 80.11 80.11 0 0 0 2.82-21.1 84.73 84.73 0 0 0-1.42-15.32 1.5 1.5 0 0 0-3 .55Z" fill="#0b1236"/>
    <path d="M557.19 220.79c15.46-6.83 29.22-14.64 32-18.44 3.28-4.45 1.38-30.87-7.86-40.18s-14.26-2.08-15 9.37-23.78 43.26-23.78 43.26" fill="#efefef"/>
    <path d="M557.8 222.16a232.14 232.14 0 0 0 20.9-10.43c2.89-1.65 5.39-3.22 7.38-4.64a30 30 0 0 0 2.58-2 12 12 0 0 0 1.77-1.84 6.43 6.43 0 0 0 .87-1.76 18.06 18.06 0 0 0 .7-3.49 40.11 40.11 0 0 0 .23-4.45 71.55 71.55 0 0 0-2.3-17.32 48.51 48.51 0 0 0-3-8.43 24.34 24.34 0 0 0-4.48-6.68 19.81 19.81 0 0 0-4.45-3.5 8.6 8.6 0 0 0-4.17-1.2 6.25 6.25 0 0 0-3.89 1.35 11.56 11.56 0 0 0-3.55 5.56 31.13 31.13 0 0 0-1.45 8.13 18.41 18.41 0 0 1-1.14 4.73 80.82 80.82 0 0 1-5.48 11.53c-3.49 6.27-7.71 12.83-11.06 17.82-1.68 2.49-3.13 4.59-4.17 6.07-.52.73-.93 1.32-1.22 1.71l-.43.61a1.5 1.5 0 0 0 2.43 1.76s5.8-8 11.69-17.43c2.94-4.72 5.91-9.8 8.21-14.46a63 63 0 0 0 2.86-6.61 21 21 0 0 0 1.3-5.55 24.15 24.15 0 0 1 2.05-9.15 6.68 6.68 0 0 1 1.8-2.35 3.19 3.19 0 0 1 2.05-.72 5.68 5.68 0 0 1 2.73.83 17.2 17.2 0 0 1 3.76 3 21.35 21.35 0 0 1 3.9 5.86c3.41 7.11 5 17.26 5 24.46a31.91 31.91 0 0 1-.37 5.23 11.57 11.57 0 0 1-.41 1.76 3.57 3.57 0 0 1-.43.93 9.45 9.45 0 0 1-1.33 1.36 42.52 42.52 0 0 1-4.68 3.41 201 201 0 0 1-25.42 13.19 1.5 1.5 0 1 0 1.21 2.74Z" fill="#0b1236"/>
    <path d="M581.37 162.17c-5.31-5.36-9.22-5.23-11.72-2a20.14 20.14 0 0 1 3.32 2.45c9.82 8.7 13.44 34.93 10.44 39.59-2.32 3.61-13.44 11.1-26.69 18.3l.47.27c15.46-6.83 29.22-14.64 32-18.44 3.32-4.44 1.42-30.86-7.82-40.17Z" fill="#c2c3cc"/>
    <path d="M560.54 210.56a4.1 4.1 0 0 1-1.43-.25 3.69 3.69 0 0 1-2.25-2.25 3.36 3.36 0 0 1 .34-2.89l1.22-2c6.69-10.72 15-24.06 15.65-33.31a1.5 1.5 0 0 1 .91-1.28 1.52 1.52 0 0 1 .59-.12 1.46 1.46 0 0 1 .95.34c6.92 5.7 8.39 24.29 7 28.81a1.54 1.54 0 0 1-.36.62c-2 2-10 6.87-20.94 11.92a4.17 4.17 0 0 1-1.68.41Z" fill="#273d7d"/>
    <path d="M575.57 170c6.21 5.12 7.82 23 6.54 27.22-1.49 1.54-8.52 6.1-20.48 11.61a2.73 2.73 0 0 1-1.09.23 2.57 2.57 0 0 1-.91-.16 2 2 0 0 1-1.16-2.94c7.15-11.47 16.41-25.76 17.1-36m0-3a3.12 3.12 0 0 0-1.19.24 3 3 0 0 0-1.8 2.55c-.61 8.88-8.83 22-15.43 32.62l-1.22 2a4.86 4.86 0 0 0-.49 4.18 5.19 5.19 0 0 0 3.15 3.16 5.62 5.62 0 0 0 4.29-.16c11.26-5.18 19.28-10.08 21.38-12.23a3 3 0 0 0 .72-1.23c1.6-5.32-.22-24.4-7.5-30.41a3 3 0 0 0-1.91-.68Z" fill="#090e40"/>
    <path d="M575.57 170a27.89 27.89 0 0 1-1.21 6.09 53.69 53.69 0 0 1 1.95 11.24 13.6 13.6 0 0 1-4.37 10.92c-3.83 3.52-9.34 8.43-12.31 10.65-.55.41 1.38.21 2-.07 12-5.51 19-10.07 20.48-11.61 1.28-4.22-.33-22.1-6.54-27.22Z" fill="#242f5b"/>
    <path d="M573.9 257.75a150.57 150.57 0 0 0-4.65 22.31 1.5 1.5 0 0 0 3 .38 149.78 149.78 0 0 1 4.55-21.87 1.5 1.5 0 1 0-2.88-.82Zm2.32-62.03a1.9 1.9 0 1 1-1.89-1.89 1.89 1.89 0 0 1 1.89 1.89Zm-79.3 145.62a1.9 1.9 0 1 1-1.89-1.89 1.89 1.89 0 0 1 1.89 1.89Z" fill="#0b1236"/>
    <path d="M523.49 252.36c2.63.63 5.35-1.71 6.08-5.23s-.81-6.89-3.44-7.53-5.35 1.71-6.08 5.24.81 6.89 3.44 7.52Z" fill="#fff"/>
    <path d="M579 252.1a2 2 0 1 1-2-2 2 2 0 0 1 2 2Zm-21.2-29.94a232.14 232.14 0 0 0 20.9-10.43c2.89-1.65 5.39-3.22 7.38-4.64a30 30 0 0 0 2.58-2 12 12 0 0 0 1.77-1.84 6.43 6.43 0 0 0 .87-1.76 18.06 18.06 0 0 0 .7-3.49 40.11 40.11 0 0 0 .23-4.45 71.55 71.55 0 0 0-2.3-17.32 48.51 48.51 0 0 0-3-8.43 24.34 24.34 0 0 0-4.48-6.68 19.81 19.81 0 0 0-4.45-3.5 8.6 8.6 0 0 0-4.17-1.2 6.25 6.25 0 0 0-3.89 1.35 11.56 11.56 0 0 0-3.55 5.56 31.13 31.13 0 0 0-1.45 8.13 18.41 18.41 0 0 1-1.14 4.73 80.82 80.82 0 0 1-5.48 11.53c-3.49 6.27-7.71 12.83-11.06 17.82-1.68 2.49-3.13 4.59-4.17 6.07-.52.73-.93 1.32-1.22 1.71l-.43.61a1.5 1.5 0 0 0 2.43 1.76s5.8-8 11.69-17.43c2.94-4.72 5.91-9.8 8.21-14.46a63 63 0 0 0 2.86-6.61 21 21 0 0 0 1.3-5.55 24.15 24.15 0 0 1 2.05-9.15 6.68 6.68 0 0 1 1.8-2.35 3.19 3.19 0 0 1 2.05-.72 5.68 5.68 0 0 1 2.73.83 17.2 17.2 0 0 1 3.76 3 21.35 21.35 0 0 1 3.9 5.86c3.41 7.11 5 17.26 5 24.46a31.91 31.91 0 0 1-.37 5.23 11.57 11.57 0 0 1-.41 1.76 3.57 3.57 0 0 1-.43.93 9.45 9.45 0 0 1-1.33 1.36 42.52 42.52 0 0 1-4.68 3.41 201 201 0 0 1-25.42 13.19 1.5 1.5 0 1 0 1.21 2.74Z" fill="#0b1236"/>
  </g>
</svg>
