<?xml version="1.0" encoding="utf-8"?>
<!-- Generator: Adobe Illustrator 26.0.3, SVG Export Plug-In . SVG Version: 6.00 Build 0)  -->
<svg version="1.1" id="Layer_1" xmlns="http://www.w3.org/2000/svg" xmlns:xlink="http://www.w3.org/1999/xlink" x="0px" y="0px"
	 viewBox="0 0 800 800" style="enable-background:new 0 0 800 800;" xml:space="preserve">
<style type="text/css">
	.st0{opacity:0.2;fill:#273D7D;enable-background:new    ;}
	.st1{opacity:0.2;fill:#0B1236;enable-background:new    ;}
	.st2{fill:none;stroke:#090E40;stroke-width:3;stroke-linecap:round;stroke-linejoin:round;}
	.st3{fill:#83CE3A;}
	.st4{fill:#0B1236;}
	.st5{opacity:0.3;fill:#FFFFFF;enable-background:new    ;}
	.st6{fill:#75B234;}
	.st7{fill:#75B234;stroke:#090E40;stroke-width:3;stroke-miterlimit:10;}
	.st8{fill:#BDEF84;stroke:#0B1236;stroke-width:3;stroke-linecap:round;stroke-linejoin:round;}
	.st9{fill:#090E40;}
	.st10{opacity:0.4;fill:#0B1236;enable-background:new    ;}
	.st11{opacity:0.2;fill:#FFFFFF;enable-background:new    ;}
	.st12{fill:#2F96F4;stroke:#0B1236;stroke-width:3;stroke-linecap:round;stroke-linejoin:round;}
	.st13{fill:#2F96F4;}
	.st14{fill:#8C58C4;stroke:#0B1236;stroke-width:3;stroke-linecap:round;stroke-linejoin:round;}
	.st15{fill:#FFFFFF;}
	.st16{fill:#FFFFFF;stroke:#0B1236;stroke-width:3;stroke-linecap:round;stroke-linejoin:round;}
	.st17{fill:#273D7D;}
	.st18{opacity:0.5;fill:#273D7D;enable-background:new    ;}
	.st19{fill:#242F5B;}
	.st20{fill:#C2C3CC;}
	.st21{fill:#F0F0F0;}
	.st22{fill:#273D7D;stroke:#090E40;stroke-width:3;stroke-linecap:round;stroke-linejoin:round;}
	.st23{fill:#5A5C5F;}
	.st24{fill:#44609E;}
	.st25{fill:#D6332F;}
	.st26{fill:#9F5AD2;stroke:#090E40;stroke-width:3;stroke-linecap:round;stroke-linejoin:round;}
	.st27{opacity:0.4;fill:#FFFFFF;enable-background:new    ;}
	.st28{fill:#8C58C4;}
	.st29{fill:#5B4087;}
	.st30{fill:#C58FFF;}
	.st31{opacity:0.4;fill:#C58FFF;enable-background:new    ;}
	.st32{opacity:0.3;fill:#090E40;enable-background:new    ;}
	.st33{fill:none;stroke:#0B1236;stroke-width:3;stroke-linecap:round;stroke-linejoin:round;}
	.st34{opacity:0.3;fill:#0B1236;enable-background:new    ;}
	.st35{fill:#FFD000;stroke:#0B1236;stroke-width:3;stroke-linecap:round;stroke-linejoin:round;}
	.st36{fill:#D6332F;stroke:#0B1236;stroke-width:3;stroke-linecap:round;stroke-linejoin:round;}
	.st37{fill:#CCCCCC;}
	.st38{fill:#83CE3A;stroke:#090E40;stroke-width:3;stroke-linecap:round;stroke-linejoin:round;}
	.st39{fill:#BDEF84;}
	.st40{fill:#D392FF;stroke:#090E40;stroke-width:3;stroke-linecap:round;stroke-linejoin:round;}
	.st41{fill:#B08E00;stroke:#090E40;stroke-width:3;stroke-linecap:round;stroke-linejoin:round;}
	.st42{fill:#FFD000;stroke:#090E40;stroke-width:3;stroke-linecap:round;stroke-linejoin:round;}
	.st43{fill:#FFDD92;}
</style>
<path class="st0" d="M507.3,456.1c3.3,10.7,4.1,22.1,4.4,33.8v5.5c-0.1,9.2-1.3,18.4-3.5,27.4c-0.3,1.5-1.7,2.5-3.1,2.5h-1.3
	c-0.6,0.4-1.2,0.6-1.9,0.7H493c-0.5,0.4-1.1,0.5-1.8,0.5H336.4c-0.6,0-1.3-0.2-1.8-0.5h-10.9c-1.5,0-2.8-1-3.2-2.5
	c-2.3-9.7-3.5-19.6-3.5-29.6c0-14.2,2.4-28.3,7.1-41.7c-0.5-4.5-1-8.8-1.5-12.7c-0.1-0.6-0.1-1.1-0.2-1.7l-0.1-0.5
	c0-0.2,0-0.5,0-0.7c0.6-4.6,4.4-8.1,9.1-8.2c1.1-0.4,2.2-0.7,3.4-0.7h1.3c1.1-1.7,2.3-3.4,3.5-5c0-0.1,0.1-0.1,0.1-0.2l0.9-1.1
	c0.5-0.7,1-1.4,1.6-2s1-1.2,1.5-1.9c0.4-0.5,0.7-0.9,1.1-1.4s0.6-0.6,0.9-1l0.2-0.2c3.7-4.1,7.7-8,12-11.5c-2.3-2.7-4.3-5.7-6-9
	c-19.7-9.5-27.4-32-27.4-48.3c0.1-6,1.8-11.8,4.9-16.9c-0.9-3.9-1.6-7.8-2.1-11.8c-0.8-6,0-0.1,0-0.1c0-0.2,0-0.4-0.1-0.6
	s-0.1-0.5-0.1-0.7c-0.5-4.2-0.9-8.5-1.1-13c-0.1-1.7-0.1-3.5-0.1-5.7c0-2.8,0.1-5.3,0.2-7.7c0.1-1.6,0.2-3.2,0.3-5.1s0.3-3.4,0.5-5
	l0.1-0.8c0.1-0.6,0.1-1.1,0.2-1.7c0.2-1.2,0.4-2.3,0.5-3.5c0.6-3.9,1.4-7.6,2.3-11.2c0.6-2.6,1.4-5.3,2.3-8.2c0.5-1.5,0.9-2.8,1.3-4
	c0.7-2.1,1.5-4.2,2.4-6.3c-30-18.5-45.4-45.5-45.9-80.4v-0.1c0-0.2,0-0.5,0.1-0.7c0-0.2,0.1-0.4,0.2-0.5l0.1-0.2l0.1-0.1
	c0.1-0.2,0.3-0.4,0.4-0.6l0.1-0.1c0.2-0.2,0.4-0.3,0.6-0.5h0c0.2-0.1,0.5-0.3,0.8-0.3h0c0.3-0.1,0.6-0.1,0.8-0.1c0.2,0,0.3,0,0.5,0
	l0.7,0.1c0.1-0.1,0.2-0.2,0.4-0.3h0c0.3-0.1,0.5-0.2,0.8-0.2c0.3-0.1,0.6-0.1,0.8-0.1c0.2,0,0.3,0,0.5,0
	c21.4,3.3,38.5,10.4,50.8,21.1c7.1,6.2,12.9,13.8,16.9,22.3c3-2,6.5-3.3,10.2-3.8c0.4-0.1,0.8-0.2,1.2-0.3c-1.7-2.6-3.5-5.1-5.4-7.6
	c-0.6-0.8-0.8-1.8-0.6-2.7c0.2-0.9,0.8-1.7,1.7-2.1c2.9-1.4,5.8-2.7,8.8-3.9c1.2-0.5,2.5-0.9,3.7-1.3c-1.5-1.8-3-3.4-4.6-4.9
	c0.8-0.3,1.6-0.7,2.4-1l0.3-0.1c4.9-1.9,10-3.4,15.1-4.3c15.8-3.5,32.8-2.1,46,5.6c-1.3,1.2-2.5,2.6-3.6,4c4.6,1.5,9,3.3,13.4,5.3
	c1.6,0.8,2.3,2.7,1.5,4.3c-0.1,0.2-0.3,0.5-0.4,0.7c-2.1,2.4-4,5-5.9,7.6c5.6,0.3,11,2.5,15.1,6.4l0.5,0.4l0.1,0.1
	c0,0,0.1,0.1,0.1,0.1l0.1,0.1l0.6,0.6c3.7-8.6,9.1-16.4,15.9-22.8c11.9-11.2,28.7-18.9,49.9-23.1h0.3c1-0.2,2-0.4,3-0.6
	c0.2,0,0.4-0.1,0.6-0.1c0.3,0,0.5,0,0.8,0.1h0.1c0.2,0.1,0.5,0.2,0.7,0.3h0c0.2,0.1,0.4,0.3,0.6,0.4l0.1,0.1
	c0.2,0.2,0.3,0.4,0.5,0.6l0.1,0.1c0,0.1,0.1,0.1,0.1,0.2c0.1,0.2,0.2,0.3,0.2,0.5c0.1,0.2,0.1,0.5,0.1,0.7c0,0,0,0.1,0,0.1
	c1,36.6-14.8,65.2-46.9,85.1c0.2,0.5,0.4,1.1,0.6,1.6v0.1c0,0.1,0,0.1,0,0.1c0.3,1,0.6,1.9,0.9,2.8l0.2,0.7c0.2,0.5,0.3,1.1,0.5,1.6
	c0.5,1.8,1,3.6,1.5,5.4c0.8,3.3,1.6,6.6,2.2,10c0.1,0.3,0.1,0.6,0.2,0.9c0.2,1.5,0.5,2.9,0.7,4.4l0.1,0.4v0.3c0,0.1,0,0.1,0,0.2
	c0.9,6.7,1.4,13.4,1.4,20.2c0,1.4,0,2.6,0,3.7c0,0.9-0.1,1.8-0.1,2.5v1.3c0,0.8-0.1,1.6-0.1,2.4v0.1c0,0.7-0.1,1.5-0.2,2.2
	c-0.1,1.5-0.2,2.8-0.4,3.9c-0.1,0.8-0.2,1.6-0.3,2.3l-0.1,0.7c-0.1,0.5-0.1,0.9-0.2,1.4l-0.1,0.5c0,0.4-0.1,0.8-0.2,1.1
	c-0.2,1.4-0.4,2.8-0.7,4.3c0,0.1,0,0.2,0,0.3c-0.3,1.6-0.6,3.3-1,5.1c3.1,5.1,4.9,10.9,4.9,16.9c0,12.7-3.8,25.2-10.5,34.4
	c-3.8,5.2-10.1,10.2-15.4,13.2c0,0,1.8,3.4,0.8,10.6c0,0.4,5.1,5.1,9.1,10.6c3,4.1,6.5,9.1,9.2,13.4
	C494.5,427.8,503.8,445.2,507.3,456.1L507.3,456.1z"/>
<path class="st1" d="M85,448.9c12.9-9.9,26.6-13.1,39.9-16.3c13.1-3.1,25.5-6.1,36.7-15.1c0.9-0.7,2-1.1,3.1-1
	c1.8,0.1,3.3,1.3,3.9,3l12.6,35.6l2.3,6.5c0.6,1.8,0,3.8-1.5,5c-12.9,9.9-26.6,13.2-39.9,16.3c-13.1,3.1-25.5,6.1-36.7,15.2
	c-0.9,0.7-2,1.1-3.1,1c-0.3,0-0.6-0.1-0.9-0.1c-1.4-0.4-2.5-1.4-3-2.8l-14.5-41l-0.4-1.1C82.8,452.1,83.4,450.1,85,448.9z"/>
<path class="st2" d="M147.5,414.4c-8.6,5.1-18,7.3-28.5,9.7l-3.3,0.8"/>
<path class="st3" d="M97.6,493.6c-0.1,0-0.3,0-0.4-0.1c-0.5-0.1-0.8-0.5-1-1l-14.5-42.2c-0.2-0.6,0-1.3,0.5-1.7
	c12.4-9.4,25.9-12.5,38.9-15.5c13.5-3.1,26.2-6,38-15.4c0.3-0.2,0.6-0.3,0.9-0.3c0.1,0,0.3,0,0.4,0.1c0.5,0.1,0.8,0.5,1,1l14.5,42.2
	c0.2,0.6,0,1.3-0.5,1.7c-12.4,9.4-25.9,12.5-38.9,15.5c-13.5,3.1-26.2,6-38,15.4C98.3,493.5,97.9,493.6,97.6,493.6L97.6,493.6z"/>
<path class="st4" d="M160,419l12.3,35.7l2.2,6.5c-24.7,18.6-53.1,11.9-76.9,30.9L83.5,451l-0.4-1C107.8,431.3,136.2,438.1,160,419
	 M160,416c-0.7,0-1.3,0.2-1.9,0.7c-11.5,9.2-24.1,12.1-37.4,15.1S94,438,81.3,447.6c-1,0.8-1.4,2.1-1,3.4l0.4,1.1l14.1,41.1
	c0.3,0.9,1.1,1.6,2,1.9c0.3,0.1,0.6,0.1,0.8,0.1c0.7,0,1.3-0.2,1.9-0.6c11.5-9.2,24.1-12.1,37.4-15.1c13.1-3,26.7-6.1,39.4-15.7
	c1-0.8,1.4-2.1,1-3.4l-2.2-6.5L162.8,418c-0.3-0.9-1.1-1.6-2-1.9C160.5,416,160.3,416,160,416z"/>
<path class="st5" d="M97.8,491.9l-0.2,0.2L97.8,491.9z M165.8,459.2l-12.3-35.6c2.3-1.4,4.4-2.9,6.5-4.5l12.3,35.7l2.2,6.5
	c-2.1,1.6-4.3,3-6.6,4.3L165.8,459.2z"/>
<path class="st6" d="M89.5,445.4l0.8,1.6l13.9,40.4c-2.3,1.4-4.6,2.9-6.7,4.6L83.5,451l-0.4-1c3.4-2.5,6.3-5.2,9.8-6.9
	C91.8,443.8,90.6,444.6,89.5,445.4z"/>
<path class="st3" d="M102.2,478.9c18.9-12.1,43-9.1,61.8-21.3l-8.7-25.3c-18.9,12.1-43,9.1-61.8,21.3L102.2,478.9z"/>
<path class="st7" d="M105.4,477c17.6-9.6,39-8.1,56.5-18c1.3-0.7,1.9-2.3,1.4-3.7l-6.7-19.4c-0.6-1.6-2.3-2.5-3.9-1.9
	c-0.2,0.1-0.3,0.1-0.5,0.2c-17.6,9.6-39,8.1-56.5,18c-1.3,0.7-1.9,2.3-1.4,3.7l6.7,19.3c0.5,1.6,2.3,2.5,3.9,1.9
	C105.1,477.2,105.2,477.1,105.4,477L105.4,477z"/>
<circle class="st8" cx="128.8" cy="455.6" r="7.9"/>
<path class="st1" d="M121.3,458.1c-1.4-4.1,0.8-8.6,4.9-10c0,0,0,0,0,0c0.9-0.3,1.8-0.4,2.7-0.4c-3.5,2.6-4.1,7.5-1.5,11
	c1.5,1.9,3.7,3.1,6.1,3.1c-3.5,2.6-8.4,1.9-11-1.5C122,459.6,121.6,458.9,121.3,458.1L121.3,458.1z"/>
<circle class="st4" cx="100.5" cy="456.3" r="1.8"/>
<circle class="st4" cx="157.1" cy="455.9" r="1.8"/>
<circle class="st9" cx="110.2" cy="426.3" r="1.8"/>
<path class="st10" d="M562.4,510.8c-3.6,0-6.4-2.9-6.4-6.4c0-3.6,2.9-6.4,6.4-6.4c3.6,0,6.4,2.9,6.4,6.4c0,1.2-0.3,2.4-1,3.4
	C566.6,509.7,564.6,510.8,562.4,510.8z"/>
<path class="st4" d="M562.4,499.4c2.7,0,4.9,2.2,4.9,4.9c0,2.7-2.2,4.9-4.9,4.9c0,0,0,0,0,0c-2.7,0-4.9-2.2-4.9-4.9
	C557.5,501.6,559.7,499.4,562.4,499.4 M562.4,496.4c-4.4,0-7.9,3.6-7.9,7.9c0,4.4,3.6,7.9,7.9,7.9s7.9-3.6,7.9-7.9
	c0-2.7-1.4-5.2-3.7-6.7C565.4,496.8,563.9,496.4,562.4,496.4z"/>
<path class="st11" d="M571.6,489.4l-71.2,36.5l-3.7-7l5.7-3l51.6-27.1C559.6,485.8,566.3,486.1,571.6,489.4z"/>
<path class="st12" d="M91.4,595.1h644.5"/>
<path class="st0" d="M735.4,596.3c0,17.7-144.7,32-323.1,32S89.2,614,89.2,596.3c0-0.9,0.3-1.7,0.9-2.4h644.4
	C735.1,594.6,735.4,595.4,735.4,596.3z"/>
<path class="st13" d="M312.7,565.1c-0.7,0-1.3-0.5-1.5-1.2c-2.4-11.2-3.6-41.5-3.6-54.6c0-73.3,45.1-132.9,100.6-132.9
	S508.9,436,508.9,509.3c0,12.6-2.1,43.2-4.4,54.3c-0.1,0.7-0.8,1.2-1.5,1.2L312.7,565.1z"/>
<path class="st4" d="M408.3,377.9c54.7,0,99.1,58.8,99.1,131.4c0,12.3-2,42.8-4.4,54l-190.3,0.3c-2.4-11.2-3.5-42-3.5-54.3
	C309.2,436.7,353.6,377.9,408.3,377.9 M408.3,374.9c-27.4,0-53.2,14.1-72.5,39.7c-19.1,25.3-29.6,59-29.6,94.7
	c0,13.2,1.2,43.6,3.6,54.9c0.3,1.4,1.5,2.4,2.9,2.4l190.2-0.2c1.4,0,2.7-0.9,3-2.3c2.4-11.3,4.4-42,4.4-54.6
	c0-35.8-10.5-69.4-29.6-94.7C461.5,389,435.8,374.9,408.3,374.9L408.3,374.9z"/>
<path class="st14" d="M395.3,459.7l-1.9,6.1l-5.5,17.7l21.7,22.2l21.8-22.2l-5.5-17.7l-1.9-6.1l-7.4-24.1h-14L395.3,459.7"/>
<path class="st14" d="M409.1,417.3l18.6,9.8l-11,8.5h-14l-12.2-8.6L409.1,417.3"/>
<ellipse class="st4" cx="412.4" cy="443.8" rx="2" ry="1.7"/>
<path class="st15" d="M434.8,437.1c-0.3,0-0.7-0.1-1-0.3l-17.4-14.4l-4.5-0.8c-0.5-0.1-0.9-0.4-1.1-0.8l-1.8-3.5
	c-0.4-0.7-0.1-1.6,0.6-2l53.9-28.6c0.2-0.1,0.5-0.2,0.7-0.2c0.3,0,0.5,0.1,0.7,0.2c7.3,4,7.5,16.7,5.4,20.7c-6,11.2-20.1,23-35,29.5
	C435.1,437.1,435,437.1,434.8,437.1L434.8,437.1z"/>
<path class="st4" d="M464.2,388.1c6.4,3.5,6.7,15.1,4.8,18.7c-5.7,10.5-19.3,22.3-34.2,28.8L417.1,421l-4.8-0.8h-0.2l-1.8-3.5
	L464.2,388.1 M464.2,385.1c-0.5,0-1,0.1-1.4,0.4L408.9,414c-1.4,0.8-2,2.5-1.3,4l1.8,3.5c0.4,0.9,1.3,1.4,2.2,1.6h0.1l4,0.7l17,14.3
	c0.9,0.7,2.1,0.9,3.1,0.4c15.1-6.6,29.5-18.7,35.7-30.2c2.4-4.5,2.2-18.3-6-22.8C465.2,385.3,464.7,385.2,464.2,385.1L464.2,385.1z"
	/>
<path class="st15" d="M382.4,436.3c-0.2,0-0.4,0-0.6-0.1c-15.7-6.8-28-19.5-33.7-28.3c-1.6-2.4-1.9-7.4-0.7-11.9
	c1-4.2,3.2-7.4,6-8.9c0.2-0.1,0.5-0.2,0.7-0.2c0.2,0,0.5,0.1,0.7,0.2l53.9,28.6c0.7,0.4,1,1.3,0.6,2l-1.8,3.5
	c-0.2,0.4-0.6,0.7-1.1,0.8l-4.6,0.8L383.2,436C383,436.2,382.7,436.3,382.4,436.3z"/>
<path class="st4" d="M354,388.3l53.9,28.6l-1.8,3.5H406l-4.8,0.8l-18.8,13.6c-15-6.5-27.1-18.7-33.1-27.8
	C347,403.6,347.7,391.7,354,388.3 M354.1,385.3c-0.5,0-1,0.1-1.4,0.4c-3.2,1.8-5.6,5.2-6.8,9.9c-1.2,5-0.9,10.4,0.9,13.1
	c5.9,9,18.4,21.9,34.4,28.9c1,0.4,2.1,0.3,3-0.3l18.2-13.2l4.1-0.7h0.1c0.9-0.1,1.8-0.7,2.2-1.6l1.8-3.5c0.7-1.5,0.2-3.2-1.3-4
	l-53.9-28.6C355,385.5,354.5,385.3,354.1,385.3L354.1,385.3z"/>
<path class="st16" d="M414,449.2l8.7,28.9"/>
<path class="st17" d="M408.7,422.4c-33.7,0-61.1-20.7-61.1-46.2s27.4-46.2,61.1-46.2s61.1,20.7,61.1,46.2S442.4,422.4,408.7,422.4
	L408.7,422.4z"/>
<path class="st9" d="M408.7,331.6c32.9,0,59.6,20,59.6,44.7s-26.7,44.7-59.6,44.7s-59.7-20-59.7-44.7S375.7,331.6,408.7,331.6
	 M408.6,328.6c-16.6,0-32.2,4.9-44,13.7c-12,9-18.7,21.1-18.7,34s6.6,25,18.7,34c11.8,8.8,27.4,13.7,44,13.7s32.2-4.9,44-13.7
	c12-9,18.7-21.1,18.7-34s-6.6-25-18.7-34C440.9,333.4,425.2,328.6,408.6,328.6z"/>
<ellipse class="st18" cx="408.7" cy="364.2" rx="61.1" ry="46.2"/>
<path class="st9" d="M408.7,319.6c32.9,0,59.6,20,59.6,44.7s-26.7,44.7-59.6,44.7s-59.7-20-59.7-44.7S375.7,319.6,408.7,319.6
	 M408.6,316.6c-16.6,0-32.2,4.9-44,13.7c-12,9-18.7,21.1-18.7,34s6.6,25,18.7,34c11.8,8.8,27.4,13.7,44,13.7s32.2-4.9,44-13.7
	c12-9,18.7-21.1,18.7-34s-6.6-25-18.7-34C440.9,321.4,425.2,316.6,408.6,316.6z"/>
<path class="st19" d="M408.7,410.4c-5.3,0-10.6-0.5-15.8-1.6c-0.3-0.1-0.6-0.1-1-0.2c-1.5-0.3-3-0.8-4.5-1.2
	c-10.8-3.4-16.9-9-16.9-15.3c0-0.8,0.5-1.4,1.2-1.7c24.1-7,49.7-7,73.8,0c0.7,0.2,1.2,0.9,1.2,1.7c0,6.3-6.2,11.9-16.9,15.3
	c-1.4,0.4-2.9,0.9-4.5,1.2c-0.3,0.1-0.6,0.1-1,0.2C419.2,409.9,413.9,410.4,408.7,410.4z"/>
<path class="st9" d="M408.7,386.9c12.3,0,24.6,1.8,36.4,5.2c0,5.6-6.2,10.6-15.7,13.6c-1.4,0.5-2.9,0.9-4.4,1.2l-0.9,0.2
	c-10.1,2.1-20.6,2.1-30.8,0l-0.9-0.2c-1.5-0.4-3-0.8-4.4-1.2c-9.5-3-15.7-8-15.7-13.6C384.1,388.7,396.3,386.9,408.7,386.9
	 M408.7,383.5c-12.6,0-25.2,1.8-37.4,5.3c-1.5,0.4-2.5,1.8-2.5,3.3c0,7.1,6.6,13.3,18.1,16.9c1.6,0.5,3.1,0.9,4.7,1.3
	c0.3,0.1,0.7,0.1,1,0.2c10.6,2.2,21.6,2.2,32.2,0c0.4-0.1,0.7-0.1,1-0.2c1.6-0.4,3.2-0.8,4.6-1.3c11.5-3.6,18.1-9.8,18.1-16.9
	c0-1.5-1-2.9-2.5-3.3C433.9,385.3,421.3,383.5,408.7,383.5z"/>
<path class="st19" d="M408.7,331.6c-3,0-6,0.2-9,0.5c28.7,3.2,55.2,21.8,55.2,44.2s-26.5,40.9-55.2,44.2c3,0.3,6,0.5,9,0.5
	c32.9,0,59.6-20,59.6-44.7S441.6,331.6,408.7,331.6L408.7,331.6z"/>
<path class="st15" d="M341.7,246.6c-0.3,0-0.5-0.1-0.7-0.2c-32.9-18-49.9-45.5-50.4-81.6c0-0.8,0.6-1.5,1.5-1.5c0,0,0,0,0,0
	c0.2,0,0.5,0.1,0.7,0.2c29.9,15.6,59.2,37.5,50.4,81.9c-0.1,0.5-0.4,0.9-0.8,1.1C342.1,246.5,341.9,246.6,341.7,246.6L341.7,246.6z"
	/>
<path class="st9" d="M292.1,164.8c32.8,17.1,57.9,38.8,49.6,80.3C309.7,227.6,292.6,201.2,292.1,164.8 M292.1,161.8
	c-1.7,0-3,1.3-3,3c0.5,36.7,17.7,64.6,51.2,82.9c1.5,0.8,3.3,0.3,4.1-1.2c0.1-0.3,0.2-0.5,0.3-0.8c9-45.4-20.8-67.7-51.2-83.5
	C293.1,161.9,292.6,161.8,292.1,161.8L292.1,161.8z"/>
<path class="st20" d="M303.5,171.2c-3.7-2.2-7.5-4.3-11.4-6.4c0.5,36.4,17.6,62.8,49.6,80.3c0.7-3.4,1.1-6.9,1.4-10.3
	C320.1,219.4,306.6,198.4,303.5,171.2L303.5,171.2z"/>
<path class="st17" d="M341.7,246.6c-0.2,0-0.5-0.1-0.7-0.2c-0.5-0.3-0.8-0.7-0.8-1.3c-0.7-27.1-16.3-52.3-49.1-79.2
	c-0.6-0.5-0.7-1.5-0.2-2.1c0.3-0.3,0.7-0.5,1.2-0.5c0.1,0,0.2,0,0.2,0c43.8,6.8,67.7,28.8,73.1,67.2c0.1,0.6-0.2,1.2-0.7,1.5
	l-22.3,14.4C342.3,246.5,342,246.6,341.7,246.6L341.7,246.6z"/>
<path class="st9" d="M292.1,164.8c39.7,6.1,66.2,25.6,71.9,65.9l-22.3,14.4C340.9,214,320.6,188.3,292.1,164.8 M292.1,161.8
	c-1.7,0-3,1.3-3,3c0,0.9,0.4,1.8,1.1,2.3c32.4,26.6,47.8,51.4,48.5,78c0,1.6,1.4,2.9,3,2.9c0.6,0,1.1-0.2,1.6-0.5l22.3-14.4
	c1-0.6,1.5-1.8,1.3-2.9c-2.8-20.1-11-36.2-24.2-47.6c-12.2-10.5-29-17.6-50.2-20.8L292.1,161.8L292.1,161.8z"/>
<path class="st19" d="M292.1,164.8c3.1,2.5,6.1,5.1,8.9,7.7c30.7,8.6,50.9,27.9,55.8,62.5l-15.1,9.7v0.4l22.3-14.3
	C358.3,190.4,331.8,171,292.1,164.8z"/>
<path class="st2" d="M334.6,189.1c9.1,8.3,15.3,18.9,18.6,32"/>
<circle class="st9" cx="312.5" cy="201.1" r="1.8"/>
<circle class="st9" cx="330.9" cy="186.2" r="1.8"/>
<path class="st15" d="M481.7,248.6c-0.2,0-0.4,0-0.6-0.1c-0.4-0.2-0.8-0.5-0.9-1c-10.6-44,17.8-67.1,47-83.9
	c0.2-0.1,0.5-0.2,0.8-0.2c0.3,0,0.5,0.1,0.7,0.2c0.5,0.3,0.8,0.7,0.8,1.3c1,36.1-14.8,64.2-47,83.6
	C482.3,248.5,482,248.6,481.7,248.6L481.7,248.6z"/>
<path class="st9" d="M528,164.8c1,36.4-15,63.4-46.3,82.2C471.8,206,495.9,183.2,528,164.8 M528,161.8c-0.5,0-1,0.1-1.5,0.4
	c-29.7,17.1-58.6,40.6-47.7,85.5c0.2,0.9,0.9,1.7,1.8,2.1c0.4,0.2,0.8,0.2,1.2,0.2c0.5,0,1.1-0.2,1.5-0.4
	c32.7-19.6,48.8-48.2,47.8-84.9c0-1.1-0.6-2-1.5-2.5C529,161.9,528.5,161.8,528,161.8z"/>
<path class="st20" d="M514.7,173.1c-2.1,26.2-14,47-34.9,63c0.4,3.7,1,7.4,1.9,11c31.3-18.9,47.3-46,46.3-82.3
	C523.4,167.5,518.9,170.2,514.7,173.1z"/>
<path class="st17" d="M481.7,248.6c-0.3,0-0.5-0.1-0.8-0.2l-22.8-13.4c-0.5-0.3-0.8-0.9-0.7-1.4c3.8-38.6,26.8-61.6,70.3-70.1
	c0.1,0,0.2,0,0.3,0c0.6,0,1.1,0.3,1.3,0.8c0.3,0.6,0.2,1.3-0.3,1.8c-31.6,28.2-46.2,54-45.8,81.1c0,0.5-0.3,1-0.8,1.3
	C482.2,248.5,482,248.6,481.7,248.6L481.7,248.6z"/>
<path class="st9" d="M528,164.8c-27.6,24.6-46.7,51.1-46.3,82.2l-22.8-13.4C462.9,193.1,488.6,172.6,528,164.8 M528,161.8
	c-0.2,0-0.4,0-0.6,0.1c-21,4.1-37.6,11.8-49.3,22.9c-12.7,12-20.2,28.3-22.2,48.6c-0.1,1.2,0.5,2.3,1.5,2.9l22.8,13.4
	c0.5,0.3,1,0.4,1.5,0.4c0.5,0,1.1-0.1,1.5-0.4c0.9-0.5,1.5-1.6,1.5-2.6c-0.4-26.6,14-52.1,45.3-79.9c1.2-1.1,1.3-3,0.2-4.2
	C529.7,162.2,528.9,161.8,528,161.8L528,161.8z"/>
<path class="st19" d="M528,164.8c-4.3,3.8-8.3,7.7-12.2,11.6c-26.8,10.5-43.9,30.1-47.1,62.5l13,7.6v0.4l-22.9-13.4
	C462.9,193.1,488.6,172.6,528,164.8z"/>
<circle class="st9" cx="495.3" cy="186.8" r="1.8"/>
<circle class="st9" cx="501.1" cy="214.1" r="1.8"/>
<path class="st2" d="M490.1,190.6c-9.1,8.3-15.3,18.9-18.6,32"/>
<path class="st21" d="M359.6,384.9c-0.4,0-0.8-0.2-1.1-0.4c-0.3-0.3-0.6-0.6-0.8-0.9c-10.9-11.2-19.5-26-25-42.8
	c-2.5-7.8-4.4-15.8-5.5-23.9c0-0.3,0-0.5-0.1-0.7s-0.1-0.5-0.1-0.7c-0.5-4-0.9-8.3-1.1-12.7c-0.1-1.6-0.1-3.4-0.1-5.6
	c0-2.7,0.1-5.2,0.2-7.5c0.1-1.5,0.2-3.1,0.3-4.9s0.3-3.3,0.5-4.9l0.1-0.7c0.1-0.6,0.1-1.1,0.2-1.7c0.2-1.1,0.3-2.3,0.5-3.4
	c0.6-3.8,1.4-7.5,2.2-10.9c0.6-2.5,1.3-5.1,2.2-8c0.4-1.3,0.9-2.6,1.3-3.9c3.2-9.2,7.5-18,12.8-26.1c1.5-2.3,3.2-4.6,5-6.9
	c1.2-1.5,2.4-2.9,3.5-4.3c1.9-2.1,3.8-4.1,5.7-5.9c4.3-4.2,10.2-6.5,16.2-6.3c1.4,0,2.9,0.1,4.3,0.3c2.1,0.2,9.1,0.5,18.2,0.7
	c6.7,0.1,13.5,0.2,18.9,0.2c8.1,0,13.7-0.1,15.2-0.4c2.5-0.5,4.9-0.7,7.4-0.7c5.8-0.2,11.4,2,15.7,6c0.1,0.1,0.3,0.2,0.4,0.4
	l0.4,0.4c1.1,1,2.2,2.2,3.4,3.4s2.4,2.6,3.6,4.1c1.8,2.1,3.5,4.4,5.1,6.7l0.1,0.1c0.5,0.7,0.9,1.3,1.4,2l0.2,0.3c2,3,3.8,6,5.4,9.1
	c1.1,2.1,2.2,4.3,3.2,6.6c0.5,1.1,1,2.3,1.5,3.4c0.9,2.2,1.8,4.6,2.6,6.9v0.1c0.7,2,1.3,3.8,1.7,5.4c2,6.7,3.5,13.5,4.5,20.4
	c0,0,0.1,0.4,0.1,0.4c0.9,6.6,1.4,13.2,1.4,19.8c0,1.2,0,2.5,0,3.7c0,0.9,0,1.7-0.1,2.5v1.2c0,0.8-0.1,1.6-0.1,2.4v0.3
	c0,0.7-0.1,1.4-0.2,2c-0.1,1.5-0.2,2.7-0.4,3.8c-0.1,0.7-0.1,1.5-0.3,2.3l-0.1,0.7c-0.1,0.5-0.1,0.9-0.2,1.4l-0.1,0.5
	c0,0.4-0.1,0.8-0.2,1.1c-0.2,1.3-0.4,2.7-0.7,4.1v0.1c0,0.1,0,0.2,0,0.3c-0.5,2.8-1.2,5.8-1.9,8.9l-0.2,0.8
	c-0.3,1.1-0.6,2.2-0.9,3.3c-0.2,0.7-0.4,1.3-0.6,2l0,0.2l-0.5,1.6c0,0.1-0.1,0.2-0.1,0.3c-0.4,1.1-0.8,2.2-1.1,3.3
	c-0.2,0.6-0.4,1.2-0.7,1.8c-0.5,1.3-1,2.7-1.6,4c-1.5,3.8-3.3,7.4-5.2,11l-0.1,0.2c-0.5,0.9-1,1.7-1.5,2.6c-0.1,0.1-0.1,0.2-0.2,0.3
	l-0.2,0.4c-0.4,0.7-0.8,1.3-1.2,2c-0.5,0.8-1,1.6-1.5,2.4c-0.1,0.1-0.1,0.2-0.2,0.3c-0.5,0.7-1,1.4-1.4,2.1c0,0.1-0.1,0.2-0.2,0.3
	l-1.2,1.8c-0.6,0.8-1.2,1.6-1.8,2.4l-0.2,0.2c-0.2,0.2-0.4,0.5-0.6,0.7l-0.5,0.6c-0.3,0.4-0.6,0.8-1,1.2l-0.1,0.2l-1.8,2.1
	c0,0,0,0.1-0.1,0.1c-0.6,0.7-1.3,1.4-1.9,2.1c-0.3,0.3-0.7,0.5-1.1,0.5h-92.9c-1.1,0-2.1,0.2-3.1,0.4c-0.5,0.1-1.1,0.3-1.6,0.5
	c-0.5,0.2-1,0.4-1.4,0.6C360.1,384.8,359.9,384.9,359.6,384.9L359.6,384.9z"/>
<path class="st9" d="M376.8,203.2c1.4,0,2.8,0.1,4.1,0.2c2.3,0.3,9.7,0.5,18.4,0.7c6.2,0.1,13,0.2,18.9,0.2c7.5,0,13.6-0.1,15.4-0.4
	c2.4-0.4,4.8-0.7,7.2-0.7c5.4-0.2,10.7,1.8,14.6,5.6c0.1,0.1,0.2,0.2,0.4,0.3l0.1,0.1c0.1,0.1,0.2,0.2,0.3,0.3
	c1.1,1.1,2.3,2.2,3.4,3.4c1.2,1.3,2.4,2.7,3.6,4.1c1.7,2.1,3.4,4.3,5,6.6c0.5,0.7,1,1.4,1.5,2.2c0,0.1,0.1,0.1,0.1,0.2
	c1.9,2.9,3.7,5.9,5.4,9.1c1.1,2.1,2.2,4.3,3.2,6.5c0.5,1.1,1,2.2,1.5,3.4c0.9,2.3,1.8,4.6,2.6,6.9c0.6,1.8,1.2,3.5,1.7,5.3
	c2,6.6,3.4,13.3,4.4,20.1v0.4c0.9,6.5,1.4,13.1,1.4,19.6c0,1.2,0,2.4,0,3.6c0,0.8,0,1.6-0.1,2.5v1.1c0,0.8-0.1,1.6-0.1,2.4
	s-0.1,1.5-0.2,2.3c-0.1,1.3-0.2,2.5-0.4,3.7c-0.1,0.8-0.1,1.5-0.2,2.2s-0.2,1.4-0.3,2c-0.1,0.5-0.1,1.1-0.2,1.6
	c-0.2,1.4-0.4,2.8-0.7,4.1c0,0.1,0,0.2-0.1,0.3c-0.5,3-1.2,6-1.9,8.9c-0.4,1.3-0.7,2.7-1.1,4c-0.2,0.7-0.4,1.4-0.6,2.1
	s-0.4,1.2-0.5,1.8c0,0.1-0.1,0.2-0.1,0.3c-0.4,1.1-0.7,2.2-1.1,3.2c-0.2,0.6-0.4,1.2-0.6,1.8c-0.5,1.3-1,2.6-1.5,3.9
	c-1.5,3.8-3.3,7.4-5.2,11c-0.5,0.9-1,1.8-1.5,2.7c0,0,0,0.1-0.1,0.1c-0.5,0.8-1,1.6-1.5,2.5s-1,1.6-1.6,2.5c0,0.1-0.1,0.1-0.1,0.2
	c-0.5,0.8-1,1.5-1.5,2.2c-0.1,0.1-0.1,0.2-0.2,0.3l-1.2,1.7c-0.6,0.8-1.2,1.6-1.8,2.3c-0.2,0.3-0.5,0.6-0.7,0.9
	c-0.5,0.6-1,1.3-1.5,1.9c-0.6,0.7-1.2,1.4-1.8,2.1c-0.6,0.7-1.3,1.4-1.9,2.1h-92.9c-1.1,0-2.3,0.2-3.4,0.4c-0.6,0.1-1.2,0.3-1.8,0.5
	c-0.6,0.2-1.1,0.4-1.6,0.7c-0.3-0.3-0.5-0.6-0.8-0.8c-10.6-11-19.2-25.5-24.6-42.2c-2.5-7.7-4.3-15.6-5.4-23.7
	c0-0.5-0.1-0.9-0.2-1.4c-0.5-4.1-0.9-8.3-1-12.6c-0.1-1.8-0.1-3.7-0.1-5.5c0-2.5,0-5,0.2-7.4c0.1-1.6,0.2-3.3,0.3-4.9
	s0.3-3.2,0.5-4.8c0.1-0.8,0.2-1.6,0.3-2.4c0.1-1.1,0.3-2.3,0.5-3.4c0.6-3.7,1.3-7.3,2.2-10.8c0.6-2.7,1.4-5.3,2.2-7.9
	c0.4-1.3,0.8-2.6,1.3-3.8c3.1-9.1,7.4-17.8,12.6-25.8c1.5-2.4,3.2-4.6,4.9-6.8c1.1-1.4,2.3-2.9,3.5-4.2c1.8-2,3.7-4,5.6-5.8
	c4.1-3.9,9.5-6,15.2-5.9 M376.8,199.9c-6.4-0.2-12.6,2.3-17.2,6.7c-2,1.9-3.9,3.9-5.8,6c-1.2,1.4-2.4,2.8-3.6,4.3
	c-1.8,2.4-3.5,4.7-5,7c-5.4,8.3-9.7,17.2-12.9,26.5c-0.4,1.1-0.8,2.4-1.3,3.9c-0.9,2.9-1.6,5.5-2.2,8.1c-0.9,3.5-1.6,7.2-2.2,11
	c-0.2,1.1-0.4,2.3-0.5,3.4c-0.1,0.5-0.1,1.1-0.2,1.7l-0.1,0.8c-0.2,1.6-0.4,3.3-0.5,4.9s-0.2,3.4-0.3,5c-0.1,2.4-0.2,4.9-0.2,7.6
	c0,2.2,0,4,0.1,5.6c0.2,4.4,0.5,8.7,1.1,12.8c0,0.2,0,0.5,0.1,0.7s0,0.4,0.1,0.6v0.1c1.1,8.2,3,16.3,5.6,24.2
	c5.5,16.9,14.3,31.9,25.3,43.3c0.3,0.3,0.6,0.6,0.9,0.9c0.6,0.6,1.3,0.9,2.1,0.9c0.5,0.1,0.9,0.1,1.4,0c0.4-0.2,0.8-0.4,1.3-0.6
	c0.5-0.2,0.9-0.3,1.4-0.4c0.9-0.2,1.8-0.3,2.8-0.4h92.9c0.8,0,1.6-0.4,2.2-1c0.6-0.7,1.3-1.4,1.9-2.1l0.1-0.1
	c0.6-0.7,1.2-1.4,1.8-2.1c0,0,0.1-0.1,0.1-0.1l1-1.2l0.5-0.6c0.2-0.2,0.4-0.5,0.6-0.8l0.2-0.2c0.6-0.9,1.2-1.6,1.8-2.4v-0.1l0.6-0.8
	l0.6-0.9l0-0.1l0.2-0.3c0.5-0.7,1-1.4,1.5-2.1c0.1-0.1,0.2-0.2,0.2-0.4c0.5-0.8,1-1.6,1.5-2.5s0.8-1.4,1.3-2.1l0.2-0.3
	c0.1-0.1,0.1-0.2,0.2-0.4c0.5-0.9,1-1.7,1.4-2.5c0-0.1,0.1-0.2,0.1-0.3c1.9-3.6,3.7-7.3,5.2-11.1c0.5-1.3,1.1-2.7,1.6-4
	c0.2-0.5,0.5-1.2,0.7-1.9c0.4-1.1,0.8-2.2,1.1-3.2c0.1-0.1,0.1-0.3,0.1-0.4c0.2-0.6,0.4-1.2,0.5-1.7c0.2-0.7,0.4-1.4,0.6-2.1
	c0.3-1.1,0.6-2.2,0.9-3.3l0.2-0.8c0.8-3.1,1.5-6.2,2-9c0-0.1,0-0.2,0-0.3c0,0,0,0,0-0.1c0.3-1.4,0.5-2.9,0.7-4.2
	c0.1-0.4,0.1-0.7,0.2-1.1l0.1-0.5l0.2-1.4l0.1-0.7c0.1-0.8,0.2-1.6,0.3-2.3c0.1-1.1,0.2-2.3,0.4-3.8c0.1-0.7,0.1-1.4,0.2-2.1v-0.2
	c0.1-0.8,0.1-1.6,0.1-2.4v-1.3c0-0.8,0.1-1.6,0.1-2.5c0-1.1,0-2.3,0-3.7c0-6.7-0.5-13.4-1.4-20V277v0v-0.2c-0.9-7-2.4-13.8-4.4-20.5
	c-0.5-1.6-1-3.4-1.8-5.4l-0.1-0.2c-0.8-2.4-1.7-4.7-2.7-7c-0.5-1.2-1-2.4-1.5-3.4c-1-2.3-2.1-4.5-3.2-6.6c-1.7-3.1-3.5-6.2-5.5-9.2
	c-0.1-0.1-0.2-0.2-0.3-0.3c-0.4-0.6-0.8-1.2-1.2-1.8l-0.2-0.3c-1.7-2.4-3.4-4.7-5.2-6.8c-1.3-1.6-2.5-2.9-3.7-4.2s-2.4-2.5-3.5-3.5
	h0c-0.1-0.1-0.1-0.2-0.2-0.2l-0.1-0.1l-0.5-0.4c-4.5-4.2-10.5-6.5-16.7-6.3c-2.6,0-5.2,0.3-7.7,0.8c-0.5,0.1-3.1,0.4-14.9,0.4
	c-5.4,0-12.1-0.1-18.9-0.2c-9.1-0.2-16-0.4-18.1-0.7c-1.5-0.2-3-0.3-4.5-0.3L376.8,199.9z"/>
<path class="st15" d="M380.9,203.4c-2.3,1.8-4.5,3.6-6.6,5.6c-5.3,5.1-10,10.7-14,16.9c-5.3,8-9.5,16.7-12.6,25.8
	c-2.9,8.4-5,17.1-6.2,25.9c-0.9,6.5-1.3,13-1.3,19.5c0,1.9,0,3.7,0.1,5.5c0.2,4.3,0.5,8.5,1,12.6c0,0.5,0.1,0.9,0.2,1.3
	c1.1,8,2.9,16,5.4,23.7c5.3,16.3,13.6,30.4,23.9,41.3h-3.8c-0.7,0-1.3,0-2,0.1h0c-1.2,0.1-2.5,0.4-3.6,0.9c-0.6,0.2-1.1,0.5-1.6,0.7
	c-0.3-0.3-0.5-0.6-0.8-0.8c-10.6-11-19.2-25.5-24.6-42.2c-2.5-7.7-4.3-15.6-5.4-23.7c0-0.5-0.1-0.9-0.2-1.3c-0.5-4.1-0.9-8.3-1-12.6
	c-0.1-1.8-0.1-3.6-0.1-5.5c0-2.5,0.1-5,0.2-7.4c0.1-1.6,0.2-3.3,0.3-4.9s0.3-3.2,0.5-4.8c0.1-0.8,0.2-1.6,0.3-2.4
	c0.2-1.1,0.3-2.3,0.5-3.4c0.6-3.7,1.3-7.3,2.2-10.8c0.6-2.7,1.4-5.3,2.2-7.9c0.4-1.3,0.8-2.6,1.3-3.9c3.1-9.1,7.4-17.8,12.6-25.8
	c1.6-2.4,3.2-4.6,4.9-6.8c1.1-1.5,2.3-2.9,3.5-4.2c1.8-2,3.7-4,5.6-5.8C367.4,203.5,373.9,202.6,380.9,203.4L380.9,203.4z"/>
<path class="st20" d="M346.9,382.9c2.5-1.2,5.2-1.8,8-1.7h-9.7C345.7,381.8,346.3,382.4,346.9,382.9z M431.1,201.1
	c2.2,1.6,4.2,3.4,6.3,5.3c5.3,4.9,9,10.6,13.3,17c5.3,7.8,10.9,16.6,14.4,26.2c3,8.4,5.1,17,6.4,25.8c0,0.1,0.1,0.3,0.1,0.4
	c0.9,6.6,1.4,13.2,1.4,19.9c0,2.5-0.1,4.9-0.2,7.4c-0.3,6.3-1.1,12.7-2.3,18.9c-4.5,23.8-15,44.5-29.4,59.3h16.9
	c0.7-0.7,1.3-1.4,2-2.1V379c0.6-0.7,1.3-1.4,1.9-2.1c0.5-0.6,1.1-1.3,1.6-1.9c0.2-0.3,0.5-0.6,0.7-0.9c0.6-0.8,1.2-1.6,1.8-2.4
	c0.4-0.6,0.8-1.1,1.2-1.7l0.2-0.3c0.5-0.8,1.1-1.5,1.6-2.3c0,0,0.1-0.1,0.1-0.2c0.6-0.8,1.1-1.7,1.6-2.5s1-1.7,1.5-2.5
	c0,0,0.1-0.1,0.1-0.1c0.5-0.9,1-1.8,1.5-2.7c2-3.6,3.8-7.3,5.4-11.1c0.5-1.3,1.1-2.6,1.6-4c0.2-0.6,0.5-1.2,0.7-1.8
	c0.4-1.1,0.8-2.2,1.1-3.3c0.2-0.7,0.5-1.4,0.7-2.1s0.4-1.4,0.6-2.1c0.4-1.3,0.8-2.7,1.1-4.1c0.8-2.9,1.4-5.9,2-9
	c0-0.1,0-0.2,0.1-0.3c0.3-1.4,0.5-2.8,0.7-4.2c0.1-0.5,0.2-1.1,0.2-1.6s0.2-1.4,0.3-2.1s0.2-1.5,0.3-2.3c0.1-1.2,0.3-2.5,0.4-3.8
	c0.1-0.8,0.1-1.5,0.2-2.3s0.1-1.6,0.1-2.4c0-0.4,0-0.8,0-1.2c0.1-0.8,0.1-1.6,0.1-2.5c0-1.2,0-2.5,0-3.7c0-6.7-0.5-13.3-1.4-19.9
	c0-0.1,0-0.2-0.1-0.4c-1-6.9-2.5-13.7-4.5-20.3c-0.6-1.8-1.1-3.6-1.8-5.4c-0.9-2.4-1.8-4.7-2.8-7c-0.5-1.2-1-2.3-1.5-3.4
	c-1-2.2-2.1-4.4-3.3-6.6c-1.7-3.2-3.6-6.3-5.6-9.2c-0.5-0.8-1.1-1.6-1.6-2.4c-1.7-2.3-3.4-4.6-5.2-6.7c-1.2-1.4-2.5-2.8-3.7-4.1
	c-1.1-1.3-2.4-2.6-3.9-3.6C449,203.2,444,202.5,431.1,201.1L431.1,201.1z"/>
<path class="st22" d="M415.5,260.2c0,20.3-5.2,36.3-6.9,36.8s-6.9-16.5-6.9-36.8c0-8.2,0.5-18.8,1.4-28.4c3.6,0.1,7.6,0.2,11,0.2
	C415,241.6,415.5,252,415.5,260.2z"/>
<path class="st23" d="M329.2,279.2c-0.8,0-1.5-0.7-1.5-1.5c0-0.1,0-0.1,0-0.2c1.2-8.9,3.3-17.7,6.3-26.2c0.2-0.6,0.7-1,1.3-1
	c1-0.1,2-0.1,3-0.1c12,0,23.3,5.1,28.9,8.2c1.3,0.7,2,2.2,1.7,3.6c-0.2,1.4-1.3,2.6-2.8,2.8c-18,2.9-29.5,9.3-36.1,14.2
	C329.9,279.1,329.6,279.2,329.2,279.2L329.2,279.2z"/>
<path class="st9" d="M338.3,251.7c11.4,0,22.2,4.8,28.2,8c0.9,0.6,1.2,1.8,0.6,2.8c-0.3,0.4-0.7,0.7-1.1,0.8
	c-18.6,3-30.4,9.7-36.7,14.4c1.2-8.8,3.3-17.5,6.2-25.9C336.4,251.7,337.3,251.7,338.3,251.7 M338.3,248.7c-1,0-2.1,0-3.1,0.1
	c-1.2,0.1-2.2,0.9-2.6,2c-3,8.6-5.1,17.5-6.3,26.5c-0.2,1.6,0.9,3.2,2.6,3.4c0.8,0.1,1.6-0.1,2.2-0.6c6.4-4.8,17.7-11,35.4-13.9
	c2.1-0.3,3.7-1.9,4-4c0.4-2.1-0.6-4.2-2.5-5.2C362.1,253.9,350.6,248.7,338.3,248.7L338.3,248.7z"/>
<path class="st23" d="M348,227.4c-0.8,0-1.5-0.7-1.5-1.5c0-0.3,0.1-0.6,0.3-0.8c4.1-6.2,8.9-12,14.2-17.1c0.3-0.3,0.6-0.4,1-0.4
	c0.2,0,0.3,0,0.5,0.1c5.6,1.9,10.8,5,15.1,9c1.2,1.1,1.6,2.9,1,4.4c-0.5,1.5-1.9,2.4-3.5,2.4h-1.9c-8.4,0-16.7,1.3-24.7,3.9
	C348.3,227.4,348.2,227.5,348,227.4z"/>
<path class="st9" d="M362,209.1c5.4,1.8,10.4,4.8,14.5,8.7c1,0.9,1.1,2.5,0.2,3.5c-0.4,0.5-1,0.8-1.7,0.8h-1.8c-8.5,0-17,1.3-25.1,4
	C352.1,219.9,356.8,214.2,362,209.1 M362,206.1c-0.8,0-1.5,0.3-2.1,0.8c-5.5,5.2-10.3,11.1-14.5,17.4c-0.9,1.4-0.5,3.2,0.9,4.2
	c0.5,0.3,1.1,0.5,1.7,0.5c0.3,0,0.7,0,1-0.2c7.8-2.6,15.9-3.9,24.1-3.8h1.9c2.2,0,4.1-1.4,4.9-3.4c0.8-2.1,0.3-4.5-1.3-6.1
	c-4.5-4.2-9.8-7.4-15.6-9.3C362.7,206.1,362.3,206.1,362,206.1L362,206.1z"/>
<path class="st17" d="M488.5,278.7c-0.3,0-0.6-0.1-0.9-0.3c-6.5-4.7-17.9-10.9-35.4-13.7c-1.4-0.2-2.5-1.4-2.7-2.8
	c-0.3-1.5,0.4-2.9,1.7-3.6c5.7-3,17-8.2,28.9-8.2c0.8,0,1.6,0,2.4,0.1c0.6,0,1.1,0.4,1.3,0.9l0.1,0.1c2.9,8.4,5,17,6.2,25.7
	c0.1,0.6-0.2,1.2-0.7,1.5C489,278.6,488.7,278.7,488.5,278.7L488.5,278.7z"/>
<path class="st9" d="M480.1,251.7c0.8,0,1.5,0,2.3,0.1c2.9,8.3,4.9,16.8,6.1,25.4c-6.5-4.7-18.1-11.1-36.1-14
	c-1.1-0.3-1.7-1.4-1.4-2.5c0.1-0.5,0.4-0.9,0.8-1.1C457.8,256.4,468.6,251.6,480.1,251.7 M480.1,248.6c-12.3,0-23.8,5.2-29.6,8.3
	c-1.9,1-2.9,3.1-2.5,5.2c0.3,2.1,1.9,3.7,4,4c17.3,2.8,28.4,8.8,34.8,13.4c1,0.7,2.3,0.8,3.3,0.1c1-0.6,1.6-1.8,1.4-3
	c-1.2-8.8-3.3-17.6-6.2-26c0-0.1-0.1-0.2-0.1-0.2c-0.5-1-1.4-1.7-2.6-1.8C481.7,248.6,480.9,248.5,480.1,248.6L480.1,248.6z"/>
<path class="st15" d="M380.9,203.4c-2.3,1.8-4.5,3.6-6.6,5.6c-5.3,5.1-10,10.7-14,16.9c-5.3,8-9.5,16.7-12.6,25.8
	c-2.9,8.4-5,17.1-6.2,25.9c-0.9,6.5-1.3,13-1.3,19.5c0,1.9,0,3.7,0.1,5.5c0.2,4.3,0.5,8.5,1,12.6c0,0.5,0.1,0.9,0.2,1.3
	c1.1,8,2.9,16,5.4,23.7c5.3,16.3,13.6,30.4,23.9,41.3h-3.8c-0.7,0-1.3,0-2,0.1h0c-1.2,0.1-2.5,0.4-3.6,0.9c-0.6,0.2-1.1,0.5-1.6,0.7
	c-0.3-0.3-0.5-0.6-0.8-0.8c-10.6-11-19.2-25.5-24.6-42.2c-2.5-7.7-4.3-15.6-5.4-23.7c0-0.5-0.1-0.9-0.2-1.3c-0.5-4.1-0.9-8.3-1-12.6
	c-0.1-1.8-0.1-3.6-0.1-5.5c0-2.5,0.1-5,0.2-7.4c0.1-1.6,0.2-3.3,0.3-4.9s0.3-3.2,0.5-4.8c0.1-0.8,0.2-1.6,0.3-2.4
	c0.2-1.1,0.3-2.3,0.5-3.4c0.6-3.7,1.3-7.3,2.2-10.8c0.6-2.7,1.4-5.3,2.2-7.9c0.4-1.3,0.8-2.6,1.3-3.9c3.1-9.1,7.4-17.8,12.6-25.8
	c1.6-2.4,3.2-4.6,4.9-6.8c1.1-1.5,2.3-2.9,3.5-4.2c1.8-2,3.7-4,5.6-5.8C367.4,203.5,373.9,202.6,380.9,203.4L380.9,203.4z"/>
<path class="st17" d="M469.6,227.2c-0.2,0-0.3,0-0.5-0.1c-7.8-2.5-15.9-3.7-24-3.7h-1.7c-1.6,0-3-0.9-3.6-2.4
	c-0.6-1.5-0.2-3.3,1-4.4c4.2-3.9,9.2-6.9,14.6-8.8c0.2-0.1,0.3-0.1,0.5-0.1c0.4,0,0.7,0.2,1,0.4l0.3,0.3c1.1,1.1,2.3,2.3,3.4,3.4
	s2.5,2.7,3.6,4.1c1.7,2.1,3.4,4.3,5.1,6.7c0.5,0.7,1,1.4,1.5,2.2c0.4,0.5,0.4,1.2,0,1.7C470.6,227,470.1,227.2,469.6,227.2
	L469.6,227.2z"/>
<path class="st9" d="M455.9,209.2c0.1,0.1,0.2,0.2,0.3,0.3c1.1,1.1,2.3,2.2,3.4,3.4c1.2,1.3,2.4,2.7,3.6,4.1c1.8,2.1,3.4,4.3,5,6.6
	c0.5,0.7,1,1.4,1.5,2.2c-7.9-2.5-16.2-3.8-24.5-3.7h-1.8c-1.4-0.1-2.4-1.2-2.3-2.6c0-0.6,0.3-1.2,0.8-1.7
	C445.8,213.9,450.7,211,455.9,209.2 M455.9,206.2c-0.3,0-0.7,0.1-1,0.2c-5.6,2-10.8,5.1-15.2,9.2c-1.6,1.6-2.2,4-1.3,6.1
	c0.8,2,2.7,3.4,4.9,3.4h1.8c8,0,15.9,1.2,23.5,3.6c1.6,0.5,3.3-0.4,3.8-1.9c0.3-0.9,0.1-1.8-0.4-2.6c-0.5-0.8-1-1.5-1.5-2.2
	c-1.7-2.4-3.4-4.7-5.2-6.8c-1.2-1.4-2.4-2.8-3.7-4.2s-2.3-2.4-3.5-3.5l-0.1-0.1l-0.2-0.2C457.4,206.6,456.7,206.3,455.9,206.2
	L455.9,206.2z"/>
<path class="st17" d="M329.2,279.2c-0.8,0-1.5-0.7-1.5-1.5c0-0.1,0-0.1,0-0.2c1.2-8.9,3.3-17.7,6.3-26.2c0.2-0.6,0.7-1,1.3-1
	c1-0.1,2-0.1,3-0.1c12,0,23.3,5.1,28.9,8.2c1.3,0.7,2,2.2,1.7,3.6c-0.2,1.4-1.3,2.6-2.8,2.8c-18,2.9-29.5,9.3-36.1,14.2
	C329.9,279.1,329.6,279.2,329.2,279.2L329.2,279.2z"/>
<path class="st9" d="M338.3,251.7c11.4,0,22.2,4.8,28.2,8c0.9,0.6,1.2,1.8,0.6,2.8c-0.3,0.4-0.7,0.7-1.1,0.8
	c-18.6,3-30.4,9.7-36.7,14.4c1.2-8.8,3.3-17.5,6.2-25.9C336.4,251.7,337.3,251.7,338.3,251.7 M338.3,248.7c-1,0-2.1,0-3.1,0.1
	c-1.2,0.1-2.2,0.9-2.6,2c-3,8.6-5.1,17.5-6.3,26.5c-0.2,1.6,0.9,3.2,2.6,3.4c0.8,0.1,1.6-0.1,2.2-0.6c6.4-4.8,17.7-11,35.4-13.9
	c2.1-0.3,3.7-1.9,4-4c0.4-2.1-0.6-4.2-2.5-5.2C362.1,253.9,350.6,248.7,338.3,248.7L338.3,248.7z"/>
<path class="st17" d="M371,396.1c-34.1,0-46.4-30.3-46.4-50.7c0-20.8,23.3-39,50-39c4.5,0,9,0.5,13.4,1.5c13.6,3,27.7,3,41.4,0
	c4.4-1,8.9-1.5,13.5-1.5c26.6,0,50,18.2,50,39c0,12.2-3.7,24.2-10.1,33.1c-8.1,11.2-20.4,17.1-35.5,17.1c-8.2-0.1-16.3-1.5-24-4.1
	c-4.5-1.5-9.3-2.2-14.1-2.3c-4.6,0-9.1,0.8-13.4,2.3C387.8,394.5,379.5,396,371,396.1L371,396.1z"/>
<path class="st9" d="M442.8,308c26.6,0,48.5,18,48.5,37.5c0,20.9-11.4,48.7-44.1,48.7c-8-0.1-16-1.5-23.6-4
	c-4.7-1.5-9.6-2.3-14.5-2.4c-4.7,0-9.4,0.8-13.9,2.4c-7.8,2.8-16,4.4-24.2,4.5c-32.3,0-44.9-28.4-44.9-49.2
	C326,326,347.8,308,374.5,308c4.4,0,8.8,0.5,13.2,1.5c13.8,3.1,28.2,3.1,42,0C434,308.5,438.4,308,442.8,308 M442.8,305
	c-4.7,0-9.3,0.5-13.8,1.6c-13.4,3-27.3,3-40.7,0c-4.5-1-9.2-1.5-13.8-1.6c-13-0.1-25.8,4.1-36.1,12.1c-9.8,7.7-15.4,18-15.4,28.4
	c0,21,12.8,52.2,47.9,52.2c8.6-0.1,17.2-1.7,25.3-4.6c4.2-1.4,8.5-2.2,12.9-2.2c4.6,0,9.2,0.8,13.6,2.2c7.9,2.6,16.2,4,24.5,4.2
	c15.6,0,28.3-6.1,36.7-17.7c6.6-9.1,10.4-21.4,10.4-34c0-10.3-5.6-20.7-15.4-28.4C468.6,309.2,455.9,304.9,442.8,305z"/>
<path class="st19" d="M442.8,308c-3.4,0-6.8,0.3-10.1,0.9c21.9,3.8,38.4,19.6,38.4,36.6c0,18.7-9.2,42.9-34.5,47.8
	c3.5,0.6,7.1,0.9,10.6,0.9c32.6,0,44.1-27.7,44.1-48.7C491.3,326,469.5,308,442.8,308"/>
<path class="st24" d="M384.6,308.9c-21.9,3.8-38.4,19.6-38.4,36.6c0,18.7,9.2,42.9,34.5,47.8c-40.8,6.6-54.7-24.7-54.7-47.8
	C326,323.6,353.6,303.6,384.6,308.9z"/>
<path class="st2" d="M342.8,350.5c-2.2-5.6-2.6-11.7-1.2-17.5c1.6-6.5,6.3-11.9,12.6-14.3c2.2-0.8,4.5-1.2,6.8-1.2
	c7,0,13.8,3.7,18.6,9.8"/>
<path class="st9" d="M365.5,355.8c-4.6,0-9.2-3.9-11.4-9.4c-1.5-3.6-1.6-7.7-0.1-11.3c0.9-2.1,2.6-3.8,4.7-4.6
	c0.9-0.3,1.8-0.5,2.7-0.5c4.6,0,9.2,3.9,11.4,9.4c1.5,3.6,1.6,7.7,0.1,11.3c-0.9,2.1-2.6,3.7-4.7,4.6
	C367.3,355.6,366.4,355.8,365.5,355.8z"/>
<path class="st9" d="M361.4,331.5c3.9,0,8,3.4,10,8.4c2.3,6.1,0.7,12.3-3.7,13.9c-0.7,0.3-1.4,0.4-2.2,0.4c-3.9,0-8-3.4-10-8.4
	c-2.3-6.1-0.7-12.3,3.7-13.9C360,331.7,360.7,331.5,361.4,331.5 M361.4,328.6c-1.1,0-2.2,0.2-3.2,0.6c-2.5,1-4.5,2.9-5.5,5.4
	c-1.6,4-1.6,8.5,0,12.4c2.4,6.2,7.5,10.4,12.8,10.4c1.1,0,2.2-0.2,3.2-0.6c2.5-1,4.5-2.9,5.5-5.4c1.6-4,1.6-8.5,0-12.4
	C371.8,332.7,366.7,328.5,361.4,328.6L361.4,328.6z"/>
<path class="st24" d="M361,343.5c-1.5-3.7-1.8-7.8-1-11.8c-0.2,0.1-0.5,0.1-0.7,0.2c-4.4,1.6-6.1,7.8-3.7,13.9s7.8,9.7,12.2,8
	c0.3-0.1,0.7-0.3,1-0.5C365.2,351,362.5,347.5,361,343.5L361,343.5z"/>
<path class="st2" d="M474.5,352.4c2.2-5.6,2.6-11.7,1.2-17.5c-1.6-6.5-6.3-11.9-12.5-14.3c-2.2-0.8-4.5-1.2-6.8-1.2
	c-6.4,0-12.5,3-17.2,8"/>
<path class="st9" d="M451.8,357.6c-0.9,0-1.8-0.2-2.7-0.5c-2.1-0.8-3.8-2.5-4.7-4.6c-1.5-3.6-1.4-7.7,0.1-11.3
	c2.1-5.5,6.8-9.4,11.4-9.4c0.9,0,1.8,0.2,2.7,0.5c2.1,0.8,3.8,2.5,4.7,4.6c1.5,3.6,1.4,7.7-0.1,11.3
	C461.1,353.8,456.4,357.6,451.8,357.6z"/>
<path class="st9" d="M455.9,333.4c0.7,0,1.5,0.1,2.2,0.4c4.4,1.6,6.1,7.8,3.7,13.9c-2,5.1-6.1,8.4-10,8.4c-0.7,0-1.5-0.1-2.2-0.4
	c-4.4-1.6-6.1-7.8-3.7-13.9C447.9,336.8,452,333.4,455.9,333.4 M455.9,330.4c-5.3,0-10.4,4.2-12.8,10.4c-1.7,4-1.7,8.5,0,12.4
	c1.1,2.5,3,4.4,5.5,5.4c1,0.4,2.1,0.6,3.2,0.6c5.3,0,10.4-4.2,12.8-10.4c1.7-4,1.7-8.5,0-12.4c-1.1-2.5-3.1-4.4-5.5-5.3
	C458.1,330.6,457,330.4,455.9,330.4L455.9,330.4z"/>
<path class="st24" d="M450.8,344.3c-1.5,3.7-1.9,7.8-1,11.7c-0.2-0.1-0.5-0.1-0.7-0.2c-4.4-1.6-6-7.8-3.7-13.9s7.8-9.7,12.2-8
	c0.3,0.1,0.7,0.3,1,0.5C454.9,336.8,452.2,340.2,450.8,344.3z"/>
<path class="st17" d="M348,227.4c-0.8,0-1.5-0.7-1.5-1.5c0-0.3,0.1-0.6,0.3-0.8c4.1-6.2,8.9-12,14.2-17.1c0.3-0.3,0.6-0.4,1-0.4
	c0.2,0,0.3,0,0.5,0.1c5.6,1.9,10.8,5,15.1,9c1.2,1.1,1.6,2.9,1,4.4c-0.5,1.5-1.9,2.4-3.5,2.4h-1.9c-8.4,0-16.7,1.3-24.7,3.9
	C348.3,227.4,348.2,227.5,348,227.4z"/>
<path class="st9" d="M362,209.1c5.4,1.8,10.4,4.8,14.5,8.7c1,0.9,1.1,2.5,0.2,3.5c-0.4,0.5-1,0.8-1.7,0.8h-1.8c-8.5,0-17,1.3-25.1,4
	C352.1,219.9,356.8,214.2,362,209.1 M362,206.1c-0.8,0-1.5,0.3-2.1,0.8c-5.5,5.2-10.3,11.1-14.5,17.4c-0.9,1.4-0.5,3.2,0.9,4.2
	c0.5,0.3,1.1,0.5,1.7,0.5c0.3,0,0.7,0,1-0.2c7.8-2.6,15.9-3.9,24.1-3.8h1.9c2.2,0,4.1-1.4,4.9-3.4c0.8-2.1,0.3-4.5-1.3-6.1
	c-4.5-4.2-9.8-7.4-15.6-9.3C362.7,206.1,362.3,206.1,362,206.1L362,206.1z"/>
<path class="st25" d="M408.7,410.2c-5.3,0-10.5-0.5-15.7-1.6c-0.3-0.1-0.6-0.1-1-0.2c-1.5-0.3-3-0.8-4.5-1.2c-0.8-0.2-1.2-1.1-1-1.9
	c0.1-0.4,0.4-0.8,0.9-0.9c4.9-2,12.8-3.2,21.3-3.2s16.4,1.2,21.3,3.2c0.6,0.2,0.9,0.8,0.9,1.4c0,0.6-0.4,1.2-1,1.4
	c-1.4,0.4-2.9,0.9-4.5,1.2c-0.3,0.1-0.6,0.1-1,0.2C419.2,409.7,413.9,410.2,408.7,410.2L408.7,410.2z"/>
<path class="st9" d="M408.7,402.6c8.6,0,16.2,1.2,20.7,3.1c-1.4,0.5-2.9,0.9-4.4,1.2l-0.9,0.2c-10.1,2.1-20.6,2.1-30.8,0l-0.9-0.2
	c-1.5-0.4-3-0.8-4.4-1.2C392.5,403.9,400.1,402.6,408.7,402.6 M408.7,399.6c-8.8,0-16.8,1.2-21.9,3.4c-1.5,0.6-2.3,2.4-1.6,3.9
	c0.3,0.8,1,1.5,1.9,1.7c1.5,0.5,3.1,0.9,4.6,1.2l1,0.2c10.6,2.2,21.4,2.2,32,0c0.4-0.1,0.7-0.1,1-0.2c1.6-0.4,3.2-0.8,4.6-1.3
	c1.6-0.5,2.4-2.2,1.9-3.8c-0.3-0.8-0.9-1.5-1.7-1.9C425.5,400.9,417.3,399.6,408.7,399.6L408.7,399.6z"/>
<path class="st25" d="M408.7,410.2c-5.3,0-10.5-0.5-15.7-1.6c-0.3-0.1-0.6-0.1-1-0.2c-1.5-0.3-3-0.8-4.5-1.2c-0.8-0.2-1.2-1.1-1-1.9
	c0.1-0.4,0.4-0.8,0.9-0.9c4.9-2,12.8-3.2,21.3-3.2s16.4,1.2,21.3,3.2c0.6,0.2,0.9,0.8,0.9,1.4c0,0.6-0.4,1.2-1,1.4
	c-1.4,0.4-2.9,0.9-4.5,1.2c-0.3,0.1-0.6,0.1-1,0.2C419.2,409.7,413.9,410.2,408.7,410.2L408.7,410.2z"/>
<path class="st9" d="M408.7,402.6c8.6,0,16.2,1.2,20.7,3.1c-1.4,0.5-2.9,0.9-4.4,1.2l-0.9,0.2c-10.1,2.1-20.6,2.1-30.8,0l-0.9-0.2
	c-1.5-0.4-3-0.8-4.4-1.2C392.5,403.9,400.1,402.6,408.7,402.6 M408.7,399.6c-8.8,0-16.8,1.2-21.9,3.4c-1.5,0.6-2.3,2.4-1.6,3.9
	c0.3,0.8,1,1.5,1.9,1.7c1.5,0.5,3.1,0.9,4.6,1.2l1,0.2c10.6,2.2,21.4,2.2,32,0c0.4-0.1,0.7-0.1,1-0.2c1.6-0.4,3.2-0.8,4.6-1.3
	c1.6-0.5,2.4-2.2,1.9-3.8c-0.3-0.8-0.9-1.5-1.7-1.9C425.5,400.9,417.3,399.6,408.7,399.6L408.7,399.6z"/>
<path class="st2" d="M431.1,384.5c-2.3-0.5-4.7-1.2-7.1-1.9c-4.8-1.5-9.8-2.4-14.8-2.4c-4.9,0-9.7,0.8-14.3,2.4
	c-1.6,0.5-3.1,1-4.6,1.5"/>
<circle class="st9" cx="382.9" cy="332.6" r="1.8"/>
<circle class="st9" cx="434.5" cy="332.6" r="1.8"/>
<ellipse class="st9" cx="354" cy="237.6" rx="1.7" ry="1.8"/>
<circle class="st9" cx="354" cy="374.4" r="1.8"/>
<circle class="st9" cx="436.9" cy="386.9" r="1.8"/>
<path class="st17" d="M408.6,265.4c-0.6,0-1.1-0.4-1.4-0.9c-11.1-27-21.6-52.4-37.1-73.1c-0.3-0.4-0.4-0.8-0.3-1.2
	c0.1-0.4,0.4-0.8,0.8-1c2.8-1.4,5.7-2.7,8.6-3.8c9.2-3.7,18.9-5.5,28.8-5.6c12.4,0,25,3.1,38.6,9.4c0.8,0.4,1.1,1.2,0.7,2
	c-0.1,0.1-0.1,0.2-0.2,0.3C430.5,211.1,420.6,237,411,262l-0.8,2.1c0,0.1-0.1,0.2-0.1,0.3C409.8,265,409.3,265.4,408.6,265.4
	L408.6,265.4z"/>
<path class="st9" d="M408,181.3c12.2,0,24.6,3,37.9,9.2c-17.2,20.4-27.3,47.4-37.3,73.2c0,0.1,0,0.1-0.1,0.2
	c-11.2-27.2-21.7-52.6-37.3-73.4c2.8-1.4,5.6-2.6,8.5-3.7C388.8,183.2,398.4,181.3,408,181.3 M408.1,178.3c-10.1,0.1-20,2-29.4,5.7
	c-2.9,1.1-5.9,2.4-8.7,3.8c-1.5,0.7-2.1,2.5-1.3,4c0.1,0.2,0.2,0.3,0.3,0.5c15.4,20.5,25.9,45.9,37,72.8c0.5,1.1,1.6,1.9,2.8,1.9
	c1.2,0,2.3-0.7,2.8-1.9c0.1-0.1,0.1-0.2,0.1-0.3l0.8-2.1c9.6-24.9,19.5-50.7,35.9-70.2c1.1-1.3,0.9-3.2-0.3-4.2
	c-0.2-0.2-0.4-0.3-0.7-0.4C433.6,181.4,420.7,178.3,408.1,178.3L408.1,178.3z"/>
<path class="st19" d="M437.4,186.9c-15.1,18.5-30.4,73.1-28.7,77c9.9-25.9,20-53,37.3-73.4C443.1,189.1,440.2,187.9,437.4,186.9
	L437.4,186.9z"/>
<path class="st24" d="M408.7,263.7c0,0.1,0,0.1-0.1,0.2c-11.2-27.2-21.7-52.6-37.3-73.4c2.8-1.4,5.6-2.6,8.5-3.7
	C393.4,204.8,407.7,253.1,408.7,263.7L408.7,263.7z"/>
<path class="st26" d="M410.8,235c3-7.5,6.2-14.9,9.7-22.1"/>
<path class="st22" d="M401.6,216.6c-5.3-15.6-13.9-29.5-23.9-39c19-8.4,42.7-9.1,59.9,0.8c-3.9,3.3-13.4,17.7-16.3,24"/>
<path class="st24" d="M387.8,174c-3.5,1-6.8,2.2-10.1,3.6c10,9.6,18.9,24.8,23.9,39C399.9,216.6,402.6,191.5,387.8,174z"/>
<path class="st26" d="M396,179.5c6.7-1.2,13.5-1.4,20.2-0.6"/>
<ellipse class="st9" cx="421.8" cy="180.2" rx="1.7" ry="1.8"/>
<ellipse class="st9" cx="403.5" cy="222.6" rx="1.7" ry="1.8"/>
<path class="st2" d="M401.6,216.6c-5.3-15.6-13.9-29.5-23.9-39c19-8.4,42.7-9.1,59.9,0.8c-3.9,3.3-13.4,17.7-16.3,24 M334.7,305.9
	c-0.3-16.9,0.5-32.9,4.6-46.1"/>
<path class="st27" d="M369.7,261.6c-11.8,0.5-20.9,11.2-20.4,24c0.2,4.4,1.6,8.8,4,12.5c0.1,0,0.2,0,0.3,0c0.9-0.3,1.8-0.5,2.8-0.6
	h0.5c0.9-0.3,1.8-0.5,2.7-0.6c1.9-0.2,3.8,0.3,5.4,1.3c7.6-0.7,15.2-0.5,22.7,0.8c3.1-4.4,4.6-9.7,4.4-15
	C391.5,271.1,381.5,261.1,369.7,261.6z"/>
<path class="st2" d="M350.3,300.5c15.3-4.2,28.5-3.1,42.9,0.4"/>
<path class="st15" d="M387.6,299.3h-0.3c-5.2-1-10.5-1.6-15.9-1.7h-1.3c-2.4,0-4.9,0.1-7.3,0.4c-2.1,0.2-4.2,0.6-6.3,1.1
	c-0.6,0.2-1.2,0-1.5-0.5c-3.3-4-5-9.1-5-14.3c0-12.2,9.8-22.1,22-22.1h0.1c9.6,0.1,18.1,6.4,20.8,15.7c0.7,2.2,1,4.4,1,6.7
	c0,1.5-0.2,3-0.5,4.5c-0.7,3.6-2.4,6.9-4.7,9.8C388.5,299.1,388.1,299.3,387.6,299.3L387.6,299.3z"/>
<path class="st9" d="M372,263.7L372,263.7c9.1,0.1,17,6,19.5,14.6c0.6,2,0.9,4.1,0.9,6.2c0,1.4-0.2,2.8-0.4,4.2
	c-0.7,3.3-2.2,6.5-4.4,9.1c-5.3-1-10.7-1.6-16.1-1.7h-1.3c-2.5,0-5,0.1-7.5,0.4c-2.2,0.2-4.3,0.6-6.5,1.1c-3.1-3.8-4.7-8.5-4.7-13.3
	C351.5,273,360.7,263.7,372,263.7 M372,260.7c-13,0.1-23.4,10.7-23.5,23.6c0,5.5,1.9,10.9,5.4,15.2c0.6,0.7,1.4,1.1,2.3,1.1
	c0.2,0,0.5,0,0.7-0.1c2-0.5,4-0.8,6.1-1.1c2.4-0.3,4.8-0.4,7.2-0.4h1.3c5.2,0.1,10.5,0.7,15.6,1.7c0.2,0,0.4,0,0.5,0
	c0.9,0,1.7-0.4,2.3-1.1c2.5-3,4.2-6.6,5-10.4c0.8-3.9,0.6-8-0.5-11.9C391.5,267.5,382.4,260.7,372,260.7L372,260.7z"/>
<path class="st9" d="M392,288.7c-0.7,3.3-2.2,6.5-4.4,9.1c-5.3-1-10.7-1.6-16.1-1.7c-2.9-0.1-5.9,0.1-8.8,0.4c-4-7.6-1-17,6.6-21
	c7.6-4,17-1,21,6.6C391.3,284.2,391.9,286.4,392,288.7L392,288.7z"/>
<ellipse transform="matrix(4.712313e-03 -1 1 4.712313e-03 78.3515 657.7988)" class="st15" cx="369.6" cy="289.5" rx="5.7" ry="5.6"/>
<ellipse transform="matrix(1 -4.712372e-03 4.712372e-03 1 -1.3237 1.7666)" class="st5" cx="374.2" cy="281.8" rx="1.8" ry="1.8"/>
<circle class="st9" cx="346.3" cy="302.2" r="1.3"/>
<path class="st20" d="M449.3,261.7c12.8,0.7,22.6,11.6,21.9,24.4c-0.2,4.3-1.7,8.5-4.2,12.1h-0.3c-1-0.3-2-0.5-3-0.6h-0.5
	c-0.9-0.3-1.9-0.5-2.9-0.6c-2-0.2-4,0.3-5.8,1.3c-8.1-0.8-16.2-0.5-24.3,0.7c-3.3-4.3-4.9-9.6-4.7-15
	C425.9,271.2,436.6,261.3,449.3,261.7C449.3,261.7,449.3,261.7,449.3,261.7L449.3,261.7z"/>
<path class="st2" d="M467.2,300.5c-15.3-4.2-28.5-3.1-42.9,0.4"/>
<path class="st15" d="M429.9,299.3c-0.4,0-0.9-0.2-1.1-0.5c-3.3-4-5.1-9-5.2-14.2c0-2.3,0.3-4.5,1-6.7c2.7-9.3,11.2-15.6,20.9-15.7
	h0.1c12.2,0.1,22,10,22,22.1c0,5.2-1.7,10.2-5,14.3c-0.3,0.4-0.7,0.6-1.2,0.6c-0.1,0-0.2,0-0.4,0c-2.1-0.5-4.2-0.9-6.3-1.1
	c-2.4-0.3-4.9-0.4-7.3-0.4h-1.3c-5.3,0.1-10.6,0.7-15.9,1.7L429.9,299.3z"/>
<path class="st9" d="M445.5,263.7c11.3,0.1,20.5,9.3,20.5,20.7c0,4.9-1.6,9.6-4.7,13.3c-2.1-0.5-4.3-0.9-6.5-1.1
	c-2.5-0.3-5-0.4-7.5-0.4H446c-5.4,0.1-10.8,0.7-16.1,1.7c-3.1-3.7-4.8-8.4-4.8-13.3c0-2.1,0.3-4.2,0.9-6.2
	C428.6,269.7,436.5,263.7,445.5,263.7L445.5,263.7 M445.6,260.6h-0.1c-10.3,0.1-19.4,6.9-22.3,16.8c-0.7,2.3-1,4.7-1,7.1
	c0,1.6,0.2,3.2,0.5,4.8c0.8,3.8,2.5,7.4,5,10.4c0.6,0.7,1.4,1.1,2.3,1.1c0.2,0,0.4,0,0.5,0c5.2-1,10.4-1.5,15.6-1.7h1.3
	c2.4,0,4.8,0.1,7.1,0.4c2.1,0.2,4.1,0.6,6.1,1.1c0.2,0.1,0.5,0.1,0.7,0.1c0.9,0,1.8-0.4,2.3-1.1c3.5-4.3,5.4-9.7,5.3-15.2
	C469,271.3,458.5,260.8,445.6,260.6L445.6,260.6z"/>
<path class="st9" d="M425.5,288.7c0.7,3.3,2.2,6.5,4.4,9.1c5.3-1,10.7-1.6,16.1-1.7c2.9-0.1,5.9,0.1,8.8,0.4c4-7.6,1-17-6.6-21
	c-7.6-4-17-1-21,6.6C426.2,284.2,425.6,286.4,425.5,288.7L425.5,288.7z"/>
<ellipse transform="matrix(1 -4.712372e-03 4.712372e-03 1 -1.3597 2.1136)" class="st15" cx="447.8" cy="289.6" rx="5.6" ry="5.7"/>
<ellipse class="st5" cx="441.2" cy="280.4" rx="1.8" ry="1.8"/>
<circle class="st9" cx="471.2" cy="302.2" r="1.3"/>
<path class="st0" d="M656.4,555.6c-0.6-0.4-1.2-0.6-1.9-0.6h-5.3l0.5-1.5c0.2-0.5,0.3-1.1,0.4-1.7c0-0.3,0-0.6,0-0.8
	c0-1.4-0.5-2.8-1.3-4c-0.1-0.2-0.3-0.4-0.5-0.6c-1.4-1.6-3.3-2.5-5.4-2.5h-6c0-0.1,0.1-0.3,0.1-0.4s0.1-0.3,0.1-0.4
	c0.1-0.4,0.1-0.8,0.1-1.2v-3.2c0-0.4,0-0.8-0.1-1.3c0-0.1-0.1-0.3-0.1-0.4c-0.1-0.3-0.1-0.5-0.2-0.8c-0.1-0.2-0.1-0.3-0.2-0.4
	c-0.1-0.2-0.2-0.4-0.3-0.6c-0.1-0.1-0.2-0.3-0.3-0.4c-0.1-0.2-0.3-0.4-0.4-0.5c-0.1-0.1-0.2-0.2-0.4-0.4l-0.5-0.4
	c-0.1-0.1-0.3-0.2-0.4-0.3s-0.4-0.2-0.6-0.3c-0.2-0.1-0.3-0.1-0.5-0.2c-0.2-0.1-0.5-0.2-0.7-0.2l-0.5-0.1c-0.1,0-0.1,0-0.2,0l4.2-4
	h17.8c0.2,0,0.5,0,0.7-0.1l0.2-0.1c0.2,0,0.3-0.1,0.4-0.2l0.2-0.1c0.1-0.1,0.2-0.2,0.3-0.3c0-0.1,0.1-0.1,0.1-0.2
	c0.1-0.1,0.2-0.3,0.3-0.4c0-0.1,0.1-0.2,0.1-0.3s0.1-0.3,0.1-0.4c0-0.2,0-0.4,0-0.6v-0.1c0-0.4-0.2-0.9-0.4-1.2l-5.6-8
	c-1.2-1.7-3.1-2.7-5.2-2.7h-7.6v-3.8c0-3.4-2.6-6.2-6-6.4l-33-2c0.4-0.6,0.8-1.3,1-2c0.2-0.6,0.3-1.2,0.4-1.8v-0.8
	c0-4.1-3.3-7.5-7.4-7.8h-0.6l-2.9-0.2l-6.7-0.4l-24.6-1.5l-44-2.9c-0.3,0-0.7,0-1,0.1l-9.8,3.7c-1.9,0.7-2.9,2.7-2.2,4.6
	c0.3,0.8,0.8,1.4,1.5,1.9c0.1,0.1,0.2,0.1,0.3,0.2l9.3,4.9c0.3,0.1,0.6,0.2,0.9,0.3l5.2,0.3h0l3.2,0.2c0,0.1-0.1,0.1-0.1,0.2
	c0,0.1,0,0.1-0.1,0.2l-0.1,0.3c-0.1,0.2-0.2,0.5-0.2,0.8s-0.1,0.2-0.1,0.4c-0.1,0.4-0.1,0.8-0.1,1.2v10.2h-17.2
	c-1,0-1.8,0.5-2.3,1.4c0,0.1-0.1,0.1-0.1,0.2c-0.1,0.2-0.1,0.3-0.2,0.5c0,0.1,0,0.2,0,0.3c0,0.1,0,0.3,0,0.4c0,0.1,0,0.2,0.1,0.4
	c0,0.1,0,0.2,0,0.3c0,0.1,0,0.1,0.1,0.2c0.1,0.2,0.1,0.3,0.2,0.5l4.5,7.9c0.1,0.2,0.3,0.4,0.4,0.6c1.1,1.4,2.7,2.2,4.4,2.2h14l2.8,4
	h-4.3c-3.6,0-6.5,2.9-6.5,6.5v3.2c0,0.4,0,0.8,0.1,1.2c0,0.1,0,0.2,0.1,0.3s0.1,0.3,0.1,0.5h-5.7c-1.6,0-3.1,0.8-4,2.2
	c0,0.1-0.1,0.2-0.1,0.2c-0.2,0.3-0.3,0.6-0.4,0.8c0,0.1,0,0.2-0.1,0.4c-0.1,0.3-0.1,0.5-0.1,0.8v0.3c0,0.7,0.2,1.4,0.5,2l1.5,3
	l0.7,1.3h-9.2c-0.3,0-0.7,0.1-1,0.2l-0.2,0.1c-0.1,0.1-0.2,0.1-0.3,0.2c-0.1,0.1-0.2,0.1-0.2,0.2c-0.1,0.1-0.1,0.2-0.2,0.2
	c0,0.1-0.1,0.1-0.2,0.2c0,0.1-0.1,0.2-0.1,0.3s-0.1,0.2-0.1,0.3c0,0.1,0,0.1,0,0.2c0,0.1-0.1,0.3-0.1,0.4c0,0,0,0.1,0,0.1
	c0,0.2,0,0.3,0,0.5c0,0,0,0.1,0,0.1c0,0.2,0.1,0.3,0.1,0.5l5,10.6c0.1,0.1,0.1,0.2,0.2,0.3c0,0.1,0.1,0.2,0.2,0.2
	c0.1,0.1,0.1,0.1,0.2,0.2c0.1,0.1,0.2,0.2,0.3,0.3l0.2,0.1c0.1,0.1,0.3,0.1,0.4,0.2c0.2,0.1,0.5,0.1,0.7,0.1h4.9l3.9,9.5l0.3,0.7h-5
	c-1.4,0-2.7,0.5-3.7,1.4l-10.6,9.3l-0.1,0.1c-0.7,0.6-1.1,1.5-1,2.4c0,0.3,0.1,0.6,0.2,0.9c0.4,1.2,1.6,1.9,2.8,1.9h147.7
	c1.7,0,3.4-0.8,4.4-2.2c0.8-1,1.2-2.1,1.2-3.4v-5c0-0.3,0-0.7-0.1-1c0-0.1,0-0.2-0.1-0.3c-0.1-0.2-0.1-0.5-0.2-0.7l-0.1-0.2
	c-0.1-0.3-0.3-0.6-0.5-0.9l-0.2-0.3c-0.1-0.2-0.3-0.3-0.4-0.5c-0.2-0.2-0.5-0.4-0.7-0.6l-0.3-0.2c-0.1-0.1-0.2-0.2-0.4-0.2l-0.2-0.1
	c-0.2-0.1-0.5-0.2-0.7-0.3c-0.1,0-0.3-0.1-0.4-0.1c-0.4-0.1-0.8-0.1-1.2-0.2h-4.6c0-0.2-0.1-0.5-0.1-0.7s-0.1-0.4-0.1-0.6
	c-0.1-0.4-0.2-0.8-0.3-1.1c0-0.1-0.1-0.3-0.1-0.4c-0.2-0.5-0.3-1-0.5-1.5c0-0.1-0.1-0.2-0.1-0.2c-0.2-0.4-0.4-0.8-0.6-1.2l-0.3-0.5
	c-0.2-0.3-0.3-0.6-0.5-0.9s-0.2-0.3-0.3-0.5s-0.4-0.5-0.6-0.8s-0.3-0.3-0.4-0.5s-0.4-0.5-0.6-0.7s-0.3-0.3-0.5-0.5l-0.2-0.2h20.6
	c0.2,0,0.4,0,0.6-0.1l0.2-0.1c0.1,0,0.2-0.1,0.4-0.1l0.2-0.1l0.3-0.2c0.1,0,0.2-0.1,0.2-0.2c0.1-0.1,0.2-0.1,0.3-0.2
	c0.1-0.1,0.2-0.2,0.4-0.4c0.1-0.1,0.1-0.1,0.2-0.2s0.1-0.2,0.2-0.3c0-0.1,0.1-0.1,0.1-0.2c0.1-0.1,0.1-0.2,0.2-0.4c0,0,0,0,0,0v-0.1
	c0-0.1,0.1-0.2,0.1-0.3c0-0.2,0.1-0.4,0.1-0.6v-8.6C657.9,557.2,657.3,556.2,656.4,555.6L656.4,555.6z"/>
<path class="st1" d="M524.8,499.4l1.8,23.6l6.2-1.4v9.9l-10.5,0.2l-0.6,11.6l-8.8,0.6v9.2l-7.7,12.2l17.3,0.2l1,14.6l-10.3-0.5
	l-0.3,10.8l-27.6,1.3l7.6-8.7l11.2-4.4h6l-10-14.1l-6.4-1.3l-3-8.9l8.7-10.3l12.3-1.1l-2.6-8.9l3.9-2.4l6.5-0.9l-1.6-4.5l-3.6-3.2
	l-15.7-1.9l-4.8-8.1l20.5-0.7l-0.3-12.9l0.6-5L524.8,499.4L524.8,499.4z"/>
<path class="st28" d="M305.8,593.3c-0.8,0-1.4-0.6-1.5-1.3l-1.2-9.9v-0.3c-1.2-9.2-2.5-19.5-3.9-30.3c-3.1-24.2-6.7-51.7-8.8-70.8
	c-0.1-0.8-0.2-1.5-0.2-2.2l-0.1-0.7c0-0.1,0-0.2,0-0.3c0.6-4.8,4.6-8.4,9.5-8.4h217.4c5.3,0,9.6,4.4,9.5,9.7c0,0.4,0,0.8-0.1,1.1
	l-0.1,0.9c-1.8,14.1-4.2,32.8-6.7,52.5c-2.2,17.1-4.3,34.4-6.1,48.5v0.4c-0.5,3.5-0.9,6.8-1.3,9.9c-0.1,0.7-0.7,1.3-1.5,1.3
	L305.8,593.3z"/>
<path class="st9" d="M517.1,470.5c4.5,0,8.1,3.6,8.1,8.1c0,0.3,0,0.7-0.1,1c0,0.3-0.1,0.6-0.1,0.9c-3.4,26.4-8.9,70.9-12.8,101v0.4
	c-0.4,3.5-0.9,6.8-1.3,9.9h-205c-0.4-3.1-0.8-6.4-1.2-9.9c0-0.1,0-0.3,0-0.4c-3.8-30-9.7-73.5-12.6-101c-0.1-1-0.2-2-0.3-2.9
	c0.5-4,3.9-7.1,8-7.1L517.1,470.5 M517.1,467.5H299.6c-5.6,0-10.3,4.2-10.9,9.7c0,0.2,0,0.5,0,0.7l0.1,0.8c0.1,0.7,0.1,1.4,0.2,2.2
	c2.1,19.2,5.6,46.6,8.8,70.9c1.4,10.8,2.7,21.1,3.9,30.2v0.4c0.4,3.5,0.8,6.8,1.2,9.8c0.2,1.5,1.5,2.6,3,2.6h205
	c1.5,0,2.8-1.1,3-2.6c0.4-3.1,0.8-6.3,1.3-9.9c0-0.2,0-0.3,0.1-0.5c1.8-14.1,4-31.6,6.1-48.5c2.5-19.8,4.8-38.5,6.6-52.5v0
	c0-0.1,0-0.3,0-0.4l0.1-0.5c0.8-6.1-3.6-11.6-9.6-12.4C517.9,467.5,517.5,467.5,517.1,467.5L517.1,467.5z"/>
<path class="st29" d="M525.4,477.6c-2.8,27.2-9,72.8-12.9,103.9c0,0.1,0,0.3-0.1,0.4c-0.4,3.5-0.8,6.8-1.2,9.9h-17.1
	c0.4-3.1,0.8-6.4,1.2-9.9c0-0.1,0-0.3,0-0.4c3.9-31.1,10.1-76.7,12.9-103.9c-0.5-4-3.9-7.1-8-7.1h17.1
	C521.5,470.5,524.9,473.5,525.4,477.6L525.4,477.6z"/>
<path class="st30" d="M291.6,477.6c2.9,27.2,9,72.8,12.9,103.9c0,0.1,0,0.3,0,0.4c0.5,3.5,0.9,6.8,1.2,9.9h17.1
	c-0.4-3.1-0.8-6.4-1.2-9.9c0-0.1,0-0.3-0.1-0.4c-3.9-31.1-10.1-76.7-12.9-103.9c0.5-4,3.9-7.1,8-7.1h-17.1
	C295.5,470.5,292.1,473.5,291.6,477.6z"/>
<path class="st2" d="M421.5,480.4h57.1 M326.3,480.4h48.1 M303.5,581.9h208.9"/>
<path class="st31" d="M408.3,549.2c-8.2-0.2-14.8-7-14.6-15.3c0.2-8.2,7-14.8,15.3-14.6c8.1,0.2,14.6,6.8,14.6,14.9
	C423.5,542.6,416.7,549.3,408.3,549.2z"/>
<path class="st9" d="M408.3,520.8c7.4,0.2,13.3,6.3,13.1,13.8s-6.3,13.3-13.8,13.1c-7.3-0.2-13.1-6.1-13.1-13.4
	C394.6,526.7,400.8,520.7,408.3,520.8 M408.3,517.8c-9.1,0.2-16.3,7.7-16.1,16.8c0.2,9.1,7.7,16.3,16.8,16.1
	c8.9-0.2,16.1-7.5,16.1-16.4C425,525.1,417.5,517.7,408.3,517.8z"/>
<path class="st28" d="M413.1,546.8c-1.5,0.6-3.2,0.9-4.8,0.8c-7.4,0-13.4-6-13.4-13.4s6-13.4,13.4-13.4l0,0c1.6,0,3.3,0.3,4.8,0.8
	c-7,2.4-10.6,10-8.2,17C406.2,542.5,409.3,545.5,413.1,546.8z"/>
<path class="st32" d="M512.5,581.5c0,0.1,0,0.3-0.1,0.4c-0.4,3.5-0.8,6.8-1.2,9.9H305.8c-0.4-3.1-0.8-6.4-1.2-9.9c0-0.1,0-0.3,0-0.4
	H512.5z"/>
<path class="st2" d="M333.1,571.9H378"/>
<circle class="st9" cx="383.4" cy="571.7" r="1.8"/>
<circle class="st9" cx="379.2" cy="480.3" r="1.8"/>
<path class="st16" d="M650,557.3v8.6c0,0.1,0,0.2-0.1,0.3c-0.1,0.5-0.6,0.8-1.1,0.8h-32.1c8.1,0,14.7,6.6,14.7,14.7c0,0,0,0,0,0h6.7
	c0.5,0,1.1,0.1,1.5,0.4c0.3,0.2,0.6,0.4,0.8,0.6c0.1,0.1,0.3,0.3,0.4,0.5c0.4,0.5,0.6,1.2,0.6,1.8v5c0,0.7-0.2,1.4-0.7,2
	c-0.6,0.8-1.6,1.3-2.6,1.3H490.4c-0.4,0-0.7-0.3-0.8-0.7c0-0.3,0.1-0.5,0.3-0.6l0.1-0.1l10.7-9.4c0.6-0.5,1.4-0.8,2.2-0.8h8.5
	l-6.2-14.7h-6.5c-0.1,0-0.1,0-0.1-0.1l-5-10.5c0-0.1,0-0.2,0.1-0.2c0,0,0,0,0.1,0h14.3c-0.9,0-1.7-0.5-2.1-1.3l-3.2-6.3
	c-0.6-1.2-0.1-2.6,1.1-3.2c0.3-0.2,0.7-0.3,1.1-0.3h11.9c-2.4,0-4.3-1.9-4.3-4.3v-3.2c0-2.4,1.9-4.3,4.3-4.3c0,0,0,0,0,0h8.7
	l-5.9-8.5h-15.2c-1.2,0-2.3-0.6-2.9-1.7l-4.5-7.9c-0.1-0.2-0.1-0.4,0.1-0.5c0.1,0,0.1-0.1,0.2-0.1h19.5v-12.5c0-0.5,0.1-1,0.3-1.5
	c0-0.1,0.1-0.2,0.1-0.3c0.1-0.2,0.2-0.4,0.3-0.5c0.1-0.2,0.2-0.3,0.4-0.5c0.1-0.1,0.2-0.2,0.3-0.3l0.3-0.2c0.3-0.2,0.6-0.4,1-0.5
	c0.2-0.1,0.4-0.1,0.6-0.2c0.2,0,0.4-0.1,0.5-0.1h0.7l79.2,4.9h0.5l24.5,1.5c2.2,0.1,3.9,2,3.9,4.1v6.1h9.9c1.3,0,2.6,0.6,3.3,1.8
	l2.8,4.1l2.8,4c0.1,0.1,0,0.2,0,0.2c0,0-0.1,0-0.1,0h-18.7l-5.2,5l-3.7,3.5h4.6c2.4,0,4.3,1.9,4.3,4.3v3.2c0,0.5-0.1,0.9-0.2,1.4
	l-0.1,0.3c-0.7,1.6-2.2,2.6-3.9,2.6h12.2c2.7,0,4.9,2.2,4.9,4.9c0,0.6-0.1,1.1-0.3,1.7l-1.7,4.5h8.6
	C649.5,556.2,650,556.7,650,557.3L650,557.3z"/>
<path class="st15" d="M583.9,502.9h0.5l24.5,1.5c2.2,0.1,3.9,2,3.9,4.1v6.1h9.9c1.3,0,2.6,0.6,3.3,1.8l2.8,4.1l2.8,4
	c0.1,0.1,0.1,0.2,0,0.2c0,0-0.1,0-0.1,0h18c0.1,0,0.2-0.1,0.2-0.2c0,0,0-0.1,0-0.1l-2.8-4l-2.8-4c-0.8-1.1-2-1.8-3.3-1.8h-9.9v-6.1
	c0-2.2-1.7-4-3.9-4.1l-24.5-1.5h-0.5l-79.2-4.9h-0.7c-0.2,0-0.3,0.1-0.5,0.1c-0.2,0-0.4,0.1-0.6,0.2c-0.4,0.1-0.7,0.3-1,0.5
	l-0.1,0.1L583.9,502.9z M650.2,556.1h-8.6c6.9-14.1-6.5-10.8-15.1-11.1c4.1,0,4.6-4.4,4.3-7.5c0.1-4.8-5.5-4.4-8.8-4.3
	c2.1-2,6.7-6.5,8.8-8.5h-12.9c-2.2,2.1-6.7,8.1-9.6,8.5c7.5-1,5.4,9.2,5.3,10.6c0,0.4-0.4,0.8-0.3,1.2c9.2-0.2,21.3-1,15.6,11.1
	c1.1,0.5,4.8-1.2,4.5,1.2c-0.4,1,1.1,10-1.2,9.7c0.8-0.5,20,1.3,19.1-1.2C650.9,564.8,652.5,555.8,650.2,556.1L650.2,556.1z
	 M642.2,583.1c-0.1-0.2-0.2-0.3-0.4-0.5c-0.2-0.2-0.5-0.5-0.8-0.6c-0.5-0.2-1-0.4-1.5-0.4h-6.7c0-8.1-6.6-14.7-14.7-14.7h-14.2v0.5
	c6.5,1.7,11,7.5,11,14.2h6.7c0.5,0,1.1,0.1,1.5,0.4c0.3,0.2,0.6,0.4,0.8,0.6c0.1,0.1,0.3,0.3,0.4,0.5c0.4,0.5,0.6,1.2,0.6,1.8v5
	c0,0.7-0.2,1.4-0.7,2c-0.6,0.8-1.6,1.3-2.6,1.3h17.9c1,0,2-0.5,2.6-1.3c0.4-0.6,0.7-1.3,0.7-2v-5
	C642.7,584.4,642.6,583.7,642.2,583.1L642.2,583.1z"/>
<path class="st33" d="M524.6,581.7h-21.7c-0.8,0-1.6,0.3-2.2,0.8l-10.7,9.4v0.1c-0.3,0.3-0.3,0.7,0,1c0.1,0.1,0.3,0.2,0.5,0.2h147.7
	c1,0,2-0.5,2.6-1.3c0.4-0.6,0.7-1.3,0.7-2v-5c0-1.8-1.5-3.3-3.3-3.3c0,0,0,0,0,0h-55.4"/>
<path class="st33" d="M531.6,581.7h-20.2l-6.1-14.7H568 M585,581.7h46.4c0-8.1-6.6-14.7-14.7-14.7h-12.1"/>
<path class="st33" d="M559.3,567h-60.5c-0.1,0-0.1,0-0.1-0.1l-5.1-10.5c0-0.1,0-0.2,0.1-0.2c0,0,0,0,0.1,0h23.1 M604.7,567h44.2
	c0.6,0,1.2-0.5,1.2-1.1c0,0,0,0,0,0v-8.6c0-0.6-0.5-1.2-1.2-1.2h-19.5 M514.2,556.1h-6.1c-0.9,0-1.7-0.5-2.1-1.3l-3.2-6.3
	c-0.6-1.2-0.1-2.6,1-3.2c0.3-0.2,0.7-0.3,1.1-0.3h20.7 M634.2,556.1h6.1l1.7-4.5c0.9-2.5-0.4-5.3-2.9-6.3c-0.5-0.2-1.1-0.3-1.7-0.3
	h-23.2 M533,545h-16.2c-2.4,0-4.3-1.9-4.3-4.3l0,0v-3.2c0-2.4,1.9-4.3,4.3-4.3h20 M585,545h-34 M614.2,545h11c2.4,0,4.3-1.9,4.3-4.3
	l0,0v-3.2c0-2.4-1.9-4.3-4.3-4.3h-15.3 M536.7,533.2h-11.3l-5.9-8.5h77.2 M609.9,533.2h10.7l8.8-8.5H617"/>
<path class="st33" d="M617,524.7h31.1c0.1,0,0.2-0.1,0.2-0.2c0,0,0-0.1,0-0.1l-2.8-4l-2.8-4.1c-0.8-1.1-2-1.8-3.3-1.8h-80
	 M527.6,514.6h-30.3c-0.2,0-0.4,0.2-0.4,0.4c0,0.1,0,0.1,0.1,0.2l4.5,7.8c0.6,1,1.7,1.6,2.9,1.7h92.4"/>
<path class="st33" d="M527.6,514.6h-10.8v-12.5c0-0.5,0.1-1,0.3-1.5c0-0.1,0.1-0.2,0.1-0.3c0.1-0.2,0.2-0.4,0.3-0.5
	c0.1-0.2,0.2-0.3,0.4-0.5c0.1-0.1,0.2-0.2,0.3-0.3l0.3-0.2c0.3-0.2,0.6-0.4,1-0.5c0.2-0.1,0.4-0.1,0.6-0.2c0.2,0,0.4-0.1,0.5-0.1
	h0.7l79.2,4.9h0.5l24.5,1.5c2.2,0.1,3.9,2,3.9,4.1v6.1h-70.1"/>
<path class="st14" d="M598.6,556.1l-10,13.2c-0.4,0.5-1.1,0.7-1.8,0.5c-0.2-0.1-0.4-0.2-0.6-0.4L575,556.1H598.6z"/>
<path class="st33" d="M606,556.1h-35.2 M516.8,506.3h16.1 M541.2,574.3h21.3"/>
<path class="st34" d="M598.6,556.1l-10,13.2c-0.4,0.5-1.1,0.7-1.8,0.5v-13.7H598.6z"/>
<path class="st35" d="M548.9,524.7h22.2v13h-22.2V524.7z M591.6,495.5v0.4c0,0,0,0.1,0,0.1c0,0.5-0.1,0.9-0.3,1.4
	c-0.9,2.3-3.1,3.8-5.6,3.8l-9.9-0.6l-51.8-3.2l-11.7-0.7l-5.3-0.3l-9.3-4.9c0,0-0.1,0-0.1,0c-0.3-0.2-0.6-0.5-0.7-0.8
	c-0.2-0.7,0.2-1.4,0.9-1.7l9.8-3.7l5.3,0.3l63.5,3.9l9.6,0.6C589.1,490,591.5,492.5,591.6,495.5L591.6,495.5z"/>
<path class="st12" d="M576.5,489.4l-0.3,5.3l0,0.5l-0.2,2.3l-0.2,3.2l-51.8-3.2l-11.7-0.7l0.3-5.2l0-0.4v0l0.3-5.6L576.5,489.4
	L576.5,489.4z"/>
<path class="st36" d="M591.9,495.5v0.4c0,0.5-0.1,0.9-0.3,1.4c-0.8,2.4-3.1,3.9-5.6,3.8h-0.2l-9.9-0.6l0.2-3.2l0.2-2.3v-0.5l0.3-5.3
	l9.6,0.6h0.6C589.6,490.1,591.9,492.6,591.9,495.5L591.9,495.5z"/>
<path class="st34" d="M560,524.7h11.1v13H560V524.7z M591.9,495.5v0.4c0,0.5-0.1,0.9-0.3,1.4c-0.8,2.4-3.1,3.9-5.6,3.8h-0.2
	l-9.9-0.6l-51.8-3.2l-11.7-0.7l-5.3-0.3l-9.3-4.9c0,0-0.1,0-0.1,0l0.1-1.2l14.9,0.8l63.6,3.6l15.5,0.9H591.9z"/>
<path class="st1" d="M742.3,384.1H539.5c-4.7,0-8.4,3.2-8.4,7.3v43.9c0,4.1,3.7,7.3,8.4,7.3h202.7c4.7,0,8.4-3.2,8.4-7.3v-43.9
	C750.7,387.3,747,384.1,742.3,384.1z"/>
<path class="st15" d="M533.7,435c-3.3,0-6-2.1-6-4.8v-43.9c0-2.7,2.6-4.8,6-4.8h202.7c3.3,0,6,2.1,6,4.8v43.9c0,2.7-2.6,4.8-6,4.8
	L533.7,435z"/>
<path class="st4" d="M736.5,383.4c2.2,0,4.1,1.3,4.1,2.9v43.9c0,1.6-1.8,2.9-4.1,2.9H533.7c-2.3,0-4.1-1.3-4.1-2.9v-43.9
	c0-1.6,1.8-2.9,4.1-2.9H736.5 M736.5,379.6H533.7c-4.4,0-7.9,3-7.9,6.7v43.9c0,3.8,3.5,6.7,7.9,6.7h202.7c4.4,0,7.9-3,7.9-6.7v-43.9
	C744.3,382.5,740.9,379.6,736.5,379.6z"/>
<path class="st37" d="M740.6,386.3v43.9c0,1.6-1.9,2.9-4.3,2.9h-4.9v-49.7h4.9C738.6,383.4,740.6,384.7,740.6,386.3z"/>
<path class="st27" d="M539.5,383.4v49.7h-5.3c-2.6,0-4.7-1.3-4.7-2.9v-43.9c0-1.6,2.1-2.9,4.7-2.9H539.5z"/>
<path class="st33" d="M643.1,443.8h66.2"/>
<g>
	<path d="M719.6,418.6c-1,1.6-2.6,2.7-4.4,3c-2.3,0.5-4.7,0.3-6.8-0.6c-1-0.5-1.9-1.2-2.7-2c-1.4-1.5-1.6-3.6-0.7-5.4
		c0.9-2,2.6-3.5,4.7-4.2c2.5-0.9,5.2-1.1,7.8-0.4c0.5,0.1,1,0.3,1.4,0.6c0.4,0.2,0.6,0.6,0.5,1.1c0,0.5-0.4,0.9-0.8,1
		c-0.6,0.2-1.2,0.2-1.7-0.2c-0.3-0.3-0.7-0.6-1-0.8c-0.7-0.6-1.6-1-2.6-1c-1.2-0.1-2.4,0.1-3.4,0.7c-2.3,1.4-3,4.4-1.5,6.7
		c0.2,0.2,0.3,0.5,0.5,0.7c1.2,1.2,2.9,2,4.6,2c1.9,0.1,3.9-0.3,5.6-1.1c0.1-0.1,0.3-0.1,0.4-0.2L719.6,418.6z M624.4,421.9
		c-1.7-3-3.5-6-5.2-9c-0.4-0.7-0.8-1.4-1.1-2c-0.3-0.7-1-1.2-1.8-1.2c-0.1,0-0.3-0.1-0.3-0.2c0,0,0-0.1,0-0.1c0-0.2,0.2-0.2,0.3-0.2
		h6.1c0.2,0,0.3,0,0.3,0.2s-0.1,0.3-0.3,0.3h-0.2c-0.8,0-1.1,0.3-0.8,1.3c0.3,0.7,0.6,1.3,1,1.9c0.9,1.5,1.8,3,2.7,4.6
		c0.2,0.3,0.2,0.3,0.4,0c1-1.8,2-3.6,3-5.4c0.2-0.4,0.4-0.9,0.5-1.3c0.1-0.4-0.1-0.8-0.5-1c-0.1,0-0.2,0-0.3,0h-0.5
		c-0.2,0-0.3-0.1-0.3-0.3s0.1-0.2,0.3-0.2h4.3c0.2,0,0.4,0,0.4,0.2s-0.1,0.3-0.3,0.3c-0.6,0.1-1.2,0.4-1.4,1l-3.8,6.9l-2.3,4.2
		C624.6,421.8,624.6,421.9,624.4,421.9L624.4,421.9z M553.1,401.8h6.3c0.5,0,0.5,0,0.5-0.5V395c0-0.4-0.1-0.5-0.4-0.4
		c-2.6,0.3-4.9,1.9-6.2,4.2c-0.3,0.5-0.5,1.1-0.7,1.7c-0.1,0.4-0.2,0.5-0.6,0.5h-2.2c-0.4,0-0.4,0-0.3-0.4c0.5-1.7,1.4-3.2,2.8-4.3
		c2-1.7,4.5-2.7,7.1-2.9c0.5,0,0.5-0.1,0.5-0.6V391c0-0.3,0.1-0.5,0.4-0.4c0.8,0,0.8,0,0.8,0.8v10c0,0.6,0,0.6,0.5,0.6h12.6
		c0.2,0,0.5-0.1,0.5,0.1c0.1,0.3,0.1,0.5,0,0.8c0,0.2-0.2,0.1-0.3,0.1h-2.1c-0.2,0-0.4,0-0.4,0.3c-0.2,2-1.2,3.8-2.7,5.1
		c-1.9,1.7-4.2,2.7-6.7,3c-0.3,0-0.4-0.1-0.4-0.3c0-0.8,0-0.7,0.7-1c3-0.7,5.3-3.1,5.9-6.1c0.3-1.2,0.3-1-0.8-1h-6.3
		c-0.5,0-0.5,0-0.5,0.5v10.3c0,0.2,0.1,0.5-0.2,0.5c-0.3,0.1-0.7,0.1-1,0c-0.1,0-0.1-0.2-0.1-0.4v-2c0-0.3-0.1-0.4-0.4-0.5
		c-2.6-0.2-5.1-1.2-7.1-2.8c-1.6-1.3-2.7-3.2-3-5.2c0-0.4-0.2-0.5-0.6-0.5h-2.2c-0.3,0-0.4-0.1-0.4-0.4v-0.3c0-0.3,0.1-0.4,0.4-0.4
		L553.1,401.8L553.1,401.8z M556.1,402.9h-3.3c-0.4,0-0.4,0.1-0.4,0.5c0.1,1,0.5,2,1,2.9c1.3,2.2,3.5,3.6,6,4
		c0.5,0.1,0.5,0.1,0.5-0.4v-6.5c0-0.3-0.1-0.4-0.4-0.4L556.1,402.9z M600.5,415.9v3.8c0,0.8,0.1,1,1,1h0.4c0.2,0,0.3,0.1,0.3,0.3
		s-0.1,0.3-0.3,0.3l-1.2-0.1c-1.5,0-3.1,0-4.6,0.1c-0.2,0-0.5,0-0.4-0.3s0.1-0.3,0.3-0.3s0.5,0,0.7-0.1c0.3,0,0.6-0.2,0.6-0.5
		c0-0.2,0.1-0.4,0.1-0.6v-8.1c0-0.6-0.4-1.1-0.9-1.2c-0.1,0-0.3,0-0.3-0.2s0.2-0.2,0.3-0.2c1.2-0.3,2.4-0.7,3.5-1.2
		c0.5-0.2,0.6-0.1,0.6,0.4v0.9c0,0.8,0,0.8,0.6,0.4c0.9-0.4,1.7-0.8,2.7-1.2c1.6-0.6,3.3-0.8,5-0.4c1.6,0.3,2.8,1.7,2.8,3.4
		c0.1,2.2,0,4.4,0,6.5v0.6c0,1.3,0.1,1.4,1.3,1.4c0.2,0,0.4,0,0.4,0.3s-0.2,0.3-0.4,0.3c-1.5-0.1-3-0.1-4.6-0.1
		c-0.4,0-0.8,0-1.2,0.1c-0.2,0-0.4,0-0.4-0.3s0.1-0.3,0.3-0.3h0.4c0.7-0.1,0.9-0.2,0.9-1v-7.4c0-0.7-0.5-1.4-1.2-1.6
		c-1.1-0.5-2.3-0.6-3.4-0.3c-1.1,0.2-2.1,0.6-3.2,1c-0.2,0.1-0.3,0.3-0.3,0.5C600.5,413.2,600.5,414.6,600.5,415.9L600.5,415.9z
		 M700.3,417.5c0.1,0.1,0.1,0.3,0,0.5c-0.3,0.9-0.9,1.7-1.7,2.2c-1.2,0.9-2.5,1.4-4,1.6c-2.1,0.3-4.3-0.1-6.2-1.1
		c-1.8-0.9-3.1-2.5-3.5-4.5c-0.3-1.6,0.2-3.3,1.3-4.5c1.2-1.5,2.9-2.4,4.8-2.7c2-0.5,4.1-0.3,6,0.5c1.9,0.7,3.2,2.5,3.3,4.5
		c0,0.4,0,0.4-0.5,0.4h-11c-0.5,0-0.5,0-0.5,0.5c-0.1,2.4,1.5,4.5,3.9,5c2.4,0.6,5,0,7-1.5C699.7,418.1,700,417.8,700.3,417.5
		L700.3,417.5z M692.9,413.3h3.7c0.4,0,0.5,0,0.4-0.5c-0.1-1.1-0.7-2.1-1.6-2.6c-0.8-0.4-1.6-0.6-2.5-0.5c-1.9,0-3.6,1.2-4.1,3.1
		c-0.1,0.4-0.1,0.5,0.3,0.5H692.9z M650.8,417.5c-0.1,0.9-0.5,1.7-1.2,2.3c-1.4,1.2-3.1,1.8-4.8,1.9c-1.9,0.2-3.9-0.1-5.6-1
		c-1.2-0.6-2.1-1.4-2.8-2.5c-1.4-2.2-1.1-5,0.8-6.8c1.4-1.5,3.3-2.4,5.4-2.6c1.7-0.3,3.4-0.1,4.9,0.5c1.5,0.5,2.7,1.7,3.3,3.1
		c0.2,0.5,0.3,1,0.3,1.5c0,0.3-0.1,0.4-0.3,0.4h-11c-0.6,0-0.5,0-0.6,0.5c-0.1,2.7,1.9,4.9,4.5,5.1c2.3,0.4,4.6-0.3,6.5-1.8
		C650.3,418,650.5,417.7,650.8,417.5L650.8,417.5z M643.2,413.3h3.8c0.2,0,0.4,0,0.4-0.3c0-1-0.5-1.9-1.2-2.5
		c-0.9-0.6-1.9-0.9-3-0.8c-1.9,0-3.6,1.3-4.1,3.1c-0.1,0.4-0.1,0.4,0.3,0.4H643.2z M666.4,410.5v0.8c0,0.1,0,0.2-0.2,0.3
		s-0.3,0-0.3-0.1c-0.5-1.1-1.5-1.8-2.7-1.7c-1-0.1-2.1-0.1-3.1,0.1c-0.3,0.1-0.6,0.2-0.9,0.4c-0.7,0.4-0.9,1.3-0.5,2
		c0.1,0.2,0.2,0.3,0.4,0.4c0.5,0.4,1.1,0.7,1.8,0.9l3,1c0.8,0.3,1.6,0.6,2.3,1.1c1.3,0.8,1.7,2.5,0.9,3.8c-0.2,0.3-0.5,0.6-0.8,0.8
		c-1,0.8-2.3,1.3-3.5,1.4c-2.1,0.3-4.3,0.1-6.4-0.7c-0.3-0.1-0.5-0.3-0.4-0.6c0-0.6-0.1-1.1-0.1-1.7c0-0.1,0-0.3,0.2-0.3
		c0.2,0,0.3,0,0.3,0.2c0.6,1.3,2,2.2,3.5,2.2c0.9,0.1,1.8,0.1,2.7-0.1c0.4-0.1,0.7-0.3,1-0.5c0.7-0.5,0.9-1.5,0.4-2.2
		c0-0.1-0.1-0.1-0.1-0.2c-0.4-0.4-0.9-0.8-1.5-1c-1.3-0.5-2.6-0.9-3.8-1.4c-0.7-0.3-1.4-0.7-1.9-1.2c-1.1-1.1-1-2.9,0.1-3.9
		c0.1-0.1,0.2-0.2,0.3-0.2c1.1-0.8,2.4-1.3,3.8-1.4c1.7-0.1,3.5,0.1,5.1,0.6c0.4,0.1,0.6,0.3,0.5,0.7
		C666.4,410.2,666.4,410.4,666.4,410.5L666.4,410.5z M587.4,402.8h2.8c0.2,0,0.4,0,0.4,0.3s-0.2,0.2-0.4,0.2h-0.1
		c-0.9,0-1.2,0.3-1.2,1.2v15c0,1.1,0.1,1.2,1.2,1.3c0.2,0,0.3,0,0.4,0.2c0.1,0.1,0,0.3-0.1,0.4c-0.1,0-0.1,0-0.2,0h-1.2
		c-1.5,0-2.9-0.1-4.4,0c-0.1,0-0.3,0-0.4,0c-0.2,0-0.2-0.1-0.2-0.3s0.1-0.3,0.2-0.3s0.4,0,0.6,0c0.5-0.1,0.7-0.2,0.7-0.7
		c0-0.3,0.1-0.6,0.1-0.9c0-2.5,0.1-5,0.1-7.4c0-2.3,0-4.6-0.1-6.9v-0.2c-0.1-1-0.3-1.2-1.3-1.2c-0.2,0-0.4,0-0.4-0.3
		s0.2-0.3,0.4-0.3L587.4,402.8z M682.2,420c-0.1,0.4-0.4,0.7-0.8,0.9c-1,0.6-2.1,0.9-3.2,0.9c-0.8,0-1.7-0.2-2.5-0.5
		c-1.4-0.5-2.3-1.9-2.3-3.4v-7c0-0.6,0-0.6-0.6-0.6h-1c-0.2,0-0.3-0.1-0.4-0.3c-0.1-0.8-0.1-0.8,0.7-0.8h0.9c0.3,0,0.4-0.1,0.3-0.4
		v-1.7c0-0.4,0.1-0.5,0.5-0.5h2.3c0.3,0,0.5,0.1,0.5,0.5v1.6c0,0.3,0.1,0.5,0.4,0.5h4c0.4,0,0.5,0.1,0.5,0.5c0,0.1,0,0.2,0,0.3
		c0,0.3-0.1,0.4-0.4,0.4H677c-0.3,0-0.5,0.1-0.5,0.5v6.9c-0.1,1.5,0.9,2.8,2.4,2.9c0.1,0,0.3,0,0.4,0c0.9,0.1,1.8-0.1,2.5-0.5
		C682,420,682.1,420,682.2,420L682.2,420z"/>
	<path d="M570.2,401h-1.2c-0.2,0-0.4-0.1-0.4-0.3c0,0,0,0,0,0c-0.8-3-3.2-5.3-6.2-5.9c-0.3-0.1-0.4-0.2-0.4-0.5
		c0-0.7-0.2-0.8,0.8-0.7c2.6,0.3,4.9,1.5,6.7,3.4c1,1,1.7,2.2,2,3.5c0.1,0.5,0.1,0.5-0.4,0.5H570.2z"/>
</g>
<circle class="st9" cx="714.5" cy="443.7" r="1.8"/>
<path class="st33" d="M618,373.2h-66.1"/>
<circle class="st9" cx="271.5" cy="502.6" r="1.8"/>
<circle class="st9" cx="199.1" cy="539.3" r="2.5"/>
<path class="st38" d="M273.1,488.4c0,0,10.6,14.4,25.1,37.7c13.8,22.3,12,59.8-15.4,68.1s-60.9,9.5-85-7.6
	c-14.8-10.6-15.3-29.7-9.4-45.6c5.4-14.5,15.6-25.4,25-37.4c8.8-11.3,15.9-25.7,8.8-39.7c-8.4-16.6-11.9-11.1-13.3-21.9
	s15.9-20.2,27.6-13.7s12.5-2.1,20.5-2.5s9.9,9.6,8.4,12.7c0,0,14-5.3,15.2,8.3s-16.8,16-13.4,28.5
	C268.5,480,270.5,484.4,273.1,488.4L273.1,488.4z"/>
<path class="st39" d="M227.5,428.1h-0.4c-3.6,0.3-7.1,1.4-10.2,3.4c-4,2.7-6.5,6.8-6,10.1c0.6,4.7,1,5.3,3.1,7.3s5.7,5.7,10,14.1
	c6.3,12.3,3.6,25.7-8.6,41.4c-1.7,2.2-3.5,4.4-5.3,6.6c-7.8,9.6-15.5,19-19.8,30.5c-5.2,14-5.7,33.7,8.6,43.8c2.4,1.7,5.2,1.8,7.7,3
	c-14.2-10.7-14.6-29.5-8.7-45.1c5.4-14.6,15.6-25.4,25-37.4c8.8-11.3,14.9-25.2,8.8-39.7c-9.6-22.8-7.2-35.4,1-37.2v-0.1
	C230.9,428.3,229.2,428.1,227.5,428.1"/>
<path class="st40" d="M194.3,560.7c0.2-5,1.1-9.9,2.7-14.6"/>
<path class="st6" d="M296.4,526.1c-14.5-23.3-25.1-37.7-25.1-37.7c-2.6-4.1-4.6-8.5-5.9-13.1c-3.4-12.5,14.6-14.9,13.4-28.5
	s-15.2-8.3-15.2-8.3c0.3-0.7,0.4-1.4,0.5-2.1c-0.5,1.1-1.2,2.2-2,3.1c1.7,1.4-3.7,7.6-4.7,11.2c-4.4,16-8.8,12.2-5.4,24.7
	c1.3,4.7,3.3,9.1,5.9,13.1c0,0,10.6,14.4,25.1,37.7c13.8,22.3,14.6,54.7-12.4,64c-24.4,8.4-46.6,2.9-60.7,1.4
	c3.8,6.7,43.5,12.7,73.4,2.5C310.1,584.8,310.2,548.4,296.4,526.1z"/>
<path class="st2" d="M265.3,438.5c0,0-7.5,12.5-11.2,25.7 M239.3,443c0,0,7.3,10.4,4.6,23 M237,478.5c0,0-1.8,14.2-7.7,23.5
	 M257.6,478.1c2.4,7.4,6,14.4,10.9,20.5 M292.5,544.8c0,0,7.1,34.8-14.5,41.3"/>
<path class="st41" d="M148.5,599.6c0.1,3.9,9.3,6.8,20.6,6.5s20.4-3.6,20.3-7.5l0.3-8.2l-40.9,1L148.5,599.6z"/>
<ellipse transform="matrix(0.9997 -2.390873e-02 2.390873e-02 0.9997 -14.0789 4.2178)" class="st42" cx="169.3" cy="590.9" rx="20.4" ry="6.1"/>
<ellipse transform="matrix(0.9997 -2.390873e-02 2.390873e-02 0.9997 -14.0789 4.2178)" class="st11" cx="169.3" cy="590.9" rx="20.4" ry="6.1"/>
<ellipse transform="matrix(0.9997 -2.390873e-02 2.390873e-02 0.9997 -14.0789 4.2178)" class="st2" cx="169.3" cy="590.9" rx="20.4" ry="6.1"/>
<path class="st41" d="M177.1,595.8l13-22.7l-4.3-4.5c0.6,0-2.6-0.8,4.3-0.8c9.2,0,19.4,6.1,18.9,18.8c-0.6,14.3-9.7,17.2-18.9,17.1
	c-6.1-0.1-11.1-6.8-11.7-7"/>
<ellipse transform="matrix(4.588600e-02 -0.9989 0.9989 4.588600e-02 -409.1458 743.2996)" class="st42" cx="184.5" cy="585.8" rx="18.1" ry="17.1"/>
<path class="st43" d="M183.7,569.2L183.7,569.2c-7.9,0.1-14.4,6.8-14.8,15.8c-0.3,4.3,1.1,8.5,3.7,11.8c2.5,3.2,6.2,5.1,10.2,5.4
	h0.6c0.6,0,1.1,0,1.7-0.1c-5.5-1.9-11.9-8.7-10.9-17.1c0.7-6.3,4.2-14,15.6-14.3c-1.7-0.8-3.5-1.3-5.3-1.4L183.7,569.2"/>
<path class="st41" d="M294.1,601.3c0.1,3.8,9.1,6.7,20.1,6.4s19.9-3.5,19.8-7.3l0.3-8l-39.9,1L294.1,601.3z"/>
<ellipse transform="matrix(0.9997 -2.390873e-02 2.390873e-02 0.9997 -14.0818 7.6881)" class="st42" cx="314.5" cy="592.7" rx="20" ry="6"/>
<path class="st41" d="M284.5,586.6c0.1,3.8,9.1,6.7,20.1,6.4s19.9-3.5,19.8-7.3l0.3-8l-39.9,1L284.5,586.6z"/>
<ellipse transform="matrix(0.9997 -2.390873e-02 2.390873e-02 0.9997 -13.7333 7.453)" class="st42" cx="304.8" cy="578" rx="20" ry="6"/>
<path class="st41" d="M273.3,604.6c2.5,2.8,11.2-0.9,19.4-8.3s12.8-15.7,10.2-18.5l-5-6.3l-29.6,26.8L273.3,604.6z"/>
<ellipse transform="matrix(0.742 -0.6704 0.6704 0.742 -319.0584 340.7043)" class="st42" cx="283.1" cy="584.9" rx="20" ry="6"/>
<ellipse transform="matrix(4.588600e-02 -0.9989 0.9989 4.588600e-02 -409.3713 742.455)" class="st2" cx="184" cy="585.5" rx="18.1" ry="17.1"/>
<path class="st9" d="M245.1,550.2H241l0.2,15.6l-11,0.1l-0.5-45.3l18.5-0.2c8.8-0.1,14.5,6.2,14.6,14.6c0.1,7.7-3.8,11.6-7.2,13.1
	l7.9,17.5l-12.2,0.2L245.1,550.2z M246.6,530l-5.8,0.1l0.1,10.8l5.8-0.1c2.9,0,5-2.2,5-5.4S249.5,529.9,246.6,530z"/>
<path class="st22" d="M257.2,473.9c0,0-6.9-9.9-22-8.2s-14.8,12.4-14.8,12.4S234.5,469.6,257.2,473.9z M220.5,493
	c-6.9-0.1-14.2-8.6-14.2-8.6l-16,9.5c1.7,4.3,5.4,7.4,9.9,8.3c7.7,1.5,20.2-4.6,20.2-4.6L220.5,493z"/>
<path class="st22" d="M220.1,492.8c-2.2,7.5-16.8,2.9-16.8,2.9L193,506.9c41.8,14.9,49-21.9,49-21.9
	C234.4,484.8,227.1,487.2,220.1,492.8z M273.7,479c0,0,0.6-8.3-7.4-11.4s-18-0.2-18-0.2l9.5,9.1L273.7,479z"/>
<path class="st22" d="M223.7,478.4c0,0-10.2,8.3-2.2,13.2c0,0,10.4-9.2,30.8-6.8c8.4,1,13.5,1.8,24.6,8.5c0,0,6.7-15.8-17.1-19.2
	S223.7,478.4,223.7,478.4L223.7,478.4z"/>
<path class="st32" d="M233.6,477l0.2-0.2l0.1-0.1v0.2L233.6,477"/>
<circle class="st9" cx="199.1" cy="541.2" r="1.8"/>
<path class="st43" d="M283.1,578.9c-2.9,3.2-1.9,4.2-0.3,6.1c1.4,1.7,4,1.2,7.7-1.1c-0.5,0.5-3.2,3.9-3.7,4.3
	c-13.2,11.3-17.8,9.8-17.7,9.2C269.2,596.1,269.1,590.1,283.1,578.9"/>
<path class="st1" d="M160.9,339.3c13.5,2.5,23.3,9.2,32.8,15.8s18.3,12.5,30.3,14.4c0.9,0.1,1.8,0.6,2.4,1.4
	c0.2,0.2,0.3,0.4,0.4,0.6c0.5,1.1,0.5,2.4-0.1,3.5l-15.2,28l-2.8,5.1c-0.8,1.4-2.4,2.2-4,1.9c-13.5-2.5-23.3-9.2-32.8-15.8
	s-18.2-12.5-30.3-14.4c-0.9-0.1-1.8-0.6-2.4-1.4c-0.2-0.2-0.3-0.4-0.4-0.6c-0.5-1.1-0.5-2.4,0.1-3.5l17.5-32.3l0.4-0.9
	C157.7,339.8,159.3,339,160.9,339.3L160.9,339.3z"/>
<path class="st2" d="M217.9,358.9c-8.1-2.5-14.7-7.1-22.2-12.4l-2.4-1.7"/>
<path class="st3" d="M203.9,403.9h-0.3c-13-2.5-22.6-9.2-31.8-15.6c-9.5-6.7-18.6-13-31.1-15c-0.5-0.1-0.9-0.4-1.1-0.8
	c-0.2-0.4-0.2-0.9,0-1.4l18.2-33c0.3-0.5,0.8-0.8,1.3-0.8c0.1,0,0.2,0,0.3,0c13,2.5,22.6,9.2,31.8,15.6c9.6,6.7,18.6,13,31.1,15
	c0.8,0.1,1.4,0.9,1.2,1.7c0,0.2-0.1,0.3-0.2,0.5l-18.2,33C204.9,403.6,204.4,403.9,203.9,403.9z"/>
<path class="st4" d="M159.1,338.7c25.7,4.9,37.5,26.5,63,30.7l-15.5,27.9l-2.8,5.1c-25.7-4.9-37.5-26.5-63-30.7l17.8-32.2
	L159.1,338.7 M159.1,335.7c-1.1,0-2.1,0.6-2.6,1.5l-0.5,0.8l-17.7,32.2c-0.8,1.5-0.3,3.3,1.2,4.1c0.3,0.2,0.6,0.3,1,0.3
	c12.2,2,21.1,8.2,30.5,14.8s19.1,13.4,32.4,15.9c0.2,0,0.4,0.1,0.6,0.1c1.1,0,2.1-0.6,2.6-1.5l2.8-5.1l15.4-27.9
	c0.5-0.9,0.5-1.9,0.1-2.8c-0.4-0.9-1.3-1.5-2.2-1.6c-12.2-2-21.1-8.2-30.5-14.8s-19.1-13.4-32.4-15.9
	C159.5,335.7,159.3,335.7,159.1,335.7L159.1,335.7z"/>
<path class="st5" d="M141.2,371.8l-0.3,0L141.2,371.8z M200.2,395.8l15.4-27.9c2.1,0.6,4.3,1.1,6.5,1.5l-15.4,27.9l-2.8,5.1
	c-2.2-0.4-4.3-1-6.4-1.6L200.2,395.8z"/>
<path class="st6" d="M165.6,340.2l-0.6,1.5l-17.5,31.6c-2.2-0.7-4.4-1.2-6.7-1.6l17.8-32.2l0.5-0.8c3.5,0.7,6.8,1,9.9,2.2
	C167.9,340.7,166.8,340.4,165.6,340.2L165.6,340.2z"/>
<path class="st3" d="M151.9,367.1c18.3,5,30.1,21.8,48.4,26.7l10.9-19.8c-18.3-5-30.1-21.8-48.4-26.7L151.9,367.1z"/>
<path class="st7" d="M154.9,368c16,5.6,27.2,19.9,43.3,25.2c1.2,0.4,2.5-0.1,3.1-1.2l8.4-15.2c0.7-1.3,0.2-2.9-1-3.5
	c-0.1-0.1-0.3-0.1-0.4-0.2c-16-5.6-27.2-19.9-43.3-25.2c-1.2-0.4-2.5,0.1-3.1,1.2l-8.4,15.2c-0.7,1.3-0.2,2.8,1,3.5
	C154.6,367.9,154.7,368,154.9,368L154.9,368z"/>
<circle class="st8" cx="181.5" cy="370.5" r="6.6"/>
<path class="st1" d="M175.7,367.3c1.8-3.2,5.8-4.4,9-2.6c0.7,0.4,1.3,0.9,1.8,1.5c-3.6-0.7-7.1,1.7-7.8,5.3c-0.4,2,0.2,4.1,1.5,5.6
	c-0.7-0.1-1.4-0.4-2-0.7C175.1,374.6,173.9,370.5,175.7,367.3L175.7,367.3z"/>
<circle class="st4" cx="165" cy="353.3" r="1.5"/>
<circle class="st4" cx="197.3" cy="388.5" r="1.5"/>
<circle class="st9" cx="189.3" cy="342.3" r="1.5"/>
</svg>
