<?xml version="1.0" encoding="utf-8"?>
<!-- Generator: Adobe Illustrator 26.0.2, SVG Export Plug-In . SVG Version: 6.00 Build 0)  -->
<svg version="1.1" id="Layer_1" xmlns="http://www.w3.org/2000/svg" xmlns:xlink="http://www.w3.org/1999/xlink" x="0px" y="0px"
	 viewBox="0 0 750 750" style="enable-background:new 0 0 750 750;" xml:space="preserve">
<style type="text/css">
	.st0{opacity:0.5;}
	.st1{fill:#0B1236;}
	.st2{opacity:0.2;}
	.st3{opacity:0.5;fill:#0B1236;}
	.st4{fill:#FFFEF5;stroke:#0B1236;stroke-width:3;stroke-linecap:round;stroke-linejoin:round;stroke-miterlimit:10;}
	.st5{opacity:0.3;}
	.st6{fill:none;stroke:#0B1236;stroke-width:3;stroke-linecap:round;stroke-linejoin:round;stroke-miterlimit:10;}
	.st7{fill:#FFA733;stroke:#0B1236;stroke-width:3;stroke-linecap:round;stroke-linejoin:round;stroke-miterlimit:10;}
	.st8{fill:#C58FFF;stroke:#0B1236;stroke-width:3;stroke-linecap:round;stroke-linejoin:round;stroke-miterlimit:10;}
	.st9{fill:#FFA6A6;stroke:#0B1236;stroke-width:3;stroke-linecap:round;stroke-linejoin:round;stroke-miterlimit:10;}
	.st10{opacity:0.3;fill:#0B1236;}
	.st11{fill:none;stroke:#0B1236;stroke-width:4.2386;stroke-linecap:round;stroke-linejoin:round;stroke-miterlimit:10;}
	.st12{opacity:0.2;fill:#0B1236;}
	.st13{fill:#5EA5EE;stroke:#0B1236;stroke-width:3;stroke-miterlimit:10;}
	.st14{opacity:0.4;fill:#0B1236;}
	.st15{fill-rule:evenodd;clip-rule:evenodd;fill:#E4EBEF;}
	.st16{fill-rule:evenodd;clip-rule:evenodd;fill:#FFFFFF;}
	.st17{fill:#E4EBEF;stroke:#0B1236;stroke-width:3;stroke-linecap:round;stroke-linejoin:round;stroke-miterlimit:10;}
	.st18{fill:#FFFFFF;}
	
		.st19{opacity:0.2;fill-rule:evenodd;clip-rule:evenodd;fill:#41BFCB;stroke:#0B1236;stroke-width:6;stroke-linecap:round;stroke-linejoin:round;stroke-miterlimit:10;}
	.st20{fill:#41BFCB;stroke:#0B1236;stroke-width:3;stroke-linecap:round;stroke-linejoin:round;stroke-miterlimit:10;}
	.st21{fill:#71C2FF;stroke:#0B1236;stroke-width:3;stroke-linecap:round;stroke-linejoin:round;stroke-miterlimit:10;}
	.st22{fill:#FFCB39;}
	.st23{opacity:0.4;fill:#FFFFFF;}
	.st24{font-family:'ProximaSoft-Bold';}
	.st25{font-size:32.0973px;}
	.st26{fill:#FFCB39;stroke:#0B1236;stroke-width:3;stroke-linecap:round;stroke-linejoin:round;stroke-miterlimit:10;}
	.st27{opacity:0.4;}
	.st28{opacity:0.3;fill:#0B1236;stroke:#0B1236;stroke-width:0;stroke-miterlimit:10;}
	.st29{fill:#2F95F3;}
	.st30{opacity:0.6;fill:#0B1236;}
	.st31{opacity:0.3;fill:#2F95F3;}
	.st32{fill:none;stroke:#0B1236;stroke-width:4;stroke-linecap:round;stroke-linejoin:round;stroke-miterlimit:10;}
	.st33{opacity:0.2;fill:#FFFFFF;}
	.st34{opacity:0.8;}
	.st35{fill:#2F95F3;stroke:#0B1236;stroke-width:4;stroke-linecap:round;stroke-linejoin:round;stroke-miterlimit:10;}
	.st36{fill:#41BECA;stroke:#0B1236;stroke-width:4;stroke-linecap:round;stroke-linejoin:round;stroke-miterlimit:10;}
	.st37{fill:#2F95F3;stroke:#2F95F3;stroke-width:4;stroke-linecap:round;stroke-linejoin:round;stroke-miterlimit:10;}
	.st38{fill:#2F96F4;}
	.st39{fill:#FF0000;}
	.st40{fill:#FF921E;}
	.st41{fill:#7AC843;}
	.st42{opacity:0.5;fill:#2F94F2;}
	.st43{opacity:0.6;fill:#6FDDE3;}
	.st44{opacity:0.4;fill:#6FDDE3;}
	.st45{opacity:0.1;}
	
		.st46{opacity:0.2;fill:#2F96F4;stroke:#2F96F4;stroke-width:4.3609;stroke-linecap:round;stroke-linejoin:round;stroke-miterlimit:10;}
	.st47{opacity:0.2;fill:#2F96F4;}
	.st48{fill:#FFA6A6;}
	.st49{fill:#FFFFFF;stroke:#0B1236;stroke-width:3;stroke-linecap:round;stroke-linejoin:round;stroke-miterlimit:10;}
	.st50{opacity:0.1;fill:#0B1236;}
	.st51{fill:#E25C59;stroke:#0B1236;stroke-width:3;stroke-linecap:round;stroke-linejoin:round;stroke-miterlimit:10;}
	.st52{fill:#FFA6A6;stroke:#0B1236;stroke-width:3.5;stroke-linecap:round;stroke-linejoin:round;stroke-miterlimit:10;}
	.st53{opacity:0.1;fill:#FFFFFF;}
	.st54{fill:#E25C59;}
	.st55{fill:none;stroke:#0B1236;stroke-width:3.5;stroke-linecap:round;stroke-linejoin:round;stroke-miterlimit:10;}
	.st56{opacity:0.5;fill:#FFFFFF;stroke:#132254;stroke-width:3;stroke-miterlimit:10;}
	.st57{opacity:0.2;fill:#41BFCB;stroke:#2F96F4;stroke-width:3;stroke-linecap:round;stroke-linejoin:round;stroke-miterlimit:10;}
	.st58{opacity:0.2;fill:none;stroke:#0B1236;stroke-width:3;stroke-linecap:round;stroke-linejoin:round;stroke-miterlimit:10;}
	.st59{opacity:0.05;fill:#FFFFFF;}
</style>
<g>
	<g>
		<g class="st0">
			<path class="st1" d="M671.3,307.4c0.85,3.5,9.77,4.35,19.93,1.89c10.16-2.46,17.72-7.28,16.87-10.78l-1.31-7.53
				c-0.73-3.04-9.57-3.51-19.73-1.05c-10.16,2.45-17.81,6.91-17.08,9.94L671.3,307.4z"/>
		</g>
		<g class="st0">
			<path class="st1" d="M630.89,259.51l-3.49,6.32c-1.45,3.08,4.62,8.99,13.56,13.2c8.94,4.21,17.37,5.13,18.82,2.05l3.49-6.32
				c1.26-2.67-4.97-8.25-13.91-12.46C640.42,258.09,632.15,256.84,630.89,259.51z"/>
		</g>
		<g class="st0">
			<path class="st1" d="M643.07,336.39l2.21,5.72c1.21,2.62,8.36,1.89,15.97-1.63c7.61-3.52,12.79-8.5,11.58-11.12l-2.21-5.72
				c-1.05-2.27-8.07-1.26-15.68,2.26C647.33,329.42,642.01,334.12,643.07,336.39z"/>
		</g>
		<g class="st2">
			<path class="st1" d="M695.8,259.23c7.5,1.15,13.9-0.01,14.29-2.59l1.19-5.41c0.34-2.24-5.46-4.99-12.95-6.14
				c-7.5-1.15-13.85-0.27-14.2,1.97l-1.19,5.41C682.54,255.05,688.3,258.08,695.8,259.23z"/>
		</g>
		<g class="st0">
			<path class="st1" d="M681.66,499.3c6.61-2.42,11.46-5.7,14.61-9.9c2.42-3.22,4.08-7.9,4.48-12.45c4.45-0.75,8.3-2.59,11.42-5.42
				c4.04-2.77,5.94-6.93,6.91-10.95c1.88-5.55,2.06-11,1.95-14.19c-0.31-8.4-3.04-16.87-8.45-16.87c-0.25,0-0.5,0.03-0.75,0.07
				c-0.54,0.01-1.07,0.11-1.6,0.28c-0.02,0-0.04,0.01-0.06,0.01c-0.07,0.01-0.18,0.02-0.28,0.03c-0.03,0-0.07,0-0.1,0.01
				c-0.21,0.02-0.42,0.02-0.62,0.02c-1.89,0-3.3-0.62-4.6-2c-0.19-0.21-0.36-0.42-0.53-0.64c0.73-1.49,1.19-3.14,1.29-4.9
				c0.35-6.27-3.93-11.7-9.85-13.04c-1.32-3.07-2.75-6.21-4.3-9.19c-1.16-2.22-2.53-4.3-4.09-6.2c-0.04-0.05-0.08-0.1-0.13-0.16
				c-1.35-1.63-2.85-3.14-4.49-4.56c1.08-4.7,1.91-10.3,1.66-13.85c-0.01-0.12-0.02-0.23-0.03-0.35c-0.01-0.11-0.01-0.23-0.03-0.34
				c-0.01-0.02-0.01-0.04-0.02-0.06c-0.1-0.76-0.27-1.39-0.55-1.81c-1.64-2.46-8.99-6.53-17.06,7.46c-1.48-0.52-3-1-4.59-1.43
				c-0.31-2.63-0.78-5.1-1.39-7.07c-0.31-1.12-0.73-1.98-1.27-2.49c-2.27-2.13-10.33-4.71-17.05,6.53c-2.6-0.17-5.19-0.29-7.75-0.33
				c2.11-3.3,3.34-7.21,3.34-11.41c0-11.72-9.54-21.26-21.26-21.26c-1.4,0-2.77,0.14-4.1,0.4c-0.21-0.01-0.43-0.02-0.64-0.02
				c-9.62,0-17.77,6.43-20.38,15.22v-88.33c0-0.46-0.02-0.88-0.05-1.29c-0.67-8.46-7.94-15.09-16.56-15.09h-288.4
				c-4.43,0-8.59,1.7-11.72,4.79c-3.15,3.08-4.88,7.2-4.88,11.59v68.82l-18.76,0.09c-3.57-11.67-14.43-20.17-27.25-20.17
				c-0.57,0-1.14,0.02-1.7,0.06c-0.56-0.03-1.13-0.06-1.7-0.06c-12.92,0-23.85,8.64-27.33,20.45l-16.01,0.08l-7.95,0.04
				c-0.58,0-1.12,0.17-1.58,0.45l-6.51,0.03c-1.56,0.01-2.82,1.28-2.82,2.84v72.06l-2.74-0.17c0.59-0.68,1.07-1.47,1.36-2.35
				c0.19-0.55,0.31-1.09,0.34-1.64c0.01-0.06,0.02-0.11,0.03-0.17h0c0.02-0.19,0.02-0.37,0.02-0.54c0,0,0-0.01,0-0.01
				c-0.02-3.76-2.98-6.89-6.74-7.12l-0.56-0.03c-0.01,0-0.02,0-0.04,0l-3.82-0.23l-5.33-0.33l-22.22-1.36l-43.64-2.67
				c-0.26-0.01-0.52,0.02-0.76,0.12L69.46,400l-0.43-0.03l-9.35,3.56c-0.74,0.28-1.03,0.99-0.86,1.6c0.09,0.3,0.31,0.6,0.64,0.79
				c0.01,0.03,0.04,0.04,0.06,0.05l8.87,4.68l1.95,0.12l2.84,1.5c0.23,0.12,0.48,0.19,0.74,0.21l5,0.3c0.02,0,0.03,0.01,0.05,0.01
				l0.74,0.04c-0.1,0.06-0.19,0.12-0.28,0.19c0,0,0,0-0.01,0c-0.07,0.05-0.12,0.1-0.18,0.15c-0.03,0.03-0.06,0.05-0.09,0.08
				c-0.1,0.09-0.19,0.17-0.26,0.26c-0.13,0.14-0.26,0.29-0.36,0.46c-0.07,0.1-0.13,0.22-0.19,0.33c-0.03,0.06-0.08,0.12-0.1,0.19
				c-0.02,0.04-0.03,0.08-0.05,0.12c-0.02,0.05-0.05,0.1-0.06,0.14c-0.03,0.08-0.05,0.17-0.07,0.25c-0.05,0.15-0.11,0.3-0.14,0.46
				c-0.05,0.25-0.07,0.5-0.07,0.76v10.16H64.75c-0.79,0-1.51,0.43-1.9,1.12c-0.12,0.22-0.19,0.47-0.23,0.71h-3.52
				c-0.13,0-0.24,0.07-0.3,0.17c-0.03,0.05-0.05,0.11-0.05,0.17c0,0.06,0.02,0.12,0.05,0.18l1.59,2.75l2.75,4.77
				c0.11,0.19,0.24,0.36,0.38,0.51c0.6,0.67,1.45,1.07,2.37,1.07h0.09c0.03,0,0.05,0.01,0.08,0.01h1.62
				c0.95,1.14,2.36,1.82,3.85,1.82h10.14l3.13,4.51h-1.39c-1.68,0-3.19,0.7-4.27,1.83h-1.38c-0.85,0-1.63,0.26-2.29,0.7
				c-0.44,0.29-0.81,0.67-1.1,1.1c-0.44,0.65-0.7,1.44-0.7,2.29v3.11c0,0.83,0.25,1.6,0.68,2.25H72c-1.38,0-2.64,0.68-3.41,1.83
				h-2.24c-0.42,0-0.81,0.11-1.14,0.3c-0.66,0.38-1.09,1.09-1.13,1.85c-0.02,0.38,0.05,0.78,0.24,1.16l1.47,2.87l1.33,2.61h-5.76
				c-0.28,0-0.55,0.08-0.8,0.19c-0.05,0.02-0.11,0.04-0.16,0.07c-0.08,0.04-0.15,0.11-0.22,0.16c-0.06,0.05-0.13,0.08-0.18,0.14
				c-0.07,0.07-0.12,0.14-0.18,0.22c-0.04,0.05-0.09,0.1-0.13,0.15c0,0.01-0.01,0.02-0.01,0.02c-0.01,0.01-0.02,0.02-0.03,0.03
				c-0.04,0.07-0.06,0.15-0.1,0.22c-0.03,0.07-0.07,0.14-0.09,0.21c-0.02,0.06-0.02,0.13-0.04,0.2c-0.01,0.07-0.02,0.14-0.03,0.22
				h-3.68c-0.06,0-0.1,0.03-0.13,0.08c-0.01,0.01,0,0.03,0,0.04c-0.01,0.04-0.02,0.07-0.01,0.11l4.84,10.1c0,0,0.01,0,0.01,0.01
				c0.01,0.02,0.02,0.04,0.04,0.06c0.02,0.01,0.05,0.02,0.08,0.02h0h0c0,0,0,0,0,0h0.16c0,0,0,0.01,0.01,0.01h3.35l0.34,0.71
				c0.04,0.09,0.11,0.16,0.16,0.24c0.05,0.07,0.08,0.14,0.14,0.2c0.05,0.06,0.11,0.1,0.16,0.15c0.09,0.08,0.17,0.16,0.26,0.22
				c0.06,0.04,0.12,0.06,0.18,0.09c0.1,0.05,0.2,0.11,0.32,0.14c0.18,0.05,0.37,0.08,0.56,0.08h1.3l3.06,7.36l1.28,3.08h-1.73
				c-1.21,0-2.37,0.44-3.3,1.25l-0.66,0.58h-1.68l0,0h0c-0.57,0-1.14,0.16-1.63,0.46c-0.16,0.1-0.32,0.21-0.46,0.34l-8.8,7.73
				c-24.27,2.97-37.93,6.33-37.93,9.87c0,12.18,160.88,22.06,359.34,22.06s359.34-9.88,359.34-22.06
				C734.34,506.59,715.07,502.65,681.66,499.3z M591.34,370.5c1.08,3.63,3.1,6.86,5.79,9.4c-1.96,0.55-3.89,1.15-5.79,1.8V370.5z
				 M549.65,468.22c3.42,9.56,8.78,17.83,15.44,23.87c-12.69-0.49-25.91-0.93-39.59-1.31c-0.43-1.62-1.89-2.81-3.64-2.81h-18.08
				c-1.51,0-2.8,0.89-3.41,2.17c-1.21-0.03-2.43-0.05-3.64-0.08c-0.62-1.23-1.89-2.09-3.37-2.09h-18.08c-1.28,0-2.4,0.64-3.09,1.61
				c-0.54-0.01-1.08-0.02-1.63-0.03l-6.94-21.32H549.65z M290.4,480.47c0.03-0.19,0.07-0.39,0.09-0.58
				c0.06-0.41,0.12-0.87,0.16-1.38c0.01-0.06,0.01-0.13,0.01-0.19c0.03-0.35,0.06-0.69,0.08-1.05c0.01-0.15,0.01-0.31,0.01-0.46
				c0.02-0.39,0.03-0.78,0.03-1.18v-7.41h106.66l-6.69,20.55c-1.31,0-2.63-0.01-3.95-0.01c-0.64-0.5-1.43-0.8-2.31-0.8h-18.08
				c-0.87,0-1.66,0.31-2.3,0.8c-1.51,0-3.01,0.01-4.51,0.01c-0.64-0.5-1.44-0.81-2.32-0.81h-18.08c-0.94,0-1.78,0.35-2.44,0.91
				c-15.57,0.1-30.85,0.26-45.77,0.48c0.31-0.41,0.48-0.83,0.48-1.27l0.31-5.81C291.78,481.62,291.27,481.01,290.4,480.47z"/>
		</g>
	</g>
	<g>
		<path class="st3" d="M205.53,463.34h-5.6l0.69-1.89c0.73-1.99,0.45-4.21-0.77-5.96c-1.21-1.74-3.21-2.79-5.33-2.79h-6.24
			c0.01-0.03,0.02-0.06,0.03-0.08l0.06-0.19c0.05-0.13,0.07-0.28,0.11-0.42c0.04-0.15,0.09-0.29,0.12-0.44
			c0.07-0.36,0.11-0.73,0.11-1.11v-3.11c0-0.41-0.04-0.8-0.12-1.18c-0.03-0.13-0.08-0.25-0.11-0.37c-0.07-0.25-0.13-0.5-0.23-0.73
			c-0.06-0.14-0.14-0.26-0.21-0.4c-0.1-0.2-0.2-0.41-0.33-0.6c-0.09-0.13-0.2-0.25-0.3-0.37c-0.13-0.17-0.26-0.35-0.41-0.5
			c-0.12-0.12-0.25-0.21-0.38-0.32c-0.16-0.14-0.31-0.28-0.49-0.4c-0.14-0.1-0.29-0.17-0.44-0.25c-0.18-0.1-0.36-0.22-0.55-0.3
			c-0.16-0.07-0.33-0.11-0.49-0.16c-0.2-0.07-0.4-0.14-0.61-0.19c-0.17-0.04-0.35-0.04-0.52-0.06c-0.19-0.02-0.38-0.07-0.58-0.07
			l4.67-4.51h17.15c0.77,0,1.46-0.43,1.8-1.11c0.34-0.68,0.27-1.48-0.15-2.04l-5.36-7.66c-1.06-1.54-2.82-2.47-4.71-2.47h-7.63
			v-3.99c0-3.03-2.38-5.58-5.43-5.79l-32.27-2.01c0.59-0.68,1.07-1.47,1.36-2.35c0.19-0.55,0.31-1.09,0.34-1.64
			c0.01-0.06,0.02-0.11,0.03-0.17h0c0.02-0.19,0.02-0.37,0.02-0.54c0,0,0-0.01,0-0.01c-0.02-3.76-2.98-6.89-6.74-7.12l-0.56-0.03
			c-0.01,0-0.02,0-0.04,0l-3.82-0.23l-5.33-0.33l-22.22-1.36l-43.64-2.67c-0.26-0.01-0.52,0.02-0.76,0.12l-9.34,3.56
			c-1.56,0.58-2.41,2.21-1.98,3.82c0.21,0.72,0.7,1.36,1.35,1.78c0.08,0.06,0.17,0.12,0.26,0.16l8.86,4.68
			c0.23,0.12,0.48,0.19,0.74,0.21l5,0.3c0.02,0,0.03,0.01,0.05,0.01l3.64,0.22c-0.15,0.22-0.28,0.44-0.38,0.67
			c-0.06,0.12-0.09,0.21-0.13,0.3c-0.02,0.04-0.04,0.08-0.05,0.12c0,0,0,0,0,0.01c0,0,0,0.01,0,0.01c-0.08,0.2-0.13,0.41-0.18,0.63
			c-0.04,0.13-0.09,0.26-0.12,0.4c-0.07,0.36-0.1,0.72-0.1,1.08v10.17H60.4c-0.79,0-1.51,0.43-1.9,1.12
			c-0.19,0.34-0.28,0.73-0.27,1.1c0,0.19,0.03,0.37,0.08,0.55c0.05,0.18,0.12,0.34,0.22,0.5l4.34,7.53c0.9,1.53,2.56,2.49,4.33,2.49
			h13.56l3.13,4.51h-4.8c-3.26,0-5.92,2.66-5.92,5.92v3.11c0,0.79,0.16,1.55,0.45,2.25h-5.96c-1.44,0-2.74,0.73-3.49,1.95
			c-0.76,1.23-0.82,2.73-0.17,4.02l1.73,3.39l0.64,1.26h-9.35c-0.28,0-0.55,0.07-0.8,0.19c-0.05,0.02-0.11,0.04-0.16,0.07
			c-0.08,0.04-0.15,0.11-0.22,0.16c-0.06,0.05-0.13,0.08-0.18,0.14c-0.07,0.07-0.12,0.14-0.18,0.22c-0.04,0.05-0.09,0.1-0.13,0.15
			c0,0.01-0.01,0.02-0.01,0.02c-0.01,0.01-0.02,0.02-0.03,0.03c-0.04,0.07-0.06,0.15-0.1,0.22c-0.03,0.07-0.07,0.14-0.09,0.21
			c-0.02,0.06-0.02,0.13-0.04,0.2c-0.02,0.1-0.04,0.19-0.05,0.29c0,0.05,0.01,0.1,0.01,0.15c0,0.11,0.01,0.23,0.03,0.34
			c0.01,0.04,0.03,0.08,0.04,0.13c0.03,0.11,0.06,0.22,0.11,0.32l4.85,10.11c0.04,0.09,0.11,0.16,0.16,0.24
			c0.05,0.07,0.08,0.14,0.14,0.2c0.05,0.06,0.11,0.1,0.16,0.15c0.09,0.08,0.17,0.16,0.26,0.22c0.06,0.04,0.12,0.06,0.18,0.09
			c0.1,0.05,0.2,0.11,0.32,0.14c0.18,0.05,0.37,0.08,0.56,0.08h4.97l4.18,10.06l0.15,0.37h-5.39c-1.21,0-2.37,0.44-3.3,1.25
			l-10.19,8.96c-0.02,0.02-0.13,0.11-0.15,0.12c-0.78,0.71-1.04,1.8-0.66,2.78c0.38,0.98,1.3,1.61,2.35,1.61h141.41
			c1.58,0,3.08-0.76,3.97-1.99c0.66-0.86,1.02-1.89,1.02-2.99v-4.75c0-0.29-0.03-0.57-0.08-0.85c-0.02-0.09-0.04-0.17-0.06-0.26
			c-0.05-0.21-0.11-0.42-0.18-0.62c-0.03-0.07-0.05-0.14-0.08-0.2c-0.12-0.28-0.25-0.56-0.42-0.82c-0.03-0.05-0.14-0.2-0.18-0.25
			c-0.12-0.15-0.25-0.3-0.38-0.44c-0.01-0.01-0.02-0.02-0.03-0.03c0,0-0.01,0-0.01-0.01c0,0-0.01-0.01-0.01-0.01
			c-0.2-0.2-0.42-0.37-0.65-0.54c-0.09-0.06-0.18-0.12-0.28-0.18c-0.1-0.07-0.2-0.14-0.31-0.2c-0.1-0.05-0.21-0.09-0.31-0.14
			c-0.04-0.02-0.07-0.03-0.11-0.05c-0.28-0.11-0.56-0.2-0.85-0.26c-0.04-0.01-0.08-0.02-0.13-0.02c-0.3-0.06-0.6-0.09-0.91-0.09
			h-4.67c-0.03-0.25-0.08-0.48-0.12-0.73c-0.04-0.24-0.07-0.49-0.12-0.73c-0.06-0.28-0.14-0.56-0.21-0.83
			c-0.06-0.22-0.11-0.45-0.18-0.67c-0.09-0.29-0.2-0.56-0.31-0.84c-0.08-0.2-0.14-0.41-0.23-0.61c-0.12-0.28-0.26-0.56-0.4-0.83
			c-0.09-0.18-0.17-0.37-0.27-0.54c-0.16-0.29-0.34-0.56-0.51-0.84c-0.1-0.15-0.18-0.31-0.28-0.46c-0.2-0.29-0.42-0.57-0.63-0.85
			c-0.09-0.12-0.18-0.25-0.28-0.37c-0.31-0.37-0.63-0.72-0.97-1.06c-0.03-0.03-0.05-0.06-0.08-0.09c-0.35-0.34-0.71-0.67-1.08-0.98
			h20.63c0.18,0,0.36-0.02,0.53-0.05c0.06-0.01,0.13-0.03,0.19-0.05c0.11-0.03,0.21-0.06,0.31-0.1c0.07-0.03,0.14-0.06,0.21-0.09
			c0.09-0.04,0.17-0.09,0.25-0.13c0.07-0.04,0.14-0.08,0.2-0.13c0.08-0.06,0.15-0.12,0.22-0.18c0.12-0.1,0.23-0.22,0.33-0.34
			c0.04-0.05,0.09-0.1,0.13-0.16c0.06-0.09,0.12-0.18,0.17-0.28c0.03-0.05,0.05-0.09,0.08-0.14c0.06-0.11,0.1-0.23,0.14-0.35
			c0-0.01,0.01-0.02,0.01-0.03c0.01-0.03,0.01-0.06,0.02-0.08c0.03-0.1,0.06-0.2,0.08-0.31c0.03-0.17,0.05-0.34,0.05-0.53v-8.19v0
			C208.46,464.66,207.15,463.34,205.53,463.34z"/>
		<path class="st4" d="M200.99,466.28v8.19c0,0.12-0.01,0.22-0.06,0.32c-0.13,0.46-0.56,0.79-1.05,0.79h-30.77
			c7.79,0,14.1,6.31,14.1,14.1h6.39c0.53,0,1.02,0.13,1.47,0.36c0.29,0.16,0.56,0.36,0.79,0.59c0.13,0.13,0.24,0.29,0.36,0.43
			c0.33,0.52,0.53,1.12,0.53,1.77v4.75c0,0.71-0.23,1.35-0.63,1.87c-0.56,0.78-1.48,1.28-2.52,1.28H48.19
			c-0.63,0-0.94-0.78-0.46-1.21l0.09-0.07l10.22-8.99c0.58-0.5,1.32-0.79,2.09-0.79h8.14l-5.86-14.1h-6.19
			c-0.06,0-0.12-0.03-0.13-0.09l-4.84-10.09c-0.06-0.1,0.01-0.23,0.13-0.23H65.1c-0.85,0-1.63-0.48-2.02-1.24l-3.11-6.08
			c-0.76-1.51,0.33-3.31,2.03-3.31h11.43c-2.26,0-4.09-1.83-4.09-4.08v-3.11c0-2.26,1.83-4.09,4.09-4.09h8.31l-5.67-8.16H61.56
			c-1.14,0-2.17-0.6-2.75-1.58L54.47,426c-0.14-0.23,0.03-0.52,0.29-0.52h18.71v-11.99c0-0.52,0.1-1.02,0.29-1.47
			c0.03-0.09,0.07-0.17,0.12-0.26c0.07-0.19,0.17-0.36,0.29-0.52c0.1-0.17,0.23-0.32,0.36-0.46c0.07-0.09,0.16-0.17,0.26-0.26
			c0.09-0.07,0.17-0.16,0.27-0.23c0.29-0.22,0.6-0.39,0.95-0.53c0.17-0.07,0.36-0.13,0.56-0.17c0.17-0.04,0.33-0.07,0.5-0.1h0.66
			l75.84,4.72l0.48,0.03l23.49,1.47c2.09,0.14,3.72,1.87,3.72,3.96v5.82h9.46c1.28,0,2.48,0.62,3.2,1.67l2.72,3.89l2.65,3.79
			c0.09,0.12,0,0.27-0.14,0.27h-17.88l-4.94,4.77l-3.51,3.4h4.38c2.25,0,4.08,1.83,4.08,4.09v3.11c0,0.46-0.07,0.91-0.23,1.32
			c-0.03,0.09-0.06,0.17-0.09,0.26c-0.62,1.47-2.07,2.49-3.76,2.49h11.71c3.24,0,5.5,3.24,4.38,6.28l-1.6,4.35h8.22
			C200.49,465.17,200.99,465.67,200.99,466.28z"/>
		<g class="st5">
			<path class="st1" d="M57.89,499.53l0.09-0.07l10.22-8.99c0.58-0.5,1.32-0.79,2.09-0.79h8.14l-5.86-14.1h-6.19
				c-0.06,0-0.12-0.03-0.13-0.09l-4.84-10.09c-0.06-0.1,0.01-0.23,0.13-0.23H51.38c-0.12,0-0.19,0.13-0.13,0.23l4.84,10.09
				c0.01,0.06,0.07,0.09,0.13,0.09h6.19l5.86,14.1h-8.14c-0.76,0-1.51,0.29-2.09,0.79l-10.22,8.99l-0.09,0.07
				c-0.48,0.43-0.17,1.21,0.46,1.21h10.16C57.72,500.74,57.42,499.96,57.89,499.53z"/>
			<path class="st1" d="M73.24,463.93l-3.11-6.08c-0.76-1.51,0.33-3.31,2.03-3.31H62c-1.7,0-2.79,1.8-2.03,3.31l3.11,6.08
				c0.39,0.76,1.17,1.24,2.02,1.24h10.16C74.41,465.17,73.63,464.7,73.24,463.93z"/>
			<path class="st1" d="M79.51,450.47v-3.11c0-2.26,1.83-4.09,4.09-4.09h8.31l-5.67-8.16H76.07l5.67,8.16h-8.31
				c-2.26,0-4.09,1.83-4.09,4.09v3.11c0,2.25,1.83,4.08,4.09,4.08H83.6C81.34,454.54,79.51,452.71,79.51,450.47z"/>
			<path class="st1" d="M83.63,413.49c0-0.52,0.1-1.02,0.29-1.47c0.03-0.09,0.07-0.17,0.12-0.26c0.07-0.19,0.17-0.36,0.29-0.52
				c0.1-0.17,0.23-0.32,0.36-0.46c0.07-0.09,0.16-0.17,0.26-0.26c0.09-0.07,0.17-0.16,0.27-0.23c0.17-0.12,0.36-0.21,0.55-0.31
				l-8.03-0.5h-0.66c-0.17,0.03-0.33,0.06-0.5,0.1c-0.2,0.04-0.39,0.1-0.56,0.17c-0.35,0.14-0.66,0.32-0.95,0.53
				c-0.1,0.07-0.19,0.16-0.27,0.23c-0.1,0.09-0.19,0.17-0.26,0.26c-0.13,0.14-0.26,0.29-0.36,0.46c-0.12,0.16-0.22,0.33-0.29,0.52
				c-0.04,0.09-0.09,0.17-0.12,0.26c-0.19,0.45-0.29,0.95-0.29,1.47v11.99h10.16V413.49z"/>
			<path class="st1" d="M58.81,433.52c0.58,0.98,1.61,1.58,2.75,1.58h10.16c-1.14,0-2.17-0.6-2.75-1.58L64.63,426
				c-0.14-0.23,0.03-0.52,0.29-0.52H54.76c-0.26,0-0.43,0.29-0.29,0.52L58.81,433.52z"/>
		</g>
		<g>
			<path class="st6" d="M80.94,489.68H68.27h-8.14c-0.76,0-1.51,0.29-2.09,0.79l-10.22,8.99l-0.09,0.07
				c-0.48,0.43-0.17,1.21,0.46,1.21h3.25h13.51h10.81h13.51H189.6c1.04,0,1.96-0.5,2.52-1.28c0.4-0.52,0.63-1.17,0.63-1.87v-4.75
				c0-0.85-0.35-1.63-0.89-2.2c-0.58-0.59-1.38-0.95-2.26-0.95h-6.39h-17.54H140.5h0.76"/>
			<polyline class="st6" points="87.6,489.68 68.27,489.68 62.41,475.58 122.48,475.58 			"/>
			<path class="st6" d="M138.75,489.68h26.91h17.54c0-7.79-6.31-14.1-14.1-14.1h-11.55"/>
			<path class="st6" d="M114.14,475.58H56.22c-0.06,0-0.11-0.03-0.14-0.09l-4.84-10.1c-0.05-0.1,0.03-0.22,0.14-0.22h22.09"/>
			<path class="st6" d="M157.56,475.58h11.55h30.77c0.6,0,1.11-0.49,1.11-1.11v-8.19c0-0.6-0.5-1.11-1.11-1.11h-8.22h-5.85h-4.56"/>
			<path class="st6" d="M70.92,465.17h-5.81c-0.86,0-1.64-0.48-2.03-1.24l-3.1-6.08c-0.77-1.51,0.33-3.31,2.03-3.31h19.85"/>
			<path class="st6" d="M185.81,465.17h5.85l1.6-4.35c1.12-3.04-1.14-6.28-4.38-6.28h-11.71h-10.51"/>
			<path class="st6" d="M88.97,454.55H73.43c-2.26,0-4.08-1.83-4.08-4.08v-3.11c0-2.26,1.83-4.08,4.08-4.08h19.09"/>
			<line class="st6" x1="138.76" y1="454.55" x2="106.21" y2="454.55"/>
			<path class="st6" d="M166.66,454.54h10.51c2.25,0,4.08-1.83,4.08-4.08v-3.11c0-2.26-1.83-4.09-4.08-4.09h-4.38h-10.24"/>
			<polyline class="st6" points="92.53,443.27 81.74,443.27 76.07,435.1 149.97,435.1 			"/>
			<polyline class="st6" points="162.56,443.27 172.8,443.27 181.25,435.1 169.4,435.1 			"/>
			<path class="st6" d="M169.4,435.1h10.37h1.48h17.88c0.14,0,0.23-0.16,0.14-0.27l-2.65-3.79l-2.72-3.89
				c-0.72-1.05-1.92-1.67-3.2-1.67h-9.46h-27.2h-0.48h-39.43"/>
			<path class="st6" d="M83.78,425.48H73.47H54.76c-0.26,0-0.43,0.29-0.29,0.52l4.33,7.52c0.58,0.98,1.61,1.58,2.75,1.58h14.51
				h28.09h17.42h28.38"/>
			<path class="st6" d="M83.78,425.48H73.47v-8.01v-3.99c0-0.52,0.1-1.02,0.29-1.47c0.03-0.09,0.06-0.17,0.12-0.26
				c0.07-0.19,0.17-0.36,0.29-0.52c0.1-0.17,0.23-0.32,0.36-0.46c0.07-0.09,0.16-0.17,0.26-0.26c0.09-0.07,0.17-0.16,0.27-0.23
				c0.29-0.22,0.6-0.4,0.95-0.53c0.19-0.09,0.37-0.14,0.56-0.17c0.17-0.04,0.33-0.07,0.5-0.1c0.22-0.01,0.43-0.01,0.66,0l75.84,4.72
				l0.48,0.03l23.49,1.47c2.09,0.14,3.72,1.87,3.72,3.96v5.82h-27.2h-0.48h-39.43"/>
			<line class="st6" x1="73.47" y1="417.48" x2="88.88" y2="417.48"/>
			<line class="st6" x1="96.85" y1="482.63" x2="117.28" y2="482.63"/>
		</g>
		<rect x="104.16" y="435.1" class="st7" width="21.21" height="12.47"/>
		<g>
			<path class="st7" d="M145.04,407.16c0,0.11,0,0.24-0.01,0.35c0,0.04,0,0.05-0.01,0.09c-0.04,0.46-0.14,0.9-0.28,1.31
				c-0.75,2.13-2.88,3.61-5.34,3.61l-9.52-0.58l-49.62-3.04l-11.2-0.68l-5.04-0.31l-8.87-4.68c-0.03-0.01-0.05-0.02-0.06-0.05
				c-0.33-0.19-0.55-0.49-0.64-0.79c-0.16-0.61,0.13-1.33,0.86-1.6l9.35-3.56l5.04,0.31l60.82,3.71l9.15,0.56
				C142.71,402,145.03,404.37,145.04,407.16z"/>
			<g>
				<polygon class="st8" points="130.54,401.27 130.24,406.32 130.21,406.74 130.08,408.91 129.89,411.95 80.27,408.91 
					69.07,408.23 69.37,403.27 69.39,402.89 69.39,402.88 69.72,397.55 				"/>
				<path class="st9" d="M145.31,407.17c0,0.11,0,0.23-0.01,0.35c0,0.02,0,0.06-0.03,0.08c-0.01,0.46-0.1,0.89-0.25,1.31
					c-0.74,2.23-2.91,3.76-5.39,3.63l-0.23-0.01l-9.52-0.58l0.19-3.04l0.14-2.16l0.03-0.43l0.3-5.05l9.15,0.56l0.59,0.04
					C143.13,402.04,145.29,404.37,145.31,407.17z"/>
			</g>
		</g>
		<rect x="102.39" y="435.1" class="st10" width="10.61" height="12.47"/>
		<path class="st10" d="M145.31,407.17c0,0.11,0,0.23-0.01,0.35c0,0.02,0,0.06-0.03,0.08c-0.01,0.46-0.1,0.89-0.25,1.31
			c-0.74,2.23-2.91,3.76-5.39,3.63l-0.23-0.01l-9.52-0.58l-49.62-3.04l-11.2-0.68l-5.04-0.31l-8.87-4.68
			c-0.03-0.01-0.05-0.02-0.06-0.05l0.06-1.11l14.23,0.8l60.84,3.44l14.8,0.84L145.31,407.17z"/>
		<path class="st6" d="M138.93,489.68L138.93,489.68h8.23h18.68h17.54h6.39c0.88,0,1.69,0.36,2.26,0.95
			c0.55,0.58,0.89,1.36,0.89,2.2v4.75c0,0.71-0.23,1.35-0.63,1.87c-0.57,0.78-1.49,1.28-2.53,1.28h-42.61H89.44h-13.5H65.13H51.62
			h-3.25c-0.64,0-0.93-0.77-0.46-1.21l0.09-0.08l10.22-8.98c0.58-0.5,1.33-0.79,2.1-0.79h8.13H81.1"/>
		<polyline class="st6" points="87.77,489.69 68.44,489.69 62.58,475.59 122.65,475.59 		"/>
		<path class="st6" d="M157.73,475.58h11.55c7.79,0,14.1,6.31,14.1,14.1h-17.54h-18.68h-8.23"/>
		<path class="st6" d="M114.31,475.59H56.39c-0.06,0-0.11-0.03-0.14-0.09l-4.84-10.1c-0.05-0.1,0.03-0.22,0.14-0.22h22.09"/>
		<path class="st6" d="M181.42,465.18h4.57h5.85h8.22c0.61,0,1.11,0.5,1.11,1.11v8.19c0,0.63-0.5,1.11-1.11,1.11h-30.77h-11.55"/>
		<path class="st6" d="M71.09,465.18h-5.81c-0.86,0-1.64-0.48-2.03-1.24l-3.1-6.08c-0.77-1.51,0.33-3.31,2.03-3.31h19.85"/>
		<path class="st6" d="M166.83,454.55h10.51h11.71c3.24,0,5.5,3.24,4.38,6.28l-1.6,4.35h-5.85"/>
		<path class="st6" d="M89.14,454.55H73.6c-2.26,0-4.08-1.83-4.08-4.08v-3.11c0-2.26,1.83-4.08,4.08-4.08H92.7"/>
		<line class="st6" x1="138.93" y1="454.55" x2="106.37" y2="454.55"/>
		<path class="st11" d="M162.72,443.27h10.24h4.38c2.24,0,4.08,1.83,4.08,4.1v3.11c0,2.24-1.83,4.08-4.08,4.08h-10.51"/>
		<polyline class="st6" points="92.7,443.28 81.91,443.28 76.24,435.11 150.14,435.11 		"/>
		<polyline class="st6" points="169.56,435.11 179.94,435.11 181.42,435.11 172.96,443.27 162.72,443.27 		"/>
		<path class="st6" d="M114.32,425.49h32.84h6.58h0.48h27.2h9.46c1.27,0,2.47,0.62,3.19,1.68l2.72,3.88l2.65,3.79
			c0.09,0.12,0,0.27-0.15,0.27h-17.88h-1.48h-10.38"/>
		<path class="st6" d="M83.95,425.49H73.64H54.93c-0.26,0-0.43,0.29-0.29,0.52l4.33,7.52c0.58,0.98,1.61,1.58,2.75,1.58h14.51h28.09
			h17.42h28.38"/>
		<path class="st6" d="M114.32,425.49h32.84h6.58h0.48h27.2v-5.82c0-2.09-1.63-3.81-3.71-3.96l-23.48-1.47l-0.48-0.03l-6.58-0.41
			l-69.26-4.31c-0.24-0.01-0.45-0.01-0.67,0c-0.18,0.03-0.33,0.06-0.5,0.1c-0.2,0.03-0.38,0.09-0.57,0.18
			c-0.34,0.13-0.66,0.31-0.95,0.53c-0.1,0.08-0.19,0.17-0.27,0.24c-0.1,0.09-0.19,0.18-0.25,0.25c-0.13,0.15-0.26,0.29-0.36,0.46
			c-0.12,0.17-0.22,0.33-0.28,0.52c-0.06,0.09-0.09,0.18-0.12,0.26c-0.19,0.44-0.28,0.95-0.28,1.47v3.99v8h10.31"/>
		<line class="st6" x1="158.97" y1="465.18" x2="125.26" y2="465.18"/>
		<line class="st6" x1="73.64" y1="417.49" x2="89.05" y2="417.49"/>
		<line class="st6" x1="97.02" y1="482.64" x2="117.44" y2="482.64"/>
	</g>
	<g>
		<circle class="st1" cx="234.75" cy="335.92" r="2.03"/>
		<path class="st12" d="M285.51,337.02c-0.59-0.59-1.39-0.92-2.22-0.92c-0.01,0-0.01,0-0.02,0l-8.78,0.05l-101.86,0.48l-7.95,0.04
			c-1.73,0.01-3.14,1.42-3.14,3.15v131.55h-20.16h-0.13c0,16.4,11.88,29.8,26.87,30.74c2.01,1.2,4.36,1.9,6.87,1.9h80.21
			c1.74,0,3.48-0.15,5.18-0.43c0.02,0,0.05-0.01,0.07-0.01c1.34-0.22,2.7-0.54,4.04-0.96c0.02-0.01,0.05-0.02,0.07-0.02
			c0.41-0.13,0.81-0.27,1.22-0.41c0.9-0.32,1.76-0.67,2.58-1.06c2.78-1.27,5.38-2.98,7.7-5.07c0.04-0.04,0.09-0.07,0.13-0.11
			c3.3-2.98,5.97-6.71,7.72-10.79c0.02-0.05,0.05-0.11,0.08-0.18c0.14-0.34,0.3-0.73,0.45-1.14c0.11-0.29,0.22-0.59,0.32-0.89
			c0.06-0.17,0.12-0.33,0.16-0.49c0.11-0.33,0.22-0.68,0.32-1.05c0,0,0,0,0-0.01c0.02-0.07,0.05-0.17,0.08-0.3
			c0.09-0.31,0.18-0.66,0.27-1.03l0.06-0.27c0.01-0.03,0.01-0.06,0.02-0.09c0.07-0.32,0.14-0.65,0.2-0.98l0.05-0.25
			c0.01-0.03,0.01-0.06,0.02-0.09c0.07-0.41,0.14-0.81,0.19-1.21c0.06-0.41,0.12-0.87,0.16-1.38c0.01-0.06,0.01-0.13,0.01-0.19
			c0.03-0.35,0.06-0.69,0.08-1.05c0.01-0.15,0.01-0.3,0.01-0.46c0.02-0.39,0.03-0.78,0.03-1.18V339.25
			C286.44,338.41,286.1,337.61,285.51,337.02z"/>
		<path class="st13" d="M158.26,391.7h15.94c1.22,0,2.22-1,2.22-2.22v-15.94c0-1.23-1-2.22-2.22-2.22h-15.94
			c-1.23,0-2.22,0.99-2.22,2.22v15.94C156.03,390.7,157.03,391.7,158.26,391.7"/>
		<path class="st13" d="M158.26,422.15h15.94c1.22,0,2.22-0.99,2.22-2.22v-15.94c0-1.23-1-2.22-2.22-2.22h-15.94
			c-1.23,0-2.22,0.99-2.22,2.22v15.94C156.03,421.15,157.03,422.15,158.26,422.15"/>
		<path class="st14" d="M158.26,391.7h15.94c1.22,0,2.22-1,2.22-2.22v-15.94c0-1.23-1-2.22-2.22-2.22h-15.94
			c-1.23,0-2.22,0.99-2.22,2.22v15.94C156.03,390.7,157.03,391.7,158.26,391.7"/>
		<path class="st14" d="M158.26,422.15h15.94c1.22,0,2.22-0.99,2.22-2.22v-15.94c0-1.23-1-2.22-2.22-2.22h-15.94
			c-1.23,0-2.22,0.99-2.22,2.22v15.94C156.03,421.15,157.03,422.15,158.26,422.15"/>
		<g>
			<path class="st15" d="M166.9,502.51c-6.51,0-11.8-5.27-11.8-11.75V339.98c0-0.83,0.67-1.5,1.49-1.5l109.81-0.52
				c0,0,8.78-0.05,8.78-0.05c0.4,0,0.78,0.16,1.06,0.44c0.28,0.28,0.44,0.66,0.44,1.06v133.65c0,0.39-0.01,0.78-0.03,1.17
				c0,0.09,0,0.25-0.01,0.4c-0.02,0.32-0.04,0.68-0.08,1.04c0,0.05,0,0.1,0,0.13c-0.04,0.44-0.09,0.89-0.16,1.33
				c-0.04,0.33-0.1,0.72-0.17,1.11l-0.06,0.34c-0.06,0.32-0.13,0.63-0.19,0.94l-0.08,0.33c-0.08,0.36-0.17,0.68-0.26,1.01
				c-0.02,0.08-0.04,0.16-0.06,0.24c-0.1,0.37-0.21,0.71-0.32,1.04c-0.04,0.14-0.09,0.29-0.15,0.44c-0.09,0.26-0.2,0.56-0.31,0.87
				c-0.12,0.34-0.28,0.73-0.44,1.1c0,0-0.04,0.09-0.04,0.09c-1.66,3.88-4.19,7.42-7.33,10.25c-0.03,0.03-0.06,0.05-0.09,0.07
				c-2.2,1.99-4.68,3.62-7.36,4.85c-0.75,0.36-1.56,0.69-2.39,0.98c-0.41,0.14-0.8,0.27-1.2,0.4c-0.01,0-0.04,0.01-0.04,0.01
				c-1.27,0.4-2.55,0.7-3.81,0.91c-0.02,0-0.04,0.01-0.06,0.01c-1.62,0.27-3.28,0.41-4.93,0.41H166.9z"/>
			<path class="st1" d="M275.19,339.41v133.65c0,0.36-0.01,0.73-0.03,1.09c0,0.12,0,0.24-0.01,0.35c-0.02,0.36-0.05,0.72-0.08,1.08
				v0.08c-0.04,0.41-0.08,0.82-0.15,1.22c-0.05,0.37-0.11,0.75-0.17,1.12c-0.02,0.09-0.04,0.19-0.05,0.29
				c-0.05,0.29-0.12,0.59-0.18,0.88c-0.03,0.11-0.05,0.23-0.08,0.35c-0.07,0.33-0.16,0.65-0.26,0.97c-0.01,0.07-0.04,0.14-0.05,0.21
				c-0.09,0.33-0.19,0.66-0.3,0.98c-0.03,0.11-0.06,0.22-0.11,0.34c-0.1,0.29-0.2,0.57-0.31,0.86c-0.13,0.36-0.27,0.71-0.42,1.06
				c-0.01,0.03-0.03,0.05-0.04,0.08c-1.6,3.73-3.98,7.04-6.95,9.73c-0.01,0-0.02,0.01-0.03,0.02c-2.08,1.89-4.45,3.47-7.04,4.65
				c-0.73,0.35-1.49,0.66-2.26,0.93c-0.39,0.14-0.78,0.26-1.17,0.39c-0.01,0-0.02,0-0.03,0.01c-1.17,0.36-2.37,0.66-3.6,0.86h-0.01
				c-1.54,0.26-3.12,0.4-4.74,0.4H166.9c-5.68,0-10.3-4.59-10.3-10.25V339.98l7.95-0.04l101.86-0.48L275.19,339.41 M275.19,336.41
				c-0.01,0-0.01,0-0.02,0l-8.78,0.05l-101.86,0.48l-7.95,0.04c-1.65,0.01-2.99,1.35-2.99,3v150.79c0,7.3,5.97,13.25,13.3,13.25
				h80.21c1.73,0,3.46-0.14,5.15-0.43c0.02,0,0.05-0.01,0.07-0.01c1.33-0.22,2.68-0.54,4.02-0.96c0.02-0.01,0.05-0.01,0.07-0.02
				c0.41-0.13,0.81-0.27,1.22-0.41c0.89-0.31,1.75-0.67,2.56-1.05c2.77-1.27,5.36-2.97,7.67-5.05c0.04-0.03,0.09-0.07,0.13-0.11
				c3.28-2.96,5.94-6.68,7.69-10.74c0.02-0.05,0.05-0.11,0.07-0.17c0.14-0.34,0.3-0.73,0.45-1.13c0.11-0.29,0.22-0.58,0.32-0.89
				c0.06-0.17,0.12-0.33,0.16-0.49c0.11-0.33,0.22-0.68,0.32-1.05c0,0,0,0,0-0.01c0.02-0.07,0.05-0.17,0.08-0.3
				c0.09-0.31,0.18-0.65,0.27-1.02c0.02-0.09,0.04-0.18,0.06-0.27c0.01-0.03,0.01-0.06,0.02-0.09c0.07-0.32,0.14-0.65,0.2-0.97
				l0.05-0.26c0.01-0.03,0.01-0.06,0.02-0.08c0.07-0.41,0.14-0.81,0.19-1.21c0.06-0.41,0.12-0.86,0.16-1.37
				c0.01-0.06,0.01-0.13,0.01-0.19c0.03-0.35,0.06-0.69,0.08-1.05c0.01-0.15,0.01-0.3,0.01-0.46c0.02-0.39,0.03-0.78,0.03-1.17
				V339.41c0-0.8-0.32-1.56-0.88-2.13C276.74,336.73,275.98,336.41,275.19,336.41L275.19,336.41z"/>
		</g>
		<g>
			<path class="st16" d="M174.84,501.01c-5.68,0-10.29-4.59-10.29-10.25V339.94l-7.95,0.04v150.79c0,5.66,4.62,10.25,10.3,10.25
				H174.84z"/>
		</g>
		<path class="st12" d="M275.19,473.07V339.41l-14.48,0.08v132.72c0,3.93-0.83,7.85-2.3,11.24c-6.29,14.5-21.41,14.46-27.33-0.2
			c-1.54-3.81-2.35-8.04-2.25-12.48c0.01-0.34-0.26-0.62-0.59-0.62H156.6v20.61c0,5.66,4.62,10.25,10.3,10.25h80.21
			c1.61,0,3.19-0.14,4.74-0.4h0.01c1.23-0.21,2.43-0.5,3.6-0.86c0.01-0.01,0.02-0.01,0.03-0.01c0.39-0.13,0.78-0.26,1.17-0.39
			c0.77-0.28,1.52-0.59,2.26-0.93c2.58-1.2,4.95-2.77,7.04-4.65c0.01-0.01,0.02-0.02,0.03-0.02c2.97-2.69,5.36-6,6.95-9.73
			c0.01-0.03,0.03-0.05,0.04-0.08c0.15-0.35,0.29-0.7,0.42-1.06c0.11-0.28,0.21-0.57,0.31-0.86c0.05-0.12,0.08-0.23,0.11-0.34
			c0.11-0.32,0.21-0.65,0.3-0.98c0.02-0.07,0.05-0.14,0.05-0.21c0.09-0.32,0.18-0.64,0.26-0.97c0.03-0.12,0.05-0.24,0.08-0.35
			c0.06-0.29,0.13-0.59,0.18-0.88c0.02-0.1,0.04-0.2,0.05-0.29c0.06-0.37,0.13-0.75,0.17-1.12c0.06-0.4,0.11-0.81,0.15-1.22v-0.08
			c0.04-0.36,0.06-0.71,0.08-1.08c0.01-0.11,0.01-0.23,0.01-0.35C275.18,473.8,275.19,473.43,275.19,473.07z"/>
		<path class="st17" d="M133.29,471.53h88.15c0,17.01,12.78,30.8,28.55,30.8h-88.27c-15.77,0-28.55-13.79-28.55-30.8H133.29z"/>
		<path class="st12" d="M235.33,502.32c-15.77,0-28.55-13.79-28.55-30.8h14.66c0,17.01,12.78,30.8,28.56,30.8H235.33z"/>
		<path class="st18" d="M163.29,502.32c-15.77,0-28.55-13.79-28.55-30.8h14.66c0,17.01,12.78,30.8,28.56,30.8H163.29z"/>
		<line class="st19" x1="207.52" y1="459.85" x2="256.97" y2="459.85"/>
		<line class="st19" x1="207.52" y1="446.64" x2="256.97" y2="446.64"/>
		<line class="st19" x1="207.52" y1="433.42" x2="256.97" y2="433.42"/>
		<line class="st19" x1="172.59" y1="446.64" x2="194.07" y2="446.64"/>
		<line class="st19" x1="172.59" y1="459.85" x2="194.07" y2="459.85"/>
		<line class="st19" x1="207.52" y1="422.31" x2="233.51" y2="422.31"/>
		<path class="st6" d="M133.29,471.53h88.15c0,17.01,12.78,30.8,28.55,30.8h-88.27c-15.77,0-28.55-13.79-28.55-30.8H133.29z"/>
		<line class="st20" x1="174.84" y1="493.97" x2="208.07" y2="493.97"/>
		<line class="st21" x1="134.74" y1="480.56" x2="167.13" y2="480.56"/>
		<circle class="st1" cx="172.87" cy="480.56" r="1.43"/>
		<circle class="st1" cx="169.33" cy="493.97" r="1.43"/>
		<g class="st2">
			<path class="st1" d="M219.36,371.74c-14.97,0-27.15-12.18-27.15-27.15s12.18-27.15,27.15-27.15s27.15,12.18,27.15,27.15
				S234.34,371.74,219.36,371.74z"/>
			<path class="st1" d="M219.36,318.94c14.17,0,25.65,11.48,25.65,25.65s-11.48,25.65-25.65,25.65c-14.17,0-25.65-11.48-25.65-25.65
				S205.2,318.94,219.36,318.94 M219.36,315.94c-15.8,0-28.65,12.85-28.65,28.65s12.85,28.65,28.65,28.65s28.65-12.85,28.65-28.65
				S235.16,315.94,219.36,315.94L219.36,315.94z"/>
		</g>
		<g>
			<path class="st22" d="M215.97,371.74c-14.97,0-27.15-12.18-27.15-27.15s12.18-27.15,27.15-27.15s27.15,12.18,27.15,27.15
				S230.94,371.74,215.97,371.74z"/>
			<path class="st1" d="M215.97,318.94c14.17,0,25.65,11.48,25.65,25.65s-11.48,25.65-25.65,25.65c-14.17,0-25.65-11.48-25.65-25.65
				S201.8,318.94,215.97,318.94 M215.97,315.94c-15.8,0-28.65,12.85-28.65,28.65s12.85,28.65,28.65,28.65s28.65-12.85,28.65-28.65
				S231.76,315.94,215.97,315.94L215.97,315.94z"/>
		</g>
		<path class="st23" d="M215.97,370.24c0.71,0,1.42-0.04,2.12-0.09c-13.18-1.08-23.54-12.1-23.54-25.56
			c0-13.45,10.36-24.48,23.54-25.56c-0.7-0.06-1.4-0.09-2.12-0.09c-14.17,0-25.65,11.48-25.65,25.65
			C190.31,358.76,201.8,370.24,215.97,370.24z"/>
		<path class="st12" d="M215.97,370.24c-0.71,0-1.42-0.04-2.12-0.09c13.18-1.08,23.54-12.1,23.54-25.56
			c0-13.45-10.36-24.48-23.54-25.56c0.7-0.06,1.4-0.09,2.12-0.09c14.17,0,25.65,11.48,25.65,25.65
			C241.62,358.76,230.13,370.24,215.97,370.24z"/>
		<g>
			<text transform="matrix(1 0 0 1 181.8342 405.8894)" class="st1 st24 st25">TAX</text>
		</g>
		<g>
			<path class="st26" d="M291.44,518.9c0.03,2.74,6.52,4.89,14.48,4.8c7.97-0.09,14.4-2.4,14.36-5.14l0.31-5.81l-28.84,0.34
				L291.44,518.9z"/>
			<path class="st14" d="M291.44,518.9c0.03,2.74,6.52,4.89,14.48,4.8c7.97-0.09,14.4-2.4,14.36-5.14l0.31-5.81l-28.84,0.34
				L291.44,518.9z"/>
			
				<ellipse transform="matrix(0.9999 -0.0119 0.0119 0.9999 -6.0885 3.6838)" class="st26" cx="306.17" cy="512.92" rx="14.42" ry="4.31"/>
			<path class="st12" d="M304.89,513.09c-0.02-1.73,3.39-3.26,8.32-4.01c-2.1-0.33-4.52-0.5-7.09-0.47
				c-7.97,0.09-14.4,2.1-14.37,4.48c0.03,2.38,6.51,4.23,14.47,4.14c2.17-0.03,4.21-0.2,6.05-0.47
				C307.89,516.07,304.91,514.7,304.89,513.09z"/>
		</g>
		<g>
			<path class="st26" d="M277.06,516.01c1.15,2.49,7.95,1.8,15.18-1.55c7.23-3.34,12.16-8.08,11-10.57l-2.1-5.43l-26.18,12.11
				L277.06,516.01z"/>
			<path class="st14" d="M277.06,516.01c1.15,2.49,7.95,1.8,15.18-1.55c7.23-3.34,12.16-8.08,11-10.57l-2.1-5.43l-26.18,12.11
				L277.06,516.01z"/>
			
				<ellipse transform="matrix(0.9076 -0.4199 0.4199 0.9076 -185.2249 167.5842)" class="st26" cx="288.05" cy="504.52" rx="14.42" ry="4.31"/>
		</g>
		<g>
			<path class="st26" d="M242.05,504.44c0.03,2.74,6.52,4.89,14.48,4.8c7.97-0.09,14.4-2.4,14.36-5.14l0.31-5.81l-28.84,0.34
				L242.05,504.44z"/>
			<path class="st14" d="M242.18,502.97c0.03,2.74,6.52,4.89,14.48,4.8c7.97-0.09,14.4-2.4,14.36-5.14l0.31-5.81l-28.84,0.34
				L242.18,502.97z"/>
			
				<ellipse transform="matrix(0.9999 -0.0119 0.0119 0.9999 -5.9022 3.0957)" class="st26" cx="256.9" cy="496.98" rx="14.42" ry="4.31"/>
			<g class="st2">
				<path class="st1" d="M257.71,500.17c-0.42,0.01-0.84,0.05-1.26,0.02c-9.81-0.54-14.13-2.31-14.53-2.92
					c0.3-0.91,5.05-3.25,14.45-3.36c0.23,0,0.45-0.01,0.68-0.01c0.52,0,1.03,0.01,1.52,0.02c-2.66,0.89-4.27,2.06-4.26,3.33
					C254.31,498.36,255.59,499.38,257.71,500.17z"/>
			</g>
		</g>
		<g>
			<g>
				<path class="st22" d="M250.26,489.94l-1.78-4.45l-15.53,7.41c0.15,0.25,0.3,0.51,0.46,0.76c0.31,0.47,0.4,0.6,0.74,0.99
					c1.46,1.66,3.28,2.78,5.1,4.01c0.28,0.19,0.47,0.45,0.58,0.73c0.49-0.2,0.97-0.4,1.46-0.63
					C247.22,495.92,251.23,491.98,250.26,489.94z"/>
				<path class="st1" d="M251.7,489.31l-1.77-4.41c-0.16-0.4-0.48-0.72-0.89-0.88c-0.41-0.16-0.86-0.14-1.25,0.05l-15.53,7.41
					c-0.4,0.19-0.7,0.54-0.83,0.97c-0.13,0.42-0.07,0.88,0.16,1.26l0.11,0.18c0.01,0.02,0.03,0.04,0.04,0.07
					c0.19-0.02,0.39,0.03,0.54,0.17c0.63,0.6,1.31,1.12,1.95,1.71c0.18,0.16,0.21,0.4,0.14,0.62c0.64,0.64,1.3,1.26,1.97,1.86
					c0.56,0.49,1.13,0.97,1.7,1.44l0.34,0.24c0.01,0.03,0.04,0.06,0.05,0.09c0.14,0.11,0.28,0.22,0.42,0.33
					c0.07,0.06,0.15,0.12,0.22,0.17c0.03,0.02,0.04,0.03,0.06,0.05c0.01,0.01,0.01,0.01,0.03,0.02c0.11,0.08,0.23,0.17,0.34,0.25
					c0.11,0.02,0.22,0.05,0.33,0.05c0.2,0,0.41-0.04,0.61-0.12l0.28-0.12c0.41-0.17,0.83-0.34,1.25-0.55
					C247.79,497.39,253.3,492.82,251.7,489.31z M240.62,497.33c-0.1,0.05-0.21,0.1-0.31,0.14c-0.06-0.04-0.11-0.08-0.17-0.12
					l-0.69-0.46c-1.53-1.02-2.98-1.99-4.12-3.29c-0.02-0.02-0.04-0.05-0.06-0.07l12.36-5.9l1.16,2.89c0.01,0.03,0.02,0.04,0.03,0.07
					C248.94,491.31,246.6,494.47,240.62,497.33z"/>
			</g>
			<g class="st27">
				<path class="st1" d="M250.26,489.94l-1.78-4.45l-17.14,7.48c0.07,0.12,0.36,0.55,0.65,1.01c0.11,0.03,0.21,0.07,0.29,0.15
					c0.63,0.6,1.31,1.12,1.95,1.71c0.18,0.16,0.21,0.4,0.14,0.62c0.64,0.64,1.3,1.26,1.97,1.86c0.55,0.49,1.12,0.96,1.69,1.43
					c0.31,0.16,1.68-0.64,1.8-0.36c0.49-0.2,0.97-0.4,1.46-0.63C247.22,495.92,251.23,491.98,250.26,489.94z"/>
			</g>
			<g>
				<path class="st22" d="M247.79,485.94c-0.84-1.77-6.33-0.91-12.25,1.91c-1.84,0.88-4.41,2.13-5.81,3.1
					c0.24,0.37,1.14,1.74,1.99,3.01c0.2-0.03,0.41,0.02,0.56,0.16c0.63,0.6,1.31,1.12,1.95,1.71c0.04,0.04,0.07,0.09,0.1,0.14
					c1.35-0.48,3.11-1.15,4.28-1.71C244.52,491.43,248.64,487.71,247.79,485.94z"/>
				<path class="st1" d="M249.21,485.26C249.21,485.26,249.21,485.26,249.21,485.26c-1.74-3.65-9.84-0.98-14.35,1.17
					c-2.09,1-4.4,2.14-5.83,3.1c0.59,1.62,1.39,3.16,2.34,4.62c0.01-0.01,0.01-0.02,0.02-0.03c0.23-0.26,0.65-0.23,0.89,0
					c0.63,0.6,1.31,1.12,1.95,1.71c0.17,0.16,0.2,0.39,0.15,0.6c0.3,0.29,0.59,0.59,0.89,0.88c1.29-0.47,2.88-1.08,4.01-1.62
					C243.79,493.53,250.95,488.91,249.21,485.26z M237.92,492.84c-1.01,0.48-2.62,1.11-3.98,1.59c-0.55-0.8-1.36-2.01-2-2.99
					c1.47-0.83,3.35-1.72,4.28-2.17c5.34-2.55,8.98-2.88,10.04-2.6C245.81,487.66,243.25,490.29,237.92,492.84z"/>
				<path class="st1" d="M246.48,486.77h0.01H246.48z"/>
			</g>
			<g class="st5">
				<g>
					<path class="st18" d="M232.61,492.36c0.25,0.44,0.51,0.88,0.79,1.3c0.17,0.26,0.27,0.41,0.39,0.56
						c1.1-0.33,2.36-0.76,3.84-1.34c0.25-0.1,0.47-0.23,0.71-0.34c-1.4,0.11-2.38-0.13-2.68-0.76c-0.34-0.71,0.27-1.79,1.54-2.99
						c-0.28,0.12-0.57,0.25-0.86,0.38c-0.13,0.06-0.25,0.12-0.38,0.18c-1.55,0.74-2.8,1.47-3.81,2.17
						C232.29,491.8,232.45,492.08,232.61,492.36z"/>
				</g>
			</g>
		</g>
		<path class="st12" d="M233.99,487.62c1.08-0.66,2.33-0.99,3.53-1.36c3-0.93,6.58-2.39,9.72-1.22c2.11,0.79,2.94,3.12,3.38,5.16
			c0.1,0.48,0.2,0.96,0.33,1.43c0.04,0.15,0.07,0.21,0.1,0.25c0.16,0.01,0.32-0.01,0.47-0.02c0.91-0.08,1.81-0.33,2.72-0.43
			c0.82-1.32,1.11-2.63,0.57-3.81l-1.77-4.41c-0.16-0.4-0.48-0.72-0.89-0.88c-0.34-0.13-0.72-0.12-1.06,0
			c-2.93-1.58-9.3,0.59-13.12,2.41c-2.09,1-4.4,2.14-5.83,3.1c0.12,0.34,0.26,0.68,0.41,1.02
			C232.96,488.38,233.44,487.96,233.99,487.62z"/>
		<circle class="st1" cx="172.87" cy="480.56" r="1.67"/>
		<circle class="st1" cx="169.33" cy="493.87" r="1.67"/>
		<circle class="st1" cx="195.14" cy="339.24" r="2.03"/>
		<circle class="st1" cx="237.3" cy="346.12" r="2.03"/>
		<circle class="st1" cx="237.3" cy="346.12" r="1.67"/>
		<g>
			<path class="st26" d="M263.43,498.99c0.03,2.74,6.52,4.89,14.48,4.8c7.97-0.09,14.4-2.4,14.36-5.14l0.31-5.81l-28.84,0.34
				L263.43,498.99z"/>
			<path class="st14" d="M263.43,498.99c0.03,2.74,6.52,4.89,14.48,4.8c7.97-0.09,14.4-2.4,14.36-5.14l0.31-5.81l-28.84,0.34
				L263.43,498.99z"/>
			
				<ellipse transform="matrix(0.9999 -0.0119 0.0119 0.9999 -5.8533 3.3487)" class="st26" cx="278.16" cy="493.01" rx="14.42" ry="4.31"/>
			<g class="st2">
				<path class="st1" d="M279.13,495.87c-0.43,0.01-0.87,0.04-1.31,0.02c-9.93-0.37-13.58-1.77-13.92-2.6
					c0.43-0.1,5.01-3.54,13.84-3.93c0.23-0.01,0.47-0.01,0.7-0.01c0.54,0,1.07,0.01,1.58,0.02c-2.77,0.93-4.44,2.15-4.43,3.46
					C275.6,493.99,276.93,495.05,279.13,495.87z"/>
			</g>
			<g class="st2">
				<path class="st18" d="M285.72,506.03c-0.2-0.52-0.14-1.05,0.2-1.72c-0.84,0.25-4.41,0.78-4.76,0.71
					c-3.79,2.49-4.99,4.65-4.92,4.95c0.68,0.53,5.35,0.56,11.01-1.99c0.41-0.18,2.33-1.03,2.73-1.19
					C287.63,506.81,286.14,507.11,285.72,506.03z"/>
			</g>
		</g>
		<g>
			<path class="st26" d="M258.28,485.7c0.03,2.74,6.52,4.89,14.48,4.8c7.97-0.09,14.4-2.4,14.36-5.14l0.31-5.81l-28.84,0.34
				L258.28,485.7z"/>
			<path class="st14" d="M258.28,485.7c0.03,2.74,6.52,4.89,14.48,4.8c7.97-0.09,14.4-2.4,14.36-5.14l0.31-5.81l-28.84,0.34
				L258.28,485.7z"/>
			
				<ellipse transform="matrix(0.9999 -0.0119 0.0119 0.9999 -5.6953 3.2864)" class="st26" cx="273.01" cy="479.71" rx="14.42" ry="4.31"/>
			<g class="st5">
				<path class="st18" d="M274.47,476.85c-2.73,0.31-2.77,1.37-2.76,2.66c0.01,1.14,1.31,2.17,3.47,2.98
					c-0.43,0.01-1.42,0.1-1.86,0.1c-9.64,0.01-12.36-1.87-13.37-2.66C260.54,479.54,263.1,476.69,274.47,476.85"/>
			</g>
		</g>
		<path class="st1" d="M203.07,347.91h5.23v2.75h-10.68l5.91-9.73h-4.92v-2.75h10.33L203.07,347.91z"/>
		<path class="st1" d="M218.48,348.48h-4.63l-0.74,2.17h-3.46l4.75-12.48h3.54l4.75,12.48h-3.46L218.48,348.48z M217.62,346.02
			l-1.46-4.16l-1.46,4.16H217.62z"/>
		<path class="st1" d="M234.82,350.65h-4.04l-3.1-4.8v4.8h-3.25v-12.48h5.05c0.7,0,1.3,0.1,1.82,0.31c0.52,0.2,0.95,0.48,1.28,0.84
			c0.34,0.35,0.59,0.76,0.76,1.23c0.17,0.46,0.26,0.96,0.26,1.49c0,0.95-0.23,1.72-0.69,2.31c-0.46,0.59-1.13,0.99-2.03,1.2
			L234.82,350.65z M227.69,343.75h0.61c0.64,0,1.13-0.13,1.47-0.4s0.51-0.65,0.51-1.14c0-0.5-0.17-0.88-0.51-1.14
			s-0.83-0.4-1.47-0.4h-0.61V343.75z"/>
	</g>
	<polygon class="st28" points="469.29,498.74 393.32,498.74 404,465.92 458.61,465.92 	"/>
	<g>
		<g>
			<path class="st29" d="M388.2,494.77c-0.64,0-1.24-0.31-1.62-0.83c-0.38-0.52-0.48-1.18-0.28-1.79l10.68-32.82
				c0.27-0.82,1.04-1.38,1.9-1.38h54.61c0.87,0,1.63,0.56,1.9,1.38l10.68,32.82c0.2,0.61,0.09,1.28-0.28,1.79
				c-0.38,0.52-0.98,0.83-1.62,0.83H388.2z"/>
			<path class="st1" d="M453.49,459.95l10.68,32.82H388.2l10.68-32.82H453.49 M453.49,455.95h-54.61c-1.73,0-3.27,1.11-3.8,2.76
				l-10.68,32.82c-0.4,1.22-0.19,2.55,0.57,3.59c0.75,1.04,1.96,1.65,3.24,1.65h75.97c1.28,0,2.48-0.61,3.24-1.65
				c0.75-1.04,0.96-2.37,0.57-3.59l-10.68-32.82C456.76,457.07,455.22,455.95,453.49,455.95L453.49,455.95z"/>
		</g>
		<polygon class="st30" points="464.17,492.77 388.2,492.77 398.88,459.95 453.49,459.95 		"/>
		<polygon class="st31" points="398.88,459.95 388.2,492.77 405.19,492.77 415.87,459.95 		"/>
		<polygon class="st12" points="454.64,459.95 465.32,492.77 448.33,492.77 437.65,459.95 		"/>
		<circle class="st1" cx="443.71" cy="477.85" r="1.71"/>
		<g>
			<g>
				<g>
					<path class="st29" d="M334.86,495.85c-1.1,0-2-0.9-2-2v-4.84c0-1.1,0.9-2,2-2h18.08c1.1,0,2,0.9,2,2v4.84c0,1.1-0.9,2-2,2
						H334.86z"/>
					<path class="st1" d="M352.95,489.01v4.84h-18.08v-4.84H352.95 M352.95,485.01h-18.08c-2.21,0-4,1.79-4,4v4.84
						c0,2.21,1.79,4,4,4h18.08c2.21,0,4-1.79,4-4v-4.84C356.95,486.8,355.15,485.01,352.95,485.01L352.95,485.01z"/>
				</g>
				<g>
					<path class="st29" d="M362.07,495.85c-1.1,0-2-0.9-2-2v-4.84c0-1.1,0.9-2,2-2h18.08c1.1,0,2,0.9,2,2v4.84c0,1.1-0.9,2-2,2
						H362.07z"/>
					<path class="st1" d="M380.16,489.01v4.84h-18.08v-4.84H380.16 M380.16,485.01h-18.08c-2.21,0-4,1.79-4,4v4.84
						c0,2.21,1.79,4,4,4h18.08c2.21,0,4-1.79,4-4v-4.84C384.16,486.8,382.37,485.01,380.16,485.01L380.16,485.01z"/>
				</g>
				<g>
					<path class="st29" d="M389.29,495.85c-1.1,0-2-0.9-2-2v-4.84c0-1.1,0.9-2,2-2h18.08c1.1,0,2,0.9,2,2v4.84c0,1.1-0.9,2-2,2
						H389.29z"/>
					<path class="st1" d="M407.37,489.01v4.84h-18.08v-4.84H407.37 M407.37,485.01h-18.08c-2.21,0-4,1.79-4,4v4.84
						c0,2.21,1.79,4,4,4h18.08c2.21,0,4-1.79,4-4v-4.84C411.37,486.8,409.58,485.01,407.37,485.01L407.37,485.01z"/>
				</g>
				<g>
					<path class="st29" d="M416.5,495.85c-1.1,0-2-0.9-2-2v-4.84c0-1.1,0.9-2,2-2h18.08c1.1,0,2,0.9,2,2v4.84c0,1.1-0.9,2-2,2H416.5
						z"/>
					<path class="st1" d="M434.58,489.01v4.84H416.5v-4.84H434.58 M434.58,485.01H416.5c-2.21,0-4,1.79-4,4v4.84c0,2.21,1.79,4,4,4
						h18.08c2.21,0,4-1.79,4-4v-4.84C438.58,486.8,436.79,485.01,434.58,485.01L434.58,485.01z"/>
				</g>
				<g>
					<path class="st29" d="M443.71,495.85c-1.1,0-2-0.9-2-2v-4.84c0-1.1,0.9-2,2-2h18.08c1.1,0,2,0.9,2,2v4.84c0,1.1-0.9,2-2,2
						H443.71z"/>
					<path class="st1" d="M461.79,489.01v4.84h-18.08v-4.84H461.79 M461.79,485.01h-18.08c-2.21,0-4,1.79-4,4v4.84
						c0,2.21,1.79,4,4,4h18.08c2.21,0,4-1.79,4-4v-4.84C465.79,486.8,464,485.01,461.79,485.01L461.79,485.01z"/>
				</g>
				<g>
					<path class="st29" d="M470.92,495.85c-1.1,0-2-0.9-2-2v-4.84c0-1.1,0.9-2,2-2h18.08c1.1,0,2,0.9,2,2v4.84c0,1.1-0.9,2-2,2
						H470.92z"/>
					<path class="st1" d="M489.01,489.01v4.84h-18.08v-4.84H489.01 M489.01,485.01h-18.08c-2.21,0-4,1.79-4,4v4.84
						c0,2.21,1.79,4,4,4h18.08c2.21,0,4-1.79,4-4v-4.84C493.01,486.8,491.22,485.01,489.01,485.01L489.01,485.01z"/>
				</g>
				<g>
					<path class="st29" d="M499.43,495.85c-1.1,0-2-0.9-2-2v-4.84c0-1.1,0.9-2,2-2h18.08c1.1,0,2,0.9,2,2v4.84c0,1.1-0.9,2-2,2
						H499.43z"/>
					<path class="st1" d="M517.51,489.01v4.84h-18.08v-4.84H517.51 M517.51,485.01h-18.08c-2.21,0-4,1.79-4,4v4.84
						c0,2.21,1.79,4,4,4h18.08c2.21,0,4-1.79,4-4v-4.84C521.51,486.8,519.72,485.01,517.51,485.01L517.51,485.01z"/>
				</g>
			</g>
			<g>
				<g>
					<g>
						<path class="st29" d="M329.02,503.89c-2.59,0-4.7-2.11-4.7-4.7v-2.65c0-2.59,2.11-4.7,4.7-4.7h194.34c2.59,0,4.7,2.11,4.7,4.7
							v2.65c0,2.59-2.11,4.7-4.7,4.7H329.02z"/>
						<path class="st1" d="M523.36,493.85c1.48,0,2.7,1.21,2.7,2.7v2.65c0,1.48-1.21,2.7-2.7,2.7H329.02c-1.48,0-2.7-1.21-2.7-2.7
							v-2.65c0-1.48,1.21-2.7,2.7-2.7H523.36 M523.36,489.85H329.02c-3.69,0-6.7,3-6.7,6.7v2.65c0,3.69,3,6.7,6.7,6.7h194.34
							c3.69,0,6.7-3,6.7-6.7v-2.65C530.05,492.86,527.05,489.85,523.36,489.85L523.36,489.85z"/>
					</g>
				</g>
				<g class="st5">
					<path class="st1" d="M523.36,501.89H329.02c-1.48,0-2.7-1.21-2.7-2.7v-2.65c0-1.48,1.21-2.7,2.7-2.7h194.34
						c1.48,0,2.7,1.21,2.7,2.7v2.65C526.05,500.68,524.84,501.89,523.36,501.89z"/>
				</g>
				<line class="st32" x1="384.06" y1="497.87" x2="459.55" y2="497.87"/>
				<circle class="st1" cx="377.55" cy="497.87" r="1.71"/>
			</g>
			<path class="st12" d="M510.64,499.59v-3.44c0-1.27-1.04-2.3-2.3-2.3h16.03c1.27,0,2.3,1.04,2.3,2.3v3.44c0,1.27-1.04,2.3-2.3,2.3
				h-16.03C509.61,501.89,510.64,500.86,510.64,499.59z"/>
			<line class="st32" x1="400.1" y1="497.87" x2="475.58" y2="497.87"/>
		</g>
	</g>
	<g>
		<path class="st29" d="M281.99,463.71c-2.68,0-5.29-0.7-7.55-2.01c-0.05-0.03-0.11-0.06-0.16-0.09c-0.59-0.36-1.16-0.76-1.68-1.18
			c-0.46-0.34-0.86-0.73-1.12-1c-2.78-2.75-4.33-6.42-4.33-10.31V267.36c0-3.91,1.55-7.57,4.36-10.33c2.78-2.75,6.5-4.27,10.46-4.27
			h288.4c7.71,0,14.2,5.92,14.78,13.47c0.03,0.35,0.05,0.74,0.05,1.12v181.76c0,8.04-6.65,14.58-14.83,14.58H281.99z"/>
		<path class="st1" d="M570.38,254.77c6.75,0,12.29,5.12,12.79,11.63c0.03,0.32,0.04,0.64,0.04,0.97v181.76
			c0,6.95-5.75,12.58-12.83,12.58H281.99c-2.43,0-4.72-0.66-6.65-1.81h-0.01c-0.53-0.32-1.03-0.68-1.49-1.06
			c-0.32-0.24-0.63-0.52-0.91-0.81c-2.32-2.29-3.76-5.44-3.76-8.91V267.36c0-3.47,1.44-6.63,3.76-8.9c2.32-2.29,5.52-3.69,9.06-3.69
			H570.38 M570.38,250.77h-288.4c-4.49,0-8.7,1.72-11.87,4.85c-3.19,3.12-4.95,7.3-4.95,11.75v181.76c0,4.42,1.75,8.58,4.93,11.73
			c0.3,0.31,0.75,0.74,1.29,1.15c0.58,0.47,1.2,0.91,1.86,1.31c0.08,0.05,0.17,0.1,0.26,0.14c2.55,1.47,5.48,2.25,8.49,2.25h288.39
			c9.28,0,16.83-7.44,16.83-16.58V267.36c0-0.46-0.02-0.89-0.06-1.31C586.48,257.48,579.12,250.77,570.38,250.77L570.38,250.77z"/>
	</g>
	<path class="st33" d="M288.81,461.71h-6.83c-2.43,0-4.72-0.66-6.65-1.81h-0.01c-0.54-0.32-1.03-0.68-1.49-1.06
		c-0.32-0.24-0.63-0.52-0.92-0.81c-2.31-2.3-3.75-5.44-3.75-8.91V267.36c0-3.47,1.44-6.63,3.75-8.9c2.32-2.29,5.53-3.69,9.06-3.69
		h6.83c-3.53,0-6.74,1.41-9.06,3.69c-2.31,2.27-3.75,5.43-3.75,8.9v181.76c0,3.47,1.44,6.61,3.75,8.91c0.29,0.29,0.6,0.57,0.92,0.81
		c0.46,0.38,0.96,0.73,1.49,1.06h0.01C284.09,461.05,286.38,461.71,288.81,461.71z"/>
	<g class="st5">
		<path class="st1" d="M583.27,267.36v181.76c0,3.47-1.44,6.61-3.76,8.91c-0.28,0.29-0.59,0.57-0.91,0.81
			c-0.46,0.38-0.96,0.73-1.49,1.06h-0.01c-1.93,1.15-4.22,1.81-6.66,1.81h-5.58c2.43,0,4.72-0.66,6.65-1.81h0.02
			c0.53-0.32,1.03-0.68,1.49-1.06c0.32-0.24,0.62-0.52,0.91-0.81c2.32-2.3,3.75-5.44,3.75-8.91V267.36c0-3.47-1.43-6.63-3.75-8.9
			c-2.32-2.29-5.53-3.69-9.06-3.69h5.59c3.53,0,6.74,1.41,9.05,3.69C581.82,260.73,583.27,263.89,583.27,267.36z"/>
	</g>
	<g>
		<path class="st29" d="M286.38,436.96c-2.07,0-3.75-1.68-3.75-3.75V273.53c0-2.07,1.68-3.75,3.75-3.75h279.6
			c2.07,0,3.75,1.68,3.75,3.75v159.68c0,2.07-1.68,3.75-3.75,3.75H286.38z"/>
		<path class="st1" d="M565.98,271.78c0.97,0,1.75,0.78,1.75,1.75v159.68c0,0.97-0.78,1.75-1.75,1.75h-279.6
			c-0.97,0-1.75-0.78-1.75-1.75V273.53c0-0.97,0.78-1.75,1.75-1.75H565.98 M565.98,267.78h-279.6c-3.17,0-5.75,2.58-5.75,5.75
			v159.68c0,3.17,2.58,5.75,5.75,5.75h279.6c3.17,0,5.75-2.58,5.75-5.75V273.53C571.73,270.36,569.15,267.78,565.98,267.78
			L565.98,267.78z"/>
	</g>
	<g class="st34">
		<path class="st1" d="M286.13,437.07c-1.93,0-3.49-1.57-3.49-3.49V273.4c0-1.93,1.57-3.49,3.49-3.49h280.11
			c1.93,0,3.49,1.57,3.49,3.49v160.18c0,1.93-1.57,3.49-3.49,3.49H286.13z"/>
		<path class="st1" d="M566.23,271.9c0.83,0,1.49,0.66,1.49,1.49v160.18c0,0.83-0.66,1.49-1.49,1.49H286.13
			c-0.82,0-1.49-0.66-1.49-1.49V273.4c0-0.83,0.67-1.49,1.49-1.49H566.23 M566.23,267.9H286.13c-3.03,0-5.49,2.46-5.49,5.49v160.18
			c0,3.03,2.46,5.49,5.49,5.49h280.11c3.03,0,5.49-2.46,5.49-5.49V273.4C571.72,270.37,569.26,267.9,566.23,267.9L566.23,267.9z"/>
	</g>
	<g class="st0">
		<rect x="284.63" y="271.9" class="st1" width="283.52" height="16.96"/>
	</g>
	<g class="st5">
		<path class="st1" d="M566.23,271.91h-13.12c0.83,0,1.49,0.66,1.49,1.49v160.18c0,0.83-0.66,1.49-1.49,1.49h13.12
			c0.83,0,1.49-0.66,1.49-1.49V273.4C567.72,272.57,567.06,271.91,566.23,271.91z"/>
	</g>
	<path class="st35" d="M236.35,501.82"/>
	<line class="st35" x1="353.6" y1="261.72" x2="411.69" y2="261.72"/>
	<g>
		<path class="st3" d="M350.81,285.32c-2.72,0-4.94-2.22-4.94-4.94s2.22-4.94,4.94-4.94h196.94c2.72,0,4.94,2.22,4.94,4.94
			s-2.22,4.94-4.94,4.94H350.81z"/>
		<path class="st1" d="M547.75,277.44c1.62,0,2.94,1.32,2.94,2.94v0c0,1.62-1.32,2.94-2.94,2.94H350.81c-1.62,0-2.94-1.32-2.94-2.94
			v0c0-1.62,1.32-2.94,2.94-2.94H547.75 M547.75,273.44H350.81c-3.83,0-6.94,3.11-6.94,6.94s3.11,6.94,6.94,6.94h196.94
			c3.83,0,6.94-3.11,6.94-6.94S551.57,273.44,547.75,273.44L547.75,273.44z"/>
	</g>
	<g>
		<line class="st36" x1="477.64" y1="450.05" x2="536.06" y2="450.05"/>
		<circle class="st1" cx="541.21" cy="450.05" r="1.71"/>
		<line class="st36" x1="324.05" y1="443.58" x2="436.38" y2="443.58"/>
		<circle class="st1" cx="442.22" cy="443.58" r="1.71"/>
	</g>
	<circle class="st1" cx="347.02" cy="261.9" r="1.71"/>
	<g class="st2">
		<line class="st37" x1="530.46" y1="243.74" x2="472.37" y2="243.74"/>
		<circle class="st38" cx="537.03" cy="243.56" r="1.71"/>
	</g>
	<g class="st2">
		<line class="st37" x1="258.12" y1="319.39" x2="258.12" y2="268"/>
		<circle class="st38" cx="258.3" cy="325.96" r="1.71"/>
	</g>
	<circle class="st1" cx="275.59" cy="363.67" r="1.71"/>
	<g>
		<g>
			<g>
				<path class="st39" d="M294.92,285.67c-2.92,0-5.29-2.38-5.29-5.29c0-2.92,2.38-5.29,5.29-5.29s5.29,2.38,5.29,5.29
					C300.21,283.3,297.84,285.67,294.92,285.67z"/>
				<path class="st1" d="M294.92,277.09c1.82,0,3.29,1.47,3.29,3.29c0,1.82-1.47,3.29-3.29,3.29s-3.29-1.47-3.29-3.29
					C291.63,278.56,293.1,277.09,294.92,277.09 M294.92,273.09c-4.02,0-7.29,3.27-7.29,7.29c0,4.02,3.27,7.29,7.29,7.29
					s7.29-3.27,7.29-7.29C302.21,276.36,298.94,273.09,294.92,273.09L294.92,273.09z"/>
			</g>
		</g>
		<g>
			<g>
				<path class="st40" d="M313.58,285.67c-2.92,0-5.29-2.38-5.29-5.29c0-2.92,2.38-5.29,5.29-5.29s5.29,2.38,5.29,5.29
					C318.88,283.3,316.5,285.67,313.58,285.67z"/>
				<path class="st1" d="M313.58,277.09c1.82,0,3.29,1.47,3.29,3.29c0,1.82-1.47,3.29-3.29,3.29c-1.82,0-3.29-1.47-3.29-3.29
					C310.29,278.56,311.76,277.09,313.58,277.09 M313.58,273.09c-4.02,0-7.29,3.27-7.29,7.29c0,4.02,3.27,7.29,7.29,7.29
					s7.29-3.27,7.29-7.29C320.88,276.36,317.6,273.09,313.58,273.09L313.58,273.09z"/>
			</g>
		</g>
		<g>
			<g>
				<path class="st41" d="M332.24,285.67c-2.92,0-5.29-2.38-5.29-5.29c0-2.92,2.38-5.29,5.29-5.29s5.29,2.38,5.29,5.29
					C337.54,283.3,335.16,285.67,332.24,285.67z"/>
				<path class="st1" d="M332.24,277.09c1.82,0,3.29,1.47,3.29,3.29c0,1.82-1.47,3.29-3.29,3.29c-1.82,0-3.29-1.47-3.29-3.29
					C328.95,278.56,330.42,277.09,332.24,277.09 M332.24,273.09c-4.02,0-7.29,3.27-7.29,7.29c0,4.02,3.27,7.29,7.29,7.29
					s7.29-3.27,7.29-7.29C339.54,276.36,336.27,273.09,332.24,273.09L332.24,273.09z"/>
			</g>
		</g>
	</g>
	<line class="st35" x1="275.59" y1="307.13" x2="275.59" y2="358.06"/>
	<g>
		<path class="st42" d="M378.52,387.85h-72.42c-3.1,0-5.62-2.52-5.62-5.62l0,0c0-3.1,2.52-5.62,5.62-5.62h72.42
			c3.1,0,5.62,2.52,5.62,5.62l0,0C384.14,385.33,381.62,387.85,378.52,387.85z"/>
		<path class="st42" d="M544.12,387.85H398.13c-3.1,0-5.62-2.52-5.62-5.62l0,0c0-3.1,2.52-5.62,5.62-5.62h145.99
			c3.1,0,5.62,2.52,5.62,5.62l0,0C549.74,385.33,547.23,387.85,544.12,387.85z"/>
		<path class="st43" d="M452.03,414.25H306.09c-3.1,0-5.62-2.52-5.62-5.62l0,0c0-3.1,2.52-5.62,5.62-5.62h145.93
			c3.1,0,5.62,2.52,5.62,5.62l0,0C457.65,411.74,455.13,414.25,452.03,414.25z"/>
		<path class="st44" d="M544.12,414.25H471.5c-3.1,0-5.62-2.52-5.62-5.62l0,0c0-3.1,2.52-5.62,5.62-5.62h72.62
			c3.1,0,5.62,2.52,5.62,5.62l0,0C549.74,411.74,547.23,414.25,544.12,414.25z"/>
	</g>
	<path class="st42" d="M452.09,335.78H306.09c-3.1,0-5.62-2.52-5.62-5.62l0,0c0-3.1,2.52-5.62,5.62-5.62h145.99
		c3.1,0,5.62,2.52,5.62,5.62l0,0C457.71,333.26,455.19,335.78,452.09,335.78z"/>
	<path class="st43" d="M452.15,362.18h-45.44c-3.1,0-5.62-2.52-5.62-5.62l0,0c0-3.1,2.52-5.62,5.62-5.62h45.44
		c3.1,0,5.62,2.52,5.62,5.62l0,0C457.77,359.67,455.25,362.18,452.15,362.18z"/>
	<path class="st43" d="M384.27,362.18h-78.18c-3.1,0-5.62-2.52-5.62-5.62v0c0-3.1,2.52-5.62,5.62-5.62h78.18
		c3.1,0,5.62,2.52,5.62,5.62v0C389.89,359.67,387.37,362.18,384.27,362.18z"/>
	<path class="st44" d="M544.24,362.18h-72.62c-3.1,0-5.62-2.52-5.62-5.62l0,0c0-3.1,2.52-5.62,5.62-5.62h72.62
		c3.1,0,5.62,2.52,5.62,5.62l0,0C549.87,359.67,547.35,362.18,544.24,362.18z"/>
	<g class="st45">
		<path class="st29" d="M567.72,273.27v160.05c0,0.83-0.66,1.49-1.49,1.49H409.49l130.2-163.03h26.54
			C567.06,271.78,567.72,272.44,567.72,273.27z"/>
	</g>
	<g class="st45">
		<polygon class="st29" points="512.57,271.78 382.38,434.81 306.37,434.81 436.57,271.78 		"/>
	</g>
	<line class="st46" x1="600.14" y1="364.8" x2="600.14" y2="417.93"/>
	<circle class="st47" cx="600.14" cy="358.91" r="1.71"/>
	<g class="st0">
		<path class="st1" d="M547.78,283.32c0,0-194.09,0-197,0s-2.91-2.97-2.91-2.97l202.82,0.06
			C550.69,282.02,549.38,283.32,547.78,283.32z"/>
	</g>
	<g>
		<path class="st48" d="M542.05,388.53c-0.24,0-0.48-0.06-0.7-0.17c-0.4-0.21-0.68-0.58-0.77-1.02c-1.38-6.65,0.27-12.02,4.54-14.73
			c1.06-0.67,2-1,2.87-1c1.16,0,2.12,0.58,2.7,1.64c0.74,1.35,0.65,3.04-0.22,4.4c-2.28,3.58-0.71,5.12-0.53,5.28
			c0.39,0.34,0.59,0.87,0.51,1.38c-0.08,0.51-0.4,0.96-0.88,1.16l-6.93,2.94C542.45,388.49,542.25,388.53,542.05,388.53z"/>
		<path class="st1" d="M547.98,373.11c0.69,0,1.12,0.38,1.39,0.86c0.49,0.9,0.38,2.02-0.17,2.88c-3.15,4.94-0.22,7.24-0.22,7.24
			l-6.93,2.94c-1.13-5.45-0.16-10.59,3.87-13.15C546.79,373.32,547.46,373.11,547.98,373.11 M547.98,370.11
			C547.98,370.11,547.98,370.11,547.98,370.11c-1.16,0-2.36,0.4-3.67,1.23c-4.82,3.06-6.72,9-5.2,16.3
			c0.18,0.88,0.75,1.63,1.54,2.05c0.43,0.23,0.91,0.34,1.39,0.34c0.4,0,0.8-0.08,1.17-0.24l6.93-2.94c1.05-0.44,1.92-1.32,2-2.45
			c0.07-1.1-0.31-2.04-1.23-2.62c-0.27-0.4-0.37-1.47,0.81-3.32c1.17-1.83,1.27-4.1,0.27-5.93
			C551.16,370.99,549.69,370.11,547.98,370.11L547.98,370.11z"/>
	</g>
	<g>
		<circle class="st49" cx="688.33" cy="418.96" r="12.66"/>
		<circle class="st1" cx="688.96" cy="419.13" r="7.43"/>
		<circle class="st50" cx="688.33" cy="418.96" r="12.66"/>
	</g>
	<g>
		<path class="st9" d="M656.6,389.9c9.95-28.25,20.53-22.81,22.53-19.8c1.91,2.86-0.8,14.34-2.92,20.83"/>
		<path class="st51" d="M662.7,392.98c7.78-28.77,15.89-25.4,17-21c0.64,5.34-1.76,16.81-3.55,21.13
			C671.87,394.77,667.68,393.92,662.7,392.98z"/>
	</g>
	<g class="st2">
		<path class="st1" d="M656.6,389.9c9.95-28.25,20.53-22.81,22.53-19.8c1.91,2.86-0.8,14.34-2.92,20.83"/>
		<path class="st1" d="M662.7,392.98c7.78-28.77,15.89-25.4,17-21c0.64,5.34-1.76,16.81-3.55,21.13
			C671.87,394.77,667.68,393.92,662.7,392.98z"/>
	</g>
	
		<ellipse transform="matrix(0.5355 -0.8446 0.8446 0.5355 -31.2049 770.3074)" class="st18" cx="684.62" cy="413.52" rx="2.18" ry="2.01"/>
	<path class="st52" d="M670.39,490.75c0,0-2,6.35-4.51,16.49c-0.3,1.19-1.25,2.1-2.45,2.34c-3.61,0.72-11.47,1.91-18.06,0.4
		l-1.78-17.29L670.39,490.75z"/>
	<path class="st10" d="M670.39,490.75c0,0-2,6.35-4.51,16.49c-0.3,1.19-1.25,2.1-2.45,2.34c-3.61,0.72-11.47,1.91-18.06,0.4
		l-1.78-17.29L670.39,490.75z"/>
	<path class="st52" d="M617.04,492.41c0,0-2.76,3.87-4.57,14.57c-0.23,1.37-1.31,2.43-2.68,2.62c-3.76,0.51-11.11,1.15-14.86-0.94
		l-0.48-19.59L617.04,492.41z"/>
	<path class="st10" d="M617.04,492.41c0,0-2.76,3.87-4.57,14.57c-0.23,1.37-1.31,2.43-2.68,2.62c-3.76,0.51-11.11,1.15-14.86-0.94
		l-0.48-19.59L617.04,492.41z"/>
	<g>
		<path class="st48" d="M636.8,520.6c-4.43,0-8.03-0.69-10.27-1.28c-1.82-0.46-3.16-1.98-3.41-3.87c-1.03-7.99-2-12.75-2.55-14.22
			c-3.29-0.16-14.65-0.76-18.94-1.07c0,0,0,0,0,0c-0.31,0-0.53,0.16-0.61,0.41c-0.97,3.05-1.9,7.26-2.76,12.53
			c-0.25,1.64-1.4,3.04-2.99,3.64c-3.56,1.27-7.15,1.92-10.7,1.92c0,0,0,0,0,0c-6.24,0-10.93-1.99-13.16-3.18
			c-1.41-0.74-2.35-2.13-2.51-3.73c-0.45-5.12-0.72-8.63-0.93-11.36c-0.24-3.1-0.39-5.15-0.64-7.42c-0.02-0.17-0.13-0.34-0.3-0.45
			c-10.71-6.98-18.93-19.53-22.54-34.42c-3.6-14.83-2.27-30.51,3.65-43.02c0.11-0.26,0.26-0.55,0.41-0.85
			c0.07-0.13,0.03-0.28-0.08-0.33c-3.02-1.54-5.56-3.85-7.56-6.85c-3.29-4.97-3.02-9.61-2.21-12.63c1.13-4.23,4.14-8.1,7.66-9.86
			c1.1-0.55,2.32-0.83,3.64-0.83c3.29,0,6.67,1.77,8.61,4.51c1.72,2.44,2.11,5.34,1.11,8.17c-0.09,0.26-0.19,0.51-0.3,0.75
			c3.92-3.83,8.1-7.11,12.48-9.81c2.37-1.47,4.84-2.78,7.36-3.91c13.93-6.23,30.07-9.39,47.99-9.39c5.21,0,10.57,0.27,15.95,0.82
			c2.29,0.23,4.38,0.52,6.4,0.87c1.71,0.29,3.4,0.64,5,1.02c11.93,2.82,21.01,7.94,27,15.21c0,0,0.07,0.08,0.09,0.11
			c1.49,1.79,2.82,3.82,3.94,5.97c2.53,4.87,4.75,10.2,6.7,14.9c2.01,4.84,3.74,9.01,5.03,10.71c0.14,0.18,0.29,0.4,0.46,0.64
			c0.4,0.56,0.85,1.19,1.42,1.81c1.55,1.66,3.32,2.43,5.58,2.43c0.23,0,0.47-0.01,0.72-0.03c0.19-0.01,0.33-0.02,0.47-0.04
			c0.44-0.05,0.91-0.14,1.48-0.26c0.23-0.05,0.49-0.08,0.75-0.08c4.29,0,6.83,7.83,7.11,15.57c0.46,12.48-4.6,27.4-20.2,29.36
			c-0.2,4.59-1.85,9.58-4.28,12.81c-5.57,7.42-16.74,11.89-34.14,13.66c-0.26,0.02-0.46,0.19-0.52,0.42
			c-1.1,3.99-2.99,11.77-3.83,15.33c-0.39,1.56-1.53,2.8-3.06,3.33C645.33,519.93,641.13,520.6,636.8,520.6z M555.29,401.32
			c-0.15,0.06-0.31,0.11-0.47,0.16C554.98,401.46,555.14,401.4,555.29,401.32z"/>
		<path class="st1" d="M627.24,375.56c5.3,0,10.59,0.28,15.8,0.81c2.07,0.21,4.18,0.49,6.3,0.85c1.64,0.28,3.28,0.61,4.91,1
			c10.04,2.37,19.72,6.84,26.19,14.7c0.02,0.02,0.04,0.04,0.06,0.07c1.44,1.74,2.71,3.65,3.8,5.74c5.2,9.99,9.16,22.27,11.86,25.82
			c0.47,0.61,1.08,1.6,1.99,2.56c1.37,1.47,3.42,2.9,6.67,2.9c0.27,0,0.54-0.01,0.82-0.03c0.17-0.01,0.34-0.03,0.52-0.04
			c0.52-0.06,1.05-0.16,1.64-0.28c0.15-0.03,0.29-0.05,0.43-0.05c7.14,0,12.03,40.11-14.57,42.07c0.11,4.86-1.63,10.12-4,13.27
			c-6.9,9.19-22.12,11.95-33.09,13.07c-0.88,0.08-1.6,0.69-1.82,1.53c-1.13,4.08-3.03,11.95-3.84,15.36
			c-0.26,1.05-1.05,1.9-2.09,2.26c-4.3,1.44-8.43,1.91-12.01,1.91c-4.31,0-7.82-0.69-9.9-1.23c-1.23-0.31-2.14-1.36-2.31-2.61
			c-0.59-4.57-2.12-15.44-3.28-15.49c-1.66-0.08-14.82-0.76-19.59-1.1c-0.05,0-0.09,0-0.14,0c-0.91,0-1.73,0.58-2.01,1.46
			c-1.38,4.32-2.36,9.94-2.81,12.74c-0.18,1.15-0.96,2.07-2.04,2.47c-3.72,1.33-7.14,1.82-10.18,1.82c-5.86,0-10.26-1.84-12.46-3
			c-0.97-0.51-1.61-1.45-1.72-2.55c-0.95-10.84-1.1-14.46-1.57-18.79c-0.07-0.62-0.42-1.18-0.95-1.53
			c-21.85-14.25-30.47-49.96-18.37-75.55c0.12-0.27,0.26-0.55,0.39-0.82l0.01-0.01c0.43-0.85,0.11-1.9-0.74-2.33
			c-2.46-1.26-4.91-3.22-6.99-6.35c-5.74-8.66-0.41-17.68,4.87-20.31c0.92-0.46,1.93-0.67,2.97-0.67c4.94,0,10.4,4.78,8.3,10.68
			c-1.25,3.51-3.68,4.4-5.82,4.4c-2.09,0-3.91-0.84-4.07-0.89c1.03,2.64,3.67,3.34,5.74,3.57c0.12,0.01,0.23,0.02,0.35,0.02
			c0.92,0,1.8-0.39,2.43-1.09c4.63-5.14,9.89-9.68,15.74-13.28c2.31-1.43,4.7-2.71,7.19-3.82C594.6,378.23,611,375.56,627.24,375.56
			 M627.24,372.56L627.24,372.56c-18.13,0-34.48,3.2-48.6,9.52c-2.58,1.16-5.12,2.51-7.55,4.01c-3.23,1.99-6.35,4.29-9.34,6.89
			c-0.07-1.97-0.72-3.88-1.93-5.59c-2.21-3.13-6.07-5.14-9.83-5.14c-1.55,0-3,0.33-4.31,0.98c-3.89,1.94-7.2,6.18-8.44,10.81
			c-0.89,3.32-1.19,8.42,2.41,13.84c1.9,2.85,4.26,5.12,7.03,6.76c-5.98,12.78-7.32,28.75-3.66,43.83
			c3.66,15.09,11.98,27.86,22.85,35.1c0.22,2.08,0.37,4.04,0.59,6.93c0.21,2.79,0.48,6.25,0.93,11.38c0.21,2.13,1.45,3.97,3.32,4.95
			c2.34,1.24,7.28,3.34,13.85,3.34c3.72,0,7.49-0.67,11.19-2c2.14-0.8,3.65-2.65,3.99-4.85c0.78-4.79,1.62-8.69,2.5-11.61
			c4.28,0.29,13.25,0.76,17.21,0.97c0.53,2.01,1.34,6.38,2.18,12.96c0.34,2.51,2.12,4.52,4.54,5.14c2.31,0.6,6.05,1.32,10.64,1.32
			c4.49,0,8.85-0.7,12.96-2.07c2.04-0.7,3.54-2.33,4.05-4.37c0.81-3.4,2.55-10.59,3.66-14.7c17.52-1.86,28.82-6.51,34.58-14.19
			c2.42-3.21,4.07-7.86,4.5-12.41c6.93-1.2,12.41-5.02,15.96-11.16c4.13-7.14,4.48-15.31,4.33-19.54
			c-0.31-8.47-3.09-17.03-8.61-17.03c-0.37,0-0.74,0.04-1.11,0.13c-0.48,0.1-0.91,0.18-1.32,0.23c-0.07,0.01-0.17,0.02-0.27,0.02
			c-0.03,0-0.07,0-0.1,0.01c-0.21,0.01-0.41,0.02-0.61,0.02c-1.84,0-3.22-0.6-4.48-1.95c-0.51-0.55-0.93-1.14-1.3-1.65
			c-0.18-0.26-0.35-0.49-0.5-0.69c-1.16-1.53-2.94-5.82-4.83-10.37c-1.96-4.73-4.19-10.1-6.75-15.02c-1.16-2.23-2.54-4.32-4.11-6.22
			c-0.03-0.04-0.08-0.1-0.13-0.16c-6.2-7.5-15.55-12.77-27.78-15.67c-1.64-0.39-3.35-0.74-5.09-1.04c-2.06-0.35-4.18-0.64-6.5-0.88
			C637.91,372.84,632.49,372.56,627.24,372.56L627.24,372.56z"/>
	</g>
	<path class="st53" d="M541.04,391.4c0.21,4.47-0.35,12.74,8.55,17.35c1.06,0.55,2.31,2.32,2.32,4.63
		c3.9,61.77,60.27,80.47,126.62,67.35c5.03-1-7.19,3.41,11.73,2.41c-1.86,11.47-25.96,14.27-33.7,15.05
		c-0.4,0.04-0.76,0.2-1.07,0.43c-0.1,0.02-0.2,0.01-0.31,0.04c-4.57,1.05-8.34,3.59-10.23,7.96c-1.68,3.87-1.73,8.1-2.24,12.23
		c-6.98,1.07-12.91,0-15.88-0.76c-1.23-0.32-2.14-1.36-2.31-2.62c-0.59-4.6-2.13-15.49-3.29-15.54c-1.24-0.05-8.9-0.45-14.7-0.78
		c-1.29-0.3-12.45-0.26-15.36,4.38c-2.57,4.1-3.35,8.89-3.71,13.66c-7.42,0.81-13.02-1.46-15.59-2.81
		c-0.97-0.51-1.61-1.47-1.72-2.56c-0.95-10.86-1.1-14.5-1.57-18.83c-0.07-0.63-0.43-1.18-0.96-1.54
		c-23.11-15.4-30.71-50.98-18.13-77.72l-0.21-0.62C549.27,413.09,534.05,406.3,541.04,391.4z"/>
	<path class="st6" d="M548.75,444.69c-0.37-6.39,0.22-12.83,1.88-18.91"/>
	<path class="st12" d="M572.67,388.65c12.81-3.89,41.79-8.11,79.03-3.41l-2.36-8.01c-2.11-0.36-4.22-0.64-6.3-0.85
		c-21.14-2.13-43.62-0.3-63.18,8.45C577.37,385.94,574.97,387.22,572.67,388.65z"/>
	<path class="st12" d="M654.64,385.59c8.69,0.48,23.46,4.93,32.74,33.17c4.47,13.61,16.16,14.39,16.16,14.39l2.09-3.14l0.26-0.38
		c-3.72,0.41-6.13-0.95-7.75-2.49c-1.16-1.1-1.91-2.29-2.44-2.98c-2.71-3.56-6.67-15.83-11.86-25.82c-1-1.93-2.12-3.7-3.35-5.33
		c-0.02-0.03-0.04-0.05-0.06-0.07c-6.48-7.86-16.15-12.33-26.19-14.7C653.7,380.67,652.69,385.48,654.64,385.59z"/>
	<path class="st48" d="M675.92,435.58c-3.09-3.09-10.24-8.39-21.49-6.16l-5.14,1.69l15.66,8.06l16.34,3.28L675.92,435.58z"/>
	
		<ellipse transform="matrix(0.0593 -0.9982 0.9982 0.0593 211.4074 1121.0688)" class="st1" cx="700.5" cy="448.37" rx="5.78" ry="1.91"/>
	
		<ellipse transform="matrix(0.0593 -0.9982 0.9982 0.0593 217.4052 1126.5897)" class="st1" cx="706.42" cy="447.95" rx="5.78" ry="1.91"/>
	<path class="st6" d="M552.16,391.78c-2.88-3.09-10.17,6.9,0.85,9.44"/>
	<g>
		<path class="st52" d="M591.3,383.55l2.28,2.14l2.03,1.89c0.05-0.01,0.1-0.02,0.15-0.03c8.31-1.82,23.84-2.71,23.84-2.71l2.03-2.29
			l2.36-2.67c-0.92-0.01-1.84,0-2.78,0.02C610.7,380.04,599.47,381.4,591.3,383.55z"/>
		<path class="st10" d="M591.49,383.55l2.24,2.1l2.03,1.9l0.04,0.03c8.27-1.84,24-2.74,24-2.74l2.03-2.29l2.36-2.67h-0.19
			c-0.92-0.01-1.84,0-2.78,0.02C610.76,380.06,599.61,381.42,591.49,383.55z"/>
		<path class="st10" d="M593.58,385.69l2.03,1.89c0.05-0.01,0.1-0.02,0.15-0.03l0.04,0.03c8.27-1.84,24-2.74,24-2.74l2.03-2.29
			c-0.06-0.01-0.13,0-0.19,0c-9.65,0.12-19.92,1.27-27.89,3.1C593.68,385.66,593.63,385.68,593.58,385.69z"/>
	</g>
	<g>
		
			<ellipse transform="matrix(0.167 -0.986 0.986 0.167 144.7829 1068.8569)" class="st48" cx="704.92" cy="448.75" rx="19.82" ry="7.33"/>
		
			<ellipse transform="matrix(0.1188 -0.9929 0.9929 0.1188 174.3521 1093.5649)" class="st1" cx="703.28" cy="448.55" rx="5.59" ry="1.75"/>
		
			<ellipse transform="matrix(0.1188 -0.9929 0.9929 0.1188 177.8253 1098.5973)" class="st1" cx="707.85" cy="449.11" rx="5.59" ry="1.75"/>
	</g>
	
		<ellipse transform="matrix(0.167 -0.986 0.986 0.167 144.7829 1068.8569)" class="st48" cx="704.92" cy="448.75" rx="19.82" ry="7.33"/>
	<path class="st51" d="M694.95,472.15c-8.51,0.59-21.74,1.31-34.45-9.46c0,0,12.16,17.66,24.29,19.55
		c10.59,1.65,9.47-9.47,9.47-9.47"/>
	<g>
		<g>
			<circle class="st50" cx="673.12" cy="423.69" r="13.95"/>
			<circle class="st49" cx="670.29" cy="423.52" r="13.43"/>
			<circle class="st1" cx="670.2" cy="423.69" r="7.89"/>
			<circle class="st18" cx="674.64" cy="418.06" r="3.26"/>
		</g>
		<path class="st48" d="M681.01,438.33c0,0-8.96-9.73-26.52-7.13l0.93,7.46l15.23,5.55L681.01,438.33z"/>
		<path class="st52" d="M678.53,436.98c-2.89-2.37-10.56-7.34-22.85-6.22"/>
	</g>
	<g>
		<path class="st54" d="M700.44,470.21c-1.1,0-2.09-0.47-2.84-1.35c-3.16-3.72-1.8-15.43-0.72-22.08c0.05-0.23,0.08-0.41,0.11-0.58
			l0.02-0.13c0.39-2.23,0.94-4.45,1.63-6.6c0.92-2.83,2.05-5.3,3.27-7.16c0.3-0.46,0.58-0.85,0.83-1.16
			c0.02-0.03,0.21-0.24,0.21-0.24c0.24-0.28,0.46-0.53,0.68-0.77l0.16-0.15c0.54-0.52,1.11-0.94,1.69-1.25
			c0.71-0.36,1.41-0.55,2.11-0.55c0.24,0,0.48,0.02,0.71,0.06c2.26,0.4,5.15,2.64,6.09,10.98c0.22,1.99,0.31,4.2,0.27,6.57
			c-0.02,1.13-0.07,2.26-0.14,3.48c-0.08,1.47-0.19,2.78-0.34,4.01c-0.73,6.16-2.86,14.6-12.8,16.8
			C701.05,470.17,700.74,470.21,700.44,470.21L700.44,470.21z"/>
		<path class="st1" d="M707.58,429.69c0.15,0,0.29,0.01,0.44,0.04c2.48,0.44,4.22,3.88,4.87,9.67c0.21,1.94,0.3,4.09,0.26,6.38
			c-0.02,1.1-0.07,2.22-0.14,3.41c-0.07,1.3-0.18,2.62-0.34,3.92c-0.84,7.03-3.2,13.65-11.64,15.52c-0.21,0.05-0.41,0.07-0.6,0.07
			c-4.36,0-3.68-11.91-2.08-21.69c0.05-0.23,0.09-0.46,0.13-0.7c0.4-2.29,0.95-4.44,1.58-6.4c0.89-2.72,1.95-5.04,3.1-6.79
			c0.24-0.38,0.5-0.74,0.75-1.05c0.01-0.01,0.01-0.01,0.01-0.01c0.29-0.33,0.55-0.64,0.81-0.91l0.09-0.08
			c0.44-0.43,0.89-0.76,1.35-1C706.65,429.82,707.12,429.69,707.58,429.69 M707.58,426.69c-0.94,0-1.88,0.24-2.79,0.71
			c-0.72,0.38-1.41,0.89-2.06,1.52l-0.07,0.06c-0.05,0.04-0.09,0.09-0.14,0.14c-0.24,0.26-0.48,0.54-0.75,0.85l-0.09,0.1
			c-0.04,0.05-0.08,0.09-0.12,0.14c-0.29,0.36-0.59,0.78-0.92,1.29c-1.31,1.99-2.46,4.52-3.44,7.5c-0.71,2.22-1.28,4.51-1.68,6.81
			l-0.01,0.09c-0.03,0.18-0.06,0.35-0.09,0.52c-0.01,0.04-0.02,0.08-0.02,0.12c-2.01,12.27-1.65,20.1,1.05,23.29
			c1.03,1.21,2.45,1.88,3.98,1.88c0.41,0,0.83-0.05,1.25-0.14c10.87-2.41,13.18-11.48,13.97-18.09c0.15-1.26,0.27-2.6,0.35-4.11
			c0.08-1.23,0.12-2.39,0.14-3.52c0.04-2.45-0.06-4.72-0.28-6.76c-1.05-9.27-4.56-11.81-7.33-12.3
			C708.24,426.72,707.91,426.69,707.58,426.69L707.58,426.69z"/>
	</g>
	<path class="st9" d="M663.18,457.25c0,0-0.33,6.21-9.8,6.53"/>
	
		<ellipse transform="matrix(0.0837 -0.9965 0.9965 0.0837 194.9712 1114.3077)" class="st1" cx="703.39" cy="451.14" rx="5.81" ry="1.9"/>
	
		<ellipse transform="matrix(0.0837 -0.9965 0.9965 0.0837 199.8146 1119.3595)" class="st1" cx="708.56" cy="451.03" rx="5.51" ry="1.61"/>
	<path class="st12" d="M702.62,434.99c-4.36,10.69-5.79,38.16,10.09,24.41c0,0-3.36,8.68-11,10.4
		C694.07,471.51,696.69,442.36,702.62,434.99z"/>
	<path class="st50" d="M663.09,458.62c6.07,2.83,13.52,4.55,19.67,5.08c3.95,0.34,7.52-2.43,8.12-6.35
		c1.36-8.87,4.8-18.93,11.52-24.17c-5.58,10.43-6.7,19.38-6.41,26.33c0.52-0.21,0.8-0.34,0.8-0.34c-0.35,0.37-0.59,0.83-0.75,1.34
		c0.16,2.72,0.45,4.38,0.45,4.38l-0.35,0.09c0.67,2.99,2.63,5.43,2.63,5.43c-24.89,5.81-38.26-7.72-38.26-7.72L663.09,458.62z"/>
	<path class="st6" d="M692.76,479.55c0,0-2.79,12.76-20.4,1.97"/>
	<circle class="st1" cx="668.86" cy="479.06" r="1.14"/>
	<path class="st50" d="M550.72,391.79l-3.68,0.95l-0.62,3.94l2.59,3.58l5.34,0.02c0,0,3.65-3.35,3.42-3.14
		C557.11,397.73,550.91,398.26,550.72,391.79z"/>
	<path class="st50" d="M548.98,384.09c0,0-2.93-2.3,0.22-7.24c0.55-0.86,0.66-1.98,0.17-2.88c-0.46-0.85-1.43-1.38-3.45-0.1
		c-4.03,2.56-5,7.7-3.87,13.15"/>
	<path class="st33" d="M703.17,433.17c7.17-3.9,8.6,5.94,9.99,12.25c0.03-2.22-0.05-4.29-0.26-6.18c-0.65-5.61-2.4-8.94-4.87-9.37
		c-0.59-0.11-1.22,0.01-1.85,0.32c-0.46,0.23-0.9,0.55-1.35,0.97l-0.09,0.08c-0.25,0.26-0.52,0.56-0.81,0.89c0,0,0,0-0.01,0.01
		C703.66,432.46,703.41,432.81,703.17,433.17z"/>
	<path class="st55" d="M655.37,409c9.33-10.53,21.9-4.14,21.9-4.14"/>
	<path class="st51" d="M686.1,476.77c0,0-2.17-4.09-5.75-4.86"/>
	<path class="st12" d="M693.99,471.81c-8,1.58-20.89,1.9-33.48-9.12c0,0,11.04,17.33,22.7,19.77c12.27,2.56,11.15-10.01,11.15-10.01
		"/>
	<path class="st55" d="M549.41,408.41c-0.53-0.17-3.94-1.59-6.04-6.3"/>
	<circle class="st1" cx="547.07" cy="375.75" r="0.96"/>
	<circle class="st1" cx="629.36" cy="502.83" r="1.15"/>
	<path class="st6" d="M646.86,514.02c-6.02,1.71-12.23,1.94-18.63,0.61"/>
	<g>
		<g>
			<g>
				<path class="st9" d="M630.89,393.8c6.32-34.06,20.77-30.2,23.94-27.23c3.01,2.82,2.13,16.37,0.88,24.16"/>
				<path class="st51" d="M639.21,395.95c3.48-34.17,14.39-32.12,16.74-27.4c1.96,5.9,2.63,17.14,1.33,22.41
					C650.96,392.65,643.47,394.72,639.21,395.95z"/>
			</g>
			<path class="st12" d="M655.13,368.82c-5.01,0.17-7.75,8.74-8.83,17.62c-0.67,5.53,9.21,1.22,11.27,0.51l-0.12,4.43
				c0,0-12.77,2.11-17.53,4.23C637.42,393.8,645.54,358.61,655.13,368.82z"/>
			<path class="st50" d="M650.18,365.41c-0.21,0.04-10.72,2.81-15.55,27.16c-0.31,1.54-1.82,2.54-3.36,2.24l-0.74-0.14
				C630.53,394.66,635.68,364.25,650.18,365.41z"/>
		</g>
		<path class="st6" d="M648.28,374.4c-0.78,1.76-2.16,4.84-2.66,10.14"/>
		<circle class="st1" cx="645.47" cy="389.27" r="1.32"/>
	</g>
	<circle class="st1" cx="671.85" cy="379.13" r="1.27"/>
	<circle class="st1" cx="710.5" cy="439.48" r="1.17"/>
	<circle class="st1" cx="700.87" cy="465.29" r="1.62"/>
	<circle class="st1" cx="652.25" cy="431.17" r="1.37"/>
	<circle class="st1" cx="581.59" cy="457.25" r="1.37"/>
	<circle class="st1" cx="548.64" cy="451.03" r="1.37"/>
	<line class="st6" x1="573.25" y1="493.65" x2="573.88" y2="503.27"/>
	<circle class="st1" cx="600.43" cy="448.37" r="0.96"/>
	<circle class="st1" cx="586.48" cy="492.42" r="0.96"/>
	<g>
		<path class="st26" d="M666.95,304.68c0.85,3.5,9.77,4.35,19.93,1.89s17.72-7.28,16.87-10.78l-1.31-7.53l-36.81,8.89L666.95,304.68
			z"/>
		<path class="st14" d="M666.95,304.68c0.85,3.5,9.77,4.35,19.93,1.89s17.72-7.28,16.87-10.78l-1.31-7.53l-36.81,8.89L666.95,304.68
			z"/>
		
			<ellipse transform="matrix(0.9721 -0.2348 0.2348 0.9721 -49.5998 168.7766)" class="st26" cx="684.05" cy="292.7" rx="18.93" ry="5.66"/>
	</g>
	<g>
		<path class="st26" d="M623.05,263.1c-1.45,3.08,4.62,8.99,13.56,13.2c8.94,4.21,17.37,5.13,18.82,2.05l3.49-6.32l-32.38-15.25
			L623.05,263.1z"/>
		<path class="st14" d="M623.05,263.1c-1.45,3.08,4.62,8.99,13.56,13.2c8.94,4.21,17.37,5.13,18.82,2.05l3.49-6.32l-32.38-15.25
			L623.05,263.1z"/>
		
			<ellipse transform="matrix(0.4261 -0.9047 0.9047 0.4261 129.6868 733.2357)" class="st26" cx="642.74" cy="264.41" rx="5.35" ry="17.9"/>
	</g>
	<g class="st0">
		<path class="st26" d="M640.93,339.38c1.21,2.62,8.36,1.89,15.97-1.63s12.79-8.5,11.58-11.12l-2.21-5.71l-27.55,12.75
			L640.93,339.38z"/>
		<path class="st14" d="M640.93,339.38c1.21,2.62,8.36,1.89,15.97-1.63s12.79-8.5,11.58-11.12l-2.21-5.71l-27.55,12.75
			L640.93,339.38z"/>
		
			<ellipse transform="matrix(0.9076 -0.4199 0.4199 0.9076 -77.1179 304.2332)" class="st26" cx="652.49" cy="327.29" rx="15.18" ry="4.53"/>
	</g>
	<g>
		<g class="st0">
			<g class="st0">
				<path class="st1" d="M627.59,217.18c-2.98-0.2-6.72,0.2-10.54,1.11c-3.53,0.84-6.85,2.07-9.35,3.45c0,0,0,0,0,0
					c-5.03,2.78-5.56,5.56-5.12,7.4c0.03,0.14,0.08,0.29,0.13,0.44c0.01,0.08,0.01,0.17,0.03,0.25l1.21,5.07
					c1.42,5.95,13.89,3.46,17.67,2.56c3.91-0.93,7.49-2.24,10.08-3.67c3.58-1.98,5.11-4.2,4.54-6.6l-1.21-5.07
					c-0.02-0.09-0.06-0.16-0.09-0.25c-0.02-0.15-0.05-0.3-0.08-0.44C634.44,219.69,632.85,217.53,627.59,217.18z"/>
				
					<ellipse transform="matrix(0.9721 -0.2348 0.2348 0.9721 -35.964 151.2149)" class="st10" cx="617.11" cy="226.65" rx="9.01" ry="2.84"/>
			</g>
			<g>
				<g>
					<path class="st22" d="M609.11,235.7c-3.98,0-6.22-0.93-6.66-2.78l-1.25-5.24c-0.09-0.39-0.03-0.79,0.18-1.13
						c0.21-0.34,0.54-0.58,0.93-0.67l27.4-6.54c0.12-0.03,0.23-0.04,0.35-0.04c0.68,0,1.29,0.46,1.46,1.15l1.25,5.24
						c0.42,1.75-0.98,3.5-4.15,5.2c-2.54,1.37-6.01,2.61-9.8,3.52C615.34,235.24,611.88,235.7,609.11,235.7L609.11,235.7z"/>
					<path class="st1" d="M630.06,220.79l1.25,5.24c0.48,2.01-5.27,5.11-12.83,6.91c-3.52,0.84-6.81,1.25-9.37,1.25
						c-2.95,0-4.94-0.55-5.2-1.62l-1.25-5.24L630.06,220.79 M630.06,217.79c-0.23,0-0.46,0.03-0.7,0.08l-27.4,6.54
						c-0.77,0.18-1.44,0.67-1.86,1.35s-0.55,1.49-0.36,2.27l1.25,5.24c0.62,2.6,3.35,3.93,8.11,3.93c2.89,0,6.46-0.47,10.07-1.33
						c3.91-0.93,7.51-2.23,10.16-3.66c3.84-2.07,5.49-4.38,4.89-6.87l-1.25-5.24C632.65,218.72,631.42,217.79,630.06,217.79
						L630.06,217.79z"/>
				</g>
				<g>
					<path class="st22" d="M608.64,230.21c-5.65,0-7.26-1.76-7.61-3.24c-0.31-1.29,0.13-3.31,3.99-5.6
						c2.52-1.49,6.01-2.82,9.81-3.72c3.17-0.76,6.25-1.15,8.91-1.15c5.65,0,7.26,1.76,7.61,3.24c0.31,1.29-0.13,3.31-3.99,5.6
						c-2.52,1.49-6.01,2.82-9.81,3.72C614.38,229.81,611.3,230.21,608.64,230.21z"/>
					<path class="st1" d="M623.74,217.99c3.44,0,5.82,0.72,6.15,2.09c0.56,2.34-5.12,5.71-12.69,7.52
						c-3.14,0.75-6.12,1.11-8.56,1.11c-3.44,0-5.82-0.72-6.15-2.09c-0.56-2.34,5.12-5.71,12.69-7.52
						C618.32,218.36,621.3,217.99,623.74,217.99 M623.74,214.99L623.74,214.99c-2.78,0-5.98,0.41-9.26,1.2
						c-7.67,1.83-16.17,5.84-14.91,11.13c0.48,2,2.44,4.39,9.07,4.39c2.78,0,5.98-0.41,9.26-1.2c3.94-0.94,7.58-2.32,10.22-3.89
						c4.64-2.75,5.11-5.45,4.69-7.24C632.33,217.38,630.37,214.99,623.74,214.99L623.74,214.99z"/>
				</g>
			</g>
		</g>
	</g>
	<g>
		<g class="st0">
			<g class="st0">
				<path class="st1" d="M626.65,297.18c-3.14-0.53-7.16-0.51-11.32,0.06c-3.84,0.52-7.5,1.47-10.3,2.68c0,0,0,0,0,0
					c-5.64,2.42-6.5,5.31-6.23,7.31c0.02,0.16,0.05,0.32,0.09,0.48c0,0.09,0,0.18,0.01,0.27l0.75,5.52
					c0.88,6.47,14.38,5.15,18.5,4.6c4.25-0.58,8.19-1.58,11.09-2.83c4.02-1.73,5.87-3.92,5.52-6.53l-0.75-5.52
					c-0.01-0.09-0.04-0.18-0.07-0.27c-0.01-0.16-0.02-0.32-0.04-0.47C633.67,300.57,632.2,298.11,626.65,297.18z"/>
				
					<ellipse transform="matrix(0.9906 -0.1369 0.1369 0.9906 -36.1191 86.9947)" class="st10" cx="614.51" cy="306.13" rx="9.62" ry="3.03"/>
			</g>
			<g>
				<path class="st22" d="M608.49,314.95c-4.38,0-9.69-0.65-10.11-3.73l-0.78-5.7c-0.05-0.39,0.05-0.79,0.29-1.11
					c0.24-0.32,0.6-0.52,0.99-0.58l29.81-4.04c0.07-0.01,0.14-0.01,0.2-0.01c0.74,0,1.38,0.55,1.48,1.3l0.78,5.7
					c0.25,1.85-1.4,3.52-4.9,4.98c-2.83,1.18-6.65,2.13-10.76,2.69C613.06,314.78,610.7,314.95,608.49,314.95
					C608.49,314.95,608.49,314.95,608.49,314.95z"/>
				<path class="st1" d="M628.89,301.28l0.78,5.7c0.3,2.19-6.14,4.86-14.37,5.98c-2.43,0.33-4.75,0.49-6.82,0.49
					c-4.92,0-8.42-0.89-8.62-2.43l-0.78-5.7L628.89,301.28 M628.9,298.28c-0.13,0-0.27,0.01-0.41,0.03l-29.81,4.04
					c-0.79,0.11-1.5,0.52-1.98,1.16c-0.48,0.63-0.69,1.43-0.59,2.22l0.78,5.7c0.45,3.33,4.35,5.02,11.6,5.02
					c2.28,0,4.71-0.17,7.22-0.51c4.19-0.57,17.81-2.92,16.94-9.35l-0.78-5.7C631.66,299.38,630.37,298.28,628.9,298.28L628.9,298.28
					z"/>
			</g>
			<g>
				<path class="st22" d="M608.49,309.07c-3.13,0-10.47-0.42-11-4.32c-0.57-4.19,7.67-7.25,15.56-8.32
					c2.14-0.29,4.23-0.44,6.22-0.44c3.13,0,10.47,0.42,11,4.32c0.57,4.19-7.67,7.25-15.56,8.32
					C612.57,308.92,610.48,309.07,608.49,309.07z"/>
				<path class="st1" d="M619.27,297.49c5.36,0,9.26,1.13,9.51,3.02c0.35,2.55-6.05,5.52-14.28,6.64c-2.12,0.29-4.16,0.42-6.02,0.42
					c-5.36,0-9.26-1.13-9.51-3.02c-0.35-2.55,6.05-5.52,14.28-6.64C615.38,297.63,617.41,297.49,619.27,297.49 M619.28,294.49
					C619.27,294.49,619.27,294.49,619.28,294.49c-2.05,0-4.21,0.15-6.42,0.45c-8.25,1.12-17.61,4.41-16.85,10.01
					c0.49,3.62,4.92,5.62,12.49,5.62c2.05,0,4.21-0.15,6.42-0.45c4.27-0.58,8.25-1.66,11.22-3.03c5.11-2.38,5.88-5.11,5.63-6.98
					C631.27,296.48,626.83,294.49,619.28,294.49L619.28,294.49z"/>
			</g>
		</g>
	</g>
	<g>
		<g>
			<circle class="st22" cx="612.11" cy="361.35" r="19.92"/>
			<path class="st1" d="M612.11,342.93c10.17,0,18.42,8.25,18.42,18.42c0,10.17-8.25,18.42-18.42,18.42
				c-10.17,0-18.42-8.25-18.42-18.42C593.69,351.18,601.94,342.93,612.11,342.93 M612.11,339.93c-11.81,0-21.42,9.61-21.42,21.42
				c0,11.81,9.61,21.42,21.42,21.42s21.42-9.61,21.42-21.42C633.53,349.54,623.93,339.93,612.11,339.93L612.11,339.93z"/>
		</g>
		<circle class="st1" cx="620.86" cy="355.51" r="1.46"/>
		<g class="st2">
			<path class="st1" d="M609.81,381.66c-10.98,0-19.92-8.94-19.92-19.92c0-10.98,8.94-19.92,19.92-19.92
				c10.98,0,19.92,8.94,19.92,19.92C629.73,372.72,620.8,381.66,609.81,381.66z"/>
			<path class="st1" d="M609.81,343.31c10.17,0,18.42,8.25,18.42,18.42c0,10.17-8.25,18.42-18.42,18.42
				c-10.17,0-18.42-8.25-18.42-18.42C591.39,351.56,599.64,343.31,609.81,343.31 M609.81,340.31c-11.81,0-21.42,9.61-21.42,21.42
				c0,11.81,9.61,21.42,21.42,21.42c11.81,0,21.42-9.61,21.42-21.42C631.23,349.92,621.62,340.31,609.81,340.31L609.81,340.31z"/>
		</g>
		<g>
			<path class="st22" d="M607.37,381.66c-10.98,0-19.92-8.94-19.92-19.92c0-10.98,8.94-19.92,19.92-19.92
				c10.98,0,19.92,8.94,19.92,19.92C627.29,372.72,618.36,381.66,607.37,381.66z"/>
			<path class="st1" d="M607.37,343.31c10.17,0,18.42,8.25,18.42,18.42c0,10.17-8.25,18.42-18.42,18.42
				c-10.17,0-18.42-8.25-18.42-18.42C588.95,351.56,597.2,343.31,607.37,343.31 M607.37,340.31c-11.81,0-21.42,9.61-21.42,21.42
				c0,11.81,9.61,21.42,21.42,21.42c11.81,0,21.42-9.61,21.42-21.42C628.79,349.92,619.18,340.31,607.37,340.31L607.37,340.31z"/>
		</g>
		<path class="st23" d="M607.37,380.15c0.51,0,1.02-0.03,1.52-0.07c-9.46-0.77-16.9-8.69-16.9-18.35s7.44-17.58,16.9-18.35
			c-0.5-0.04-1.01-0.07-1.52-0.07c-10.17,0-18.42,8.25-18.42,18.42C588.95,371.91,597.2,380.15,607.37,380.15z"/>
		<path class="st12" d="M607.37,380.15c-0.51,0-1.02-0.03-1.52-0.07c9.46-0.77,16.9-8.69,16.9-18.35s-7.44-17.58-16.9-18.35
			c0.5-0.04,1.01-0.07,1.52-0.07c10.17,0,18.42,8.25,18.42,18.42C625.79,371.91,617.55,380.15,607.37,380.15z"/>
		<circle class="st1" cx="592.42" cy="357.89" r="1.46"/>
		<path class="st1" d="M616.79,371.23h-6.15l-4.71-7.31v7.31h-4.94v-19h7.68c1.06,0,1.98,0.16,2.77,0.47
			c0.79,0.31,1.44,0.73,1.95,1.27c0.51,0.54,0.9,1.16,1.16,1.87c0.26,0.7,0.39,1.46,0.39,2.27c0,1.44-0.35,2.62-1.05,3.51
			c-0.7,0.9-1.73,1.51-3.09,1.83L616.79,371.23z M605.93,360.73h0.93c0.97,0,1.72-0.2,2.24-0.61s0.78-0.98,0.78-1.74
			c0-0.75-0.26-1.33-0.78-1.74s-1.27-0.61-2.24-0.61h-0.93V360.73z"/>
	</g>
	<rect x="146.96" y="413.69" class="st12" width="7.53" height="51.92"/>
	<circle class="st1" cx="600.43" cy="448.37" r="1.71"/>
	<circle class="st1" cx="581.59" cy="457.25" r="1.71"/>
	<circle class="st1" cx="651.69" cy="431.17" r="1.71"/>
	<circle class="st1" cx="710.5" cy="439.48" r="1.71"/>
	<circle class="st1" cx="645.47" cy="389.27" r="1.71"/>
	<circle class="st1" cx="547.12" cy="375.75" r="1.71"/>
	<circle class="st1" cx="542" cy="397.74" r="1.71"/>
	<circle class="st1" cx="586.48" cy="492.42" r="1.71"/>
	<circle class="st1" cx="629.36" cy="502.83" r="1.71"/>
	<circle class="st1" cx="668.56" cy="479.06" r="1.71"/>
	<circle class="st1" cx="120.13" cy="465.62" r="1.67"/>
	<circle class="st1" cx="89.76" cy="425.48" r="1.67"/>
	<g class="st2">
		<line class="st37" x1="147.14" y1="352.86" x2="147.14" y2="380.58"/>
		<circle class="st38" cx="146.96" cy="346.28" r="1.71"/>
	</g>
	<circle class="st1" cx="592.42" cy="357.89" r="1.46"/>
	<g class="st0">
		<path class="st1" d="M103.51,366.67c-0.08,0-0.16-0.01-0.24-0.02c-14.25-2.35-27.09-7.48-38.15-15.24
			c-10.13-7.1-19.11-16.64-26.67-28.36c-0.37-0.58-0.31-1.34,0.17-1.84l33.1-35.26c0.28-0.3,0.68-0.47,1.09-0.47
			c0.04,0,0.08,0,0.12,0c0.45,0.04,0.87,0.28,1.12,0.66c12.24,18.14,30.34,31.23,53.8,38.91c2.05,0.68,4.26,1.35,6.77,2.04
			c0.49,0.14,0.88,0.51,1.03,1c0.15,0.49,0.05,1.02-0.28,1.41l-30.71,36.64C104.38,366.48,103.95,366.67,103.51,366.67z"/>
		<g>
			<path class="st1" d="M72.81,286.98c12.35,18.3,30.45,31.59,54.58,39.49c2.22,0.74,4.51,1.41,6.84,2.06l-30.71,36.64
				c-14.42-2.38-26.84-7.49-37.53-14.99c-10.3-7.21-18.97-16.63-26.28-27.94L72.81,286.98 M72.81,283.98
				c-0.82,0-1.62,0.34-2.19,0.95l-33.1,35.26c-0.94,1-1.08,2.52-0.33,3.68c7.67,11.88,16.78,21.56,27.07,28.77
				c11.25,7.89,24.29,13.1,38.76,15.49c0.16,0.03,0.33,0.04,0.49,0.04c0.88,0,1.72-0.39,2.3-1.07l30.71-36.64
				c0.66-0.78,0.87-1.85,0.56-2.82c-0.3-0.97-1.08-1.73-2.07-2c-2.48-0.68-4.67-1.34-6.69-2.01c-23.14-7.58-40.98-20.47-53.03-38.32
				c-0.51-0.76-1.34-1.24-2.25-1.31C72.97,283.99,72.89,283.98,72.81,283.98L72.81,283.98z"/>
		</g>
	</g>
	<path class="st56" d="M38.15,317.43c7.3,11.31,15.98,20.73,26.28,27.94c10.69,7.5,23.11,12.61,37.53,14.99l30.71-36.64
		c-2.33-0.64-4.61-1.32-6.84-2.06c-24.13-7.9-42.22-21.19-54.58-39.49L38.15,317.43z"/>
	<path class="st57" d="M32.65,322.05c4.28,6.63,9,12.63,14.11,17.95"/>
	<path class="st57" d="M118.91,313.21c-8.52-3.55-16.13-7.97-22.81-13.21"/>
	<g>
		<g>
			<path class="st1" d="M71.07,284.52c12.1,17.92,29.44,29.97,53.07,37.7c2.18,0.72,4.41,1.38,6.7,2.01l-29.3,34.75
				c-14.12-2.33-26.34-7.48-36.81-14.83c-10.08-7.07-17.51-15.28-24.66-26.35L71.07,284.52 M71.07,281.52
				c-0.83,0-1.63,0.34-2.2,0.96l-31,33.29c-0.94,1.01-1.07,2.52-0.32,3.67c7.62,11.8,15.47,20.18,25.46,27.18
				c11.2,7.86,24,13.01,38.04,15.33c0.16,0.03,0.33,0.04,0.49,0.04c0.88,0,1.72-0.38,2.29-1.07l29.3-34.75
				c0.66-0.78,0.87-1.85,0.57-2.82c-0.3-0.98-1.08-1.73-2.07-2c-2.43-0.67-4.57-1.31-6.55-1.97c-23.21-7.6-40.07-19.55-51.53-36.53
				c-0.51-0.76-1.34-1.24-2.25-1.31C71.23,281.52,71.15,281.52,71.07,281.52L71.07,281.52z"/>
		</g>
	</g>
	<line class="st58" x1="51.8" y1="325.79" x2="72.22" y2="302.9"/>
	<line class="st58" x1="46.63" y1="320.15" x2="67.05" y2="297.26"/>
	<line class="st58" x1="56.84" y1="331.73" x2="77.26" y2="308.84"/>
	<line class="st58" x1="62.9" y1="337.3" x2="76.51" y2="322.05"/>
	<line class="st58" x1="69.7" y1="341.55" x2="79.24" y2="330.85"/>
	<path class="st12" d="M65.24,344.57c11.27,7.7,21.88,12.03,36.3,14.41l28.43-34.55c-2.33-0.64-3.6-1.47-5.82-2.21
		C110.69,333.15,88.71,348.02,65.24,344.57z"/>
	<path class="st59" d="M46.06,326.08c-2.61-2.74-4.52-5.2-5.99-8.27l31.25-33.29c0.89,2.1,10.28,12.97,16.71,18.52
		C81.05,301,71.43,295.96,46.06,326.08z"/>
	<line class="st58" x1="121.13" y1="328.51" x2="103.96" y2="349.38"/>
	<circle class="st12" cx="101.29" cy="353.58" r="1.32"/>
	<circle class="st47" cx="92.33" cy="296.5" r="1.45"/>
	<circle class="st47" cx="50.49" cy="344.16" r="1.32"/>
	<circle class="st12" cx="188.93" cy="271.77" r="1.32"/>
	<g>
		<g class="st0">
			<path class="st1" d="M178.85,292.68c-0.44,0-0.86-0.19-1.15-0.54L150.76,260c-0.33-0.39-0.43-0.92-0.28-1.41
				c0.15-0.49,0.54-0.86,1.03-1c2.2-0.6,4.13-1.19,5.92-1.78c20.55-6.73,36.4-18.19,47.11-34.06c0.25-0.38,0.67-0.62,1.12-0.66
				c0.04,0,0.08,0,0.12,0c0.41,0,0.81,0.17,1.09,0.47l29.04,30.93c0.47,0.5,0.54,1.26,0.17,1.84c-6.65,10.3-14.54,18.69-23.45,24.93
				c-9.73,6.83-21.01,11.33-33.55,13.4C179.01,292.68,178.93,292.68,178.85,292.68z"/>
			<g>
				<path class="st1" d="M205.79,222.58l29.04,30.93c-6.41,9.92-14.02,18.19-23.05,24.52c-9.38,6.58-20.27,11.06-32.93,13.15
					l-26.94-32.15c2.05-0.56,4.05-1.16,6-1.8C179.08,250.3,194.95,238.64,205.79,222.58 M205.79,219.58c-0.08,0-0.16,0-0.24,0.01
					c-0.91,0.07-1.74,0.56-2.25,1.31c-10.53,15.6-26.11,26.86-46.33,33.48c-1.78,0.59-3.69,1.16-5.86,1.76
					c-0.98,0.27-1.76,1.02-2.07,2s-0.09,2.04,0.56,2.82l26.94,32.15c0.58,0.69,1.42,1.07,2.3,1.07c0.16,0,0.33-0.01,0.49-0.04
					c12.76-2.1,24.25-6.7,34.16-13.65c9.07-6.36,17.1-14.88,23.85-25.34c0.75-1.16,0.61-2.68-0.33-3.68l-29.04-30.93
					C207.41,219.92,206.61,219.58,205.79,219.58L205.79,219.58z"/>
			</g>
		</g>
		<path class="st56" d="M236.2,249.29c-6.41,9.92-14.02,18.19-23.05,24.52c-9.38,6.58-20.27,11.06-32.93,13.15l-26.94-32.15
			c2.05-0.56,4.05-1.16,6-1.8c21.17-6.93,37.04-18.59,47.88-34.65L236.2,249.29z"/>
		<path class="st57" d="M241.02,253.35c-3.76,5.82-7.9,11.08-12.38,15.75"/>
		<path class="st57" d="M165.34,245.59c7.47-3.12,14.15-6.99,20.02-11.59"/>
		<g>
			<g>
				<path class="st1" d="M207.31,220.42l27.2,29.2c-6.27,9.72-12.79,16.92-21.64,23.12c-9.18,6.44-19.9,10.97-32.29,13.01
					l-25.71-30.49c2-0.55,3.96-1.13,5.87-1.77C181.48,246.71,196.7,236.15,207.31,220.42 M207.31,217.42c-0.08,0-0.16,0-0.23,0.01
					c-0.91,0.07-1.74,0.55-2.25,1.31c-10.01,14.83-24.73,25.27-45.01,31.91c-1.74,0.58-3.61,1.14-5.74,1.72
					c-0.99,0.27-1.77,1.03-2.07,2c-0.3,0.98-0.09,2.04,0.57,2.82l25.71,30.49c0.58,0.68,1.42,1.07,2.29,1.07
					c0.16,0,0.33-0.01,0.49-0.04c12.38-2.04,23.66-6.59,33.53-13.51c8.8-6.17,15.72-13.56,22.43-23.95
					c0.75-1.15,0.61-2.67-0.32-3.67l-27.2-29.2C208.94,217.76,208.14,217.42,207.31,217.42L207.31,217.42z"/>
			</g>
		</g>
		<line class="st58" x1="224.22" y1="256.63" x2="206.31" y2="236.55"/>
		<line class="st58" x1="228.75" y1="251.68" x2="210.84" y2="231.6"/>
		<line class="st58" x1="219.8" y1="261.84" x2="201.89" y2="241.76"/>
		<line class="st58" x1="214.48" y1="266.73" x2="202.55" y2="253.35"/>
		<line class="st58" x1="208.51" y1="270.45" x2="200.15" y2="261.07"/>
		<path class="st12" d="M212.43,273.11c-9.89,6.75-19.2,10.56-31.85,12.64l-24.94-30.32c2.05-0.56,3.16-1.29,5.11-1.94
			C172.55,263.09,191.84,276.13,212.43,273.11z"/>
		<path class="st59" d="M229.26,256.88c2.29-2.4,3.96-4.56,5.26-7.26l-27.42-29.2c-0.78,1.85-9.02,11.38-14.66,16.25
			C198.56,234.88,207,230.46,229.26,256.88z"/>
		<line class="st58" x1="163.4" y1="259.01" x2="178.46" y2="277.33"/>
		<circle class="st47" cx="188.66" cy="230.93" r="1.27"/>
		<circle class="st47" cx="225.38" cy="272.74" r="1.15"/>
	</g>
	<g class="st27">
		<path class="st18" d="M686.13,288c-3.61,1.15-3.89,3.41-3.53,5.14c0.32,1.53,3.67,1.92,6.8,2.42c-0.57,0.13-2.88,0.97-3.47,1.09
			c-13,2.59-17.19,1.67-18.92,0.15C666.81,296.1,670.75,290.84,686.13,288"/>
	</g>
	<g class="st45">
		<path class="st18" d="M616.64,297.57c-3.74,0.57-4.19,8.56,2.43,8.73c-1.18,0.38-6.6,1.09-7.2,1.11
			c-10.58,0.64-12.78-1.74-12.9-2.93C598.7,303.74,600.22,299.23,616.64,297.57"/>
	</g>
	<g class="st27">
		<path class="st18" d="M648.09,262.82c-3.52-1.38-5.07,0.06-5.81,1.51c-0.65,1.29,1.76,3.6,3.93,5.87
			c-0.53-0.26-2.84-1.07-3.38-1.34c-11.78-6.08-14.54-9.3-15.01-11.43C628.09,256.79,634.29,255.45,648.09,262.82"/>
	</g>
	<g class="st45">
		<path class="st18" d="M621.58,218.1c-3.61,1.14-3.9,3.23-3.57,4.83c0.45,2.15,2.89,2.73,6.75,2.09c-0.57,0.13-4.57,2.01-6.16,2.22
			c-12.27,2.7-15.27,1.16-16.17-0.6C602.13,225.31,605.27,219.97,621.58,218.1"/>
	</g>
	<circle class="st1" cx="710.91" cy="436.55" r="1.23"/>
	<circle class="st1" cx="710.91" cy="436.55" r="1.8"/>
</g>
</svg>
